  0
SECTION
2
HEADER
  9
$ACADVER
  1
AC1009
  9
$EXTMIN
 10
0.000 
20
0.000 
  9
$EXTMAX
 10
16.000
 20
13.878
  9
$LIMMIN
 10
0.000 
20
0.000 
  9
$LIMMAX
 10
16.000
 20
13.878
  9
$CLAYER
  8
1 outline
  0
ENDSEC
  0
SECTION
  2
TABLES
  0
TABLE
  2
LAYER
 70
1
  0
LAYER
  2
1outline
 70
64
 62
1
  6
CONTINUOUS
  0
ENDTAB
  0
ENDSEC
  0
SECTION
  2
ENTITIES
  0
POLYLINE
  8
1outline
 66
1
  0
VERTEX
  8
1outline
 10
11.6603
 20
11.2525
  0
VERTEX
  8
1outline
 10
12.1101
 20
11.6681
  0
VERTEX
  8
1outline
 10
11.6681
 20
12.1101
  0
VERTEX
  8
1outline
 10
11.6681
 20
12.9939
  0
VERTEX
  8
1outline
 10
12.552
 20
12.1101
  0
VERTEX
  8
1outline
 10
12.9939
 20
12.552
  0
VERTEX
  8
1outline
 10
11.6681
 20
13.8778
  0
VERTEX
  8
1outline
 10
12.552
 20
13.8778
  0
VERTEX
  8
1outline
 10
13.4359
 20
12.9939
  0
VERTEX
  8
1outline
 10
13.8734
 20
13.4318
  0
VERTEX
  8
1outline
 10
14.1309
 20
13.1395
  0
VERTEX
  8
1outline
 10
14.3718
 20
12.8382
  0
VERTEX
  8
1outline
 10
14.5961
 20
12.5283
  0
VERTEX
  8
1outline
 10
14.8038
 20
12.2104
  0
VERTEX
  8
1outline
 10
14.9949
 20
11.8853
  0
VERTEX
  8
1outline
 10
15.1693
 20
11.5534
  0
VERTEX
  8
1outline
 10
15.3272
 20
11.2155
  0
VERTEX
  8
1outline
 10
15.4684
 20
10.872
  0
VERTEX
  8
1outline
 10
15.593
 20
10.5237
  0
VERTEX
  8
1outline
 10
15.701
 20
10.1711
  0
VERTEX
  8
1outline
 10
15.7924
 20
9.81482
  0
VERTEX
  8
1outline
 10
15.8671
 20
9.45552
  0
VERTEX
  8
1outline
 10
15.9253
 20
9.09377
  0
VERTEX
  8
1outline
 10
15.9668
 20
8.7302
  0
VERTEX
  8
1outline
 10
15.9917
 20
8.3654
  0
VERTEX
  8
1outline
 10
16
 20
8
  0
VERTEX
  8
1outline
 10
15.9917
 20
7.6346
  0
VERTEX
  8
1outline
 10
15.9668
 20
7.2698
  0
VERTEX
  8
1outline
 10
15.9253
 20
6.90623
  0
VERTEX
  8
1outline
 10
15.8671
 20
6.54448
  0
VERTEX
  8
1outline
 10
15.7924
 20
6.18518
  0
VERTEX
  8
1outline
 10
15.701
 20
5.82892
  0
VERTEX
  8
1outline
 10
15.593
 20
5.47632
  0
VERTEX
  8
1outline
 10
15.4684
 20
5.12799
  0
VERTEX
  8
1outline
 10
15.3272
 20
4.78455
  0
VERTEX
  8
1outline
 10
15.1693
 20
4.44658
  0
VERTEX
  8
1outline
 10
14.9949
 20
4.11472
  0
VERTEX
  8
1outline
 10
14.8038
 20
3.78957
  0
VERTEX
  8
1outline
 10
14.5961
 20
3.47173
  0
VERTEX
  8
1outline
 10
14.3718
 20
3.16182
  0
VERTEX
  8
1outline
 10
14.1309
 20
2.86045
  0
VERTEX
  8
1outline
 10
13.8734
 20
2.56823
  0
VERTEX
  8
1outline
 10
12.8176
 20
3.62438
  0
VERTEX
  8
1outline
 10
12.3756
 20
3.18244
  0
VERTEX
  8
1outline
 10
13.4317
 20
2.12665
  0
VERTEX
  8
1outline
 10
13.1224
 20
1.85478
  0
VERTEX
  8
1outline
 10
12.8032
 20
1.60161
  0
VERTEX
  8
1outline
 10
12.4747
 20
1.36713
  0
VERTEX
  8
1outline
 10
12.1377
 20
1.15129
  0
VERTEX
  8
1outline
 10
11.7929
 20
0.954086
  0
VERTEX
  8
1outline
 10
11.441
 20
0.775475
  0
VERTEX
  8
1outline
 10
11.0827
 20
0.615433
  0
VERTEX
  8
1outline
 10
10.7187
 20
0.473932
  0
VERTEX
  8
1outline
 10
10.3498
 20
0.350946
  0
VERTEX
  8
1outline
 10
9.97657
 20
0.246445
  0
VERTEX
  8
1outline
 10
9.59983
 20
0.160403
  0
VERTEX
  8
1outline
 10
9.22024
 20
0.0927915
  0
VERTEX
  8
1outline
 10
8.83853
 20
0.0435829
  0
VERTEX
  8
1outline
 10
8.4554
 20
0.0127493
  0
VERTEX
  8
1outline
 10
8.07157
 20
0.000263143
  0
VERTEX
  8
1outline
 10
7.68774
 20
0.00609658
  0
VERTEX
  8
1outline
 10
7.30462
 20
0.0302219
  0
VERTEX
  8
1outline
 10
6.92293
 20
0.0726113
  0
VERTEX
  8
1outline
 10
6.54338
 20
0.133237
  0
VERTEX
  8
1outline
 10
6.16667
 20
0.212072
  0
VERTEX
  8
1outline
 10
5.79351
 20
0.309087
  0
VERTEX
  8
1outline
 10
5.42463
 20
0.424255
  0
VERTEX
  8
1outline
 10
5.06071
 20
0.557549
  0
VERTEX
  8
1outline
 10
4.70249
 20
0.708941
  0
VERTEX
  8
1outline
 10
4.35066
 20
0.878402
  0
VERTEX
  8
1outline
 10
4.00594
 20
1.06591
  0
VERTEX
  8
1outline
 10
3.66904
 20
1.27142
  0
VERTEX
  8
1outline
 10
3.34067
 20
1.49493
  0
VERTEX
  8
1outline
 10
3.02153
 20
1.73639
  0
VERTEX
  8
1outline
 10
2.71234
 20
1.99579
  0
VERTEX
  8
1outline
 10
2.41381
 20
2.27308
  0
VERTEX
  8
1outline
 10
2.12665
 20
2.56826
  0
VERTEX
  8
1outline
 10
1.85478
 20
2.87757
  0
VERTEX
  8
1outline
 10
1.60161
 20
3.19682
  0
VERTEX
  8
1outline
 10
1.36713
 20
3.5253
  0
VERTEX
  8
1outline
 10
1.15129
 20
3.8623
  0
VERTEX
  8
1outline
 10
0.954086
 20
4.2071
  0
VERTEX
  8
1outline
 10
0.775475
 20
4.55901
  0
VERTEX
  8
1outline
 10
0.615433
 20
4.91731
  0
VERTEX
  8
1outline
 10
0.473932
 20
5.28128
  0
VERTEX
  8
1outline
 10
0.350946
 20
5.65023
  0
VERTEX
  8
1outline
 10
0.246445
 20
6.02343
  0
VERTEX
  8
1outline
 10
0.160403
 20
6.40017
  0
VERTEX
  8
1outline
 10
0.0927916
 20
6.77976
  0
VERTEX
  8
1outline
 10
0.0435829
 20
7.16147
  0
VERTEX
  8
1outline
 10
0.0127494
 20
7.5446
  0
VERTEX
  8
1outline
 10
0.000263148
 20
7.92843
  0
VERTEX
  8
1outline
 10
0.00609656
 20
8.31226
  0
VERTEX
  8
1outline
 10
0.0302218
 20
8.69538
  0
VERTEX
  8
1outline
 10
0.0726113
 20
9.07707
  0
VERTEX
  8
1outline
 10
0.133237
 20
9.45662
  0
VERTEX
  8
1outline
 10
0.212071
 20
9.83333
  0
VERTEX
  8
1outline
 10
0.309087
 20
10.2065
  0
VERTEX
  8
1outline
 10
0.424255
 20
10.5754
  0
VERTEX
  8
1outline
 10
0.557549
 20
10.9393
  0
VERTEX
  8
1outline
 10
0.708941
 20
11.2975
  0
VERTEX
  8
1outline
 10
0.878402
 20
11.6493
  0
VERTEX
  8
1outline
 10
1.06591
 20
11.9941
  0
VERTEX
  8
1outline
 10
1.27142
 20
12.331
  0
VERTEX
  8
1outline
 10
1.49493
 20
12.6593
  0
VERTEX
  8
1outline
 10
1.73639
 20
12.9785
  0
VERTEX
  8
1outline
 10
1.99579
 20
13.2877
  0
VERTEX
  8
1outline
 10
2.27308
 20
13.5862
  0
VERTEX
  8
1outline
 10
2.56826
 20
13.8733
  0
VERTEX
  8
1outline
 10
3.448
 20
13.8778
  0
VERTEX
  8
1outline
 10
2.56412
 20
12.9939
  0
VERTEX
  8
1outline
 10
3.00606
 20
12.552
  0
VERTEX
  8
1outline
 10
4.33188
 20
13.8778
  0
VERTEX
  8
1outline
 10
4.33188
 20
12.9939
  0
VERTEX
  8
1outline
 10
3.448
 20
12.1101
  0
VERTEX
  8
1outline
 10
3.88994
 20
11.6681
  0
VERTEX
  8
1outline
 10
4.33188
 20
12.1101
  0
VERTEX
  8
1outline
 10
4.33188
 20
11.2262
  0
VERTEX
  8
1outline
 10
4.27542
 20
11.0286
  0
VERTEX
  8
1outline
 10
4.2226
 20
10.8302
  0
VERTEX
  8
1outline
 10
4.17342
 20
10.6312
  0
VERTEX
  8
1outline
 10
4.12788
 20
10.4315
  0
VERTEX
  8
1outline
 10
4.08597
 20
10.2312
  0
VERTEX
  8
1outline
 10
4.04771
 20
10.0304
  0
VERTEX
  8
1outline
 10
4.01308
 20
9.82903
  0
VERTEX
  8
1outline
 10
3.9821
 20
9.62727
  0
VERTEX
  8
1outline
 10
3.95475
 20
9.42511
  0
VERTEX
  8
1outline
 10
3.93104
 20
9.2226
  0
VERTEX
  8
1outline
 10
3.91097
 20
9.0198
  0
VERTEX
  8
1outline
 10
3.89454
 20
8.81675
  0
VERTEX
  8
1outline
 10
3.88175
 20
8.6135
  0
VERTEX
  8
1outline
 10
3.8726
 20
8.4101
  0
VERTEX
  8
1outline
 10
3.86708
 20
8.2066
  0
VERTEX
  8
1outline
 10
3.86521
 20
8.00306
  0
VERTEX
  8
1outline
 10
3.86697
 20
7.79951
  0
VERTEX
  8
1outline
 10
3.87238
 20
7.59601
  0
VERTEX
  8
1outline
 10
3.88142
 20
7.3926
  0
VERTEX
  8
1outline
 10
3.8941
 20
7.18935
  0
VERTEX
  8
1outline
 10
3.91043
 20
6.98629
  0
VERTEX
  8
1outline
 10
3.93039
 20
6.78348
  0
VERTEX
  8
1outline
 10
3.95399
 20
6.58096
  0
VERTEX
  8
1outline
 10
3.98123
 20
6.37878
  0
VERTEX
  8
1outline
 10
4.0121
 20
6.177
  0
VERTEX
  8
1outline
 10
4.04662
 20
5.97566
  0
VERTEX
  8
1outline
 10
4.08478
 20
5.77481
  0
VERTEX
  8
1outline
 10
4.12657
 20
5.57451
  0
VERTEX
  8
1outline
 10
4.17201
 20
5.37479
  0
VERTEX
  8
1outline
 10
4.22109
 20
5.17572
  0
VERTEX
  8
1outline
 10
4.2738
 20
4.97733
  0
VERTEX
  8
1outline
 10
4.33015
 20
4.77969
  0
VERTEX
  8
1outline
 10
3.18262
 20
3.62456
  0
VERTEX
  8
1outline
 10
3.62456
 20
3.18262
  0
VERTEX
  8
1outline
 10
4.77541
 20
4.33398
  0
VERTEX
  8
1outline
 10
4.8069
 20
4.25991
  0
VERTEX
  8
1outline
 10
4.83902
 20
4.18613
  0
VERTEX
  8
1outline
 10
4.87175
 20
4.11265
  0
VERTEX
  8
1outline
 10
4.9051
 20
4.03946
  0
VERTEX
  8
1outline
 10
4.93906
 20
3.96658
  0
VERTEX
  8
1outline
 10
4.97363
 20
3.894
  0
VERTEX
  8
1outline
 10
5.00881
 20
3.82173
  0
VERTEX
  8
1outline
 10
5.0446
 20
3.74978
  0
VERTEX
  8
1outline
 10
5.08099
 20
3.67814
  0
VERTEX
  8
1outline
 10
5.11799
 20
3.60682
  0
VERTEX
  8
1outline
 10
5.15558
 20
3.53582
  0
VERTEX
  8
1outline
 10
5.19377
 20
3.46516
  0
VERTEX
  8
1outline
 10
5.23256
 20
3.39482
  0
VERTEX
  8
1outline
 10
5.27194
 20
3.32482
  0
VERTEX
  8
1outline
 10
5.31192
 20
3.25516
  0
VERTEX
  8
1outline
 10
5.35248
 20
3.18584
  0
VERTEX
  8
1outline
 10
5.39363
 20
3.11687
  0
VERTEX
  8
1outline
 10
5.43536
 20
3.04825
  0
VERTEX
  8
1outline
 10
5.47768
 20
2.97999
  0
VERTEX
  8
1outline
 10
5.52057
 20
2.91208
  0
VERTEX
  8
1outline
 10
5.56405
 20
2.84453
  0
VERTEX
  8
1outline
 10
5.6081
 20
2.77735
  0
VERTEX
  8
1outline
 10
5.65272
 20
2.71054
  0
VERTEX
  8
1outline
 10
5.69791
 20
2.6441
  0
VERTEX
  8
1outline
 10
5.74368
 20
2.57804
  0
VERTEX
  8
1outline
 10
5.79001
 20
2.51236
  0
VERTEX
  8
1outline
 10
5.8369
 20
2.44706
  0
VERTEX
  8
1outline
 10
5.88436
 20
2.38215
  0
VERTEX
  8
1outline
 10
5.93238
 20
2.31764
  0
VERTEX
  8
1outline
 10
5.98095
 20
2.25351
  0
VERTEX
  8
1outline
 10
6.03008
 20
2.18979
  0
VERTEX
  8
1outline
 10
6.07977
 20
2.12647
  0
VERTEX
  8
1outline
 10
9.92023
 20
2.12647
  0
VERTEX
  8
1outline
 10
9.96992
 20
2.18979
  0
VERTEX
  8
1outline
 10
10.019
 20
2.25351
  0
VERTEX
  8
1outline
 10
10.0676
 20
2.31764
  0
VERTEX
  8
1outline
 10
10.1156
 20
2.38215
  0
VERTEX
  8
1outline
 10
10.1631
 20
2.44706
  0
VERTEX
  8
1outline
 10
10.21
 20
2.51236
  0
VERTEX
  8
1outline
 10
10.2563
 20
2.57804
  0
VERTEX
  8
1outline
 10
10.3021
 20
2.6441
  0
VERTEX
  8
1outline
 10
10.3473
 20
2.71054
  0
VERTEX
  8
1outline
 10
10.3919
 20
2.77735
  0
VERTEX
  8
1outline
 10
10.436
 20
2.84453
  0
VERTEX
  8
1outline
 10
10.4794
 20
2.91208
  0
VERTEX
  8
1outline
 10
10.5223
 20
2.97999
  0
VERTEX
  8
1outline
 10
10.5646
 20
3.04825
  0
VERTEX
  8
1outline
 10
10.6064
 20
3.11687
  0
VERTEX
  8
1outline
 10
10.6475
 20
3.18584
  0
VERTEX
  8
1outline
 10
10.6881
 20
3.25516
  0
VERTEX
  8
1outline
 10
10.7281
 20
3.32482
  0
VERTEX
  8
1outline
 10
10.7674
 20
3.39482
  0
VERTEX
  8
1outline
 10
10.8062
 20
3.46516
  0
VERTEX
  8
1outline
 10
10.8444
 20
3.53582
  0
VERTEX
  8
1outline
 10
10.882
 20
3.60682
  0
VERTEX
  8
1outline
 10
10.919
 20
3.67814
  0
VERTEX
  8
1outline
 10
10.9554
 20
3.74978
  0
VERTEX
  8
1outline
 10
10.9912
 20
3.82173
  0
VERTEX
  8
1outline
 10
11.0264
 20
3.894
  0
VERTEX
  8
1outline
 10
11.0609
 20
3.96658
  0
VERTEX
  8
1outline
 10
11.0949
 20
4.03946
  0
VERTEX
  8
1outline
 10
11.1282
 20
4.11265
  0
VERTEX
  8
1outline
 10
11.161
 20
4.18613
  0
VERTEX
  8
1outline
 10
11.1931
 20
4.25991
  0
VERTEX
  8
1outline
 10
11.2246
 20
4.33398
  0
VERTEX
  8
1outline
 10
11.6698
 20
4.77968
  0
VERTEX
  8
1outline
 10
11.7264
 20
4.97813
  0
VERTEX
  8
1outline
 10
11.7793
 20
5.17732
  0
VERTEX
  8
1outline
 10
11.8286
 20
5.3772
  0
VERTEX
  8
1outline
 10
11.8741
 20
5.57773
  0
VERTEX
  8
1outline
 10
11.916
 20
5.77885
  0
VERTEX
  8
1outline
 10
11.9543
 20
5.98052
  0
VERTEX
  8
1outline
 10
11.9888
 20
6.18267
  0
VERTEX
  8
1outline
 10
12.0197
 20
6.38528
  0
VERTEX
  8
1outline
 10
12.0469
 20
6.58827
  0
VERTEX
  8
1outline
 10
12.0705
 20
6.79161
  0
VERTEX
  8
1outline
 10
12.0904
 20
6.99525
  0
VERTEX
  8
1outline
 10
12.1066
 20
7.19913
  0
VERTEX
  8
1outline
 10
12.1191
 20
7.4032
  0
VERTEX
  8
1outline
 10
12.128
 20
7.60742
  0
VERTEX
  8
1outline
 10
12.1332
 20
7.81173
  0
VERTEX
  8
1outline
 10
12.1348
 20
8.01609
  0
VERTEX
  8
1outline
 10
12.1327
 20
8.22044
  0
VERTEX
  8
1outline
 10
12.1269
 20
8.42474
  0
VERTEX
  8
1outline
 10
12.1174
 20
8.62893
  0
VERTEX
  8
1outline
 10
12.1043
 20
8.83296
  0
VERTEX
  8
1outline
 10
12.0875
 20
9.0368
  0
VERTEX
  8
1outline
 10
12.067
 20
9.24037
  0
VERTEX
  8
1outline
 10
12.0429
 20
9.44365
  0
VERTEX
  8
1outline
 10
12.0151
 20
9.64656
  0
VERTEX
  8
1outline
 10
11.9836
 20
9.84908
  0
VERTEX
  8
1outline
 10
11.9485
 20
10.0511
  0
VERTEX
  8
1outline
 10
11.9097
 20
10.2527
  0
VERTEX
  8
1outline
 10
11.8672
 20
10.4537
  0
VERTEX
  8
1outline
 10
11.8211
 20
10.6541
  0
VERTEX
  8
1outline
 10
11.7713
 20
10.8538
  0
VERTEX
  8
1outline
 10
11.7178
 20
11.0529
  0
VERTEX
  8
1outline
 10
11.6607
 20
11.2512
  0
SEQEND
  0
ENDSEC
  0
EOF
