  0
SECTION
  2
HEADER
  9
$ACADVER
  1
AC1012
  0
ENDSEC
  0
SECTION
  2
CLASSES
  0
ENDSEC
  0
SECTION
  2
TABLES
  0
TABLE
  2
LTYPE
 70
     9
  0
LTYPE
  2
CONTINUOUS
 70
    64
  3
実線
 72
    65
 73
     0
 40
0.0
  0
LTYPE
  2
HIDDEN
 70
    64
  3
破線
 72
    65
 73
     2
 40
3
 49
2
 49
-1
  0
LTYPE
  2
DASHDOT
 70
    64
  3
１点鎖線
 72
    65
 73
     4
 40
13
 49
10
 49
-1
 49
1
 49
-1
  0
LTYPE
  2
DIVIDE
 70
    64
  3
２点鎖線
 72
    65
 73
     6
 40
16
 49
10
 49
-1
 49
1
 49
-1
 49
1
 49
-1
  0
ENDTAB
  0
TABLE
  2
LAYER
 70
  248
  0
LAYER
  2
1outline
 70
   0
 62
     1
  6
CONTINUOUS
  0
LAYER
  2
2holes
 70
   0
 62
     2
  6
CONTINUOUS
  0
LAYER
  2
A
 70
   0
 62
     7
  6
CONTINUOUS
  0
LAYER
  2
B
 70
   0
 62
     7
  6
CONTINUOUS
  0
LAYER
  2
C
 70
   0
 62
     7
  6
CONTINUOUS
  0
LAYER
  2
D
 70
   0
 62
     7
  6
CONTINUOUS
  0
LAYER
  2
E
 70
   0
 62
     7
  6
CONTINUOUS
  0
LAYER
  2
F
 70
   0
 62
     7
  6
CONTINUOUS
  0
LAYER
  2
10
 70
   0
 62
     7
  6
CONTINUOUS
  0
LAYER
  2
11
 70
   0
 62
     7
  6
CONTINUOUS
  0
LAYER
  2
12
 70
   0
 62
     7
  6
CONTINUOUS
  0
LAYER
  2
13
 70
   0
 62
     7
  6
CONTINUOUS
  0
LAYER
  2
14
 70
   0
 62
     7
  6
CONTINUOUS
  0
LAYER
  2
15
 70
   0
 62
     7
  6
CONTINUOUS
  0
LAYER
  2
16
 70
   0
 62
     7
  6
CONTINUOUS
  0
LAYER
  2
17
 70
   0
 62
     7
  6
CONTINUOUS
  0
LAYER
  2
18
 70
   0
 62
     7
  6
CONTINUOUS
  0
LAYER
  2
19
 70
   0
 62
     7
  6
CONTINUOUS
  0
LAYER
  2
1A
 70
   0
 62
     7
  6
CONTINUOUS
  0
LAYER
  2
1B
 70
   0
 62
     7
  6
CONTINUOUS
  0
LAYER
  2
1C
 70
   0
 62
     7
  6
CONTINUOUS
  0
LAYER
  2
1D
 70
   0
 62
     7
  6
CONTINUOUS
  0
LAYER
  2
1E
 70
   0
 62
     7
  6
CONTINUOUS
  0
LAYER
  2
1F
 70
   0
 62
     7
  6
CONTINUOUS
  0
LAYER
  2
20
 70
   0
 62
     7
  6
CONTINUOUS
  0
LAYER
  2
21
 70
   0
 62
     7
  6
CONTINUOUS
  0
LAYER
  2
22
 70
   0
 62
     7
  6
CONTINUOUS
  0
LAYER
  2
23
 70
   0
 62
     7
  6
CONTINUOUS
  0
LAYER
  2
24
 70
   0
 62
     7
  6
CONTINUOUS
  0
LAYER
  2
25
 70
   0
 62
     7
  6
CONTINUOUS
  0
LAYER
  2
26
 70
   0
 62
     7
  6
CONTINUOUS
  0
LAYER
  2
27
 70
   0
 62
     7
  6
CONTINUOUS
  0
LAYER
  2
28
 70
   0
 62
     7
  6
CONTINUOUS
  0
LAYER
  2
29
 70
   0
 62
     7
  6
CONTINUOUS
  0
LAYER
  2
2A
 70
   0
 62
     7
  6
CONTINUOUS
  0
LAYER
  2
2B
 70
   0
 62
     7
  6
CONTINUOUS
  0
LAYER
  2
2C
 70
   0
 62
     7
  6
CONTINUOUS
  0
LAYER
  2
2D
 70
   0
 62
     7
  6
CONTINUOUS
  0
LAYER
  2
2E
 70
   0
 62
     7
  6
CONTINUOUS
  0
LAYER
  2
2F
 70
   0
 62
     7
  6
CONTINUOUS
  0
LAYER
  2
30
 70
   0
 62
     7
  6
CONTINUOUS
  0
LAYER
  2
31
 70
   0
 62
     7
  6
CONTINUOUS
  0
LAYER
  2
32
 70
   0
 62
     7
  6
CONTINUOUS
  0
LAYER
  2
33
 70
   0
 62
     7
  6
CONTINUOUS
  0
LAYER
  2
34
 70
   0
 62
     7
  6
CONTINUOUS
  0
LAYER
  2
35
 70
   0
 62
     7
  6
CONTINUOUS
  0
LAYER
  2
36
 70
   0
 62
     7
  6
CONTINUOUS
  0
LAYER
  2
37
 70
   0
 62
     7
  6
CONTINUOUS
  0
LAYER
  2
38
 70
   0
 62
     7
  6
CONTINUOUS
  0
LAYER
  2
39
 70
   0
 62
     7
  6
CONTINUOUS
  0
LAYER
  2
3A
 70
   0
 62
     7
  6
CONTINUOUS
  0
LAYER
  2
3B
 70
   0
 62
     7
  6
CONTINUOUS
  0
LAYER
  2
3C
 70
   0
 62
     7
  6
CONTINUOUS
  0
LAYER
  2
3D
 70
   0
 62
     7
  6
CONTINUOUS
  0
LAYER
  2
3E
 70
   0
 62
     7
  6
CONTINUOUS
  0
LAYER
  2
3F
 70
   0
 62
     7
  6
CONTINUOUS
  0
LAYER
  2
40
 70
   0
 62
     7
  6
CONTINUOUS
  0
LAYER
  2
41
 70
   0
 62
     7
  6
CONTINUOUS
  0
LAYER
  2
42
 70
   0
 62
     7
  6
CONTINUOUS
  0
LAYER
  2
43
 70
   0
 62
     7
  6
CONTINUOUS
  0
LAYER
  2
44
 70
   0
 62
     7
  6
CONTINUOUS
  0
LAYER
  2
45
 70
   0
 62
     7
  6
CONTINUOUS
  0
LAYER
  2
46
 70
   0
 62
     7
  6
CONTINUOUS
  0
LAYER
  2
47
 70
   0
 62
     7
  6
CONTINUOUS
  0
LAYER
  2
48
 70
   0
 62
     7
  6
CONTINUOUS
  0
LAYER
  2
49
 70
   0
 62
     7
  6
CONTINUOUS
  0
LAYER
  2
4A
 70
   0
 62
     7
  6
CONTINUOUS
  0
LAYER
  2
4B
 70
   0
 62
     7
  6
CONTINUOUS
  0
LAYER
  2
4C
 70
   0
 62
     7
  6
CONTINUOUS
  0
LAYER
  2
4D
 70
   0
 62
     7
  6
CONTINUOUS
  0
LAYER
  2
4E
 70
   0
 62
     7
  6
CONTINUOUS
  0
LAYER
  2
4F
 70
   0
 62
     7
  6
CONTINUOUS
  0
LAYER
  2
50
 70
   0
 62
     7
  6
CONTINUOUS
  0
LAYER
  2
51
 70
   0
 62
     7
  6
CONTINUOUS
  0
LAYER
  2
52
 70
   0
 62
     7
  6
CONTINUOUS
  0
LAYER
  2
53
 70
   0
 62
     7
  6
CONTINUOUS
  0
LAYER
  2
54
 70
   0
 62
     7
  6
CONTINUOUS
  0
LAYER
  2
55
 70
   0
 62
     7
  6
CONTINUOUS
  0
LAYER
  2
56
 70
   0
 62
     7
  6
CONTINUOUS
  0
LAYER
  2
57
 70
   0
 62
     7
  6
CONTINUOUS
  0
LAYER
  2
58
 70
   0
 62
     7
  6
CONTINUOUS
  0
LAYER
  2
59
 70
   0
 62
     7
  6
CONTINUOUS
  0
LAYER
  2
5A
 70
   0
 62
     7
  6
CONTINUOUS
  0
LAYER
  2
5B
 70
   0
 62
     7
  6
CONTINUOUS
  0
LAYER
  2
5C
 70
   0
 62
     7
  6
CONTINUOUS
  0
LAYER
  2
5D
 70
   0
 62
     7
  6
CONTINUOUS
  0
LAYER
  2
5E
 70
   0
 62
     7
  6
CONTINUOUS
  0
LAYER
  2
5F
 70
   0
 62
     7
  6
CONTINUOUS
  0
LAYER
  2
60
 70
   0
 62
     7
  6
CONTINUOUS
  0
LAYER
  2
61
 70
   0
 62
     7
  6
CONTINUOUS
  0
LAYER
  2
62
 70
   0
 62
     7
  6
CONTINUOUS
  0
LAYER
  2
63
 70
   0
 62
     7
  6
CONTINUOUS
  0
LAYER
  2
64
 70
   0
 62
     7
  6
CONTINUOUS
  0
LAYER
  2
65
 70
   0
 62
     7
  6
CONTINUOUS
  0
LAYER
  2
66
 70
   0
 62
     7
  6
CONTINUOUS
  0
LAYER
  2
67
 70
   0
 62
     7
  6
CONTINUOUS
  0
LAYER
  2
68
 70
   0
 62
     7
  6
CONTINUOUS
  0
LAYER
  2
69
 70
   0
 62
     7
  6
CONTINUOUS
  0
LAYER
  2
6A
 70
   0
 62
     7
  6
CONTINUOUS
  0
LAYER
  2
6B
 70
   0
 62
     7
  6
CONTINUOUS
  0
LAYER
  2
6C
 70
   0
 62
     7
  6
CONTINUOUS
  0
LAYER
  2
6D
 70
   0
 62
     7
  6
CONTINUOUS
  0
LAYER
  2
6E
 70
   0
 62
     7
  6
CONTINUOUS
  0
LAYER
  2
6F
 70
   0
 62
     7
  6
CONTINUOUS
  0
LAYER
  2
70
 70
   0
 62
     7
  6
CONTINUOUS
  0
LAYER
  2
71
 70
   0
 62
     7
  6
CONTINUOUS
  0
LAYER
  2
72
 70
   0
 62
     7
  6
CONTINUOUS
  0
LAYER
  2
73
 70
   0
 62
     7
  6
CONTINUOUS
  0
LAYER
  2
74
 70
   0
 62
     7
  6
CONTINUOUS
  0
LAYER
  2
75
 70
   0
 62
     7
  6
CONTINUOUS
  0
LAYER
  2
76
 70
   0
 62
     7
  6
CONTINUOUS
  0
LAYER
  2
77
 70
   0
 62
     7
  6
CONTINUOUS
  0
LAYER
  2
78
 70
   0
 62
     7
  6
CONTINUOUS
  0
LAYER
  2
79
 70
   0
 62
     7
  6
CONTINUOUS
  0
LAYER
  2
7A
 70
   0
 62
     7
  6
CONTINUOUS
  0
LAYER
  2
7B
 70
   0
 62
     7
  6
CONTINUOUS
  0
LAYER
  2
7C
 70
   0
 62
     7
  6
CONTINUOUS
  0
LAYER
  2
7D
 70
   0
 62
     7
  6
CONTINUOUS
  0
LAYER
  2
7E
 70
   0
 62
     7
  6
CONTINUOUS
  0
LAYER
  2
7F
 70
   0
 62
     7
  6
CONTINUOUS
  0
LAYER
  2
80
 70
   0
 62
     7
  6
CONTINUOUS
  0
LAYER
  2
81
 70
   0
 62
     7
  6
CONTINUOUS
  0
LAYER
  2
82
 70
   0
 62
     7
  6
CONTINUOUS
  0
LAYER
  2
83
 70
   0
 62
     7
  6
CONTINUOUS
  0
LAYER
  2
84
 70
   0
 62
     7
  6
CONTINUOUS
  0
LAYER
  2
85
 70
   0
 62
     7
  6
CONTINUOUS
  0
LAYER
  2
86
 70
   0
 62
     7
  6
CONTINUOUS
  0
LAYER
  2
87
 70
   0
 62
     7
  6
CONTINUOUS
  0
LAYER
  2
88
 70
   0
 62
     7
  6
CONTINUOUS
  0
LAYER
  2
89
 70
   0
 62
     7
  6
CONTINUOUS
  0
LAYER
  2
8A
 70
   0
 62
     7
  6
CONTINUOUS
  0
LAYER
  2
8B
 70
   0
 62
     7
  6
CONTINUOUS
  0
LAYER
  2
8C
 70
   0
 62
     7
  6
CONTINUOUS
  0
LAYER
  2
8D
 70
   0
 62
     7
  6
CONTINUOUS
  0
LAYER
  2
8E
 70
   0
 62
     7
  6
CONTINUOUS
  0
LAYER
  2
8F
 70
   0
 62
     7
  6
CONTINUOUS
  0
LAYER
  2
90
 70
   0
 62
     7
  6
CONTINUOUS
  0
LAYER
  2
91
 70
   0
 62
     7
  6
CONTINUOUS
  0
LAYER
  2
92
 70
   0
 62
     7
  6
CONTINUOUS
  0
LAYER
  2
93
 70
   0
 62
     7
  6
CONTINUOUS
  0
LAYER
  2
94
 70
   0
 62
     7
  6
CONTINUOUS
  0
LAYER
  2
95
 70
   0
 62
     7
  6
CONTINUOUS
  0
LAYER
  2
96
 70
   0
 62
     7
  6
CONTINUOUS
  0
LAYER
  2
97
 70
   0
 62
     7
  6
CONTINUOUS
  0
LAYER
  2
98
 70
   0
 62
     7
  6
CONTINUOUS
  0
LAYER
  2
99
 70
   0
 62
     7
  6
CONTINUOUS
  0
LAYER
  2
9A
 70
   0
 62
     7
  6
CONTINUOUS
  0
LAYER
  2
9B
 70
   0
 62
     7
  6
CONTINUOUS
  0
LAYER
  2
9C
 70
   0
 62
     7
  6
CONTINUOUS
  0
LAYER
  2
9D
 70
   0
 62
     7
  6
CONTINUOUS
  0
LAYER
  2
9E
 70
   0
 62
     7
  6
CONTINUOUS
  0
LAYER
  2
9F
 70
   0
 62
     7
  6
CONTINUOUS
  0
LAYER
  2
A0
 70
   0
 62
     7
  6
CONTINUOUS
  0
LAYER
  2
A1
 70
   0
 62
     7
  6
CONTINUOUS
  0
LAYER
  2
A2
 70
   0
 62
     7
  6
CONTINUOUS
  0
LAYER
  2
A3
 70
   0
 62
     7
  6
CONTINUOUS
  0
LAYER
  2
A4
 70
   0
 62
     7
  6
CONTINUOUS
  0
LAYER
  2
A5
 70
   0
 62
     7
  6
CONTINUOUS
  0
LAYER
  2
A6
 70
   0
 62
     7
  6
CONTINUOUS
  0
LAYER
  2
A7
 70
   0
 62
     7
  6
CONTINUOUS
  0
LAYER
  2
A8
 70
   0
 62
     7
  6
CONTINUOUS
  0
LAYER
  2
A9
 70
   0
 62
     7
  6
CONTINUOUS
  0
LAYER
  2
AA
 70
   0
 62
     7
  6
CONTINUOUS
  0
LAYER
  2
AB
 70
   0
 62
     7
  6
CONTINUOUS
  0
LAYER
  2
AC
 70
   0
 62
     7
  6
CONTINUOUS
  0
LAYER
  2
AD
 70
   0
 62
     7
  6
CONTINUOUS
  0
LAYER
  2
AE
 70
   0
 62
     7
  6
CONTINUOUS
  0
LAYER
  2
AF
 70
   0
 62
     7
  6
CONTINUOUS
  0
LAYER
  2
B0
 70
   0
 62
     7
  6
CONTINUOUS
  0
LAYER
  2
B1
 70
   0
 62
     7
  6
CONTINUOUS
  0
LAYER
  2
B2
 70
   0
 62
     7
  6
CONTINUOUS
  0
LAYER
  2
B3
 70
   0
 62
     7
  6
CONTINUOUS
  0
LAYER
  2
B4
 70
   0
 62
     7
  6
CONTINUOUS
  0
LAYER
  2
B5
 70
   0
 62
     7
  6
CONTINUOUS
  0
LAYER
  2
B6
 70
   0
 62
     7
  6
CONTINUOUS
  0
LAYER
  2
B7
 70
   0
 62
     7
  6
CONTINUOUS
  0
LAYER
  2
B8
 70
   0
 62
     7
  6
CONTINUOUS
  0
LAYER
  2
B9
 70
   0
 62
     7
  6
CONTINUOUS
  0
LAYER
  2
BA
 70
   0
 62
     7
  6
CONTINUOUS
  0
LAYER
  2
BB
 70
   0
 62
     7
  6
CONTINUOUS
  0
LAYER
  2
BC
 70
   0
 62
     7
  6
CONTINUOUS
  0
LAYER
  2
BD
 70
   0
 62
     7
  6
CONTINUOUS
  0
LAYER
  2
BE
 70
   0
 62
     7
  6
CONTINUOUS
  0
LAYER
  2
BF
 70
   0
 62
     7
  6
CONTINUOUS
  0
LAYER
  2
C0
 70
   0
 62
     7
  6
CONTINUOUS
  0
LAYER
  2
C1
 70
   0
 62
     7
  6
CONTINUOUS
  0
LAYER
  2
C2
 70
   0
 62
     7
  6
CONTINUOUS
  0
LAYER
  2
C3
 70
   0
 62
     7
  6
CONTINUOUS
  0
LAYER
  2
C4
 70
   0
 62
     7
  6
CONTINUOUS
  0
LAYER
  2
C5
 70
   0
 62
     7
  6
CONTINUOUS
  0
LAYER
  2
C6
 70
   0
 62
     7
  6
CONTINUOUS
  0
LAYER
  2
C7
 70
   0
 62
     7
  6
CONTINUOUS
  0
LAYER
  2
C8
 70
   0
 62
     7
  6
CONTINUOUS
  0
LAYER
  2
C9
 70
   0
 62
     7
  6
CONTINUOUS
  0
LAYER
  2
CA
 70
   0
 62
     7
  6
CONTINUOUS
  0
LAYER
  2
CB
 70
   0
 62
     7
  6
CONTINUOUS
  0
LAYER
  2
CC
 70
   0
 62
     7
  6
CONTINUOUS
  0
LAYER
  2
CD
 70
   0
 62
     7
  6
CONTINUOUS
  0
LAYER
  2
CE
 70
   0
 62
     7
  6
CONTINUOUS
  0
LAYER
  2
CF
 70
   0
 62
     7
  6
CONTINUOUS
  0
LAYER
  2
D0
 70
   0
 62
     7
  6
CONTINUOUS
  0
LAYER
  2
D1
 70
   0
 62
     7
  6
CONTINUOUS
  0
LAYER
  2
D2
 70
   0
 62
     7
  6
CONTINUOUS
  0
LAYER
  2
D3
 70
   0
 62
     7
  6
CONTINUOUS
  0
LAYER
  2
D4
 70
   0
 62
     7
  6
CONTINUOUS
  0
LAYER
  2
D5
 70
   0
 62
     7
  6
CONTINUOUS
  0
LAYER
  2
D6
 70
   0
 62
     7
  6
CONTINUOUS
  0
LAYER
  2
D7
 70
   0
 62
     7
  6
CONTINUOUS
  0
LAYER
  2
D8
 70
   0
 62
     7
  6
CONTINUOUS
  0
LAYER
  2
D9
 70
   0
 62
     7
  6
CONTINUOUS
  0
LAYER
  2
DA
 70
   0
 62
     7
  6
CONTINUOUS
  0
LAYER
  2
DB
 70
   0
 62
     7
  6
CONTINUOUS
  0
LAYER
  2
DC
 70
   0
 62
     7
  6
CONTINUOUS
  0
LAYER
  2
DD
 70
   0
 62
     7
  6
CONTINUOUS
  0
LAYER
  2
DE
 70
   0
 62
     7
  6
CONTINUOUS
  0
LAYER
  2
DF
 70
   0
 62
     7
  6
CONTINUOUS
  0
LAYER
  2
E0
 70
   0
 62
     7
  6
CONTINUOUS
  0
LAYER
  2
E1
 70
   0
 62
     7
  6
CONTINUOUS
  0
LAYER
  2
E2
 70
   0
 62
     7
  6
CONTINUOUS
  0
LAYER
  2
E3
 70
   0
 62
     7
  6
CONTINUOUS
  0
LAYER
  2
E4
 70
   0
 62
     7
  6
CONTINUOUS
  0
LAYER
  2
E5
 70
   0
 62
     7
  6
CONTINUOUS
  0
LAYER
  2
E6
 70
   0
 62
     7
  6
CONTINUOUS
  0
LAYER
  2
E7
 70
   0
 62
     7
  6
CONTINUOUS
  0
LAYER
  2
E8
 70
   0
 62
     7
  6
CONTINUOUS
  0
LAYER
  2
E9
 70
   0
 62
     7
  6
CONTINUOUS
  0
LAYER
  2
EA
 70
   0
 62
     7
  6
CONTINUOUS
  0
LAYER
  2
EB
 70
   0
 62
     7
  6
CONTINUOUS
  0
LAYER
  2
EC
 70
   0
 62
     7
  6
CONTINUOUS
  0
LAYER
  2
ED
 70
   0
 62
     7
  6
CONTINUOUS
  0
LAYER
  2
EE
 70
   0
 62
     7
  6
CONTINUOUS
  0
LAYER
  2
EF
 70
   0
 62
     7
  6
CONTINUOUS
  0
LAYER
  2
F0
 70
   0
 62
     7
  6
CONTINUOUS
  0
LAYER
  2
F1
 70
   0
 62
     7
  6
CONTINUOUS
  0
LAYER
  2
F2
 70
   0
 62
     7
  6
CONTINUOUS
  0
LAYER
  2
F3
 70
   0
 62
     7
  6
CONTINUOUS
  0
LAYER
  2
F4
 70
   0
 62
     7
  6
CONTINUOUS
  0
LAYER
  2
F5
 70
   0
 62
     7
  6
CONTINUOUS
  0
LAYER
  2
F6
 70
   0
 62
     7
  6
CONTINUOUS
  0
LAYER
  2
F7
 70
   0
 62
     7
  6
CONTINUOUS
  0
LAYER
  2
F8
 70
   0
 62
     7
  6
CONTINUOUS
  0
LAYER
  2
F9
 70
   0
 62
     7
  6
CONTINUOUS
  0
LAYER
  2
FA
 70
   0
 62
     7
  6
CONTINUOUS
  0
LAYER
  2
FB
 70
   0
 62
     7
  6
CONTINUOUS
  0
LAYER
  2
FC
 70
   0
 62
     7
  6
CONTINUOUS
  0
LAYER
  2
FD
 70
   0
 62
     7
  6
CONTINUOUS
  0
LAYER
  2
FE
 70
   0
 62
     7
  6
CONTINUOUS
  0
LAYER
  2
FF
 70
   0
 62
     7
  6
CONTINUOUS
  0
ENDTAB
  0
TABLE
  2
STYLE
 70
   1
  0
STYLE
  2
STANDARD
 70
     0
 40
0.0
 41
1.0
 50
0.0
 71
     0
 42
2.5
  3
txt
  4
bigfont
  0
ENDTAB
  0
ENDSEC
  0
SECTION
  2
BLOCKS
  0
ENDSEC
  0
SECTION
  2
ENTITIES
  0
CIRCLE
  8
2holes
  6
CONTINUOUS
 62
    2
 10
1.937820
 20
11.500000
 40
0.125000
  0
CIRCLE
  8
2holes
  6
CONTINUOUS
 62
    2
 10
1.000000
 20
8.000000
 40
0.125000
  0
CIRCLE
  8
2holes
  6
CONTINUOUS
 62
    2
 10
1.937820
 20
4.500000
 40
0.125000
  0
CIRCLE
  8
2holes
  6
CONTINUOUS
 62
    2
 10
4.500000
 20
1.937820
 40
0.125000
  0
CIRCLE
  8
2holes
  6
CONTINUOUS
 62
    2
 10
8.000000
 20
1.000000
 40
0.125000
  0
CIRCLE
  8
2holes
  6
CONTINUOUS
 62
    2
 10
11.500000
 20
1.937820
 40
0.125000
  0
CIRCLE
  8
2holes
  6
CONTINUOUS
 62
    2
 10
14.062200
 20
4.500000
 40
0.125000
  0
CIRCLE
  8
2holes
  6
CONTINUOUS
 62
    2
 10
15.000000
 20
8.000000
 40
0.125000
  0
CIRCLE
  8
2holes
  6
CONTINUOUS
 62
    2
 10
14.062200
 20
11.500000
 40
0.125000
  0
POLYLINE
  8
2holes
  6
CONTINUOUS
 62
    2
 70
     0
 75
     0
 10
0.0
 20
0.0
 30
0.0
  0
VERTEX
  8
2holes
 10
1.863850
 20
8.000000
 30
0.0
  0
VERTEX
  8
2holes
 10
1.868010
 20
7.961410
 30
0.0
  0
VERTEX
  8
2holes
 10
1.870910
 20
7.923320
 30
0.0
  0
VERTEX
  8
2holes
 10
1.875680
 20
7.885780
 30
0.0
  0
VERTEX
  8
2holes
 10
1.882270
 20
7.848850
 30
0.0
  0
VERTEX
  8
2holes
 10
1.890650
 20
7.812560
 30
0.0
  0
VERTEX
  8
2holes
 10
1.900750
 20
7.776970
 30
0.0
  0
VERTEX
  8
2holes
 10
1.912540
 20
7.742120
 30
0.0
  0
VERTEX
  8
2holes
 10
1.925970
 20
7.708070
 30
0.0
  0
VERTEX
  8
2holes
 10
1.940990
 20
7.674840
 30
0.0
  0
VERTEX
  8
2holes
 10
1.957550
 20
7.642510
 30
0.0
  0
VERTEX
  8
2holes
 10
1.975610
 20
7.611100
 30
0.0
  0
VERTEX
  8
2holes
 10
1.995120
 20
7.580670
 30
0.0
  0
VERTEX
  8
2holes
 10
2.016030
 20
7.551260
 30
0.0
  0
VERTEX
  8
2holes
 10
2.038300
 20
7.522930
 30
0.0
  0
VERTEX
  8
2holes
 10
2.061870
 20
7.495720
 30
0.0
  0
VERTEX
  8
2holes
 10
2.086700
 20
7.469670
 30
0.0
  0
VERTEX
  8
2holes
 10
2.112750
 20
7.444840
 30
0.0
  0
VERTEX
  8
2holes
 10
2.139960
 20
7.421260
 30
0.0
  0
VERTEX
  8
2holes
 10
2.168300
 20
7.399000
 30
0.0
  0
VERTEX
  8
2holes
 10
2.197700
 20
7.378090
 30
0.0
  0
VERTEX
  8
2holes
 10
2.228130
 20
7.358580
 30
0.0
  0
VERTEX
  8
2holes
 10
2.259540
 20
7.340520
 30
0.0
  0
VERTEX
  8
2holes
 10
2.291880
 20
7.323960
 30
0.0
  0
VERTEX
  8
2holes
 10
2.325100
 20
7.308940
 30
0.0
  0
VERTEX
  8
2holes
 10
2.359160
 20
7.295510
 30
0.0
  0
VERTEX
  8
2holes
 10
2.394010
 20
7.283720
 30
0.0
  0
VERTEX
  8
2holes
 10
2.429600
 20
7.273610
 30
0.0
  0
VERTEX
  8
2holes
 10
2.465880
 20
7.265240
 30
0.0
  0
VERTEX
  8
2holes
 10
2.502820
 20
7.258640
 30
0.0
  0
VERTEX
  8
2holes
 10
2.540350
 20
7.253870
 30
0.0
  0
VERTEX
  8
2holes
 10
2.578440
 20
7.250980
 30
0.0
  0
VERTEX
  8
2holes
 10
2.617030
 20
7.250000
 30
0.0
  0
VERTEX
  8
2holes
 10
2.655630
 20
7.250980
 30
0.0
  0
VERTEX
  8
2holes
 10
2.693720
 20
7.253870
 30
0.0
  0
VERTEX
  8
2holes
 10
2.731250
 20
7.258640
 30
0.0
  0
VERTEX
  8
2holes
 10
2.768180
 20
7.265240
 30
0.0
  0
VERTEX
  8
2holes
 10
2.804470
 20
7.273610
 30
0.0
  0
VERTEX
  8
2holes
 10
2.840060
 20
7.283720
 30
0.0
  0
VERTEX
  8
2holes
 10
2.874910
 20
7.295510
 30
0.0
  0
VERTEX
  8
2holes
 10
2.908970
 20
7.308940
 30
0.0
  0
VERTEX
  8
2holes
 10
2.942190
 20
7.323960
 30
0.0
  0
VERTEX
  8
2holes
 10
2.974530
 20
7.340520
 30
0.0
  0
VERTEX
  8
2holes
 10
3.005940
 20
7.358580
 30
0.0
  0
VERTEX
  8
2holes
 10
3.036370
 20
7.378090
 30
0.0
  0
VERTEX
  8
2holes
 10
3.065770
 20
7.399000
 30
0.0
  0
VERTEX
  8
2holes
 10
3.094100
 20
7.421260
 30
0.0
  0
VERTEX
  8
2holes
 10
3.121320
 20
7.444840
 30
0.0
  0
VERTEX
  8
2holes
 10
3.147360
 20
7.469670
 30
0.0
  0
VERTEX
  8
2holes
 10
3.172200
 20
7.495720
 30
0.0
  0
VERTEX
  8
2holes
 10
3.195770
 20
7.522930
 30
0.0
  0
VERTEX
  8
2holes
 10
3.218030
 20
7.551260
 30
0.0
  0
VERTEX
  8
2holes
 10
3.238950
 20
7.580670
 30
0.0
  0
VERTEX
  8
2holes
 10
3.258450
 20
7.611100
 30
0.0
  0
VERTEX
  8
2holes
 10
3.276510
 20
7.642510
 30
0.0
  0
VERTEX
  8
2holes
 10
3.293080
 20
7.674840
 30
0.0
  0
VERTEX
  8
2holes
 10
3.308090
 20
7.708070
 30
0.0
  0
VERTEX
  8
2holes
 10
3.321520
 20
7.742120
 30
0.0
  0
VERTEX
  8
2holes
 10
3.333310
 20
7.776970
 30
0.0
  0
VERTEX
  8
2holes
 10
3.343420
 20
7.812560
 30
0.0
  0
VERTEX
  8
2holes
 10
3.351800
 20
7.848850
 30
0.0
  0
VERTEX
  8
2holes
 10
3.358390
 20
7.885780
 30
0.0
  0
VERTEX
  8
2holes
 10
3.363160
 20
7.923320
 30
0.0
  0
VERTEX
  8
2holes
 10
3.366060
 20
7.961410
 30
0.0
  0
VERTEX
  8
2holes
 10
3.367030
 20
8.000000
 30
0.0
  0
VERTEX
  8
2holes
 10
3.730010
 20
10.736900
 30
0.0
  0
VERTEX
  8
2holes
 10
3.731670
 20
10.761400
 30
0.0
  0
VERTEX
  8
2holes
 10
3.732260
 20
10.785700
 30
0.0
  0
VERTEX
  8
2holes
 10
3.731800
 20
10.809800
 30
0.0
  0
VERTEX
  8
2holes
 10
3.730320
 20
10.833800
 30
0.0
  0
VERTEX
  8
2holes
 10
3.727820
 20
10.857500
 30
0.0
  0
VERTEX
  8
2holes
 10
3.724320
 20
10.881000
 30
0.0
  0
VERTEX
  8
2holes
 10
3.719850
 20
10.904300
 30
0.0
  0
VERTEX
  8
2holes
 10
3.714410
 20
10.927200
 30
0.0
  0
VERTEX
  8
2holes
 10
3.708040
 20
10.949800
 30
0.0
  0
VERTEX
  8
2holes
 10
3.700740
 20
10.972100
 30
0.0
  0
VERTEX
  8
2holes
 10
3.692530
 20
10.993900
 30
0.0
  0
VERTEX
  8
2holes
 10
3.683430
 20
11.015400
 30
0.0
  0
VERTEX
  8
2holes
 10
3.673460
 20
11.036500
 30
0.0
  0
VERTEX
  8
2holes
 10
3.662630
 20
11.057100
 30
0.0
  0
VERTEX
  8
2holes
 10
3.650970
 20
11.077200
 30
0.0
  0
VERTEX
  8
2holes
 10
3.638490
 20
11.096800
 30
0.0
  0
VERTEX
  8
2holes
 10
3.625210
 20
11.115900
 30
0.0
  0
VERTEX
  8
2holes
 10
3.611140
 20
11.134400
 30
0.0
  0
VERTEX
  8
2holes
 10
3.596310
 20
11.152300
 30
0.0
  0
VERTEX
  8
2holes
 10
3.580720
 20
11.169700
 30
0.0
  0
VERTEX
  8
2holes
 10
3.564410
 20
11.186300
 30
0.0
  0
VERTEX
  8
2holes
 10
3.547380
 20
11.202400
 30
0.0
  0
VERTEX
  8
2holes
 10
3.529660
 20
11.217700
 30
0.0
  0
VERTEX
  8
2holes
 10
3.511260
 20
11.232300
 30
0.0
  0
VERTEX
  8
2holes
 10
3.492200
 20
11.246100
 30
0.0
  0
VERTEX
  8
2holes
 10
3.472490
 20
11.259200
 30
0.0
  0
VERTEX
  8
2holes
 10
3.452160
 20
11.271500
 30
0.0
  0
VERTEX
  8
2holes
 10
3.431220
 20
11.283000
 30
0.0
  0
VERTEX
  8
2holes
 10
3.409690
 20
11.293600
 30
0.0
  0
VERTEX
  8
2holes
 10
3.387590
 20
11.303300
 30
0.0
  0
VERTEX
  8
2holes
 10
3.364930
 20
11.312100
 30
0.0
  0
VERTEX
  8
2holes
 10
3.341740
 20
11.320000
 30
0.0
  0
VERTEX
  8
2holes
 10
3.318220
 20
11.326900
 30
0.0
  0
VERTEX
  8
2holes
 10
3.294610
 20
11.332700
 30
0.0
  0
VERTEX
  8
2holes
 10
3.270940
 20
11.337500
 30
0.0
  0
VERTEX
  8
2holes
 10
3.247220
 20
11.341200
 30
0.0
  0
VERTEX
  8
2holes
 10
3.223500
 20
11.343900
 30
0.0
  0
VERTEX
  8
2holes
 10
3.199800
 20
11.345500
 30
0.0
  0
VERTEX
  8
2holes
 10
3.176160
 20
11.346200
 30
0.0
  0
VERTEX
  8
2holes
 10
3.152590
 20
11.345800
 30
0.0
  0
VERTEX
  8
2holes
 10
3.129140
 20
11.344400
 30
0.0
  0
VERTEX
  8
2holes
 10
3.105830
 20
11.342100
 30
0.0
  0
VERTEX
  8
2holes
 10
3.082690
 20
11.338800
 30
0.0
  0
VERTEX
  8
2holes
 10
3.059750
 20
11.334500
 30
0.0
  0
VERTEX
  8
2holes
 10
3.037040
 20
11.329300
 30
0.0
  0
VERTEX
  8
2holes
 10
3.014590
 20
11.323200
 30
0.0
  0
VERTEX
  8
2holes
 10
2.992430
 20
11.316200
 30
0.0
  0
VERTEX
  8
2holes
 10
2.970590
 20
11.308200
 30
0.0
  0
VERTEX
  8
2holes
 10
2.949100
 20
11.299300
 30
0.0
  0
VERTEX
  8
2holes
 10
2.927990
 20
11.289600
 30
0.0
  0
VERTEX
  8
2holes
 10
2.907280
 20
11.279000
 30
0.0
  0
VERTEX
  8
2holes
 10
2.887010
 20
11.267500
 30
0.0
  0
VERTEX
  8
2holes
 10
2.867210
 20
11.255100
 30
0.0
  0
VERTEX
  8
2holes
 10
2.847900
 20
11.242000
 30
0.0
  0
VERTEX
  8
2holes
 10
2.829130
 20
11.227900
 30
0.0
  0
VERTEX
  8
2holes
 10
2.810900
 20
11.213100
 30
0.0
  0
VERTEX
  8
2holes
 10
2.793270
 20
11.197500
 30
0.0
  0
VERTEX
  8
2holes
 10
2.776240
 20
11.181100
 30
0.0
  0
VERTEX
  8
2holes
 10
2.759870
 20
11.163900
 30
0.0
  0
VERTEX
  8
2holes
 10
2.744160
 20
11.145900
 30
0.0
  0
VERTEX
  8
2holes
 10
2.729170
 20
11.127100
 30
0.0
  0
VERTEX
  8
2holes
 10
2.714900
 20
11.107700
 30
0.0
  0
VERTEX
  8
2holes
 10
2.701400
 20
11.087400
 30
0.0
  0
VERTEX
  8
2holes
 10
2.685940
 20
11.068100
 30
0.0
  0
VERTEX
  8
2holes
 10
2.636200
 20
10.980300
 30
0.0
  0
VERTEX
  8
2holes
 10
2.587960
 20
10.891700
 30
0.0
  0
VERTEX
  8
2holes
 10
2.541220
 20
10.802500
 30
0.0
  0
VERTEX
  8
2holes
 10
2.495990
 20
10.712600
 30
0.0
  0
VERTEX
  8
2holes
 10
2.452280
 20
10.622000
 30
0.0
  0
VERTEX
  8
2holes
 10
2.410090
 20
10.530800
 30
0.0
  0
VERTEX
  8
2holes
 10
2.369420
 20
10.439000
 30
0.0
  0
VERTEX
  8
2holes
 10
2.330290
 20
10.346600
 30
0.0
  0
VERTEX
  8
2holes
 10
2.292690
 20
10.253600
 30
0.0
  0
VERTEX
  8
2holes
 10
2.256630
 20
10.160100
 30
0.0
  0
VERTEX
  8
2holes
 10
2.222120
 20
10.066000
 30
0.0
  0
VERTEX
  8
2holes
 10
2.189160
 20
9.971390
 30
0.0
  0
VERTEX
  8
2holes
 10
2.157750
 20
9.876280
 30
0.0
  0
VERTEX
  8
2holes
 10
2.127910
 20
9.780700
 30
0.0
  0
VERTEX
  8
2holes
 10
2.099640
 20
9.684640
 30
0.0
  0
VERTEX
  8
2holes
 10
2.072940
 20
9.588150
 30
0.0
  0
VERTEX
  8
2holes
 10
2.047810
 20
9.491230
 30
0.0
  0
VERTEX
  8
2holes
 10
2.024270
 20
9.393910
 30
0.0
  0
VERTEX
  8
2holes
 10
2.002320
 20
9.296210
 30
0.0
  0
VERTEX
  8
2holes
 10
1.981960
 20
9.198140
 30
0.0
  0
VERTEX
  8
2holes
 10
1.963210
 20
9.099730
 30
0.0
  0
VERTEX
  8
2holes
 10
1.946050
 20
9.000990
 30
0.0
  0
VERTEX
  8
2holes
 10
1.930500
 20
8.901950
 30
0.0
  0
VERTEX
  8
2holes
 10
1.916570
 20
8.802620
 30
0.0
  0
VERTEX
  8
2holes
 10
1.904260
 20
8.703020
 30
0.0
  0
VERTEX
  8
2holes
 10
1.893570
 20
8.603180
 30
0.0
  0
VERTEX
  8
2holes
 10
1.884510
 20
8.503100
 30
0.0
  0
VERTEX
  8
2holes
 10
1.877090
 20
8.402820
 30
0.0
  0
VERTEX
  8
2holes
 10
1.871310
 20
8.302350
 30
0.0
  0
VERTEX
  8
2holes
 10
1.867170
 20
8.201710
 30
0.0
  0
VERTEX
  8
2holes
 10
1.864680
 20
8.100920
 30
0.0
  0
VERTEX
  8
2holes
 10
1.863850
 20
8.000000
 30
0.0
  0
SEQEND
  0
POLYLINE
  8
2holes
  6
CONTINUOUS
 62
    2
 70
     0
 75
     0
 10
0.0
 20
0.0
 30
0.0
  0
VERTEX
  8
2holes
 10
13.314100
 20
11.068100
 30
0.0
  0
VERTEX
  8
2holes
 10
13.298600
 20
11.087400
 30
0.0
  0
VERTEX
  8
2holes
 10
13.285100
 20
11.107700
 30
0.0
  0
VERTEX
  8
2holes
 10
13.270800
 20
11.127100
 30
0.0
  0
VERTEX
  8
2holes
 10
13.255800
 20
11.145900
 30
0.0
  0
VERTEX
  8
2holes
 10
13.240100
 20
11.163900
 30
0.0
  0
VERTEX
  8
2holes
 10
13.223800
 20
11.181100
 30
0.0
  0
VERTEX
  8
2holes
 10
13.206700
 20
11.197500
 30
0.0
  0
VERTEX
  8
2holes
 10
13.189100
 20
11.213100
 30
0.0
  0
VERTEX
  8
2holes
 10
13.170900
 20
11.227900
 30
0.0
  0
VERTEX
  8
2holes
 10
13.152100
 20
11.242000
 30
0.0
  0
VERTEX
  8
2holes
 10
13.132800
 20
11.255100
 30
0.0
  0
VERTEX
  8
2holes
 10
13.113000
 20
11.267500
 30
0.0
  0
VERTEX
  8
2holes
 10
13.092700
 20
11.279000
 30
0.0
  0
VERTEX
  8
2holes
 10
13.072000
 20
11.289600
 30
0.0
  0
VERTEX
  8
2holes
 10
13.050900
 20
11.299300
 30
0.0
  0
VERTEX
  8
2holes
 10
13.029400
 20
11.308200
 30
0.0
  0
VERTEX
  8
2holes
 10
13.007600
 20
11.316200
 30
0.0
  0
VERTEX
  8
2holes
 10
12.985400
 20
11.323200
 30
0.0
  0
VERTEX
  8
2holes
 10
12.963000
 20
11.329300
 30
0.0
  0
VERTEX
  8
2holes
 10
12.940200
 20
11.334500
 30
0.0
  0
VERTEX
  8
2holes
 10
12.917300
 20
11.338800
 30
0.0
  0
VERTEX
  8
2holes
 10
12.894200
 20
11.342100
 30
0.0
  0
VERTEX
  8
2holes
 10
12.870900
 20
11.344400
 30
0.0
  0
VERTEX
  8
2holes
 10
12.847400
 20
11.345800
 30
0.0
  0
VERTEX
  8
2holes
 10
12.823800
 20
11.346200
 30
0.0
  0
VERTEX
  8
2holes
 10
12.800200
 20
11.345500
 30
0.0
  0
VERTEX
  8
2holes
 10
12.776500
 20
11.343900
 30
0.0
  0
VERTEX
  8
2holes
 10
12.752800
 20
11.341200
 30
0.0
  0
VERTEX
  8
2holes
 10
12.729100
 20
11.337500
 30
0.0
  0
VERTEX
  8
2holes
 10
12.705400
 20
11.332700
 30
0.0
  0
VERTEX
  8
2holes
 10
12.681800
 20
11.326900
 30
0.0
  0
VERTEX
  8
2holes
 10
12.658300
 20
11.320000
 30
0.0
  0
VERTEX
  8
2holes
 10
12.635100
 20
11.312100
 30
0.0
  0
VERTEX
  8
2holes
 10
12.612400
 20
11.303300
 30
0.0
  0
VERTEX
  8
2holes
 10
12.590300
 20
11.293600
 30
0.0
  0
VERTEX
  8
2holes
 10
12.568800
 20
11.283000
 30
0.0
  0
VERTEX
  8
2holes
 10
12.547800
 20
11.271500
 30
0.0
  0
VERTEX
  8
2holes
 10
12.527500
 20
11.259200
 30
0.0
  0
VERTEX
  8
2holes
 10
12.507800
 20
11.246100
 30
0.0
  0
VERTEX
  8
2holes
 10
12.488700
 20
11.232300
 30
0.0
  0
VERTEX
  8
2holes
 10
12.470300
 20
11.217700
 30
0.0
  0
VERTEX
  8
2holes
 10
12.452600
 20
11.202400
 30
0.0
  0
VERTEX
  8
2holes
 10
12.435600
 20
11.186300
 30
0.0
  0
VERTEX
  8
2holes
 10
12.419300
 20
11.169700
 30
0.0
  0
VERTEX
  8
2holes
 10
12.403700
 20
11.152300
 30
0.0
  0
VERTEX
  8
2holes
 10
12.388900
 20
11.134400
 30
0.0
  0
VERTEX
  8
2holes
 10
12.374800
 20
11.115900
 30
0.0
  0
VERTEX
  8
2holes
 10
12.361500
 20
11.096800
 30
0.0
  0
VERTEX
  8
2holes
 10
12.349000
 20
11.077200
 30
0.0
  0
VERTEX
  8
2holes
 10
12.337400
 20
11.057100
 30
0.0
  0
VERTEX
  8
2holes
 10
12.326500
 20
11.036500
 30
0.0
  0
VERTEX
  8
2holes
 10
12.316600
 20
11.015400
 30
0.0
  0
VERTEX
  8
2holes
 10
12.307500
 20
10.993900
 30
0.0
  0
VERTEX
  8
2holes
 10
12.299300
 20
10.972100
 30
0.0
  0
VERTEX
  8
2holes
 10
12.292000
 20
10.949800
 30
0.0
  0
VERTEX
  8
2holes
 10
12.285600
 20
10.927200
 30
0.0
  0
VERTEX
  8
2holes
 10
12.280200
 20
10.904300
 30
0.0
  0
VERTEX
  8
2holes
 10
12.275700
 20
10.881000
 30
0.0
  0
VERTEX
  8
2holes
 10
12.272200
 20
10.857500
 30
0.0
  0
VERTEX
  8
2holes
 10
12.269700
 20
10.833800
 30
0.0
  0
VERTEX
  8
2holes
 10
12.268200
 20
10.809800
 30
0.0
  0
VERTEX
  8
2holes
 10
12.267700
 20
10.785700
 30
0.0
  0
VERTEX
  8
2holes
 10
12.268300
 20
10.761400
 30
0.0
  0
VERTEX
  8
2holes
 10
12.270000
 20
10.736900
 30
0.0
  0
VERTEX
  8
2holes
 10
12.633000
 20
8.000000
 30
0.0
  0
VERTEX
  8
2holes
 10
12.633900
 20
7.961410
 30
0.0
  0
VERTEX
  8
2holes
 10
12.636800
 20
7.923320
 30
0.0
  0
VERTEX
  8
2holes
 10
12.641600
 20
7.885780
 30
0.0
  0
VERTEX
  8
2holes
 10
12.648200
 20
7.848850
 30
0.0
  0
VERTEX
  8
2holes
 10
12.656600
 20
7.812560
 30
0.0
  0
VERTEX
  8
2holes
 10
12.666700
 20
7.776970
 30
0.0
  0
VERTEX
  8
2holes
 10
12.678500
 20
7.742120
 30
0.0
  0
VERTEX
  8
2holes
 10
12.691900
 20
7.708070
 30
0.0
  0
VERTEX
  8
2holes
 10
12.706900
 20
7.674840
 30
0.0
  0
VERTEX
  8
2holes
 10
12.723500
 20
7.642510
 30
0.0
  0
VERTEX
  8
2holes
 10
12.741500
 20
7.611100
 30
0.0
  0
VERTEX
  8
2holes
 10
12.761100
 20
7.580670
 30
0.0
  0
VERTEX
  8
2holes
 10
12.782000
 20
7.551260
 30
0.0
  0
VERTEX
  8
2holes
 10
12.804200
 20
7.522930
 30
0.0
  0
VERTEX
  8
2holes
 10
12.827800
 20
7.495720
 30
0.0
  0
VERTEX
  8
2holes
 10
12.852600
 20
7.469670
 30
0.0
  0
VERTEX
  8
2holes
 10
12.878700
 20
7.444840
 30
0.0
  0
VERTEX
  8
2holes
 10
12.905900
 20
7.421260
 30
0.0
  0
VERTEX
  8
2holes
 10
12.934200
 20
7.399000
 30
0.0
  0
VERTEX
  8
2holes
 10
12.963600
 20
7.378090
 30
0.0
  0
VERTEX
  8
2holes
 10
12.994100
 20
7.358580
 30
0.0
  0
VERTEX
  8
2holes
 10
13.025500
 20
7.340520
 30
0.0
  0
VERTEX
  8
2holes
 10
13.057800
 20
7.323960
 30
0.0
  0
VERTEX
  8
2holes
 10
13.091000
 20
7.308940
 30
0.0
  0
VERTEX
  8
2holes
 10
13.125100
 20
7.295510
 30
0.0
  0
VERTEX
  8
2holes
 10
13.159900
 20
7.283720
 30
0.0
  0
VERTEX
  8
2holes
 10
13.195500
 20
7.273610
 30
0.0
  0
VERTEX
  8
2holes
 10
13.231800
 20
7.265240
 30
0.0
  0
VERTEX
  8
2holes
 10
13.268700
 20
7.258640
 30
0.0
  0
VERTEX
  8
2holes
 10
13.306300
 20
7.253870
 30
0.0
  0
VERTEX
  8
2holes
 10
13.344400
 20
7.250980
 30
0.0
  0
VERTEX
  8
2holes
 10
13.383000
 20
7.250000
 30
0.0
  0
VERTEX
  8
2holes
 10
13.421600
 20
7.250980
 30
0.0
  0
VERTEX
  8
2holes
 10
13.459600
 20
7.253870
 30
0.0
  0
VERTEX
  8
2holes
 10
13.497200
 20
7.258640
 30
0.0
  0
VERTEX
  8
2holes
 10
13.534100
 20
7.265240
 30
0.0
  0
VERTEX
  8
2holes
 10
13.570400
 20
7.273610
 30
0.0
  0
VERTEX
  8
2holes
 10
13.606000
 20
7.283720
 30
0.0
  0
VERTEX
  8
2holes
 10
13.640800
 20
7.295510
 30
0.0
  0
VERTEX
  8
2holes
 10
13.674900
 20
7.308940
 30
0.0
  0
VERTEX
  8
2holes
 10
13.708100
 20
7.323960
 30
0.0
  0
VERTEX
  8
2holes
 10
13.740500
 20
7.340520
 30
0.0
  0
VERTEX
  8
2holes
 10
13.771900
 20
7.358580
 30
0.0
  0
VERTEX
  8
2holes
 10
13.802300
 20
7.378090
 30
0.0
  0
VERTEX
  8
2holes
 10
13.831700
 20
7.399000
 30
0.0
  0
VERTEX
  8
2holes
 10
13.860000
 20
7.421260
 30
0.0
  0
VERTEX
  8
2holes
 10
13.887200
 20
7.444840
 30
0.0
  0
VERTEX
  8
2holes
 10
13.913300
 20
7.469670
 30
0.0
  0
VERTEX
  8
2holes
 10
13.938100
 20
7.495720
 30
0.0
  0
VERTEX
  8
2holes
 10
13.961700
 20
7.522930
 30
0.0
  0
VERTEX
  8
2holes
 10
13.984000
 20
7.551260
 30
0.0
  0
VERTEX
  8
2holes
 10
14.004900
 20
7.580670
 30
0.0
  0
VERTEX
  8
2holes
 10
14.024400
 20
7.611100
 30
0.0
  0
VERTEX
  8
2holes
 10
14.042400
 20
7.642510
 30
0.0
  0
VERTEX
  8
2holes
 10
14.059000
 20
7.674840
 30
0.0
  0
VERTEX
  8
2holes
 10
14.074000
 20
7.708070
 30
0.0
  0
VERTEX
  8
2holes
 10
14.087500
 20
7.742120
 30
0.0
  0
VERTEX
  8
2holes
 10
14.099200
 20
7.776970
 30
0.0
  0
VERTEX
  8
2holes
 10
14.109400
 20
7.812560
 30
0.0
  0
VERTEX
  8
2holes
 10
14.117700
 20
7.848850
 30
0.0
  0
VERTEX
  8
2holes
 10
14.124300
 20
7.885780
 30
0.0
  0
VERTEX
  8
2holes
 10
14.129100
 20
7.923320
 30
0.0
  0
VERTEX
  8
2holes
 10
14.132000
 20
7.961410
 30
0.0
  0
VERTEX
  8
2holes
 10
14.136100
 20
8.000000
 30
0.0
  0
VERTEX
  8
2holes
 10
14.135300
 20
8.100920
 30
0.0
  0
VERTEX
  8
2holes
 10
14.132800
 20
8.201710
 30
0.0
  0
VERTEX
  8
2holes
 10
14.128700
 20
8.302350
 30
0.0
  0
VERTEX
  8
2holes
 10
14.122900
 20
8.402820
 30
0.0
  0
VERTEX
  8
2holes
 10
14.115500
 20
8.503100
 30
0.0
  0
VERTEX
  8
2holes
 10
14.106400
 20
8.603180
 30
0.0
  0
VERTEX
  8
2holes
 10
14.095700
 20
8.703020
 30
0.0
  0
VERTEX
  8
2holes
 10
14.083400
 20
8.802620
 30
0.0
  0
VERTEX
  8
2holes
 10
14.069500
 20
8.901950
 30
0.0
  0
VERTEX
  8
2holes
 10
14.054000
 20
9.000990
 30
0.0
  0
VERTEX
  8
2holes
 10
14.036800
 20
9.099730
 30
0.0
  0
VERTEX
  8
2holes
 10
14.018000
 20
9.198140
 30
0.0
  0
VERTEX
  8
2holes
 10
13.997700
 20
9.296210
 30
0.0
  0
VERTEX
  8
2holes
 10
13.975700
 20
9.393910
 30
0.0
  0
VERTEX
  8
2holes
 10
13.952200
 20
9.491230
 30
0.0
  0
VERTEX
  8
2holes
 10
13.927100
 20
9.588150
 30
0.0
  0
VERTEX
  8
2holes
 10
13.900400
 20
9.684640
 30
0.0
  0
VERTEX
  8
2holes
 10
13.872100
 20
9.780700
 30
0.0
  0
VERTEX
  8
2holes
 10
13.842200
 20
9.876280
 30
0.0
  0
VERTEX
  8
2holes
 10
13.810800
 20
9.971390
 30
0.0
  0
VERTEX
  8
2holes
 10
13.777900
 20
10.066000
 30
0.0
  0
VERTEX
  8
2holes
 10
13.743400
 20
10.160100
 30
0.0
  0
VERTEX
  8
2holes
 10
13.707300
 20
10.253600
 30
0.0
  0
VERTEX
  8
2holes
 10
13.669700
 20
10.346600
 30
0.0
  0
VERTEX
  8
2holes
 10
13.630600
 20
10.439000
 30
0.0
  0
VERTEX
  8
2holes
 10
13.589900
 20
10.530800
 30
0.0
  0
VERTEX
  8
2holes
 10
13.547700
 20
10.622000
 30
0.0
  0
VERTEX
  8
2holes
 10
13.504000
 20
10.712600
 30
0.0
  0
VERTEX
  8
2holes
 10
13.458800
 20
10.802500
 30
0.0
  0
VERTEX
  8
2holes
 10
13.412000
 20
10.891700
 30
0.0
  0
VERTEX
  8
2holes
 10
13.363800
 20
10.980300
 30
0.0
  0
VERTEX
  8
2holes
 10
13.314100
 20
11.068100
 30
0.0
  0
SEQEND
  0
POLYLINE
  8
1outline
  6
CONTINUOUS
 62
    1
 70
     0
 75
     0
 10
0.0
 20
0.0
 30
0.0
  0
VERTEX
  8
1outline
 10
11.660300
 20
11.252500
 30
0.0
  0
VERTEX
  8
1outline
 10
12.110100
 20
11.668100
 30
0.0
  0
VERTEX
  8
1outline
 10
11.668100
 20
12.110100
 30
0.0
  0
VERTEX
  8
1outline
 10
11.668100
 20
12.993900
 30
0.0
  0
VERTEX
  8
1outline
 10
12.552000
 20
12.110100
 30
0.0
  0
VERTEX
  8
1outline
 10
12.993900
 20
12.552000
 30
0.0
  0
VERTEX
  8
1outline
 10
11.668100
 20
13.877800
 30
0.0
  0
VERTEX
  8
1outline
 10
12.552000
 20
13.877800
 30
0.0
  0
VERTEX
  8
1outline
 10
13.435900
 20
12.993900
 30
0.0
  0
VERTEX
  8
1outline
 10
13.873400
 20
13.431800
 30
0.0
  0
VERTEX
  8
1outline
 10
14.130900
 20
13.139500
 30
0.0
  0
VERTEX
  8
1outline
 10
14.371800
 20
12.838200
 30
0.0
  0
VERTEX
  8
1outline
 10
14.596100
 20
12.528300
 30
0.0
  0
VERTEX
  8
1outline
 10
14.803800
 20
12.210400
 30
0.0
  0
VERTEX
  8
1outline
 10
14.994900
 20
11.885300
 30
0.0
  0
VERTEX
  8
1outline
 10
15.169300
 20
11.553400
 30
0.0
  0
VERTEX
  8
1outline
 10
15.327200
 20
11.215500
 30
0.0
  0
VERTEX
  8
1outline
 10
15.468400
 20
10.872000
 30
0.0
  0
VERTEX
  8
1outline
 10
15.593000
 20
10.523700
 30
0.0
  0
VERTEX
  8
1outline
 10
15.701000
 20
10.171100
 30
0.0
  0
VERTEX
  8
1outline
 10
15.792400
 20
9.814820
 30
0.0
  0
VERTEX
  8
1outline
 10
15.867100
 20
9.455520
 30
0.0
  0
VERTEX
  8
1outline
 10
15.925300
 20
9.093770
 30
0.0
  0
VERTEX
  8
1outline
 10
15.966800
 20
8.730200
 30
0.0
  0
VERTEX
  8
1outline
 10
15.991700
 20
8.365400
 30
0.0
  0
VERTEX
  8
1outline
 10
16.000000
 20
8.000000
 30
0.0
  0
VERTEX
  8
1outline
 10
15.991700
 20
7.634600
 30
0.0
  0
VERTEX
  8
1outline
 10
15.966800
 20
7.269800
 30
0.0
  0
VERTEX
  8
1outline
 10
15.925300
 20
6.906230
 30
0.0
  0
VERTEX
  8
1outline
 10
15.867100
 20
6.544480
 30
0.0
  0
VERTEX
  8
1outline
 10
15.792400
 20
6.185180
 30
0.0
  0
VERTEX
  8
1outline
 10
15.701000
 20
5.828920
 30
0.0
  0
VERTEX
  8
1outline
 10
15.593000
 20
5.476320
 30
0.0
  0
VERTEX
  8
1outline
 10
15.468400
 20
5.127990
 30
0.0
  0
VERTEX
  8
1outline
 10
15.327200
 20
4.784550
 30
0.0
  0
VERTEX
  8
1outline
 10
15.169300
 20
4.446580
 30
0.0
  0
VERTEX
  8
1outline
 10
14.994900
 20
4.114720
 30
0.0
  0
VERTEX
  8
1outline
 10
14.803800
 20
3.789570
 30
0.0
  0
VERTEX
  8
1outline
 10
14.596100
 20
3.471730
 30
0.0
  0
VERTEX
  8
1outline
 10
14.371800
 20
3.161820
 30
0.0
  0
VERTEX
  8
1outline
 10
14.130900
 20
2.860450
 30
0.0
  0
VERTEX
  8
1outline
 10
13.873400
 20
2.568230
 30
0.0
  0
VERTEX
  8
1outline
 10
12.817600
 20
3.624380
 30
0.0
  0
VERTEX
  8
1outline
 10
12.375600
 20
3.182440
 30
0.0
  0
VERTEX
  8
1outline
 10
13.431700
 20
2.126650
 30
0.0
  0
VERTEX
  8
1outline
 10
13.122400
 20
1.854780
 30
0.0
  0
VERTEX
  8
1outline
 10
12.803200
 20
1.601610
 30
0.0
  0
VERTEX
  8
1outline
 10
12.474700
 20
1.367130
 30
0.0
  0
VERTEX
  8
1outline
 10
12.137700
 20
1.151290
 30
0.0
  0
VERTEX
  8
1outline
 10
11.792900
 20
0.954086
 30
0.0
  0
VERTEX
  8
1outline
 10
11.441000
 20
0.775475
 30
0.0
  0
VERTEX
  8
1outline
 10
11.082700
 20
0.615433
 30
0.0
  0
VERTEX
  8
1outline
 10
10.718700
 20
0.473932
 30
0.0
  0
VERTEX
  8
1outline
 10
10.349800
 20
0.350946
 30
0.0
  0
VERTEX
  8
1outline
 10
9.976570
 20
0.246445
 30
0.0
  0
VERTEX
  8
1outline
 10
9.599830
 20
0.160403
 30
0.0
  0
VERTEX
  8
1outline
 10
9.220240
 20
0.092792
 30
0.0
  0
VERTEX
  8
1outline
 10
8.838530
 20
0.043583
 30
0.0
  0
VERTEX
  8
1outline
 10
8.455400
 20
0.012749
 30
0.0
  0
VERTEX
  8
1outline
 10
8.071570
 20
0.000263
 30
0.0
  0
VERTEX
  8
1outline
 10
7.687740
 20
0.006097
 30
0.0
  0
VERTEX
  8
1outline
 10
7.304620
 20
0.030222
 30
0.0
  0
VERTEX
  8
1outline
 10
6.922930
 20
0.072611
 30
0.0
  0
VERTEX
  8
1outline
 10
6.543380
 20
0.133237
 30
0.0
  0
VERTEX
  8
1outline
 10
6.166670
 20
0.212072
 30
0.0
  0
VERTEX
  8
1outline
 10
5.793510
 20
0.309087
 30
0.0
  0
VERTEX
  8
1outline
 10
5.424630
 20
0.424255
 30
0.0
  0
VERTEX
  8
1outline
 10
5.060710
 20
0.557549
 30
0.0
  0
VERTEX
  8
1outline
 10
4.702490
 20
0.708941
 30
0.0
  0
VERTEX
  8
1outline
 10
4.350660
 20
0.878402
 30
0.0
  0
VERTEX
  8
1outline
 10
4.005940
 20
1.065910
 30
0.0
  0
VERTEX
  8
1outline
 10
3.669040
 20
1.271420
 30
0.0
  0
VERTEX
  8
1outline
 10
3.340670
 20
1.494930
 30
0.0
  0
VERTEX
  8
1outline
 10
3.021530
 20
1.736390
 30
0.0
  0
VERTEX
  8
1outline
 10
2.712340
 20
1.995790
 30
0.0
  0
VERTEX
  8
1outline
 10
2.413810
 20
2.273080
 30
0.0
  0
VERTEX
  8
1outline
 10
2.126650
 20
2.568260
 30
0.0
  0
VERTEX
  8
1outline
 10
1.854780
 20
2.877570
 30
0.0
  0
VERTEX
  8
1outline
 10
1.601610
 20
3.196820
 30
0.0
  0
VERTEX
  8
1outline
 10
1.367130
 20
3.525300
 30
0.0
  0
VERTEX
  8
1outline
 10
1.151290
 20
3.862300
 30
0.0
  0
VERTEX
  8
1outline
 10
0.954086
 20
4.207100
 30
0.0
  0
VERTEX
  8
1outline
 10
0.775475
 20
4.559010
 30
0.0
  0
VERTEX
  8
1outline
 10
0.615433
 20
4.917310
 30
0.0
  0
VERTEX
  8
1outline
 10
0.473932
 20
5.281280
 30
0.0
  0
VERTEX
  8
1outline
 10
0.350946
 20
5.650230
 30
0.0
  0
VERTEX
  8
1outline
 10
0.246445
 20
6.023430
 30
0.0
  0
VERTEX
  8
1outline
 10
0.160403
 20
6.400170
 30
0.0
  0
VERTEX
  8
1outline
 10
0.092792
 20
6.779760
 30
0.0
  0
VERTEX
  8
1outline
 10
0.043583
 20
7.161470
 30
0.0
  0
VERTEX
  8
1outline
 10
0.012749
 20
7.544600
 30
0.0
  0
VERTEX
  8
1outline
 10
0.000263
 20
7.928430
 30
0.0
  0
VERTEX
  8
1outline
 10
0.006097
 20
8.312260
 30
0.0
  0
VERTEX
  8
1outline
 10
0.030222
 20
8.695380
 30
0.0
  0
VERTEX
  8
1outline
 10
0.072611
 20
9.077070
 30
0.0
  0
VERTEX
  8
1outline
 10
0.133237
 20
9.456620
 30
0.0
  0
VERTEX
  8
1outline
 10
0.212071
 20
9.833330
 30
0.0
  0
VERTEX
  8
1outline
 10
0.309087
 20
10.206500
 30
0.0
  0
VERTEX
  8
1outline
 10
0.424255
 20
10.575400
 30
0.0
  0
VERTEX
  8
1outline
 10
0.557549
 20
10.939300
 30
0.0
  0
VERTEX
  8
1outline
 10
0.708941
 20
11.297500
 30
0.0
  0
VERTEX
  8
1outline
 10
0.878402
 20
11.649300
 30
0.0
  0
VERTEX
  8
1outline
 10
1.065910
 20
11.994100
 30
0.0
  0
VERTEX
  8
1outline
 10
1.271420
 20
12.331000
 30
0.0
  0
VERTEX
  8
1outline
 10
1.494930
 20
12.659300
 30
0.0
  0
VERTEX
  8
1outline
 10
1.736390
 20
12.978500
 30
0.0
  0
VERTEX
  8
1outline
 10
1.995790
 20
13.287700
 30
0.0
  0
VERTEX
  8
1outline
 10
2.273080
 20
13.586200
 30
0.0
  0
VERTEX
  8
1outline
 10
2.568260
 20
13.873300
 30
0.0
  0
VERTEX
  8
1outline
 10
3.448000
 20
13.877800
 30
0.0
  0
VERTEX
  8
1outline
 10
2.564120
 20
12.993900
 30
0.0
  0
VERTEX
  8
1outline
 10
3.006060
 20
12.552000
 30
0.0
  0
VERTEX
  8
1outline
 10
4.331880
 20
13.877800
 30
0.0
  0
VERTEX
  8
1outline
 10
4.331880
 20
12.993900
 30
0.0
  0
VERTEX
  8
1outline
 10
3.448000
 20
12.110100
 30
0.0
  0
VERTEX
  8
1outline
 10
3.889940
 20
11.668100
 30
0.0
  0
VERTEX
  8
1outline
 10
4.331880
 20
12.110100
 30
0.0
  0
VERTEX
  8
1outline
 10
4.331880
 20
11.226200
 30
0.0
  0
VERTEX
  8
1outline
 10
4.275420
 20
11.028600
 30
0.0
  0
VERTEX
  8
1outline
 10
4.222600
 20
10.830200
 30
0.0
  0
VERTEX
  8
1outline
 10
4.173420
 20
10.631200
 30
0.0
  0
VERTEX
  8
1outline
 10
4.127880
 20
10.431500
 30
0.0
  0
VERTEX
  8
1outline
 10
4.085970
 20
10.231200
 30
0.0
  0
VERTEX
  8
1outline
 10
4.047710
 20
10.030400
 30
0.0
  0
VERTEX
  8
1outline
 10
4.013080
 20
9.829030
 30
0.0
  0
VERTEX
  8
1outline
 10
3.982100
 20
9.627270
 30
0.0
  0
VERTEX
  8
1outline
 10
3.954750
 20
9.425110
 30
0.0
  0
VERTEX
  8
1outline
 10
3.931040
 20
9.222600
 30
0.0
  0
VERTEX
  8
1outline
 10
3.910970
 20
9.019800
 30
0.0
  0
VERTEX
  8
1outline
 10
3.894540
 20
8.816750
 30
0.0
  0
VERTEX
  8
1outline
 10
3.881750
 20
8.613500
 30
0.0
  0
VERTEX
  8
1outline
 10
3.872600
 20
8.410100
 30
0.0
  0
VERTEX
  8
1outline
 10
3.867080
 20
8.206600
 30
0.0
  0
VERTEX
  8
1outline
 10
3.865210
 20
8.003060
 30
0.0
  0
VERTEX
  8
1outline
 10
3.866970
 20
7.799510
 30
0.0
  0
VERTEX
  8
1outline
 10
3.872380
 20
7.596010
 30
0.0
  0
VERTEX
  8
1outline
 10
3.881420
 20
7.392600
 30
0.0
  0
VERTEX
  8
1outline
 10
3.894100
 20
7.189350
 30
0.0
  0
VERTEX
  8
1outline
 10
3.910430
 20
6.986290
 30
0.0
  0
VERTEX
  8
1outline
 10
3.930390
 20
6.783480
 30
0.0
  0
VERTEX
  8
1outline
 10
3.953990
 20
6.580960
 30
0.0
  0
VERTEX
  8
1outline
 10
3.981230
 20
6.378780
 30
0.0
  0
VERTEX
  8
1outline
 10
4.012100
 20
6.177000
 30
0.0
  0
VERTEX
  8
1outline
 10
4.046620
 20
5.975660
 30
0.0
  0
VERTEX
  8
1outline
 10
4.084780
 20
5.774810
 30
0.0
  0
VERTEX
  8
1outline
 10
4.126570
 20
5.574510
 30
0.0
  0
VERTEX
  8
1outline
 10
4.172010
 20
5.374790
 30
0.0
  0
VERTEX
  8
1outline
 10
4.221090
 20
5.175720
 30
0.0
  0
VERTEX
  8
1outline
 10
4.273800
 20
4.977330
 30
0.0
  0
VERTEX
  8
1outline
 10
4.330150
 20
4.779690
 30
0.0
  0
VERTEX
  8
1outline
 10
3.182620
 20
3.624560
 30
0.0
  0
VERTEX
  8
1outline
 10
3.624560
 20
3.182620
 30
0.0
  0
VERTEX
  8
1outline
 10
4.775410
 20
4.333980
 30
0.0
  0
VERTEX
  8
1outline
 10
4.806900
 20
4.259910
 30
0.0
  0
VERTEX
  8
1outline
 10
4.839020
 20
4.186130
 30
0.0
  0
VERTEX
  8
1outline
 10
4.871750
 20
4.112650
 30
0.0
  0
VERTEX
  8
1outline
 10
4.905100
 20
4.039460
 30
0.0
  0
VERTEX
  8
1outline
 10
4.939060
 20
3.966580
 30
0.0
  0
VERTEX
  8
1outline
 10
4.973630
 20
3.894000
 30
0.0
  0
VERTEX
  8
1outline
 10
5.008810
 20
3.821730
 30
0.0
  0
VERTEX
  8
1outline
 10
5.044600
 20
3.749780
 30
0.0
  0
VERTEX
  8
1outline
 10
5.080990
 20
3.678140
 30
0.0
  0
VERTEX
  8
1outline
 10
5.117990
 20
3.606820
 30
0.0
  0
VERTEX
  8
1outline
 10
5.155580
 20
3.535820
 30
0.0
  0
VERTEX
  8
1outline
 10
5.193770
 20
3.465160
 30
0.0
  0
VERTEX
  8
1outline
 10
5.232560
 20
3.394820
 30
0.0
  0
VERTEX
  8
1outline
 10
5.271940
 20
3.324820
 30
0.0
  0
VERTEX
  8
1outline
 10
5.311920
 20
3.255160
 30
0.0
  0
VERTEX
  8
1outline
 10
5.352480
 20
3.185840
 30
0.0
  0
VERTEX
  8
1outline
 10
5.393630
 20
3.116870
 30
0.0
  0
VERTEX
  8
1outline
 10
5.435360
 20
3.048250
 30
0.0
  0
VERTEX
  8
1outline
 10
5.477680
 20
2.979990
 30
0.0
  0
VERTEX
  8
1outline
 10
5.520570
 20
2.912080
 30
0.0
  0
VERTEX
  8
1outline
 10
5.564050
 20
2.844530
 30
0.0
  0
VERTEX
  8
1outline
 10
5.608100
 20
2.777350
 30
0.0
  0
VERTEX
  8
1outline
 10
5.652720
 20
2.710540
 30
0.0
  0
VERTEX
  8
1outline
 10
5.697910
 20
2.644100
 30
0.0
  0
VERTEX
  8
1outline
 10
5.743680
 20
2.578040
 30
0.0
  0
VERTEX
  8
1outline
 10
5.790010
 20
2.512360
 30
0.0
  0
VERTEX
  8
1outline
 10
5.836900
 20
2.447060
 30
0.0
  0
VERTEX
  8
1outline
 10
5.884360
 20
2.382150
 30
0.0
  0
VERTEX
  8
1outline
 10
5.932380
 20
2.317640
 30
0.0
  0
VERTEX
  8
1outline
 10
5.980950
 20
2.253510
 30
0.0
  0
VERTEX
  8
1outline
 10
6.030080
 20
2.189790
 30
0.0
  0
VERTEX
  8
1outline
 10
6.079770
 20
2.126470
 30
0.0
  0
VERTEX
  8
1outline
 10
9.920230
 20
2.126470
 30
0.0
  0
VERTEX
  8
1outline
 10
9.969920
 20
2.189790
 30
0.0
  0
VERTEX
  8
1outline
 10
10.019000
 20
2.253510
 30
0.0
  0
VERTEX
  8
1outline
 10
10.067600
 20
2.317640
 30
0.0
  0
VERTEX
  8
1outline
 10
10.115600
 20
2.382150
 30
0.0
  0
VERTEX
  8
1outline
 10
10.163100
 20
2.447060
 30
0.0
  0
VERTEX
  8
1outline
 10
10.210000
 20
2.512360
 30
0.0
  0
VERTEX
  8
1outline
 10
10.256300
 20
2.578040
 30
0.0
  0
VERTEX
  8
1outline
 10
10.302100
 20
2.644100
 30
0.0
  0
VERTEX
  8
1outline
 10
10.347300
 20
2.710540
 30
0.0
  0
VERTEX
  8
1outline
 10
10.391900
 20
2.777350
 30
0.0
  0
VERTEX
  8
1outline
 10
10.436000
 20
2.844530
 30
0.0
  0
VERTEX
  8
1outline
 10
10.479400
 20
2.912080
 30
0.0
  0
VERTEX
  8
1outline
 10
10.522300
 20
2.979990
 30
0.0
  0
VERTEX
  8
1outline
 10
10.564600
 20
3.048250
 30
0.0
  0
VERTEX
  8
1outline
 10
10.606400
 20
3.116870
 30
0.0
  0
VERTEX
  8
1outline
 10
10.647500
 20
3.185840
 30
0.0
  0
VERTEX
  8
1outline
 10
10.688100
 20
3.255160
 30
0.0
  0
VERTEX
  8
1outline
 10
10.728100
 20
3.324820
 30
0.0
  0
VERTEX
  8
1outline
 10
10.767400
 20
3.394820
 30
0.0
  0
VERTEX
  8
1outline
 10
10.806200
 20
3.465160
 30
0.0
  0
VERTEX
  8
1outline
 10
10.844400
 20
3.535820
 30
0.0
  0
VERTEX
  8
1outline
 10
10.882000
 20
3.606820
 30
0.0
  0
VERTEX
  8
1outline
 10
10.919000
 20
3.678140
 30
0.0
  0
VERTEX
  8
1outline
 10
10.955400
 20
3.749780
 30
0.0
  0
VERTEX
  8
1outline
 10
10.991200
 20
3.821730
 30
0.0
  0
VERTEX
  8
1outline
 10
11.026400
 20
3.894000
 30
0.0
  0
VERTEX
  8
1outline
 10
11.060900
 20
3.966580
 30
0.0
  0
VERTEX
  8
1outline
 10
11.094900
 20
4.039460
 30
0.0
  0
VERTEX
  8
1outline
 10
11.128200
 20
4.112650
 30
0.0
  0
VERTEX
  8
1outline
 10
11.161000
 20
4.186130
 30
0.0
  0
VERTEX
  8
1outline
 10
11.193100
 20
4.259910
 30
0.0
  0
VERTEX
  8
1outline
 10
11.224600
 20
4.333980
 30
0.0
  0
VERTEX
  8
1outline
 10
11.669800
 20
4.779680
 30
0.0
  0
VERTEX
  8
1outline
 10
11.726400
 20
4.978130
 30
0.0
  0
VERTEX
  8
1outline
 10
11.779300
 20
5.177320
 30
0.0
  0
VERTEX
  8
1outline
 10
11.828600
 20
5.377200
 30
0.0
  0
VERTEX
  8
1outline
 10
11.874100
 20
5.577730
 30
0.0
  0
VERTEX
  8
1outline
 10
11.916000
 20
5.778850
 30
0.0
  0
VERTEX
  8
1outline
 10
11.954300
 20
5.980520
 30
0.0
  0
VERTEX
  8
1outline
 10
11.988800
 20
6.182670
 30
0.0
  0
VERTEX
  8
1outline
 10
12.019700
 20
6.385280
 30
0.0
  0
VERTEX
  8
1outline
 10
12.046900
 20
6.588270
 30
0.0
  0
VERTEX
  8
1outline
 10
12.070500
 20
6.791610
 30
0.0
  0
VERTEX
  8
1outline
 10
12.090400
 20
6.995250
 30
0.0
  0
VERTEX
  8
1outline
 10
12.106600
 20
7.199130
 30
0.0
  0
VERTEX
  8
1outline
 10
12.119100
 20
7.403200
 30
0.0
  0
VERTEX
  8
1outline
 10
12.128000
 20
7.607420
 30
0.0
  0
VERTEX
  8
1outline
 10
12.133200
 20
7.811730
 30
0.0
  0
VERTEX
  8
1outline
 10
12.134800
 20
8.016090
 30
0.0
  0
VERTEX
  8
1outline
 10
12.132700
 20
8.220440
 30
0.0
  0
VERTEX
  8
1outline
 10
12.126900
 20
8.424740
 30
0.0
  0
VERTEX
  8
1outline
 10
12.117400
 20
8.628930
 30
0.0
  0
VERTEX
  8
1outline
 10
12.104300
 20
8.832960
 30
0.0
  0
VERTEX
  8
1outline
 10
12.087500
 20
9.036800
 30
0.0
  0
VERTEX
  8
1outline
 10
12.067000
 20
9.240370
 30
0.0
  0
VERTEX
  8
1outline
 10
12.042900
 20
9.443650
 30
0.0
  0
VERTEX
  8
1outline
 10
12.015100
 20
9.646560
 30
0.0
  0
VERTEX
  8
1outline
 10
11.983600
 20
9.849080
 30
0.0
  0
VERTEX
  8
1outline
 10
11.948500
 20
10.051100
 30
0.0
  0
VERTEX
  8
1outline
 10
11.909700
 20
10.252700
 30
0.0
  0
VERTEX
  8
1outline
 10
11.867200
 20
10.453700
 30
0.0
  0
VERTEX
  8
1outline
 10
11.821100
 20
10.654100
 30
0.0
  0
VERTEX
  8
1outline
 10
11.771300
 20
10.853800
 30
0.0
  0
VERTEX
  8
1outline
 10
11.717800
 20
11.052900
 30
0.0
  0
VERTEX
  8
1outline
 10
11.660700
 20
11.251200
 30
0.0
  0
SEQEND
  0
ENDSEC
  0
SECTION
  2
OBJECTS
  0
ENDSEC
  0
EOF
