  0
SECTION
2
HEADER
  9
$ACADVER
  1
AC1009
  9
$EXTMIN
 10
0.000 
20
0.000 
  9
$EXTMAX
 10
16.000
 20
13.878
  9
$LIMMIN
 10
0.000 
20
0.000 
  9
$LIMMAX
 10
16.000
 20
13.878
  9
$CLAYER
  8
0
  0
ENDSEC
  0
SECTION
  2
TABLES
  0
TABLE
  2
LAYER
 70
1
  0
LAYER
  2
0
 70
64
 62
1
  6
CONTINUOUS
  0
ENDTAB
  0
ENDSEC
  0
SECTION
  2
ENTITIES
  0
POLYLINE
  8
0
 66
1
  0
VERTEX
  8
0
 10
11.6603
 20
11.2525
  0
VERTEX
  8
0
 10
11.6603
 20
11.2525
  0
SEQEND
  0
POLYLINE
  8
0
 66
1
  0
VERTEX
  8
0
 10
11.6603
 20
11.2525
  0
VERTEX
  8
0
 10
12.1101
 20
11.6681
  0
VERTEX
  8
0
 10
12.1101
 20
11.6681
  0
VERTEX
  8
0
 10
11.6681
 20
12.1101
  0
VERTEX
  8
0
 10
11.6681
 20
12.1101
  0
VERTEX
  8
0
 10
11.6681
 20
12.9939
  0
VERTEX
  8
0
 10
11.6681
 20
12.9939
  0
VERTEX
  8
0
 10
12.552
 20
12.1101
  0
VERTEX
  8
0
 10
12.552
 20
12.1101
  0
VERTEX
  8
0
 10
12.9939
 20
12.552
  0
VERTEX
  8
0
 10
12.9939
 20
12.552
  0
VERTEX
  8
0
 10
11.6681
 20
13.8778
  0
VERTEX
  8
0
 10
11.6681
 20
13.8778
  0
VERTEX
  8
0
 10
12.552
 20
13.8778
  0
VERTEX
  8
0
 10
12.552
 20
13.8778
  0
VERTEX
  8
0
 10
13.4359
 20
12.9939
  0
VERTEX
  8
0
 10
13.4359
 20
12.9939
  0
VERTEX
  8
0
 10
13.8734
 20
13.4318
  0
VERTEX
  8
0
 10
13.8734
 20
13.4318
  0
VERTEX
  8
0
 10
14.1309
 20
13.1395
  0
VERTEX
  8
0
 10
14.1309
 20
13.1395
  0
VERTEX
  8
0
 10
14.3718
 20
12.8382
  0
VERTEX
  8
0
 10
14.3718
 20
12.8382
  0
VERTEX
  8
0
 10
14.5961
 20
12.5283
  0
VERTEX
  8
0
 10
14.5961
 20
12.5283
  0
VERTEX
  8
0
 10
14.8038
 20
12.2104
  0
VERTEX
  8
0
 10
14.8038
 20
12.2104
  0
VERTEX
  8
0
 10
14.9949
 20
11.8853
  0
VERTEX
  8
0
 10
14.9949
 20
11.8853
  0
VERTEX
  8
0
 10
15.1693
 20
11.5534
  0
VERTEX
  8
0
 10
15.1693
 20
11.5534
  0
VERTEX
  8
0
 10
15.3272
 20
11.2155
  0
VERTEX
  8
0
 10
15.3272
 20
11.2155
  0
VERTEX
  8
0
 10
15.4684
 20
10.872
  0
VERTEX
  8
0
 10
15.4684
 20
10.872
  0
VERTEX
  8
0
 10
15.593
 20
10.5237
  0
VERTEX
  8
0
 10
15.593
 20
10.5237
  0
VERTEX
  8
0
 10
15.701
 20
10.1711
  0
VERTEX
  8
0
 10
15.701
 20
10.1711
  0
VERTEX
  8
0
 10
15.7924
 20
9.81482
  0
VERTEX
  8
0
 10
15.7924
 20
9.81482
  0
VERTEX
  8
0
 10
15.8671
 20
9.45552
  0
VERTEX
  8
0
 10
15.8671
 20
9.45552
  0
VERTEX
  8
0
 10
15.9253
 20
9.09377
  0
VERTEX
  8
0
 10
15.9253
 20
9.09377
  0
VERTEX
  8
0
 10
15.9668
 20
8.7302
  0
VERTEX
  8
0
 10
15.9668
 20
8.7302
  0
VERTEX
  8
0
 10
15.9917
 20
8.3654
  0
VERTEX
  8
0
 10
15.9917
 20
8.3654
  0
VERTEX
  8
0
 10
16
 20
8
  0
VERTEX
  8
0
 10
16
 20
8
  0
VERTEX
  8
0
 10
15.9917
 20
7.6346
  0
VERTEX
  8
0
 10
15.9917
 20
7.6346
  0
VERTEX
  8
0
 10
15.9668
 20
7.2698
  0
VERTEX
  8
0
 10
15.9668
 20
7.2698
  0
VERTEX
  8
0
 10
15.9253
 20
6.90623
  0
VERTEX
  8
0
 10
15.9253
 20
6.90623
  0
VERTEX
  8
0
 10
15.8671
 20
6.54448
  0
VERTEX
  8
0
 10
15.8671
 20
6.54448
  0
VERTEX
  8
0
 10
15.7924
 20
6.18518
  0
VERTEX
  8
0
 10
15.7924
 20
6.18518
  0
VERTEX
  8
0
 10
15.701
 20
5.82892
  0
VERTEX
  8
0
 10
15.701
 20
5.82892
  0
VERTEX
  8
0
 10
15.593
 20
5.47632
  0
VERTEX
  8
0
 10
15.593
 20
5.47632
  0
VERTEX
  8
0
 10
15.4684
 20
5.12799
  0
VERTEX
  8
0
 10
15.4684
 20
5.12799
  0
VERTEX
  8
0
 10
15.3272
 20
4.78455
  0
VERTEX
  8
0
 10
15.3272
 20
4.78455
  0
VERTEX
  8
0
 10
15.1693
 20
4.44658
  0
VERTEX
  8
0
 10
15.1693
 20
4.44658
  0
VERTEX
  8
0
 10
14.9949
 20
4.11472
  0
VERTEX
  8
0
 10
14.9949
 20
4.11472
  0
VERTEX
  8
0
 10
14.8038
 20
3.78957
  0
VERTEX
  8
0
 10
14.8038
 20
3.78957
  0
VERTEX
  8
0
 10
14.5961
 20
3.47173
  0
VERTEX
  8
0
 10
14.5961
 20
3.47173
  0
VERTEX
  8
0
 10
14.3718
 20
3.16182
  0
VERTEX
  8
0
 10
14.3718
 20
3.16182
  0
VERTEX
  8
0
 10
14.1309
 20
2.86045
  0
VERTEX
  8
0
 10
14.1309
 20
2.86045
  0
VERTEX
  8
0
 10
13.8734
 20
2.56823
  0
VERTEX
  8
0
 10
13.8734
 20
2.56823
  0
VERTEX
  8
0
 10
12.8176
 20
3.62438
  0
VERTEX
  8
0
 10
12.8176
 20
3.62438
  0
VERTEX
  8
0
 10
12.3756
 20
3.18244
  0
VERTEX
  8
0
 10
12.3756
 20
3.18244
  0
VERTEX
  8
0
 10
13.4317
 20
2.12665
  0
VERTEX
  8
0
 10
13.4317
 20
2.12665
  0
VERTEX
  8
0
 10
13.1224
 20
1.85478
  0
VERTEX
  8
0
 10
13.1224
 20
1.85478
  0
VERTEX
  8
0
 10
12.8032
 20
1.60161
  0
VERTEX
  8
0
 10
12.8032
 20
1.60161
  0
VERTEX
  8
0
 10
12.4747
 20
1.36713
  0
VERTEX
  8
0
 10
12.4747
 20
1.36713
  0
VERTEX
  8
0
 10
12.1377
 20
1.15129
  0
VERTEX
  8
0
 10
12.1377
 20
1.15129
  0
VERTEX
  8
0
 10
11.7929
 20
0.954086
  0
VERTEX
  8
0
 10
11.7929
 20
0.954086
  0
VERTEX
  8
0
 10
11.441
 20
0.775475
  0
VERTEX
  8
0
 10
11.441
 20
0.775475
  0
VERTEX
  8
0
 10
11.0827
 20
0.615433
  0
VERTEX
  8
0
 10
11.0827
 20
0.615433
  0
VERTEX
  8
0
 10
10.7187
 20
0.473932
  0
VERTEX
  8
0
 10
10.7187
 20
0.473932
  0
VERTEX
  8
0
 10
10.3498
 20
0.350946
  0
VERTEX
  8
0
 10
10.3498
 20
0.350946
  0
VERTEX
  8
0
 10
9.97657
 20
0.246445
  0
VERTEX
  8
0
 10
9.97657
 20
0.246445
  0
VERTEX
  8
0
 10
9.59983
 20
0.160403
  0
VERTEX
  8
0
 10
9.59983
 20
0.160403
  0
VERTEX
  8
0
 10
9.22024
 20
0.0927915
  0
VERTEX
  8
0
 10
9.22024
 20
0.0927915
  0
VERTEX
  8
0
 10
8.83853
 20
0.0435829
  0
VERTEX
  8
0
 10
8.83853
 20
0.0435829
  0
VERTEX
  8
0
 10
8.4554
 20
0.0127493
  0
VERTEX
  8
0
 10
8.4554
 20
0.0127493
  0
VERTEX
  8
0
 10
8.07157
 20
0.000263143
  0
VERTEX
  8
0
 10
8.07157
 20
0.000263143
  0
VERTEX
  8
0
 10
7.68774
 20
0.00609658
  0
VERTEX
  8
0
 10
7.68774
 20
0.00609658
  0
VERTEX
  8
0
 10
7.30462
 20
0.0302219
  0
VERTEX
  8
0
 10
7.30462
 20
0.0302219
  0
VERTEX
  8
0
 10
6.92293
 20
0.0726113
  0
VERTEX
  8
0
 10
6.92293
 20
0.0726113
  0
VERTEX
  8
0
 10
6.54338
 20
0.133237
  0
VERTEX
  8
0
 10
6.54338
 20
0.133237
  0
VERTEX
  8
0
 10
6.16667
 20
0.212072
  0
VERTEX
  8
0
 10
6.16667
 20
0.212072
  0
VERTEX
  8
0
 10
5.79351
 20
0.309087
  0
VERTEX
  8
0
 10
5.79351
 20
0.309087
  0
VERTEX
  8
0
 10
5.42463
 20
0.424255
  0
VERTEX
  8
0
 10
5.42463
 20
0.424255
  0
VERTEX
  8
0
 10
5.06071
 20
0.557549
  0
VERTEX
  8
0
 10
5.06071
 20
0.557549
  0
VERTEX
  8
0
 10
4.70249
 20
0.708941
  0
VERTEX
  8
0
 10
4.70249
 20
0.708941
  0
VERTEX
  8
0
 10
4.35066
 20
0.878402
  0
VERTEX
  8
0
 10
4.35066
 20
0.878402
  0
VERTEX
  8
0
 10
4.00594
 20
1.06591
  0
VERTEX
  8
0
 10
4.00594
 20
1.06591
  0
VERTEX
  8
0
 10
3.66904
 20
1.27142
  0
VERTEX
  8
0
 10
3.66904
 20
1.27142
  0
VERTEX
  8
0
 10
3.34067
 20
1.49493
  0
VERTEX
  8
0
 10
3.34067
 20
1.49493
  0
VERTEX
  8
0
 10
3.02153
 20
1.73639
  0
VERTEX
  8
0
 10
3.02153
 20
1.73639
  0
VERTEX
  8
0
 10
2.71234
 20
1.99579
  0
VERTEX
  8
0
 10
2.71234
 20
1.99579
  0
VERTEX
  8
0
 10
2.41381
 20
2.27308
  0
VERTEX
  8
0
 10
2.41381
 20
2.27308
  0
VERTEX
  8
0
 10
2.12665
 20
2.56826
  0
VERTEX
  8
0
 10
2.12665
 20
2.56826
  0
VERTEX
  8
0
 10
1.85478
 20
2.87757
  0
VERTEX
  8
0
 10
1.85478
 20
2.87757
  0
VERTEX
  8
0
 10
1.60161
 20
3.19682
  0
VERTEX
  8
0
 10
1.60161
 20
3.19682
  0
VERTEX
  8
0
 10
1.36713
 20
3.5253
  0
VERTEX
  8
0
 10
1.36713
 20
3.5253
  0
VERTEX
  8
0
 10
1.15129
 20
3.8623
  0
VERTEX
  8
0
 10
1.15129
 20
3.8623
  0
VERTEX
  8
0
 10
0.954086
 20
4.2071
  0
VERTEX
  8
0
 10
0.954086
 20
4.2071
  0
VERTEX
  8
0
 10
0.775475
 20
4.55901
  0
VERTEX
  8
0
 10
0.775475
 20
4.55901
  0
VERTEX
  8
0
 10
0.615433
 20
4.91731
  0
VERTEX
  8
0
 10
0.615433
 20
4.91731
  0
VERTEX
  8
0
 10
0.473932
 20
5.28128
  0
VERTEX
  8
0
 10
0.473932
 20
5.28128
  0
VERTEX
  8
0
 10
0.350946
 20
5.65023
  0
VERTEX
  8
0
 10
0.350946
 20
5.65023
  0
VERTEX
  8
0
 10
0.246445
 20
6.02343
  0
VERTEX
  8
0
 10
0.246445
 20
6.02343
  0
VERTEX
  8
0
 10
0.160403
 20
6.40017
  0
VERTEX
  8
0
 10
0.160403
 20
6.40017
  0
VERTEX
  8
0
 10
0.0927916
 20
6.77976
  0
VERTEX
  8
0
 10
0.0927916
 20
6.77976
  0
VERTEX
  8
0
 10
0.0435829
 20
7.16147
  0
VERTEX
  8
0
 10
0.0435829
 20
7.16147
  0
VERTEX
  8
0
 10
0.0127494
 20
7.5446
  0
VERTEX
  8
0
 10
0.0127494
 20
7.5446
  0
VERTEX
  8
0
 10
0.000263148
 20
7.92843
  0
VERTEX
  8
0
 10
0.000263148
 20
7.92843
  0
VERTEX
  8
0
 10
0.00609656
 20
8.31226
  0
VERTEX
  8
0
 10
0.00609656
 20
8.31226
  0
VERTEX
  8
0
 10
0.0302218
 20
8.69538
  0
VERTEX
  8
0
 10
0.0302218
 20
8.69538
  0
VERTEX
  8
0
 10
0.0726113
 20
9.07707
  0
VERTEX
  8
0
 10
0.0726113
 20
9.07707
  0
VERTEX
  8
0
 10
0.133237
 20
9.45662
  0
VERTEX
  8
0
 10
0.133237
 20
9.45662
  0
VERTEX
  8
0
 10
0.212071
 20
9.83333
  0
VERTEX
  8
0
 10
0.212071
 20
9.83333
  0
VERTEX
  8
0
 10
0.309087
 20
10.2065
  0
VERTEX
  8
0
 10
0.309087
 20
10.2065
  0
VERTEX
  8
0
 10
0.424255
 20
10.5754
  0
VERTEX
  8
0
 10
0.424255
 20
10.5754
  0
VERTEX
  8
0
 10
0.557549
 20
10.9393
  0
VERTEX
  8
0
 10
0.557549
 20
10.9393
  0
VERTEX
  8
0
 10
0.708941
 20
11.2975
  0
VERTEX
  8
0
 10
0.708941
 20
11.2975
  0
VERTEX
  8
0
 10
0.878402
 20
11.6493
  0
VERTEX
  8
0
 10
0.878402
 20
11.6493
  0
VERTEX
  8
0
 10
1.06591
 20
11.9941
  0
VERTEX
  8
0
 10
1.06591
 20
11.9941
  0
VERTEX
  8
0
 10
1.27142
 20
12.331
  0
VERTEX
  8
0
 10
1.27142
 20
12.331
  0
VERTEX
  8
0
 10
1.49493
 20
12.6593
  0
VERTEX
  8
0
 10
1.49493
 20
12.6593
  0
VERTEX
  8
0
 10
1.73639
 20
12.9785
  0
VERTEX
  8
0
 10
1.73639
 20
12.9785
  0
VERTEX
  8
0
 10
1.99579
 20
13.2877
  0
VERTEX
  8
0
 10
1.99579
 20
13.2877
  0
VERTEX
  8
0
 10
2.27308
 20
13.5862
  0
VERTEX
  8
0
 10
2.27308
 20
13.5862
  0
VERTEX
  8
0
 10
2.56826
 20
13.8733
  0
VERTEX
  8
0
 10
2.56826
 20
13.8733
  0
VERTEX
  8
0
 10
3.448
 20
13.8778
  0
VERTEX
  8
0
 10
3.448
 20
13.8778
  0
VERTEX
  8
0
 10
2.56412
 20
12.9939
  0
VERTEX
  8
0
 10
2.56412
 20
12.9939
  0
VERTEX
  8
0
 10
3.00606
 20
12.552
  0
VERTEX
  8
0
 10
3.00606
 20
12.552
  0
VERTEX
  8
0
 10
4.33188
 20
13.8778
  0
VERTEX
  8
0
 10
4.33188
 20
13.8778
  0
VERTEX
  8
0
 10
4.33188
 20
12.9939
  0
VERTEX
  8
0
 10
4.33188
 20
12.9939
  0
VERTEX
  8
0
 10
3.448
 20
12.1101
  0
VERTEX
  8
0
 10
3.448
 20
12.1101
  0
VERTEX
  8
0
 10
3.88994
 20
11.6681
  0
VERTEX
  8
0
 10
3.88994
 20
11.6681
  0
VERTEX
  8
0
 10
4.33188
 20
12.1101
  0
VERTEX
  8
0
 10
4.33188
 20
12.1101
  0
VERTEX
  8
0
 10
4.33188
 20
11.2262
  0
VERTEX
  8
0
 10
4.33188
 20
11.2262
  0
VERTEX
  8
0
 10
4.27542
 20
11.0286
  0
VERTEX
  8
0
 10
4.27542
 20
11.0286
  0
VERTEX
  8
0
 10
4.2226
 20
10.8302
  0
VERTEX
  8
0
 10
4.2226
 20
10.8302
  0
VERTEX
  8
0
 10
4.17342
 20
10.6312
  0
VERTEX
  8
0
 10
4.17342
 20
10.6312
  0
VERTEX
  8
0
 10
4.12788
 20
10.4315
  0
VERTEX
  8
0
 10
4.12788
 20
10.4315
  0
VERTEX
  8
0
 10
4.08597
 20
10.2312
  0
VERTEX
  8
0
 10
4.08597
 20
10.2312
  0
VERTEX
  8
0
 10
4.04771
 20
10.0304
  0
VERTEX
  8
0
 10
4.04771
 20
10.0304
  0
VERTEX
  8
0
 10
4.01308
 20
9.82903
  0
VERTEX
  8
0
 10
4.01308
 20
9.82903
  0
VERTEX
  8
0
 10
3.9821
 20
9.62727
  0
VERTEX
  8
0
 10
3.9821
 20
9.62727
  0
VERTEX
  8
0
 10
3.95475
 20
9.42511
  0
VERTEX
  8
0
 10
3.95475
 20
9.42511
  0
VERTEX
  8
0
 10
3.93104
 20
9.2226
  0
VERTEX
  8
0
 10
3.93104
 20
9.2226
  0
VERTEX
  8
0
 10
3.91097
 20
9.0198
  0
VERTEX
  8
0
 10
3.91097
 20
9.0198
  0
VERTEX
  8
0
 10
3.89454
 20
8.81675
  0
VERTEX
  8
0
 10
3.89454
 20
8.81675
  0
VERTEX
  8
0
 10
3.88175
 20
8.6135
  0
VERTEX
  8
0
 10
3.88175
 20
8.6135
  0
VERTEX
  8
0
 10
3.8726
 20
8.4101
  0
VERTEX
  8
0
 10
3.8726
 20
8.4101
  0
VERTEX
  8
0
 10
3.86708
 20
8.2066
  0
VERTEX
  8
0
 10
3.86708
 20
8.2066
  0
VERTEX
  8
0
 10
3.86521
 20
8.00306
  0
VERTEX
  8
0
 10
3.86521
 20
8.00306
  0
VERTEX
  8
0
 10
3.86697
 20
7.79951
  0
VERTEX
  8
0
 10
3.86697
 20
7.79951
  0
VERTEX
  8
0
 10
3.87238
 20
7.59601
  0
VERTEX
  8
0
 10
3.87238
 20
7.59601
  0
VERTEX
  8
0
 10
3.88142
 20
7.3926
  0
VERTEX
  8
0
 10
3.88142
 20
7.3926
  0
VERTEX
  8
0
 10
3.8941
 20
7.18935
  0
VERTEX
  8
0
 10
3.8941
 20
7.18935
  0
VERTEX
  8
0
 10
3.91043
 20
6.98629
  0
VERTEX
  8
0
 10
3.91043
 20
6.98629
  0
VERTEX
  8
0
 10
3.93039
 20
6.78348
  0
VERTEX
  8
0
 10
3.93039
 20
6.78348
  0
VERTEX
  8
0
 10
3.95399
 20
6.58096
  0
VERTEX
  8
0
 10
3.95399
 20
6.58096
  0
VERTEX
  8
0
 10
3.98123
 20
6.37878
  0
VERTEX
  8
0
 10
3.98123
 20
6.37878
  0
VERTEX
  8
0
 10
4.0121
 20
6.177
  0
VERTEX
  8
0
 10
4.0121
 20
6.177
  0
VERTEX
  8
0
 10
4.04662
 20
5.97566
  0
VERTEX
  8
0
 10
4.04662
 20
5.97566
  0
VERTEX
  8
0
 10
4.08478
 20
5.77481
  0
VERTEX
  8
0
 10
4.08478
 20
5.77481
  0
VERTEX
  8
0
 10
4.12657
 20
5.57451
  0
VERTEX
  8
0
 10
4.12657
 20
5.57451
  0
VERTEX
  8
0
 10
4.17201
 20
5.37479
  0
VERTEX
  8
0
 10
4.17201
 20
5.37479
  0
VERTEX
  8
0
 10
4.22109
 20
5.17572
  0
VERTEX
  8
0
 10
4.22109
 20
5.17572
  0
VERTEX
  8
0
 10
4.2738
 20
4.97733
  0
VERTEX
  8
0
 10
4.2738
 20
4.97733
  0
VERTEX
  8
0
 10
4.33015
 20
4.77969
  0
VERTEX
  8
0
 10
4.33015
 20
4.77969
  0
VERTEX
  8
0
 10
3.18262
 20
3.62456
  0
VERTEX
  8
0
 10
3.18262
 20
3.62456
  0
VERTEX
  8
0
 10
3.62456
 20
3.18262
  0
VERTEX
  8
0
 10
3.62456
 20
3.18262
  0
VERTEX
  8
0
 10
4.77541
 20
4.33398
  0
VERTEX
  8
0
 10
4.77541
 20
4.33398
  0
VERTEX
  8
0
 10
4.8069
 20
4.25991
  0
VERTEX
  8
0
 10
4.8069
 20
4.25991
  0
VERTEX
  8
0
 10
4.83902
 20
4.18613
  0
VERTEX
  8
0
 10
4.83902
 20
4.18613
  0
VERTEX
  8
0
 10
4.87175
 20
4.11265
  0
VERTEX
  8
0
 10
4.87175
 20
4.11265
  0
VERTEX
  8
0
 10
4.9051
 20
4.03946
  0
VERTEX
  8
0
 10
4.9051
 20
4.03946
  0
VERTEX
  8
0
 10
4.93906
 20
3.96658
  0
VERTEX
  8
0
 10
4.93906
 20
3.96658
  0
VERTEX
  8
0
 10
4.97363
 20
3.894
  0
VERTEX
  8
0
 10
4.97363
 20
3.894
  0
VERTEX
  8
0
 10
5.00881
 20
3.82173
  0
VERTEX
  8
0
 10
5.00881
 20
3.82173
  0
VERTEX
  8
0
 10
5.0446
 20
3.74978
  0
VERTEX
  8
0
 10
5.0446
 20
3.74978
  0
VERTEX
  8
0
 10
5.08099
 20
3.67814
  0
VERTEX
  8
0
 10
5.08099
 20
3.67814
  0
VERTEX
  8
0
 10
5.11799
 20
3.60682
  0
VERTEX
  8
0
 10
5.11799
 20
3.60682
  0
VERTEX
  8
0
 10
5.15558
 20
3.53582
  0
VERTEX
  8
0
 10
5.15558
 20
3.53582
  0
VERTEX
  8
0
 10
5.19377
 20
3.46516
  0
VERTEX
  8
0
 10
5.19377
 20
3.46516
  0
VERTEX
  8
0
 10
5.23256
 20
3.39482
  0
VERTEX
  8
0
 10
5.23256
 20
3.39482
  0
VERTEX
  8
0
 10
5.27194
 20
3.32482
  0
VERTEX
  8
0
 10
5.27194
 20
3.32482
  0
VERTEX
  8
0
 10
5.31192
 20
3.25516
  0
VERTEX
  8
0
 10
5.31192
 20
3.25516
  0
VERTEX
  8
0
 10
5.35248
 20
3.18584
  0
VERTEX
  8
0
 10
5.35248
 20
3.18584
  0
VERTEX
  8
0
 10
5.39363
 20
3.11687
  0
VERTEX
  8
0
 10
5.39363
 20
3.11687
  0
VERTEX
  8
0
 10
5.43536
 20
3.04825
  0
VERTEX
  8
0
 10
5.43536
 20
3.04825
  0
VERTEX
  8
0
 10
5.47768
 20
2.97999
  0
VERTEX
  8
0
 10
5.47768
 20
2.97999
  0
VERTEX
  8
0
 10
5.52057
 20
2.91208
  0
VERTEX
  8
0
 10
5.52057
 20
2.91208
  0
VERTEX
  8
0
 10
5.56405
 20
2.84453
  0
VERTEX
  8
0
 10
5.56405
 20
2.84453
  0
VERTEX
  8
0
 10
5.6081
 20
2.77735
  0
VERTEX
  8
0
 10
5.6081
 20
2.77735
  0
VERTEX
  8
0
 10
5.65272
 20
2.71054
  0
VERTEX
  8
0
 10
5.65272
 20
2.71054
  0
VERTEX
  8
0
 10
5.69791
 20
2.6441
  0
VERTEX
  8
0
 10
5.69791
 20
2.6441
  0
VERTEX
  8
0
 10
5.74368
 20
2.57804
  0
VERTEX
  8
0
 10
5.74368
 20
2.57804
  0
VERTEX
  8
0
 10
5.79001
 20
2.51236
  0
VERTEX
  8
0
 10
5.79001
 20
2.51236
  0
VERTEX
  8
0
 10
5.8369
 20
2.44706
  0
VERTEX
  8
0
 10
5.8369
 20
2.44706
  0
VERTEX
  8
0
 10
5.88436
 20
2.38215
  0
VERTEX
  8
0
 10
5.88436
 20
2.38215
  0
VERTEX
  8
0
 10
5.93238
 20
2.31764
  0
VERTEX
  8
0
 10
5.93238
 20
2.31764
  0
VERTEX
  8
0
 10
5.98095
 20
2.25351
  0
VERTEX
  8
0
 10
5.98095
 20
2.25351
  0
VERTEX
  8
0
 10
6.03008
 20
2.18979
  0
VERTEX
  8
0
 10
6.03008
 20
2.18979
  0
VERTEX
  8
0
 10
6.07977
 20
2.12647
  0
VERTEX
  8
0
 10
6.07977
 20
2.12647
  0
VERTEX
  8
0
 10
9.92023
 20
2.12647
  0
VERTEX
  8
0
 10
9.92023
 20
2.12647
  0
VERTEX
  8
0
 10
9.96992
 20
2.18979
  0
VERTEX
  8
0
 10
9.96992
 20
2.18979
  0
VERTEX
  8
0
 10
10.019
 20
2.25351
  0
VERTEX
  8
0
 10
10.019
 20
2.25351
  0
VERTEX
  8
0
 10
10.0676
 20
2.31764
  0
VERTEX
  8
0
 10
10.0676
 20
2.31764
  0
VERTEX
  8
0
 10
10.1156
 20
2.38215
  0
VERTEX
  8
0
 10
10.1156
 20
2.38215
  0
VERTEX
  8
0
 10
10.1631
 20
2.44706
  0
VERTEX
  8
0
 10
10.1631
 20
2.44706
  0
VERTEX
  8
0
 10
10.21
 20
2.51236
  0
VERTEX
  8
0
 10
10.21
 20
2.51236
  0
VERTEX
  8
0
 10
10.2563
 20
2.57804
  0
VERTEX
  8
0
 10
10.2563
 20
2.57804
  0
VERTEX
  8
0
 10
10.3021
 20
2.6441
  0
VERTEX
  8
0
 10
10.3021
 20
2.6441
  0
VERTEX
  8
0
 10
10.3473
 20
2.71054
  0
VERTEX
  8
0
 10
10.3473
 20
2.71054
  0
VERTEX
  8
0
 10
10.3919
 20
2.77735
  0
VERTEX
  8
0
 10
10.3919
 20
2.77735
  0
VERTEX
  8
0
 10
10.436
 20
2.84453
  0
VERTEX
  8
0
 10
10.436
 20
2.84453
  0
VERTEX
  8
0
 10
10.4794
 20
2.91208
  0
VERTEX
  8
0
 10
10.4794
 20
2.91208
  0
VERTEX
  8
0
 10
10.5223
 20
2.97999
  0
VERTEX
  8
0
 10
10.5223
 20
2.97999
  0
VERTEX
  8
0
 10
10.5646
 20
3.04825
  0
VERTEX
  8
0
 10
10.5646
 20
3.04825
  0
VERTEX
  8
0
 10
10.6064
 20
3.11687
  0
VERTEX
  8
0
 10
10.6064
 20
3.11687
  0
VERTEX
  8
0
 10
10.6475
 20
3.18584
  0
VERTEX
  8
0
 10
10.6475
 20
3.18584
  0
VERTEX
  8
0
 10
10.6881
 20
3.25516
  0
VERTEX
  8
0
 10
10.6881
 20
3.25516
  0
VERTEX
  8
0
 10
10.7281
 20
3.32482
  0
VERTEX
  8
0
 10
10.7281
 20
3.32482
  0
VERTEX
  8
0
 10
10.7674
 20
3.39482
  0
VERTEX
  8
0
 10
10.7674
 20
3.39482
  0
VERTEX
  8
0
 10
10.8062
 20
3.46516
  0
VERTEX
  8
0
 10
10.8062
 20
3.46516
  0
VERTEX
  8
0
 10
10.8444
 20
3.53582
  0
VERTEX
  8
0
 10
10.8444
 20
3.53582
  0
VERTEX
  8
0
 10
10.882
 20
3.60682
  0
VERTEX
  8
0
 10
10.882
 20
3.60682
  0
VERTEX
  8
0
 10
10.919
 20
3.67814
  0
VERTEX
  8
0
 10
10.919
 20
3.67814
  0
VERTEX
  8
0
 10
10.9554
 20
3.74978
  0
VERTEX
  8
0
 10
10.9554
 20
3.74978
  0
VERTEX
  8
0
 10
10.9912
 20
3.82173
  0
VERTEX
  8
0
 10
10.9912
 20
3.82173
  0
VERTEX
  8
0
 10
11.0264
 20
3.894
  0
VERTEX
  8
0
 10
11.0264
 20
3.894
  0
VERTEX
  8
0
 10
11.0609
 20
3.96658
  0
VERTEX
  8
0
 10
11.0609
 20
3.96658
  0
VERTEX
  8
0
 10
11.0949
 20
4.03946
  0
VERTEX
  8
0
 10
11.0949
 20
4.03946
  0
VERTEX
  8
0
 10
11.1282
 20
4.11265
  0
VERTEX
  8
0
 10
11.1282
 20
4.11265
  0
VERTEX
  8
0
 10
11.161
 20
4.18613
  0
VERTEX
  8
0
 10
11.161
 20
4.18613
  0
VERTEX
  8
0
 10
11.1931
 20
4.25991
  0
VERTEX
  8
0
 10
11.1931
 20
4.25991
  0
VERTEX
  8
0
 10
11.2246
 20
4.33398
  0
VERTEX
  8
0
 10
11.2246
 20
4.33398
  0
VERTEX
  8
0
 10
11.6698
 20
4.77968
  0
VERTEX
  8
0
 10
11.6698
 20
4.77968
  0
VERTEX
  8
0
 10
11.7264
 20
4.97813
  0
VERTEX
  8
0
 10
11.7264
 20
4.97813
  0
VERTEX
  8
0
 10
11.7793
 20
5.17732
  0
VERTEX
  8
0
 10
11.7793
 20
5.17732
  0
VERTEX
  8
0
 10
11.8286
 20
5.3772
  0
VERTEX
  8
0
 10
11.8286
 20
5.3772
  0
VERTEX
  8
0
 10
11.8741
 20
5.57773
  0
VERTEX
  8
0
 10
11.8741
 20
5.57773
  0
VERTEX
  8
0
 10
11.916
 20
5.77885
  0
VERTEX
  8
0
 10
11.916
 20
5.77885
  0
VERTEX
  8
0
 10
11.9543
 20
5.98052
  0
VERTEX
  8
0
 10
11.9543
 20
5.98052
  0
VERTEX
  8
0
 10
11.9888
 20
6.18267
  0
VERTEX
  8
0
 10
11.9888
 20
6.18267
  0
VERTEX
  8
0
 10
12.0197
 20
6.38528
  0
VERTEX
  8
0
 10
12.0197
 20
6.38528
  0
VERTEX
  8
0
 10
12.0469
 20
6.58827
  0
VERTEX
  8
0
 10
12.0469
 20
6.58827
  0
VERTEX
  8
0
 10
12.0705
 20
6.79161
  0
VERTEX
  8
0
 10
12.0705
 20
6.79161
  0
VERTEX
  8
0
 10
12.0904
 20
6.99525
  0
VERTEX
  8
0
 10
12.0904
 20
6.99525
  0
VERTEX
  8
0
 10
12.1066
 20
7.19913
  0
VERTEX
  8
0
 10
12.1066
 20
7.19913
  0
VERTEX
  8
0
 10
12.1191
 20
7.4032
  0
VERTEX
  8
0
 10
12.1191
 20
7.4032
  0
VERTEX
  8
0
 10
12.128
 20
7.60742
  0
VERTEX
  8
0
 10
12.128
 20
7.60742
  0
VERTEX
  8
0
 10
12.1332
 20
7.81173
  0
VERTEX
  8
0
 10
12.1332
 20
7.81173
  0
VERTEX
  8
0
 10
12.1348
 20
8.01609
  0
VERTEX
  8
0
 10
12.1348
 20
8.01609
  0
VERTEX
  8
0
 10
12.1327
 20
8.22044
  0
VERTEX
  8
0
 10
12.1327
 20
8.22044
  0
VERTEX
  8
0
 10
12.1269
 20
8.42474
  0
VERTEX
  8
0
 10
12.1269
 20
8.42474
  0
VERTEX
  8
0
 10
12.1174
 20
8.62893
  0
VERTEX
  8
0
 10
12.1174
 20
8.62893
  0
VERTEX
  8
0
 10
12.1043
 20
8.83296
  0
VERTEX
  8
0
 10
12.1043
 20
8.83296
  0
VERTEX
  8
0
 10
12.0875
 20
9.0368
  0
VERTEX
  8
0
 10
12.0875
 20
9.0368
  0
VERTEX
  8
0
 10
12.067
 20
9.24037
  0
VERTEX
  8
0
 10
12.067
 20
9.24037
  0
VERTEX
  8
0
 10
12.0429
 20
9.44365
  0
VERTEX
  8
0
 10
12.0429
 20
9.44365
  0
VERTEX
  8
0
 10
12.0151
 20
9.64656
  0
VERTEX
  8
0
 10
12.0151
 20
9.64656
  0
VERTEX
  8
0
 10
11.9836
 20
9.84908
  0
VERTEX
  8
0
 10
11.9836
 20
9.84908
  0
VERTEX
  8
0
 10
11.9485
 20
10.0511
  0
VERTEX
  8
0
 10
11.9485
 20
10.0511
  0
VERTEX
  8
0
 10
11.9097
 20
10.2527
  0
VERTEX
  8
0
 10
11.9097
 20
10.2527
  0
VERTEX
  8
0
 10
11.8672
 20
10.4537
  0
VERTEX
  8
0
 10
11.8672
 20
10.4537
  0
VERTEX
  8
0
 10
11.8211
 20
10.6541
  0
VERTEX
  8
0
 10
11.8211
 20
10.6541
  0
VERTEX
  8
0
 10
11.7713
 20
10.8538
  0
VERTEX
  8
0
 10
11.7713
 20
10.8538
  0
VERTEX
  8
0
 10
11.7178
 20
11.0529
  0
VERTEX
  8
0
 10
11.7178
 20
11.0529
  0
VERTEX
  8
0
 10
11.6607
 20
11.2512
  0
SEQEND
  0
POLYLINE
  8
0
 66
1
  0
VERTEX
  8
0
 10
2.07294
 20
9.58815
  0
VERTEX
  8
0
 10
2.04781
 20
9.49123
  0
VERTEX
  8
0
 10
2.02427
 20
9.39391
  0
VERTEX
  8
0
 10
2.00232
 20
9.29621
  0
VERTEX
  8
0
 10
1.98196
 20
9.19814
  0
VERTEX
  8
0
 10
1.96321
 20
9.09973
  0
VERTEX
  8
0
 10
1.94605
 20
9.00099
  0
VERTEX
  8
0
 10
1.9305
 20
8.90195
  0
VERTEX
  8
0
 10
1.91657
 20
8.80262
  0
VERTEX
  8
0
 10
1.90426
 20
8.70302
  0
VERTEX
  8
0
 10
1.89357
 20
8.60318
  0
VERTEX
  8
0
 10
1.88451
 20
8.5031
  0
VERTEX
  8
0
 10
1.87709
 20
8.40282
  0
VERTEX
  8
0
 10
1.87131
 20
8.30235
  0
VERTEX
  8
0
 10
1.86717
 20
8.20171
  0
VERTEX
  8
0
 10
1.86468
 20
8.10092
  0
VERTEX
  8
0
 10
1.86385
 20
8
  0
VERTEX
  8
0
 10
1.86801
 20
7.96141
  0
VERTEX
  8
0
 10
1.87091
 20
7.92332
  0
VERTEX
  8
0
 10
1.87568
 20
7.88578
  0
VERTEX
  8
0
 10
1.88227
 20
7.84885
  0
VERTEX
  8
0
 10
1.89065
 20
7.81256
  0
VERTEX
  8
0
 10
1.90075
 20
7.77697
  0
VERTEX
  8
0
 10
1.91254
 20
7.74212
  0
VERTEX
  8
0
 10
1.92597
 20
7.70807
  0
VERTEX
  8
0
 10
1.94099
 20
7.67484
  0
VERTEX
  8
0
 10
1.95755
 20
7.64251
  0
VERTEX
  8
0
 10
1.97561
 20
7.6111
  0
VERTEX
  8
0
 10
1.99512
 20
7.58067
  0
VERTEX
  8
0
 10
2.01603
 20
7.55126
  0
VERTEX
  8
0
 10
2.0383
 20
7.52293
  0
VERTEX
  8
0
 10
2.06187
 20
7.49572
  0
VERTEX
  8
0
 10
2.0867
 20
7.46967
  0
VERTEX
  8
0
 10
2.11275
 20
7.44484
  0
VERTEX
  8
0
 10
2.13996
 20
7.42126
  0
VERTEX
  8
0
 10
2.1683
 20
7.399
  0
VERTEX
  8
0
 10
2.1977
 20
7.37809
  0
VERTEX
  8
0
 10
2.22813
 20
7.35858
  0
VERTEX
  8
0
 10
2.25954
 20
7.34052
  0
VERTEX
  8
0
 10
2.29188
 20
7.32396
  0
VERTEX
  8
0
 10
2.3251
 20
7.30894
  0
VERTEX
  8
0
 10
2.35916
 20
7.29551
  0
VERTEX
  8
0
 10
2.39401
 20
7.28372
  0
VERTEX
  8
0
 10
2.4296
 20
7.27361
  0
VERTEX
  8
0
 10
2.46588
 20
7.26524
  0
VERTEX
  8
0
 10
2.50282
 20
7.25864
  0
VERTEX
  8
0
 10
2.54035
 20
7.25387
  0
VERTEX
  8
0
 10
2.57844
 20
7.25098
  0
VERTEX
  8
0
 10
2.61703
 20
7.25
  0
VERTEX
  8
0
 10
2.65563
 20
7.25098
  0
VERTEX
  8
0
 10
2.69372
 20
7.25387
  0
VERTEX
  8
0
 10
2.73125
 20
7.25864
  0
VERTEX
  8
0
 10
2.76818
 20
7.26524
  0
VERTEX
  8
0
 10
2.80447
 20
7.27361
  0
VERTEX
  8
0
 10
2.84006
 20
7.28372
  0
VERTEX
  8
0
 10
2.87491
 20
7.29551
  0
VERTEX
  8
0
 10
2.90897
 20
7.30894
  0
VERTEX
  8
0
 10
2.94219
 20
7.32396
  0
VERTEX
  8
0
 10
2.97453
 20
7.34052
  0
VERTEX
  8
0
 10
3.00594
 20
7.35858
  0
VERTEX
  8
0
 10
3.03637
 20
7.37809
  0
VERTEX
  8
0
 10
3.06577
 20
7.399
  0
VERTEX
  8
0
 10
3.0941
 20
7.42126
  0
VERTEX
  8
0
 10
3.12132
 20
7.44484
  0
VERTEX
  8
0
 10
3.14736
 20
7.46967
  0
VERTEX
  8
0
 10
3.1722
 20
7.49572
  0
VERTEX
  8
0
 10
3.19577
 20
7.52293
  0
VERTEX
  8
0
 10
3.21803
 20
7.55126
  0
VERTEX
  8
0
 10
3.23895
 20
7.58067
  0
VERTEX
  8
0
 10
3.25845
 20
7.6111
  0
VERTEX
  8
0
 10
3.27651
 20
7.64251
  0
VERTEX
  8
0
 10
3.29308
 20
7.67484
  0
VERTEX
  8
0
 10
3.30809
 20
7.70807
  0
VERTEX
  8
0
 10
3.32152
 20
7.74212
  0
VERTEX
  8
0
 10
3.33331
 20
7.77697
  0
VERTEX
  8
0
 10
3.34342
 20
7.81256
  0
VERTEX
  8
0
 10
3.3518
 20
7.84885
  0
VERTEX
  8
0
 10
3.35839
 20
7.88578
  0
VERTEX
  8
0
 10
3.36316
 20
7.92332
  0
VERTEX
  8
0
 10
3.36606
 20
7.96141
  0
VERTEX
  8
0
 10
3.36703
 20
8
  0
VERTEX
  8
0
 10
3.73001
 20
10.7369
  0
VERTEX
  8
0
 10
3.73167
 20
10.7614
  0
VERTEX
  8
0
 10
3.73226
 20
10.7857
  0
VERTEX
  8
0
 10
3.7318
 20
10.8098
  0
VERTEX
  8
0
 10
3.73032
 20
10.8338
  0
VERTEX
  8
0
 10
3.72782
 20
10.8575
  0
VERTEX
  8
0
 10
3.72432
 20
10.881
  0
VERTEX
  8
0
 10
3.71985
 20
10.9043
  0
VERTEX
  8
0
 10
3.71441
 20
10.9272
  0
VERTEX
  8
0
 10
3.70804
 20
10.9498
  0
VERTEX
  8
0
 10
3.70074
 20
10.9721
  0
VERTEX
  8
0
 10
3.69253
 20
10.9939
  0
VERTEX
  8
0
 10
3.68343
 20
11.0154
  0
VERTEX
  8
0
 10
3.67346
 20
11.0365
  0
VERTEX
  8
0
 10
3.66263
 20
11.0571
  0
VERTEX
  8
0
 10
3.65097
 20
11.0772
  0
VERTEX
  8
0
 10
3.63849
 20
11.0968
  0
VERTEX
  8
0
 10
3.62521
 20
11.1159
  0
VERTEX
  8
0
 10
3.61114
 20
11.1344
  0
VERTEX
  8
0
 10
3.59631
 20
11.1523
  0
VERTEX
  8
0
 10
3.58072
 20
11.1697
  0
VERTEX
  8
0
 10
3.56441
 20
11.1863
  0
VERTEX
  8
0
 10
3.54738
 20
11.2024
  0
VERTEX
  8
0
 10
3.52966
 20
11.2177
  0
VERTEX
  8
0
 10
3.51126
 20
11.2323
  0
VERTEX
  8
0
 10
3.4922
 20
11.2461
  0
VERTEX
  8
0
 10
3.47249
 20
11.2592
  0
VERTEX
  8
0
 10
3.45216
 20
11.2715
  0
VERTEX
  8
0
 10
3.43122
 20
11.283
  0
VERTEX
  8
0
 10
3.40969
 20
11.2936
  0
VERTEX
  8
0
 10
3.38759
 20
11.3033
  0
VERTEX
  8
0
 10
3.36493
 20
11.3121
  0
VERTEX
  8
0
 10
3.34174
 20
11.32
  0
VERTEX
  8
0
 10
3.31822
 20
11.3269
  0
VERTEX
  8
0
 10
3.29461
 20
11.3327
  0
VERTEX
  8
0
 10
3.27094
 20
11.3375
  0
VERTEX
  8
0
 10
3.24722
 20
11.3412
  0
VERTEX
  8
0
 10
3.2235
 20
11.3439
  0
VERTEX
  8
0
 10
3.1998
 20
11.3455
  0
VERTEX
  8
0
 10
3.17616
 20
11.3462
  0
VERTEX
  8
0
 10
3.15259
 20
11.3458
  0
VERTEX
  8
0
 10
3.12914
 20
11.3444
  0
VERTEX
  8
0
 10
3.10583
 20
11.3421
  0
VERTEX
  8
0
 10
3.08269
 20
11.3388
  0
VERTEX
  8
0
 10
3.05975
 20
11.3345
  0
VERTEX
  8
0
 10
3.03704
 20
11.3293
  0
VERTEX
  8
0
 10
3.01459
 20
11.3232
  0
VERTEX
  8
0
 10
2.99243
 20
11.3162
  0
VERTEX
  8
0
 10
2.97059
 20
11.3082
  0
VERTEX
  8
0
 10
2.9491
 20
11.2993
  0
VERTEX
  8
0
 10
2.92799
 20
11.2896
  0
VERTEX
  8
0
 10
2.90728
 20
11.279
  0
VERTEX
  8
0
 10
2.88701
 20
11.2675
  0
VERTEX
  8
0
 10
2.86721
 20
11.2551
  0
VERTEX
  8
0
 10
2.8479
 20
11.242
  0
VERTEX
  8
0
 10
2.82913
 20
11.2279
  0
VERTEX
  8
0
 10
2.8109
 20
11.2131
  0
VERTEX
  8
0
 10
2.79327
 20
11.1975
  0
VERTEX
  8
0
 10
2.77624
 20
11.1811
  0
VERTEX
  8
0
 10
2.75987
 20
11.1639
  0
VERTEX
  8
0
 10
2.74416
 20
11.1459
  0
VERTEX
  8
0
 10
2.72917
 20
11.1271
  0
VERTEX
  8
0
 10
2.7149
 20
11.1077
  0
VERTEX
  8
0
 10
2.7014
 20
11.0874
  0
VERTEX
  8
0
 10
2.68594
 20
11.0681
  0
VERTEX
  8
0
 10
2.6362
 20
10.9803
  0
VERTEX
  8
0
 10
2.58796
 20
10.8917
  0
VERTEX
  8
0
 10
2.54122
 20
10.8025
  0
VERTEX
  8
0
 10
2.49599
 20
10.7126
  0
VERTEX
  8
0
 10
2.45228
 20
10.622
  0
VERTEX
  8
0
 10
2.41009
 20
10.5308
  0
VERTEX
  8
0
 10
2.36942
 20
10.439
  0
VERTEX
  8
0
 10
2.33029
 20
10.3466
  0
VERTEX
  8
0
 10
2.29269
 20
10.2536
  0
VERTEX
  8
0
 10
2.25663
 20
10.1601
  0
VERTEX
  8
0
 10
2.22212
 20
10.066
  0
VERTEX
  8
0
 10
2.18916
 20
9.97139
  0
VERTEX
  8
0
 10
2.15775
 20
9.87628
  0
VERTEX
  8
0
 10
2.12791
 20
9.7807
  0
VERTEX
  8
0
 10
2.09964
 20
9.68464
  0
VERTEX
  8
0
 10
2.09964
 20
9.68464
  0
SEQEND
  0
POLYLINE
  8
0
 66
1
  0
VERTEX
  8
0
 10
2.07294
 20
9.58815
  0
VERTEX
  8
0
 10
2.09964
 20
9.68464
  0
SEQEND
  0
POLYLINE
  8
0
 66
1
  0
VERTEX
  8
0
 10
2.07294
 20
9.58815
  0
VERTEX
  8
0
 10
2.07294
 20
9.58815
  0
SEQEND
  0
POLYLINE
  8
0
 66
1
  0
VERTEX
  8
0
 10
2.04781
 20
9.49123
  0
VERTEX
  8
0
 10
2.04781
 20
9.49123
  0
SEQEND
  0
POLYLINE
  8
0
 66
1
  0
VERTEX
  8
0
 10
2.02427
 20
9.39391
  0
VERTEX
  8
0
 10
2.02427
 20
9.39391
  0
SEQEND
  0
POLYLINE
  8
0
 66
1
  0
VERTEX
  8
0
 10
2.00232
 20
9.29621
  0
VERTEX
  8
0
 10
2.00232
 20
9.29621
  0
SEQEND
  0
POLYLINE
  8
0
 66
1
  0
VERTEX
  8
0
 10
1.98196
 20
9.19814
  0
VERTEX
  8
0
 10
1.98196
 20
9.19814
  0
SEQEND
  0
POLYLINE
  8
0
 66
1
  0
VERTEX
  8
0
 10
1.96321
 20
9.09973
  0
VERTEX
  8
0
 10
1.96321
 20
9.09973
  0
SEQEND
  0
POLYLINE
  8
0
 66
1
  0
VERTEX
  8
0
 10
1.94605
 20
9.00099
  0
VERTEX
  8
0
 10
1.94605
 20
9.00099
  0
SEQEND
  0
POLYLINE
  8
0
 66
1
  0
VERTEX
  8
0
 10
1.9305
 20
8.90195
  0
VERTEX
  8
0
 10
1.9305
 20
8.90195
  0
SEQEND
  0
POLYLINE
  8
0
 66
1
  0
VERTEX
  8
0
 10
1.91657
 20
8.80262
  0
VERTEX
  8
0
 10
1.91657
 20
8.80262
  0
SEQEND
  0
POLYLINE
  8
0
 66
1
  0
VERTEX
  8
0
 10
1.90426
 20
8.70302
  0
VERTEX
  8
0
 10
1.90426
 20
8.70302
  0
SEQEND
  0
POLYLINE
  8
0
 66
1
  0
VERTEX
  8
0
 10
1.89357
 20
8.60318
  0
VERTEX
  8
0
 10
1.89357
 20
8.60318
  0
SEQEND
  0
POLYLINE
  8
0
 66
1
  0
VERTEX
  8
0
 10
1.88451
 20
8.5031
  0
VERTEX
  8
0
 10
1.88451
 20
8.5031
  0
SEQEND
  0
POLYLINE
  8
0
 66
1
  0
VERTEX
  8
0
 10
1.87709
 20
8.40282
  0
VERTEX
  8
0
 10
1.87709
 20
8.40282
  0
SEQEND
  0
POLYLINE
  8
0
 66
1
  0
VERTEX
  8
0
 10
1.87131
 20
8.30235
  0
VERTEX
  8
0
 10
1.87131
 20
8.30235
  0
SEQEND
  0
POLYLINE
  8
0
 66
1
  0
VERTEX
  8
0
 10
1.86717
 20
8.20171
  0
VERTEX
  8
0
 10
1.86717
 20
8.20171
  0
SEQEND
  0
POLYLINE
  8
0
 66
1
  0
VERTEX
  8
0
 10
1.86468
 20
8.10092
  0
VERTEX
  8
0
 10
1.86468
 20
8.10092
  0
SEQEND
  0
POLYLINE
  8
0
 66
1
  0
VERTEX
  8
0
 10
1.86385
 20
8
  0
VERTEX
  8
0
 10
1.86385
 20
8
  0
SEQEND
  0
POLYLINE
  8
0
 66
1
  0
VERTEX
  8
0
 10
1.86801
 20
7.96141
  0
VERTEX
  8
0
 10
1.86801
 20
7.96141
  0
SEQEND
  0
POLYLINE
  8
0
 66
1
  0
VERTEX
  8
0
 10
1.87091
 20
7.92332
  0
VERTEX
  8
0
 10
1.87091
 20
7.92332
  0
SEQEND
  0
POLYLINE
  8
0
 66
1
  0
VERTEX
  8
0
 10
1.87568
 20
7.88578
  0
VERTEX
  8
0
 10
1.87568
 20
7.88578
  0
SEQEND
  0
POLYLINE
  8
0
 66
1
  0
VERTEX
  8
0
 10
1.88227
 20
7.84885
  0
VERTEX
  8
0
 10
1.88227
 20
7.84885
  0
SEQEND
  0
POLYLINE
  8
0
 66
1
  0
VERTEX
  8
0
 10
1.89065
 20
7.81256
  0
VERTEX
  8
0
 10
1.89065
 20
7.81256
  0
SEQEND
  0
POLYLINE
  8
0
 66
1
  0
VERTEX
  8
0
 10
1.90075
 20
7.77697
  0
VERTEX
  8
0
 10
1.90075
 20
7.77697
  0
SEQEND
  0
POLYLINE
  8
0
 66
1
  0
VERTEX
  8
0
 10
1.91254
 20
7.74212
  0
VERTEX
  8
0
 10
1.91254
 20
7.74212
  0
SEQEND
  0
POLYLINE
  8
0
 66
1
  0
VERTEX
  8
0
 10
1.92597
 20
7.70807
  0
VERTEX
  8
0
 10
1.92597
 20
7.70807
  0
SEQEND
  0
POLYLINE
  8
0
 66
1
  0
VERTEX
  8
0
 10
1.94099
 20
7.67484
  0
VERTEX
  8
0
 10
1.94099
 20
7.67484
  0
SEQEND
  0
POLYLINE
  8
0
 66
1
  0
VERTEX
  8
0
 10
1.95755
 20
7.64251
  0
VERTEX
  8
0
 10
1.95755
 20
7.64251
  0
SEQEND
  0
POLYLINE
  8
0
 66
1
  0
VERTEX
  8
0
 10
1.97561
 20
7.6111
  0
VERTEX
  8
0
 10
1.97561
 20
7.6111
  0
SEQEND
  0
POLYLINE
  8
0
 66
1
  0
VERTEX
  8
0
 10
1.99512
 20
7.58067
  0
VERTEX
  8
0
 10
1.99512
 20
7.58067
  0
SEQEND
  0
POLYLINE
  8
0
 66
1
  0
VERTEX
  8
0
 10
2.01603
 20
7.55126
  0
VERTEX
  8
0
 10
2.01603
 20
7.55126
  0
SEQEND
  0
POLYLINE
  8
0
 66
1
  0
VERTEX
  8
0
 10
2.0383
 20
7.52293
  0
VERTEX
  8
0
 10
2.0383
 20
7.52293
  0
SEQEND
  0
POLYLINE
  8
0
 66
1
  0
VERTEX
  8
0
 10
2.06187
 20
7.49572
  0
VERTEX
  8
0
 10
2.06187
 20
7.49572
  0
SEQEND
  0
POLYLINE
  8
0
 66
1
  0
VERTEX
  8
0
 10
2.0867
 20
7.46967
  0
VERTEX
  8
0
 10
2.0867
 20
7.46967
  0
SEQEND
  0
POLYLINE
  8
0
 66
1
  0
VERTEX
  8
0
 10
2.11275
 20
7.44484
  0
VERTEX
  8
0
 10
2.11275
 20
7.44484
  0
SEQEND
  0
POLYLINE
  8
0
 66
1
  0
VERTEX
  8
0
 10
2.13996
 20
7.42126
  0
VERTEX
  8
0
 10
2.13996
 20
7.42126
  0
SEQEND
  0
POLYLINE
  8
0
 66
1
  0
VERTEX
  8
0
 10
2.1683
 20
7.399
  0
VERTEX
  8
0
 10
2.1683
 20
7.399
  0
SEQEND
  0
POLYLINE
  8
0
 66
1
  0
VERTEX
  8
0
 10
2.1977
 20
7.37809
  0
VERTEX
  8
0
 10
2.1977
 20
7.37809
  0
SEQEND
  0
POLYLINE
  8
0
 66
1
  0
VERTEX
  8
0
 10
2.22813
 20
7.35858
  0
VERTEX
  8
0
 10
2.22813
 20
7.35858
  0
SEQEND
  0
POLYLINE
  8
0
 66
1
  0
VERTEX
  8
0
 10
2.25954
 20
7.34052
  0
VERTEX
  8
0
 10
2.25954
 20
7.34052
  0
SEQEND
  0
POLYLINE
  8
0
 66
1
  0
VERTEX
  8
0
 10
2.29188
 20
7.32396
  0
VERTEX
  8
0
 10
2.29188
 20
7.32396
  0
SEQEND
  0
POLYLINE
  8
0
 66
1
  0
VERTEX
  8
0
 10
2.3251
 20
7.30894
  0
VERTEX
  8
0
 10
2.3251
 20
7.30894
  0
SEQEND
  0
POLYLINE
  8
0
 66
1
  0
VERTEX
  8
0
 10
2.35916
 20
7.29551
  0
VERTEX
  8
0
 10
2.35916
 20
7.29551
  0
SEQEND
  0
POLYLINE
  8
0
 66
1
  0
VERTEX
  8
0
 10
2.39401
 20
7.28372
  0
VERTEX
  8
0
 10
2.39401
 20
7.28372
  0
SEQEND
  0
POLYLINE
  8
0
 66
1
  0
VERTEX
  8
0
 10
2.4296
 20
7.27361
  0
VERTEX
  8
0
 10
2.4296
 20
7.27361
  0
SEQEND
  0
POLYLINE
  8
0
 66
1
  0
VERTEX
  8
0
 10
2.46588
 20
7.26524
  0
VERTEX
  8
0
 10
2.46588
 20
7.26524
  0
SEQEND
  0
POLYLINE
  8
0
 66
1
  0
VERTEX
  8
0
 10
2.50282
 20
7.25864
  0
VERTEX
  8
0
 10
2.50282
 20
7.25864
  0
SEQEND
  0
POLYLINE
  8
0
 66
1
  0
VERTEX
  8
0
 10
2.54035
 20
7.25387
  0
VERTEX
  8
0
 10
2.54035
 20
7.25387
  0
SEQEND
  0
POLYLINE
  8
0
 66
1
  0
VERTEX
  8
0
 10
2.57844
 20
7.25098
  0
VERTEX
  8
0
 10
2.57844
 20
7.25098
  0
SEQEND
  0
POLYLINE
  8
0
 66
1
  0
VERTEX
  8
0
 10
2.61703
 20
7.25
  0
VERTEX
  8
0
 10
2.61703
 20
7.25
  0
SEQEND
  0
POLYLINE
  8
0
 66
1
  0
VERTEX
  8
0
 10
2.65563
 20
7.25098
  0
VERTEX
  8
0
 10
2.65563
 20
7.25098
  0
SEQEND
  0
POLYLINE
  8
0
 66
1
  0
VERTEX
  8
0
 10
2.69372
 20
7.25387
  0
VERTEX
  8
0
 10
2.69372
 20
7.25387
  0
SEQEND
  0
POLYLINE
  8
0
 66
1
  0
VERTEX
  8
0
 10
2.73125
 20
7.25864
  0
VERTEX
  8
0
 10
2.73125
 20
7.25864
  0
SEQEND
  0
POLYLINE
  8
0
 66
1
  0
VERTEX
  8
0
 10
2.76818
 20
7.26524
  0
VERTEX
  8
0
 10
2.76818
 20
7.26524
  0
SEQEND
  0
POLYLINE
  8
0
 66
1
  0
VERTEX
  8
0
 10
2.80447
 20
7.27361
  0
VERTEX
  8
0
 10
2.80447
 20
7.27361
  0
SEQEND
  0
POLYLINE
  8
0
 66
1
  0
VERTEX
  8
0
 10
2.84006
 20
7.28372
  0
VERTEX
  8
0
 10
2.84006
 20
7.28372
  0
SEQEND
  0
POLYLINE
  8
0
 66
1
  0
VERTEX
  8
0
 10
2.87491
 20
7.29551
  0
VERTEX
  8
0
 10
2.87491
 20
7.29551
  0
SEQEND
  0
POLYLINE
  8
0
 66
1
  0
VERTEX
  8
0
 10
2.90897
 20
7.30894
  0
VERTEX
  8
0
 10
2.90897
 20
7.30894
  0
SEQEND
  0
POLYLINE
  8
0
 66
1
  0
VERTEX
  8
0
 10
2.94219
 20
7.32396
  0
VERTEX
  8
0
 10
2.94219
 20
7.32396
  0
SEQEND
  0
POLYLINE
  8
0
 66
1
  0
VERTEX
  8
0
 10
2.97453
 20
7.34052
  0
VERTEX
  8
0
 10
2.97453
 20
7.34052
  0
SEQEND
  0
POLYLINE
  8
0
 66
1
  0
VERTEX
  8
0
 10
3.00594
 20
7.35858
  0
VERTEX
  8
0
 10
3.00594
 20
7.35858
  0
SEQEND
  0
POLYLINE
  8
0
 66
1
  0
VERTEX
  8
0
 10
3.03637
 20
7.37809
  0
VERTEX
  8
0
 10
3.03637
 20
7.37809
  0
SEQEND
  0
POLYLINE
  8
0
 66
1
  0
VERTEX
  8
0
 10
3.06577
 20
7.399
  0
VERTEX
  8
0
 10
3.06577
 20
7.399
  0
SEQEND
  0
POLYLINE
  8
0
 66
1
  0
VERTEX
  8
0
 10
3.0941
 20
7.42126
  0
VERTEX
  8
0
 10
3.0941
 20
7.42126
  0
SEQEND
  0
POLYLINE
  8
0
 66
1
  0
VERTEX
  8
0
 10
3.12132
 20
7.44484
  0
VERTEX
  8
0
 10
3.12132
 20
7.44484
  0
SEQEND
  0
POLYLINE
  8
0
 66
1
  0
VERTEX
  8
0
 10
3.14736
 20
7.46967
  0
VERTEX
  8
0
 10
3.14736
 20
7.46967
  0
SEQEND
  0
POLYLINE
  8
0
 66
1
  0
VERTEX
  8
0
 10
3.1722
 20
7.49572
  0
VERTEX
  8
0
 10
3.1722
 20
7.49572
  0
SEQEND
  0
POLYLINE
  8
0
 66
1
  0
VERTEX
  8
0
 10
3.19577
 20
7.52293
  0
VERTEX
  8
0
 10
3.19577
 20
7.52293
  0
SEQEND
  0
POLYLINE
  8
0
 66
1
  0
VERTEX
  8
0
 10
3.21803
 20
7.55126
  0
VERTEX
  8
0
 10
3.21803
 20
7.55126
  0
SEQEND
  0
POLYLINE
  8
0
 66
1
  0
VERTEX
  8
0
 10
3.23895
 20
7.58067
  0
VERTEX
  8
0
 10
3.23895
 20
7.58067
  0
SEQEND
  0
POLYLINE
  8
0
 66
1
  0
VERTEX
  8
0
 10
3.25845
 20
7.6111
  0
VERTEX
  8
0
 10
3.25845
 20
7.6111
  0
SEQEND
  0
POLYLINE
  8
0
 66
1
  0
VERTEX
  8
0
 10
3.27651
 20
7.64251
  0
VERTEX
  8
0
 10
3.27651
 20
7.64251
  0
SEQEND
  0
POLYLINE
  8
0
 66
1
  0
VERTEX
  8
0
 10
3.29308
 20
7.67484
  0
VERTEX
  8
0
 10
3.29308
 20
7.67484
  0
SEQEND
  0
POLYLINE
  8
0
 66
1
  0
VERTEX
  8
0
 10
3.30809
 20
7.70807
  0
VERTEX
  8
0
 10
3.30809
 20
7.70807
  0
SEQEND
  0
POLYLINE
  8
0
 66
1
  0
VERTEX
  8
0
 10
3.32152
 20
7.74212
  0
VERTEX
  8
0
 10
3.32152
 20
7.74212
  0
SEQEND
  0
POLYLINE
  8
0
 66
1
  0
VERTEX
  8
0
 10
3.33331
 20
7.77697
  0
VERTEX
  8
0
 10
3.33331
 20
7.77697
  0
SEQEND
  0
POLYLINE
  8
0
 66
1
  0
VERTEX
  8
0
 10
3.34342
 20
7.81256
  0
VERTEX
  8
0
 10
3.34342
 20
7.81256
  0
SEQEND
  0
POLYLINE
  8
0
 66
1
  0
VERTEX
  8
0
 10
3.3518
 20
7.84885
  0
VERTEX
  8
0
 10
3.3518
 20
7.84885
  0
SEQEND
  0
POLYLINE
  8
0
 66
1
  0
VERTEX
  8
0
 10
3.35839
 20
7.88578
  0
VERTEX
  8
0
 10
3.35839
 20
7.88578
  0
SEQEND
  0
POLYLINE
  8
0
 66
1
  0
VERTEX
  8
0
 10
3.36316
 20
7.92332
  0
VERTEX
  8
0
 10
3.36316
 20
7.92332
  0
SEQEND
  0
POLYLINE
  8
0
 66
1
  0
VERTEX
  8
0
 10
3.36606
 20
7.96141
  0
VERTEX
  8
0
 10
3.36606
 20
7.96141
  0
SEQEND
  0
POLYLINE
  8
0
 66
1
  0
VERTEX
  8
0
 10
3.36703
 20
8
  0
VERTEX
  8
0
 10
3.36703
 20
8
  0
SEQEND
  0
POLYLINE
  8
0
 66
1
  0
VERTEX
  8
0
 10
3.73001
 20
10.7369
  0
VERTEX
  8
0
 10
3.73001
 20
10.7369
  0
SEQEND
  0
POLYLINE
  8
0
 66
1
  0
VERTEX
  8
0
 10
3.73167
 20
10.7614
  0
VERTEX
  8
0
 10
3.73167
 20
10.7614
  0
SEQEND
  0
POLYLINE
  8
0
 66
1
  0
VERTEX
  8
0
 10
3.73226
 20
10.7857
  0
VERTEX
  8
0
 10
3.73226
 20
10.7857
  0
SEQEND
  0
POLYLINE
  8
0
 66
1
  0
VERTEX
  8
0
 10
3.7318
 20
10.8098
  0
VERTEX
  8
0
 10
3.7318
 20
10.8098
  0
SEQEND
  0
POLYLINE
  8
0
 66
1
  0
VERTEX
  8
0
 10
3.73032
 20
10.8338
  0
VERTEX
  8
0
 10
3.73032
 20
10.8338
  0
SEQEND
  0
POLYLINE
  8
0
 66
1
  0
VERTEX
  8
0
 10
3.72782
 20
10.8575
  0
VERTEX
  8
0
 10
3.72782
 20
10.8575
  0
SEQEND
  0
POLYLINE
  8
0
 66
1
  0
VERTEX
  8
0
 10
3.72432
 20
10.881
  0
VERTEX
  8
0
 10
3.72432
 20
10.881
  0
SEQEND
  0
POLYLINE
  8
0
 66
1
  0
VERTEX
  8
0
 10
3.71985
 20
10.9043
  0
VERTEX
  8
0
 10
3.71985
 20
10.9043
  0
SEQEND
  0
POLYLINE
  8
0
 66
1
  0
VERTEX
  8
0
 10
3.71441
 20
10.9272
  0
VERTEX
  8
0
 10
3.71441
 20
10.9272
  0
SEQEND
  0
POLYLINE
  8
0
 66
1
  0
VERTEX
  8
0
 10
3.70804
 20
10.9498
  0
VERTEX
  8
0
 10
3.70804
 20
10.9498
  0
SEQEND
  0
POLYLINE
  8
0
 66
1
  0
VERTEX
  8
0
 10
3.70074
 20
10.9721
  0
VERTEX
  8
0
 10
3.70074
 20
10.9721
  0
SEQEND
  0
POLYLINE
  8
0
 66
1
  0
VERTEX
  8
0
 10
3.69253
 20
10.9939
  0
VERTEX
  8
0
 10
3.69253
 20
10.9939
  0
SEQEND
  0
POLYLINE
  8
0
 66
1
  0
VERTEX
  8
0
 10
3.68343
 20
11.0154
  0
VERTEX
  8
0
 10
3.68343
 20
11.0154
  0
SEQEND
  0
POLYLINE
  8
0
 66
1
  0
VERTEX
  8
0
 10
3.67346
 20
11.0365
  0
VERTEX
  8
0
 10
3.67346
 20
11.0365
  0
SEQEND
  0
POLYLINE
  8
0
 66
1
  0
VERTEX
  8
0
 10
3.66263
 20
11.0571
  0
VERTEX
  8
0
 10
3.66263
 20
11.0571
  0
SEQEND
  0
POLYLINE
  8
0
 66
1
  0
VERTEX
  8
0
 10
3.65097
 20
11.0772
  0
VERTEX
  8
0
 10
3.65097
 20
11.0772
  0
SEQEND
  0
POLYLINE
  8
0
 66
1
  0
VERTEX
  8
0
 10
3.63849
 20
11.0968
  0
VERTEX
  8
0
 10
3.63849
 20
11.0968
  0
SEQEND
  0
POLYLINE
  8
0
 66
1
  0
VERTEX
  8
0
 10
3.62521
 20
11.1159
  0
VERTEX
  8
0
 10
3.62521
 20
11.1159
  0
SEQEND
  0
POLYLINE
  8
0
 66
1
  0
VERTEX
  8
0
 10
3.61114
 20
11.1344
  0
VERTEX
  8
0
 10
3.61114
 20
11.1344
  0
SEQEND
  0
POLYLINE
  8
0
 66
1
  0
VERTEX
  8
0
 10
3.59631
 20
11.1523
  0
VERTEX
  8
0
 10
3.59631
 20
11.1523
  0
SEQEND
  0
POLYLINE
  8
0
 66
1
  0
VERTEX
  8
0
 10
3.58072
 20
11.1697
  0
VERTEX
  8
0
 10
3.58072
 20
11.1697
  0
SEQEND
  0
POLYLINE
  8
0
 66
1
  0
VERTEX
  8
0
 10
3.56441
 20
11.1863
  0
VERTEX
  8
0
 10
3.56441
 20
11.1863
  0
SEQEND
  0
POLYLINE
  8
0
 66
1
  0
VERTEX
  8
0
 10
3.54738
 20
11.2024
  0
VERTEX
  8
0
 10
3.54738
 20
11.2024
  0
SEQEND
  0
POLYLINE
  8
0
 66
1
  0
VERTEX
  8
0
 10
3.52966
 20
11.2177
  0
VERTEX
  8
0
 10
3.52966
 20
11.2177
  0
SEQEND
  0
POLYLINE
  8
0
 66
1
  0
VERTEX
  8
0
 10
3.51126
 20
11.2323
  0
VERTEX
  8
0
 10
3.51126
 20
11.2323
  0
SEQEND
  0
POLYLINE
  8
0
 66
1
  0
VERTEX
  8
0
 10
3.4922
 20
11.2461
  0
VERTEX
  8
0
 10
3.4922
 20
11.2461
  0
SEQEND
  0
POLYLINE
  8
0
 66
1
  0
VERTEX
  8
0
 10
3.47249
 20
11.2592
  0
VERTEX
  8
0
 10
3.47249
 20
11.2592
  0
SEQEND
  0
POLYLINE
  8
0
 66
1
  0
VERTEX
  8
0
 10
3.45216
 20
11.2715
  0
VERTEX
  8
0
 10
3.45216
 20
11.2715
  0
SEQEND
  0
POLYLINE
  8
0
 66
1
  0
VERTEX
  8
0
 10
3.43122
 20
11.283
  0
VERTEX
  8
0
 10
3.43122
 20
11.283
  0
SEQEND
  0
POLYLINE
  8
0
 66
1
  0
VERTEX
  8
0
 10
3.40969
 20
11.2936
  0
VERTEX
  8
0
 10
3.40969
 20
11.2936
  0
SEQEND
  0
POLYLINE
  8
0
 66
1
  0
VERTEX
  8
0
 10
3.38759
 20
11.3033
  0
VERTEX
  8
0
 10
3.38759
 20
11.3033
  0
SEQEND
  0
POLYLINE
  8
0
 66
1
  0
VERTEX
  8
0
 10
3.36493
 20
11.3121
  0
VERTEX
  8
0
 10
3.36493
 20
11.3121
  0
SEQEND
  0
POLYLINE
  8
0
 66
1
  0
VERTEX
  8
0
 10
3.34174
 20
11.32
  0
VERTEX
  8
0
 10
3.34174
 20
11.32
  0
SEQEND
  0
POLYLINE
  8
0
 66
1
  0
VERTEX
  8
0
 10
3.31822
 20
11.3269
  0
VERTEX
  8
0
 10
3.31822
 20
11.3269
  0
SEQEND
  0
POLYLINE
  8
0
 66
1
  0
VERTEX
  8
0
 10
3.29461
 20
11.3327
  0
VERTEX
  8
0
 10
3.29461
 20
11.3327
  0
SEQEND
  0
POLYLINE
  8
0
 66
1
  0
VERTEX
  8
0
 10
3.27094
 20
11.3375
  0
VERTEX
  8
0
 10
3.27094
 20
11.3375
  0
SEQEND
  0
POLYLINE
  8
0
 66
1
  0
VERTEX
  8
0
 10
3.24722
 20
11.3412
  0
VERTEX
  8
0
 10
3.24722
 20
11.3412
  0
SEQEND
  0
POLYLINE
  8
0
 66
1
  0
VERTEX
  8
0
 10
3.2235
 20
11.3439
  0
VERTEX
  8
0
 10
3.2235
 20
11.3439
  0
SEQEND
  0
POLYLINE
  8
0
 66
1
  0
VERTEX
  8
0
 10
3.1998
 20
11.3455
  0
VERTEX
  8
0
 10
3.1998
 20
11.3455
  0
SEQEND
  0
POLYLINE
  8
0
 66
1
  0
VERTEX
  8
0
 10
3.17616
 20
11.3462
  0
VERTEX
  8
0
 10
3.17616
 20
11.3462
  0
SEQEND
  0
POLYLINE
  8
0
 66
1
  0
VERTEX
  8
0
 10
3.15259
 20
11.3458
  0
VERTEX
  8
0
 10
3.15259
 20
11.3458
  0
SEQEND
  0
POLYLINE
  8
0
 66
1
  0
VERTEX
  8
0
 10
3.12914
 20
11.3444
  0
VERTEX
  8
0
 10
3.12914
 20
11.3444
  0
SEQEND
  0
POLYLINE
  8
0
 66
1
  0
VERTEX
  8
0
 10
3.10583
 20
11.3421
  0
VERTEX
  8
0
 10
3.10583
 20
11.3421
  0
SEQEND
  0
POLYLINE
  8
0
 66
1
  0
VERTEX
  8
0
 10
3.08269
 20
11.3388
  0
VERTEX
  8
0
 10
3.08269
 20
11.3388
  0
SEQEND
  0
POLYLINE
  8
0
 66
1
  0
VERTEX
  8
0
 10
3.05975
 20
11.3345
  0
VERTEX
  8
0
 10
3.05975
 20
11.3345
  0
SEQEND
  0
POLYLINE
  8
0
 66
1
  0
VERTEX
  8
0
 10
3.03704
 20
11.3293
  0
VERTEX
  8
0
 10
3.03704
 20
11.3293
  0
SEQEND
  0
POLYLINE
  8
0
 66
1
  0
VERTEX
  8
0
 10
3.01459
 20
11.3232
  0
VERTEX
  8
0
 10
3.01459
 20
11.3232
  0
SEQEND
  0
POLYLINE
  8
0
 66
1
  0
VERTEX
  8
0
 10
2.99243
 20
11.3162
  0
VERTEX
  8
0
 10
2.99243
 20
11.3162
  0
SEQEND
  0
POLYLINE
  8
0
 66
1
  0
VERTEX
  8
0
 10
2.97059
 20
11.3082
  0
VERTEX
  8
0
 10
2.97059
 20
11.3082
  0
SEQEND
  0
POLYLINE
  8
0
 66
1
  0
VERTEX
  8
0
 10
2.9491
 20
11.2993
  0
VERTEX
  8
0
 10
2.9491
 20
11.2993
  0
SEQEND
  0
POLYLINE
  8
0
 66
1
  0
VERTEX
  8
0
 10
2.92799
 20
11.2896
  0
VERTEX
  8
0
 10
2.92799
 20
11.2896
  0
SEQEND
  0
POLYLINE
  8
0
 66
1
  0
VERTEX
  8
0
 10
2.90728
 20
11.279
  0
VERTEX
  8
0
 10
2.90728
 20
11.279
  0
SEQEND
  0
POLYLINE
  8
0
 66
1
  0
VERTEX
  8
0
 10
2.88701
 20
11.2675
  0
VERTEX
  8
0
 10
2.88701
 20
11.2675
  0
SEQEND
  0
POLYLINE
  8
0
 66
1
  0
VERTEX
  8
0
 10
2.86721
 20
11.2551
  0
VERTEX
  8
0
 10
2.86721
 20
11.2551
  0
SEQEND
  0
POLYLINE
  8
0
 66
1
  0
VERTEX
  8
0
 10
2.8479
 20
11.242
  0
VERTEX
  8
0
 10
2.8479
 20
11.242
  0
SEQEND
  0
POLYLINE
  8
0
 66
1
  0
VERTEX
  8
0
 10
2.82913
 20
11.2279
  0
VERTEX
  8
0
 10
2.82913
 20
11.2279
  0
SEQEND
  0
POLYLINE
  8
0
 66
1
  0
VERTEX
  8
0
 10
2.8109
 20
11.2131
  0
VERTEX
  8
0
 10
2.8109
 20
11.2131
  0
SEQEND
  0
POLYLINE
  8
0
 66
1
  0
VERTEX
  8
0
 10
2.79327
 20
11.1975
  0
VERTEX
  8
0
 10
2.79327
 20
11.1975
  0
SEQEND
  0
POLYLINE
  8
0
 66
1
  0
VERTEX
  8
0
 10
2.77624
 20
11.1811
  0
VERTEX
  8
0
 10
2.77624
 20
11.1811
  0
SEQEND
  0
POLYLINE
  8
0
 66
1
  0
VERTEX
  8
0
 10
2.75987
 20
11.1639
  0
VERTEX
  8
0
 10
2.75987
 20
11.1639
  0
SEQEND
  0
POLYLINE
  8
0
 66
1
  0
VERTEX
  8
0
 10
2.74416
 20
11.1459
  0
VERTEX
  8
0
 10
2.74416
 20
11.1459
  0
SEQEND
  0
POLYLINE
  8
0
 66
1
  0
VERTEX
  8
0
 10
2.72917
 20
11.1271
  0
VERTEX
  8
0
 10
2.72917
 20
11.1271
  0
SEQEND
  0
POLYLINE
  8
0
 66
1
  0
VERTEX
  8
0
 10
2.7149
 20
11.1077
  0
VERTEX
  8
0
 10
2.7149
 20
11.1077
  0
SEQEND
  0
POLYLINE
  8
0
 66
1
  0
VERTEX
  8
0
 10
2.7014
 20
11.0874
  0
VERTEX
  8
0
 10
2.7014
 20
11.0874
  0
SEQEND
  0
POLYLINE
  8
0
 66
1
  0
VERTEX
  8
0
 10
2.68594
 20
11.0681
  0
VERTEX
  8
0
 10
2.68594
 20
11.0681
  0
SEQEND
  0
POLYLINE
  8
0
 66
1
  0
VERTEX
  8
0
 10
2.6362
 20
10.9803
  0
VERTEX
  8
0
 10
2.6362
 20
10.9803
  0
SEQEND
  0
POLYLINE
  8
0
 66
1
  0
VERTEX
  8
0
 10
2.58796
 20
10.8917
  0
VERTEX
  8
0
 10
2.58796
 20
10.8917
  0
SEQEND
  0
POLYLINE
  8
0
 66
1
  0
VERTEX
  8
0
 10
2.54122
 20
10.8025
  0
VERTEX
  8
0
 10
2.54122
 20
10.8025
  0
SEQEND
  0
POLYLINE
  8
0
 66
1
  0
VERTEX
  8
0
 10
2.49599
 20
10.7126
  0
VERTEX
  8
0
 10
2.49599
 20
10.7126
  0
SEQEND
  0
POLYLINE
  8
0
 66
1
  0
VERTEX
  8
0
 10
2.45228
 20
10.622
  0
VERTEX
  8
0
 10
2.45228
 20
10.622
  0
SEQEND
  0
POLYLINE
  8
0
 66
1
  0
VERTEX
  8
0
 10
2.41009
 20
10.5308
  0
VERTEX
  8
0
 10
2.41009
 20
10.5308
  0
SEQEND
  0
POLYLINE
  8
0
 66
1
  0
VERTEX
  8
0
 10
2.36942
 20
10.439
  0
VERTEX
  8
0
 10
2.36942
 20
10.439
  0
SEQEND
  0
POLYLINE
  8
0
 66
1
  0
VERTEX
  8
0
 10
2.33029
 20
10.3466
  0
VERTEX
  8
0
 10
2.33029
 20
10.3466
  0
SEQEND
  0
POLYLINE
  8
0
 66
1
  0
VERTEX
  8
0
 10
2.29269
 20
10.2536
  0
VERTEX
  8
0
 10
2.29269
 20
10.2536
  0
SEQEND
  0
POLYLINE
  8
0
 66
1
  0
VERTEX
  8
0
 10
2.25663
 20
10.1601
  0
VERTEX
  8
0
 10
2.25663
 20
10.1601
  0
SEQEND
  0
POLYLINE
  8
0
 66
1
  0
VERTEX
  8
0
 10
2.22212
 20
10.066
  0
VERTEX
  8
0
 10
2.22212
 20
10.066
  0
SEQEND
  0
POLYLINE
  8
0
 66
1
  0
VERTEX
  8
0
 10
2.18916
 20
9.97139
  0
VERTEX
  8
0
 10
2.18916
 20
9.97139
  0
SEQEND
  0
POLYLINE
  8
0
 66
1
  0
VERTEX
  8
0
 10
2.15775
 20
9.87628
  0
VERTEX
  8
0
 10
2.15775
 20
9.87628
  0
SEQEND
  0
POLYLINE
  8
0
 66
1
  0
VERTEX
  8
0
 10
2.12791
 20
9.7807
  0
VERTEX
  8
0
 10
2.12791
 20
9.7807
  0
SEQEND
  0
POLYLINE
  8
0
 66
1
  0
VERTEX
  8
0
 10
13.9271
 20
9.58815
  0
VERTEX
  8
0
 10
13.9004
 20
9.68464
  0
VERTEX
  8
0
 10
13.8721
 20
9.7807
  0
VERTEX
  8
0
 10
13.8422
 20
9.87628
  0
VERTEX
  8
0
 10
13.8108
 20
9.97139
  0
VERTEX
  8
0
 10
13.7779
 20
10.066
  0
VERTEX
  8
0
 10
13.7434
 20
10.1601
  0
VERTEX
  8
0
 10
13.7073
 20
10.2536
  0
VERTEX
  8
0
 10
13.6697
 20
10.3466
  0
VERTEX
  8
0
 10
13.6306
 20
10.439
  0
VERTEX
  8
0
 10
13.5899
 20
10.5308
  0
VERTEX
  8
0
 10
13.5477
 20
10.622
  0
VERTEX
  8
0
 10
13.504
 20
10.7126
  0
VERTEX
  8
0
 10
13.4588
 20
10.8025
  0
VERTEX
  8
0
 10
13.412
 20
10.8917
  0
VERTEX
  8
0
 10
13.3638
 20
10.9803
  0
VERTEX
  8
0
 10
13.3141
 20
11.0681
  0
VERTEX
  8
0
 10
13.2986
 20
11.0874
  0
VERTEX
  8
0
 10
13.2851
 20
11.1077
  0
VERTEX
  8
0
 10
13.2708
 20
11.1271
  0
VERTEX
  8
0
 10
13.2558
 20
11.1459
  0
VERTEX
  8
0
 10
13.2401
 20
11.1639
  0
VERTEX
  8
0
 10
13.2238
 20
11.1811
  0
VERTEX
  8
0
 10
13.2067
 20
11.1975
  0
VERTEX
  8
0
 10
13.1891
 20
11.2131
  0
VERTEX
  8
0
 10
13.1709
 20
11.2279
  0
VERTEX
  8
0
 10
13.1521
 20
11.242
  0
VERTEX
  8
0
 10
13.1328
 20
11.2551
  0
VERTEX
  8
0
 10
13.113
 20
11.2675
  0
VERTEX
  8
0
 10
13.0927
 20
11.279
  0
VERTEX
  8
0
 10
13.072
 20
11.2896
  0
VERTEX
  8
0
 10
13.0509
 20
11.2993
  0
VERTEX
  8
0
 10
13.0294
 20
11.3082
  0
VERTEX
  8
0
 10
13.0076
 20
11.3162
  0
VERTEX
  8
0
 10
12.9854
 20
11.3232
  0
VERTEX
  8
0
 10
12.963
 20
11.3293
  0
VERTEX
  8
0
 10
12.9402
 20
11.3345
  0
VERTEX
  8
0
 10
12.9173
 20
11.3388
  0
VERTEX
  8
0
 10
12.8942
 20
11.3421
  0
VERTEX
  8
0
 10
12.8709
 20
11.3444
  0
VERTEX
  8
0
 10
12.8474
 20
11.3458
  0
VERTEX
  8
0
 10
12.8238
 20
11.3462
  0
VERTEX
  8
0
 10
12.8002
 20
11.3455
  0
VERTEX
  8
0
 10
12.7765
 20
11.3439
  0
VERTEX
  8
0
 10
12.7528
 20
11.3412
  0
VERTEX
  8
0
 10
12.7291
 20
11.3375
  0
VERTEX
  8
0
 10
12.7054
 20
11.3327
  0
VERTEX
  8
0
 10
12.6818
 20
11.3269
  0
VERTEX
  8
0
 10
12.6583
 20
11.32
  0
VERTEX
  8
0
 10
12.6351
 20
11.3121
  0
VERTEX
  8
0
 10
12.6124
 20
11.3033
  0
VERTEX
  8
0
 10
12.5903
 20
11.2936
  0
VERTEX
  8
0
 10
12.5688
 20
11.283
  0
VERTEX
  8
0
 10
12.5478
 20
11.2715
  0
VERTEX
  8
0
 10
12.5275
 20
11.2592
  0
VERTEX
  8
0
 10
12.5078
 20
11.2461
  0
VERTEX
  8
0
 10
12.4887
 20
11.2323
  0
VERTEX
  8
0
 10
12.4703
 20
11.2177
  0
VERTEX
  8
0
 10
12.4526
 20
11.2024
  0
VERTEX
  8
0
 10
12.4356
 20
11.1863
  0
VERTEX
  8
0
 10
12.4193
 20
11.1697
  0
VERTEX
  8
0
 10
12.4037
 20
11.1523
  0
VERTEX
  8
0
 10
12.3889
 20
11.1344
  0
VERTEX
  8
0
 10
12.3748
 20
11.1159
  0
VERTEX
  8
0
 10
12.3615
 20
11.0968
  0
VERTEX
  8
0
 10
12.349
 20
11.0772
  0
VERTEX
  8
0
 10
12.3374
 20
11.0571
  0
VERTEX
  8
0
 10
12.3265
 20
11.0365
  0
VERTEX
  8
0
 10
12.3166
 20
11.0154
  0
VERTEX
  8
0
 10
12.3075
 20
10.9939
  0
VERTEX
  8
0
 10
12.2993
 20
10.9721
  0
VERTEX
  8
0
 10
12.292
 20
10.9498
  0
VERTEX
  8
0
 10
12.2856
 20
10.9272
  0
VERTEX
  8
0
 10
12.2802
 20
10.9043
  0
VERTEX
  8
0
 10
12.2757
 20
10.881
  0
VERTEX
  8
0
 10
12.2722
 20
10.8575
  0
VERTEX
  8
0
 10
12.2697
 20
10.8338
  0
VERTEX
  8
0
 10
12.2682
 20
10.8098
  0
VERTEX
  8
0
 10
12.2677
 20
10.7857
  0
VERTEX
  8
0
 10
12.2683
 20
10.7614
  0
VERTEX
  8
0
 10
12.27
 20
10.7369
  0
VERTEX
  8
0
 10
12.633
 20
8
  0
VERTEX
  8
0
 10
12.6339
 20
7.96141
  0
VERTEX
  8
0
 10
12.6368
 20
7.92332
  0
VERTEX
  8
0
 10
12.6416
 20
7.88578
  0
VERTEX
  8
0
 10
12.6482
 20
7.84885
  0
VERTEX
  8
0
 10
12.6566
 20
7.81256
  0
VERTEX
  8
0
 10
12.6667
 20
7.77697
  0
VERTEX
  8
0
 10
12.6785
 20
7.74212
  0
VERTEX
  8
0
 10
12.6919
 20
7.70807
  0
VERTEX
  8
0
 10
12.7069
 20
7.67484
  0
VERTEX
  8
0
 10
12.7235
 20
7.64251
  0
VERTEX
  8
0
 10
12.7415
 20
7.6111
  0
VERTEX
  8
0
 10
12.7611
 20
7.58067
  0
VERTEX
  8
0
 10
12.782
 20
7.55126
  0
VERTEX
  8
0
 10
12.8042
 20
7.52293
  0
VERTEX
  8
0
 10
12.8278
 20
7.49572
  0
VERTEX
  8
0
 10
12.8526
 20
7.46967
  0
VERTEX
  8
0
 10
12.8787
 20
7.44484
  0
VERTEX
  8
0
 10
12.9059
 20
7.42126
  0
VERTEX
  8
0
 10
12.9342
 20
7.399
  0
VERTEX
  8
0
 10
12.9636
 20
7.37809
  0
VERTEX
  8
0
 10
12.9941
 20
7.35858
  0
VERTEX
  8
0
 10
13.0255
 20
7.34052
  0
VERTEX
  8
0
 10
13.0578
 20
7.32396
  0
VERTEX
  8
0
 10
13.091
 20
7.30894
  0
VERTEX
  8
0
 10
13.1251
 20
7.29551
  0
VERTEX
  8
0
 10
13.1599
 20
7.28372
  0
VERTEX
  8
0
 10
13.1955
 20
7.27361
  0
VERTEX
  8
0
 10
13.2318
 20
7.26524
  0
VERTEX
  8
0
 10
13.2687
 20
7.25864
  0
VERTEX
  8
0
 10
13.3063
 20
7.25387
  0
VERTEX
  8
0
 10
13.3444
 20
7.25098
  0
VERTEX
  8
0
 10
13.383
 20
7.25
  0
VERTEX
  8
0
 10
13.4216
 20
7.25098
  0
VERTEX
  8
0
 10
13.4596
 20
7.25387
  0
VERTEX
  8
0
 10
13.4972
 20
7.25864
  0
VERTEX
  8
0
 10
13.5341
 20
7.26524
  0
VERTEX
  8
0
 10
13.5704
 20
7.27361
  0
VERTEX
  8
0
 10
13.606
 20
7.28372
  0
VERTEX
  8
0
 10
13.6408
 20
7.29551
  0
VERTEX
  8
0
 10
13.6749
 20
7.30894
  0
VERTEX
  8
0
 10
13.7081
 20
7.32396
  0
VERTEX
  8
0
 10
13.7405
 20
7.34052
  0
VERTEX
  8
0
 10
13.7719
 20
7.35858
  0
VERTEX
  8
0
 10
13.8023
 20
7.37809
  0
VERTEX
  8
0
 10
13.8317
 20
7.399
  0
VERTEX
  8
0
 10
13.86
 20
7.42126
  0
VERTEX
  8
0
 10
13.8872
 20
7.44484
  0
VERTEX
  8
0
 10
13.9133
 20
7.46967
  0
VERTEX
  8
0
 10
13.9381
 20
7.49572
  0
VERTEX
  8
0
 10
13.9617
 20
7.52293
  0
VERTEX
  8
0
 10
13.984
 20
7.55126
  0
VERTEX
  8
0
 10
14.0049
 20
7.58067
  0
VERTEX
  8
0
 10
14.0244
 20
7.6111
  0
VERTEX
  8
0
 10
14.0424
 20
7.64251
  0
VERTEX
  8
0
 10
14.059
 20
7.67484
  0
VERTEX
  8
0
 10
14.074
 20
7.70807
  0
VERTEX
  8
0
 10
14.0875
 20
7.74212
  0
VERTEX
  8
0
 10
14.0992
 20
7.77697
  0
VERTEX
  8
0
 10
14.1094
 20
7.81256
  0
VERTEX
  8
0
 10
14.1177
 20
7.84885
  0
VERTEX
  8
0
 10
14.1243
 20
7.88578
  0
VERTEX
  8
0
 10
14.1291
 20
7.92332
  0
VERTEX
  8
0
 10
14.132
 20
7.96141
  0
VERTEX
  8
0
 10
14.1361
 20
8
  0
VERTEX
  8
0
 10
14.1353
 20
8.10092
  0
VERTEX
  8
0
 10
14.1328
 20
8.20171
  0
VERTEX
  8
0
 10
14.1287
 20
8.30235
  0
VERTEX
  8
0
 10
14.1229
 20
8.40282
  0
VERTEX
  8
0
 10
14.1155
 20
8.5031
  0
VERTEX
  8
0
 10
14.1064
 20
8.60318
  0
VERTEX
  8
0
 10
14.0957
 20
8.70302
  0
VERTEX
  8
0
 10
14.0834
 20
8.80262
  0
VERTEX
  8
0
 10
14.0695
 20
8.90195
  0
VERTEX
  8
0
 10
14.054
 20
9.00099
  0
VERTEX
  8
0
 10
14.0368
 20
9.09973
  0
VERTEX
  8
0
 10
14.018
 20
9.19814
  0
VERTEX
  8
0
 10
13.9977
 20
9.29621
  0
VERTEX
  8
0
 10
13.9757
 20
9.39391
  0
VERTEX
  8
0
 10
13.9522
 20
9.49123
  0
VERTEX
  8
0
 10
13.9522
 20
9.49123
  0
SEQEND
  0
POLYLINE
  8
0
 66
1
  0
VERTEX
  8
0
 10
13.9271
 20
9.58815
  0
VERTEX
  8
0
 10
13.9522
 20
9.49123
  0
SEQEND
  0
POLYLINE
  8
0
 66
1
  0
VERTEX
  8
0
 10
13.9271
 20
9.58815
  0
VERTEX
  8
0
 10
13.9271
 20
9.58815
  0
SEQEND
  0
POLYLINE
  8
0
 66
1
  0
VERTEX
  8
0
 10
13.9004
 20
9.68464
  0
VERTEX
  8
0
 10
13.9004
 20
9.68464
  0
SEQEND
  0
POLYLINE
  8
0
 66
1
  0
VERTEX
  8
0
 10
13.8721
 20
9.7807
  0
VERTEX
  8
0
 10
13.8721
 20
9.7807
  0
SEQEND
  0
POLYLINE
  8
0
 66
1
  0
VERTEX
  8
0
 10
13.8422
 20
9.87628
  0
VERTEX
  8
0
 10
13.8422
 20
9.87628
  0
SEQEND
  0
POLYLINE
  8
0
 66
1
  0
VERTEX
  8
0
 10
13.8108
 20
9.97139
  0
VERTEX
  8
0
 10
13.8108
 20
9.97139
  0
SEQEND
  0
POLYLINE
  8
0
 66
1
  0
VERTEX
  8
0
 10
13.7779
 20
10.066
  0
VERTEX
  8
0
 10
13.7779
 20
10.066
  0
SEQEND
  0
POLYLINE
  8
0
 66
1
  0
VERTEX
  8
0
 10
13.7434
 20
10.1601
  0
VERTEX
  8
0
 10
13.7434
 20
10.1601
  0
SEQEND
  0
POLYLINE
  8
0
 66
1
  0
VERTEX
  8
0
 10
13.7073
 20
10.2536
  0
VERTEX
  8
0
 10
13.7073
 20
10.2536
  0
SEQEND
  0
POLYLINE
  8
0
 66
1
  0
VERTEX
  8
0
 10
13.6697
 20
10.3466
  0
VERTEX
  8
0
 10
13.6697
 20
10.3466
  0
SEQEND
  0
POLYLINE
  8
0
 66
1
  0
VERTEX
  8
0
 10
13.6306
 20
10.439
  0
VERTEX
  8
0
 10
13.6306
 20
10.439
  0
SEQEND
  0
POLYLINE
  8
0
 66
1
  0
VERTEX
  8
0
 10
13.5899
 20
10.5308
  0
VERTEX
  8
0
 10
13.5899
 20
10.5308
  0
SEQEND
  0
POLYLINE
  8
0
 66
1
  0
VERTEX
  8
0
 10
13.5477
 20
10.622
  0
VERTEX
  8
0
 10
13.5477
 20
10.622
  0
SEQEND
  0
POLYLINE
  8
0
 66
1
  0
VERTEX
  8
0
 10
13.504
 20
10.7126
  0
VERTEX
  8
0
 10
13.504
 20
10.7126
  0
SEQEND
  0
POLYLINE
  8
0
 66
1
  0
VERTEX
  8
0
 10
13.4588
 20
10.8025
  0
VERTEX
  8
0
 10
13.4588
 20
10.8025
  0
SEQEND
  0
POLYLINE
  8
0
 66
1
  0
VERTEX
  8
0
 10
13.412
 20
10.8917
  0
VERTEX
  8
0
 10
13.412
 20
10.8917
  0
SEQEND
  0
POLYLINE
  8
0
 66
1
  0
VERTEX
  8
0
 10
13.3638
 20
10.9803
  0
VERTEX
  8
0
 10
13.3638
 20
10.9803
  0
SEQEND
  0
POLYLINE
  8
0
 66
1
  0
VERTEX
  8
0
 10
13.3141
 20
11.0681
  0
VERTEX
  8
0
 10
13.3141
 20
11.0681
  0
SEQEND
  0
POLYLINE
  8
0
 66
1
  0
VERTEX
  8
0
 10
13.2986
 20
11.0874
  0
VERTEX
  8
0
 10
13.2986
 20
11.0874
  0
SEQEND
  0
POLYLINE
  8
0
 66
1
  0
VERTEX
  8
0
 10
13.2851
 20
11.1077
  0
VERTEX
  8
0
 10
13.2851
 20
11.1077
  0
SEQEND
  0
POLYLINE
  8
0
 66
1
  0
VERTEX
  8
0
 10
13.2708
 20
11.1271
  0
VERTEX
  8
0
 10
13.2708
 20
11.1271
  0
SEQEND
  0
POLYLINE
  8
0
 66
1
  0
VERTEX
  8
0
 10
13.2558
 20
11.1459
  0
VERTEX
  8
0
 10
13.2558
 20
11.1459
  0
SEQEND
  0
POLYLINE
  8
0
 66
1
  0
VERTEX
  8
0
 10
13.2401
 20
11.1639
  0
VERTEX
  8
0
 10
13.2401
 20
11.1639
  0
SEQEND
  0
POLYLINE
  8
0
 66
1
  0
VERTEX
  8
0
 10
13.2238
 20
11.1811
  0
VERTEX
  8
0
 10
13.2238
 20
11.1811
  0
SEQEND
  0
POLYLINE
  8
0
 66
1
  0
VERTEX
  8
0
 10
13.2067
 20
11.1975
  0
VERTEX
  8
0
 10
13.2067
 20
11.1975
  0
SEQEND
  0
POLYLINE
  8
0
 66
1
  0
VERTEX
  8
0
 10
13.1891
 20
11.2131
  0
VERTEX
  8
0
 10
13.1891
 20
11.2131
  0
SEQEND
  0
POLYLINE
  8
0
 66
1
  0
VERTEX
  8
0
 10
13.1709
 20
11.2279
  0
VERTEX
  8
0
 10
13.1709
 20
11.2279
  0
SEQEND
  0
POLYLINE
  8
0
 66
1
  0
VERTEX
  8
0
 10
13.1521
 20
11.242
  0
VERTEX
  8
0
 10
13.1521
 20
11.242
  0
SEQEND
  0
POLYLINE
  8
0
 66
1
  0
VERTEX
  8
0
 10
13.1328
 20
11.2551
  0
VERTEX
  8
0
 10
13.1328
 20
11.2551
  0
SEQEND
  0
POLYLINE
  8
0
 66
1
  0
VERTEX
  8
0
 10
13.113
 20
11.2675
  0
VERTEX
  8
0
 10
13.113
 20
11.2675
  0
SEQEND
  0
POLYLINE
  8
0
 66
1
  0
VERTEX
  8
0
 10
13.0927
 20
11.279
  0
VERTEX
  8
0
 10
13.0927
 20
11.279
  0
SEQEND
  0
POLYLINE
  8
0
 66
1
  0
VERTEX
  8
0
 10
13.072
 20
11.2896
  0
VERTEX
  8
0
 10
13.072
 20
11.2896
  0
SEQEND
  0
POLYLINE
  8
0
 66
1
  0
VERTEX
  8
0
 10
13.0509
 20
11.2993
  0
VERTEX
  8
0
 10
13.0509
 20
11.2993
  0
SEQEND
  0
POLYLINE
  8
0
 66
1
  0
VERTEX
  8
0
 10
13.0294
 20
11.3082
  0
VERTEX
  8
0
 10
13.0294
 20
11.3082
  0
SEQEND
  0
POLYLINE
  8
0
 66
1
  0
VERTEX
  8
0
 10
13.0076
 20
11.3162
  0
VERTEX
  8
0
 10
13.0076
 20
11.3162
  0
SEQEND
  0
POLYLINE
  8
0
 66
1
  0
VERTEX
  8
0
 10
12.9854
 20
11.3232
  0
VERTEX
  8
0
 10
12.9854
 20
11.3232
  0
SEQEND
  0
POLYLINE
  8
0
 66
1
  0
VERTEX
  8
0
 10
12.963
 20
11.3293
  0
VERTEX
  8
0
 10
12.963
 20
11.3293
  0
SEQEND
  0
POLYLINE
  8
0
 66
1
  0
VERTEX
  8
0
 10
12.9402
 20
11.3345
  0
VERTEX
  8
0
 10
12.9402
 20
11.3345
  0
SEQEND
  0
POLYLINE
  8
0
 66
1
  0
VERTEX
  8
0
 10
12.9173
 20
11.3388
  0
VERTEX
  8
0
 10
12.9173
 20
11.3388
  0
SEQEND
  0
POLYLINE
  8
0
 66
1
  0
VERTEX
  8
0
 10
12.8942
 20
11.3421
  0
VERTEX
  8
0
 10
12.8942
 20
11.3421
  0
SEQEND
  0
POLYLINE
  8
0
 66
1
  0
VERTEX
  8
0
 10
12.8709
 20
11.3444
  0
VERTEX
  8
0
 10
12.8709
 20
11.3444
  0
SEQEND
  0
POLYLINE
  8
0
 66
1
  0
VERTEX
  8
0
 10
12.8474
 20
11.3458
  0
VERTEX
  8
0
 10
12.8474
 20
11.3458
  0
SEQEND
  0
POLYLINE
  8
0
 66
1
  0
VERTEX
  8
0
 10
12.8238
 20
11.3462
  0
VERTEX
  8
0
 10
12.8238
 20
11.3462
  0
SEQEND
  0
POLYLINE
  8
0
 66
1
  0
VERTEX
  8
0
 10
12.8002
 20
11.3455
  0
VERTEX
  8
0
 10
12.8002
 20
11.3455
  0
SEQEND
  0
POLYLINE
  8
0
 66
1
  0
VERTEX
  8
0
 10
12.7765
 20
11.3439
  0
VERTEX
  8
0
 10
12.7765
 20
11.3439
  0
SEQEND
  0
POLYLINE
  8
0
 66
1
  0
VERTEX
  8
0
 10
12.7528
 20
11.3412
  0
VERTEX
  8
0
 10
12.7528
 20
11.3412
  0
SEQEND
  0
POLYLINE
  8
0
 66
1
  0
VERTEX
  8
0
 10
12.7291
 20
11.3375
  0
VERTEX
  8
0
 10
12.7291
 20
11.3375
  0
SEQEND
  0
POLYLINE
  8
0
 66
1
  0
VERTEX
  8
0
 10
12.7054
 20
11.3327
  0
VERTEX
  8
0
 10
12.7054
 20
11.3327
  0
SEQEND
  0
POLYLINE
  8
0
 66
1
  0
VERTEX
  8
0
 10
12.6818
 20
11.3269
  0
VERTEX
  8
0
 10
12.6818
 20
11.3269
  0
SEQEND
  0
POLYLINE
  8
0
 66
1
  0
VERTEX
  8
0
 10
12.6583
 20
11.32
  0
VERTEX
  8
0
 10
12.6583
 20
11.32
  0
SEQEND
  0
POLYLINE
  8
0
 66
1
  0
VERTEX
  8
0
 10
12.6351
 20
11.3121
  0
VERTEX
  8
0
 10
12.6351
 20
11.3121
  0
SEQEND
  0
POLYLINE
  8
0
 66
1
  0
VERTEX
  8
0
 10
12.6124
 20
11.3033
  0
VERTEX
  8
0
 10
12.6124
 20
11.3033
  0
SEQEND
  0
POLYLINE
  8
0
 66
1
  0
VERTEX
  8
0
 10
12.5903
 20
11.2936
  0
VERTEX
  8
0
 10
12.5903
 20
11.2936
  0
SEQEND
  0
POLYLINE
  8
0
 66
1
  0
VERTEX
  8
0
 10
12.5688
 20
11.283
  0
VERTEX
  8
0
 10
12.5688
 20
11.283
  0
SEQEND
  0
POLYLINE
  8
0
 66
1
  0
VERTEX
  8
0
 10
12.5478
 20
11.2715
  0
VERTEX
  8
0
 10
12.5478
 20
11.2715
  0
SEQEND
  0
POLYLINE
  8
0
 66
1
  0
VERTEX
  8
0
 10
12.5275
 20
11.2592
  0
VERTEX
  8
0
 10
12.5275
 20
11.2592
  0
SEQEND
  0
POLYLINE
  8
0
 66
1
  0
VERTEX
  8
0
 10
12.5078
 20
11.2461
  0
VERTEX
  8
0
 10
12.5078
 20
11.2461
  0
SEQEND
  0
POLYLINE
  8
0
 66
1
  0
VERTEX
  8
0
 10
12.4887
 20
11.2323
  0
VERTEX
  8
0
 10
12.4887
 20
11.2323
  0
SEQEND
  0
POLYLINE
  8
0
 66
1
  0
VERTEX
  8
0
 10
12.4703
 20
11.2177
  0
VERTEX
  8
0
 10
12.4703
 20
11.2177
  0
SEQEND
  0
POLYLINE
  8
0
 66
1
  0
VERTEX
  8
0
 10
12.4526
 20
11.2024
  0
VERTEX
  8
0
 10
12.4526
 20
11.2024
  0
SEQEND
  0
POLYLINE
  8
0
 66
1
  0
VERTEX
  8
0
 10
12.4356
 20
11.1863
  0
VERTEX
  8
0
 10
12.4356
 20
11.1863
  0
SEQEND
  0
POLYLINE
  8
0
 66
1
  0
VERTEX
  8
0
 10
12.4193
 20
11.1697
  0
VERTEX
  8
0
 10
12.4193
 20
11.1697
  0
SEQEND
  0
POLYLINE
  8
0
 66
1
  0
VERTEX
  8
0
 10
12.4037
 20
11.1523
  0
VERTEX
  8
0
 10
12.4037
 20
11.1523
  0
SEQEND
  0
POLYLINE
  8
0
 66
1
  0
VERTEX
  8
0
 10
12.3889
 20
11.1344
  0
VERTEX
  8
0
 10
12.3889
 20
11.1344
  0
SEQEND
  0
POLYLINE
  8
0
 66
1
  0
VERTEX
  8
0
 10
12.3748
 20
11.1159
  0
VERTEX
  8
0
 10
12.3748
 20
11.1159
  0
SEQEND
  0
POLYLINE
  8
0
 66
1
  0
VERTEX
  8
0
 10
12.3615
 20
11.0968
  0
VERTEX
  8
0
 10
12.3615
 20
11.0968
  0
SEQEND
  0
POLYLINE
  8
0
 66
1
  0
VERTEX
  8
0
 10
12.349
 20
11.0772
  0
VERTEX
  8
0
 10
12.349
 20
11.0772
  0
SEQEND
  0
POLYLINE
  8
0
 66
1
  0
VERTEX
  8
0
 10
12.3374
 20
11.0571
  0
VERTEX
  8
0
 10
12.3374
 20
11.0571
  0
SEQEND
  0
POLYLINE
  8
0
 66
1
  0
VERTEX
  8
0
 10
12.3265
 20
11.0365
  0
VERTEX
  8
0
 10
12.3265
 20
11.0365
  0
SEQEND
  0
POLYLINE
  8
0
 66
1
  0
VERTEX
  8
0
 10
12.3166
 20
11.0154
  0
VERTEX
  8
0
 10
12.3166
 20
11.0154
  0
SEQEND
  0
POLYLINE
  8
0
 66
1
  0
VERTEX
  8
0
 10
12.3075
 20
10.9939
  0
VERTEX
  8
0
 10
12.3075
 20
10.9939
  0
SEQEND
  0
POLYLINE
  8
0
 66
1
  0
VERTEX
  8
0
 10
12.2993
 20
10.9721
  0
VERTEX
  8
0
 10
12.2993
 20
10.9721
  0
SEQEND
  0
POLYLINE
  8
0
 66
1
  0
VERTEX
  8
0
 10
12.292
 20
10.9498
  0
VERTEX
  8
0
 10
12.292
 20
10.9498
  0
SEQEND
  0
POLYLINE
  8
0
 66
1
  0
VERTEX
  8
0
 10
12.2856
 20
10.9272
  0
VERTEX
  8
0
 10
12.2856
 20
10.9272
  0
SEQEND
  0
POLYLINE
  8
0
 66
1
  0
VERTEX
  8
0
 10
12.2802
 20
10.9043
  0
VERTEX
  8
0
 10
12.2802
 20
10.9043
  0
SEQEND
  0
POLYLINE
  8
0
 66
1
  0
VERTEX
  8
0
 10
12.2757
 20
10.881
  0
VERTEX
  8
0
 10
12.2757
 20
10.881
  0
SEQEND
  0
POLYLINE
  8
0
 66
1
  0
VERTEX
  8
0
 10
12.2722
 20
10.8575
  0
VERTEX
  8
0
 10
12.2722
 20
10.8575
  0
SEQEND
  0
POLYLINE
  8
0
 66
1
  0
VERTEX
  8
0
 10
12.2697
 20
10.8338
  0
VERTEX
  8
0
 10
12.2697
 20
10.8338
  0
SEQEND
  0
POLYLINE
  8
0
 66
1
  0
VERTEX
  8
0
 10
12.2682
 20
10.8098
  0
VERTEX
  8
0
 10
12.2682
 20
10.8098
  0
SEQEND
  0
POLYLINE
  8
0
 66
1
  0
VERTEX
  8
0
 10
12.2677
 20
10.7857
  0
VERTEX
  8
0
 10
12.2677
 20
10.7857
  0
SEQEND
  0
POLYLINE
  8
0
 66
1
  0
VERTEX
  8
0
 10
12.2683
 20
10.7614
  0
VERTEX
  8
0
 10
12.2683
 20
10.7614
  0
SEQEND
  0
POLYLINE
  8
0
 66
1
  0
VERTEX
  8
0
 10
12.27
 20
10.7369
  0
VERTEX
  8
0
 10
12.27
 20
10.7369
  0
SEQEND
  0
POLYLINE
  8
0
 66
1
  0
VERTEX
  8
0
 10
12.633
 20
8
  0
VERTEX
  8
0
 10
12.633
 20
8
  0
SEQEND
  0
POLYLINE
  8
0
 66
1
  0
VERTEX
  8
0
 10
12.6339
 20
7.96141
  0
VERTEX
  8
0
 10
12.6339
 20
7.96141
  0
SEQEND
  0
POLYLINE
  8
0
 66
1
  0
VERTEX
  8
0
 10
12.6368
 20
7.92332
  0
VERTEX
  8
0
 10
12.6368
 20
7.92332
  0
SEQEND
  0
POLYLINE
  8
0
 66
1
  0
VERTEX
  8
0
 10
12.6416
 20
7.88578
  0
VERTEX
  8
0
 10
12.6416
 20
7.88578
  0
SEQEND
  0
POLYLINE
  8
0
 66
1
  0
VERTEX
  8
0
 10
12.6482
 20
7.84885
  0
VERTEX
  8
0
 10
12.6482
 20
7.84885
  0
SEQEND
  0
POLYLINE
  8
0
 66
1
  0
VERTEX
  8
0
 10
12.6566
 20
7.81256
  0
VERTEX
  8
0
 10
12.6566
 20
7.81256
  0
SEQEND
  0
POLYLINE
  8
0
 66
1
  0
VERTEX
  8
0
 10
12.6667
 20
7.77697
  0
VERTEX
  8
0
 10
12.6667
 20
7.77697
  0
SEQEND
  0
POLYLINE
  8
0
 66
1
  0
VERTEX
  8
0
 10
12.6785
 20
7.74212
  0
VERTEX
  8
0
 10
12.6785
 20
7.74212
  0
SEQEND
  0
POLYLINE
  8
0
 66
1
  0
VERTEX
  8
0
 10
12.6919
 20
7.70807
  0
VERTEX
  8
0
 10
12.6919
 20
7.70807
  0
SEQEND
  0
POLYLINE
  8
0
 66
1
  0
VERTEX
  8
0
 10
12.7069
 20
7.67484
  0
VERTEX
  8
0
 10
12.7069
 20
7.67484
  0
SEQEND
  0
POLYLINE
  8
0
 66
1
  0
VERTEX
  8
0
 10
12.7235
 20
7.64251
  0
VERTEX
  8
0
 10
12.7235
 20
7.64251
  0
SEQEND
  0
POLYLINE
  8
0
 66
1
  0
VERTEX
  8
0
 10
12.7415
 20
7.6111
  0
VERTEX
  8
0
 10
12.7415
 20
7.6111
  0
SEQEND
  0
POLYLINE
  8
0
 66
1
  0
VERTEX
  8
0
 10
12.7611
 20
7.58067
  0
VERTEX
  8
0
 10
12.7611
 20
7.58067
  0
SEQEND
  0
POLYLINE
  8
0
 66
1
  0
VERTEX
  8
0
 10
12.782
 20
7.55126
  0
VERTEX
  8
0
 10
12.782
 20
7.55126
  0
SEQEND
  0
POLYLINE
  8
0
 66
1
  0
VERTEX
  8
0
 10
12.8042
 20
7.52293
  0
VERTEX
  8
0
 10
12.8042
 20
7.52293
  0
SEQEND
  0
POLYLINE
  8
0
 66
1
  0
VERTEX
  8
0
 10
12.8278
 20
7.49572
  0
VERTEX
  8
0
 10
12.8278
 20
7.49572
  0
SEQEND
  0
POLYLINE
  8
0
 66
1
  0
VERTEX
  8
0
 10
12.8526
 20
7.46967
  0
VERTEX
  8
0
 10
12.8526
 20
7.46967
  0
SEQEND
  0
POLYLINE
  8
0
 66
1
  0
VERTEX
  8
0
 10
12.8787
 20
7.44484
  0
VERTEX
  8
0
 10
12.8787
 20
7.44484
  0
SEQEND
  0
POLYLINE
  8
0
 66
1
  0
VERTEX
  8
0
 10
12.9059
 20
7.42126
  0
VERTEX
  8
0
 10
12.9059
 20
7.42126
  0
SEQEND
  0
POLYLINE
  8
0
 66
1
  0
VERTEX
  8
0
 10
12.9342
 20
7.399
  0
VERTEX
  8
0
 10
12.9342
 20
7.399
  0
SEQEND
  0
POLYLINE
  8
0
 66
1
  0
VERTEX
  8
0
 10
12.9636
 20
7.37809
  0
VERTEX
  8
0
 10
12.9636
 20
7.37809
  0
SEQEND
  0
POLYLINE
  8
0
 66
1
  0
VERTEX
  8
0
 10
12.9941
 20
7.35858
  0
VERTEX
  8
0
 10
12.9941
 20
7.35858
  0
SEQEND
  0
POLYLINE
  8
0
 66
1
  0
VERTEX
  8
0
 10
13.0255
 20
7.34052
  0
VERTEX
  8
0
 10
13.0255
 20
7.34052
  0
SEQEND
  0
POLYLINE
  8
0
 66
1
  0
VERTEX
  8
0
 10
13.0578
 20
7.32396
  0
VERTEX
  8
0
 10
13.0578
 20
7.32396
  0
SEQEND
  0
POLYLINE
  8
0
 66
1
  0
VERTEX
  8
0
 10
13.091
 20
7.30894
  0
VERTEX
  8
0
 10
13.091
 20
7.30894
  0
SEQEND
  0
POLYLINE
  8
0
 66
1
  0
VERTEX
  8
0
 10
13.1251
 20
7.29551
  0
VERTEX
  8
0
 10
13.1251
 20
7.29551
  0
SEQEND
  0
POLYLINE
  8
0
 66
1
  0
VERTEX
  8
0
 10
13.1599
 20
7.28372
  0
VERTEX
  8
0
 10
13.1599
 20
7.28372
  0
SEQEND
  0
POLYLINE
  8
0
 66
1
  0
VERTEX
  8
0
 10
13.1955
 20
7.27361
  0
VERTEX
  8
0
 10
13.1955
 20
7.27361
  0
SEQEND
  0
POLYLINE
  8
0
 66
1
  0
VERTEX
  8
0
 10
13.2318
 20
7.26524
  0
VERTEX
  8
0
 10
13.2318
 20
7.26524
  0
SEQEND
  0
POLYLINE
  8
0
 66
1
  0
VERTEX
  8
0
 10
13.2687
 20
7.25864
  0
VERTEX
  8
0
 10
13.2687
 20
7.25864
  0
SEQEND
  0
POLYLINE
  8
0
 66
1
  0
VERTEX
  8
0
 10
13.3063
 20
7.25387
  0
VERTEX
  8
0
 10
13.3063
 20
7.25387
  0
SEQEND
  0
POLYLINE
  8
0
 66
1
  0
VERTEX
  8
0
 10
13.3444
 20
7.25098
  0
VERTEX
  8
0
 10
13.3444
 20
7.25098
  0
SEQEND
  0
POLYLINE
  8
0
 66
1
  0
VERTEX
  8
0
 10
13.383
 20
7.25
  0
VERTEX
  8
0
 10
13.383
 20
7.25
  0
SEQEND
  0
POLYLINE
  8
0
 66
1
  0
VERTEX
  8
0
 10
13.4216
 20
7.25098
  0
VERTEX
  8
0
 10
13.4216
 20
7.25098
  0
SEQEND
  0
POLYLINE
  8
0
 66
1
  0
VERTEX
  8
0
 10
13.4596
 20
7.25387
  0
VERTEX
  8
0
 10
13.4596
 20
7.25387
  0
SEQEND
  0
POLYLINE
  8
0
 66
1
  0
VERTEX
  8
0
 10
13.4972
 20
7.25864
  0
VERTEX
  8
0
 10
13.4972
 20
7.25864
  0
SEQEND
  0
POLYLINE
  8
0
 66
1
  0
VERTEX
  8
0
 10
13.5341
 20
7.26524
  0
VERTEX
  8
0
 10
13.5341
 20
7.26524
  0
SEQEND
  0
POLYLINE
  8
0
 66
1
  0
VERTEX
  8
0
 10
13.5704
 20
7.27361
  0
VERTEX
  8
0
 10
13.5704
 20
7.27361
  0
SEQEND
  0
POLYLINE
  8
0
 66
1
  0
VERTEX
  8
0
 10
13.606
 20
7.28372
  0
VERTEX
  8
0
 10
13.606
 20
7.28372
  0
SEQEND
  0
POLYLINE
  8
0
 66
1
  0
VERTEX
  8
0
 10
13.6408
 20
7.29551
  0
VERTEX
  8
0
 10
13.6408
 20
7.29551
  0
SEQEND
  0
POLYLINE
  8
0
 66
1
  0
VERTEX
  8
0
 10
13.6749
 20
7.30894
  0
VERTEX
  8
0
 10
13.6749
 20
7.30894
  0
SEQEND
  0
POLYLINE
  8
0
 66
1
  0
VERTEX
  8
0
 10
13.7081
 20
7.32396
  0
VERTEX
  8
0
 10
13.7081
 20
7.32396
  0
SEQEND
  0
POLYLINE
  8
0
 66
1
  0
VERTEX
  8
0
 10
13.7405
 20
7.34052
  0
VERTEX
  8
0
 10
13.7405
 20
7.34052
  0
SEQEND
  0
POLYLINE
  8
0
 66
1
  0
VERTEX
  8
0
 10
13.7719
 20
7.35858
  0
VERTEX
  8
0
 10
13.7719
 20
7.35858
  0
SEQEND
  0
POLYLINE
  8
0
 66
1
  0
VERTEX
  8
0
 10
13.8023
 20
7.37809
  0
VERTEX
  8
0
 10
13.8023
 20
7.37809
  0
SEQEND
  0
POLYLINE
  8
0
 66
1
  0
VERTEX
  8
0
 10
13.8317
 20
7.399
  0
VERTEX
  8
0
 10
13.8317
 20
7.399
  0
SEQEND
  0
POLYLINE
  8
0
 66
1
  0
VERTEX
  8
0
 10
13.86
 20
7.42126
  0
VERTEX
  8
0
 10
13.86
 20
7.42126
  0
SEQEND
  0
POLYLINE
  8
0
 66
1
  0
VERTEX
  8
0
 10
13.8872
 20
7.44484
  0
VERTEX
  8
0
 10
13.8872
 20
7.44484
  0
SEQEND
  0
POLYLINE
  8
0
 66
1
  0
VERTEX
  8
0
 10
13.9133
 20
7.46967
  0
VERTEX
  8
0
 10
13.9133
 20
7.46967
  0
SEQEND
  0
POLYLINE
  8
0
 66
1
  0
VERTEX
  8
0
 10
13.9381
 20
7.49572
  0
VERTEX
  8
0
 10
13.9381
 20
7.49572
  0
SEQEND
  0
POLYLINE
  8
0
 66
1
  0
VERTEX
  8
0
 10
13.9617
 20
7.52293
  0
VERTEX
  8
0
 10
13.9617
 20
7.52293
  0
SEQEND
  0
POLYLINE
  8
0
 66
1
  0
VERTEX
  8
0
 10
13.984
 20
7.55126
  0
VERTEX
  8
0
 10
13.984
 20
7.55126
  0
SEQEND
  0
POLYLINE
  8
0
 66
1
  0
VERTEX
  8
0
 10
14.0049
 20
7.58067
  0
VERTEX
  8
0
 10
14.0049
 20
7.58067
  0
SEQEND
  0
POLYLINE
  8
0
 66
1
  0
VERTEX
  8
0
 10
14.0244
 20
7.6111
  0
VERTEX
  8
0
 10
14.0244
 20
7.6111
  0
SEQEND
  0
POLYLINE
  8
0
 66
1
  0
VERTEX
  8
0
 10
14.0424
 20
7.64251
  0
VERTEX
  8
0
 10
14.0424
 20
7.64251
  0
SEQEND
  0
POLYLINE
  8
0
 66
1
  0
VERTEX
  8
0
 10
14.059
 20
7.67484
  0
VERTEX
  8
0
 10
14.059
 20
7.67484
  0
SEQEND
  0
POLYLINE
  8
0
 66
1
  0
VERTEX
  8
0
 10
14.074
 20
7.70807
  0
VERTEX
  8
0
 10
14.074
 20
7.70807
  0
SEQEND
  0
POLYLINE
  8
0
 66
1
  0
VERTEX
  8
0
 10
14.0875
 20
7.74212
  0
VERTEX
  8
0
 10
14.0875
 20
7.74212
  0
SEQEND
  0
POLYLINE
  8
0
 66
1
  0
VERTEX
  8
0
 10
14.0992
 20
7.77697
  0
VERTEX
  8
0
 10
14.0992
 20
7.77697
  0
SEQEND
  0
POLYLINE
  8
0
 66
1
  0
VERTEX
  8
0
 10
14.1094
 20
7.81256
  0
VERTEX
  8
0
 10
14.1094
 20
7.81256
  0
SEQEND
  0
POLYLINE
  8
0
 66
1
  0
VERTEX
  8
0
 10
14.1177
 20
7.84885
  0
VERTEX
  8
0
 10
14.1177
 20
7.84885
  0
SEQEND
  0
POLYLINE
  8
0
 66
1
  0
VERTEX
  8
0
 10
14.1243
 20
7.88578
  0
VERTEX
  8
0
 10
14.1243
 20
7.88578
  0
SEQEND
  0
POLYLINE
  8
0
 66
1
  0
VERTEX
  8
0
 10
14.1291
 20
7.92332
  0
VERTEX
  8
0
 10
14.1291
 20
7.92332
  0
SEQEND
  0
POLYLINE
  8
0
 66
1
  0
VERTEX
  8
0
 10
14.132
 20
7.96141
  0
VERTEX
  8
0
 10
14.132
 20
7.96141
  0
SEQEND
  0
POLYLINE
  8
0
 66
1
  0
VERTEX
  8
0
 10
14.1361
 20
8
  0
VERTEX
  8
0
 10
14.1361
 20
8
  0
SEQEND
  0
POLYLINE
  8
0
 66
1
  0
VERTEX
  8
0
 10
14.1353
 20
8.10092
  0
VERTEX
  8
0
 10
14.1353
 20
8.10092
  0
SEQEND
  0
POLYLINE
  8
0
 66
1
  0
VERTEX
  8
0
 10
14.1328
 20
8.20171
  0
VERTEX
  8
0
 10
14.1328
 20
8.20171
  0
SEQEND
  0
POLYLINE
  8
0
 66
1
  0
VERTEX
  8
0
 10
14.1287
 20
8.30235
  0
VERTEX
  8
0
 10
14.1287
 20
8.30235
  0
SEQEND
  0
POLYLINE
  8
0
 66
1
  0
VERTEX
  8
0
 10
14.1229
 20
8.40282
  0
VERTEX
  8
0
 10
14.1229
 20
8.40282
  0
SEQEND
  0
POLYLINE
  8
0
 66
1
  0
VERTEX
  8
0
 10
14.1155
 20
8.5031
  0
VERTEX
  8
0
 10
14.1155
 20
8.5031
  0
SEQEND
  0
POLYLINE
  8
0
 66
1
  0
VERTEX
  8
0
 10
14.1064
 20
8.60318
  0
VERTEX
  8
0
 10
14.1064
 20
8.60318
  0
SEQEND
  0
POLYLINE
  8
0
 66
1
  0
VERTEX
  8
0
 10
14.0957
 20
8.70302
  0
VERTEX
  8
0
 10
14.0957
 20
8.70302
  0
SEQEND
  0
POLYLINE
  8
0
 66
1
  0
VERTEX
  8
0
 10
14.0834
 20
8.80262
  0
VERTEX
  8
0
 10
14.0834
 20
8.80262
  0
SEQEND
  0
POLYLINE
  8
0
 66
1
  0
VERTEX
  8
0
 10
14.0695
 20
8.90195
  0
VERTEX
  8
0
 10
14.0695
 20
8.90195
  0
SEQEND
  0
POLYLINE
  8
0
 66
1
  0
VERTEX
  8
0
 10
14.054
 20
9.00099
  0
VERTEX
  8
0
 10
14.054
 20
9.00099
  0
SEQEND
  0
POLYLINE
  8
0
 66
1
  0
VERTEX
  8
0
 10
14.0368
 20
9.09973
  0
VERTEX
  8
0
 10
14.0368
 20
9.09973
  0
SEQEND
  0
POLYLINE
  8
0
 66
1
  0
VERTEX
  8
0
 10
14.018
 20
9.19814
  0
VERTEX
  8
0
 10
14.018
 20
9.19814
  0
SEQEND
  0
POLYLINE
  8
0
 66
1
  0
VERTEX
  8
0
 10
13.9977
 20
9.29621
  0
VERTEX
  8
0
 10
13.9977
 20
9.29621
  0
SEQEND
  0
POLYLINE
  8
0
 66
1
  0
VERTEX
  8
0
 10
13.9757
 20
9.39391
  0
VERTEX
  8
0
 10
13.9757
 20
9.39391
  0
SEQEND
  0
POLYLINE
  8
0
 66
1
  0
VERTEX
  8
0
 10
1.90154
 20
11.3804
  0
VERTEX
  8
0
 10
1.91344
 20
11.3774
  0
VERTEX
  8
0
 10
1.92557
 20
11.3756
  0
VERTEX
  8
0
 10
1.93782
 20
11.375
  0
VERTEX
  8
0
 10
1.95007
 20
11.3756
  0
VERTEX
  8
0
 10
1.96221
 20
11.3774
  0
VERTEX
  8
0
 10
1.97411
 20
11.3804
  0
VERTEX
  8
0
 10
1.98566
 20
11.3845
  0
VERTEX
  8
0
 10
1.99675
 20
11.3898
  0
VERTEX
  8
0
 10
2.00727
 20
11.3961
  0
VERTEX
  8
0
 10
2.01712
 20
11.4034
  0
VERTEX
  8
0
 10
2.02621
 20
11.4116
  0
VERTEX
  8
0
 10
2.03445
 20
11.4207
  0
VERTEX
  8
0
 10
2.04176
 20
11.4306
  0
VERTEX
  8
0
 10
2.04806
 20
11.4411
  0
VERTEX
  8
0
 10
2.05331
 20
11.4522
  0
VERTEX
  8
0
 10
2.05744
 20
11.4637
  0
VERTEX
  8
0
 10
2.06042
 20
11.4756
  0
VERTEX
  8
0
 10
2.06222
 20
11.4877
  0
VERTEX
  8
0
 10
2.06282
 20
11.5
  0
VERTEX
  8
0
 10
2.06222
 20
11.5123
  0
VERTEX
  8
0
 10
2.06042
 20
11.5244
  0
VERTEX
  8
0
 10
2.05744
 20
11.5363
  0
VERTEX
  8
0
 10
2.05331
 20
11.5478
  0
VERTEX
  8
0
 10
2.04806
 20
11.5589
  0
VERTEX
  8
0
 10
2.04176
 20
11.5694
  0
VERTEX
  8
0
 10
2.03445
 20
11.5793
  0
VERTEX
  8
0
 10
2.02621
 20
11.5884
  0
VERTEX
  8
0
 10
2.01712
 20
11.5966
  0
VERTEX
  8
0
 10
2.00727
 20
11.6039
  0
VERTEX
  8
0
 10
1.99675
 20
11.6102
  0
VERTEX
  8
0
 10
1.98566
 20
11.6155
  0
VERTEX
  8
0
 10
1.97411
 20
11.6196
  0
VERTEX
  8
0
 10
1.96221
 20
11.6226
  0
VERTEX
  8
0
 10
1.95007
 20
11.6244
  0
VERTEX
  8
0
 10
1.93782
 20
11.625
  0
VERTEX
  8
0
 10
1.92557
 20
11.6244
  0
VERTEX
  8
0
 10
1.91344
 20
11.6226
  0
VERTEX
  8
0
 10
1.90154
 20
11.6196
  0
VERTEX
  8
0
 10
1.88999
 20
11.6155
  0
VERTEX
  8
0
 10
1.8789
 20
11.6102
  0
VERTEX
  8
0
 10
1.86838
 20
11.6039
  0
VERTEX
  8
0
 10
1.85852
 20
11.5966
  0
VERTEX
  8
0
 10
1.84943
 20
11.5884
  0
VERTEX
  8
0
 10
1.8412
 20
11.5793
  0
VERTEX
  8
0
 10
1.83389
 20
11.5694
  0
VERTEX
  8
0
 10
1.82758
 20
11.5589
  0
VERTEX
  8
0
 10
1.82234
 20
11.5478
  0
VERTEX
  8
0
 10
1.8182
 20
11.5363
  0
VERTEX
  8
0
 10
1.81522
 20
11.5244
  0
VERTEX
  8
0
 10
1.81342
 20
11.5123
  0
VERTEX
  8
0
 10
1.81282
 20
11.5
  0
VERTEX
  8
0
 10
1.81342
 20
11.4877
  0
VERTEX
  8
0
 10
1.81522
 20
11.4756
  0
VERTEX
  8
0
 10
1.8182
 20
11.4637
  0
VERTEX
  8
0
 10
1.82234
 20
11.4522
  0
VERTEX
  8
0
 10
1.82758
 20
11.4411
  0
VERTEX
  8
0
 10
1.83389
 20
11.4306
  0
VERTEX
  8
0
 10
1.8412
 20
11.4207
  0
VERTEX
  8
0
 10
1.84943
 20
11.4116
  0
VERTEX
  8
0
 10
1.85852
 20
11.4034
  0
VERTEX
  8
0
 10
1.86838
 20
11.3961
  0
VERTEX
  8
0
 10
1.8789
 20
11.3898
  0
VERTEX
  8
0
 10
1.88999
 20
11.3845
  0
VERTEX
  8
0
 10
1.88999
 20
11.3845
  0
SEQEND
  0
POLYLINE
  8
0
 66
1
  0
VERTEX
  8
0
 10
1.90154
 20
11.3804
  0
VERTEX
  8
0
 10
1.88999
 20
11.3845
  0
SEQEND
  0
POLYLINE
  8
0
 66
1
  0
VERTEX
  8
0
 10
1.90154
 20
11.3804
  0
VERTEX
  8
0
 10
1.90154
 20
11.3804
  0
SEQEND
  0
POLYLINE
  8
0
 66
1
  0
VERTEX
  8
0
 10
1.91344
 20
11.3774
  0
VERTEX
  8
0
 10
1.91344
 20
11.3774
  0
SEQEND
  0
POLYLINE
  8
0
 66
1
  0
VERTEX
  8
0
 10
1.92557
 20
11.3756
  0
VERTEX
  8
0
 10
1.92557
 20
11.3756
  0
SEQEND
  0
POLYLINE
  8
0
 66
1
  0
VERTEX
  8
0
 10
1.93782
 20
11.375
  0
VERTEX
  8
0
 10
1.93782
 20
11.375
  0
SEQEND
  0
POLYLINE
  8
0
 66
1
  0
VERTEX
  8
0
 10
1.95007
 20
11.3756
  0
VERTEX
  8
0
 10
1.95007
 20
11.3756
  0
SEQEND
  0
POLYLINE
  8
0
 66
1
  0
VERTEX
  8
0
 10
1.96221
 20
11.3774
  0
VERTEX
  8
0
 10
1.96221
 20
11.3774
  0
SEQEND
  0
POLYLINE
  8
0
 66
1
  0
VERTEX
  8
0
 10
1.97411
 20
11.3804
  0
VERTEX
  8
0
 10
1.97411
 20
11.3804
  0
SEQEND
  0
POLYLINE
  8
0
 66
1
  0
VERTEX
  8
0
 10
1.98566
 20
11.3845
  0
VERTEX
  8
0
 10
1.98566
 20
11.3845
  0
SEQEND
  0
POLYLINE
  8
0
 66
1
  0
VERTEX
  8
0
 10
1.99675
 20
11.3898
  0
VERTEX
  8
0
 10
1.99675
 20
11.3898
  0
SEQEND
  0
POLYLINE
  8
0
 66
1
  0
VERTEX
  8
0
 10
2.00727
 20
11.3961
  0
VERTEX
  8
0
 10
2.00727
 20
11.3961
  0
SEQEND
  0
POLYLINE
  8
0
 66
1
  0
VERTEX
  8
0
 10
2.01712
 20
11.4034
  0
VERTEX
  8
0
 10
2.01712
 20
11.4034
  0
SEQEND
  0
POLYLINE
  8
0
 66
1
  0
VERTEX
  8
0
 10
2.02621
 20
11.4116
  0
VERTEX
  8
0
 10
2.02621
 20
11.4116
  0
SEQEND
  0
POLYLINE
  8
0
 66
1
  0
VERTEX
  8
0
 10
2.03445
 20
11.4207
  0
VERTEX
  8
0
 10
2.03445
 20
11.4207
  0
SEQEND
  0
POLYLINE
  8
0
 66
1
  0
VERTEX
  8
0
 10
2.04176
 20
11.4306
  0
VERTEX
  8
0
 10
2.04176
 20
11.4306
  0
SEQEND
  0
POLYLINE
  8
0
 66
1
  0
VERTEX
  8
0
 10
2.04806
 20
11.4411
  0
VERTEX
  8
0
 10
2.04806
 20
11.4411
  0
SEQEND
  0
POLYLINE
  8
0
 66
1
  0
VERTEX
  8
0
 10
2.05331
 20
11.4522
  0
VERTEX
  8
0
 10
2.05331
 20
11.4522
  0
SEQEND
  0
POLYLINE
  8
0
 66
1
  0
VERTEX
  8
0
 10
2.05744
 20
11.4637
  0
VERTEX
  8
0
 10
2.05744
 20
11.4637
  0
SEQEND
  0
POLYLINE
  8
0
 66
1
  0
VERTEX
  8
0
 10
2.06042
 20
11.4756
  0
VERTEX
  8
0
 10
2.06042
 20
11.4756
  0
SEQEND
  0
POLYLINE
  8
0
 66
1
  0
VERTEX
  8
0
 10
2.06222
 20
11.4877
  0
VERTEX
  8
0
 10
2.06222
 20
11.4877
  0
SEQEND
  0
POLYLINE
  8
0
 66
1
  0
VERTEX
  8
0
 10
2.06282
 20
11.5
  0
VERTEX
  8
0
 10
2.06282
 20
11.5
  0
SEQEND
  0
POLYLINE
  8
0
 66
1
  0
VERTEX
  8
0
 10
2.06222
 20
11.5123
  0
VERTEX
  8
0
 10
2.06222
 20
11.5123
  0
SEQEND
  0
POLYLINE
  8
0
 66
1
  0
VERTEX
  8
0
 10
2.06042
 20
11.5244
  0
VERTEX
  8
0
 10
2.06042
 20
11.5244
  0
SEQEND
  0
POLYLINE
  8
0
 66
1
  0
VERTEX
  8
0
 10
2.05744
 20
11.5363
  0
VERTEX
  8
0
 10
2.05744
 20
11.5363
  0
SEQEND
  0
POLYLINE
  8
0
 66
1
  0
VERTEX
  8
0
 10
2.05331
 20
11.5478
  0
VERTEX
  8
0
 10
2.05331
 20
11.5478
  0
SEQEND
  0
POLYLINE
  8
0
 66
1
  0
VERTEX
  8
0
 10
2.04806
 20
11.5589
  0
VERTEX
  8
0
 10
2.04806
 20
11.5589
  0
SEQEND
  0
POLYLINE
  8
0
 66
1
  0
VERTEX
  8
0
 10
2.04176
 20
11.5694
  0
VERTEX
  8
0
 10
2.04176
 20
11.5694
  0
SEQEND
  0
POLYLINE
  8
0
 66
1
  0
VERTEX
  8
0
 10
2.03445
 20
11.5793
  0
VERTEX
  8
0
 10
2.03445
 20
11.5793
  0
SEQEND
  0
POLYLINE
  8
0
 66
1
  0
VERTEX
  8
0
 10
2.02621
 20
11.5884
  0
VERTEX
  8
0
 10
2.02621
 20
11.5884
  0
SEQEND
  0
POLYLINE
  8
0
 66
1
  0
VERTEX
  8
0
 10
2.01712
 20
11.5966
  0
VERTEX
  8
0
 10
2.01712
 20
11.5966
  0
SEQEND
  0
POLYLINE
  8
0
 66
1
  0
VERTEX
  8
0
 10
2.00727
 20
11.6039
  0
VERTEX
  8
0
 10
2.00727
 20
11.6039
  0
SEQEND
  0
POLYLINE
  8
0
 66
1
  0
VERTEX
  8
0
 10
1.99675
 20
11.6102
  0
VERTEX
  8
0
 10
1.99675
 20
11.6102
  0
SEQEND
  0
POLYLINE
  8
0
 66
1
  0
VERTEX
  8
0
 10
1.98566
 20
11.6155
  0
VERTEX
  8
0
 10
1.98566
 20
11.6155
  0
SEQEND
  0
POLYLINE
  8
0
 66
1
  0
VERTEX
  8
0
 10
1.97411
 20
11.6196
  0
VERTEX
  8
0
 10
1.97411
 20
11.6196
  0
SEQEND
  0
POLYLINE
  8
0
 66
1
  0
VERTEX
  8
0
 10
1.96221
 20
11.6226
  0
VERTEX
  8
0
 10
1.96221
 20
11.6226
  0
SEQEND
  0
POLYLINE
  8
0
 66
1
  0
VERTEX
  8
0
 10
1.95007
 20
11.6244
  0
VERTEX
  8
0
 10
1.95007
 20
11.6244
  0
SEQEND
  0
POLYLINE
  8
0
 66
1
  0
VERTEX
  8
0
 10
1.93782
 20
11.625
  0
VERTEX
  8
0
 10
1.93782
 20
11.625
  0
SEQEND
  0
POLYLINE
  8
0
 66
1
  0
VERTEX
  8
0
 10
1.92557
 20
11.6244
  0
VERTEX
  8
0
 10
1.92557
 20
11.6244
  0
SEQEND
  0
POLYLINE
  8
0
 66
1
  0
VERTEX
  8
0
 10
1.91344
 20
11.6226
  0
VERTEX
  8
0
 10
1.91344
 20
11.6226
  0
SEQEND
  0
POLYLINE
  8
0
 66
1
  0
VERTEX
  8
0
 10
1.90154
 20
11.6196
  0
VERTEX
  8
0
 10
1.90154
 20
11.6196
  0
SEQEND
  0
POLYLINE
  8
0
 66
1
  0
VERTEX
  8
0
 10
1.88999
 20
11.6155
  0
VERTEX
  8
0
 10
1.88999
 20
11.6155
  0
SEQEND
  0
POLYLINE
  8
0
 66
1
  0
VERTEX
  8
0
 10
1.8789
 20
11.6102
  0
VERTEX
  8
0
 10
1.8789
 20
11.6102
  0
SEQEND
  0
POLYLINE
  8
0
 66
1
  0
VERTEX
  8
0
 10
1.86838
 20
11.6039
  0
VERTEX
  8
0
 10
1.86838
 20
11.6039
  0
SEQEND
  0
POLYLINE
  8
0
 66
1
  0
VERTEX
  8
0
 10
1.85852
 20
11.5966
  0
VERTEX
  8
0
 10
1.85852
 20
11.5966
  0
SEQEND
  0
POLYLINE
  8
0
 66
1
  0
VERTEX
  8
0
 10
1.84943
 20
11.5884
  0
VERTEX
  8
0
 10
1.84943
 20
11.5884
  0
SEQEND
  0
POLYLINE
  8
0
 66
1
  0
VERTEX
  8
0
 10
1.8412
 20
11.5793
  0
VERTEX
  8
0
 10
1.8412
 20
11.5793
  0
SEQEND
  0
POLYLINE
  8
0
 66
1
  0
VERTEX
  8
0
 10
1.83389
 20
11.5694
  0
VERTEX
  8
0
 10
1.83389
 20
11.5694
  0
SEQEND
  0
POLYLINE
  8
0
 66
1
  0
VERTEX
  8
0
 10
1.82758
 20
11.5589
  0
VERTEX
  8
0
 10
1.82758
 20
11.5589
  0
SEQEND
  0
POLYLINE
  8
0
 66
1
  0
VERTEX
  8
0
 10
1.82234
 20
11.5478
  0
VERTEX
  8
0
 10
1.82234
 20
11.5478
  0
SEQEND
  0
POLYLINE
  8
0
 66
1
  0
VERTEX
  8
0
 10
1.8182
 20
11.5363
  0
VERTEX
  8
0
 10
1.8182
 20
11.5363
  0
SEQEND
  0
POLYLINE
  8
0
 66
1
  0
VERTEX
  8
0
 10
1.81522
 20
11.5244
  0
VERTEX
  8
0
 10
1.81522
 20
11.5244
  0
SEQEND
  0
POLYLINE
  8
0
 66
1
  0
VERTEX
  8
0
 10
1.81342
 20
11.5123
  0
VERTEX
  8
0
 10
1.81342
 20
11.5123
  0
SEQEND
  0
POLYLINE
  8
0
 66
1
  0
VERTEX
  8
0
 10
1.81282
 20
11.5
  0
VERTEX
  8
0
 10
1.81282
 20
11.5
  0
SEQEND
  0
POLYLINE
  8
0
 66
1
  0
VERTEX
  8
0
 10
1.81342
 20
11.4877
  0
VERTEX
  8
0
 10
1.81342
 20
11.4877
  0
SEQEND
  0
POLYLINE
  8
0
 66
1
  0
VERTEX
  8
0
 10
1.81522
 20
11.4756
  0
VERTEX
  8
0
 10
1.81522
 20
11.4756
  0
SEQEND
  0
POLYLINE
  8
0
 66
1
  0
VERTEX
  8
0
 10
1.8182
 20
11.4637
  0
VERTEX
  8
0
 10
1.8182
 20
11.4637
  0
SEQEND
  0
POLYLINE
  8
0
 66
1
  0
VERTEX
  8
0
 10
1.82234
 20
11.4522
  0
VERTEX
  8
0
 10
1.82234
 20
11.4522
  0
SEQEND
  0
POLYLINE
  8
0
 66
1
  0
VERTEX
  8
0
 10
1.82758
 20
11.4411
  0
VERTEX
  8
0
 10
1.82758
 20
11.4411
  0
SEQEND
  0
POLYLINE
  8
0
 66
1
  0
VERTEX
  8
0
 10
1.83389
 20
11.4306
  0
VERTEX
  8
0
 10
1.83389
 20
11.4306
  0
SEQEND
  0
POLYLINE
  8
0
 66
1
  0
VERTEX
  8
0
 10
1.8412
 20
11.4207
  0
VERTEX
  8
0
 10
1.8412
 20
11.4207
  0
SEQEND
  0
POLYLINE
  8
0
 66
1
  0
VERTEX
  8
0
 10
1.84943
 20
11.4116
  0
VERTEX
  8
0
 10
1.84943
 20
11.4116
  0
SEQEND
  0
POLYLINE
  8
0
 66
1
  0
VERTEX
  8
0
 10
1.85852
 20
11.4034
  0
VERTEX
  8
0
 10
1.85852
 20
11.4034
  0
SEQEND
  0
POLYLINE
  8
0
 66
1
  0
VERTEX
  8
0
 10
1.86838
 20
11.3961
  0
VERTEX
  8
0
 10
1.86838
 20
11.3961
  0
SEQEND
  0
POLYLINE
  8
0
 66
1
  0
VERTEX
  8
0
 10
1.8789
 20
11.3898
  0
VERTEX
  8
0
 10
1.8789
 20
11.3898
  0
SEQEND
  0
POLYLINE
  8
0
 66
1
  0
VERTEX
  8
0
 10
1.04784
 20
7.88452
  0
VERTEX
  8
0
 10
1.05892
 20
7.88976
  0
VERTEX
  8
0
 10
1.06945
 20
7.89607
  0
VERTEX
  8
0
 10
1.0793
 20
7.90337
  0
VERTEX
  8
0
 10
1.08839
 20
7.91161
  0
VERTEX
  8
0
 10
1.09663
 20
7.9207
  0
VERTEX
  8
0
 10
1.10393
 20
7.93055
  0
VERTEX
  8
0
 10
1.11024
 20
7.94108
  0
VERTEX
  8
0
 10
1.11548
 20
7.95216
  0
VERTEX
  8
0
 10
1.11962
 20
7.96371
  0
VERTEX
  8
0
 10
1.1226
 20
7.97561
  0
VERTEX
  8
0
 10
1.1244
 20
7.98775
  0
VERTEX
  8
0
 10
1.125
 20
8
  0
VERTEX
  8
0
 10
1.1244
 20
8.01225
  0
VERTEX
  8
0
 10
1.1226
 20
8.02439
  0
VERTEX
  8
0
 10
1.11962
 20
8.03629
  0
VERTEX
  8
0
 10
1.11548
 20
8.04784
  0
VERTEX
  8
0
 10
1.11024
 20
8.05892
  0
VERTEX
  8
0
 10
1.10393
 20
8.06945
  0
VERTEX
  8
0
 10
1.09663
 20
8.0793
  0
VERTEX
  8
0
 10
1.08839
 20
8.08839
  0
VERTEX
  8
0
 10
1.0793
 20
8.09663
  0
VERTEX
  8
0
 10
1.06945
 20
8.10393
  0
VERTEX
  8
0
 10
1.05892
 20
8.11024
  0
VERTEX
  8
0
 10
1.04784
 20
8.11548
  0
VERTEX
  8
0
 10
1.03629
 20
8.11962
  0
VERTEX
  8
0
 10
1.02439
 20
8.1226
  0
VERTEX
  8
0
 10
1.01225
 20
8.1244
  0
VERTEX
  8
0
 10
1
 20
8.125
  0
VERTEX
  8
0
 10
0.987748
 20
8.1244
  0
VERTEX
  8
0
 10
0.975614
 20
8.1226
  0
VERTEX
  8
0
 10
0.963714
 20
8.11962
  0
VERTEX
  8
0
 10
0.952165
 20
8.11548
  0
VERTEX
  8
0
 10
0.941075
 20
8.11024
  0
VERTEX
  8
0
 10
0.930554
 20
8.10393
  0
VERTEX
  8
0
 10
0.920701
 20
8.09663
  0
VERTEX
  8
0
 10
0.911612
 20
8.08839
  0
VERTEX
  8
0
 10
0.903374
 20
8.0793
  0
VERTEX
  8
0
 10
0.896066
 20
8.06945
  0
VERTEX
  8
0
 10
0.88976
 20
8.05892
  0
VERTEX
  8
0
 10
0.884515
 20
8.04784
  0
VERTEX
  8
0
 10
0.880382
 20
8.03629
  0
VERTEX
  8
0
 10
0.877402
 20
8.02439
  0
VERTEX
  8
0
 10
0.875602
 20
8.01225
  0
VERTEX
  8
0
 10
0.875
 20
8
  0
VERTEX
  8
0
 10
0.875602
 20
7.98775
  0
VERTEX
  8
0
 10
0.877402
 20
7.97561
  0
VERTEX
  8
0
 10
0.880382
 20
7.96371
  0
VERTEX
  8
0
 10
0.884515
 20
7.95216
  0
VERTEX
  8
0
 10
0.88976
 20
7.94108
  0
VERTEX
  8
0
 10
0.896066
 20
7.93055
  0
VERTEX
  8
0
 10
0.903374
 20
7.9207
  0
VERTEX
  8
0
 10
0.911612
 20
7.91161
  0
VERTEX
  8
0
 10
0.920701
 20
7.90337
  0
VERTEX
  8
0
 10
0.930554
 20
7.89607
  0
VERTEX
  8
0
 10
0.941075
 20
7.88976
  0
VERTEX
  8
0
 10
0.952165
 20
7.88452
  0
VERTEX
  8
0
 10
0.963714
 20
7.88038
  0
VERTEX
  8
0
 10
0.975614
 20
7.8774
  0
VERTEX
  8
0
 10
0.987748
 20
7.8756
  0
VERTEX
  8
0
 10
1
 20
7.875
  0
VERTEX
  8
0
 10
1.01225
 20
7.8756
  0
VERTEX
  8
0
 10
1.02439
 20
7.8774
  0
VERTEX
  8
0
 10
1.03629
 20
7.88038
  0
VERTEX
  8
0
 10
1.03629
 20
7.88038
  0
SEQEND
  0
POLYLINE
  8
0
 66
1
  0
VERTEX
  8
0
 10
1.04784
 20
7.88452
  0
VERTEX
  8
0
 10
1.03629
 20
7.88038
  0
SEQEND
  0
POLYLINE
  8
0
 66
1
  0
VERTEX
  8
0
 10
1.04784
 20
7.88452
  0
VERTEX
  8
0
 10
1.04784
 20
7.88452
  0
SEQEND
  0
POLYLINE
  8
0
 66
1
  0
VERTEX
  8
0
 10
1.05892
 20
7.88976
  0
VERTEX
  8
0
 10
1.05892
 20
7.88976
  0
SEQEND
  0
POLYLINE
  8
0
 66
1
  0
VERTEX
  8
0
 10
1.06945
 20
7.89607
  0
VERTEX
  8
0
 10
1.06945
 20
7.89607
  0
SEQEND
  0
POLYLINE
  8
0
 66
1
  0
VERTEX
  8
0
 10
1.0793
 20
7.90337
  0
VERTEX
  8
0
 10
1.0793
 20
7.90337
  0
SEQEND
  0
POLYLINE
  8
0
 66
1
  0
VERTEX
  8
0
 10
1.08839
 20
7.91161
  0
VERTEX
  8
0
 10
1.08839
 20
7.91161
  0
SEQEND
  0
POLYLINE
  8
0
 66
1
  0
VERTEX
  8
0
 10
1.09663
 20
7.9207
  0
VERTEX
  8
0
 10
1.09663
 20
7.9207
  0
SEQEND
  0
POLYLINE
  8
0
 66
1
  0
VERTEX
  8
0
 10
1.10393
 20
7.93055
  0
VERTEX
  8
0
 10
1.10393
 20
7.93055
  0
SEQEND
  0
POLYLINE
  8
0
 66
1
  0
VERTEX
  8
0
 10
1.11024
 20
7.94108
  0
VERTEX
  8
0
 10
1.11024
 20
7.94108
  0
SEQEND
  0
POLYLINE
  8
0
 66
1
  0
VERTEX
  8
0
 10
1.11548
 20
7.95216
  0
VERTEX
  8
0
 10
1.11548
 20
7.95216
  0
SEQEND
  0
POLYLINE
  8
0
 66
1
  0
VERTEX
  8
0
 10
1.11962
 20
7.96371
  0
VERTEX
  8
0
 10
1.11962
 20
7.96371
  0
SEQEND
  0
POLYLINE
  8
0
 66
1
  0
VERTEX
  8
0
 10
1.1226
 20
7.97561
  0
VERTEX
  8
0
 10
1.1226
 20
7.97561
  0
SEQEND
  0
POLYLINE
  8
0
 66
1
  0
VERTEX
  8
0
 10
1.1244
 20
7.98775
  0
VERTEX
  8
0
 10
1.1244
 20
7.98775
  0
SEQEND
  0
POLYLINE
  8
0
 66
1
  0
VERTEX
  8
0
 10
1.125
 20
8
  0
VERTEX
  8
0
 10
1.125
 20
8
  0
SEQEND
  0
POLYLINE
  8
0
 66
1
  0
VERTEX
  8
0
 10
1.1244
 20
8.01225
  0
VERTEX
  8
0
 10
1.1244
 20
8.01225
  0
SEQEND
  0
POLYLINE
  8
0
 66
1
  0
VERTEX
  8
0
 10
1.1226
 20
8.02439
  0
VERTEX
  8
0
 10
1.1226
 20
8.02439
  0
SEQEND
  0
POLYLINE
  8
0
 66
1
  0
VERTEX
  8
0
 10
1.11962
 20
8.03629
  0
VERTEX
  8
0
 10
1.11962
 20
8.03629
  0
SEQEND
  0
POLYLINE
  8
0
 66
1
  0
VERTEX
  8
0
 10
1.11548
 20
8.04784
  0
VERTEX
  8
0
 10
1.11548
 20
8.04784
  0
SEQEND
  0
POLYLINE
  8
0
 66
1
  0
VERTEX
  8
0
 10
1.11024
 20
8.05892
  0
VERTEX
  8
0
 10
1.11024
 20
8.05892
  0
SEQEND
  0
POLYLINE
  8
0
 66
1
  0
VERTEX
  8
0
 10
1.10393
 20
8.06945
  0
VERTEX
  8
0
 10
1.10393
 20
8.06945
  0
SEQEND
  0
POLYLINE
  8
0
 66
1
  0
VERTEX
  8
0
 10
1.09663
 20
8.0793
  0
VERTEX
  8
0
 10
1.09663
 20
8.0793
  0
SEQEND
  0
POLYLINE
  8
0
 66
1
  0
VERTEX
  8
0
 10
1.08839
 20
8.08839
  0
VERTEX
  8
0
 10
1.08839
 20
8.08839
  0
SEQEND
  0
POLYLINE
  8
0
 66
1
  0
VERTEX
  8
0
 10
1.0793
 20
8.09663
  0
VERTEX
  8
0
 10
1.0793
 20
8.09663
  0
SEQEND
  0
POLYLINE
  8
0
 66
1
  0
VERTEX
  8
0
 10
1.06945
 20
8.10393
  0
VERTEX
  8
0
 10
1.06945
 20
8.10393
  0
SEQEND
  0
POLYLINE
  8
0
 66
1
  0
VERTEX
  8
0
 10
1.05892
 20
8.11024
  0
VERTEX
  8
0
 10
1.05892
 20
8.11024
  0
SEQEND
  0
POLYLINE
  8
0
 66
1
  0
VERTEX
  8
0
 10
1.04784
 20
8.11548
  0
VERTEX
  8
0
 10
1.04784
 20
8.11548
  0
SEQEND
  0
POLYLINE
  8
0
 66
1
  0
VERTEX
  8
0
 10
1.03629
 20
8.11962
  0
VERTEX
  8
0
 10
1.03629
 20
8.11962
  0
SEQEND
  0
POLYLINE
  8
0
 66
1
  0
VERTEX
  8
0
 10
1.02439
 20
8.1226
  0
VERTEX
  8
0
 10
1.02439
 20
8.1226
  0
SEQEND
  0
POLYLINE
  8
0
 66
1
  0
VERTEX
  8
0
 10
1.01225
 20
8.1244
  0
VERTEX
  8
0
 10
1.01225
 20
8.1244
  0
SEQEND
  0
POLYLINE
  8
0
 66
1
  0
VERTEX
  8
0
 10
1
 20
8.125
  0
VERTEX
  8
0
 10
1
 20
8.125
  0
SEQEND
  0
POLYLINE
  8
0
 66
1
  0
VERTEX
  8
0
 10
0.987748
 20
8.1244
  0
VERTEX
  8
0
 10
0.987748
 20
8.1244
  0
SEQEND
  0
POLYLINE
  8
0
 66
1
  0
VERTEX
  8
0
 10
0.975614
 20
8.1226
  0
VERTEX
  8
0
 10
0.975614
 20
8.1226
  0
SEQEND
  0
POLYLINE
  8
0
 66
1
  0
VERTEX
  8
0
 10
0.963714
 20
8.11962
  0
VERTEX
  8
0
 10
0.963714
 20
8.11962
  0
SEQEND
  0
POLYLINE
  8
0
 66
1
  0
VERTEX
  8
0
 10
0.952165
 20
8.11548
  0
VERTEX
  8
0
 10
0.952165
 20
8.11548
  0
SEQEND
  0
POLYLINE
  8
0
 66
1
  0
VERTEX
  8
0
 10
0.941075
 20
8.11024
  0
VERTEX
  8
0
 10
0.941075
 20
8.11024
  0
SEQEND
  0
POLYLINE
  8
0
 66
1
  0
VERTEX
  8
0
 10
0.930554
 20
8.10393
  0
VERTEX
  8
0
 10
0.930554
 20
8.10393
  0
SEQEND
  0
POLYLINE
  8
0
 66
1
  0
VERTEX
  8
0
 10
0.920701
 20
8.09663
  0
VERTEX
  8
0
 10
0.920701
 20
8.09663
  0
SEQEND
  0
POLYLINE
  8
0
 66
1
  0
VERTEX
  8
0
 10
0.911612
 20
8.08839
  0
VERTEX
  8
0
 10
0.911612
 20
8.08839
  0
SEQEND
  0
POLYLINE
  8
0
 66
1
  0
VERTEX
  8
0
 10
0.903374
 20
8.0793
  0
VERTEX
  8
0
 10
0.903374
 20
8.0793
  0
SEQEND
  0
POLYLINE
  8
0
 66
1
  0
VERTEX
  8
0
 10
0.896066
 20
8.06945
  0
VERTEX
  8
0
 10
0.896066
 20
8.06945
  0
SEQEND
  0
POLYLINE
  8
0
 66
1
  0
VERTEX
  8
0
 10
0.88976
 20
8.05892
  0
VERTEX
  8
0
 10
0.88976
 20
8.05892
  0
SEQEND
  0
POLYLINE
  8
0
 66
1
  0
VERTEX
  8
0
 10
0.884515
 20
8.04784
  0
VERTEX
  8
0
 10
0.884515
 20
8.04784
  0
SEQEND
  0
POLYLINE
  8
0
 66
1
  0
VERTEX
  8
0
 10
0.880382
 20
8.03629
  0
VERTEX
  8
0
 10
0.880382
 20
8.03629
  0
SEQEND
  0
POLYLINE
  8
0
 66
1
  0
VERTEX
  8
0
 10
0.877402
 20
8.02439
  0
VERTEX
  8
0
 10
0.877402
 20
8.02439
  0
SEQEND
  0
POLYLINE
  8
0
 66
1
  0
VERTEX
  8
0
 10
0.875602
 20
8.01225
  0
VERTEX
  8
0
 10
0.875602
 20
8.01225
  0
SEQEND
  0
POLYLINE
  8
0
 66
1
  0
VERTEX
  8
0
 10
0.875
 20
8
  0
VERTEX
  8
0
 10
0.875
 20
8
  0
SEQEND
  0
POLYLINE
  8
0
 66
1
  0
VERTEX
  8
0
 10
0.875602
 20
7.98775
  0
VERTEX
  8
0
 10
0.875602
 20
7.98775
  0
SEQEND
  0
POLYLINE
  8
0
 66
1
  0
VERTEX
  8
0
 10
0.877402
 20
7.97561
  0
VERTEX
  8
0
 10
0.877402
 20
7.97561
  0
SEQEND
  0
POLYLINE
  8
0
 66
1
  0
VERTEX
  8
0
 10
0.880382
 20
7.96371
  0
VERTEX
  8
0
 10
0.880382
 20
7.96371
  0
SEQEND
  0
POLYLINE
  8
0
 66
1
  0
VERTEX
  8
0
 10
0.884515
 20
7.95216
  0
VERTEX
  8
0
 10
0.884515
 20
7.95216
  0
SEQEND
  0
POLYLINE
  8
0
 66
1
  0
VERTEX
  8
0
 10
0.88976
 20
7.94108
  0
VERTEX
  8
0
 10
0.88976
 20
7.94108
  0
SEQEND
  0
POLYLINE
  8
0
 66
1
  0
VERTEX
  8
0
 10
0.896066
 20
7.93055
  0
VERTEX
  8
0
 10
0.896066
 20
7.93055
  0
SEQEND
  0
POLYLINE
  8
0
 66
1
  0
VERTEX
  8
0
 10
0.903374
 20
7.9207
  0
VERTEX
  8
0
 10
0.903374
 20
7.9207
  0
SEQEND
  0
POLYLINE
  8
0
 66
1
  0
VERTEX
  8
0
 10
0.911612
 20
7.91161
  0
VERTEX
  8
0
 10
0.911612
 20
7.91161
  0
SEQEND
  0
POLYLINE
  8
0
 66
1
  0
VERTEX
  8
0
 10
0.920701
 20
7.90337
  0
VERTEX
  8
0
 10
0.920701
 20
7.90337
  0
SEQEND
  0
POLYLINE
  8
0
 66
1
  0
VERTEX
  8
0
 10
0.930554
 20
7.89607
  0
VERTEX
  8
0
 10
0.930554
 20
7.89607
  0
SEQEND
  0
POLYLINE
  8
0
 66
1
  0
VERTEX
  8
0
 10
0.941075
 20
7.88976
  0
VERTEX
  8
0
 10
0.941075
 20
7.88976
  0
SEQEND
  0
POLYLINE
  8
0
 66
1
  0
VERTEX
  8
0
 10
0.952165
 20
7.88452
  0
VERTEX
  8
0
 10
0.952165
 20
7.88452
  0
SEQEND
  0
POLYLINE
  8
0
 66
1
  0
VERTEX
  8
0
 10
0.963714
 20
7.88038
  0
VERTEX
  8
0
 10
0.963714
 20
7.88038
  0
SEQEND
  0
POLYLINE
  8
0
 66
1
  0
VERTEX
  8
0
 10
0.975614
 20
7.8774
  0
VERTEX
  8
0
 10
0.975614
 20
7.8774
  0
SEQEND
  0
POLYLINE
  8
0
 66
1
  0
VERTEX
  8
0
 10
0.987748
 20
7.8756
  0
VERTEX
  8
0
 10
0.987748
 20
7.8756
  0
SEQEND
  0
POLYLINE
  8
0
 66
1
  0
VERTEX
  8
0
 10
1
 20
7.875
  0
VERTEX
  8
0
 10
1
 20
7.875
  0
SEQEND
  0
POLYLINE
  8
0
 66
1
  0
VERTEX
  8
0
 10
1.01225
 20
7.8756
  0
VERTEX
  8
0
 10
1.01225
 20
7.8756
  0
SEQEND
  0
POLYLINE
  8
0
 66
1
  0
VERTEX
  8
0
 10
1.02439
 20
7.8774
  0
VERTEX
  8
0
 10
1.02439
 20
7.8774
  0
SEQEND
  0
POLYLINE
  8
0
 66
1
  0
VERTEX
  8
0
 10
1.95007
 20
4.6244
  0
VERTEX
  8
0
 10
1.93782
 20
4.625
  0
VERTEX
  8
0
 10
1.92557
 20
4.6244
  0
VERTEX
  8
0
 10
1.91344
 20
4.6226
  0
VERTEX
  8
0
 10
1.90154
 20
4.61962
  0
VERTEX
  8
0
 10
1.88999
 20
4.61548
  0
VERTEX
  8
0
 10
1.8789
 20
4.61024
  0
VERTEX
  8
0
 10
1.86838
 20
4.60393
  0
VERTEX
  8
0
 10
1.85852
 20
4.59663
  0
VERTEX
  8
0
 10
1.84943
 20
4.58839
  0
VERTEX
  8
0
 10
1.8412
 20
4.5793
  0
VERTEX
  8
0
 10
1.83389
 20
4.56945
  0
VERTEX
  8
0
 10
1.82758
 20
4.55892
  0
VERTEX
  8
0
 10
1.82234
 20
4.54784
  0
VERTEX
  8
0
 10
1.8182
 20
4.53629
  0
VERTEX
  8
0
 10
1.81522
 20
4.52439
  0
VERTEX
  8
0
 10
1.81342
 20
4.51225
  0
VERTEX
  8
0
 10
1.81282
 20
4.5
  0
VERTEX
  8
0
 10
1.81342
 20
4.48775
  0
VERTEX
  8
0
 10
1.81522
 20
4.47561
  0
VERTEX
  8
0
 10
1.8182
 20
4.46371
  0
VERTEX
  8
0
 10
1.82234
 20
4.45216
  0
VERTEX
  8
0
 10
1.82758
 20
4.44108
  0
VERTEX
  8
0
 10
1.83389
 20
4.43055
  0
VERTEX
  8
0
 10
1.8412
 20
4.4207
  0
VERTEX
  8
0
 10
1.84943
 20
4.41161
  0
VERTEX
  8
0
 10
1.85852
 20
4.40337
  0
VERTEX
  8
0
 10
1.86838
 20
4.39607
  0
VERTEX
  8
0
 10
1.8789
 20
4.38976
  0
VERTEX
  8
0
 10
1.88999
 20
4.38452
  0
VERTEX
  8
0
 10
1.90154
 20
4.38038
  0
VERTEX
  8
0
 10
1.91344
 20
4.3774
  0
VERTEX
  8
0
 10
1.92557
 20
4.3756
  0
VERTEX
  8
0
 10
1.93782
 20
4.375
  0
VERTEX
  8
0
 10
1.95007
 20
4.3756
  0
VERTEX
  8
0
 10
1.96221
 20
4.3774
  0
VERTEX
  8
0
 10
1.97411
 20
4.38038
  0
VERTEX
  8
0
 10
1.98566
 20
4.38452
  0
VERTEX
  8
0
 10
1.99675
 20
4.38976
  0
VERTEX
  8
0
 10
2.00727
 20
4.39607
  0
VERTEX
  8
0
 10
2.01712
 20
4.40337
  0
VERTEX
  8
0
 10
2.02621
 20
4.41161
  0
VERTEX
  8
0
 10
2.03445
 20
4.4207
  0
VERTEX
  8
0
 10
2.04176
 20
4.43055
  0
VERTEX
  8
0
 10
2.04806
 20
4.44108
  0
VERTEX
  8
0
 10
2.05331
 20
4.45216
  0
VERTEX
  8
0
 10
2.05744
 20
4.46371
  0
VERTEX
  8
0
 10
2.06042
 20
4.47561
  0
VERTEX
  8
0
 10
2.06222
 20
4.48775
  0
VERTEX
  8
0
 10
2.06282
 20
4.5
  0
VERTEX
  8
0
 10
2.06222
 20
4.51225
  0
VERTEX
  8
0
 10
2.06042
 20
4.52439
  0
VERTEX
  8
0
 10
2.05744
 20
4.53629
  0
VERTEX
  8
0
 10
2.05331
 20
4.54784
  0
VERTEX
  8
0
 10
2.04806
 20
4.55892
  0
VERTEX
  8
0
 10
2.04176
 20
4.56945
  0
VERTEX
  8
0
 10
2.03445
 20
4.5793
  0
VERTEX
  8
0
 10
2.02621
 20
4.58839
  0
VERTEX
  8
0
 10
2.01712
 20
4.59663
  0
VERTEX
  8
0
 10
2.00727
 20
4.60393
  0
VERTEX
  8
0
 10
1.99675
 20
4.61024
  0
VERTEX
  8
0
 10
1.98566
 20
4.61548
  0
VERTEX
  8
0
 10
1.97411
 20
4.61962
  0
VERTEX
  8
0
 10
1.96221
 20
4.6226
  0
VERTEX
  8
0
 10
1.96221
 20
4.6226
  0
SEQEND
  0
POLYLINE
  8
0
 66
1
  0
VERTEX
  8
0
 10
1.95007
 20
4.6244
  0
VERTEX
  8
0
 10
1.96221
 20
4.6226
  0
SEQEND
  0
POLYLINE
  8
0
 66
1
  0
VERTEX
  8
0
 10
1.95007
 20
4.6244
  0
VERTEX
  8
0
 10
1.95007
 20
4.6244
  0
SEQEND
  0
POLYLINE
  8
0
 66
1
  0
VERTEX
  8
0
 10
1.93782
 20
4.625
  0
VERTEX
  8
0
 10
1.93782
 20
4.625
  0
SEQEND
  0
POLYLINE
  8
0
 66
1
  0
VERTEX
  8
0
 10
1.92557
 20
4.6244
  0
VERTEX
  8
0
 10
1.92557
 20
4.6244
  0
SEQEND
  0
POLYLINE
  8
0
 66
1
  0
VERTEX
  8
0
 10
1.91344
 20
4.6226
  0
VERTEX
  8
0
 10
1.91344
 20
4.6226
  0
SEQEND
  0
POLYLINE
  8
0
 66
1
  0
VERTEX
  8
0
 10
1.90154
 20
4.61962
  0
VERTEX
  8
0
 10
1.90154
 20
4.61962
  0
SEQEND
  0
POLYLINE
  8
0
 66
1
  0
VERTEX
  8
0
 10
1.88999
 20
4.61548
  0
VERTEX
  8
0
 10
1.88999
 20
4.61548
  0
SEQEND
  0
POLYLINE
  8
0
 66
1
  0
VERTEX
  8
0
 10
1.8789
 20
4.61024
  0
VERTEX
  8
0
 10
1.8789
 20
4.61024
  0
SEQEND
  0
POLYLINE
  8
0
 66
1
  0
VERTEX
  8
0
 10
1.86838
 20
4.60393
  0
VERTEX
  8
0
 10
1.86838
 20
4.60393
  0
SEQEND
  0
POLYLINE
  8
0
 66
1
  0
VERTEX
  8
0
 10
1.85852
 20
4.59663
  0
VERTEX
  8
0
 10
1.85852
 20
4.59663
  0
SEQEND
  0
POLYLINE
  8
0
 66
1
  0
VERTEX
  8
0
 10
1.84943
 20
4.58839
  0
VERTEX
  8
0
 10
1.84943
 20
4.58839
  0
SEQEND
  0
POLYLINE
  8
0
 66
1
  0
VERTEX
  8
0
 10
1.8412
 20
4.5793
  0
VERTEX
  8
0
 10
1.8412
 20
4.5793
  0
SEQEND
  0
POLYLINE
  8
0
 66
1
  0
VERTEX
  8
0
 10
1.83389
 20
4.56945
  0
VERTEX
  8
0
 10
1.83389
 20
4.56945
  0
SEQEND
  0
POLYLINE
  8
0
 66
1
  0
VERTEX
  8
0
 10
1.82758
 20
4.55892
  0
VERTEX
  8
0
 10
1.82758
 20
4.55892
  0
SEQEND
  0
POLYLINE
  8
0
 66
1
  0
VERTEX
  8
0
 10
1.82234
 20
4.54784
  0
VERTEX
  8
0
 10
1.82234
 20
4.54784
  0
SEQEND
  0
POLYLINE
  8
0
 66
1
  0
VERTEX
  8
0
 10
1.8182
 20
4.53629
  0
VERTEX
  8
0
 10
1.8182
 20
4.53629
  0
SEQEND
  0
POLYLINE
  8
0
 66
1
  0
VERTEX
  8
0
 10
1.81522
 20
4.52439
  0
VERTEX
  8
0
 10
1.81522
 20
4.52439
  0
SEQEND
  0
POLYLINE
  8
0
 66
1
  0
VERTEX
  8
0
 10
1.81342
 20
4.51225
  0
VERTEX
  8
0
 10
1.81342
 20
4.51225
  0
SEQEND
  0
POLYLINE
  8
0
 66
1
  0
VERTEX
  8
0
 10
1.81282
 20
4.5
  0
VERTEX
  8
0
 10
1.81282
 20
4.5
  0
SEQEND
  0
POLYLINE
  8
0
 66
1
  0
VERTEX
  8
0
 10
1.81342
 20
4.48775
  0
VERTEX
  8
0
 10
1.81342
 20
4.48775
  0
SEQEND
  0
POLYLINE
  8
0
 66
1
  0
VERTEX
  8
0
 10
1.81522
 20
4.47561
  0
VERTEX
  8
0
 10
1.81522
 20
4.47561
  0
SEQEND
  0
POLYLINE
  8
0
 66
1
  0
VERTEX
  8
0
 10
1.8182
 20
4.46371
  0
VERTEX
  8
0
 10
1.8182
 20
4.46371
  0
SEQEND
  0
POLYLINE
  8
0
 66
1
  0
VERTEX
  8
0
 10
1.82234
 20
4.45216
  0
VERTEX
  8
0
 10
1.82234
 20
4.45216
  0
SEQEND
  0
POLYLINE
  8
0
 66
1
  0
VERTEX
  8
0
 10
1.82758
 20
4.44108
  0
VERTEX
  8
0
 10
1.82758
 20
4.44108
  0
SEQEND
  0
POLYLINE
  8
0
 66
1
  0
VERTEX
  8
0
 10
1.83389
 20
4.43055
  0
VERTEX
  8
0
 10
1.83389
 20
4.43055
  0
SEQEND
  0
POLYLINE
  8
0
 66
1
  0
VERTEX
  8
0
 10
1.8412
 20
4.4207
  0
VERTEX
  8
0
 10
1.8412
 20
4.4207
  0
SEQEND
  0
POLYLINE
  8
0
 66
1
  0
VERTEX
  8
0
 10
1.84943
 20
4.41161
  0
VERTEX
  8
0
 10
1.84943
 20
4.41161
  0
SEQEND
  0
POLYLINE
  8
0
 66
1
  0
VERTEX
  8
0
 10
1.85852
 20
4.40337
  0
VERTEX
  8
0
 10
1.85852
 20
4.40337
  0
SEQEND
  0
POLYLINE
  8
0
 66
1
  0
VERTEX
  8
0
 10
1.86838
 20
4.39607
  0
VERTEX
  8
0
 10
1.86838
 20
4.39607
  0
SEQEND
  0
POLYLINE
  8
0
 66
1
  0
VERTEX
  8
0
 10
1.8789
 20
4.38976
  0
VERTEX
  8
0
 10
1.8789
 20
4.38976
  0
SEQEND
  0
POLYLINE
  8
0
 66
1
  0
VERTEX
  8
0
 10
1.88999
 20
4.38452
  0
VERTEX
  8
0
 10
1.88999
 20
4.38452
  0
SEQEND
  0
POLYLINE
  8
0
 66
1
  0
VERTEX
  8
0
 10
1.90154
 20
4.38038
  0
VERTEX
  8
0
 10
1.90154
 20
4.38038
  0
SEQEND
  0
POLYLINE
  8
0
 66
1
  0
VERTEX
  8
0
 10
1.91344
 20
4.3774
  0
VERTEX
  8
0
 10
1.91344
 20
4.3774
  0
SEQEND
  0
POLYLINE
  8
0
 66
1
  0
VERTEX
  8
0
 10
1.92557
 20
4.3756
  0
VERTEX
  8
0
 10
1.92557
 20
4.3756
  0
SEQEND
  0
POLYLINE
  8
0
 66
1
  0
VERTEX
  8
0
 10
1.93782
 20
4.375
  0
VERTEX
  8
0
 10
1.93782
 20
4.375
  0
SEQEND
  0
POLYLINE
  8
0
 66
1
  0
VERTEX
  8
0
 10
1.95007
 20
4.3756
  0
VERTEX
  8
0
 10
1.95007
 20
4.3756
  0
SEQEND
  0
POLYLINE
  8
0
 66
1
  0
VERTEX
  8
0
 10
1.96221
 20
4.3774
  0
VERTEX
  8
0
 10
1.96221
 20
4.3774
  0
SEQEND
  0
POLYLINE
  8
0
 66
1
  0
VERTEX
  8
0
 10
1.97411
 20
4.38038
  0
VERTEX
  8
0
 10
1.97411
 20
4.38038
  0
SEQEND
  0
POLYLINE
  8
0
 66
1
  0
VERTEX
  8
0
 10
1.98566
 20
4.38452
  0
VERTEX
  8
0
 10
1.98566
 20
4.38452
  0
SEQEND
  0
POLYLINE
  8
0
 66
1
  0
VERTEX
  8
0
 10
1.99675
 20
4.38976
  0
VERTEX
  8
0
 10
1.99675
 20
4.38976
  0
SEQEND
  0
POLYLINE
  8
0
 66
1
  0
VERTEX
  8
0
 10
2.00727
 20
4.39607
  0
VERTEX
  8
0
 10
2.00727
 20
4.39607
  0
SEQEND
  0
POLYLINE
  8
0
 66
1
  0
VERTEX
  8
0
 10
2.01712
 20
4.40337
  0
VERTEX
  8
0
 10
2.01712
 20
4.40337
  0
SEQEND
  0
POLYLINE
  8
0
 66
1
  0
VERTEX
  8
0
 10
2.02621
 20
4.41161
  0
VERTEX
  8
0
 10
2.02621
 20
4.41161
  0
SEQEND
  0
POLYLINE
  8
0
 66
1
  0
VERTEX
  8
0
 10
2.03445
 20
4.4207
  0
VERTEX
  8
0
 10
2.03445
 20
4.4207
  0
SEQEND
  0
POLYLINE
  8
0
 66
1
  0
VERTEX
  8
0
 10
2.04176
 20
4.43055
  0
VERTEX
  8
0
 10
2.04176
 20
4.43055
  0
SEQEND
  0
POLYLINE
  8
0
 66
1
  0
VERTEX
  8
0
 10
2.04806
 20
4.44108
  0
VERTEX
  8
0
 10
2.04806
 20
4.44108
  0
SEQEND
  0
POLYLINE
  8
0
 66
1
  0
VERTEX
  8
0
 10
2.05331
 20
4.45216
  0
VERTEX
  8
0
 10
2.05331
 20
4.45216
  0
SEQEND
  0
POLYLINE
  8
0
 66
1
  0
VERTEX
  8
0
 10
2.05744
 20
4.46371
  0
VERTEX
  8
0
 10
2.05744
 20
4.46371
  0
SEQEND
  0
POLYLINE
  8
0
 66
1
  0
VERTEX
  8
0
 10
2.06042
 20
4.47561
  0
VERTEX
  8
0
 10
2.06042
 20
4.47561
  0
SEQEND
  0
POLYLINE
  8
0
 66
1
  0
VERTEX
  8
0
 10
2.06222
 20
4.48775
  0
VERTEX
  8
0
 10
2.06222
 20
4.48775
  0
SEQEND
  0
POLYLINE
  8
0
 66
1
  0
VERTEX
  8
0
 10
2.06282
 20
4.5
  0
VERTEX
  8
0
 10
2.06282
 20
4.5
  0
SEQEND
  0
POLYLINE
  8
0
 66
1
  0
VERTEX
  8
0
 10
2.06222
 20
4.51225
  0
VERTEX
  8
0
 10
2.06222
 20
4.51225
  0
SEQEND
  0
POLYLINE
  8
0
 66
1
  0
VERTEX
  8
0
 10
2.06042
 20
4.52439
  0
VERTEX
  8
0
 10
2.06042
 20
4.52439
  0
SEQEND
  0
POLYLINE
  8
0
 66
1
  0
VERTEX
  8
0
 10
2.05744
 20
4.53629
  0
VERTEX
  8
0
 10
2.05744
 20
4.53629
  0
SEQEND
  0
POLYLINE
  8
0
 66
1
  0
VERTEX
  8
0
 10
2.05331
 20
4.54784
  0
VERTEX
  8
0
 10
2.05331
 20
4.54784
  0
SEQEND
  0
POLYLINE
  8
0
 66
1
  0
VERTEX
  8
0
 10
2.04806
 20
4.55892
  0
VERTEX
  8
0
 10
2.04806
 20
4.55892
  0
SEQEND
  0
POLYLINE
  8
0
 66
1
  0
VERTEX
  8
0
 10
2.04176
 20
4.56945
  0
VERTEX
  8
0
 10
2.04176
 20
4.56945
  0
SEQEND
  0
POLYLINE
  8
0
 66
1
  0
VERTEX
  8
0
 10
2.03445
 20
4.5793
  0
VERTEX
  8
0
 10
2.03445
 20
4.5793
  0
SEQEND
  0
POLYLINE
  8
0
 66
1
  0
VERTEX
  8
0
 10
2.02621
 20
4.58839
  0
VERTEX
  8
0
 10
2.02621
 20
4.58839
  0
SEQEND
  0
POLYLINE
  8
0
 66
1
  0
VERTEX
  8
0
 10
2.01712
 20
4.59663
  0
VERTEX
  8
0
 10
2.01712
 20
4.59663
  0
SEQEND
  0
POLYLINE
  8
0
 66
1
  0
VERTEX
  8
0
 10
2.00727
 20
4.60393
  0
VERTEX
  8
0
 10
2.00727
 20
4.60393
  0
SEQEND
  0
POLYLINE
  8
0
 66
1
  0
VERTEX
  8
0
 10
1.99675
 20
4.61024
  0
VERTEX
  8
0
 10
1.99675
 20
4.61024
  0
SEQEND
  0
POLYLINE
  8
0
 66
1
  0
VERTEX
  8
0
 10
1.98566
 20
4.61548
  0
VERTEX
  8
0
 10
1.98566
 20
4.61548
  0
SEQEND
  0
POLYLINE
  8
0
 66
1
  0
VERTEX
  8
0
 10
1.97411
 20
4.61962
  0
VERTEX
  8
0
 10
1.97411
 20
4.61962
  0
SEQEND
  0
POLYLINE
  8
0
 66
1
  0
VERTEX
  8
0
 10
4.38452
 20
1.98566
  0
VERTEX
  8
0
 10
4.38038
 20
1.97411
  0
VERTEX
  8
0
 10
4.3774
 20
1.96221
  0
VERTEX
  8
0
 10
4.3756
 20
1.95007
  0
VERTEX
  8
0
 10
4.375
 20
1.93782
  0
VERTEX
  8
0
 10
4.3756
 20
1.92557
  0
VERTEX
  8
0
 10
4.3774
 20
1.91344
  0
VERTEX
  8
0
 10
4.38038
 20
1.90154
  0
VERTEX
  8
0
 10
4.38452
 20
1.88999
  0
VERTEX
  8
0
 10
4.38976
 20
1.8789
  0
VERTEX
  8
0
 10
4.39607
 20
1.86838
  0
VERTEX
  8
0
 10
4.40337
 20
1.85852
  0
VERTEX
  8
0
 10
4.41161
 20
1.84943
  0
VERTEX
  8
0
 10
4.4207
 20
1.8412
  0
VERTEX
  8
0
 10
4.43055
 20
1.83389
  0
VERTEX
  8
0
 10
4.44108
 20
1.82758
  0
VERTEX
  8
0
 10
4.45216
 20
1.82234
  0
VERTEX
  8
0
 10
4.46371
 20
1.8182
  0
VERTEX
  8
0
 10
4.47561
 20
1.81522
  0
VERTEX
  8
0
 10
4.48775
 20
1.81342
  0
VERTEX
  8
0
 10
4.5
 20
1.81282
  0
VERTEX
  8
0
 10
4.51225
 20
1.81342
  0
VERTEX
  8
0
 10
4.52439
 20
1.81522
  0
VERTEX
  8
0
 10
4.53629
 20
1.8182
  0
VERTEX
  8
0
 10
4.54784
 20
1.82234
  0
VERTEX
  8
0
 10
4.55892
 20
1.82758
  0
VERTEX
  8
0
 10
4.56945
 20
1.83389
  0
VERTEX
  8
0
 10
4.5793
 20
1.8412
  0
VERTEX
  8
0
 10
4.58839
 20
1.84943
  0
VERTEX
  8
0
 10
4.59663
 20
1.85852
  0
VERTEX
  8
0
 10
4.60393
 20
1.86838
  0
VERTEX
  8
0
 10
4.61024
 20
1.8789
  0
VERTEX
  8
0
 10
4.61548
 20
1.88999
  0
VERTEX
  8
0
 10
4.61962
 20
1.90154
  0
VERTEX
  8
0
 10
4.6226
 20
1.91344
  0
VERTEX
  8
0
 10
4.6244
 20
1.92557
  0
VERTEX
  8
0
 10
4.625
 20
1.93782
  0
VERTEX
  8
0
 10
4.6244
 20
1.95007
  0
VERTEX
  8
0
 10
4.6226
 20
1.96221
  0
VERTEX
  8
0
 10
4.61962
 20
1.97411
  0
VERTEX
  8
0
 10
4.61548
 20
1.98566
  0
VERTEX
  8
0
 10
4.61024
 20
1.99675
  0
VERTEX
  8
0
 10
4.60393
 20
2.00727
  0
VERTEX
  8
0
 10
4.59663
 20
2.01712
  0
VERTEX
  8
0
 10
4.58839
 20
2.02621
  0
VERTEX
  8
0
 10
4.5793
 20
2.03445
  0
VERTEX
  8
0
 10
4.56945
 20
2.04176
  0
VERTEX
  8
0
 10
4.55892
 20
2.04806
  0
VERTEX
  8
0
 10
4.54784
 20
2.05331
  0
VERTEX
  8
0
 10
4.53629
 20
2.05744
  0
VERTEX
  8
0
 10
4.52439
 20
2.06042
  0
VERTEX
  8
0
 10
4.51225
 20
2.06222
  0
VERTEX
  8
0
 10
4.5
 20
2.06282
  0
VERTEX
  8
0
 10
4.48775
 20
2.06222
  0
VERTEX
  8
0
 10
4.47561
 20
2.06042
  0
VERTEX
  8
0
 10
4.46371
 20
2.05744
  0
VERTEX
  8
0
 10
4.45216
 20
2.05331
  0
VERTEX
  8
0
 10
4.44108
 20
2.04806
  0
VERTEX
  8
0
 10
4.43055
 20
2.04176
  0
VERTEX
  8
0
 10
4.4207
 20
2.03445
  0
VERTEX
  8
0
 10
4.41161
 20
2.02621
  0
VERTEX
  8
0
 10
4.40337
 20
2.01712
  0
VERTEX
  8
0
 10
4.39607
 20
2.00727
  0
VERTEX
  8
0
 10
4.38976
 20
1.99675
  0
VERTEX
  8
0
 10
4.38976
 20
1.99675
  0
SEQEND
  0
POLYLINE
  8
0
 66
1
  0
VERTEX
  8
0
 10
4.38452
 20
1.98566
  0
VERTEX
  8
0
 10
4.38976
 20
1.99675
  0
SEQEND
  0
POLYLINE
  8
0
 66
1
  0
VERTEX
  8
0
 10
4.38452
 20
1.98566
  0
VERTEX
  8
0
 10
4.38452
 20
1.98566
  0
SEQEND
  0
POLYLINE
  8
0
 66
1
  0
VERTEX
  8
0
 10
4.38038
 20
1.97411
  0
VERTEX
  8
0
 10
4.38038
 20
1.97411
  0
SEQEND
  0
POLYLINE
  8
0
 66
1
  0
VERTEX
  8
0
 10
4.3774
 20
1.96221
  0
VERTEX
  8
0
 10
4.3774
 20
1.96221
  0
SEQEND
  0
POLYLINE
  8
0
 66
1
  0
VERTEX
  8
0
 10
4.3756
 20
1.95007
  0
VERTEX
  8
0
 10
4.3756
 20
1.95007
  0
SEQEND
  0
POLYLINE
  8
0
 66
1
  0
VERTEX
  8
0
 10
4.375
 20
1.93782
  0
VERTEX
  8
0
 10
4.375
 20
1.93782
  0
SEQEND
  0
POLYLINE
  8
0
 66
1
  0
VERTEX
  8
0
 10
4.3756
 20
1.92557
  0
VERTEX
  8
0
 10
4.3756
 20
1.92557
  0
SEQEND
  0
POLYLINE
  8
0
 66
1
  0
VERTEX
  8
0
 10
4.3774
 20
1.91344
  0
VERTEX
  8
0
 10
4.3774
 20
1.91344
  0
SEQEND
  0
POLYLINE
  8
0
 66
1
  0
VERTEX
  8
0
 10
4.38038
 20
1.90154
  0
VERTEX
  8
0
 10
4.38038
 20
1.90154
  0
SEQEND
  0
POLYLINE
  8
0
 66
1
  0
VERTEX
  8
0
 10
4.38452
 20
1.88999
  0
VERTEX
  8
0
 10
4.38452
 20
1.88999
  0
SEQEND
  0
POLYLINE
  8
0
 66
1
  0
VERTEX
  8
0
 10
4.38976
 20
1.8789
  0
VERTEX
  8
0
 10
4.38976
 20
1.8789
  0
SEQEND
  0
POLYLINE
  8
0
 66
1
  0
VERTEX
  8
0
 10
4.39607
 20
1.86838
  0
VERTEX
  8
0
 10
4.39607
 20
1.86838
  0
SEQEND
  0
POLYLINE
  8
0
 66
1
  0
VERTEX
  8
0
 10
4.40337
 20
1.85852
  0
VERTEX
  8
0
 10
4.40337
 20
1.85852
  0
SEQEND
  0
POLYLINE
  8
0
 66
1
  0
VERTEX
  8
0
 10
4.41161
 20
1.84943
  0
VERTEX
  8
0
 10
4.41161
 20
1.84943
  0
SEQEND
  0
POLYLINE
  8
0
 66
1
  0
VERTEX
  8
0
 10
4.4207
 20
1.8412
  0
VERTEX
  8
0
 10
4.4207
 20
1.8412
  0
SEQEND
  0
POLYLINE
  8
0
 66
1
  0
VERTEX
  8
0
 10
4.43055
 20
1.83389
  0
VERTEX
  8
0
 10
4.43055
 20
1.83389
  0
SEQEND
  0
POLYLINE
  8
0
 66
1
  0
VERTEX
  8
0
 10
4.44108
 20
1.82758
  0
VERTEX
  8
0
 10
4.44108
 20
1.82758
  0
SEQEND
  0
POLYLINE
  8
0
 66
1
  0
VERTEX
  8
0
 10
4.45216
 20
1.82234
  0
VERTEX
  8
0
 10
4.45216
 20
1.82234
  0
SEQEND
  0
POLYLINE
  8
0
 66
1
  0
VERTEX
  8
0
 10
4.46371
 20
1.8182
  0
VERTEX
  8
0
 10
4.46371
 20
1.8182
  0
SEQEND
  0
POLYLINE
  8
0
 66
1
  0
VERTEX
  8
0
 10
4.47561
 20
1.81522
  0
VERTEX
  8
0
 10
4.47561
 20
1.81522
  0
SEQEND
  0
POLYLINE
  8
0
 66
1
  0
VERTEX
  8
0
 10
4.48775
 20
1.81342
  0
VERTEX
  8
0
 10
4.48775
 20
1.81342
  0
SEQEND
  0
POLYLINE
  8
0
 66
1
  0
VERTEX
  8
0
 10
4.5
 20
1.81282
  0
VERTEX
  8
0
 10
4.5
 20
1.81282
  0
SEQEND
  0
POLYLINE
  8
0
 66
1
  0
VERTEX
  8
0
 10
4.51225
 20
1.81342
  0
VERTEX
  8
0
 10
4.51225
 20
1.81342
  0
SEQEND
  0
POLYLINE
  8
0
 66
1
  0
VERTEX
  8
0
 10
4.52439
 20
1.81522
  0
VERTEX
  8
0
 10
4.52439
 20
1.81522
  0
SEQEND
  0
POLYLINE
  8
0
 66
1
  0
VERTEX
  8
0
 10
4.53629
 20
1.8182
  0
VERTEX
  8
0
 10
4.53629
 20
1.8182
  0
SEQEND
  0
POLYLINE
  8
0
 66
1
  0
VERTEX
  8
0
 10
4.54784
 20
1.82234
  0
VERTEX
  8
0
 10
4.54784
 20
1.82234
  0
SEQEND
  0
POLYLINE
  8
0
 66
1
  0
VERTEX
  8
0
 10
4.55892
 20
1.82758
  0
VERTEX
  8
0
 10
4.55892
 20
1.82758
  0
SEQEND
  0
POLYLINE
  8
0
 66
1
  0
VERTEX
  8
0
 10
4.56945
 20
1.83389
  0
VERTEX
  8
0
 10
4.56945
 20
1.83389
  0
SEQEND
  0
POLYLINE
  8
0
 66
1
  0
VERTEX
  8
0
 10
4.5793
 20
1.8412
  0
VERTEX
  8
0
 10
4.5793
 20
1.8412
  0
SEQEND
  0
POLYLINE
  8
0
 66
1
  0
VERTEX
  8
0
 10
4.58839
 20
1.84943
  0
VERTEX
  8
0
 10
4.58839
 20
1.84943
  0
SEQEND
  0
POLYLINE
  8
0
 66
1
  0
VERTEX
  8
0
 10
4.59663
 20
1.85852
  0
VERTEX
  8
0
 10
4.59663
 20
1.85852
  0
SEQEND
  0
POLYLINE
  8
0
 66
1
  0
VERTEX
  8
0
 10
4.60393
 20
1.86838
  0
VERTEX
  8
0
 10
4.60393
 20
1.86838
  0
SEQEND
  0
POLYLINE
  8
0
 66
1
  0
VERTEX
  8
0
 10
4.61024
 20
1.8789
  0
VERTEX
  8
0
 10
4.61024
 20
1.8789
  0
SEQEND
  0
POLYLINE
  8
0
 66
1
  0
VERTEX
  8
0
 10
4.61548
 20
1.88999
  0
VERTEX
  8
0
 10
4.61548
 20
1.88999
  0
SEQEND
  0
POLYLINE
  8
0
 66
1
  0
VERTEX
  8
0
 10
4.61962
 20
1.90154
  0
VERTEX
  8
0
 10
4.61962
 20
1.90154
  0
SEQEND
  0
POLYLINE
  8
0
 66
1
  0
VERTEX
  8
0
 10
4.6226
 20
1.91344
  0
VERTEX
  8
0
 10
4.6226
 20
1.91344
  0
SEQEND
  0
POLYLINE
  8
0
 66
1
  0
VERTEX
  8
0
 10
4.6244
 20
1.92557
  0
VERTEX
  8
0
 10
4.6244
 20
1.92557
  0
SEQEND
  0
POLYLINE
  8
0
 66
1
  0
VERTEX
  8
0
 10
4.625
 20
1.93782
  0
VERTEX
  8
0
 10
4.625
 20
1.93782
  0
SEQEND
  0
POLYLINE
  8
0
 66
1
  0
VERTEX
  8
0
 10
4.6244
 20
1.95007
  0
VERTEX
  8
0
 10
4.6244
 20
1.95007
  0
SEQEND
  0
POLYLINE
  8
0
 66
1
  0
VERTEX
  8
0
 10
4.6226
 20
1.96221
  0
VERTEX
  8
0
 10
4.6226
 20
1.96221
  0
SEQEND
  0
POLYLINE
  8
0
 66
1
  0
VERTEX
  8
0
 10
4.61962
 20
1.97411
  0
VERTEX
  8
0
 10
4.61962
 20
1.97411
  0
SEQEND
  0
POLYLINE
  8
0
 66
1
  0
VERTEX
  8
0
 10
4.61548
 20
1.98566
  0
VERTEX
  8
0
 10
4.61548
 20
1.98566
  0
SEQEND
  0
POLYLINE
  8
0
 66
1
  0
VERTEX
  8
0
 10
4.61024
 20
1.99675
  0
VERTEX
  8
0
 10
4.61024
 20
1.99675
  0
SEQEND
  0
POLYLINE
  8
0
 66
1
  0
VERTEX
  8
0
 10
4.60393
 20
2.00727
  0
VERTEX
  8
0
 10
4.60393
 20
2.00727
  0
SEQEND
  0
POLYLINE
  8
0
 66
1
  0
VERTEX
  8
0
 10
4.59663
 20
2.01712
  0
VERTEX
  8
0
 10
4.59663
 20
2.01712
  0
SEQEND
  0
POLYLINE
  8
0
 66
1
  0
VERTEX
  8
0
 10
4.58839
 20
2.02621
  0
VERTEX
  8
0
 10
4.58839
 20
2.02621
  0
SEQEND
  0
POLYLINE
  8
0
 66
1
  0
VERTEX
  8
0
 10
4.5793
 20
2.03445
  0
VERTEX
  8
0
 10
4.5793
 20
2.03445
  0
SEQEND
  0
POLYLINE
  8
0
 66
1
  0
VERTEX
  8
0
 10
4.56945
 20
2.04176
  0
VERTEX
  8
0
 10
4.56945
 20
2.04176
  0
SEQEND
  0
POLYLINE
  8
0
 66
1
  0
VERTEX
  8
0
 10
4.55892
 20
2.04806
  0
VERTEX
  8
0
 10
4.55892
 20
2.04806
  0
SEQEND
  0
POLYLINE
  8
0
 66
1
  0
VERTEX
  8
0
 10
4.54784
 20
2.05331
  0
VERTEX
  8
0
 10
4.54784
 20
2.05331
  0
SEQEND
  0
POLYLINE
  8
0
 66
1
  0
VERTEX
  8
0
 10
4.53629
 20
2.05744
  0
VERTEX
  8
0
 10
4.53629
 20
2.05744
  0
SEQEND
  0
POLYLINE
  8
0
 66
1
  0
VERTEX
  8
0
 10
4.52439
 20
2.06042
  0
VERTEX
  8
0
 10
4.52439
 20
2.06042
  0
SEQEND
  0
POLYLINE
  8
0
 66
1
  0
VERTEX
  8
0
 10
4.51225
 20
2.06222
  0
VERTEX
  8
0
 10
4.51225
 20
2.06222
  0
SEQEND
  0
POLYLINE
  8
0
 66
1
  0
VERTEX
  8
0
 10
4.5
 20
2.06282
  0
VERTEX
  8
0
 10
4.5
 20
2.06282
  0
SEQEND
  0
POLYLINE
  8
0
 66
1
  0
VERTEX
  8
0
 10
4.48775
 20
2.06222
  0
VERTEX
  8
0
 10
4.48775
 20
2.06222
  0
SEQEND
  0
POLYLINE
  8
0
 66
1
  0
VERTEX
  8
0
 10
4.47561
 20
2.06042
  0
VERTEX
  8
0
 10
4.47561
 20
2.06042
  0
SEQEND
  0
POLYLINE
  8
0
 66
1
  0
VERTEX
  8
0
 10
4.46371
 20
2.05744
  0
VERTEX
  8
0
 10
4.46371
 20
2.05744
  0
SEQEND
  0
POLYLINE
  8
0
 66
1
  0
VERTEX
  8
0
 10
4.45216
 20
2.05331
  0
VERTEX
  8
0
 10
4.45216
 20
2.05331
  0
SEQEND
  0
POLYLINE
  8
0
 66
1
  0
VERTEX
  8
0
 10
4.44108
 20
2.04806
  0
VERTEX
  8
0
 10
4.44108
 20
2.04806
  0
SEQEND
  0
POLYLINE
  8
0
 66
1
  0
VERTEX
  8
0
 10
4.43055
 20
2.04176
  0
VERTEX
  8
0
 10
4.43055
 20
2.04176
  0
SEQEND
  0
POLYLINE
  8
0
 66
1
  0
VERTEX
  8
0
 10
4.4207
 20
2.03445
  0
VERTEX
  8
0
 10
4.4207
 20
2.03445
  0
SEQEND
  0
POLYLINE
  8
0
 66
1
  0
VERTEX
  8
0
 10
4.41161
 20
2.02621
  0
VERTEX
  8
0
 10
4.41161
 20
2.02621
  0
SEQEND
  0
POLYLINE
  8
0
 66
1
  0
VERTEX
  8
0
 10
4.40337
 20
2.01712
  0
VERTEX
  8
0
 10
4.40337
 20
2.01712
  0
SEQEND
  0
POLYLINE
  8
0
 66
1
  0
VERTEX
  8
0
 10
4.39607
 20
2.00727
  0
VERTEX
  8
0
 10
4.39607
 20
2.00727
  0
SEQEND
  0
POLYLINE
  8
0
 66
1
  0
VERTEX
  8
0
 10
8.1244
 20
1.01225
  0
VERTEX
  8
0
 10
8.1226
 20
1.02439
  0
VERTEX
  8
0
 10
8.11962
 20
1.03629
  0
VERTEX
  8
0
 10
8.11548
 20
1.04784
  0
VERTEX
  8
0
 10
8.11024
 20
1.05892
  0
VERTEX
  8
0
 10
8.10393
 20
1.06945
  0
VERTEX
  8
0
 10
8.09663
 20
1.0793
  0
VERTEX
  8
0
 10
8.08839
 20
1.08839
  0
VERTEX
  8
0
 10
8.0793
 20
1.09663
  0
VERTEX
  8
0
 10
8.06945
 20
1.10393
  0
VERTEX
  8
0
 10
8.05892
 20
1.11024
  0
VERTEX
  8
0
 10
8.04784
 20
1.11548
  0
VERTEX
  8
0
 10
8.03629
 20
1.11962
  0
VERTEX
  8
0
 10
8.02439
 20
1.1226
  0
VERTEX
  8
0
 10
8.01225
 20
1.1244
  0
VERTEX
  8
0
 10
8
 20
1.125
  0
VERTEX
  8
0
 10
7.98775
 20
1.1244
  0
VERTEX
  8
0
 10
7.97561
 20
1.1226
  0
VERTEX
  8
0
 10
7.96371
 20
1.11962
  0
VERTEX
  8
0
 10
7.95216
 20
1.11548
  0
VERTEX
  8
0
 10
7.94108
 20
1.11024
  0
VERTEX
  8
0
 10
7.93055
 20
1.10393
  0
VERTEX
  8
0
 10
7.9207
 20
1.09663
  0
VERTEX
  8
0
 10
7.91161
 20
1.08839
  0
VERTEX
  8
0
 10
7.90337
 20
1.0793
  0
VERTEX
  8
0
 10
7.89607
 20
1.06945
  0
VERTEX
  8
0
 10
7.88976
 20
1.05892
  0
VERTEX
  8
0
 10
7.88452
 20
1.04784
  0
VERTEX
  8
0
 10
7.88038
 20
1.03629
  0
VERTEX
  8
0
 10
7.8774
 20
1.02439
  0
VERTEX
  8
0
 10
7.8756
 20
1.01225
  0
VERTEX
  8
0
 10
7.875
 20
1
  0
VERTEX
  8
0
 10
7.8756
 20
0.987748
  0
VERTEX
  8
0
 10
7.8774
 20
0.975614
  0
VERTEX
  8
0
 10
7.88038
 20
0.963714
  0
VERTEX
  8
0
 10
7.88452
 20
0.952165
  0
VERTEX
  8
0
 10
7.88976
 20
0.941075
  0
VERTEX
  8
0
 10
7.89607
 20
0.930554
  0
VERTEX
  8
0
 10
7.90337
 20
0.920701
  0
VERTEX
  8
0
 10
7.91161
 20
0.911612
  0
VERTEX
  8
0
 10
7.9207
 20
0.903374
  0
VERTEX
  8
0
 10
7.93055
 20
0.896066
  0
VERTEX
  8
0
 10
7.94108
 20
0.88976
  0
VERTEX
  8
0
 10
7.95216
 20
0.884515
  0
VERTEX
  8
0
 10
7.96371
 20
0.880382
  0
VERTEX
  8
0
 10
7.97561
 20
0.877402
  0
VERTEX
  8
0
 10
7.98775
 20
0.875602
  0
VERTEX
  8
0
 10
8
 20
0.875
  0
VERTEX
  8
0
 10
8.01225
 20
0.875602
  0
VERTEX
  8
0
 10
8.02439
 20
0.877402
  0
VERTEX
  8
0
 10
8.03629
 20
0.880382
  0
VERTEX
  8
0
 10
8.04784
 20
0.884515
  0
VERTEX
  8
0
 10
8.05892
 20
0.88976
  0
VERTEX
  8
0
 10
8.06945
 20
0.896066
  0
VERTEX
  8
0
 10
8.0793
 20
0.903374
  0
VERTEX
  8
0
 10
8.08839
 20
0.911612
  0
VERTEX
  8
0
 10
8.09663
 20
0.920701
  0
VERTEX
  8
0
 10
8.10393
 20
0.930554
  0
VERTEX
  8
0
 10
8.11024
 20
0.941075
  0
VERTEX
  8
0
 10
8.11548
 20
0.952165
  0
VERTEX
  8
0
 10
8.11962
 20
0.963714
  0
VERTEX
  8
0
 10
8.1226
 20
0.975614
  0
VERTEX
  8
0
 10
8.1244
 20
0.987748
  0
VERTEX
  8
0
 10
8.125
 20
1
  0
VERTEX
  8
0
 10
8.125
 20
1
  0
SEQEND
  0
POLYLINE
  8
0
 66
1
  0
VERTEX
  8
0
 10
8.1244
 20
1.01225
  0
VERTEX
  8
0
 10
8.125
 20
1
  0
SEQEND
  0
POLYLINE
  8
0
 66
1
  0
VERTEX
  8
0
 10
8.1244
 20
1.01225
  0
VERTEX
  8
0
 10
8.1244
 20
1.01225
  0
SEQEND
  0
POLYLINE
  8
0
 66
1
  0
VERTEX
  8
0
 10
8.1226
 20
1.02439
  0
VERTEX
  8
0
 10
8.1226
 20
1.02439
  0
SEQEND
  0
POLYLINE
  8
0
 66
1
  0
VERTEX
  8
0
 10
8.11962
 20
1.03629
  0
VERTEX
  8
0
 10
8.11962
 20
1.03629
  0
SEQEND
  0
POLYLINE
  8
0
 66
1
  0
VERTEX
  8
0
 10
8.11548
 20
1.04784
  0
VERTEX
  8
0
 10
8.11548
 20
1.04784
  0
SEQEND
  0
POLYLINE
  8
0
 66
1
  0
VERTEX
  8
0
 10
8.11024
 20
1.05892
  0
VERTEX
  8
0
 10
8.11024
 20
1.05892
  0
SEQEND
  0
POLYLINE
  8
0
 66
1
  0
VERTEX
  8
0
 10
8.10393
 20
1.06945
  0
VERTEX
  8
0
 10
8.10393
 20
1.06945
  0
SEQEND
  0
POLYLINE
  8
0
 66
1
  0
VERTEX
  8
0
 10
8.09663
 20
1.0793
  0
VERTEX
  8
0
 10
8.09663
 20
1.0793
  0
SEQEND
  0
POLYLINE
  8
0
 66
1
  0
VERTEX
  8
0
 10
8.08839
 20
1.08839
  0
VERTEX
  8
0
 10
8.08839
 20
1.08839
  0
SEQEND
  0
POLYLINE
  8
0
 66
1
  0
VERTEX
  8
0
 10
8.0793
 20
1.09663
  0
VERTEX
  8
0
 10
8.0793
 20
1.09663
  0
SEQEND
  0
POLYLINE
  8
0
 66
1
  0
VERTEX
  8
0
 10
8.06945
 20
1.10393
  0
VERTEX
  8
0
 10
8.06945
 20
1.10393
  0
SEQEND
  0
POLYLINE
  8
0
 66
1
  0
VERTEX
  8
0
 10
8.05892
 20
1.11024
  0
VERTEX
  8
0
 10
8.05892
 20
1.11024
  0
SEQEND
  0
POLYLINE
  8
0
 66
1
  0
VERTEX
  8
0
 10
8.04784
 20
1.11548
  0
VERTEX
  8
0
 10
8.04784
 20
1.11548
  0
SEQEND
  0
POLYLINE
  8
0
 66
1
  0
VERTEX
  8
0
 10
8.03629
 20
1.11962
  0
VERTEX
  8
0
 10
8.03629
 20
1.11962
  0
SEQEND
  0
POLYLINE
  8
0
 66
1
  0
VERTEX
  8
0
 10
8.02439
 20
1.1226
  0
VERTEX
  8
0
 10
8.02439
 20
1.1226
  0
SEQEND
  0
POLYLINE
  8
0
 66
1
  0
VERTEX
  8
0
 10
8.01225
 20
1.1244
  0
VERTEX
  8
0
 10
8.01225
 20
1.1244
  0
SEQEND
  0
POLYLINE
  8
0
 66
1
  0
VERTEX
  8
0
 10
8
 20
1.125
  0
VERTEX
  8
0
 10
8
 20
1.125
  0
SEQEND
  0
POLYLINE
  8
0
 66
1
  0
VERTEX
  8
0
 10
7.98775
 20
1.1244
  0
VERTEX
  8
0
 10
7.98775
 20
1.1244
  0
SEQEND
  0
POLYLINE
  8
0
 66
1
  0
VERTEX
  8
0
 10
7.97561
 20
1.1226
  0
VERTEX
  8
0
 10
7.97561
 20
1.1226
  0
SEQEND
  0
POLYLINE
  8
0
 66
1
  0
VERTEX
  8
0
 10
7.96371
 20
1.11962
  0
VERTEX
  8
0
 10
7.96371
 20
1.11962
  0
SEQEND
  0
POLYLINE
  8
0
 66
1
  0
VERTEX
  8
0
 10
7.95216
 20
1.11548
  0
VERTEX
  8
0
 10
7.95216
 20
1.11548
  0
SEQEND
  0
POLYLINE
  8
0
 66
1
  0
VERTEX
  8
0
 10
7.94108
 20
1.11024
  0
VERTEX
  8
0
 10
7.94108
 20
1.11024
  0
SEQEND
  0
POLYLINE
  8
0
 66
1
  0
VERTEX
  8
0
 10
7.93055
 20
1.10393
  0
VERTEX
  8
0
 10
7.93055
 20
1.10393
  0
SEQEND
  0
POLYLINE
  8
0
 66
1
  0
VERTEX
  8
0
 10
7.9207
 20
1.09663
  0
VERTEX
  8
0
 10
7.9207
 20
1.09663
  0
SEQEND
  0
POLYLINE
  8
0
 66
1
  0
VERTEX
  8
0
 10
7.91161
 20
1.08839
  0
VERTEX
  8
0
 10
7.91161
 20
1.08839
  0
SEQEND
  0
POLYLINE
  8
0
 66
1
  0
VERTEX
  8
0
 10
7.90337
 20
1.0793
  0
VERTEX
  8
0
 10
7.90337
 20
1.0793
  0
SEQEND
  0
POLYLINE
  8
0
 66
1
  0
VERTEX
  8
0
 10
7.89607
 20
1.06945
  0
VERTEX
  8
0
 10
7.89607
 20
1.06945
  0
SEQEND
  0
POLYLINE
  8
0
 66
1
  0
VERTEX
  8
0
 10
7.88976
 20
1.05892
  0
VERTEX
  8
0
 10
7.88976
 20
1.05892
  0
SEQEND
  0
POLYLINE
  8
0
 66
1
  0
VERTEX
  8
0
 10
7.88452
 20
1.04784
  0
VERTEX
  8
0
 10
7.88452
 20
1.04784
  0
SEQEND
  0
POLYLINE
  8
0
 66
1
  0
VERTEX
  8
0
 10
7.88038
 20
1.03629
  0
VERTEX
  8
0
 10
7.88038
 20
1.03629
  0
SEQEND
  0
POLYLINE
  8
0
 66
1
  0
VERTEX
  8
0
 10
7.8774
 20
1.02439
  0
VERTEX
  8
0
 10
7.8774
 20
1.02439
  0
SEQEND
  0
POLYLINE
  8
0
 66
1
  0
VERTEX
  8
0
 10
7.8756
 20
1.01225
  0
VERTEX
  8
0
 10
7.8756
 20
1.01225
  0
SEQEND
  0
POLYLINE
  8
0
 66
1
  0
VERTEX
  8
0
 10
7.875
 20
1
  0
VERTEX
  8
0
 10
7.875
 20
1
  0
SEQEND
  0
POLYLINE
  8
0
 66
1
  0
VERTEX
  8
0
 10
7.8756
 20
0.987748
  0
VERTEX
  8
0
 10
7.8756
 20
0.987748
  0
SEQEND
  0
POLYLINE
  8
0
 66
1
  0
VERTEX
  8
0
 10
7.8774
 20
0.975614
  0
VERTEX
  8
0
 10
7.8774
 20
0.975614
  0
SEQEND
  0
POLYLINE
  8
0
 66
1
  0
VERTEX
  8
0
 10
7.88038
 20
0.963714
  0
VERTEX
  8
0
 10
7.88038
 20
0.963714
  0
SEQEND
  0
POLYLINE
  8
0
 66
1
  0
VERTEX
  8
0
 10
7.88452
 20
0.952165
  0
VERTEX
  8
0
 10
7.88452
 20
0.952165
  0
SEQEND
  0
POLYLINE
  8
0
 66
1
  0
VERTEX
  8
0
 10
7.88976
 20
0.941075
  0
VERTEX
  8
0
 10
7.88976
 20
0.941075
  0
SEQEND
  0
POLYLINE
  8
0
 66
1
  0
VERTEX
  8
0
 10
7.89607
 20
0.930554
  0
VERTEX
  8
0
 10
7.89607
 20
0.930554
  0
SEQEND
  0
POLYLINE
  8
0
 66
1
  0
VERTEX
  8
0
 10
7.90337
 20
0.920701
  0
VERTEX
  8
0
 10
7.90337
 20
0.920701
  0
SEQEND
  0
POLYLINE
  8
0
 66
1
  0
VERTEX
  8
0
 10
7.91161
 20
0.911612
  0
VERTEX
  8
0
 10
7.91161
 20
0.911612
  0
SEQEND
  0
POLYLINE
  8
0
 66
1
  0
VERTEX
  8
0
 10
7.9207
 20
0.903374
  0
VERTEX
  8
0
 10
7.9207
 20
0.903374
  0
SEQEND
  0
POLYLINE
  8
0
 66
1
  0
VERTEX
  8
0
 10
7.93055
 20
0.896066
  0
VERTEX
  8
0
 10
7.93055
 20
0.896066
  0
SEQEND
  0
POLYLINE
  8
0
 66
1
  0
VERTEX
  8
0
 10
7.94108
 20
0.88976
  0
VERTEX
  8
0
 10
7.94108
 20
0.88976
  0
SEQEND
  0
POLYLINE
  8
0
 66
1
  0
VERTEX
  8
0
 10
7.95216
 20
0.884515
  0
VERTEX
  8
0
 10
7.95216
 20
0.884515
  0
SEQEND
  0
POLYLINE
  8
0
 66
1
  0
VERTEX
  8
0
 10
7.96371
 20
0.880382
  0
VERTEX
  8
0
 10
7.96371
 20
0.880382
  0
SEQEND
  0
POLYLINE
  8
0
 66
1
  0
VERTEX
  8
0
 10
7.97561
 20
0.877402
  0
VERTEX
  8
0
 10
7.97561
 20
0.877402
  0
SEQEND
  0
POLYLINE
  8
0
 66
1
  0
VERTEX
  8
0
 10
7.98775
 20
0.875602
  0
VERTEX
  8
0
 10
7.98775
 20
0.875602
  0
SEQEND
  0
POLYLINE
  8
0
 66
1
  0
VERTEX
  8
0
 10
8
 20
0.875
  0
VERTEX
  8
0
 10
8
 20
0.875
  0
SEQEND
  0
POLYLINE
  8
0
 66
1
  0
VERTEX
  8
0
 10
8.01225
 20
0.875602
  0
VERTEX
  8
0
 10
8.01225
 20
0.875602
  0
SEQEND
  0
POLYLINE
  8
0
 66
1
  0
VERTEX
  8
0
 10
8.02439
 20
0.877402
  0
VERTEX
  8
0
 10
8.02439
 20
0.877402
  0
SEQEND
  0
POLYLINE
  8
0
 66
1
  0
VERTEX
  8
0
 10
8.03629
 20
0.880382
  0
VERTEX
  8
0
 10
8.03629
 20
0.880382
  0
SEQEND
  0
POLYLINE
  8
0
 66
1
  0
VERTEX
  8
0
 10
8.04784
 20
0.884515
  0
VERTEX
  8
0
 10
8.04784
 20
0.884515
  0
SEQEND
  0
POLYLINE
  8
0
 66
1
  0
VERTEX
  8
0
 10
8.05892
 20
0.88976
  0
VERTEX
  8
0
 10
8.05892
 20
0.88976
  0
SEQEND
  0
POLYLINE
  8
0
 66
1
  0
VERTEX
  8
0
 10
8.06945
 20
0.896066
  0
VERTEX
  8
0
 10
8.06945
 20
0.896066
  0
SEQEND
  0
POLYLINE
  8
0
 66
1
  0
VERTEX
  8
0
 10
8.0793
 20
0.903374
  0
VERTEX
  8
0
 10
8.0793
 20
0.903374
  0
SEQEND
  0
POLYLINE
  8
0
 66
1
  0
VERTEX
  8
0
 10
8.08839
 20
0.911612
  0
VERTEX
  8
0
 10
8.08839
 20
0.911612
  0
SEQEND
  0
POLYLINE
  8
0
 66
1
  0
VERTEX
  8
0
 10
8.09663
 20
0.920701
  0
VERTEX
  8
0
 10
8.09663
 20
0.920701
  0
SEQEND
  0
POLYLINE
  8
0
 66
1
  0
VERTEX
  8
0
 10
8.10393
 20
0.930554
  0
VERTEX
  8
0
 10
8.10393
 20
0.930554
  0
SEQEND
  0
POLYLINE
  8
0
 66
1
  0
VERTEX
  8
0
 10
8.11024
 20
0.941075
  0
VERTEX
  8
0
 10
8.11024
 20
0.941075
  0
SEQEND
  0
POLYLINE
  8
0
 66
1
  0
VERTEX
  8
0
 10
8.11548
 20
0.952165
  0
VERTEX
  8
0
 10
8.11548
 20
0.952165
  0
SEQEND
  0
POLYLINE
  8
0
 66
1
  0
VERTEX
  8
0
 10
8.11962
 20
0.963714
  0
VERTEX
  8
0
 10
8.11962
 20
0.963714
  0
SEQEND
  0
POLYLINE
  8
0
 66
1
  0
VERTEX
  8
0
 10
8.1226
 20
0.975614
  0
VERTEX
  8
0
 10
8.1226
 20
0.975614
  0
SEQEND
  0
POLYLINE
  8
0
 66
1
  0
VERTEX
  8
0
 10
8.1244
 20
0.987748
  0
VERTEX
  8
0
 10
8.1244
 20
0.987748
  0
SEQEND
  0
POLYLINE
  8
0
 66
1
  0
VERTEX
  8
0
 10
11.6155
 20
1.88999
  0
VERTEX
  8
0
 10
11.6196
 20
1.90154
  0
VERTEX
  8
0
 10
11.6226
 20
1.91344
  0
VERTEX
  8
0
 10
11.6244
 20
1.92557
  0
VERTEX
  8
0
 10
11.625
 20
1.93782
  0
VERTEX
  8
0
 10
11.6244
 20
1.95007
  0
VERTEX
  8
0
 10
11.6226
 20
1.96221
  0
VERTEX
  8
0
 10
11.6196
 20
1.97411
  0
VERTEX
  8
0
 10
11.6155
 20
1.98566
  0
VERTEX
  8
0
 10
11.6102
 20
1.99675
  0
VERTEX
  8
0
 10
11.6039
 20
2.00727
  0
VERTEX
  8
0
 10
11.5966
 20
2.01712
  0
VERTEX
  8
0
 10
11.5884
 20
2.02621
  0
VERTEX
  8
0
 10
11.5793
 20
2.03445
  0
VERTEX
  8
0
 10
11.5694
 20
2.04176
  0
VERTEX
  8
0
 10
11.5589
 20
2.04806
  0
VERTEX
  8
0
 10
11.5478
 20
2.05331
  0
VERTEX
  8
0
 10
11.5363
 20
2.05744
  0
VERTEX
  8
0
 10
11.5244
 20
2.06042
  0
VERTEX
  8
0
 10
11.5123
 20
2.06222
  0
VERTEX
  8
0
 10
11.5
 20
2.06282
  0
VERTEX
  8
0
 10
11.4877
 20
2.06222
  0
VERTEX
  8
0
 10
11.4756
 20
2.06042
  0
VERTEX
  8
0
 10
11.4637
 20
2.05744
  0
VERTEX
  8
0
 10
11.4522
 20
2.05331
  0
VERTEX
  8
0
 10
11.4411
 20
2.04806
  0
VERTEX
  8
0
 10
11.4306
 20
2.04176
  0
VERTEX
  8
0
 10
11.4207
 20
2.03445
  0
VERTEX
  8
0
 10
11.4116
 20
2.02621
  0
VERTEX
  8
0
 10
11.4034
 20
2.01712
  0
VERTEX
  8
0
 10
11.3961
 20
2.00727
  0
VERTEX
  8
0
 10
11.3898
 20
1.99675
  0
VERTEX
  8
0
 10
11.3845
 20
1.98566
  0
VERTEX
  8
0
 10
11.3804
 20
1.97411
  0
VERTEX
  8
0
 10
11.3774
 20
1.96221
  0
VERTEX
  8
0
 10
11.3756
 20
1.95007
  0
VERTEX
  8
0
 10
11.375
 20
1.93782
  0
VERTEX
  8
0
 10
11.3756
 20
1.92557
  0
VERTEX
  8
0
 10
11.3774
 20
1.91344
  0
VERTEX
  8
0
 10
11.3804
 20
1.90154
  0
VERTEX
  8
0
 10
11.3845
 20
1.88999
  0
VERTEX
  8
0
 10
11.3898
 20
1.8789
  0
VERTEX
  8
0
 10
11.3961
 20
1.86838
  0
VERTEX
  8
0
 10
11.4034
 20
1.85852
  0
VERTEX
  8
0
 10
11.4116
 20
1.84943
  0
VERTEX
  8
0
 10
11.4207
 20
1.8412
  0
VERTEX
  8
0
 10
11.4306
 20
1.83389
  0
VERTEX
  8
0
 10
11.4411
 20
1.82758
  0
VERTEX
  8
0
 10
11.4522
 20
1.82234
  0
VERTEX
  8
0
 10
11.4637
 20
1.8182
  0
VERTEX
  8
0
 10
11.4756
 20
1.81522
  0
VERTEX
  8
0
 10
11.4877
 20
1.81342
  0
VERTEX
  8
0
 10
11.5
 20
1.81282
  0
VERTEX
  8
0
 10
11.5123
 20
1.81342
  0
VERTEX
  8
0
 10
11.5244
 20
1.81522
  0
VERTEX
  8
0
 10
11.5363
 20
1.8182
  0
VERTEX
  8
0
 10
11.5478
 20
1.82234
  0
VERTEX
  8
0
 10
11.5589
 20
1.82758
  0
VERTEX
  8
0
 10
11.5694
 20
1.83389
  0
VERTEX
  8
0
 10
11.5793
 20
1.8412
  0
VERTEX
  8
0
 10
11.5884
 20
1.84943
  0
VERTEX
  8
0
 10
11.5966
 20
1.85852
  0
VERTEX
  8
0
 10
11.6039
 20
1.86838
  0
VERTEX
  8
0
 10
11.6102
 20
1.8789
  0
VERTEX
  8
0
 10
11.6102
 20
1.8789
  0
SEQEND
  0
POLYLINE
  8
0
 66
1
  0
VERTEX
  8
0
 10
11.6155
 20
1.88999
  0
VERTEX
  8
0
 10
11.6102
 20
1.8789
  0
SEQEND
  0
POLYLINE
  8
0
 66
1
  0
VERTEX
  8
0
 10
11.6155
 20
1.88999
  0
VERTEX
  8
0
 10
11.6155
 20
1.88999
  0
SEQEND
  0
POLYLINE
  8
0
 66
1
  0
VERTEX
  8
0
 10
11.6196
 20
1.90154
  0
VERTEX
  8
0
 10
11.6196
 20
1.90154
  0
SEQEND
  0
POLYLINE
  8
0
 66
1
  0
VERTEX
  8
0
 10
11.6226
 20
1.91344
  0
VERTEX
  8
0
 10
11.6226
 20
1.91344
  0
SEQEND
  0
POLYLINE
  8
0
 66
1
  0
VERTEX
  8
0
 10
11.6244
 20
1.92557
  0
VERTEX
  8
0
 10
11.6244
 20
1.92557
  0
SEQEND
  0
POLYLINE
  8
0
 66
1
  0
VERTEX
  8
0
 10
11.625
 20
1.93782
  0
VERTEX
  8
0
 10
11.625
 20
1.93782
  0
SEQEND
  0
POLYLINE
  8
0
 66
1
  0
VERTEX
  8
0
 10
11.6244
 20
1.95007
  0
VERTEX
  8
0
 10
11.6244
 20
1.95007
  0
SEQEND
  0
POLYLINE
  8
0
 66
1
  0
VERTEX
  8
0
 10
11.6226
 20
1.96221
  0
VERTEX
  8
0
 10
11.6226
 20
1.96221
  0
SEQEND
  0
POLYLINE
  8
0
 66
1
  0
VERTEX
  8
0
 10
11.6196
 20
1.97411
  0
VERTEX
  8
0
 10
11.6196
 20
1.97411
  0
SEQEND
  0
POLYLINE
  8
0
 66
1
  0
VERTEX
  8
0
 10
11.6155
 20
1.98566
  0
VERTEX
  8
0
 10
11.6155
 20
1.98566
  0
SEQEND
  0
POLYLINE
  8
0
 66
1
  0
VERTEX
  8
0
 10
11.6102
 20
1.99675
  0
VERTEX
  8
0
 10
11.6102
 20
1.99675
  0
SEQEND
  0
POLYLINE
  8
0
 66
1
  0
VERTEX
  8
0
 10
11.6039
 20
2.00727
  0
VERTEX
  8
0
 10
11.6039
 20
2.00727
  0
SEQEND
  0
POLYLINE
  8
0
 66
1
  0
VERTEX
  8
0
 10
11.5966
 20
2.01712
  0
VERTEX
  8
0
 10
11.5966
 20
2.01712
  0
SEQEND
  0
POLYLINE
  8
0
 66
1
  0
VERTEX
  8
0
 10
11.5884
 20
2.02621
  0
VERTEX
  8
0
 10
11.5884
 20
2.02621
  0
SEQEND
  0
POLYLINE
  8
0
 66
1
  0
VERTEX
  8
0
 10
11.5793
 20
2.03445
  0
VERTEX
  8
0
 10
11.5793
 20
2.03445
  0
SEQEND
  0
POLYLINE
  8
0
 66
1
  0
VERTEX
  8
0
 10
11.5694
 20
2.04176
  0
VERTEX
  8
0
 10
11.5694
 20
2.04176
  0
SEQEND
  0
POLYLINE
  8
0
 66
1
  0
VERTEX
  8
0
 10
11.5589
 20
2.04806
  0
VERTEX
  8
0
 10
11.5589
 20
2.04806
  0
SEQEND
  0
POLYLINE
  8
0
 66
1
  0
VERTEX
  8
0
 10
11.5478
 20
2.05331
  0
VERTEX
  8
0
 10
11.5478
 20
2.05331
  0
SEQEND
  0
POLYLINE
  8
0
 66
1
  0
VERTEX
  8
0
 10
11.5363
 20
2.05744
  0
VERTEX
  8
0
 10
11.5363
 20
2.05744
  0
SEQEND
  0
POLYLINE
  8
0
 66
1
  0
VERTEX
  8
0
 10
11.5244
 20
2.06042
  0
VERTEX
  8
0
 10
11.5244
 20
2.06042
  0
SEQEND
  0
POLYLINE
  8
0
 66
1
  0
VERTEX
  8
0
 10
11.5123
 20
2.06222
  0
VERTEX
  8
0
 10
11.5123
 20
2.06222
  0
SEQEND
  0
POLYLINE
  8
0
 66
1
  0
VERTEX
  8
0
 10
11.5
 20
2.06282
  0
VERTEX
  8
0
 10
11.5
 20
2.06282
  0
SEQEND
  0
POLYLINE
  8
0
 66
1
  0
VERTEX
  8
0
 10
11.4877
 20
2.06222
  0
VERTEX
  8
0
 10
11.4877
 20
2.06222
  0
SEQEND
  0
POLYLINE
  8
0
 66
1
  0
VERTEX
  8
0
 10
11.4756
 20
2.06042
  0
VERTEX
  8
0
 10
11.4756
 20
2.06042
  0
SEQEND
  0
POLYLINE
  8
0
 66
1
  0
VERTEX
  8
0
 10
11.4637
 20
2.05744
  0
VERTEX
  8
0
 10
11.4637
 20
2.05744
  0
SEQEND
  0
POLYLINE
  8
0
 66
1
  0
VERTEX
  8
0
 10
11.4522
 20
2.05331
  0
VERTEX
  8
0
 10
11.4522
 20
2.05331
  0
SEQEND
  0
POLYLINE
  8
0
 66
1
  0
VERTEX
  8
0
 10
11.4411
 20
2.04806
  0
VERTEX
  8
0
 10
11.4411
 20
2.04806
  0
SEQEND
  0
POLYLINE
  8
0
 66
1
  0
VERTEX
  8
0
 10
11.4306
 20
2.04176
  0
VERTEX
  8
0
 10
11.4306
 20
2.04176
  0
SEQEND
  0
POLYLINE
  8
0
 66
1
  0
VERTEX
  8
0
 10
11.4207
 20
2.03445
  0
VERTEX
  8
0
 10
11.4207
 20
2.03445
  0
SEQEND
  0
POLYLINE
  8
0
 66
1
  0
VERTEX
  8
0
 10
11.4116
 20
2.02621
  0
VERTEX
  8
0
 10
11.4116
 20
2.02621
  0
SEQEND
  0
POLYLINE
  8
0
 66
1
  0
VERTEX
  8
0
 10
11.4034
 20
2.01712
  0
VERTEX
  8
0
 10
11.4034
 20
2.01712
  0
SEQEND
  0
POLYLINE
  8
0
 66
1
  0
VERTEX
  8
0
 10
11.3961
 20
2.00727
  0
VERTEX
  8
0
 10
11.3961
 20
2.00727
  0
SEQEND
  0
POLYLINE
  8
0
 66
1
  0
VERTEX
  8
0
 10
11.3898
 20
1.99675
  0
VERTEX
  8
0
 10
11.3898
 20
1.99675
  0
SEQEND
  0
POLYLINE
  8
0
 66
1
  0
VERTEX
  8
0
 10
11.3845
 20
1.98566
  0
VERTEX
  8
0
 10
11.3845
 20
1.98566
  0
SEQEND
  0
POLYLINE
  8
0
 66
1
  0
VERTEX
  8
0
 10
11.3804
 20
1.97411
  0
VERTEX
  8
0
 10
11.3804
 20
1.97411
  0
SEQEND
  0
POLYLINE
  8
0
 66
1
  0
VERTEX
  8
0
 10
11.3774
 20
1.96221
  0
VERTEX
  8
0
 10
11.3774
 20
1.96221
  0
SEQEND
  0
POLYLINE
  8
0
 66
1
  0
VERTEX
  8
0
 10
11.3756
 20
1.95007
  0
VERTEX
  8
0
 10
11.3756
 20
1.95007
  0
SEQEND
  0
POLYLINE
  8
0
 66
1
  0
VERTEX
  8
0
 10
11.375
 20
1.93782
  0
VERTEX
  8
0
 10
11.375
 20
1.93782
  0
SEQEND
  0
POLYLINE
  8
0
 66
1
  0
VERTEX
  8
0
 10
11.3756
 20
1.92557
  0
VERTEX
  8
0
 10
11.3756
 20
1.92557
  0
SEQEND
  0
POLYLINE
  8
0
 66
1
  0
VERTEX
  8
0
 10
11.3774
 20
1.91344
  0
VERTEX
  8
0
 10
11.3774
 20
1.91344
  0
SEQEND
  0
POLYLINE
  8
0
 66
1
  0
VERTEX
  8
0
 10
11.3804
 20
1.90154
  0
VERTEX
  8
0
 10
11.3804
 20
1.90154
  0
SEQEND
  0
POLYLINE
  8
0
 66
1
  0
VERTEX
  8
0
 10
11.3845
 20
1.88999
  0
VERTEX
  8
0
 10
11.3845
 20
1.88999
  0
SEQEND
  0
POLYLINE
  8
0
 66
1
  0
VERTEX
  8
0
 10
11.3898
 20
1.8789
  0
VERTEX
  8
0
 10
11.3898
 20
1.8789
  0
SEQEND
  0
POLYLINE
  8
0
 66
1
  0
VERTEX
  8
0
 10
11.3961
 20
1.86838
  0
VERTEX
  8
0
 10
11.3961
 20
1.86838
  0
SEQEND
  0
POLYLINE
  8
0
 66
1
  0
VERTEX
  8
0
 10
11.4034
 20
1.85852
  0
VERTEX
  8
0
 10
11.4034
 20
1.85852
  0
SEQEND
  0
POLYLINE
  8
0
 66
1
  0
VERTEX
  8
0
 10
11.4116
 20
1.84943
  0
VERTEX
  8
0
 10
11.4116
 20
1.84943
  0
SEQEND
  0
POLYLINE
  8
0
 66
1
  0
VERTEX
  8
0
 10
11.4207
 20
1.8412
  0
VERTEX
  8
0
 10
11.4207
 20
1.8412
  0
SEQEND
  0
POLYLINE
  8
0
 66
1
  0
VERTEX
  8
0
 10
11.4306
 20
1.83389
  0
VERTEX
  8
0
 10
11.4306
 20
1.83389
  0
SEQEND
  0
POLYLINE
  8
0
 66
1
  0
VERTEX
  8
0
 10
11.4411
 20
1.82758
  0
VERTEX
  8
0
 10
11.4411
 20
1.82758
  0
SEQEND
  0
POLYLINE
  8
0
 66
1
  0
VERTEX
  8
0
 10
11.4522
 20
1.82234
  0
VERTEX
  8
0
 10
11.4522
 20
1.82234
  0
SEQEND
  0
POLYLINE
  8
0
 66
1
  0
VERTEX
  8
0
 10
11.4637
 20
1.8182
  0
VERTEX
  8
0
 10
11.4637
 20
1.8182
  0
SEQEND
  0
POLYLINE
  8
0
 66
1
  0
VERTEX
  8
0
 10
11.4756
 20
1.81522
  0
VERTEX
  8
0
 10
11.4756
 20
1.81522
  0
SEQEND
  0
POLYLINE
  8
0
 66
1
  0
VERTEX
  8
0
 10
11.4877
 20
1.81342
  0
VERTEX
  8
0
 10
11.4877
 20
1.81342
  0
SEQEND
  0
POLYLINE
  8
0
 66
1
  0
VERTEX
  8
0
 10
11.5
 20
1.81282
  0
VERTEX
  8
0
 10
11.5
 20
1.81282
  0
SEQEND
  0
POLYLINE
  8
0
 66
1
  0
VERTEX
  8
0
 10
11.5123
 20
1.81342
  0
VERTEX
  8
0
 10
11.5123
 20
1.81342
  0
SEQEND
  0
POLYLINE
  8
0
 66
1
  0
VERTEX
  8
0
 10
11.5244
 20
1.81522
  0
VERTEX
  8
0
 10
11.5244
 20
1.81522
  0
SEQEND
  0
POLYLINE
  8
0
 66
1
  0
VERTEX
  8
0
 10
11.5363
 20
1.8182
  0
VERTEX
  8
0
 10
11.5363
 20
1.8182
  0
SEQEND
  0
POLYLINE
  8
0
 66
1
  0
VERTEX
  8
0
 10
11.5478
 20
1.82234
  0
VERTEX
  8
0
 10
11.5478
 20
1.82234
  0
SEQEND
  0
POLYLINE
  8
0
 66
1
  0
VERTEX
  8
0
 10
11.5589
 20
1.82758
  0
VERTEX
  8
0
 10
11.5589
 20
1.82758
  0
SEQEND
  0
POLYLINE
  8
0
 66
1
  0
VERTEX
  8
0
 10
11.5694
 20
1.83389
  0
VERTEX
  8
0
 10
11.5694
 20
1.83389
  0
SEQEND
  0
POLYLINE
  8
0
 66
1
  0
VERTEX
  8
0
 10
11.5793
 20
1.8412
  0
VERTEX
  8
0
 10
11.5793
 20
1.8412
  0
SEQEND
  0
POLYLINE
  8
0
 66
1
  0
VERTEX
  8
0
 10
11.5884
 20
1.84943
  0
VERTEX
  8
0
 10
11.5884
 20
1.84943
  0
SEQEND
  0
POLYLINE
  8
0
 66
1
  0
VERTEX
  8
0
 10
11.5966
 20
1.85852
  0
VERTEX
  8
0
 10
11.5966
 20
1.85852
  0
SEQEND
  0
POLYLINE
  8
0
 66
1
  0
VERTEX
  8
0
 10
11.6039
 20
1.86838
  0
VERTEX
  8
0
 10
11.6039
 20
1.86838
  0
SEQEND
  0
POLYLINE
  8
0
 66
1
  0
VERTEX
  8
0
 10
13.9467
 20
4.45216
  0
VERTEX
  8
0
 10
13.9519
 20
4.44108
  0
VERTEX
  8
0
 10
13.9582
 20
4.43055
  0
VERTEX
  8
0
 10
13.9656
 20
4.4207
  0
VERTEX
  8
0
 10
13.9738
 20
4.41161
  0
VERTEX
  8
0
 10
13.9829
 20
4.40337
  0
VERTEX
  8
0
 10
13.9927
 20
4.39607
  0
VERTEX
  8
0
 10
14.0033
 20
4.38976
  0
VERTEX
  8
0
 10
14.0143
 20
4.38452
  0
VERTEX
  8
0
 10
14.0259
 20
4.38038
  0
VERTEX
  8
0
 10
14.0378
 20
4.3774
  0
VERTEX
  8
0
 10
14.0499
 20
4.3756
  0
VERTEX
  8
0
 10
14.0622
 20
4.375
  0
VERTEX
  8
0
 10
14.0744
 20
4.3756
  0
VERTEX
  8
0
 10
14.0866
 20
4.3774
  0
VERTEX
  8
0
 10
14.0985
 20
4.38038
  0
VERTEX
  8
0
 10
14.11
 20
4.38452
  0
VERTEX
  8
0
 10
14.1211
 20
4.38976
  0
VERTEX
  8
0
 10
14.1316
 20
4.39607
  0
VERTEX
  8
0
 10
14.1415
 20
4.40337
  0
VERTEX
  8
0
 10
14.1506
 20
4.41161
  0
VERTEX
  8
0
 10
14.1588
 20
4.4207
  0
VERTEX
  8
0
 10
14.1661
 20
4.43055
  0
VERTEX
  8
0
 10
14.1724
 20
4.44108
  0
VERTEX
  8
0
 10
14.1777
 20
4.45216
  0
VERTEX
  8
0
 10
14.1818
 20
4.46371
  0
VERTEX
  8
0
 10
14.1848
 20
4.47561
  0
VERTEX
  8
0
 10
14.1866
 20
4.48775
  0
VERTEX
  8
0
 10
14.1872
 20
4.5
  0
VERTEX
  8
0
 10
14.1866
 20
4.51225
  0
VERTEX
  8
0
 10
14.1848
 20
4.52439
  0
VERTEX
  8
0
 10
14.1818
 20
4.53629
  0
VERTEX
  8
0
 10
14.1777
 20
4.54784
  0
VERTEX
  8
0
 10
14.1724
 20
4.55892
  0
VERTEX
  8
0
 10
14.1661
 20
4.56945
  0
VERTEX
  8
0
 10
14.1588
 20
4.5793
  0
VERTEX
  8
0
 10
14.1506
 20
4.58839
  0
VERTEX
  8
0
 10
14.1415
 20
4.59663
  0
VERTEX
  8
0
 10
14.1316
 20
4.60393
  0
VERTEX
  8
0
 10
14.1211
 20
4.61024
  0
VERTEX
  8
0
 10
14.11
 20
4.61548
  0
VERTEX
  8
0
 10
14.0985
 20
4.61962
  0
VERTEX
  8
0
 10
14.0866
 20
4.6226
  0
VERTEX
  8
0
 10
14.0744
 20
4.6244
  0
VERTEX
  8
0
 10
14.0622
 20
4.625
  0
VERTEX
  8
0
 10
14.0499
 20
4.6244
  0
VERTEX
  8
0
 10
14.0378
 20
4.6226
  0
VERTEX
  8
0
 10
14.0259
 20
4.61962
  0
VERTEX
  8
0
 10
14.0143
 20
4.61548
  0
VERTEX
  8
0
 10
14.0033
 20
4.61024
  0
VERTEX
  8
0
 10
13.9927
 20
4.60393
  0
VERTEX
  8
0
 10
13.9829
 20
4.59663
  0
VERTEX
  8
0
 10
13.9738
 20
4.58839
  0
VERTEX
  8
0
 10
13.9656
 20
4.5793
  0
VERTEX
  8
0
 10
13.9582
 20
4.56945
  0
VERTEX
  8
0
 10
13.9519
 20
4.55892
  0
VERTEX
  8
0
 10
13.9467
 20
4.54784
  0
VERTEX
  8
0
 10
13.9426
 20
4.53629
  0
VERTEX
  8
0
 10
13.9396
 20
4.52439
  0
VERTEX
  8
0
 10
13.9378
 20
4.51225
  0
VERTEX
  8
0
 10
13.9372
 20
4.5
  0
VERTEX
  8
0
 10
13.9378
 20
4.48775
  0
VERTEX
  8
0
 10
13.9396
 20
4.47561
  0
VERTEX
  8
0
 10
13.9426
 20
4.46371
  0
VERTEX
  8
0
 10
13.9426
 20
4.46371
  0
SEQEND
  0
POLYLINE
  8
0
 66
1
  0
VERTEX
  8
0
 10
13.9467
 20
4.45216
  0
VERTEX
  8
0
 10
13.9426
 20
4.46371
  0
SEQEND
  0
POLYLINE
  8
0
 66
1
  0
VERTEX
  8
0
 10
13.9467
 20
4.45216
  0
VERTEX
  8
0
 10
13.9467
 20
4.45216
  0
SEQEND
  0
POLYLINE
  8
0
 66
1
  0
VERTEX
  8
0
 10
13.9519
 20
4.44108
  0
VERTEX
  8
0
 10
13.9519
 20
4.44108
  0
SEQEND
  0
POLYLINE
  8
0
 66
1
  0
VERTEX
  8
0
 10
13.9582
 20
4.43055
  0
VERTEX
  8
0
 10
13.9582
 20
4.43055
  0
SEQEND
  0
POLYLINE
  8
0
 66
1
  0
VERTEX
  8
0
 10
13.9656
 20
4.4207
  0
VERTEX
  8
0
 10
13.9656
 20
4.4207
  0
SEQEND
  0
POLYLINE
  8
0
 66
1
  0
VERTEX
  8
0
 10
13.9738
 20
4.41161
  0
VERTEX
  8
0
 10
13.9738
 20
4.41161
  0
SEQEND
  0
POLYLINE
  8
0
 66
1
  0
VERTEX
  8
0
 10
13.9829
 20
4.40337
  0
VERTEX
  8
0
 10
13.9829
 20
4.40337
  0
SEQEND
  0
POLYLINE
  8
0
 66
1
  0
VERTEX
  8
0
 10
13.9927
 20
4.39607
  0
VERTEX
  8
0
 10
13.9927
 20
4.39607
  0
SEQEND
  0
POLYLINE
  8
0
 66
1
  0
VERTEX
  8
0
 10
14.0033
 20
4.38976
  0
VERTEX
  8
0
 10
14.0033
 20
4.38976
  0
SEQEND
  0
POLYLINE
  8
0
 66
1
  0
VERTEX
  8
0
 10
14.0143
 20
4.38452
  0
VERTEX
  8
0
 10
14.0143
 20
4.38452
  0
SEQEND
  0
POLYLINE
  8
0
 66
1
  0
VERTEX
  8
0
 10
14.0259
 20
4.38038
  0
VERTEX
  8
0
 10
14.0259
 20
4.38038
  0
SEQEND
  0
POLYLINE
  8
0
 66
1
  0
VERTEX
  8
0
 10
14.0378
 20
4.3774
  0
VERTEX
  8
0
 10
14.0378
 20
4.3774
  0
SEQEND
  0
POLYLINE
  8
0
 66
1
  0
VERTEX
  8
0
 10
14.0499
 20
4.3756
  0
VERTEX
  8
0
 10
14.0499
 20
4.3756
  0
SEQEND
  0
POLYLINE
  8
0
 66
1
  0
VERTEX
  8
0
 10
14.0622
 20
4.375
  0
VERTEX
  8
0
 10
14.0622
 20
4.375
  0
SEQEND
  0
POLYLINE
  8
0
 66
1
  0
VERTEX
  8
0
 10
14.0744
 20
4.3756
  0
VERTEX
  8
0
 10
14.0744
 20
4.3756
  0
SEQEND
  0
POLYLINE
  8
0
 66
1
  0
VERTEX
  8
0
 10
14.0866
 20
4.3774
  0
VERTEX
  8
0
 10
14.0866
 20
4.3774
  0
SEQEND
  0
POLYLINE
  8
0
 66
1
  0
VERTEX
  8
0
 10
14.0985
 20
4.38038
  0
VERTEX
  8
0
 10
14.0985
 20
4.38038
  0
SEQEND
  0
POLYLINE
  8
0
 66
1
  0
VERTEX
  8
0
 10
14.11
 20
4.38452
  0
VERTEX
  8
0
 10
14.11
 20
4.38452
  0
SEQEND
  0
POLYLINE
  8
0
 66
1
  0
VERTEX
  8
0
 10
14.1211
 20
4.38976
  0
VERTEX
  8
0
 10
14.1211
 20
4.38976
  0
SEQEND
  0
POLYLINE
  8
0
 66
1
  0
VERTEX
  8
0
 10
14.1316
 20
4.39607
  0
VERTEX
  8
0
 10
14.1316
 20
4.39607
  0
SEQEND
  0
POLYLINE
  8
0
 66
1
  0
VERTEX
  8
0
 10
14.1415
 20
4.40337
  0
VERTEX
  8
0
 10
14.1415
 20
4.40337
  0
SEQEND
  0
POLYLINE
  8
0
 66
1
  0
VERTEX
  8
0
 10
14.1506
 20
4.41161
  0
VERTEX
  8
0
 10
14.1506
 20
4.41161
  0
SEQEND
  0
POLYLINE
  8
0
 66
1
  0
VERTEX
  8
0
 10
14.1588
 20
4.4207
  0
VERTEX
  8
0
 10
14.1588
 20
4.4207
  0
SEQEND
  0
POLYLINE
  8
0
 66
1
  0
VERTEX
  8
0
 10
14.1661
 20
4.43055
  0
VERTEX
  8
0
 10
14.1661
 20
4.43055
  0
SEQEND
  0
POLYLINE
  8
0
 66
1
  0
VERTEX
  8
0
 10
14.1724
 20
4.44108
  0
VERTEX
  8
0
 10
14.1724
 20
4.44108
  0
SEQEND
  0
POLYLINE
  8
0
 66
1
  0
VERTEX
  8
0
 10
14.1777
 20
4.45216
  0
VERTEX
  8
0
 10
14.1777
 20
4.45216
  0
SEQEND
  0
POLYLINE
  8
0
 66
1
  0
VERTEX
  8
0
 10
14.1818
 20
4.46371
  0
VERTEX
  8
0
 10
14.1818
 20
4.46371
  0
SEQEND
  0
POLYLINE
  8
0
 66
1
  0
VERTEX
  8
0
 10
14.1848
 20
4.47561
  0
VERTEX
  8
0
 10
14.1848
 20
4.47561
  0
SEQEND
  0
POLYLINE
  8
0
 66
1
  0
VERTEX
  8
0
 10
14.1866
 20
4.48775
  0
VERTEX
  8
0
 10
14.1866
 20
4.48775
  0
SEQEND
  0
POLYLINE
  8
0
 66
1
  0
VERTEX
  8
0
 10
14.1872
 20
4.5
  0
VERTEX
  8
0
 10
14.1872
 20
4.5
  0
SEQEND
  0
POLYLINE
  8
0
 66
1
  0
VERTEX
  8
0
 10
14.1866
 20
4.51225
  0
VERTEX
  8
0
 10
14.1866
 20
4.51225
  0
SEQEND
  0
POLYLINE
  8
0
 66
1
  0
VERTEX
  8
0
 10
14.1848
 20
4.52439
  0
VERTEX
  8
0
 10
14.1848
 20
4.52439
  0
SEQEND
  0
POLYLINE
  8
0
 66
1
  0
VERTEX
  8
0
 10
14.1818
 20
4.53629
  0
VERTEX
  8
0
 10
14.1818
 20
4.53629
  0
SEQEND
  0
POLYLINE
  8
0
 66
1
  0
VERTEX
  8
0
 10
14.1777
 20
4.54784
  0
VERTEX
  8
0
 10
14.1777
 20
4.54784
  0
SEQEND
  0
POLYLINE
  8
0
 66
1
  0
VERTEX
  8
0
 10
14.1724
 20
4.55892
  0
VERTEX
  8
0
 10
14.1724
 20
4.55892
  0
SEQEND
  0
POLYLINE
  8
0
 66
1
  0
VERTEX
  8
0
 10
14.1661
 20
4.56945
  0
VERTEX
  8
0
 10
14.1661
 20
4.56945
  0
SEQEND
  0
POLYLINE
  8
0
 66
1
  0
VERTEX
  8
0
 10
14.1588
 20
4.5793
  0
VERTEX
  8
0
 10
14.1588
 20
4.5793
  0
SEQEND
  0
POLYLINE
  8
0
 66
1
  0
VERTEX
  8
0
 10
14.1506
 20
4.58839
  0
VERTEX
  8
0
 10
14.1506
 20
4.58839
  0
SEQEND
  0
POLYLINE
  8
0
 66
1
  0
VERTEX
  8
0
 10
14.1415
 20
4.59663
  0
VERTEX
  8
0
 10
14.1415
 20
4.59663
  0
SEQEND
  0
POLYLINE
  8
0
 66
1
  0
VERTEX
  8
0
 10
14.1316
 20
4.60393
  0
VERTEX
  8
0
 10
14.1316
 20
4.60393
  0
SEQEND
  0
POLYLINE
  8
0
 66
1
  0
VERTEX
  8
0
 10
14.1211
 20
4.61024
  0
VERTEX
  8
0
 10
14.1211
 20
4.61024
  0
SEQEND
  0
POLYLINE
  8
0
 66
1
  0
VERTEX
  8
0
 10
14.11
 20
4.61548
  0
VERTEX
  8
0
 10
14.11
 20
4.61548
  0
SEQEND
  0
POLYLINE
  8
0
 66
1
  0
VERTEX
  8
0
 10
14.0985
 20
4.61962
  0
VERTEX
  8
0
 10
14.0985
 20
4.61962
  0
SEQEND
  0
POLYLINE
  8
0
 66
1
  0
VERTEX
  8
0
 10
14.0866
 20
4.6226
  0
VERTEX
  8
0
 10
14.0866
 20
4.6226
  0
SEQEND
  0
POLYLINE
  8
0
 66
1
  0
VERTEX
  8
0
 10
14.0744
 20
4.6244
  0
VERTEX
  8
0
 10
14.0744
 20
4.6244
  0
SEQEND
  0
POLYLINE
  8
0
 66
1
  0
VERTEX
  8
0
 10
14.0622
 20
4.625
  0
VERTEX
  8
0
 10
14.0622
 20
4.625
  0
SEQEND
  0
POLYLINE
  8
0
 66
1
  0
VERTEX
  8
0
 10
14.0499
 20
4.6244
  0
VERTEX
  8
0
 10
14.0499
 20
4.6244
  0
SEQEND
  0
POLYLINE
  8
0
 66
1
  0
VERTEX
  8
0
 10
14.0378
 20
4.6226
  0
VERTEX
  8
0
 10
14.0378
 20
4.6226
  0
SEQEND
  0
POLYLINE
  8
0
 66
1
  0
VERTEX
  8
0
 10
14.0259
 20
4.61962
  0
VERTEX
  8
0
 10
14.0259
 20
4.61962
  0
SEQEND
  0
POLYLINE
  8
0
 66
1
  0
VERTEX
  8
0
 10
14.0143
 20
4.61548
  0
VERTEX
  8
0
 10
14.0143
 20
4.61548
  0
SEQEND
  0
POLYLINE
  8
0
 66
1
  0
VERTEX
  8
0
 10
14.0033
 20
4.61024
  0
VERTEX
  8
0
 10
14.0033
 20
4.61024
  0
SEQEND
  0
POLYLINE
  8
0
 66
1
  0
VERTEX
  8
0
 10
13.9927
 20
4.60393
  0
VERTEX
  8
0
 10
13.9927
 20
4.60393
  0
SEQEND
  0
POLYLINE
  8
0
 66
1
  0
VERTEX
  8
0
 10
13.9829
 20
4.59663
  0
VERTEX
  8
0
 10
13.9829
 20
4.59663
  0
SEQEND
  0
POLYLINE
  8
0
 66
1
  0
VERTEX
  8
0
 10
13.9738
 20
4.58839
  0
VERTEX
  8
0
 10
13.9738
 20
4.58839
  0
SEQEND
  0
POLYLINE
  8
0
 66
1
  0
VERTEX
  8
0
 10
13.9656
 20
4.5793
  0
VERTEX
  8
0
 10
13.9656
 20
4.5793
  0
SEQEND
  0
POLYLINE
  8
0
 66
1
  0
VERTEX
  8
0
 10
13.9582
 20
4.56945
  0
VERTEX
  8
0
 10
13.9582
 20
4.56945
  0
SEQEND
  0
POLYLINE
  8
0
 66
1
  0
VERTEX
  8
0
 10
13.9519
 20
4.55892
  0
VERTEX
  8
0
 10
13.9519
 20
4.55892
  0
SEQEND
  0
POLYLINE
  8
0
 66
1
  0
VERTEX
  8
0
 10
13.9467
 20
4.54784
  0
VERTEX
  8
0
 10
13.9467
 20
4.54784
  0
SEQEND
  0
POLYLINE
  8
0
 66
1
  0
VERTEX
  8
0
 10
13.9426
 20
4.53629
  0
VERTEX
  8
0
 10
13.9426
 20
4.53629
  0
SEQEND
  0
POLYLINE
  8
0
 66
1
  0
VERTEX
  8
0
 10
13.9396
 20
4.52439
  0
VERTEX
  8
0
 10
13.9396
 20
4.52439
  0
SEQEND
  0
POLYLINE
  8
0
 66
1
  0
VERTEX
  8
0
 10
13.9378
 20
4.51225
  0
VERTEX
  8
0
 10
13.9378
 20
4.51225
  0
SEQEND
  0
POLYLINE
  8
0
 66
1
  0
VERTEX
  8
0
 10
13.9372
 20
4.5
  0
VERTEX
  8
0
 10
13.9372
 20
4.5
  0
SEQEND
  0
POLYLINE
  8
0
 66
1
  0
VERTEX
  8
0
 10
13.9378
 20
4.48775
  0
VERTEX
  8
0
 10
13.9378
 20
4.48775
  0
SEQEND
  0
POLYLINE
  8
0
 66
1
  0
VERTEX
  8
0
 10
13.9396
 20
4.47561
  0
VERTEX
  8
0
 10
13.9396
 20
4.47561
  0
SEQEND
  0
POLYLINE
  8
0
 66
1
  0
VERTEX
  8
0
 10
14.8898
 20
7.94108
  0
VERTEX
  8
0
 10
14.8961
 20
7.93055
  0
VERTEX
  8
0
 10
14.9034
 20
7.9207
  0
VERTEX
  8
0
 10
14.9116
 20
7.91161
  0
VERTEX
  8
0
 10
14.9207
 20
7.90337
  0
VERTEX
  8
0
 10
14.9306
 20
7.89607
  0
VERTEX
  8
0
 10
14.9411
 20
7.88976
  0
VERTEX
  8
0
 10
14.9522
 20
7.88452
  0
VERTEX
  8
0
 10
14.9637
 20
7.88038
  0
VERTEX
  8
0
 10
14.9756
 20
7.8774
  0
VERTEX
  8
0
 10
14.9877
 20
7.8756
  0
VERTEX
  8
0
 10
15
 20
7.875
  0
VERTEX
  8
0
 10
15.0123
 20
7.8756
  0
VERTEX
  8
0
 10
15.0244
 20
7.8774
  0
VERTEX
  8
0
 10
15.0363
 20
7.88038
  0
VERTEX
  8
0
 10
15.0478
 20
7.88452
  0
VERTEX
  8
0
 10
15.0589
 20
7.88976
  0
VERTEX
  8
0
 10
15.0694
 20
7.89607
  0
VERTEX
  8
0
 10
15.0793
 20
7.90337
  0
VERTEX
  8
0
 10
15.0884
 20
7.91161
  0
VERTEX
  8
0
 10
15.0966
 20
7.9207
  0
VERTEX
  8
0
 10
15.1039
 20
7.93055
  0
VERTEX
  8
0
 10
15.1102
 20
7.94108
  0
VERTEX
  8
0
 10
15.1155
 20
7.95216
  0
VERTEX
  8
0
 10
15.1196
 20
7.96371
  0
VERTEX
  8
0
 10
15.1226
 20
7.97561
  0
VERTEX
  8
0
 10
15.1244
 20
7.98775
  0
VERTEX
  8
0
 10
15.125
 20
8
  0
VERTEX
  8
0
 10
15.1244
 20
8.01225
  0
VERTEX
  8
0
 10
15.1226
 20
8.02439
  0
VERTEX
  8
0
 10
15.1196
 20
8.03629
  0
VERTEX
  8
0
 10
15.1155
 20
8.04784
  0
VERTEX
  8
0
 10
15.1102
 20
8.05892
  0
VERTEX
  8
0
 10
15.1039
 20
8.06945
  0
VERTEX
  8
0
 10
15.0966
 20
8.0793
  0
VERTEX
  8
0
 10
15.0884
 20
8.08839
  0
VERTEX
  8
0
 10
15.0793
 20
8.09663
  0
VERTEX
  8
0
 10
15.0694
 20
8.10393
  0
VERTEX
  8
0
 10
15.0589
 20
8.11024
  0
VERTEX
  8
0
 10
15.0478
 20
8.11548
  0
VERTEX
  8
0
 10
15.0363
 20
8.11962
  0
VERTEX
  8
0
 10
15.0244
 20
8.1226
  0
VERTEX
  8
0
 10
15.0123
 20
8.1244
  0
VERTEX
  8
0
 10
15
 20
8.125
  0
VERTEX
  8
0
 10
14.9877
 20
8.1244
  0
VERTEX
  8
0
 10
14.9756
 20
8.1226
  0
VERTEX
  8
0
 10
14.9637
 20
8.11962
  0
VERTEX
  8
0
 10
14.9522
 20
8.11548
  0
VERTEX
  8
0
 10
14.9411
 20
8.11024
  0
VERTEX
  8
0
 10
14.9306
 20
8.10393
  0
VERTEX
  8
0
 10
14.9207
 20
8.09663
  0
VERTEX
  8
0
 10
14.9116
 20
8.08839
  0
VERTEX
  8
0
 10
14.9034
 20
8.0793
  0
VERTEX
  8
0
 10
14.8961
 20
8.06945
  0
VERTEX
  8
0
 10
14.8898
 20
8.05892
  0
VERTEX
  8
0
 10
14.8845
 20
8.04784
  0
VERTEX
  8
0
 10
14.8804
 20
8.03629
  0
VERTEX
  8
0
 10
14.8774
 20
8.02439
  0
VERTEX
  8
0
 10
14.8756
 20
8.01225
  0
VERTEX
  8
0
 10
14.875
 20
8
  0
VERTEX
  8
0
 10
14.8756
 20
7.98775
  0
VERTEX
  8
0
 10
14.8774
 20
7.97561
  0
VERTEX
  8
0
 10
14.8804
 20
7.96371
  0
VERTEX
  8
0
 10
14.8845
 20
7.95216
  0
VERTEX
  8
0
 10
14.8845
 20
7.95216
  0
SEQEND
  0
POLYLINE
  8
0
 66
1
  0
VERTEX
  8
0
 10
14.8898
 20
7.94108
  0
VERTEX
  8
0
 10
14.8845
 20
7.95216
  0
SEQEND
  0
POLYLINE
  8
0
 66
1
  0
VERTEX
  8
0
 10
14.8898
 20
7.94108
  0
VERTEX
  8
0
 10
14.8898
 20
7.94108
  0
SEQEND
  0
POLYLINE
  8
0
 66
1
  0
VERTEX
  8
0
 10
14.8961
 20
7.93055
  0
VERTEX
  8
0
 10
14.8961
 20
7.93055
  0
SEQEND
  0
POLYLINE
  8
0
 66
1
  0
VERTEX
  8
0
 10
14.9034
 20
7.9207
  0
VERTEX
  8
0
 10
14.9034
 20
7.9207
  0
SEQEND
  0
POLYLINE
  8
0
 66
1
  0
VERTEX
  8
0
 10
14.9116
 20
7.91161
  0
VERTEX
  8
0
 10
14.9116
 20
7.91161
  0
SEQEND
  0
POLYLINE
  8
0
 66
1
  0
VERTEX
  8
0
 10
14.9207
 20
7.90337
  0
VERTEX
  8
0
 10
14.9207
 20
7.90337
  0
SEQEND
  0
POLYLINE
  8
0
 66
1
  0
VERTEX
  8
0
 10
14.9306
 20
7.89607
  0
VERTEX
  8
0
 10
14.9306
 20
7.89607
  0
SEQEND
  0
POLYLINE
  8
0
 66
1
  0
VERTEX
  8
0
 10
14.9411
 20
7.88976
  0
VERTEX
  8
0
 10
14.9411
 20
7.88976
  0
SEQEND
  0
POLYLINE
  8
0
 66
1
  0
VERTEX
  8
0
 10
14.9522
 20
7.88452
  0
VERTEX
  8
0
 10
14.9522
 20
7.88452
  0
SEQEND
  0
POLYLINE
  8
0
 66
1
  0
VERTEX
  8
0
 10
14.9637
 20
7.88038
  0
VERTEX
  8
0
 10
14.9637
 20
7.88038
  0
SEQEND
  0
POLYLINE
  8
0
 66
1
  0
VERTEX
  8
0
 10
14.9756
 20
7.8774
  0
VERTEX
  8
0
 10
14.9756
 20
7.8774
  0
SEQEND
  0
POLYLINE
  8
0
 66
1
  0
VERTEX
  8
0
 10
14.9877
 20
7.8756
  0
VERTEX
  8
0
 10
14.9877
 20
7.8756
  0
SEQEND
  0
POLYLINE
  8
0
 66
1
  0
VERTEX
  8
0
 10
15
 20
7.875
  0
VERTEX
  8
0
 10
15
 20
7.875
  0
SEQEND
  0
POLYLINE
  8
0
 66
1
  0
VERTEX
  8
0
 10
15.0123
 20
7.8756
  0
VERTEX
  8
0
 10
15.0123
 20
7.8756
  0
SEQEND
  0
POLYLINE
  8
0
 66
1
  0
VERTEX
  8
0
 10
15.0244
 20
7.8774
  0
VERTEX
  8
0
 10
15.0244
 20
7.8774
  0
SEQEND
  0
POLYLINE
  8
0
 66
1
  0
VERTEX
  8
0
 10
15.0363
 20
7.88038
  0
VERTEX
  8
0
 10
15.0363
 20
7.88038
  0
SEQEND
  0
POLYLINE
  8
0
 66
1
  0
VERTEX
  8
0
 10
15.0478
 20
7.88452
  0
VERTEX
  8
0
 10
15.0478
 20
7.88452
  0
SEQEND
  0
POLYLINE
  8
0
 66
1
  0
VERTEX
  8
0
 10
15.0589
 20
7.88976
  0
VERTEX
  8
0
 10
15.0589
 20
7.88976
  0
SEQEND
  0
POLYLINE
  8
0
 66
1
  0
VERTEX
  8
0
 10
15.0694
 20
7.89607
  0
VERTEX
  8
0
 10
15.0694
 20
7.89607
  0
SEQEND
  0
POLYLINE
  8
0
 66
1
  0
VERTEX
  8
0
 10
15.0793
 20
7.90337
  0
VERTEX
  8
0
 10
15.0793
 20
7.90337
  0
SEQEND
  0
POLYLINE
  8
0
 66
1
  0
VERTEX
  8
0
 10
15.0884
 20
7.91161
  0
VERTEX
  8
0
 10
15.0884
 20
7.91161
  0
SEQEND
  0
POLYLINE
  8
0
 66
1
  0
VERTEX
  8
0
 10
15.0966
 20
7.9207
  0
VERTEX
  8
0
 10
15.0966
 20
7.9207
  0
SEQEND
  0
POLYLINE
  8
0
 66
1
  0
VERTEX
  8
0
 10
15.1039
 20
7.93055
  0
VERTEX
  8
0
 10
15.1039
 20
7.93055
  0
SEQEND
  0
POLYLINE
  8
0
 66
1
  0
VERTEX
  8
0
 10
15.1102
 20
7.94108
  0
VERTEX
  8
0
 10
15.1102
 20
7.94108
  0
SEQEND
  0
POLYLINE
  8
0
 66
1
  0
VERTEX
  8
0
 10
15.1155
 20
7.95216
  0
VERTEX
  8
0
 10
15.1155
 20
7.95216
  0
SEQEND
  0
POLYLINE
  8
0
 66
1
  0
VERTEX
  8
0
 10
15.1196
 20
7.96371
  0
VERTEX
  8
0
 10
15.1196
 20
7.96371
  0
SEQEND
  0
POLYLINE
  8
0
 66
1
  0
VERTEX
  8
0
 10
15.1226
 20
7.97561
  0
VERTEX
  8
0
 10
15.1226
 20
7.97561
  0
SEQEND
  0
POLYLINE
  8
0
 66
1
  0
VERTEX
  8
0
 10
15.1244
 20
7.98775
  0
VERTEX
  8
0
 10
15.1244
 20
7.98775
  0
SEQEND
  0
POLYLINE
  8
0
 66
1
  0
VERTEX
  8
0
 10
15.125
 20
8
  0
VERTEX
  8
0
 10
15.125
 20
8
  0
SEQEND
  0
POLYLINE
  8
0
 66
1
  0
VERTEX
  8
0
 10
15.1244
 20
8.01225
  0
VERTEX
  8
0
 10
15.1244
 20
8.01225
  0
SEQEND
  0
POLYLINE
  8
0
 66
1
  0
VERTEX
  8
0
 10
15.1226
 20
8.02439
  0
VERTEX
  8
0
 10
15.1226
 20
8.02439
  0
SEQEND
  0
POLYLINE
  8
0
 66
1
  0
VERTEX
  8
0
 10
15.1196
 20
8.03629
  0
VERTEX
  8
0
 10
15.1196
 20
8.03629
  0
SEQEND
  0
POLYLINE
  8
0
 66
1
  0
VERTEX
  8
0
 10
15.1155
 20
8.04784
  0
VERTEX
  8
0
 10
15.1155
 20
8.04784
  0
SEQEND
  0
POLYLINE
  8
0
 66
1
  0
VERTEX
  8
0
 10
15.1102
 20
8.05892
  0
VERTEX
  8
0
 10
15.1102
 20
8.05892
  0
SEQEND
  0
POLYLINE
  8
0
 66
1
  0
VERTEX
  8
0
 10
15.1039
 20
8.06945
  0
VERTEX
  8
0
 10
15.1039
 20
8.06945
  0
SEQEND
  0
POLYLINE
  8
0
 66
1
  0
VERTEX
  8
0
 10
15.0966
 20
8.0793
  0
VERTEX
  8
0
 10
15.0966
 20
8.0793
  0
SEQEND
  0
POLYLINE
  8
0
 66
1
  0
VERTEX
  8
0
 10
15.0884
 20
8.08839
  0
VERTEX
  8
0
 10
15.0884
 20
8.08839
  0
SEQEND
  0
POLYLINE
  8
0
 66
1
  0
VERTEX
  8
0
 10
15.0793
 20
8.09663
  0
VERTEX
  8
0
 10
15.0793
 20
8.09663
  0
SEQEND
  0
POLYLINE
  8
0
 66
1
  0
VERTEX
  8
0
 10
15.0694
 20
8.10393
  0
VERTEX
  8
0
 10
15.0694
 20
8.10393
  0
SEQEND
  0
POLYLINE
  8
0
 66
1
  0
VERTEX
  8
0
 10
15.0589
 20
8.11024
  0
VERTEX
  8
0
 10
15.0589
 20
8.11024
  0
SEQEND
  0
POLYLINE
  8
0
 66
1
  0
VERTEX
  8
0
 10
15.0478
 20
8.11548
  0
VERTEX
  8
0
 10
15.0478
 20
8.11548
  0
SEQEND
  0
POLYLINE
  8
0
 66
1
  0
VERTEX
  8
0
 10
15.0363
 20
8.11962
  0
VERTEX
  8
0
 10
15.0363
 20
8.11962
  0
SEQEND
  0
POLYLINE
  8
0
 66
1
  0
VERTEX
  8
0
 10
15.0244
 20
8.1226
  0
VERTEX
  8
0
 10
15.0244
 20
8.1226
  0
SEQEND
  0
POLYLINE
  8
0
 66
1
  0
VERTEX
  8
0
 10
15.0123
 20
8.1244
  0
VERTEX
  8
0
 10
15.0123
 20
8.1244
  0
SEQEND
  0
POLYLINE
  8
0
 66
1
  0
VERTEX
  8
0
 10
15
 20
8.125
  0
VERTEX
  8
0
 10
15
 20
8.125
  0
SEQEND
  0
POLYLINE
  8
0
 66
1
  0
VERTEX
  8
0
 10
14.9877
 20
8.1244
  0
VERTEX
  8
0
 10
14.9877
 20
8.1244
  0
SEQEND
  0
POLYLINE
  8
0
 66
1
  0
VERTEX
  8
0
 10
14.9756
 20
8.1226
  0
VERTEX
  8
0
 10
14.9756
 20
8.1226
  0
SEQEND
  0
POLYLINE
  8
0
 66
1
  0
VERTEX
  8
0
 10
14.9637
 20
8.11962
  0
VERTEX
  8
0
 10
14.9637
 20
8.11962
  0
SEQEND
  0
POLYLINE
  8
0
 66
1
  0
VERTEX
  8
0
 10
14.9522
 20
8.11548
  0
VERTEX
  8
0
 10
14.9522
 20
8.11548
  0
SEQEND
  0
POLYLINE
  8
0
 66
1
  0
VERTEX
  8
0
 10
14.9411
 20
8.11024
  0
VERTEX
  8
0
 10
14.9411
 20
8.11024
  0
SEQEND
  0
POLYLINE
  8
0
 66
1
  0
VERTEX
  8
0
 10
14.9306
 20
8.10393
  0
VERTEX
  8
0
 10
14.9306
 20
8.10393
  0
SEQEND
  0
POLYLINE
  8
0
 66
1
  0
VERTEX
  8
0
 10
14.9207
 20
8.09663
  0
VERTEX
  8
0
 10
14.9207
 20
8.09663
  0
SEQEND
  0
POLYLINE
  8
0
 66
1
  0
VERTEX
  8
0
 10
14.9116
 20
8.08839
  0
VERTEX
  8
0
 10
14.9116
 20
8.08839
  0
SEQEND
  0
POLYLINE
  8
0
 66
1
  0
VERTEX
  8
0
 10
14.9034
 20
8.0793
  0
VERTEX
  8
0
 10
14.9034
 20
8.0793
  0
SEQEND
  0
POLYLINE
  8
0
 66
1
  0
VERTEX
  8
0
 10
14.8961
 20
8.06945
  0
VERTEX
  8
0
 10
14.8961
 20
8.06945
  0
SEQEND
  0
POLYLINE
  8
0
 66
1
  0
VERTEX
  8
0
 10
14.8898
 20
8.05892
  0
VERTEX
  8
0
 10
14.8898
 20
8.05892
  0
SEQEND
  0
POLYLINE
  8
0
 66
1
  0
VERTEX
  8
0
 10
14.8845
 20
8.04784
  0
VERTEX
  8
0
 10
14.8845
 20
8.04784
  0
SEQEND
  0
POLYLINE
  8
0
 66
1
  0
VERTEX
  8
0
 10
14.8804
 20
8.03629
  0
VERTEX
  8
0
 10
14.8804
 20
8.03629
  0
SEQEND
  0
POLYLINE
  8
0
 66
1
  0
VERTEX
  8
0
 10
14.8774
 20
8.02439
  0
VERTEX
  8
0
 10
14.8774
 20
8.02439
  0
SEQEND
  0
POLYLINE
  8
0
 66
1
  0
VERTEX
  8
0
 10
14.8756
 20
8.01225
  0
VERTEX
  8
0
 10
14.8756
 20
8.01225
  0
SEQEND
  0
POLYLINE
  8
0
 66
1
  0
VERTEX
  8
0
 10
14.875
 20
8
  0
VERTEX
  8
0
 10
14.875
 20
8
  0
SEQEND
  0
POLYLINE
  8
0
 66
1
  0
VERTEX
  8
0
 10
14.8756
 20
7.98775
  0
VERTEX
  8
0
 10
14.8756
 20
7.98775
  0
SEQEND
  0
POLYLINE
  8
0
 66
1
  0
VERTEX
  8
0
 10
14.8774
 20
7.97561
  0
VERTEX
  8
0
 10
14.8774
 20
7.97561
  0
SEQEND
  0
POLYLINE
  8
0
 66
1
  0
VERTEX
  8
0
 10
14.8804
 20
7.96371
  0
VERTEX
  8
0
 10
14.8804
 20
7.96371
  0
SEQEND
  0
POLYLINE
  8
0
 66
1
  0
VERTEX
  8
0
 10
14.1872
 20
11.5
  0
VERTEX
  8
0
 10
14.1866
 20
11.5123
  0
VERTEX
  8
0
 10
14.1848
 20
11.5244
  0
VERTEX
  8
0
 10
14.1818
 20
11.5363
  0
VERTEX
  8
0
 10
14.1777
 20
11.5478
  0
VERTEX
  8
0
 10
14.1724
 20
11.5589
  0
VERTEX
  8
0
 10
14.1661
 20
11.5694
  0
VERTEX
  8
0
 10
14.1588
 20
11.5793
  0
VERTEX
  8
0
 10
14.1506
 20
11.5884
  0
VERTEX
  8
0
 10
14.1415
 20
11.5966
  0
VERTEX
  8
0
 10
14.1316
 20
11.6039
  0
VERTEX
  8
0
 10
14.1211
 20
11.6102
  0
VERTEX
  8
0
 10
14.11
 20
11.6155
  0
VERTEX
  8
0
 10
14.0985
 20
11.6196
  0
VERTEX
  8
0
 10
14.0866
 20
11.6226
  0
VERTEX
  8
0
 10
14.0744
 20
11.6244
  0
VERTEX
  8
0
 10
14.0622
 20
11.625
  0
VERTEX
  8
0
 10
14.0499
 20
11.6244
  0
VERTEX
  8
0
 10
14.0378
 20
11.6226
  0
VERTEX
  8
0
 10
14.0259
 20
11.6196
  0
VERTEX
  8
0
 10
14.0143
 20
11.6155
  0
VERTEX
  8
0
 10
14.0033
 20
11.6102
  0
VERTEX
  8
0
 10
13.9927
 20
11.6039
  0
VERTEX
  8
0
 10
13.9829
 20
11.5966
  0
VERTEX
  8
0
 10
13.9738
 20
11.5884
  0
VERTEX
  8
0
 10
13.9656
 20
11.5793
  0
VERTEX
  8
0
 10
13.9582
 20
11.5694
  0
VERTEX
  8
0
 10
13.9519
 20
11.5589
  0
VERTEX
  8
0
 10
13.9467
 20
11.5478
  0
VERTEX
  8
0
 10
13.9426
 20
11.5363
  0
VERTEX
  8
0
 10
13.9396
 20
11.5244
  0
VERTEX
  8
0
 10
13.9378
 20
11.5123
  0
VERTEX
  8
0
 10
13.9372
 20
11.5
  0
VERTEX
  8
0
 10
13.9378
 20
11.4877
  0
VERTEX
  8
0
 10
13.9396
 20
11.4756
  0
VERTEX
  8
0
 10
13.9426
 20
11.4637
  0
VERTEX
  8
0
 10
13.9467
 20
11.4522
  0
VERTEX
  8
0
 10
13.9519
 20
11.4411
  0
VERTEX
  8
0
 10
13.9582
 20
11.4306
  0
VERTEX
  8
0
 10
13.9656
 20
11.4207
  0
VERTEX
  8
0
 10
13.9738
 20
11.4116
  0
VERTEX
  8
0
 10
13.9829
 20
11.4034
  0
VERTEX
  8
0
 10
13.9927
 20
11.3961
  0
VERTEX
  8
0
 10
14.0033
 20
11.3898
  0
VERTEX
  8
0
 10
14.0143
 20
11.3845
  0
VERTEX
  8
0
 10
14.0259
 20
11.3804
  0
VERTEX
  8
0
 10
14.0378
 20
11.3774
  0
VERTEX
  8
0
 10
14.0499
 20
11.3756
  0
VERTEX
  8
0
 10
14.0622
 20
11.375
  0
VERTEX
  8
0
 10
14.0744
 20
11.3756
  0
VERTEX
  8
0
 10
14.0866
 20
11.3774
  0
VERTEX
  8
0
 10
14.0985
 20
11.3804
  0
VERTEX
  8
0
 10
14.11
 20
11.3845
  0
VERTEX
  8
0
 10
14.1211
 20
11.3898
  0
VERTEX
  8
0
 10
14.1316
 20
11.3961
  0
VERTEX
  8
0
 10
14.1415
 20
11.4034
  0
VERTEX
  8
0
 10
14.1506
 20
11.4116
  0
VERTEX
  8
0
 10
14.1588
 20
11.4207
  0
VERTEX
  8
0
 10
14.1661
 20
11.4306
  0
VERTEX
  8
0
 10
14.1724
 20
11.4411
  0
VERTEX
  8
0
 10
14.1777
 20
11.4522
  0
VERTEX
  8
0
 10
14.1818
 20
11.4637
  0
VERTEX
  8
0
 10
14.1848
 20
11.4756
  0
VERTEX
  8
0
 10
14.1866
 20
11.4877
  0
VERTEX
  8
0
 10
14.1866
 20
11.4877
  0
SEQEND
  0
POLYLINE
  8
0
 66
1
  0
VERTEX
  8
0
 10
14.1872
 20
11.5
  0
VERTEX
  8
0
 10
14.1866
 20
11.4877
  0
SEQEND
  0
POLYLINE
  8
0
 66
1
  0
VERTEX
  8
0
 10
14.1872
 20
11.5
  0
VERTEX
  8
0
 10
14.1872
 20
11.5
  0
SEQEND
  0
POLYLINE
  8
0
 66
1
  0
VERTEX
  8
0
 10
14.1866
 20
11.5123
  0
VERTEX
  8
0
 10
14.1866
 20
11.5123
  0
SEQEND
  0
POLYLINE
  8
0
 66
1
  0
VERTEX
  8
0
 10
14.1848
 20
11.5244
  0
VERTEX
  8
0
 10
14.1848
 20
11.5244
  0
SEQEND
  0
POLYLINE
  8
0
 66
1
  0
VERTEX
  8
0
 10
14.1818
 20
11.5363
  0
VERTEX
  8
0
 10
14.1818
 20
11.5363
  0
SEQEND
  0
POLYLINE
  8
0
 66
1
  0
VERTEX
  8
0
 10
14.1777
 20
11.5478
  0
VERTEX
  8
0
 10
14.1777
 20
11.5478
  0
SEQEND
  0
POLYLINE
  8
0
 66
1
  0
VERTEX
  8
0
 10
14.1724
 20
11.5589
  0
VERTEX
  8
0
 10
14.1724
 20
11.5589
  0
SEQEND
  0
POLYLINE
  8
0
 66
1
  0
VERTEX
  8
0
 10
14.1661
 20
11.5694
  0
VERTEX
  8
0
 10
14.1661
 20
11.5694
  0
SEQEND
  0
POLYLINE
  8
0
 66
1
  0
VERTEX
  8
0
 10
14.1588
 20
11.5793
  0
VERTEX
  8
0
 10
14.1588
 20
11.5793
  0
SEQEND
  0
POLYLINE
  8
0
 66
1
  0
VERTEX
  8
0
 10
14.1506
 20
11.5884
  0
VERTEX
  8
0
 10
14.1506
 20
11.5884
  0
SEQEND
  0
POLYLINE
  8
0
 66
1
  0
VERTEX
  8
0
 10
14.1415
 20
11.5966
  0
VERTEX
  8
0
 10
14.1415
 20
11.5966
  0
SEQEND
  0
POLYLINE
  8
0
 66
1
  0
VERTEX
  8
0
 10
14.1316
 20
11.6039
  0
VERTEX
  8
0
 10
14.1316
 20
11.6039
  0
SEQEND
  0
POLYLINE
  8
0
 66
1
  0
VERTEX
  8
0
 10
14.1211
 20
11.6102
  0
VERTEX
  8
0
 10
14.1211
 20
11.6102
  0
SEQEND
  0
POLYLINE
  8
0
 66
1
  0
VERTEX
  8
0
 10
14.11
 20
11.6155
  0
VERTEX
  8
0
 10
14.11
 20
11.6155
  0
SEQEND
  0
POLYLINE
  8
0
 66
1
  0
VERTEX
  8
0
 10
14.0985
 20
11.6196
  0
VERTEX
  8
0
 10
14.0985
 20
11.6196
  0
SEQEND
  0
POLYLINE
  8
0
 66
1
  0
VERTEX
  8
0
 10
14.0866
 20
11.6226
  0
VERTEX
  8
0
 10
14.0866
 20
11.6226
  0
SEQEND
  0
POLYLINE
  8
0
 66
1
  0
VERTEX
  8
0
 10
14.0744
 20
11.6244
  0
VERTEX
  8
0
 10
14.0744
 20
11.6244
  0
SEQEND
  0
POLYLINE
  8
0
 66
1
  0
VERTEX
  8
0
 10
14.0622
 20
11.625
  0
VERTEX
  8
0
 10
14.0622
 20
11.625
  0
SEQEND
  0
POLYLINE
  8
0
 66
1
  0
VERTEX
  8
0
 10
14.0499
 20
11.6244
  0
VERTEX
  8
0
 10
14.0499
 20
11.6244
  0
SEQEND
  0
POLYLINE
  8
0
 66
1
  0
VERTEX
  8
0
 10
14.0378
 20
11.6226
  0
VERTEX
  8
0
 10
14.0378
 20
11.6226
  0
SEQEND
  0
POLYLINE
  8
0
 66
1
  0
VERTEX
  8
0
 10
14.0259
 20
11.6196
  0
VERTEX
  8
0
 10
14.0259
 20
11.6196
  0
SEQEND
  0
POLYLINE
  8
0
 66
1
  0
VERTEX
  8
0
 10
14.0143
 20
11.6155
  0
VERTEX
  8
0
 10
14.0143
 20
11.6155
  0
SEQEND
  0
POLYLINE
  8
0
 66
1
  0
VERTEX
  8
0
 10
14.0033
 20
11.6102
  0
VERTEX
  8
0
 10
14.0033
 20
11.6102
  0
SEQEND
  0
POLYLINE
  8
0
 66
1
  0
VERTEX
  8
0
 10
13.9927
 20
11.6039
  0
VERTEX
  8
0
 10
13.9927
 20
11.6039
  0
SEQEND
  0
POLYLINE
  8
0
 66
1
  0
VERTEX
  8
0
 10
13.9829
 20
11.5966
  0
VERTEX
  8
0
 10
13.9829
 20
11.5966
  0
SEQEND
  0
POLYLINE
  8
0
 66
1
  0
VERTEX
  8
0
 10
13.9738
 20
11.5884
  0
VERTEX
  8
0
 10
13.9738
 20
11.5884
  0
SEQEND
  0
POLYLINE
  8
0
 66
1
  0
VERTEX
  8
0
 10
13.9656
 20
11.5793
  0
VERTEX
  8
0
 10
13.9656
 20
11.5793
  0
SEQEND
  0
POLYLINE
  8
0
 66
1
  0
VERTEX
  8
0
 10
13.9582
 20
11.5694
  0
VERTEX
  8
0
 10
13.9582
 20
11.5694
  0
SEQEND
  0
POLYLINE
  8
0
 66
1
  0
VERTEX
  8
0
 10
13.9519
 20
11.5589
  0
VERTEX
  8
0
 10
13.9519
 20
11.5589
  0
SEQEND
  0
POLYLINE
  8
0
 66
1
  0
VERTEX
  8
0
 10
13.9467
 20
11.5478
  0
VERTEX
  8
0
 10
13.9467
 20
11.5478
  0
SEQEND
  0
POLYLINE
  8
0
 66
1
  0
VERTEX
  8
0
 10
13.9426
 20
11.5363
  0
VERTEX
  8
0
 10
13.9426
 20
11.5363
  0
SEQEND
  0
POLYLINE
  8
0
 66
1
  0
VERTEX
  8
0
 10
13.9396
 20
11.5244
  0
VERTEX
  8
0
 10
13.9396
 20
11.5244
  0
SEQEND
  0
POLYLINE
  8
0
 66
1
  0
VERTEX
  8
0
 10
13.9378
 20
11.5123
  0
VERTEX
  8
0
 10
13.9378
 20
11.5123
  0
SEQEND
  0
POLYLINE
  8
0
 66
1
  0
VERTEX
  8
0
 10
13.9372
 20
11.5
  0
VERTEX
  8
0
 10
13.9372
 20
11.5
  0
SEQEND
  0
POLYLINE
  8
0
 66
1
  0
VERTEX
  8
0
 10
13.9378
 20
11.4877
  0
VERTEX
  8
0
 10
13.9378
 20
11.4877
  0
SEQEND
  0
POLYLINE
  8
0
 66
1
  0
VERTEX
  8
0
 10
13.9396
 20
11.4756
  0
VERTEX
  8
0
 10
13.9396
 20
11.4756
  0
SEQEND
  0
POLYLINE
  8
0
 66
1
  0
VERTEX
  8
0
 10
13.9426
 20
11.4637
  0
VERTEX
  8
0
 10
13.9426
 20
11.4637
  0
SEQEND
  0
POLYLINE
  8
0
 66
1
  0
VERTEX
  8
0
 10
13.9467
 20
11.4522
  0
VERTEX
  8
0
 10
13.9467
 20
11.4522
  0
SEQEND
  0
POLYLINE
  8
0
 66
1
  0
VERTEX
  8
0
 10
13.9519
 20
11.4411
  0
VERTEX
  8
0
 10
13.9519
 20
11.4411
  0
SEQEND
  0
POLYLINE
  8
0
 66
1
  0
VERTEX
  8
0
 10
13.9582
 20
11.4306
  0
VERTEX
  8
0
 10
13.9582
 20
11.4306
  0
SEQEND
  0
POLYLINE
  8
0
 66
1
  0
VERTEX
  8
0
 10
13.9656
 20
11.4207
  0
VERTEX
  8
0
 10
13.9656
 20
11.4207
  0
SEQEND
  0
POLYLINE
  8
0
 66
1
  0
VERTEX
  8
0
 10
13.9738
 20
11.4116
  0
VERTEX
  8
0
 10
13.9738
 20
11.4116
  0
SEQEND
  0
POLYLINE
  8
0
 66
1
  0
VERTEX
  8
0
 10
13.9829
 20
11.4034
  0
VERTEX
  8
0
 10
13.9829
 20
11.4034
  0
SEQEND
  0
POLYLINE
  8
0
 66
1
  0
VERTEX
  8
0
 10
13.9927
 20
11.3961
  0
VERTEX
  8
0
 10
13.9927
 20
11.3961
  0
SEQEND
  0
POLYLINE
  8
0
 66
1
  0
VERTEX
  8
0
 10
14.0033
 20
11.3898
  0
VERTEX
  8
0
 10
14.0033
 20
11.3898
  0
SEQEND
  0
POLYLINE
  8
0
 66
1
  0
VERTEX
  8
0
 10
14.0143
 20
11.3845
  0
VERTEX
  8
0
 10
14.0143
 20
11.3845
  0
SEQEND
  0
POLYLINE
  8
0
 66
1
  0
VERTEX
  8
0
 10
14.0259
 20
11.3804
  0
VERTEX
  8
0
 10
14.0259
 20
11.3804
  0
SEQEND
  0
POLYLINE
  8
0
 66
1
  0
VERTEX
  8
0
 10
14.0378
 20
11.3774
  0
VERTEX
  8
0
 10
14.0378
 20
11.3774
  0
SEQEND
  0
POLYLINE
  8
0
 66
1
  0
VERTEX
  8
0
 10
14.0499
 20
11.3756
  0
VERTEX
  8
0
 10
14.0499
 20
11.3756
  0
SEQEND
  0
POLYLINE
  8
0
 66
1
  0
VERTEX
  8
0
 10
14.0622
 20
11.375
  0
VERTEX
  8
0
 10
14.0622
 20
11.375
  0
SEQEND
  0
POLYLINE
  8
0
 66
1
  0
VERTEX
  8
0
 10
14.0744
 20
11.3756
  0
VERTEX
  8
0
 10
14.0744
 20
11.3756
  0
SEQEND
  0
POLYLINE
  8
0
 66
1
  0
VERTEX
  8
0
 10
14.0866
 20
11.3774
  0
VERTEX
  8
0
 10
14.0866
 20
11.3774
  0
SEQEND
  0
POLYLINE
  8
0
 66
1
  0
VERTEX
  8
0
 10
14.0985
 20
11.3804
  0
VERTEX
  8
0
 10
14.0985
 20
11.3804
  0
SEQEND
  0
POLYLINE
  8
0
 66
1
  0
VERTEX
  8
0
 10
14.11
 20
11.3845
  0
VERTEX
  8
0
 10
14.11
 20
11.3845
  0
SEQEND
  0
POLYLINE
  8
0
 66
1
  0
VERTEX
  8
0
 10
14.1211
 20
11.3898
  0
VERTEX
  8
0
 10
14.1211
 20
11.3898
  0
SEQEND
  0
POLYLINE
  8
0
 66
1
  0
VERTEX
  8
0
 10
14.1316
 20
11.3961
  0
VERTEX
  8
0
 10
14.1316
 20
11.3961
  0
SEQEND
  0
POLYLINE
  8
0
 66
1
  0
VERTEX
  8
0
 10
14.1415
 20
11.4034
  0
VERTEX
  8
0
 10
14.1415
 20
11.4034
  0
SEQEND
  0
POLYLINE
  8
0
 66
1
  0
VERTEX
  8
0
 10
14.1506
 20
11.4116
  0
VERTEX
  8
0
 10
14.1506
 20
11.4116
  0
SEQEND
  0
POLYLINE
  8
0
 66
1
  0
VERTEX
  8
0
 10
14.1588
 20
11.4207
  0
VERTEX
  8
0
 10
14.1588
 20
11.4207
  0
SEQEND
  0
POLYLINE
  8
0
 66
1
  0
VERTEX
  8
0
 10
14.1661
 20
11.4306
  0
VERTEX
  8
0
 10
14.1661
 20
11.4306
  0
SEQEND
  0
POLYLINE
  8
0
 66
1
  0
VERTEX
  8
0
 10
14.1724
 20
11.4411
  0
VERTEX
  8
0
 10
14.1724
 20
11.4411
  0
SEQEND
  0
POLYLINE
  8
0
 66
1
  0
VERTEX
  8
0
 10
14.1777
 20
11.4522
  0
VERTEX
  8
0
 10
14.1777
 20
11.4522
  0
SEQEND
  0
POLYLINE
  8
0
 66
1
  0
VERTEX
  8
0
 10
14.1818
 20
11.4637
  0
VERTEX
  8
0
 10
14.1818
 20
11.4637
  0
SEQEND
  0
POLYLINE
  8
0
 66
1
  0
VERTEX
  8
0
 10
14.1848
 20
11.4756
  0
VERTEX
  8
0
 10
14.1848
 20
11.4756
  0
SEQEND
  0
ENDSEC
  0
EOF
