<?xml version="1.0"?>
<!DOCTYPE svg PUBLIC "-//W3C//DTD SVG 1.1//EN" "http://www.w3.org/Graphics/SVG/1.1/DTD/svg11.dtd">
<svg width="16.31973174mm" height="14.19753174mm" viewBox="0 0 16.31973174 14.19753174" xmlns="http://www.w3.org/2000/svg" version="1.1">
<g id="Polyline" transform="translate(0.159734,14.037797) scale(1,-1)">
<path id="Polyline_w0000" d="M 11.6603 11.2525 L 12.1101 11.6681 L 11.6681 12.1101 L 11.6681 12.9939 L 12.552 12.1101 L 12.9939 12.552 L 11.6681 13.8778 L 12.552 13.8778 L 13.4359 12.9939 L 13.8734 13.4318 L 14.1309 13.1395 L 14.3718 12.8382 L 14.5961 12.5283 L 14.8038 12.2104 L 14.9949 11.8853 L 15.1693 11.5534 L 15.3272 11.2155 L 15.4684 10.872 L 15.593 10.5237 L 15.701 10.1711 L 15.7924 9.81482 L 15.8671 9.45552 L 15.9253 9.09377 L 15.9668 8.7302 L 15.9917 8.3654 L 16.0 8.0 L 15.9917 7.6346 L 15.9668 7.2698 L 15.9253 6.90623 L 15.8671 6.54448 L 15.7924 6.18518 L 15.701 5.82892 L 15.593 5.47632 L 15.4684 5.12799 L 15.3272 4.78455 L 15.1693 4.44658 L 14.9949 4.11472 L 14.8038 3.78957 L 14.5961 3.47173 L 14.3718 3.16182 L 14.1309 2.86045 L 13.8734 2.56823 L 12.8176 3.62438 L 12.3756 3.18244 L 13.4317 2.12665 L 13.1224 1.85478 L 12.8032 1.60161 L 12.4747 1.36713 L 12.1377 1.15129 L 11.7929 0.954086 L 11.441 0.775475 L 11.0827 0.615433 L 10.7187 0.473932 L 10.3498 0.350946 L 9.97657 0.246445 L 9.59983 0.160403 L 9.22024 0.092791 L 8.83853 0.043583 L 8.4554 0.012749 L 8.07157 0.000263 L 7.68774 0.006097 L 7.30462 0.030222 L 6.92293 0.072611 L 6.54338 0.133237 L 6.16667 0.212072 L 5.79351 0.309087 L 5.42463 0.424255 L 5.06071 0.557549 L 4.70249 0.708941 L 4.35066 0.878402 L 4.00594 1.06591 L 3.66904 1.27142 L 3.34067 1.49493 L 3.02153 1.73639 L 2.71234 1.99579 L 2.41381 2.27308 L 2.12665 2.56826 L 1.85478 2.87757 L 1.60161 3.19682 L 1.36713 3.5253 L 1.15129 3.8623 L 0.954086 4.2071 L 0.775475 4.55901 L 0.615433 4.91731 L 0.473932 5.28128 L 0.350946 5.65023 L 0.246445 6.02343 L 0.160403 6.40017 L 0.092792 6.77976 L 0.043583 7.16147 L 0.012749 7.5446 L 0.000263 7.92843 L 0.006097 8.31226 L 0.030222 8.69538 L 0.072611 9.07707 L 0.133237 9.45662 L 0.212071 9.83333 L 0.309087 10.2065 L 0.424255 10.5754 L 0.557549 10.9393 L 0.708941 11.2975 L 0.878402 11.6493 L 1.06591 11.9941 L 1.27142 12.331 L 1.49493 12.6593 L 1.73639 12.9785 L 1.99579 13.2877 L 2.27308 13.5862 L 2.56826 13.8733 L 3.448 13.8778 L 2.56412 12.9939 L 3.00606 12.552 L 4.33188 13.8778 L 4.33188 12.9939 L 3.448 12.1101 L 3.88994 11.6681 L 4.33188 12.1101 L 4.33188 11.2262 L 4.27542 11.0286 L 4.2226 10.8302 L 4.17342 10.6312 L 4.12788 10.4315 L 4.08597 10.2312 L 4.04771 10.0304 L 4.01308 9.82903 L 3.9821 9.62727 L 3.95475 9.42511 L 3.93104 9.2226 L 3.91097 9.0198 L 3.89454 8.81675 L 3.88175 8.6135 L 3.8726 8.4101 L 3.86708 8.2066 L 3.86521 8.00306 L 3.86697 7.79951 L 3.87238 7.59601 L 3.88142 7.3926 L 3.8941 7.18935 L 3.91043 6.98629 L 3.93039 6.78348 L 3.95399 6.58096 L 3.98123 6.37878 L 4.0121 6.177 L 4.04662 5.97566 L 4.08478 5.77481 L 4.12657 5.57451 L 4.17201 5.37479 L 4.22109 5.17572 L 4.2738 4.97733 L 4.33015 4.77969 L 3.18262 3.62456 L 3.62456 3.18262 L 4.77541 4.33398 L 4.8069 4.25991 L 4.83902 4.18613 L 4.87175 4.11265 L 4.9051 4.03946 L 4.93906 3.96658 L 4.97363 3.894 L 5.00881 3.82173 L 5.0446 3.74978 L 5.08099 3.67814 L 5.11799 3.60682 L 5.15558 3.53582 L 5.19377 3.46516 L 5.23256 3.39482 L 5.27194 3.32482 L 5.31192 3.25516 L 5.35248 3.18584 L 5.39363 3.11687 L 5.43536 3.04825 L 5.47768 2.97999 L 5.52057 2.91208 L 5.56405 2.84453 L 5.6081 2.77735 L 5.65272 2.71054 L 5.69791 2.6441 L 5.74368 2.57804 L 5.79001 2.51236 L 5.8369 2.44706 L 5.88436 2.38215 L 5.93238 2.31764 L 5.98095 2.25351 L 6.03008 2.18979 L 6.07977 2.12647 L 9.92023 2.12647 L 9.96992 2.18979 L 10.019 2.25351 L 10.0676 2.31764 L 10.1156 2.38215 L 10.1631 2.44706 L 10.21 2.51236 L 10.2563 2.57804 L 10.3021 2.6441 L 10.3473 2.71054 L 10.3919 2.77735 L 10.436 2.84453 L 10.4794 2.91208 L 10.5223 2.97999 L 10.5646 3.04825 L 10.6064 3.11687 L 10.6475 3.18584 L 10.6881 3.25516 L 10.7281 3.32482 L 10.7674 3.39482 L 10.8062 3.46516 L 10.8444 3.53582 L 10.882 3.60682 L 10.919 3.67814 L 10.9554 3.74978 L 10.9912 3.82173 L 11.0264 3.894 L 11.0609 3.96658 L 11.0949 4.03946 L 11.1282 4.11265 L 11.161 4.18613 L 11.1931 4.25991 L 11.2246 4.33398 L 11.6698 4.77968 L 11.7264 4.97813 L 11.7793 5.17732 L 11.8286 5.3772 L 11.8741 5.57773 L 11.916 5.77885 L 11.9543 5.98052 L 11.9888 6.18267 L 12.0197 6.38528 L 12.0469 6.58827 L 12.0705 6.79161 L 12.0904 6.99525 L 12.1066 7.19913 L 12.1191 7.4032 L 12.128 7.60742 L 12.1332 7.81173 L 12.1348 8.01609 L 12.1327 8.22044 L 12.1269 8.42474 L 12.1174 8.62893 L 12.1043 8.83296 L 12.0875 9.0368 L 12.067 9.24037 L 12.0429 9.44365 L 12.0151 9.64656 L 11.9836 9.84908 L 11.9485 10.0511 L 11.9097 10.2527 L 11.8672 10.4537 L 11.8211 10.6541 L 11.7713 10.8538 L 11.7178 11.0529 L 11.6607 11.2512 " stroke="#000000" stroke-width="0.35 px" style="stroke-width:0.35;stroke-miterlimit:4;stroke-dasharray:none;fill:none;fill-rule: evenodd "/>
<title>Polyline</title>
</g>
<g id="Polyline001" transform="translate(0.159734,14.037797) scale(1,-1)">
<path id="Polyline001_w0000" d="M 13.3141 11.0681 L 13.2986 11.0874 L 13.2851 11.1077 L 13.2708 11.1271 L 13.2558 11.1459 L 13.2401 11.1639 L 13.2238 11.1811 L 13.2067 11.1975 L 13.1891 11.2131 L 13.1709 11.2279 L 13.1521 11.242 L 13.1328 11.2551 L 13.113 11.2675 L 13.0927 11.279 L 13.072 11.2896 L 13.0509 11.2993 L 13.0294 11.3082 L 13.0076 11.3162 L 12.9854 11.3232 L 12.963 11.3293 L 12.9402 11.3345 L 12.9173 11.3388 L 12.8942 11.3421 L 12.8709 11.3444 L 12.8474 11.3458 L 12.8238 11.3462 L 12.8002 11.3455 L 12.7765 11.3439 L 12.7528 11.3412 L 12.7291 11.3375 L 12.7054 11.3327 L 12.6818 11.3269 L 12.6583 11.32 L 12.6351 11.3121 L 12.6124 11.3033 L 12.5903 11.2936 L 12.5688 11.283 L 12.5478 11.2715 L 12.5275 11.2592 L 12.5078 11.2461 L 12.4887 11.2323 L 12.4703 11.2177 L 12.4526 11.2024 L 12.4356 11.1863 L 12.4193 11.1697 L 12.4037 11.1523 L 12.3889 11.1344 L 12.3748 11.1159 L 12.3615 11.0968 L 12.349 11.0772 L 12.3374 11.0571 L 12.3265 11.0365 L 12.3166 11.0154 L 12.3075 10.9939 L 12.2993 10.9721 L 12.292 10.9498 L 12.2856 10.9272 L 12.2802 10.9043 L 12.2757 10.881 L 12.2722 10.8575 L 12.2697 10.8338 L 12.2682 10.8098 L 12.2677 10.7857 L 12.2683 10.7614 L 12.27 10.7369 L 12.633 8.0 L 12.6339 7.96141 L 12.6368 7.92332 L 12.6416 7.88578 L 12.6482 7.84885 L 12.6566 7.81256 L 12.6667 7.77697 L 12.6785 7.74212 L 12.6919 7.70807 L 12.7069 7.67484 L 12.7235 7.64251 L 12.7415 7.6111 L 12.7611 7.58067 L 12.782 7.55126 L 12.8042 7.52293 L 12.8278 7.49572 L 12.8526 7.46967 L 12.8787 7.44484 L 12.9059 7.42126 L 12.9342 7.399 L 12.9636 7.37809 L 12.9941 7.35858 L 13.0255 7.34052 L 13.0578 7.32396 L 13.091 7.30894 L 13.1251 7.29551 L 13.1599 7.28372 L 13.1955 7.27361 L 13.2318 7.26524 L 13.2687 7.25864 L 13.3063 7.25387 L 13.3444 7.25098 L 13.383 7.25 L 13.4216 7.25098 L 13.4596 7.25387 L 13.4972 7.25864 L 13.5341 7.26524 L 13.5704 7.27361 L 13.606 7.28372 L 13.6408 7.29551 L 13.6749 7.30894 L 13.7081 7.32396 L 13.7405 7.34052 L 13.7719 7.35858 L 13.8023 7.37809 L 13.8317 7.399 L 13.86 7.42126 L 13.8872 7.44484 L 13.9133 7.46967 L 13.9381 7.49572 L 13.9617 7.52293 L 13.984 7.55126 L 14.0049 7.58067 L 14.0244 7.6111 L 14.0424 7.64251 L 14.059 7.67484 L 14.074 7.70807 L 14.0875 7.74212 L 14.0992 7.77697 L 14.1094 7.81256 L 14.1177 7.84885 L 14.1243 7.88578 L 14.1291 7.92332 L 14.132 7.96141 L 14.1361 8.0 L 14.1353 8.10092 L 14.1328 8.20171 L 14.1287 8.30235 L 14.1229 8.40282 L 14.1155 8.5031 L 14.1064 8.60318 L 14.0957 8.70302 L 14.0834 8.80262 L 14.0695 8.90195 L 14.054 9.00099 L 14.0368 9.09973 L 14.018 9.19814 L 13.9977 9.29621 L 13.9757 9.39391 L 13.9522 9.49123 L 13.9271 9.58815 L 13.9004 9.68464 L 13.8721 9.7807 L 13.8422 9.87628 L 13.8108 9.97139 L 13.7779 10.066 L 13.7434 10.1601 L 13.7073 10.2536 L 13.6697 10.3466 L 13.6306 10.439 L 13.5899 10.5308 L 13.5477 10.622 L 13.504 10.7126 L 13.4588 10.8025 L 13.412 10.8917 L 13.3638 10.9803 L 13.3141 11.0681 " stroke="#000000" stroke-width="0.35 px" style="stroke-width:0.35;stroke-miterlimit:4;stroke-dasharray:none;fill:none;fill-rule: evenodd "/>
<title>Polyline001</title>
</g>
<g id="Polyline002" transform="translate(0.159734,14.037797) scale(1,-1)">
<path id="Polyline002_w0000" d="M 1.86385 8.0 L 1.86801 7.96141 L 1.87091 7.92332 L 1.87568 7.88578 L 1.88227 7.84885 L 1.89065 7.81256 L 1.90075 7.77697 L 1.91254 7.74212 L 1.92597 7.70807 L 1.94099 7.67484 L 1.95755 7.64251 L 1.97561 7.6111 L 1.99512 7.58067 L 2.01603 7.55126 L 2.0383 7.52293 L 2.06187 7.49572 L 2.0867 7.46967 L 2.11275 7.44484 L 2.13996 7.42126 L 2.1683 7.399 L 2.1977 7.37809 L 2.22813 7.35858 L 2.25954 7.34052 L 2.29188 7.32396 L 2.3251 7.30894 L 2.35916 7.29551 L 2.39401 7.28372 L 2.4296 7.27361 L 2.46588 7.26524 L 2.50282 7.25864 L 2.54035 7.25387 L 2.57844 7.25098 L 2.61703 7.25 L 2.65563 7.25098 L 2.69372 7.25387 L 2.73125 7.25864 L 2.76818 7.26524 L 2.80447 7.27361 L 2.84006 7.28372 L 2.87491 7.29551 L 2.90897 7.30894 L 2.94219 7.32396 L 2.97453 7.34052 L 3.00594 7.35858 L 3.03637 7.37809 L 3.06577 7.399 L 3.0941 7.42126 L 3.12132 7.44484 L 3.14736 7.46967 L 3.1722 7.49572 L 3.19577 7.52293 L 3.21803 7.55126 L 3.23895 7.58067 L 3.25845 7.6111 L 3.27651 7.64251 L 3.29308 7.67484 L 3.30809 7.70807 L 3.32152 7.74212 L 3.33331 7.77697 L 3.34342 7.81256 L 3.3518 7.84885 L 3.35839 7.88578 L 3.36316 7.92332 L 3.36606 7.96141 L 3.36703 8.0 L 3.73001 10.7369 L 3.73167 10.7614 L 3.73226 10.7857 L 3.7318 10.8098 L 3.73032 10.8338 L 3.72782 10.8575 L 3.72432 10.881 L 3.71985 10.9043 L 3.71441 10.9272 L 3.70804 10.9498 L 3.70074 10.9721 L 3.69253 10.9939 L 3.68343 11.0154 L 3.67346 11.0365 L 3.66263 11.0571 L 3.65097 11.0772 L 3.63849 11.0968 L 3.62521 11.1159 L 3.61114 11.1344 L 3.59631 11.1523 L 3.58072 11.1697 L 3.56441 11.1863 L 3.54738 11.2024 L 3.52966 11.2177 L 3.51126 11.2323 L 3.4922 11.2461 L 3.47249 11.2592 L 3.45216 11.2715 L 3.43122 11.283 L 3.40969 11.2936 L 3.38759 11.3033 L 3.36493 11.3121 L 3.34174 11.32 L 3.31822 11.3269 L 3.29461 11.3327 L 3.27094 11.3375 L 3.24722 11.3412 L 3.2235 11.3439 L 3.1998 11.3455 L 3.17616 11.3462 L 3.15259 11.3458 L 3.12914 11.3444 L 3.10583 11.3421 L 3.08269 11.3388 L 3.05975 11.3345 L 3.03704 11.3293 L 3.01459 11.3232 L 2.99243 11.3162 L 2.97059 11.3082 L 2.9491 11.2993 L 2.92799 11.2896 L 2.90728 11.279 L 2.88701 11.2675 L 2.86721 11.2551 L 2.8479 11.242 L 2.82913 11.2279 L 2.8109 11.2131 L 2.79327 11.1975 L 2.77624 11.1811 L 2.75987 11.1639 L 2.74416 11.1459 L 2.72917 11.1271 L 2.7149 11.1077 L 2.7014 11.0874 L 2.68594 11.0681 L 2.6362 10.9803 L 2.58796 10.8917 L 2.54122 10.8025 L 2.49599 10.7126 L 2.45228 10.622 L 2.41009 10.5308 L 2.36942 10.439 L 2.33029 10.3466 L 2.29269 10.2536 L 2.25663 10.1601 L 2.22212 10.066 L 2.18916 9.97139 L 2.15775 9.87628 L 2.12791 9.7807 L 2.09964 9.68464 L 2.07294 9.58815 L 2.04781 9.49123 L 2.02427 9.39391 L 2.00232 9.29621 L 1.98196 9.19814 L 1.96321 9.09973 L 1.94605 9.00099 L 1.9305 8.90195 L 1.91657 8.80262 L 1.90426 8.70302 L 1.89357 8.60318 L 1.88451 8.5031 L 1.87709 8.40282 L 1.87131 8.30235 L 1.86717 8.20171 L 1.86468 8.10092 L 1.86385 8.0 " stroke="#000000" stroke-width="0.35 px" style="stroke-width:0.35;stroke-miterlimit:4;stroke-dasharray:none;fill:none;fill-rule: evenodd "/>
<title>Polyline002</title>
</g>
<g id="Circle" transform="translate(0.159734,14.037797) scale(1,-1)">
<circle cx="14.0622" cy="11.5" r="0.125" stroke="#000000" stroke-width="0.35 px" style="stroke-width:0.35;stroke-miterlimit:4;stroke-dasharray:none;fill:none"/>
<title>Circle</title>
</g>
<g id="Circle001" transform="translate(0.159734,14.037797) scale(1,-1)">
<circle cx="15.0" cy="8.0" r="0.125" stroke="#000000" stroke-width="0.35 px" style="stroke-width:0.35;stroke-miterlimit:4;stroke-dasharray:none;fill:none"/>
<title>Circle001</title>
</g>
<g id="Circle002" transform="translate(0.159734,14.037797) scale(1,-1)">
<circle cx="14.0622" cy="4.5" r="0.125" stroke="#000000" stroke-width="0.35 px" style="stroke-width:0.35;stroke-miterlimit:4;stroke-dasharray:none;fill:none"/>
<title>Circle002</title>
</g>
<g id="Circle003" transform="translate(0.159734,14.037797) scale(1,-1)">
<circle cx="11.5" cy="1.93782" r="0.125" stroke="#000000" stroke-width="0.35 px" style="stroke-width:0.35;stroke-miterlimit:4;stroke-dasharray:none;fill:none"/>
<title>Circle003</title>
</g>
<g id="Circle004" transform="translate(0.159734,14.037797) scale(1,-1)">
<circle cx="8.0" cy="1.0" r="0.125" stroke="#000000" stroke-width="0.35 px" style="stroke-width:0.35;stroke-miterlimit:4;stroke-dasharray:none;fill:none"/>
<title>Circle004</title>
</g>
<g id="Circle005" transform="translate(0.159734,14.037797) scale(1,-1)">
<circle cx="4.5" cy="1.93782" r="0.125" stroke="#000000" stroke-width="0.35 px" style="stroke-width:0.35;stroke-miterlimit:4;stroke-dasharray:none;fill:none"/>
<title>Circle005</title>
</g>
<g id="Circle006" transform="translate(0.159734,14.037797) scale(1,-1)">
<circle cx="1.93782" cy="4.5" r="0.125" stroke="#000000" stroke-width="0.35 px" style="stroke-width:0.35;stroke-miterlimit:4;stroke-dasharray:none;fill:none"/>
<title>Circle006</title>
</g>
<g id="Circle007" transform="translate(0.159734,14.037797) scale(1,-1)">
<circle cx="1.0" cy="8.0" r="0.125" stroke="#000000" stroke-width="0.35 px" style="stroke-width:0.35;stroke-miterlimit:4;stroke-dasharray:none;fill:none"/>
<title>Circle007</title>
</g>
<g id="Circle008" transform="translate(0.159734,14.037797) scale(1,-1)">
<circle cx="1.93782" cy="11.5" r="0.125" stroke="#000000" stroke-width="0.35 px" style="stroke-width:0.35;stroke-miterlimit:4;stroke-dasharray:none;fill:none"/>
<title>Circle008</title>
</g>
</svg>