  0
SECTION
  2
HEADER
  9
$ACADVER
  1
AC1009
  9
$INSBASE
 10
0.0
 20
0.0
 30
0.0
  9
$EXTMIN
 10
0.0
 20
0.0
 30
0.0
  9
$EXTMAX
 10
0.0
 20
0.0
 30
0.0
  0
ENDSEC
  0
SECTION
  2
TABLES
  0
TABLE
  2
VPORT
 70
0
  0
ENDTAB
  0
TABLE
  2
LTYPE
 70
1
  0
LTYPE
  2
CONTINUOUS
 70
0
  3
Solid line
 72
65
 73
0
 40
0.0
  0
ENDTAB
  0
TABLE
  2
LAYER
 70
1
  0
LAYER
  2
0
 70
64
 62
7
  6
continuous
  0
ENDTAB
  0
TABLE
  2
STYLE
 70
1
  0
STYLE
  2
STANDARD
 70
0
 40
0
 41
1.0
 50
0.0
 71
0
 42
1
 3
ARIAL.TTF
 4

  0
ENDTAB
  0
TABLE
  2
VIEW
 70
0
  0
ENDTAB
  0
ENDSEC
  0
SECTION
  2
BLOCKS
  0
ENDSEC
  0
SECTION
  2
ENTITIES
  0
POLYLINE
  8
1outline
 62
0
 70
0
 66
1
 10
0.0
 20
0.0
 30
0.0
  0
VERTEX
  8
1outline
 10
11.6603
 20
11.2525
 30
0.0
  0
VERTEX
  8
1outline
 10
12.1101
 20
11.6681
 30
0.0
  0
VERTEX
  8
1outline
 10
11.6681
 20
12.1101
 30
0.0
  0
VERTEX
  8
1outline
 10
11.6681
 20
12.9939
 30
0.0
  0
VERTEX
  8
1outline
 10
12.552
 20
12.1101
 30
0.0
  0
VERTEX
  8
1outline
 10
12.9939
 20
12.552
 30
0.0
  0
VERTEX
  8
1outline
 10
11.6681
 20
13.8778
 30
0.0
  0
VERTEX
  8
1outline
 10
12.552
 20
13.8778
 30
0.0
  0
VERTEX
  8
1outline
 10
13.4359
 20
12.9939
 30
0.0
  0
VERTEX
  8
1outline
 10
13.8734
 20
13.4318
 30
0.0
  0
VERTEX
  8
1outline
 10
14.1309
 20
13.1395
 30
0.0
  0
VERTEX
  8
1outline
 10
14.3718
 20
12.8382
 30
0.0
  0
VERTEX
  8
1outline
 10
14.5961
 20
12.5283
 30
0.0
  0
VERTEX
  8
1outline
 10
14.8038
 20
12.2104
 30
0.0
  0
VERTEX
  8
1outline
 10
14.9949
 20
11.8853
 30
0.0
  0
VERTEX
  8
1outline
 10
15.1693
 20
11.5534
 30
0.0
  0
VERTEX
  8
1outline
 10
15.3272
 20
11.2155
 30
0.0
  0
VERTEX
  8
1outline
 10
15.4684
 20
10.872
 30
0.0
  0
VERTEX
  8
1outline
 10
15.593
 20
10.5237
 30
0.0
  0
VERTEX
  8
1outline
 10
15.701
 20
10.1711
 30
0.0
  0
VERTEX
  8
1outline
 10
15.7924
 20
9.81482
 30
0.0
  0
VERTEX
  8
1outline
 10
15.8671
 20
9.45552
 30
0.0
  0
VERTEX
  8
1outline
 10
15.9253
 20
9.09377
 30
0.0
  0
VERTEX
  8
1outline
 10
15.9668
 20
8.7302
 30
0.0
  0
VERTEX
  8
1outline
 10
15.9917
 20
8.3654
 30
0.0
  0
VERTEX
  8
1outline
 10
16.0
 20
8.0
 30
0.0
  0
VERTEX
  8
1outline
 10
15.9917
 20
7.6346
 30
0.0
  0
VERTEX
  8
1outline
 10
15.9668
 20
7.2698
 30
0.0
  0
VERTEX
  8
1outline
 10
15.9253
 20
6.90623
 30
0.0
  0
VERTEX
  8
1outline
 10
15.8671
 20
6.54448
 30
0.0
  0
VERTEX
  8
1outline
 10
15.7924
 20
6.18518
 30
0.0
  0
VERTEX
  8
1outline
 10
15.701
 20
5.82892
 30
0.0
  0
VERTEX
  8
1outline
 10
15.593
 20
5.47632
 30
0.0
  0
VERTEX
  8
1outline
 10
15.4684
 20
5.12799
 30
0.0
  0
VERTEX
  8
1outline
 10
15.3272
 20
4.78455
 30
0.0
  0
VERTEX
  8
1outline
 10
15.1693
 20
4.44658
 30
0.0
  0
VERTEX
  8
1outline
 10
14.9949
 20
4.11472
 30
0.0
  0
VERTEX
  8
1outline
 10
14.8038
 20
3.78957
 30
0.0
  0
VERTEX
  8
1outline
 10
14.5961
 20
3.47173
 30
0.0
  0
VERTEX
  8
1outline
 10
14.3718
 20
3.16182
 30
0.0
  0
VERTEX
  8
1outline
 10
14.1309
 20
2.86045
 30
0.0
  0
VERTEX
  8
1outline
 10
13.8734
 20
2.56823
 30
0.0
  0
VERTEX
  8
1outline
 10
12.8176
 20
3.62438
 30
0.0
  0
VERTEX
  8
1outline
 10
12.3756
 20
3.18244
 30
0.0
  0
VERTEX
  8
1outline
 10
13.4317
 20
2.12665
 30
0.0
  0
VERTEX
  8
1outline
 10
13.1224
 20
1.85478
 30
0.0
  0
VERTEX
  8
1outline
 10
12.8032
 20
1.60161
 30
0.0
  0
VERTEX
  8
1outline
 10
12.4747
 20
1.36713
 30
0.0
  0
VERTEX
  8
1outline
 10
12.1377
 20
1.15129
 30
0.0
  0
VERTEX
  8
1outline
 10
11.7929
 20
0.954086
 30
0.0
  0
VERTEX
  8
1outline
 10
11.441
 20
0.775475
 30
0.0
  0
VERTEX
  8
1outline
 10
11.0827
 20
0.615433
 30
0.0
  0
VERTEX
  8
1outline
 10
10.7187
 20
0.473932
 30
0.0
  0
VERTEX
  8
1outline
 10
10.3498
 20
0.350946
 30
0.0
  0
VERTEX
  8
1outline
 10
9.97657
 20
0.246445
 30
0.0
  0
VERTEX
  8
1outline
 10
9.59983
 20
0.160403
 30
0.0
  0
VERTEX
  8
1outline
 10
9.22024
 20
0.092791
 30
0.0
  0
VERTEX
  8
1outline
 10
8.83853
 20
0.043583
 30
0.0
  0
VERTEX
  8
1outline
 10
8.4554
 20
0.012749
 30
0.0
  0
VERTEX
  8
1outline
 10
8.07157
 20
0.000263
 30
0.0
  0
VERTEX
  8
1outline
 10
7.68774
 20
0.006097
 30
0.0
  0
VERTEX
  8
1outline
 10
7.30462
 20
0.030222
 30
0.0
  0
VERTEX
  8
1outline
 10
6.92293
 20
0.072611
 30
0.0
  0
VERTEX
  8
1outline
 10
6.54338
 20
0.133237
 30
0.0
  0
VERTEX
  8
1outline
 10
6.16667
 20
0.212072
 30
0.0
  0
VERTEX
  8
1outline
 10
5.79351
 20
0.309087
 30
0.0
  0
VERTEX
  8
1outline
 10
5.42463
 20
0.424255
 30
0.0
  0
VERTEX
  8
1outline
 10
5.06071
 20
0.557549
 30
0.0
  0
VERTEX
  8
1outline
 10
4.70249
 20
0.708941
 30
0.0
  0
VERTEX
  8
1outline
 10
4.35066
 20
0.878402
 30
0.0
  0
VERTEX
  8
1outline
 10
4.00594
 20
1.06591
 30
0.0
  0
VERTEX
  8
1outline
 10
3.66904
 20
1.27142
 30
0.0
  0
VERTEX
  8
1outline
 10
3.34067
 20
1.49493
 30
0.0
  0
VERTEX
  8
1outline
 10
3.02153
 20
1.73639
 30
0.0
  0
VERTEX
  8
1outline
 10
2.71234
 20
1.99579
 30
0.0
  0
VERTEX
  8
1outline
 10
2.41381
 20
2.27308
 30
0.0
  0
VERTEX
  8
1outline
 10
2.12665
 20
2.56826
 30
0.0
  0
VERTEX
  8
1outline
 10
1.85478
 20
2.87757
 30
0.0
  0
VERTEX
  8
1outline
 10
1.60161
 20
3.19682
 30
0.0
  0
VERTEX
  8
1outline
 10
1.36713
 20
3.5253
 30
0.0
  0
VERTEX
  8
1outline
 10
1.15129
 20
3.8623
 30
0.0
  0
VERTEX
  8
1outline
 10
0.954086
 20
4.2071
 30
0.0
  0
VERTEX
  8
1outline
 10
0.775475
 20
4.55901
 30
0.0
  0
VERTEX
  8
1outline
 10
0.615433
 20
4.91731
 30
0.0
  0
VERTEX
  8
1outline
 10
0.473932
 20
5.28128
 30
0.0
  0
VERTEX
  8
1outline
 10
0.350946
 20
5.65023
 30
0.0
  0
VERTEX
  8
1outline
 10
0.246445
 20
6.02343
 30
0.0
  0
VERTEX
  8
1outline
 10
0.160403
 20
6.40017
 30
0.0
  0
VERTEX
  8
1outline
 10
0.092792
 20
6.77976
 30
0.0
  0
VERTEX
  8
1outline
 10
0.043583
 20
7.16147
 30
0.0
  0
VERTEX
  8
1outline
 10
0.012749
 20
7.5446
 30
0.0
  0
VERTEX
  8
1outline
 10
0.000263
 20
7.92843
 30
0.0
  0
VERTEX
  8
1outline
 10
0.006097
 20
8.31226
 30
0.0
  0
VERTEX
  8
1outline
 10
0.030222
 20
8.69538
 30
0.0
  0
VERTEX
  8
1outline
 10
0.072611
 20
9.07707
 30
0.0
  0
VERTEX
  8
1outline
 10
0.133237
 20
9.45662
 30
0.0
  0
VERTEX
  8
1outline
 10
0.212071
 20
9.83333
 30
0.0
  0
VERTEX
  8
1outline
 10
0.309087
 20
10.2065
 30
0.0
  0
VERTEX
  8
1outline
 10
0.424255
 20
10.5754
 30
0.0
  0
VERTEX
  8
1outline
 10
0.557549
 20
10.9393
 30
0.0
  0
VERTEX
  8
1outline
 10
0.708941
 20
11.2975
 30
0.0
  0
VERTEX
  8
1outline
 10
0.878402
 20
11.6493
 30
0.0
  0
VERTEX
  8
1outline
 10
1.06591
 20
11.9941
 30
0.0
  0
VERTEX
  8
1outline
 10
1.27142
 20
12.331
 30
0.0
  0
VERTEX
  8
1outline
 10
1.49493
 20
12.6593
 30
0.0
  0
VERTEX
  8
1outline
 10
1.73639
 20
12.9785
 30
0.0
  0
VERTEX
  8
1outline
 10
1.99579
 20
13.2877
 30
0.0
  0
VERTEX
  8
1outline
 10
2.27308
 20
13.5862
 30
0.0
  0
VERTEX
  8
1outline
 10
2.56826
 20
13.8733
 30
0.0
  0
VERTEX
  8
1outline
 10
3.448
 20
13.8778
 30
0.0
  0
VERTEX
  8
1outline
 10
2.56412
 20
12.9939
 30
0.0
  0
VERTEX
  8
1outline
 10
3.00606
 20
12.552
 30
0.0
  0
VERTEX
  8
1outline
 10
4.33188
 20
13.8778
 30
0.0
  0
VERTEX
  8
1outline
 10
4.33188
 20
12.9939
 30
0.0
  0
VERTEX
  8
1outline
 10
3.448
 20
12.1101
 30
0.0
  0
VERTEX
  8
1outline
 10
3.88994
 20
11.6681
 30
0.0
  0
VERTEX
  8
1outline
 10
4.33188
 20
12.1101
 30
0.0
  0
VERTEX
  8
1outline
 10
4.33188
 20
11.2262
 30
0.0
  0
VERTEX
  8
1outline
 10
4.27542
 20
11.0286
 30
0.0
  0
VERTEX
  8
1outline
 10
4.2226
 20
10.8302
 30
0.0
  0
VERTEX
  8
1outline
 10
4.17342
 20
10.6312
 30
0.0
  0
VERTEX
  8
1outline
 10
4.12788
 20
10.4315
 30
0.0
  0
VERTEX
  8
1outline
 10
4.08597
 20
10.2312
 30
0.0
  0
VERTEX
  8
1outline
 10
4.04771
 20
10.0304
 30
0.0
  0
VERTEX
  8
1outline
 10
4.01308
 20
9.82903
 30
0.0
  0
VERTEX
  8
1outline
 10
3.9821
 20
9.62727
 30
0.0
  0
VERTEX
  8
1outline
 10
3.95475
 20
9.42511
 30
0.0
  0
VERTEX
  8
1outline
 10
3.93104
 20
9.2226
 30
0.0
  0
VERTEX
  8
1outline
 10
3.91097
 20
9.0198
 30
0.0
  0
VERTEX
  8
1outline
 10
3.89454
 20
8.81675
 30
0.0
  0
VERTEX
  8
1outline
 10
3.88175
 20
8.6135
 30
0.0
  0
VERTEX
  8
1outline
 10
3.8726
 20
8.4101
 30
0.0
  0
VERTEX
  8
1outline
 10
3.86708
 20
8.2066
 30
0.0
  0
VERTEX
  8
1outline
 10
3.86521
 20
8.00306
 30
0.0
  0
VERTEX
  8
1outline
 10
3.86697
 20
7.79951
 30
0.0
  0
VERTEX
  8
1outline
 10
3.87238
 20
7.59601
 30
0.0
  0
VERTEX
  8
1outline
 10
3.88142
 20
7.3926
 30
0.0
  0
VERTEX
  8
1outline
 10
3.8941
 20
7.18935
 30
0.0
  0
VERTEX
  8
1outline
 10
3.91043
 20
6.98629
 30
0.0
  0
VERTEX
  8
1outline
 10
3.93039
 20
6.78348
 30
0.0
  0
VERTEX
  8
1outline
 10
3.95399
 20
6.58096
 30
0.0
  0
VERTEX
  8
1outline
 10
3.98123
 20
6.37878
 30
0.0
  0
VERTEX
  8
1outline
 10
4.0121
 20
6.177
 30
0.0
  0
VERTEX
  8
1outline
 10
4.04662
 20
5.97566
 30
0.0
  0
VERTEX
  8
1outline
 10
4.08478
 20
5.77481
 30
0.0
  0
VERTEX
  8
1outline
 10
4.12657
 20
5.57451
 30
0.0
  0
VERTEX
  8
1outline
 10
4.17201
 20
5.37479
 30
0.0
  0
VERTEX
  8
1outline
 10
4.22109
 20
5.17572
 30
0.0
  0
VERTEX
  8
1outline
 10
4.2738
 20
4.97733
 30
0.0
  0
VERTEX
  8
1outline
 10
4.33015
 20
4.77969
 30
0.0
  0
VERTEX
  8
1outline
 10
3.18262
 20
3.62456
 30
0.0
  0
VERTEX
  8
1outline
 10
3.62456
 20
3.18262
 30
0.0
  0
VERTEX
  8
1outline
 10
4.77541
 20
4.33398
 30
0.0
  0
VERTEX
  8
1outline
 10
4.8069
 20
4.25991
 30
0.0
  0
VERTEX
  8
1outline
 10
4.83902
 20
4.18613
 30
0.0
  0
VERTEX
  8
1outline
 10
4.87175
 20
4.11265
 30
0.0
  0
VERTEX
  8
1outline
 10
4.9051
 20
4.03946
 30
0.0
  0
VERTEX
  8
1outline
 10
4.93906
 20
3.96658
 30
0.0
  0
VERTEX
  8
1outline
 10
4.97363
 20
3.894
 30
0.0
  0
VERTEX
  8
1outline
 10
5.00881
 20
3.82173
 30
0.0
  0
VERTEX
  8
1outline
 10
5.0446
 20
3.74978
 30
0.0
  0
VERTEX
  8
1outline
 10
5.08099
 20
3.67814
 30
0.0
  0
VERTEX
  8
1outline
 10
5.11799
 20
3.60682
 30
0.0
  0
VERTEX
  8
1outline
 10
5.15558
 20
3.53582
 30
0.0
  0
VERTEX
  8
1outline
 10
5.19377
 20
3.46516
 30
0.0
  0
VERTEX
  8
1outline
 10
5.23256
 20
3.39482
 30
0.0
  0
VERTEX
  8
1outline
 10
5.27194
 20
3.32482
 30
0.0
  0
VERTEX
  8
1outline
 10
5.31192
 20
3.25516
 30
0.0
  0
VERTEX
  8
1outline
 10
5.35248
 20
3.18584
 30
0.0
  0
VERTEX
  8
1outline
 10
5.39363
 20
3.11687
 30
0.0
  0
VERTEX
  8
1outline
 10
5.43536
 20
3.04825
 30
0.0
  0
VERTEX
  8
1outline
 10
5.47768
 20
2.97999
 30
0.0
  0
VERTEX
  8
1outline
 10
5.52057
 20
2.91208
 30
0.0
  0
VERTEX
  8
1outline
 10
5.56405
 20
2.84453
 30
0.0
  0
VERTEX
  8
1outline
 10
5.6081
 20
2.77735
 30
0.0
  0
VERTEX
  8
1outline
 10
5.65272
 20
2.71054
 30
0.0
  0
VERTEX
  8
1outline
 10
5.69791
 20
2.6441
 30
0.0
  0
VERTEX
  8
1outline
 10
5.74368
 20
2.57804
 30
0.0
  0
VERTEX
  8
1outline
 10
5.79001
 20
2.51236
 30
0.0
  0
VERTEX
  8
1outline
 10
5.8369
 20
2.44706
 30
0.0
  0
VERTEX
  8
1outline
 10
5.88436
 20
2.38215
 30
0.0
  0
VERTEX
  8
1outline
 10
5.93238
 20
2.31764
 30
0.0
  0
VERTEX
  8
1outline
 10
5.98095
 20
2.25351
 30
0.0
  0
VERTEX
  8
1outline
 10
6.03008
 20
2.18979
 30
0.0
  0
VERTEX
  8
1outline
 10
6.07977
 20
2.12647
 30
0.0
  0
VERTEX
  8
1outline
 10
9.92023
 20
2.12647
 30
0.0
  0
VERTEX
  8
1outline
 10
9.96992
 20
2.18979
 30
0.0
  0
VERTEX
  8
1outline
 10
10.019
 20
2.25351
 30
0.0
  0
VERTEX
  8
1outline
 10
10.0676
 20
2.31764
 30
0.0
  0
VERTEX
  8
1outline
 10
10.1156
 20
2.38215
 30
0.0
  0
VERTEX
  8
1outline
 10
10.1631
 20
2.44706
 30
0.0
  0
VERTEX
  8
1outline
 10
10.21
 20
2.51236
 30
0.0
  0
VERTEX
  8
1outline
 10
10.2563
 20
2.57804
 30
0.0
  0
VERTEX
  8
1outline
 10
10.3021
 20
2.6441
 30
0.0
  0
VERTEX
  8
1outline
 10
10.3473
 20
2.71054
 30
0.0
  0
VERTEX
  8
1outline
 10
10.3919
 20
2.77735
 30
0.0
  0
VERTEX
  8
1outline
 10
10.436
 20
2.84453
 30
0.0
  0
VERTEX
  8
1outline
 10
10.4794
 20
2.91208
 30
0.0
  0
VERTEX
  8
1outline
 10
10.5223
 20
2.97999
 30
0.0
  0
VERTEX
  8
1outline
 10
10.5646
 20
3.04825
 30
0.0
  0
VERTEX
  8
1outline
 10
10.6064
 20
3.11687
 30
0.0
  0
VERTEX
  8
1outline
 10
10.6475
 20
3.18584
 30
0.0
  0
VERTEX
  8
1outline
 10
10.6881
 20
3.25516
 30
0.0
  0
VERTEX
  8
1outline
 10
10.7281
 20
3.32482
 30
0.0
  0
VERTEX
  8
1outline
 10
10.7674
 20
3.39482
 30
0.0
  0
VERTEX
  8
1outline
 10
10.8062
 20
3.46516
 30
0.0
  0
VERTEX
  8
1outline
 10
10.8444
 20
3.53582
 30
0.0
  0
VERTEX
  8
1outline
 10
10.882
 20
3.60682
 30
0.0
  0
VERTEX
  8
1outline
 10
10.919
 20
3.67814
 30
0.0
  0
VERTEX
  8
1outline
 10
10.9554
 20
3.74978
 30
0.0
  0
VERTEX
  8
1outline
 10
10.9912
 20
3.82173
 30
0.0
  0
VERTEX
  8
1outline
 10
11.0264
 20
3.894
 30
0.0
  0
VERTEX
  8
1outline
 10
11.0609
 20
3.96658
 30
0.0
  0
VERTEX
  8
1outline
 10
11.0949
 20
4.03946
 30
0.0
  0
VERTEX
  8
1outline
 10
11.1282
 20
4.11265
 30
0.0
  0
VERTEX
  8
1outline
 10
11.161
 20
4.18613
 30
0.0
  0
VERTEX
  8
1outline
 10
11.1931
 20
4.25991
 30
0.0
  0
VERTEX
  8
1outline
 10
11.2246
 20
4.33398
 30
0.0
  0
VERTEX
  8
1outline
 10
11.6698
 20
4.77968
 30
0.0
  0
VERTEX
  8
1outline
 10
11.7264
 20
4.97813
 30
0.0
  0
VERTEX
  8
1outline
 10
11.7793
 20
5.17732
 30
0.0
  0
VERTEX
  8
1outline
 10
11.8286
 20
5.3772
 30
0.0
  0
VERTEX
  8
1outline
 10
11.8741
 20
5.57773
 30
0.0
  0
VERTEX
  8
1outline
 10
11.916
 20
5.77885
 30
0.0
  0
VERTEX
  8
1outline
 10
11.9543
 20
5.98052
 30
0.0
  0
VERTEX
  8
1outline
 10
11.9888
 20
6.18267
 30
0.0
  0
VERTEX
  8
1outline
 10
12.0197
 20
6.38528
 30
0.0
  0
VERTEX
  8
1outline
 10
12.0469
 20
6.58827
 30
0.0
  0
VERTEX
  8
1outline
 10
12.0705
 20
6.79161
 30
0.0
  0
VERTEX
  8
1outline
 10
12.0904
 20
6.99525
 30
0.0
  0
VERTEX
  8
1outline
 10
12.1066
 20
7.19913
 30
0.0
  0
VERTEX
  8
1outline
 10
12.1191
 20
7.4032
 30
0.0
  0
VERTEX
  8
1outline
 10
12.128
 20
7.60742
 30
0.0
  0
VERTEX
  8
1outline
 10
12.1332
 20
7.81173
 30
0.0
  0
VERTEX
  8
1outline
 10
12.1348
 20
8.01609
 30
0.0
  0
VERTEX
  8
1outline
 10
12.1327
 20
8.22044
 30
0.0
  0
VERTEX
  8
1outline
 10
12.1269
 20
8.42474
 30
0.0
  0
VERTEX
  8
1outline
 10
12.1174
 20
8.62893
 30
0.0
  0
VERTEX
  8
1outline
 10
12.1043
 20
8.83296
 30
0.0
  0
VERTEX
  8
1outline
 10
12.0875
 20
9.0368
 30
0.0
  0
VERTEX
  8
1outline
 10
12.067
 20
9.24037
 30
0.0
  0
VERTEX
  8
1outline
 10
12.0429
 20
9.44365
 30
0.0
  0
VERTEX
  8
1outline
 10
12.0151
 20
9.64656
 30
0.0
  0
VERTEX
  8
1outline
 10
11.9836
 20
9.84908
 30
0.0
  0
VERTEX
  8
1outline
 10
11.9485
 20
10.0511
 30
0.0
  0
VERTEX
  8
1outline
 10
11.9097
 20
10.2527
 30
0.0
  0
VERTEX
  8
1outline
 10
11.8672
 20
10.4537
 30
0.0
  0
VERTEX
  8
1outline
 10
11.8211
 20
10.6541
 30
0.0
  0
VERTEX
  8
1outline
 10
11.7713
 20
10.8538
 30
0.0
  0
VERTEX
  8
1outline
 10
11.7178
 20
11.0529
 30
0.0
  0
VERTEX
  8
1outline
 10
11.6607
 20
11.2512
 30
0.0
  0
SEQEND
  8
1outline
  0
ENDSEC
  0
EOF
