999
dxflib 3.12.2.0
  0
SECTION
  2
HEADER
  9
$ACADVER
  1
AC1015
  9
$HANDSEED
  5
FFFF
  9
$DIMADEC
 70
0
  9
$DIMASZ
 40
0.125
  9
$DIMAUNIT
 70
0
  9
$DIMAZIN
 70
2
  9
$DIMDEC
 70
4
  9
$DIMEXE
 40
0.0625
  9
$DIMEXO
 40
0.03125
  9
$DIMGAP
 40
0.03125
  9
$DIMLUNIT
 70
3
  9
$DIMSCALE
 40
1.0
  9
$DIMTSZ
 40
0.0
  9
$DIMTXT
 40
0.125
  9
$DIMZIN
 70
8
  9
$DWGCODEPAGE
  3
ANSI_1252
  9
$INSUNITS
 70
0
  9
$LTSCALE
 40
1.0
  9
$MEASUREMENT
 70
1
  9
$PDMODE
 70
0
  9
$PDSIZE
 40
0
  0
ENDSEC
  0
SECTION
  2
TABLES
  0
TABLE
  2
VPORT
  5
8
100
AcDbSymbolTable
 70
1
  0
VPORT
  5
30
100
AcDbSymbolTableRecord
100
AcDbViewportTableRecord
  2
*Active
 70
0
 10
0.0
 20
0.0
 11
1.0
 21
1.0
 12
286.3055555555554861
 22
148.5
 13
0.0
 23
0.0
 14
10.0
 24
10.0
 15
10.0
 25
10.0
 16
0.0
 26
0.0
 36
1.0
 17
0.0
 27
0.0
 37
0.0
 40
297.0
 41
1.92798353909465
 42
50.0
 43
0.0
 44
0.0
 50
0.0
 51
0.0
 71
0
 72
100
 73
1
 74
3
 75
1
 76
1
 77
0
 78
0
281
0
 65
1
110
0.0
120
0.0
130
0.0
111
1.0
121
0.0
131
0.0
112
0.0
122
1.0
132
0.0
 79
0
146
0.0
  0
ENDTAB
  0
TABLE
  2
LTYPE
  5
5
100
AcDbSymbolTable
 70
41
  0
LTYPE
  5
16
100
AcDbSymbolTableRecord
100
AcDbLinetypeTableRecord
  2
Continuous
 70
0
  3
Solid line
 72
65
 73
0
 40
0.0
  0
LTYPE
  5
31
100
AcDbSymbolTableRecord
100
AcDbLinetypeTableRecord
  2
ACAD_ISO15W100
 70
0
  3
ISO double-dash triple-dot __ __ . . . __ __ . .
 72
65
 73
10
 40
39.0
 49
12.0
 74
0
 49
-3.0
 74
0
 49
12.0
 74
0
 49
-3.0
 74
0
 49
0.0
 74
0
 49
-3.0
 74
0
 49
0.0
 74
0
 49
-3.0
 74
0
 49
0.0
 74
0
 49
-3.0
 74
0
  0
LTYPE
  5
32
100
AcDbSymbolTableRecord
100
AcDbLinetypeTableRecord
  2
DIVIDE
 70
0
  3
Divide ____ . . ____ . . ____ . . ____ . . ____
 72
65
 73
6
 40
31.75
 49
12.6999999999999993
 74
0
 49
-6.3499999999999996
 74
0
 49
0.0
 74
0
 49
-6.3499999999999996
 74
0
 49
0.0
 74
0
 49
-6.3499999999999996
 74
0
  0
LTYPE
  5
33
100
AcDbSymbolTableRecord
100
AcDbLinetypeTableRecord
  2
ACAD_ISO10W100
 70
0
  3
ISO dash dot __ . __ . __ . __ . __ . __ . __ . 
 72
65
 73
4
 40
18.0
 49
12.0
 74
0
 49
-3.0
 74
0
 49
0.0
 74
0
 49
-3.0
 74
0
  0
LTYPE
  5
34
100
AcDbSymbolTableRecord
100
AcDbLinetypeTableRecord
  2
ACAD_ISO04W100
 70
0
  3
ISO long-dash dot ____ . ____ . ____ . ____ . _
 72
65
 73
4
 40
30.0
 49
24.0
 74
0
 49
-3.0
 74
0
 49
0.0
 74
0
 49
-3.0
 74
0
  0
LTYPE
  5
35
100
AcDbSymbolTableRecord
100
AcDbLinetypeTableRecord
  2
CENTER2
 70
0
  3
Center (.5x) ___ _ ___ _ ___ _ ___ _ ___ _ ___
 72
65
 73
4
 40
28.5750000000000028
 49
19.0500000000000007
 74
0
 49
-3.1749999999999998
 74
0
 49
3.1749999999999998
 74
0
 49
-3.1749999999999998
 74
0
  0
LTYPE
  5
36
100
AcDbSymbolTableRecord
100
AcDbLinetypeTableRecord
  2
ACAD_ISO11W100
 70
0
  3
ISO double-dash dot __ __ . __ __ . __ __ . __ _
 72
65
 73
6
 40
33.0
 49
12.0
 74
0
 49
-3.0
 74
0
 49
12.0
 74
0
 49
-3.0
 74
0
 49
0.0
 74
0
 49
-3.0
 74
0
  0
LTYPE
  5
37
100
AcDbSymbolTableRecord
100
AcDbLinetypeTableRecord
  2
HIDDEN2
 70
0
  3
Hidden (.5x) _ _ _ _ _ _ _ _ _ _ _ _ _ _ _ _ _ 
 72
65
 73
2
 40
4.7624999999999993
 49
3.1749999999999998
 74
0
 49
-1.5874999999999999
 74
0
  0
LTYPE
  5
38
100
AcDbSymbolTableRecord
100
AcDbLinetypeTableRecord
  2
BORDERX2
 70
0
  3
Border (2x) ____  ____  .  ____  ____  .  ___
 72
65
 73
6
 40
88.8999999999999915
 49
25.3999999999999986
 74
0
 49
-12.6999999999999993
 74
0
 49
25.3999999999999986
 74
0
 49
-12.6999999999999993
 74
0
 49
0.0
 74
0
 49
-12.6999999999999993
 74
0
  0
LTYPE
  5
39
100
AcDbSymbolTableRecord
100
AcDbLinetypeTableRecord
  2
ACAD_ISO05W100
 70
0
  3
ISO long-dash double-dot ____ .. ____ .. ____ . 
 72
65
 73
6
 40
33.0
 49
24.0
 74
0
 49
-3.0
 74
0
 49
0.0
 74
0
 49
-3.0
 74
0
 49
0.0
 74
0
 49
-3.0
 74
0
  0
LTYPE
  5
3A
100
AcDbSymbolTableRecord
100
AcDbLinetypeTableRecord
  2
DASHDOTX2
 70
0
  3
Dash dot (2x) ____  .  ____  .  ____  .  ___
 72
65
 73
4
 40
50.7999999999999972
 49
25.3999999999999986
 74
0
 49
-12.6999999999999993
 74
0
 49
0.0
 74
0
 49
-12.6999999999999993
 74
0
  0
LTYPE
  5
3B
100
AcDbSymbolTableRecord
100
AcDbLinetypeTableRecord
  2
HIDDENX2
 70
0
  3
Hidden (2x) ____ ____ ____ ____ ____ ____ ____ 
 72
65
 73
2
 40
19.0499999999999972
 49
12.6999999999999993
 74
0
 49
-6.3499999999999996
 74
0
  0
LTYPE
  5
3C
100
AcDbSymbolTableRecord
100
AcDbLinetypeTableRecord
  2
CENTERX2
 70
0
  3
Center (2x) ________  __  ________  __  _____
 72
65
 73
4
 40
101.6000000000000085
 49
63.5
 74
0
 49
-12.6999999999999993
 74
0
 49
12.6999999999999993
 74
0
 49
-12.6999999999999993
 74
0
  0
LTYPE
  5
3D
100
AcDbSymbolTableRecord
100
AcDbLinetypeTableRecord
  2
BORDER2
 70
0
  3
Border (.5x) __.__.__.__.__.__.__.__.__.__.__.
 72
65
 73
6
 40
22.2249999999999979
 49
6.3499999999999996
 74
0
 49
-3.1749999999999998
 74
0
 49
6.3499999999999996
 74
0
 49
-3.1749999999999998
 74
0
 49
0.0
 74
0
 49
-3.1749999999999998
 74
0
  0
LTYPE
  5
3E
100
AcDbSymbolTableRecord
100
AcDbLinetypeTableRecord
  2
DASHDOT2
 70
0
  3
Dash dot (.5x) _._._._._._._._._._._._._._._.
 72
65
 73
4
 40
12.6999999999999993
 49
6.3499999999999996
 74
0
 49
-3.1749999999999998
 74
0
 49
0.0
 74
0
 49
-3.1749999999999998
 74
0
  0
LTYPE
  5
3F
100
AcDbSymbolTableRecord
100
AcDbLinetypeTableRecord
  2
ACAD_ISO12W100
 70
0
  3
ISO dash double-dot __ . . __ . . __ . . __ . . 
 72
65
 73
6
 40
21.0
 49
12.0
 74
0
 49
-3.0
 74
0
 49
0.0
 74
0
 49
-3.0
 74
0
 49
0.0
 74
0
 49
-3.0
 74
0
  0
LTYPE
  5
40
100
AcDbSymbolTableRecord
100
AcDbLinetypeTableRecord
  2
ACAD_ISO07W100
 70
0
  3
ISO dot . . . . . . . . . . . . . . . . . . . . 
 72
65
 73
2
 40
3.0
 49
0.0
 74
0
 49
-3.0
 74
0
  0
LTYPE
  5
41
100
AcDbSymbolTableRecord
100
AcDbLinetypeTableRecord
  2
HIDDEN
 70
0
  3
Hidden __ __ __ __ __ __ __ __ __ __ __ __ __ __
 72
65
 73
2
 40
9.5249999999999986
 49
6.3499999999999996
 74
0
 49
-3.1749999999999998
 74
0
  0
LTYPE
  5
42
100
AcDbSymbolTableRecord
100
AcDbLinetypeTableRecord
  2
ACAD_ISO06W100
 70
0
  3
ISO long-dash triple-dot ____ ... ____ ... ____
 72
65
 73
8
 40
36.0
 49
24.0
 74
0
 49
-3.0
 74
0
 49
0.0
 74
0
 49
-3.0
 74
0
 49
0.0
 74
0
 49
-3.0
 74
0
 49
0.0
 74
0
 49
-3.0
 74
0
  0
LTYPE
  5
43
100
AcDbSymbolTableRecord
100
AcDbLinetypeTableRecord
  2
CENTER
 70
0
  3
Center ____ _ ____ _ ____ _ ____ _ ____ _ ____
 72
65
 73
4
 40
50.8000000000000043
 49
31.75
 74
0
 49
-6.3499999999999996
 74
0
 49
6.3499999999999996
 74
0
 49
-6.3499999999999996
 74
0
  0
LTYPE
  5
44
100
AcDbSymbolTableRecord
100
AcDbLinetypeTableRecord
  2
DOTX2
 70
0
  3
Dot (2x) .  .  .  .  .  .  .  .  .  .  .  .  .  .
 72
65
 73
2
 40
12.6999999999999993
 49
0.0
 74
0
 49
-12.6999999999999993
 74
0
  0
LTYPE
  5
45
100
AcDbSymbolTableRecord
100
AcDbLinetypeTableRecord
  2
PHANTOM
 70
0
  3
Phantom ______  __  __  ______  __  __  ______ 
 72
65
 73
6
 40
63.5000000000000071
 49
31.75
 74
0
 49
-6.3499999999999996
 74
0
 49
6.3499999999999996
 74
0
 49
-6.3499999999999996
 74
0
 49
6.3499999999999996
 74
0
 49
-6.3499999999999996
 74
0
  0
LTYPE
  5
46
100
AcDbSymbolTableRecord
100
AcDbLinetypeTableRecord
  2
ACAD_ISO08W100
 70
0
  3
ISO long-dash short-dash ____ __ ____ __ ____ _
 72
65
 73
4
 40
36.0
 49
24.0
 74
0
 49
-3.0
 74
0
 49
6.0
 74
0
 49
-3.0
 74
0
  0
LTYPE
  5
47
100
AcDbSymbolTableRecord
100
AcDbLinetypeTableRecord
  2
DASHEDX2
 70
0
  3
Dashed (2x) ____  ____  ____  ____  ____  ___
 72
65
 73
2
 40
38.0999999999999943
 49
25.3999999999999986
 74
0
 49
-12.6999999999999993
 74
0
  0
LTYPE
  5
48
100
AcDbSymbolTableRecord
100
AcDbLinetypeTableRecord
  2
ACAD_ISO02W100
 70
0
  3
ISO dash __ __ __ __ __ __ __ __ __ __ __ __ __
 72
65
 73
2
 40
15.0
 49
12.0
 74
0
 49
-3.0
 74
0
  0
LTYPE
  5
49
100
AcDbSymbolTableRecord
100
AcDbLinetypeTableRecord
  2
PHANTOM2
 70
0
  3
Phantom (.5x) ___ _ _ ___ _ _ ___ _ _ ___ _ _
 72
65
 73
6
 40
31.7500000000000036
 49
15.875
 74
0
 49
-3.1749999999999998
 74
0
 49
3.1749999999999998
 74
0
 49
-3.1749999999999998
 74
0
 49
3.1749999999999998
 74
0
 49
-3.1749999999999998
 74
0
  0
LTYPE
  5
4A
100
AcDbSymbolTableRecord
100
AcDbLinetypeTableRecord
  2
DASHED2
 70
0
  3
Dashed (.5x) _ _ _ _ _ _ _ _ _ _ _ _ _ _ _ _ _ 
 72
65
 73
2
 40
9.5249999999999986
 49
6.3499999999999996
 74
0
 49
-3.1749999999999998
 74
0
  0
LTYPE
  5
4B
100
AcDbSymbolTableRecord
100
AcDbLinetypeTableRecord
  2
ACAD_ISO09W100
 70
0
  3
ISO long-dash double-short-dash ____ __ __ ____
 72
65
 73
6
 40
45.0
 49
24.0
 74
0
 49
-3.0
 74
0
 49
6.0
 74
0
 49
-3.0
 74
0
 49
6.0
 74
0
 49
-3.0
 74
0
  0
LTYPE
  5
4C
100
AcDbSymbolTableRecord
100
AcDbLinetypeTableRecord
  2
ACAD_ISO13W100
 70
0
  3
ISO double-dash double-dot __ __ . . __ __ . . _
 72
65
 73
8
 40
36.0
 49
12.0
 74
0
 49
-3.0
 74
0
 49
12.0
 74
0
 49
-3.0
 74
0
 49
0.0
 74
0
 49
-3.0
 74
0
 49
0.0
 74
0
 49
-3.0
 74
0
  0
LTYPE
  5
4D
100
AcDbSymbolTableRecord
100
AcDbLinetypeTableRecord
  2
DOT2
 70
0
  3
Dot (.5x) ........................................
 72
65
 73
2
 40
3.1749999999999998
 49
0.0
 74
0
 49
-3.1749999999999998
 74
0
  0
LTYPE
  5
4E
100
AcDbSymbolTableRecord
100
AcDbLinetypeTableRecord
  2
DASHED
 70
0
  3
Dashed __ __ __ __ __ __ __ __ __ __ __ __ __ _
 72
65
 73
2
 40
19.0499999999999972
 49
12.6999999999999993
 74
0
 49
-6.3499999999999996
 74
0
  0
LTYPE
  5
4F
100
AcDbSymbolTableRecord
100
AcDbLinetypeTableRecord
  2
ACAD_ISO14W100
 70
0
  3
ISO dash triple-dot __ . . . __ . . . __ . . . _
 72
65
 73
8
 40
24.0
 49
12.0
 74
0
 49
-3.0
 74
0
 49
0.0
 74
0
 49
-3.0
 74
0
 49
0.0
 74
0
 49
-3.0
 74
0
 49
0.0
 74
0
 49
-3.0
 74
0
  0
LTYPE
  5
15
100
AcDbSymbolTableRecord
100
AcDbLinetypeTableRecord
  2
BYLAYER
 70
0
  3

 72
65
 73
0
 40
0.0
  0
LTYPE
  5
50
100
AcDbSymbolTableRecord
100
AcDbLinetypeTableRecord
  2
PHANTOMX2
 70
0
  3
Phantom (2x) ____________    ____    ____   _
 72
65
 73
6
 40
127.0000000000000142
 49
63.5
 74
0
 49
-12.6999999999999993
 74
0
 49
12.6999999999999993
 74
0
 49
-12.6999999999999993
 74
0
 49
12.6999999999999993
 74
0
 49
-12.6999999999999993
 74
0
  0
LTYPE
  5
14
100
AcDbSymbolTableRecord
100
AcDbLinetypeTableRecord
  2
BYBLOCK
 70
0
  3

 72
65
 73
0
 40
0.0
  0
LTYPE
  5
51
100
AcDbSymbolTableRecord
100
AcDbLinetypeTableRecord
  2
DIVIDEX2
 70
0
  3
Divide (2x) ________  .  .  ________  .  .  _
 72
65
 73
6
 40
63.5
 49
25.3999999999999986
 74
0
 49
-12.6999999999999993
 74
0
 49
0.0
 74
0
 49
-12.6999999999999993
 74
0
 49
0.0
 74
0
 49
-12.6999999999999993
 74
0
  0
LTYPE
  5
52
100
AcDbSymbolTableRecord
100
AcDbLinetypeTableRecord
  2
BORDER
 70
0
  3
Border __ __ . __ __ . __ __ . __ __ . __ __ .
 72
65
 73
6
 40
44.4499999999999957
 49
12.6999999999999993
 74
0
 49
-6.3499999999999996
 74
0
 49
12.6999999999999993
 74
0
 49
-6.3499999999999996
 74
0
 49
0.0
 74
0
 49
-6.3499999999999996
 74
0
  0
LTYPE
  5
53
100
AcDbSymbolTableRecord
100
AcDbLinetypeTableRecord
  2
DIVIDE2
 70
0
  3
Divide (.5x) __..__..__..__..__..__..__..__.._
 72
65
 73
6
 40
15.875
 49
6.3499999999999996
 74
0
 49
-3.1749999999999998
 74
0
 49
0.0
 74
0
 49
-3.1749999999999998
 74
0
 49
0.0
 74
0
 49
-3.1749999999999998
 74
0
  0
LTYPE
  5
54
100
AcDbSymbolTableRecord
100
AcDbLinetypeTableRecord
  2
DOT
 70
0
  3
Dot . . . . . . . . . . . . . . . . . . . . . . . .
 72
65
 73
2
 40
6.3499999999999996
 49
0.0
 74
0
 49
-6.3499999999999996
 74
0
  0
LTYPE
  5
55
100
AcDbSymbolTableRecord
100
AcDbLinetypeTableRecord
  2
DASHDOT
 70
0
  3
Dash dot __ . __ . __ . __ . __ . __ . __ . __
 72
65
 73
4
 40
25.3999999999999986
 49
12.6999999999999993
 74
0
 49
-6.3499999999999996
 74
0
 49
0.0
 74
0
 49
-6.3499999999999996
 74
0
  0
LTYPE
  5
56
100
AcDbSymbolTableRecord
100
AcDbLinetypeTableRecord
  2
ACAD_ISO03W100
 70
0
  3
ISO dash space __    __    __    __    __    __
 72
65
 73
2
 40
30.0
 49
12.0
 74
0
 49
-18.0
 74
0
  0
ENDTAB
  0
TABLE
  2
LAYER
  5
2
100
AcDbSymbolTable
 70
3
  0
LAYER
  5
57
100
AcDbSymbolTableRecord
100
AcDbLayerTableRecord
  2
rapid
 70
0
 62
5
420
255
  6
Continuous
370
0
390
F
  0
LAYER
  5
10
100
AcDbSymbolTableRecord
100
AcDbLayerTableRecord
  2
0
 70
0
 62
7
420
16777215
  6
Continuous
370
25
390
F
  0
LAYER
  5
58
100
AcDbSymbolTableRecord
100
AcDbLayerTableRecord
  2
cut at -2
 70
0
 62
7
420
16777215
  6
Continuous
370
0
390
F
  0
ENDTAB
  0
TABLE
  2
STYLE
  5
3
100
AcDbSymbolTable
 70
1
  0
STYLE
  5
59
100
AcDbSymbolTableRecord
100
AcDbTextStyleTableRecord
  2
Standard
 70
0
 40
0.0
 41
1.0
 50
0.0
 71
0
 42
2.5
  3

  4

1001
ACAD
1000
txt
1071
0
  0
ENDTAB
  0
TABLE
  2
VIEW
  5
6
100
AcDbSymbolTable
 70
0
  0
ENDTAB
  0
TABLE
  2
UCS
  5
7
100
AcDbSymbolTable
 70
0
  0
ENDTAB
  0
TABLE
  2
APPID
  5
9
100
AcDbSymbolTable
 70
1
  0
APPID
  5
12
100
AcDbSymbolTableRecord
100
AcDbRegAppTableRecord
  2
ACAD
 70
0
  0
APPID
  5
5A
100
AcDbSymbolTableRecord
100
AcDbRegAppTableRecord
  2
QCAD
 70
0
  0
ENDTAB
  0
TABLE
  2
DIMSTYLE
  5
A
100
AcDbSymbolTable
 70
1
100
AcDbDimStyleTable
 71
0
  0
DIMSTYLE
105
27
100
AcDbSymbolTableRecord
100
AcDbDimStyleTableRecord
  2
Standard
 41
0.125
 42
0.03125
 43
3.75
 44
0.0625
 70
0
 73
0
 74
0
 77
1
 78
8
140
0.125
141
2.5
143
0.03937007874016
147
0.03125
171
3
172
1
271
2
272
2
274
3
278
44
283
0
284
8
340
59
  0
ENDTAB
  0
TABLE
  2
BLOCK_RECORD
  5
1
100
AcDbSymbolTable
 70
1
  0
BLOCK_RECORD
  5
1F
100
AcDbSymbolTableRecord
100
AcDbBlockTableRecord
  2
*Model_Space
340
22
  0
BLOCK_RECORD
  5
1B
100
AcDbSymbolTableRecord
100
AcDbBlockTableRecord
  2
*Paper_Space
340
1E
  0
BLOCK_RECORD
  5
23
100
AcDbSymbolTableRecord
100
AcDbBlockTableRecord
  2
*Paper_Space0
340
26
  0
ENDTAB
  0
ENDSEC
  0
SECTION
  2
BLOCKS
  0
BLOCK
  5
20
100
AcDbEntity
  8
0
100
AcDbBlockBegin
  2
*Model_Space
 70
0
 10
0.0
 20
0.0
 30
0.0
  3
*Model_Space
  1

  0
ENDBLK
  5
21
100
AcDbEntity
  8
0
100
AcDbBlockEnd
  0
BLOCK
  5
1C
100
AcDbEntity
 67
1
  8
0
100
AcDbBlockBegin
  2
*Paper_Space
 70
0
 10
0.0
 20
0.0
 30
0.0
  3
*Paper_Space
  1

  0
ENDBLK
  5
1D
100
AcDbEntity
 67
1
  8
0
100
AcDbBlockEnd
  0
BLOCK
  5
24
100
AcDbEntity
  8
0
100
AcDbBlockBegin
  2
*Paper_Space0
 70
0
 10
0.0
 20
0.0
 30
0.0
  3
*Paper_Space0
  1

  0
ENDBLK
  5
25
100
AcDbEntity
  8
0
100
AcDbBlockEnd
  0
ENDSEC
  0
SECTION
  2
ENTITIES
  0
LINE
  5
5B
100
AcDbEntity
100
AcDbLine
  8
rapid
 62
256
370
-1
 48
1.0
  6
BYLAYER
 10
0.0
 20
0.0
 30
0.0
 11
0.0
 21
0.0
 31
0.0
  0
POINT
  5
5C
100
AcDbEntity
100
AcDbPoint
  8
cut at -2
 62
256
370
-1
 48
1.0
  6
BYLAYER
 10
0.0
 20
0.0
 30
0.0
  0
LINE
  5
5D
100
AcDbEntity
100
AcDbLine
  8
rapid
 62
256
370
-1
 48
1.0
  6
BYLAYER
 10
0.0
 20
0.0
 30
0.0
 11
4.3738200000000003
 21
0.0000000000000008
 31
0.0
  0
ARC
  5
5E
100
AcDbEntity
  8
cut at -2
 62
256
370
-1
 48
1.0
  6
BYLAYER
100
AcDbCircle
 10
11.0
 20
0.0
 30
0.0
 40
6.6261799999999997
100
AcDbArc
 50
150.48599999999999
 51
180.0
  0
LINE
  5
5F
100
AcDbEntity
100
AcDbLine
  8
rapid
 62
256
370
-1
 48
1.0
  6
BYLAYER
 10
5.2336639405657532
 20
3.2642962246199891
 30
0.0
 11
5.2336600000000004
 21
3.2642899999999999
 31
0.0
  0
LINE
  5
60
100
AcDbEntity
100
AcDbLine
  8
cut at -2
 62
256
370
-1
 48
1.0
  6
BYLAYER
 10
5.2336600000000004
 20
3.2642899999999999
 30
0.0
 11
5.2347400000000004
 21
3.2650700000000001
 31
0.0
  0
LINE
  5
61
100
AcDbEntity
100
AcDbLine
  8
rapid
 62
256
370
-1
 48
1.0
  6
BYLAYER
 10
5.2347400000000004
 20
3.2650700000000001
 30
0.0
 11
5.2347377868035911
 21
3.2650678370722162
 31
0.0
  0
ARC
  5
62
100
AcDbEntity
  8
cut at -2
 62
256
370
-1
 48
1.0
  6
BYLAYER
100
AcDbCircle
 10
5.5
 20
3.0
 30
0.0
 40
0.375
100
AcDbArc
 50
45.0
 51
135.0209999999999866
  0
LINE
  5
63
100
AcDbEntity
100
AcDbLine
  8
rapid
 62
256
370
-1
 48
1.0
  6
BYLAYER
 10
5.7651650429449557
 20
3.2651650429449552
 30
0.0
 11
5.7651700000000003
 21
3.2651699999999999
 31
0.0
  0
LINE
  5
64
100
AcDbEntity
100
AcDbLine
  8
cut at -2
 62
256
370
-1
 48
1.0
  6
BYLAYER
 10
5.7651700000000003
 20
3.2651699999999999
 30
0.0
 11
5.7674799999999999
 21
3.2598799999999999
 31
0.0
  0
LINE
  5
65
100
AcDbEntity
100
AcDbLine
  8
rapid
 62
256
370
-1
 48
1.0
  6
BYLAYER
 10
5.7674799999999999
 20
3.2598799999999999
 30
0.0
 11
5.7674724912800919
 21
3.2598904985179193
 31
0.0
  0
ARC
  5
66
100
AcDbEntity
  8
cut at -2
 62
256
370
-1
 48
1.0
  6
BYLAYER
100
AcDbCircle
 10
0.0
 20
0.0
 30
0.0
 40
6.625
100
AcDbArc
 50
360.0
 51
389.4759999999999991
  0
LINE
  5
67
100
AcDbEntity
100
AcDbLine
  8
rapid
 62
256
370
-1
 48
1.0
  6
BYLAYER
 10
6.625
 20
-0.0000000000000016
 30
0.0
 11
6.625
 21
-0.0000000000000003
 31
0.0
  0
ARC
  5
68
100
AcDbEntity
  8
cut at -2
 62
256
370
-1
 48
1.0
  6
BYLAYER
100
AcDbCircle
 10
5.5
 20
0.0
 30
0.0
 40
1.125
100
AcDbArc
 50
180.0
 51
360.0
  0
LINE
  5
69
100
AcDbEntity
100
AcDbLine
  8
rapid
 62
256
370
-1
 48
1.0
  6
BYLAYER
 10
4.375
 20
0.0000000000000001
 30
0.0
 11
7.375
 21
0.0
 31
0.0
  0
ARC
  5
6A
100
AcDbEntity
  8
cut at -2
 62
256
370
-1
 48
1.0
  6
BYLAYER
100
AcDbCircle
 10
7.25
 20
0.0
 30
0.0
 40
0.125
100
AcDbArc
 50
0.0
 51
360.0
  0
LINE
  5
6B
100
AcDbEntity
100
AcDbLine
  8
rapid
 62
256
370
-1
 48
1.0
  6
BYLAYER
 10
7.375
 20
-0.0
 30
0.0
 11
6.4036799999999996
 21
-3.625
 31
0.0
  0
ARC
  5
6C
100
AcDbEntity
  8
cut at -2
 62
256
370
-1
 48
1.0
  6
BYLAYER
100
AcDbCircle
 10
6.2786799999999996
 20
-3.625
 30
0.0
 40
0.125
100
AcDbArc
 50
0.0
 51
360.0
  0
LINE
  5
6D
100
AcDbEntity
100
AcDbLine
  8
rapid
 62
256
370
-1
 48
1.0
  6
BYLAYER
 10
6.4036799999999996
 20
-3.625
 30
0.0
 11
5.8733478042540028
 21
-5.4317387244108755
 31
0.0
  0
ARC
  5
6E
100
AcDbEntity
  8
cut at -2
 62
256
370
-1
 48
1.0
  6
BYLAYER
100
AcDbCircle
 10
0.0
 20
0.0
 30
0.0
 40
8.0
100
AcDbArc
 50
317.2370000000000232
 51
402.7629999999999768
  0
LINE
  5
6F
100
AcDbEntity
100
AcDbLine
  8
rapid
 62
256
370
-1
 48
1.0
  6
BYLAYER
 10
5.8733478042540055
 20
5.4317387244108728
 30
0.0
 11
5.8778300000000003
 21
5.43588
 31
0.0
  0
LINE
  5
70
100
AcDbEntity
100
AcDbLine
  8
cut at -2
 62
256
370
-1
 48
1.0
  6
BYLAYER
 10
5.8778300000000003
 20
5.43588
 30
0.0
 11
5.43588
 21
4.9939400000000003
 31
0.0
  0
LINE
  5
71
100
AcDbEntity
100
AcDbLine
  8
rapid
 62
256
370
-1
 48
1.0
  6
BYLAYER
 10
5.43588
 20
4.9939400000000003
 30
0.0
 11
5.43588
 21
4.9939400000000003
 31
0.0
  0
LINE
  5
72
100
AcDbEntity
100
AcDbLine
  8
cut at -2
 62
256
370
-1
 48
1.0
  6
BYLAYER
 10
5.43588
 20
4.9939400000000003
 30
0.0
 11
4.9939400000000003
 21
5.43588
 31
0.0
  0
LINE
  5
73
100
AcDbEntity
100
AcDbLine
  8
rapid
 62
256
370
-1
 48
1.0
  6
BYLAYER
 10
4.9939400000000003
 20
5.43588
 30
0.0
 11
4.9939400000000003
 21
5.43588
 31
0.0
  0
LINE
  5
74
100
AcDbEntity
100
AcDbLine
  8
cut at -2
 62
256
370
-1
 48
1.0
  6
BYLAYER
 10
4.9939400000000003
 20
5.43588
 30
0.0
 11
4.5519999999999996
 21
5.8778300000000003
 31
0.0
  0
LINE
  5
75
100
AcDbEntity
100
AcDbLine
  8
rapid
 62
256
370
-1
 48
1.0
  6
BYLAYER
 10
4.5519999999999996
 20
5.8778300000000003
 30
0.0
 11
4.5519999999999996
 21
5.8778300000000003
 31
0.0
  0
LINE
  5
76
100
AcDbEntity
100
AcDbLine
  8
cut at -2
 62
256
370
-1
 48
1.0
  6
BYLAYER
 10
4.5519999999999996
 20
5.8778300000000003
 30
0.0
 11
3.66812
 21
5.8778300000000003
 31
0.0
  0
LINE
  5
77
100
AcDbEntity
100
AcDbLine
  8
rapid
 62
256
370
-1
 48
1.0
  6
BYLAYER
 10
3.66812
 20
5.8778300000000003
 30
0.0
 11
3.66812
 21
5.8778300000000003
 31
0.0
  0
LINE
  5
78
100
AcDbEntity
100
AcDbLine
  8
cut at -2
 62
256
370
-1
 48
1.0
  6
BYLAYER
 10
3.66812
 20
5.8778300000000003
 30
0.0
 11
4.1100599999999998
 21
5.43588
 31
0.0
  0
LINE
  5
79
100
AcDbEntity
100
AcDbLine
  8
rapid
 62
256
370
-1
 48
1.0
  6
BYLAYER
 10
4.1100599999999998
 20
5.43588
 30
0.0
 11
4.1100599999999998
 21
5.43588
 31
0.0
  0
LINE
  5
7A
100
AcDbEntity
100
AcDbLine
  8
cut at -2
 62
256
370
-1
 48
1.0
  6
BYLAYER
 10
4.1100599999999998
 20
5.43588
 30
0.0
 11
4.5519999999999996
 21
4.9939400000000003
 31
0.0
  0
LINE
  5
7B
100
AcDbEntity
100
AcDbLine
  8
rapid
 62
256
370
-1
 48
1.0
  6
BYLAYER
 10
4.5519999999999996
 20
4.9939400000000003
 30
0.0
 11
4.5519999999999996
 21
4.9939400000000003
 31
0.0
  0
LINE
  5
7C
100
AcDbEntity
100
AcDbLine
  8
cut at -2
 62
256
370
-1
 48
1.0
  6
BYLAYER
 10
4.5519999999999996
 20
4.9939400000000003
 30
0.0
 11
4.9939400000000003
 21
4.5519999999999996
 31
0.0
  0
LINE
  5
7D
100
AcDbEntity
100
AcDbLine
  8
rapid
 62
256
370
-1
 48
1.0
  6
BYLAYER
 10
4.9939400000000003
 20
4.5519999999999996
 30
0.0
 11
4.9939400000000003
 21
4.5519999999999996
 31
0.0
  0
LINE
  5
7E
100
AcDbEntity
100
AcDbLine
  8
cut at -2
 62
256
370
-1
 48
1.0
  6
BYLAYER
 10
4.9939400000000003
 20
4.5519999999999996
 30
0.0
 11
4.5519999999999996
 21
4.1100599999999998
 31
0.0
  0
LINE
  5
7F
100
AcDbEntity
100
AcDbLine
  8
rapid
 62
256
370
-1
 48
1.0
  6
BYLAYER
 10
4.5519999999999996
 20
4.1100599999999998
 30
0.0
 11
4.5519999999999996
 21
4.1100599999999998
 31
0.0
  0
LINE
  5
80
100
AcDbEntity
100
AcDbLine
  8
cut at -2
 62
256
370
-1
 48
1.0
  6
BYLAYER
 10
4.5519999999999996
 20
4.1100599999999998
 30
0.0
 11
4.1100599999999998
 21
4.5519999999999996
 31
0.0
  0
LINE
  5
81
100
AcDbEntity
100
AcDbLine
  8
rapid
 62
256
370
-1
 48
1.0
  6
BYLAYER
 10
4.1100599999999998
 20
4.5519999999999996
 30
0.0
 11
4.1100599999999998
 21
4.5519999999999996
 31
0.0
  0
LINE
  5
82
100
AcDbEntity
100
AcDbLine
  8
cut at -2
 62
256
370
-1
 48
1.0
  6
BYLAYER
 10
4.1100599999999998
 20
4.5519999999999996
 30
0.0
 11
3.66812
 21
4.9939400000000003
 31
0.0
  0
LINE
  5
83
100
AcDbEntity
100
AcDbLine
  8
rapid
 62
256
370
-1
 48
1.0
  6
BYLAYER
 10
3.66812
 20
4.9939400000000003
 30
0.0
 11
3.66812
 21
4.9939400000000003
 31
0.0
  0
LINE
  5
84
100
AcDbEntity
100
AcDbLine
  8
cut at -2
 62
256
370
-1
 48
1.0
  6
BYLAYER
 10
3.66812
 20
4.9939400000000003
 30
0.0
 11
3.66812
 21
4.1100599999999998
 31
0.0
  0
LINE
  5
85
100
AcDbEntity
100
AcDbLine
  8
rapid
 62
256
370
-1
 48
1.0
  6
BYLAYER
 10
3.66812
 20
4.1100599999999998
 30
0.0
 11
3.66812
 21
4.1100599999999998
 31
0.0
  0
LINE
  5
86
100
AcDbEntity
100
AcDbLine
  8
cut at -2
 62
256
370
-1
 48
1.0
  6
BYLAYER
 10
3.66812
 20
4.1100599999999998
 30
0.0
 11
4.1100599999999998
 21
3.66812
 31
0.0
  0
LINE
  5
87
100
AcDbEntity
100
AcDbLine
  8
rapid
 62
256
370
-1
 48
1.0
  6
BYLAYER
 10
4.1100599999999998
 20
3.66812
 30
0.0
 11
4.1100599999999998
 21
3.66812
 31
0.0
  0
LINE
  5
88
100
AcDbEntity
100
AcDbLine
  8
cut at -2
 62
256
370
-1
 48
1.0
  6
BYLAYER
 10
4.1100599999999998
 20
3.66812
 30
0.0
 11
3.66812
 21
3.2261700000000002
 31
0.0
  0
LINE
  5
89
100
AcDbEntity
100
AcDbLine
  8
rapid
 62
256
370
-1
 48
1.0
  6
BYLAYER
 10
3.66812
 20
3.2261700000000002
 30
0.0
 11
3.66812
 21
3.2261700000000002
 31
0.0
  0
LINE
  5
8A
100
AcDbEntity
100
AcDbLine
  8
cut at -2
 62
256
370
-1
 48
1.0
  6
BYLAYER
 10
3.66812
 20
3.2261700000000002
 30
0.0
 11
3.6202200000000002
 21
3.17828
 31
0.0
  0
LINE
  5
8B
100
AcDbEntity
100
AcDbLine
  8
rapid
 62
256
370
-1
 48
1.0
  6
BYLAYER
 10
3.6202200000000002
 20
3.17828
 30
0.0
 11
6.4036799999999996
 21
3.625
 31
0.0
  0
ARC
  5
8C
100
AcDbEntity
  8
cut at -2
 62
256
370
-1
 48
1.0
  6
BYLAYER
100
AcDbCircle
 10
6.2786799999999996
 20
3.625
 30
0.0
 40
0.125
100
AcDbArc
 50
0.0
 51
360.0
  0
LINE
  5
8D
100
AcDbEntity
100
AcDbLine
  8
rapid
 62
256
370
-1
 48
1.0
  6
BYLAYER
 10
6.4036799999999996
 20
3.625
 30
0.0
 11
3.650968878946323
 21
-3.0836624340496659
 31
0.0
  0
ARC
  5
8E
100
AcDbEntity
  8
cut at -2
 62
256
370
-1
 48
1.0
  6
BYLAYER
100
AcDbCircle
 10
3.7983799999999999
 20
-3.1354700000000002
 30
0.0
 40
0.15625
100
AcDbArc
 50
160.6359999999999957
 51
193.98599999999999
  0
LINE
  5
8F
100
AcDbEntity
100
AcDbLine
  8
rapid
 62
256
370
-1
 48
1.0
  6
BYLAYER
 10
3.6467620609405933
 20
-3.173233250063761
 30
0.0
 11
3.64671777399005
 21
-3.1731481526864616
 31
0.0
  0
ARC
  5
90
100
AcDbEntity
  8
cut at -2
 62
256
370
-1
 48
1.0
  6
BYLAYER
100
AcDbCircle
 10
3.5337700000000001
 20
-3.2267000000000001
 30
0.0
 40
0.125
100
AcDbArc
 50
324.1560000000000059
 51
385.3670000000000186
  0
LINE
  5
91
100
AcDbEntity
100
AcDbLine
  8
rapid
 62
256
370
-1
 48
1.0
  6
BYLAYER
 10
3.6350967955786491
 20
-3.2998975443424352
 30
0.0
 11
3.6352099999999998
 21
-3.2998599999999998
 31
0.0
  0
LINE
  5
92
100
AcDbEntity
100
AcDbLine
  8
cut at -2
 62
256
370
-1
 48
1.0
  6
BYLAYER
 10
3.6352099999999998
 20
-3.2998599999999998
 30
0.0
 11
3.3948100000000001
 21
-3.54582
 31
0.0
  0
LINE
  5
93
100
AcDbEntity
100
AcDbLine
  8
rapid
 62
256
370
-1
 48
1.0
  6
BYLAYER
 10
3.3948100000000001
 20
-3.54582
 30
0.0
 11
3.3948130824217646
 21
-3.5458222015520349
 31
0.0
  0
ARC
  5
94
100
AcDbEntity
  8
cut at -2
 62
256
370
-1
 48
1.0
  6
BYLAYER
100
AcDbCircle
 10
3.48712
 20
-3.6301100000000002
 30
0.0
 40
0.125
100
AcDbArc
 50
137.5999999999999943
 51
204.0339999999999918
  0
LINE
  5
95
100
AcDbEntity
100
AcDbLine
  8
rapid
 62
256
370
-1
 48
1.0
  6
BYLAYER
 10
3.3729570081966114
 20
-3.6810198350272265
 30
0.0
 11
3.3729588484607596
 21
-3.6810147683171572
 31
0.0
  0
ARC
  5
96
100
AcDbEntity
  8
cut at -2
 62
256
370
-1
 48
1.0
  6
BYLAYER
100
AcDbCircle
 10
3.2662399999999998
 20
-3.7461000000000002
 30
0.0
 40
0.125
100
AcDbArc
 50
336.464999999999975
 51
391.3779999999999859
  0
LINE
  5
97
100
AcDbEntity
100
AcDbLine
  8
rapid
 62
256
370
-1
 48
1.0
  6
BYLAYER
 10
3.3808420401689894
 20
-3.7960136493266652
 30
0.0
 11
3.3808400000000001
 21
-3.7960199999999999
 31
0.0
  0
LINE
  5
98
100
AcDbEntity
100
AcDbLine
  8
cut at -2
 62
256
370
-1
 48
1.0
  6
BYLAYER
 10
3.3808400000000001
 20
-3.7960199999999999
 30
0.0
 11
3.36972
 21
-3.8211499999999998
 31
0.0
  0
LINE
  5
99
100
AcDbEntity
100
AcDbLine
  8
rapid
 62
256
370
-1
 48
1.0
  6
BYLAYER
 10
3.36972
 20
-3.8211499999999998
 30
0.0
 11
3.36972
 21
-3.8211499999999998
 31
0.0
  0
LINE
  5
9A
100
AcDbEntity
100
AcDbLine
  8
cut at -2
 62
256
370
-1
 48
1.0
  6
BYLAYER
 10
3.36972
 20
-3.8211499999999998
 30
0.0
 11
3.2922500000000001
 21
-3.9915500000000002
 31
0.0
  0
LINE
  5
9B
100
AcDbEntity
100
AcDbLine
  8
rapid
 62
256
370
-1
 48
1.0
  6
BYLAYER
 10
3.2922500000000001
 20
-3.9915500000000002
 30
0.0
 11
3.2922500000000001
 21
-3.9915500000000002
 31
0.0
  0
LINE
  5
9C
100
AcDbEntity
100
AcDbLine
  8
cut at -2
 62
256
370
-1
 48
1.0
  6
BYLAYER
 10
3.2922500000000001
 20
-3.9915500000000002
 30
0.0
 11
3.2115900000000002
 21
-4.1576000000000004
 31
0.0
  0
LINE
  5
9D
100
AcDbEntity
100
AcDbLine
  8
rapid
 62
256
370
-1
 48
1.0
  6
BYLAYER
 10
3.2115900000000002
 20
-4.1576000000000004
 30
0.0
 11
3.2115900000000002
 21
-4.1576000000000004
 31
0.0
  0
LINE
  5
9E
100
AcDbEntity
100
AcDbLine
  8
cut at -2
 62
256
370
-1
 48
1.0
  6
BYLAYER
 10
3.2115900000000002
 20
-4.1576000000000004
 30
0.0
 11
3.1278100000000002
 21
-4.31921
 31
0.0
  0
LINE
  5
9F
100
AcDbEntity
100
AcDbLine
  8
rapid
 62
256
370
-1
 48
1.0
  6
BYLAYER
 10
3.1278100000000002
 20
-4.31921
 30
0.0
 11
3.1278100000000002
 21
-4.31921
 31
0.0
  0
LINE
  5
A0
100
AcDbEntity
100
AcDbLine
  8
cut at -2
 62
256
370
-1
 48
1.0
  6
BYLAYER
 10
3.1278100000000002
 20
-4.31921
 30
0.0
 11
3.0409899999999999
 21
-4.47628
 31
0.0
  0
LINE
  5
A1
100
AcDbEntity
100
AcDbLine
  8
rapid
 62
256
370
-1
 48
1.0
  6
BYLAYER
 10
3.0409899999999999
 20
-4.47628
 30
0.0
 11
3.0409899999999999
 21
-4.47628
 31
0.0
  0
LINE
  5
A2
100
AcDbEntity
100
AcDbLine
  8
cut at -2
 62
256
370
-1
 48
1.0
  6
BYLAYER
 10
3.0409899999999999
 20
-4.47628
 30
0.0
 11
2.9512
 21
-4.6286899999999997
 31
0.0
  0
LINE
  5
A3
100
AcDbEntity
100
AcDbLine
  8
rapid
 62
256
370
-1
 48
1.0
  6
BYLAYER
 10
2.9512
 20
-4.6286899999999997
 30
0.0
 11
2.9512
 21
-4.6286899999999997
 31
0.0
  0
LINE
  5
A4
100
AcDbEntity
100
AcDbLine
  8
cut at -2
 62
256
370
-1
 48
1.0
  6
BYLAYER
 10
2.9512
 20
-4.6286899999999997
 30
0.0
 11
2.85853
 21
-4.7763600000000004
 31
0.0
  0
LINE
  5
A5
100
AcDbEntity
100
AcDbLine
  8
rapid
 62
256
370
-1
 48
1.0
  6
BYLAYER
 10
2.85853
 20
-4.7763600000000004
 30
0.0
 11
2.85853
 21
-4.7763600000000004
 31
0.0
  0
LINE
  5
A6
100
AcDbEntity
100
AcDbLine
  8
cut at -2
 62
256
370
-1
 48
1.0
  6
BYLAYER
 10
2.85853
 20
-4.7763600000000004
 30
0.0
 11
2.7630400000000002
 21
-4.9191700000000003
 31
0.0
  0
LINE
  5
A7
100
AcDbEntity
100
AcDbLine
  8
rapid
 62
256
370
-1
 48
1.0
  6
BYLAYER
 10
2.7630400000000002
 20
-4.9191700000000003
 30
0.0
 11
2.7630400000000002
 21
-4.9191700000000003
 31
0.0
  0
LINE
  5
A8
100
AcDbEntity
100
AcDbLine
  8
cut at -2
 62
256
370
-1
 48
1.0
  6
BYLAYER
 10
2.7630400000000002
 20
-4.9191700000000003
 30
0.0
 11
2.6648100000000001
 21
-5.0570300000000001
 31
0.0
  0
LINE
  5
A9
100
AcDbEntity
100
AcDbLine
  8
rapid
 62
256
370
-1
 48
1.0
  6
BYLAYER
 10
2.6648100000000001
 20
-5.0570300000000001
 30
0.0
 11
2.6648100000000001
 21
-5.0570300000000001
 31
0.0
  0
LINE
  5
AA
100
AcDbEntity
100
AcDbLine
  8
cut at -2
 62
256
370
-1
 48
1.0
  6
BYLAYER
 10
2.6648100000000001
 20
-5.0570300000000001
 30
0.0
 11
2.5639099999999999
 21
-5.1898400000000002
 31
0.0
  0
LINE
  5
AB
100
AcDbEntity
100
AcDbLine
  8
rapid
 62
256
370
-1
 48
1.0
  6
BYLAYER
 10
2.5639099999999999
 20
-5.1898400000000002
 30
0.0
 11
2.5639099999999999
 21
-5.1898400000000002
 31
0.0
  0
LINE
  5
AC
100
AcDbEntity
100
AcDbLine
  8
cut at -2
 62
256
370
-1
 48
1.0
  6
BYLAYER
 10
2.5639099999999999
 20
-5.1898400000000002
 30
0.0
 11
2.4604200000000001
 21
-5.3174799999999998
 31
0.0
  0
LINE
  5
AD
100
AcDbEntity
100
AcDbLine
  8
rapid
 62
256
370
-1
 48
1.0
  6
BYLAYER
 10
2.4604200000000001
 20
-5.3174799999999998
 30
0.0
 11
2.4604200000000001
 21
-5.3174799999999998
 31
0.0
  0
LINE
  5
AE
100
AcDbEntity
100
AcDbLine
  8
cut at -2
 62
256
370
-1
 48
1.0
  6
BYLAYER
 10
2.4604200000000001
 20
-5.3174799999999998
 30
0.0
 11
2.3544200000000002
 21
-5.4398600000000004
 31
0.0
  0
LINE
  5
AF
100
AcDbEntity
100
AcDbLine
  8
rapid
 62
256
370
-1
 48
1.0
  6
BYLAYER
 10
2.3544200000000002
 20
-5.4398600000000004
 30
0.0
 11
2.3544200000000002
 21
-5.4398600000000004
 31
0.0
  0
LINE
  5
B0
100
AcDbEntity
100
AcDbLine
  8
cut at -2
 62
256
370
-1
 48
1.0
  6
BYLAYER
 10
2.3544200000000002
 20
-5.4398600000000004
 30
0.0
 11
2.2459799999999999
 21
-5.55687
 31
0.0
  0
LINE
  5
B1
100
AcDbEntity
100
AcDbLine
  8
rapid
 62
256
370
-1
 48
1.0
  6
BYLAYER
 10
2.2459799999999999
 20
-5.55687
 30
0.0
 11
2.2459799999999999
 21
-5.55687
 31
0.0
  0
LINE
  5
B2
100
AcDbEntity
100
AcDbLine
  8
cut at -2
 62
256
370
-1
 48
1.0
  6
BYLAYER
 10
2.2459799999999999
 20
-5.55687
 30
0.0
 11
2.1351800000000001
 21
-5.6684200000000002
 31
0.0
  0
LINE
  5
B3
100
AcDbEntity
100
AcDbLine
  8
rapid
 62
256
370
-1
 48
1.0
  6
BYLAYER
 10
2.1351800000000001
 20
-5.6684200000000002
 30
0.0
 11
2.1351800000000001
 21
-5.6684200000000002
 31
0.0
  0
LINE
  5
B4
100
AcDbEntity
100
AcDbLine
  8
cut at -2
 62
256
370
-1
 48
1.0
  6
BYLAYER
 10
2.1351800000000001
 20
-5.6684200000000002
 30
0.0
 11
2.0220899999999999
 21
-5.7744099999999996
 31
0.0
  0
LINE
  5
B5
100
AcDbEntity
100
AcDbLine
  8
rapid
 62
256
370
-1
 48
1.0
  6
BYLAYER
 10
2.0220899999999999
 20
-5.7744099999999996
 30
0.0
 11
2.0220899999999999
 21
-5.7744099999999996
 31
0.0
  0
LINE
  5
B6
100
AcDbEntity
100
AcDbLine
  8
cut at -2
 62
256
370
-1
 48
1.0
  6
BYLAYER
 10
2.0220899999999999
 20
-5.7744099999999996
 30
0.0
 11
1.9067799999999999
 21
-5.8747100000000003
 31
0.0
  0
LINE
  5
B7
100
AcDbEntity
100
AcDbLine
  8
rapid
 62
256
370
-1
 48
1.0
  6
BYLAYER
 10
1.9067799999999999
 20
-5.8747100000000003
 30
0.0
 11
1.9067799999999999
 21
-5.8747100000000003
 31
0.0
  0
LINE
  5
B8
100
AcDbEntity
100
AcDbLine
  8
cut at -2
 62
256
370
-1
 48
1.0
  6
BYLAYER
 10
1.9067799999999999
 20
-5.8747100000000003
 30
0.0
 11
1.7893399999999999
 21
-5.9692499999999997
 31
0.0
  0
LINE
  5
B9
100
AcDbEntity
100
AcDbLine
  8
rapid
 62
256
370
-1
 48
1.0
  6
BYLAYER
 10
1.7893399999999999
 20
-5.9692499999999997
 30
0.0
 11
3.75
 21
-6.2786799999999996
 31
0.0
  0
ARC
  5
BA
100
AcDbEntity
  8
cut at -2
 62
256
370
-1
 48
1.0
  6
BYLAYER
100
AcDbCircle
 10
3.625
 20
-6.2786799999999996
 30
0.0
 40
0.125
100
AcDbArc
 50
0.0
 51
360.0
  0
LINE
  5
BB
100
AcDbEntity
100
AcDbLine
  8
rapid
 62
256
370
-1
 48
1.0
  6
BYLAYER
 10
3.75
 20
-6.2786799999999996
 30
0.0
 11
5.4358899999999997
 21
-5.87784
 31
0.0
  0
LINE
  5
BC
100
AcDbEntity
100
AcDbLine
  8
cut at -2
 62
256
370
-1
 48
1.0
  6
BYLAYER
 10
5.4358899999999997
 20
-5.87784
 30
0.0
 11
4.3756199999999996
 21
-4.8175600000000003
 31
0.0
  0
LINE
  5
BD
100
AcDbEntity
100
AcDbLine
  8
rapid
 62
256
370
-1
 48
1.0
  6
BYLAYER
 10
4.3756199999999996
 20
-4.8175600000000003
 30
0.0
 11
4.3756199999999996
 21
-4.8175600000000003
 31
0.0
  0
LINE
  5
BE
100
AcDbEntity
100
AcDbLine
  8
cut at -2
 62
256
370
-1
 48
1.0
  6
BYLAYER
 10
4.3756199999999996
 20
-4.8175600000000003
 30
0.0
 11
4.8175600000000003
 21
-4.3756199999999996
 31
0.0
  0
LINE
  5
BF
100
AcDbEntity
100
AcDbLine
  8
rapid
 62
256
370
-1
 48
1.0
  6
BYLAYER
 10
4.8175600000000003
 20
-4.3756199999999996
 30
0.0
 11
4.8175600000000003
 21
-4.3756199999999996
 31
0.0
  0
LINE
  5
C0
100
AcDbEntity
100
AcDbLine
  8
cut at -2
 62
256
370
-1
 48
1.0
  6
BYLAYER
 10
4.8175600000000003
 20
-4.3756199999999996
 30
0.0
 11
5.87784
 21
-5.4358899999999997
 31
0.0
  0
LINE
  5
C1
100
AcDbEntity
100
AcDbLine
  8
rapid
 62
256
370
-1
 48
1.0
  6
BYLAYER
 10
5.87784
 20
-5.4358899999999997
 30
0.0
 11
3.6433599999999999
 21
-3.1066099999999999
 31
0.0
  0
LINE
  5
C2
100
AcDbEntity
100
AcDbLine
  8
cut at -2
 62
256
370
-1
 48
1.0
  6
BYLAYER
 10
3.6433599999999999
 20
-3.1066099999999999
 30
0.0
 11
3.7582100000000001
 21
-2.73108
 31
0.0
  0
LINE
  5
C3
100
AcDbEntity
100
AcDbLine
  8
rapid
 62
256
370
-1
 48
1.0
  6
BYLAYER
 10
3.7582100000000001
 20
-2.73108
 30
0.0
 11
3.7582100000000001
 21
-2.73108
 31
0.0
  0
LINE
  5
C4
100
AcDbEntity
100
AcDbLine
  8
cut at -2
 62
256
370
-1
 48
1.0
  6
BYLAYER
 10
3.7582100000000001
 20
-2.73108
 30
0.0
 11
3.8574299999999999
 21
-2.3474300000000001
 31
0.0
  0
LINE
  5
C5
100
AcDbEntity
100
AcDbLine
  8
rapid
 62
256
370
-1
 48
1.0
  6
BYLAYER
 10
3.8574299999999999
 20
-2.3474300000000001
 30
0.0
 11
3.8574299999999999
 21
-2.3474300000000001
 31
0.0
  0
LINE
  5
C6
100
AcDbEntity
100
AcDbLine
  8
cut at -2
 62
256
370
-1
 48
1.0
  6
BYLAYER
 10
3.8574299999999999
 20
-2.3474300000000001
 30
0.0
 11
3.94102
 21
-1.95685
 31
0.0
  0
LINE
  5
C7
100
AcDbEntity
100
AcDbLine
  8
rapid
 62
256
370
-1
 48
1.0
  6
BYLAYER
 10
3.94102
 20
-1.95685
 30
0.0
 11
3.94102
 21
-1.95685
 31
0.0
  0
LINE
  5
C8
100
AcDbEntity
100
AcDbLine
  8
cut at -2
 62
256
370
-1
 48
1.0
  6
BYLAYER
 10
3.94102
 20
-1.95685
 30
0.0
 11
4.0090000000000003
 21
-1.56054
 31
0.0
  0
LINE
  5
C9
100
AcDbEntity
100
AcDbLine
  8
rapid
 62
256
370
-1
 48
1.0
  6
BYLAYER
 10
4.0090000000000003
 20
-1.56054
 30
0.0
 11
4.0090000000000003
 21
-1.56054
 31
0.0
  0
LINE
  5
CA
100
AcDbEntity
100
AcDbLine
  8
cut at -2
 62
256
370
-1
 48
1.0
  6
BYLAYER
 10
4.0090000000000003
 20
-1.56054
 30
0.0
 11
4.0613599999999996
 21
-1.1596900000000001
 31
0.0
  0
LINE
  5
CB
100
AcDbEntity
100
AcDbLine
  8
rapid
 62
256
370
-1
 48
1.0
  6
BYLAYER
 10
4.0613599999999996
 20
-1.1596900000000001
 30
0.0
 11
4.0613599999999996
 21
-1.1596900000000001
 31
0.0
  0
LINE
  5
CC
100
AcDbEntity
100
AcDbLine
  8
cut at -2
 62
256
370
-1
 48
1.0
  6
BYLAYER
 10
4.0613599999999996
 20
-1.1596900000000001
 30
0.0
 11
4.0981199999999998
 21
-0.755491
 31
0.0
  0
LINE
  5
CD
100
AcDbEntity
100
AcDbLine
  8
rapid
 62
256
370
-1
 48
1.0
  6
BYLAYER
 10
4.0981199999999998
 20
-0.755491
 30
0.0
 11
4.0981199999999998
 21
-0.755491
 31
0.0
  0
LINE
  5
CE
100
AcDbEntity
100
AcDbLine
  8
cut at -2
 62
256
370
-1
 48
1.0
  6
BYLAYER
 10
4.0981199999999998
 20
-0.755491
 30
0.0
 11
4.1192799999999998
 21
-0.349128
 31
0.0
  0
LINE
  5
CF
100
AcDbEntity
100
AcDbLine
  8
rapid
 62
256
370
-1
 48
1.0
  6
BYLAYER
 10
4.1192799999999998
 20
-0.349128
 30
0.0
 11
4.1192799999999998
 21
-0.349128
 31
0.0
  0
LINE
  5
D0
100
AcDbEntity
100
AcDbLine
  8
cut at -2
 62
256
370
-1
 48
1.0
  6
BYLAYER
 10
4.1192799999999998
 20
-0.349128
 30
0.0
 11
4.1248399999999998
 21
0.058206
 31
0.0
  0
LINE
  5
D1
100
AcDbEntity
100
AcDbLine
  8
rapid
 62
256
370
-1
 48
1.0
  6
BYLAYER
 10
4.1248399999999998
 20
0.058206
 30
0.0
 11
4.1248399999999998
 21
0.058206
 31
0.0
  0
LINE
  5
D2
100
AcDbEntity
100
AcDbLine
  8
cut at -2
 62
256
370
-1
 48
1.0
  6
BYLAYER
 10
4.1248399999999998
 20
0.058206
 30
0.0
 11
4.1148199999999999
 21
0.46532
 31
0.0
  0
LINE
  5
D3
100
AcDbEntity
100
AcDbLine
  8
rapid
 62
256
370
-1
 48
1.0
  6
BYLAYER
 10
4.1148199999999999
 20
0.46532
 30
0.0
 11
4.1148199999999999
 21
0.46532
 31
0.0
  0
LINE
  5
D4
100
AcDbEntity
100
AcDbLine
  8
cut at -2
 62
256
370
-1
 48
1.0
  6
BYLAYER
 10
4.1148199999999999
 20
0.46532
 30
0.0
 11
4.0892200000000001
 21
0.871024
 31
0.0
  0
LINE
  5
D5
100
AcDbEntity
100
AcDbLine
  8
rapid
 62
256
370
-1
 48
1.0
  6
BYLAYER
 10
4.0892200000000001
 20
0.871024
 30
0.0
 11
4.0892200000000001
 21
0.871024
 31
0.0
  0
LINE
  5
D6
100
AcDbEntity
100
AcDbLine
  8
cut at -2
 62
256
370
-1
 48
1.0
  6
BYLAYER
 10
4.0892200000000001
 20
0.871024
 30
0.0
 11
4.0480499999999999
 21
1.27413
 31
0.0
  0
LINE
  5
D7
100
AcDbEntity
100
AcDbLine
  8
rapid
 62
256
370
-1
 48
1.0
  6
BYLAYER
 10
4.0480499999999999
 20
1.27413
 30
0.0
 11
4.0480499999999999
 21
1.27413
 31
0.0
  0
LINE
  5
D8
100
AcDbEntity
100
AcDbLine
  8
cut at -2
 62
256
370
-1
 48
1.0
  6
BYLAYER
 10
4.0480499999999999
 20
1.27413
 30
0.0
 11
3.9913099999999999
 21
1.67344
 31
0.0
  0
LINE
  5
D9
100
AcDbEntity
100
AcDbLine
  8
rapid
 62
256
370
-1
 48
1.0
  6
BYLAYER
 10
3.9913099999999999
 20
1.67344
 30
0.0
 11
3.9913099999999999
 21
1.67344
 31
0.0
  0
LINE
  5
DA
100
AcDbEntity
100
AcDbLine
  8
cut at -2
 62
256
370
-1
 48
1.0
  6
BYLAYER
 10
3.9913099999999999
 20
1.67344
 30
0.0
 11
3.9190100000000001
 21
2.0677699999999999
 31
0.0
  0
LINE
  5
DB
100
AcDbEntity
100
AcDbLine
  8
rapid
 62
256
370
-1
 48
1.0
  6
BYLAYER
 10
3.9190100000000001
 20
2.0677699999999999
 30
0.0
 11
3.9190100000000001
 21
2.0677699999999999
 31
0.0
  0
LINE
  5
DC
100
AcDbEntity
100
AcDbLine
  8
cut at -2
 62
256
370
-1
 48
1.0
  6
BYLAYER
 10
3.9190100000000001
 20
2.0677699999999999
 30
0.0
 11
3.8311500000000001
 21
2.4559199999999999
 31
0.0
  0
LINE
  5
DD
100
AcDbEntity
100
AcDbLine
  8
rapid
 62
256
370
-1
 48
1.0
  6
BYLAYER
 10
3.8311500000000001
 20
2.4559199999999999
 30
0.0
 11
3.8311500000000001
 21
2.4559199999999999
 31
0.0
  0
LINE
  5
DE
100
AcDbEntity
100
AcDbLine
  8
cut at -2
 62
256
370
-1
 48
1.0
  6
BYLAYER
 10
3.8311500000000001
 20
2.4559199999999999
 30
0.0
 11
3.7277499999999999
 21
2.8367100000000001
 31
0.0
  0
LINE
  5
DF
100
AcDbEntity
100
AcDbLine
  8
rapid
 62
256
370
-1
 48
1.0
  6
BYLAYER
 10
3.7277499999999999
 20
2.8367100000000001
 30
0.0
 11
3.7277499999999999
 21
2.8367100000000001
 31
0.0
  0
LINE
  5
E0
100
AcDbEntity
100
AcDbLine
  8
cut at -2
 62
256
370
-1
 48
1.0
  6
BYLAYER
 10
3.7277499999999999
 20
2.8367100000000001
 30
0.0
 11
3.6088100000000001
 21
3.2089500000000002
 31
0.0
  0
LINE
  5
E1
100
AcDbEntity
100
AcDbLine
  8
rapid
 62
256
370
-1
 48
1.0
  6
BYLAYER
 10
3.6088100000000001
 20
3.2089500000000002
 30
0.0
 11
-4.3738200000000003
 21
0.0
 31
0.0
  0
ARC
  5
E2
100
AcDbEntity
  8
cut at -2
 62
256
370
-1
 48
1.0
  6
BYLAYER
100
AcDbCircle
 10
-11.0
 20
0.0
 30
0.0
 40
6.6261799999999997
100
AcDbArc
 50
0.0
 51
29.5139000000000067
  0
LINE
  5
E3
100
AcDbEntity
100
AcDbLine
  8
rapid
 62
256
370
-1
 48
1.0
  6
BYLAYER
 10
-5.2336582433028465
 20
3.2642861604600144
 30
0.0
 11
-5.2336600000000004
 21
3.2642899999999999
 31
0.0
  0
LINE
  5
E4
100
AcDbEntity
100
AcDbLine
  8
cut at -2
 62
256
370
-1
 48
1.0
  6
BYLAYER
 10
-5.2336600000000004
 20
3.2642899999999999
 30
0.0
 11
-5.2347400000000004
 21
3.2650700000000001
 31
0.0
  0
LINE
  5
E5
100
AcDbEntity
100
AcDbLine
  8
rapid
 62
256
370
-1
 48
1.0
  6
BYLAYER
 10
-5.2347400000000004
 20
3.2650700000000001
 30
0.0
 11
-5.2347359362874561
 21
3.2650659851861561
 31
0.0
  0
ARC
  5
E6
100
AcDbEntity
  8
cut at -2
 62
256
370
-1
 48
1.0
  6
BYLAYER
100
AcDbCircle
 10
-5.5
 20
3.0
 30
0.0
 40
0.375
100
AcDbArc
 50
44.9786000000000001
 51
135.0
  0
LINE
  5
E7
100
AcDbEntity
100
AcDbLine
  8
rapid
 62
256
370
-1
 48
1.0
  6
BYLAYER
 10
-5.7651650429449557
 20
3.2651650429449552
 30
0.0
 11
-5.7651700000000003
 21
3.2651699999999999
 31
0.0
  0
LINE
  5
E8
100
AcDbEntity
100
AcDbLine
  8
cut at -2
 62
256
370
-1
 48
1.0
  6
BYLAYER
 10
-5.7651700000000003
 20
3.2651699999999999
 30
0.0
 11
-5.7674799999999999
 21
3.2598799999999999
 31
0.0
  0
LINE
  5
E9
100
AcDbEntity
100
AcDbLine
  8
rapid
 62
256
370
-1
 48
1.0
  6
BYLAYER
 10
-5.7674799999999999
 20
3.2598799999999999
 30
0.0
 11
-5.7674724912800883
 21
3.2598904985179269
 31
0.0
  0
ARC
  5
EA
100
AcDbEntity
  8
cut at -2
 62
256
370
-1
 48
1.0
  6
BYLAYER
100
AcDbCircle
 10
0.0
 20
0.0
 30
0.0
 40
6.625
100
AcDbArc
 50
150.5239999999999725
 51
180.0
  0
LINE
  5
EB
100
AcDbEntity
100
AcDbLine
  8
rapid
 62
256
370
-1
 48
1.0
  6
BYLAYER
 10
-6.625
 20
0.0000000000000008
 30
0.0
 11
-6.625
 21
0.0000000000000001
 31
0.0
  0
ARC
  5
EC
100
AcDbEntity
  8
cut at -2
 62
256
370
-1
 48
1.0
  6
BYLAYER
100
AcDbCircle
 10
-5.5
 20
0.0
 30
0.0
 40
1.125
100
AcDbArc
 50
180.0
 51
360.0
  0
LINE
  5
ED
100
AcDbEntity
100
AcDbLine
  8
rapid
 62
256
370
-1
 48
1.0
  6
BYLAYER
 10
-4.375
 20
-0.0000000000000003
 30
0.0
 11
-7.125
 21
0.0
 31
0.0
  0
ARC
  5
EE
100
AcDbEntity
  8
cut at -2
 62
256
370
-1
 48
1.0
  6
BYLAYER
100
AcDbCircle
 10
-7.25
 20
0.0
 30
0.0
 40
0.125
100
AcDbArc
 50
0.0
 51
360.0
  0
LINE
  5
EF
100
AcDbEntity
100
AcDbLine
  8
rapid
 62
256
370
-1
 48
1.0
  6
BYLAYER
 10
-7.125
 20
-0.0
 30
0.0
 11
-6.1536799999999996
 21
-3.625
 31
0.0
  0
ARC
  5
F0
100
AcDbEntity
  8
cut at -2
 62
256
370
-1
 48
1.0
  6
BYLAYER
100
AcDbCircle
 10
-6.2786799999999996
 20
-3.625
 30
0.0
 40
0.125
100
AcDbArc
 50
0.0
 51
360.0
  0
LINE
  5
F1
100
AcDbEntity
100
AcDbLine
  8
rapid
 62
256
370
-1
 48
1.0
  6
BYLAYER
 10
-6.1536799999999996
 20
-3.625
 30
0.0
 11
-3.7288649530843183
 21
-3.288265046915682
 31
0.0
  0
ARC
  5
F2
100
AcDbEntity
  8
cut at -2
 62
256
370
-1
 48
1.0
  6
BYLAYER
100
AcDbCircle
 10
-3.9089700000000001
 20
-3.1081599999999998
 30
0.0
 40
0.254707
100
AcDbArc
 50
1395.0
 51
1447.9300000000000637
  0
LINE
  5
F3
100
AcDbEntity
100
AcDbLine
  8
rapid
 62
256
370
-1
 48
1.0
  6
BYLAYER
 10
-3.656698670921454
 20
-3.0730198182425879
 30
0.0
 11
-3.6516000000000002
 21
-3.08155
 31
0.0
  0
LINE
  5
F4
100
AcDbEntity
100
AcDbLine
  8
cut at -2
 62
256
370
-1
 48
1.0
  6
BYLAYER
 10
-3.6516000000000002
 20
-3.08155
 30
0.0
 11
-3.76159
 21
-2.7190400000000001
 31
0.0
  0
LINE
  5
F5
100
AcDbEntity
100
AcDbLine
  8
rapid
 62
256
370
-1
 48
1.0
  6
BYLAYER
 10
-3.76159
 20
-2.7190400000000001
 30
0.0
 11
-3.76159
 21
-2.7190400000000001
 31
0.0
  0
LINE
  5
F6
100
AcDbEntity
100
AcDbLine
  8
cut at -2
 62
256
370
-1
 48
1.0
  6
BYLAYER
 10
-3.76159
 20
-2.7190400000000001
 30
0.0
 11
-3.8570600000000002
 21
-2.3489399999999998
 31
0.0
  0
LINE
  5
F7
100
AcDbEntity
100
AcDbLine
  8
rapid
 62
256
370
-1
 48
1.0
  6
BYLAYER
 10
-3.8570600000000002
 20
-2.3489399999999998
 30
0.0
 11
-3.8570600000000002
 21
-2.3489399999999998
 31
0.0
  0
LINE
  5
F8
100
AcDbEntity
100
AcDbLine
  8
cut at -2
 62
256
370
-1
 48
1.0
  6
BYLAYER
 10
-3.8570600000000002
 20
-2.3489399999999998
 30
0.0
 11
-3.9380199999999999
 21
-1.9723299999999999
 31
0.0
  0
LINE
  5
F9
100
AcDbEntity
100
AcDbLine
  8
rapid
 62
256
370
-1
 48
1.0
  6
BYLAYER
 10
-3.9380199999999999
 20
-1.9723299999999999
 30
0.0
 11
-3.9380199999999999
 21
-1.9723299999999999
 31
0.0
  0
LINE
  5
FA
100
AcDbEntity
100
AcDbLine
  8
cut at -2
 62
256
370
-1
 48
1.0
  6
BYLAYER
 10
-3.9380199999999999
 20
-1.9723299999999999
 30
0.0
 11
-4.0044500000000003
 21
-1.59026
 31
0.0
  0
LINE
  5
FB
100
AcDbEntity
100
AcDbLine
  8
rapid
 62
256
370
-1
 48
1.0
  6
BYLAYER
 10
-4.0044500000000003
 20
-1.59026
 30
0.0
 11
-4.0044500000000003
 21
-1.59026
 31
0.0
  0
LINE
  5
FC
100
AcDbEntity
100
AcDbLine
  8
cut at -2
 62
256
370
-1
 48
1.0
  6
BYLAYER
 10
-4.0044500000000003
 20
-1.59026
 30
0.0
 11
-4.0563700000000003
 21
-1.20381
 31
0.0
  0
LINE
  5
FD
100
AcDbEntity
100
AcDbLine
  8
rapid
 62
256
370
-1
 48
1.0
  6
BYLAYER
 10
-4.0563700000000003
 20
-1.20381
 30
0.0
 11
-4.0563700000000003
 21
-1.20381
 31
0.0
  0
LINE
  5
FE
100
AcDbEntity
100
AcDbLine
  8
cut at -2
 62
256
370
-1
 48
1.0
  6
BYLAYER
 10
-4.0563700000000003
 20
-1.20381
 30
0.0
 11
-4.0937599999999996
 21
-0.814052
 31
0.0
  0
LINE
  5
FF
100
AcDbEntity
100
AcDbLine
  8
rapid
 62
256
370
-1
 48
1.0
  6
BYLAYER
 10
-4.0937599999999996
 20
-0.814052
 30
0.0
 11
-4.0937599999999996
 21
-0.814052
 31
0.0
  0
LINE
  5
100
100
AcDbEntity
100
AcDbLine
  8
cut at -2
 62
256
370
-1
 48
1.0
  6
BYLAYER
 10
-4.0937599999999996
 20
-0.814052
 30
0.0
 11
-4.1166299999999998
 21
-0.422051
 31
0.0
  0
LINE
  5
101
100
AcDbEntity
100
AcDbLine
  8
rapid
 62
256
370
-1
 48
1.0
  6
BYLAYER
 10
-4.1166299999999998
 20
-0.422051
 30
0.0
 11
-4.1166299999999998
 21
-0.422051
 31
0.0
  0
LINE
  5
102
100
AcDbEntity
100
AcDbLine
  8
cut at -2
 62
256
370
-1
 48
1.0
  6
BYLAYER
 10
-4.1166299999999998
 20
-0.422051
 30
0.0
 11
-4.1249599999999997
 21
-0.0288796
 31
0.0
  0
LINE
  5
103
100
AcDbEntity
100
AcDbLine
  8
rapid
 62
256
370
-1
 48
1.0
  6
BYLAYER
 10
-4.1249599999999997
 20
-0.0288796
 30
0.0
 11
-4.1249599999999997
 21
-0.0288796
 31
0.0
  0
LINE
  5
104
100
AcDbEntity
100
AcDbLine
  8
cut at -2
 62
256
370
-1
 48
1.0
  6
BYLAYER
 10
-4.1249599999999997
 20
-0.0288796
 30
0.0
 11
-4.11876
 21
0.364394
 31
0.0
  0
LINE
  5
105
100
AcDbEntity
100
AcDbLine
  8
rapid
 62
256
370
-1
 48
1.0
  6
BYLAYER
 10
-4.11876
 20
0.364394
 30
0.0
 11
-4.11876
 21
0.364394
 31
0.0
  0
LINE
  5
106
100
AcDbEntity
100
AcDbLine
  8
cut at -2
 62
256
370
-1
 48
1.0
  6
BYLAYER
 10
-4.11876
 20
0.364394
 30
0.0
 11
-4.0980299999999996
 21
0.756699
 31
0.0
  0
LINE
  5
107
100
AcDbEntity
100
AcDbLine
  8
rapid
 62
256
370
-1
 48
1.0
  6
BYLAYER
 10
-4.0980299999999996
 20
0.756699
 30
0.0
 11
-4.0980299999999996
 21
0.756699
 31
0.0
  0
LINE
  5
108
100
AcDbEntity
100
AcDbLine
  8
cut at -2
 62
256
370
-1
 48
1.0
  6
BYLAYER
 10
-4.0980299999999996
 20
0.756699
 30
0.0
 11
-4.0627500000000003
 21
1.14697
 31
0.0
  0
LINE
  5
109
100
AcDbEntity
100
AcDbLine
  8
rapid
 62
256
370
-1
 48
1.0
  6
BYLAYER
 10
-4.0627500000000003
 20
1.14697
 30
0.0
 11
-4.0627500000000003
 21
1.14697
 31
0.0
  0
LINE
  5
10A
100
AcDbEntity
100
AcDbLine
  8
cut at -2
 62
256
370
-1
 48
1.0
  6
BYLAYER
 10
-4.0627500000000003
 20
1.14697
 30
0.0
 11
-4.0129400000000004
 21
1.53413
 31
0.0
  0
LINE
  5
10B
100
AcDbEntity
100
AcDbLine
  8
rapid
 62
256
370
-1
 48
1.0
  6
BYLAYER
 10
-4.0129400000000004
 20
1.53413
 30
0.0
 11
-4.0129400000000004
 21
1.53413
 31
0.0
  0
LINE
  5
10C
100
AcDbEntity
100
AcDbLine
  8
cut at -2
 62
256
370
-1
 48
1.0
  6
BYLAYER
 10
-4.0129400000000004
 20
1.53413
 30
0.0
 11
-3.9485700000000001
 21
1.9171100000000001
 31
0.0
  0
LINE
  5
10D
100
AcDbEntity
100
AcDbLine
  8
rapid
 62
256
370
-1
 48
1.0
  6
BYLAYER
 10
-3.9485700000000001
 20
1.9171100000000001
 30
0.0
 11
-3.9485700000000001
 21
1.9171100000000001
 31
0.0
  0
LINE
  5
10E
100
AcDbEntity
100
AcDbLine
  8
cut at -2
 62
256
370
-1
 48
1.0
  6
BYLAYER
 10
-3.9485700000000001
 20
1.9171100000000001
 30
0.0
 11
-3.8696700000000002
 21
2.2948499999999998
 31
0.0
  0
LINE
  5
10F
100
AcDbEntity
100
AcDbLine
  8
rapid
 62
256
370
-1
 48
1.0
  6
BYLAYER
 10
-3.8696700000000002
 20
2.2948499999999998
 30
0.0
 11
-3.8696700000000002
 21
2.2948499999999998
 31
0.0
  0
LINE
  5
110
100
AcDbEntity
100
AcDbLine
  8
cut at -2
 62
256
370
-1
 48
1.0
  6
BYLAYER
 10
-3.8696700000000002
 20
2.2948499999999998
 30
0.0
 11
-3.7762099999999998
 21
2.6662699999999999
 31
0.0
  0
LINE
  5
111
100
AcDbEntity
100
AcDbLine
  8
rapid
 62
256
370
-1
 48
1.0
  6
BYLAYER
 10
-3.7762099999999998
 20
2.6662699999999999
 30
0.0
 11
-3.7762099999999998
 21
2.6662699999999999
 31
0.0
  0
LINE
  5
112
100
AcDbEntity
100
AcDbLine
  8
cut at -2
 62
256
370
-1
 48
1.0
  6
BYLAYER
 10
-3.7762099999999998
 20
2.6662699999999999
 30
0.0
 11
-3.6681900000000001
 21
3.0303
 31
0.0
  0
LINE
  5
113
100
AcDbEntity
100
AcDbLine
  8
rapid
 62
256
370
-1
 48
1.0
  6
BYLAYER
 10
-3.6681900000000001
 20
3.0303
 30
0.0
 11
-3.6681900000000001
 21
3.0303
 31
0.0
  0
LINE
  5
114
100
AcDbEntity
100
AcDbLine
  8
cut at -2
 62
256
370
-1
 48
1.0
  6
BYLAYER
 10
-3.6681900000000001
 20
3.0303
 30
0.0
 11
-3.66812
 21
3.2261700000000002
 31
0.0
  0
LINE
  5
115
100
AcDbEntity
100
AcDbLine
  8
rapid
 62
256
370
-1
 48
1.0
  6
BYLAYER
 10
-3.66812
 20
3.2261700000000002
 30
0.0
 11
-3.66812
 21
3.2261700000000002
 31
0.0
  0
LINE
  5
116
100
AcDbEntity
100
AcDbLine
  8
cut at -2
 62
256
370
-1
 48
1.0
  6
BYLAYER
 10
-3.66812
 20
3.2261700000000002
 30
0.0
 11
-3.66812
 21
4.1100599999999998
 31
0.0
  0
LINE
  5
117
100
AcDbEntity
100
AcDbLine
  8
rapid
 62
256
370
-1
 48
1.0
  6
BYLAYER
 10
-3.66812
 20
4.1100599999999998
 30
0.0
 11
-3.66812
 21
4.1100599999999998
 31
0.0
  0
LINE
  5
118
100
AcDbEntity
100
AcDbLine
  8
cut at -2
 62
256
370
-1
 48
1.0
  6
BYLAYER
 10
-3.66812
 20
4.1100599999999998
 30
0.0
 11
-4.1100599999999998
 21
3.66812
 31
0.0
  0
LINE
  5
119
100
AcDbEntity
100
AcDbLine
  8
rapid
 62
256
370
-1
 48
1.0
  6
BYLAYER
 10
-4.1100599999999998
 20
3.66812
 30
0.0
 11
-4.1100599999999998
 21
3.66812
 31
0.0
  0
LINE
  5
11A
100
AcDbEntity
100
AcDbLine
  8
cut at -2
 62
256
370
-1
 48
1.0
  6
BYLAYER
 10
-4.1100599999999998
 20
3.66812
 30
0.0
 11
-4.5519999999999996
 21
4.1100599999999998
 31
0.0
  0
LINE
  5
11B
100
AcDbEntity
100
AcDbLine
  8
rapid
 62
256
370
-1
 48
1.0
  6
BYLAYER
 10
-4.5519999999999996
 20
4.1100599999999998
 30
0.0
 11
-4.5519999999999996
 21
4.1100599999999998
 31
0.0
  0
LINE
  5
11C
100
AcDbEntity
100
AcDbLine
  8
cut at -2
 62
256
370
-1
 48
1.0
  6
BYLAYER
 10
-4.5519999999999996
 20
4.1100599999999998
 30
0.0
 11
-4.1100599999999998
 21
4.5519999999999996
 31
0.0
  0
LINE
  5
11D
100
AcDbEntity
100
AcDbLine
  8
rapid
 62
256
370
-1
 48
1.0
  6
BYLAYER
 10
-4.1100599999999998
 20
4.5519999999999996
 30
0.0
 11
-4.1100599999999998
 21
4.5519999999999996
 31
0.0
  0
LINE
  5
11E
100
AcDbEntity
100
AcDbLine
  8
cut at -2
 62
256
370
-1
 48
1.0
  6
BYLAYER
 10
-4.1100599999999998
 20
4.5519999999999996
 30
0.0
 11
-3.66812
 21
4.9939400000000003
 31
0.0
  0
LINE
  5
11F
100
AcDbEntity
100
AcDbLine
  8
rapid
 62
256
370
-1
 48
1.0
  6
BYLAYER
 10
-3.66812
 20
4.9939400000000003
 30
0.0
 11
-3.66812
 21
4.9939400000000003
 31
0.0
  0
LINE
  5
120
100
AcDbEntity
100
AcDbLine
  8
cut at -2
 62
256
370
-1
 48
1.0
  6
BYLAYER
 10
-3.66812
 20
4.9939400000000003
 30
0.0
 11
-3.66812
 21
5.8778300000000003
 31
0.0
  0
LINE
  5
121
100
AcDbEntity
100
AcDbLine
  8
rapid
 62
256
370
-1
 48
1.0
  6
BYLAYER
 10
-3.66812
 20
5.8778300000000003
 30
0.0
 11
-3.66812
 21
5.8778300000000003
 31
0.0
  0
LINE
  5
122
100
AcDbEntity
100
AcDbLine
  8
cut at -2
 62
256
370
-1
 48
1.0
  6
BYLAYER
 10
-3.66812
 20
5.8778300000000003
 30
0.0
 11
-4.1100599999999998
 21
5.43588
 31
0.0
  0
LINE
  5
123
100
AcDbEntity
100
AcDbLine
  8
rapid
 62
256
370
-1
 48
1.0
  6
BYLAYER
 10
-4.1100599999999998
 20
5.43588
 30
0.0
 11
-4.1100599999999998
 21
5.43588
 31
0.0
  0
LINE
  5
124
100
AcDbEntity
100
AcDbLine
  8
cut at -2
 62
256
370
-1
 48
1.0
  6
BYLAYER
 10
-4.1100599999999998
 20
5.43588
 30
0.0
 11
-4.5519999999999996
 21
4.9939400000000003
 31
0.0
  0
LINE
  5
125
100
AcDbEntity
100
AcDbLine
  8
rapid
 62
256
370
-1
 48
1.0
  6
BYLAYER
 10
-4.5519999999999996
 20
4.9939400000000003
 30
0.0
 11
-4.5519999999999996
 21
4.9939400000000003
 31
0.0
  0
LINE
  5
126
100
AcDbEntity
100
AcDbLine
  8
cut at -2
 62
256
370
-1
 48
1.0
  6
BYLAYER
 10
-4.5519999999999996
 20
4.9939400000000003
 30
0.0
 11
-4.9939400000000003
 21
4.5519999999999996
 31
0.0
  0
LINE
  5
127
100
AcDbEntity
100
AcDbLine
  8
rapid
 62
256
370
-1
 48
1.0
  6
BYLAYER
 10
-4.9939400000000003
 20
4.5519999999999996
 30
0.0
 11
-4.9939400000000003
 21
4.5519999999999996
 31
0.0
  0
LINE
  5
128
100
AcDbEntity
100
AcDbLine
  8
cut at -2
 62
256
370
-1
 48
1.0
  6
BYLAYER
 10
-4.9939400000000003
 20
4.5519999999999996
 30
0.0
 11
-5.43588
 21
4.9939400000000003
 31
0.0
  0
LINE
  5
129
100
AcDbEntity
100
AcDbLine
  8
rapid
 62
256
370
-1
 48
1.0
  6
BYLAYER
 10
-5.43588
 20
4.9939400000000003
 30
0.0
 11
-5.43588
 21
4.9939400000000003
 31
0.0
  0
LINE
  5
12A
100
AcDbEntity
100
AcDbLine
  8
cut at -2
 62
256
370
-1
 48
1.0
  6
BYLAYER
 10
-5.43588
 20
4.9939400000000003
 30
0.0
 11
-4.9939400000000003
 21
5.43588
 31
0.0
  0
LINE
  5
12B
100
AcDbEntity
100
AcDbLine
  8
rapid
 62
256
370
-1
 48
1.0
  6
BYLAYER
 10
-4.9939400000000003
 20
5.43588
 30
0.0
 11
-4.9939400000000003
 21
5.43588
 31
0.0
  0
LINE
  5
12C
100
AcDbEntity
100
AcDbLine
  8
cut at -2
 62
256
370
-1
 48
1.0
  6
BYLAYER
 10
-4.9939400000000003
 20
5.43588
 30
0.0
 11
-4.5519999999999996
 21
5.8778300000000003
 31
0.0
  0
LINE
  5
12D
100
AcDbEntity
100
AcDbLine
  8
rapid
 62
256
370
-1
 48
1.0
  6
BYLAYER
 10
-4.5519999999999996
 20
5.8778300000000003
 30
0.0
 11
-4.5519999999999996
 21
5.8778300000000003
 31
0.0
  0
LINE
  5
12E
100
AcDbEntity
100
AcDbLine
  8
cut at -2
 62
256
370
-1
 48
1.0
  6
BYLAYER
 10
-4.5519999999999996
 20
5.8778300000000003
 30
0.0
 11
-5.43588
 21
5.8778300000000003
 31
0.0
  0
LINE
  5
12F
100
AcDbEntity
100
AcDbLine
  8
rapid
 62
256
370
-1
 48
1.0
  6
BYLAYER
 10
-5.43588
 20
5.8778300000000003
 30
0.0
 11
-5.873347804254001
 21
5.4317387244108781
 31
0.0
  0
ARC
  5
130
100
AcDbEntity
  8
cut at -2
 62
256
370
-1
 48
1.0
  6
BYLAYER
100
AcDbCircle
 10
0.0
 20
0.0
 30
0.0
 40
8.0
100
AcDbArc
 50
137.2369999999999948
 51
312.7629999999999768
  0
LINE
  5
131
100
AcDbEntity
100
AcDbLine
  8
rapid
 62
256
370
-1
 48
1.0
  6
BYLAYER
 10
5.4317387244108737
 20
-5.8733478042540046
 30
0.0
 11
0.125
 21
-7.25
 31
0.0
  0
ARC
  5
132
100
AcDbEntity
  8
cut at -2
 62
256
370
-1
 48
1.0
  6
BYLAYER
100
AcDbCircle
 10
0.0
 20
-7.25
 30
0.0
 40
0.125
100
AcDbArc
 50
0.0
 51
360.0
  0
LINE
  5
133
100
AcDbEntity
100
AcDbLine
  8
rapid
 62
256
370
-1
 48
1.0
  6
BYLAYER
 10
0.125
 20
-7.25
 30
0.0
 11
-1.79264
 21
-5.9667000000000003
 31
0.0
  0
LINE
  5
134
100
AcDbEntity
100
AcDbLine
  8
cut at -2
 62
256
370
-1
 48
1.0
  6
BYLAYER
 10
-1.79264
 20
-5.9667000000000003
 30
0.0
 11
-1.80389
 21
-5.9579500000000003
 31
0.0
  0
LINE
  5
135
100
AcDbEntity
100
AcDbLine
  8
rapid
 62
256
370
-1
 48
1.0
  6
BYLAYER
 10
-1.80389
 20
-5.9579500000000003
 30
0.0
 11
-1.80389
 21
-5.9579500000000003
 31
0.0
  0
LINE
  5
136
100
AcDbEntity
100
AcDbLine
  8
cut at -2
 62
256
370
-1
 48
1.0
  6
BYLAYER
 10
-1.80389
 20
-5.9579500000000003
 30
0.0
 11
-1.81511
 21
-5.9491500000000004
 31
0.0
  0
LINE
  5
137
100
AcDbEntity
100
AcDbLine
  8
rapid
 62
256
370
-1
 48
1.0
  6
BYLAYER
 10
-1.81511
 20
-5.9491500000000004
 30
0.0
 11
-1.81511
 21
-5.9491500000000004
 31
0.0
  0
LINE
  5
138
100
AcDbEntity
100
AcDbLine
  8
cut at -2
 62
256
370
-1
 48
1.0
  6
BYLAYER
 10
-1.81511
 20
-5.9491500000000004
 30
0.0
 11
-1.8263199999999999
 21
-5.9402900000000001
 31
0.0
  0
LINE
  5
139
100
AcDbEntity
100
AcDbLine
  8
rapid
 62
256
370
-1
 48
1.0
  6
BYLAYER
 10
-1.8263199999999999
 20
-5.9402900000000001
 30
0.0
 11
-1.8263199999999999
 21
-5.9402900000000001
 31
0.0
  0
LINE
  5
13A
100
AcDbEntity
100
AcDbLine
  8
cut at -2
 62
256
370
-1
 48
1.0
  6
BYLAYER
 10
-1.8263199999999999
 20
-5.9402900000000001
 30
0.0
 11
-1.83752
 21
-5.9313799999999999
 31
0.0
  0
LINE
  5
13B
100
AcDbEntity
100
AcDbLine
  8
rapid
 62
256
370
-1
 48
1.0
  6
BYLAYER
 10
-1.83752
 20
-5.9313799999999999
 30
0.0
 11
-1.83752
 21
-5.9313799999999999
 31
0.0
  0
LINE
  5
13C
100
AcDbEntity
100
AcDbLine
  8
cut at -2
 62
256
370
-1
 48
1.0
  6
BYLAYER
 10
-1.83752
 20
-5.9313799999999999
 30
0.0
 11
-1.8487
 21
-5.9224100000000002
 31
0.0
  0
LINE
  5
13D
100
AcDbEntity
100
AcDbLine
  8
rapid
 62
256
370
-1
 48
1.0
  6
BYLAYER
 10
-1.8487
 20
-5.9224100000000002
 30
0.0
 11
-1.8487
 21
-5.9224100000000002
 31
0.0
  0
LINE
  5
13E
100
AcDbEntity
100
AcDbLine
  8
cut at -2
 62
256
370
-1
 48
1.0
  6
BYLAYER
 10
-1.8487
 20
-5.9224100000000002
 30
0.0
 11
-1.8598600000000001
 21
-5.9133899999999997
 31
0.0
  0
LINE
  5
13F
100
AcDbEntity
100
AcDbLine
  8
rapid
 62
256
370
-1
 48
1.0
  6
BYLAYER
 10
-1.8598600000000001
 20
-5.9133899999999997
 30
0.0
 11
-1.8598600000000001
 21
-5.9133899999999997
 31
0.0
  0
LINE
  5
140
100
AcDbEntity
100
AcDbLine
  8
cut at -2
 62
256
370
-1
 48
1.0
  6
BYLAYER
 10
-1.8598600000000001
 20
-5.9133899999999997
 30
0.0
 11
-1.871
 21
-5.9043200000000002
 31
0.0
  0
LINE
  5
141
100
AcDbEntity
100
AcDbLine
  8
rapid
 62
256
370
-1
 48
1.0
  6
BYLAYER
 10
-1.871
 20
-5.9043200000000002
 30
0.0
 11
-1.871
 21
-5.9043200000000002
 31
0.0
  0
LINE
  5
142
100
AcDbEntity
100
AcDbLine
  8
cut at -2
 62
256
370
-1
 48
1.0
  6
BYLAYER
 10
-1.871
 20
-5.9043200000000002
 30
0.0
 11
-1.88212
 21
-5.8951900000000004
 31
0.0
  0
LINE
  5
143
100
AcDbEntity
100
AcDbLine
  8
rapid
 62
256
370
-1
 48
1.0
  6
BYLAYER
 10
-1.88212
 20
-5.8951900000000004
 30
0.0
 11
-1.88212
 21
-5.8951900000000004
 31
0.0
  0
LINE
  5
144
100
AcDbEntity
100
AcDbLine
  8
cut at -2
 62
256
370
-1
 48
1.0
  6
BYLAYER
 10
-1.88212
 20
-5.8951900000000004
 30
0.0
 11
-1.89323
 21
-5.8860099999999997
 31
0.0
  0
LINE
  5
145
100
AcDbEntity
100
AcDbLine
  8
rapid
 62
256
370
-1
 48
1.0
  6
BYLAYER
 10
-1.89323
 20
-5.8860099999999997
 30
0.0
 11
-1.89323
 21
-5.8860099999999997
 31
0.0
  0
LINE
  5
146
100
AcDbEntity
100
AcDbLine
  8
cut at -2
 62
256
370
-1
 48
1.0
  6
BYLAYER
 10
-1.89323
 20
-5.8860099999999997
 30
0.0
 11
-1.90432
 21
-5.8767699999999996
 31
0.0
  0
LINE
  5
147
100
AcDbEntity
100
AcDbLine
  8
rapid
 62
256
370
-1
 48
1.0
  6
BYLAYER
 10
-1.90432
 20
-5.8767699999999996
 30
0.0
 11
-1.90432
 21
-5.8767699999999996
 31
0.0
  0
LINE
  5
148
100
AcDbEntity
100
AcDbLine
  8
cut at -2
 62
256
370
-1
 48
1.0
  6
BYLAYER
 10
-1.90432
 20
-5.8767699999999996
 30
0.0
 11
-1.9154
 21
-5.8674799999999996
 31
0.0
  0
LINE
  5
149
100
AcDbEntity
100
AcDbLine
  8
rapid
 62
256
370
-1
 48
1.0
  6
BYLAYER
 10
-1.9154
 20
-5.8674799999999996
 30
0.0
 11
-1.9154
 21
-5.8674799999999996
 31
0.0
  0
LINE
  5
14A
100
AcDbEntity
100
AcDbLine
  8
cut at -2
 62
256
370
-1
 48
1.0
  6
BYLAYER
 10
-1.9154
 20
-5.8674799999999996
 30
0.0
 11
-1.92645
 21
-5.8581399999999997
 31
0.0
  0
LINE
  5
14B
100
AcDbEntity
100
AcDbLine
  8
rapid
 62
256
370
-1
 48
1.0
  6
BYLAYER
 10
-1.92645
 20
-5.8581399999999997
 30
0.0
 11
-1.92645
 21
-5.8581399999999997
 31
0.0
  0
LINE
  5
14C
100
AcDbEntity
100
AcDbLine
  8
cut at -2
 62
256
370
-1
 48
1.0
  6
BYLAYER
 10
-1.92645
 20
-5.8581399999999997
 30
0.0
 11
-1.9374899999999999
 21
-5.8487400000000003
 31
0.0
  0
LINE
  5
14D
100
AcDbEntity
100
AcDbLine
  8
rapid
 62
256
370
-1
 48
1.0
  6
BYLAYER
 10
-1.9374899999999999
 20
-5.8487400000000003
 30
0.0
 11
-1.9374899999999999
 21
-5.8487400000000003
 31
0.0
  0
LINE
  5
14E
100
AcDbEntity
100
AcDbLine
  8
cut at -2
 62
256
370
-1
 48
1.0
  6
BYLAYER
 10
-1.9374899999999999
 20
-5.8487400000000003
 30
0.0
 11
-1.94851
 21
-5.8392900000000001
 31
0.0
  0
LINE
  5
14F
100
AcDbEntity
100
AcDbLine
  8
rapid
 62
256
370
-1
 48
1.0
  6
BYLAYER
 10
-1.94851
 20
-5.8392900000000001
 30
0.0
 11
-1.94851
 21
-5.8392900000000001
 31
0.0
  0
LINE
  5
150
100
AcDbEntity
100
AcDbLine
  8
cut at -2
 62
256
370
-1
 48
1.0
  6
BYLAYER
 10
-1.94851
 20
-5.8392900000000001
 30
0.0
 11
-1.9595199999999999
 21
-5.8297800000000004
 31
0.0
  0
LINE
  5
151
100
AcDbEntity
100
AcDbLine
  8
rapid
 62
256
370
-1
 48
1.0
  6
BYLAYER
 10
-1.9595199999999999
 20
-5.8297800000000004
 30
0.0
 11
-1.9595199999999999
 21
-5.8297800000000004
 31
0.0
  0
LINE
  5
152
100
AcDbEntity
100
AcDbLine
  8
cut at -2
 62
256
370
-1
 48
1.0
  6
BYLAYER
 10
-1.9595199999999999
 20
-5.8297800000000004
 30
0.0
 11
-1.9704999999999999
 21
-5.8202199999999999
 31
0.0
  0
LINE
  5
153
100
AcDbEntity
100
AcDbLine
  8
rapid
 62
256
370
-1
 48
1.0
  6
BYLAYER
 10
-1.9704999999999999
 20
-5.8202199999999999
 30
0.0
 11
-1.9704999999999999
 21
-5.8202199999999999
 31
0.0
  0
LINE
  5
154
100
AcDbEntity
100
AcDbLine
  8
cut at -2
 62
256
370
-1
 48
1.0
  6
BYLAYER
 10
-1.9704999999999999
 20
-5.8202199999999999
 30
0.0
 11
-2.0741100000000001
 21
-5.7266199999999996
 31
0.0
  0
LINE
  5
155
100
AcDbEntity
100
AcDbLine
  8
rapid
 62
256
370
-1
 48
1.0
  6
BYLAYER
 10
-2.0741100000000001
 20
-5.7266199999999996
 30
0.0
 11
-2.0741100000000001
 21
-5.7266199999999996
 31
0.0
  0
LINE
  5
156
100
AcDbEntity
100
AcDbLine
  8
cut at -2
 62
256
370
-1
 48
1.0
  6
BYLAYER
 10
-2.0741100000000001
 20
-5.7266199999999996
 30
0.0
 11
-2.17584
 21
-5.6284000000000001
 31
0.0
  0
LINE
  5
157
100
AcDbEntity
100
AcDbLine
  8
rapid
 62
256
370
-1
 48
1.0
  6
BYLAYER
 10
-2.17584
 20
-5.6284000000000001
 30
0.0
 11
-2.17584
 21
-5.6284000000000001
 31
0.0
  0
LINE
  5
158
100
AcDbEntity
100
AcDbLine
  8
cut at -2
 62
256
370
-1
 48
1.0
  6
BYLAYER
 10
-2.17584
 20
-5.6284000000000001
 30
0.0
 11
-2.2756500000000002
 21
-5.5256499999999997
 31
0.0
  0
LINE
  5
159
100
AcDbEntity
100
AcDbLine
  8
rapid
 62
256
370
-1
 48
1.0
  6
BYLAYER
 10
-2.2756500000000002
 20
-5.5256499999999997
 30
0.0
 11
-2.2756500000000002
 21
-5.5256499999999997
 31
0.0
  0
LINE
  5
15A
100
AcDbEntity
100
AcDbLine
  8
cut at -2
 62
256
370
-1
 48
1.0
  6
BYLAYER
 10
-2.2756500000000002
 20
-5.5256499999999997
 30
0.0
 11
-2.3734799999999998
 21
-5.4184599999999996
 31
0.0
  0
LINE
  5
15B
100
AcDbEntity
100
AcDbLine
  8
rapid
 62
256
370
-1
 48
1.0
  6
BYLAYER
 10
-2.3734799999999998
 20
-5.4184599999999996
 30
0.0
 11
-2.3734799999999998
 21
-5.4184599999999996
 31
0.0
  0
LINE
  5
15C
100
AcDbEntity
100
AcDbLine
  8
cut at -2
 62
256
370
-1
 48
1.0
  6
BYLAYER
 10
-2.3734799999999998
 20
-5.4184599999999996
 30
0.0
 11
-2.4692799999999999
 21
-5.3068799999999996
 31
0.0
  0
LINE
  5
15D
100
AcDbEntity
100
AcDbLine
  8
rapid
 62
256
370
-1
 48
1.0
  6
BYLAYER
 10
-2.4692799999999999
 20
-5.3068799999999996
 30
0.0
 11
-2.4692799999999999
 21
-5.3068799999999996
 31
0.0
  0
LINE
  5
15E
100
AcDbEntity
100
AcDbLine
  8
cut at -2
 62
256
370
-1
 48
1.0
  6
BYLAYER
 10
-2.4692799999999999
 20
-5.3068799999999996
 30
0.0
 11
-2.56298
 21
-5.19102
 31
0.0
  0
LINE
  5
15F
100
AcDbEntity
100
AcDbLine
  8
rapid
 62
256
370
-1
 48
1.0
  6
BYLAYER
 10
-2.56298
 20
-5.19102
 30
0.0
 11
-2.56298
 21
-5.19102
 31
0.0
  0
LINE
  5
160
100
AcDbEntity
100
AcDbLine
  8
cut at -2
 62
256
370
-1
 48
1.0
  6
BYLAYER
 10
-2.56298
 20
-5.19102
 30
0.0
 11
-2.65455
 21
-5.0709299999999997
 31
0.0
  0
LINE
  5
161
100
AcDbEntity
100
AcDbLine
  8
rapid
 62
256
370
-1
 48
1.0
  6
BYLAYER
 10
-2.65455
 20
-5.0709299999999997
 30
0.0
 11
-2.65455
 21
-5.0709299999999997
 31
0.0
  0
LINE
  5
162
100
AcDbEntity
100
AcDbLine
  8
cut at -2
 62
256
370
-1
 48
1.0
  6
BYLAYER
 10
-2.65455
 20
-5.0709299999999997
 30
0.0
 11
-2.7439200000000001
 21
-4.9467100000000004
 31
0.0
  0
LINE
  5
163
100
AcDbEntity
100
AcDbLine
  8
rapid
 62
256
370
-1
 48
1.0
  6
BYLAYER
 10
-2.7439200000000001
 20
-4.9467100000000004
 30
0.0
 11
-2.7439200000000001
 21
-4.9467100000000004
 31
0.0
  0
LINE
  5
164
100
AcDbEntity
100
AcDbLine
  8
cut at -2
 62
256
370
-1
 48
1.0
  6
BYLAYER
 10
-2.7439200000000001
 20
-4.9467100000000004
 30
0.0
 11
-2.8310300000000002
 21
-4.8184199999999997
 31
0.0
  0
LINE
  5
165
100
AcDbEntity
100
AcDbLine
  8
rapid
 62
256
370
-1
 48
1.0
  6
BYLAYER
 10
-2.8310300000000002
 20
-4.8184199999999997
 30
0.0
 11
-2.8310300000000002
 21
-4.8184199999999997
 31
0.0
  0
LINE
  5
166
100
AcDbEntity
100
AcDbLine
  8
cut at -2
 62
256
370
-1
 48
1.0
  6
BYLAYER
 10
-2.8310300000000002
 20
-4.8184199999999997
 30
0.0
 11
-2.9158400000000002
 21
-4.6861499999999996
 31
0.0
  0
LINE
  5
167
100
AcDbEntity
100
AcDbLine
  8
rapid
 62
256
370
-1
 48
1.0
  6
BYLAYER
 10
-2.9158400000000002
 20
-4.6861499999999996
 30
0.0
 11
-2.9158400000000002
 21
-4.6861499999999996
 31
0.0
  0
LINE
  5
168
100
AcDbEntity
100
AcDbLine
  8
cut at -2
 62
256
370
-1
 48
1.0
  6
BYLAYER
 10
-2.9158400000000002
 20
-4.6861499999999996
 30
0.0
 11
-2.9982799999999998
 21
-4.5499799999999997
 31
0.0
  0
LINE
  5
169
100
AcDbEntity
100
AcDbLine
  8
rapid
 62
256
370
-1
 48
1.0
  6
BYLAYER
 10
-2.9982799999999998
 20
-4.5499799999999997
 30
0.0
 11
-2.9982799999999998
 21
-4.5499799999999997
 31
0.0
  0
LINE
  5
16A
100
AcDbEntity
100
AcDbLine
  8
cut at -2
 62
256
370
-1
 48
1.0
  6
BYLAYER
 10
-2.9982799999999998
 20
-4.5499799999999997
 30
0.0
 11
-3.0783100000000001
 21
-4.40998
 31
0.0
  0
LINE
  5
16B
100
AcDbEntity
100
AcDbLine
  8
rapid
 62
256
370
-1
 48
1.0
  6
BYLAYER
 10
-3.0783100000000001
 20
-4.40998
 30
0.0
 11
-3.0783100000000001
 21
-4.40998
 31
0.0
  0
LINE
  5
16C
100
AcDbEntity
100
AcDbLine
  8
cut at -2
 62
256
370
-1
 48
1.0
  6
BYLAYER
 10
-3.0783100000000001
 20
-4.40998
 30
0.0
 11
-3.1558700000000002
 21
-4.2662399999999998
 31
0.0
  0
LINE
  5
16D
100
AcDbEntity
100
AcDbLine
  8
rapid
 62
256
370
-1
 48
1.0
  6
BYLAYER
 10
-3.1558700000000002
 20
-4.2662399999999998
 30
0.0
 11
-3.1558700000000002
 21
-4.2662399999999998
 31
0.0
  0
LINE
  5
16E
100
AcDbEntity
100
AcDbLine
  8
cut at -2
 62
256
370
-1
 48
1.0
  6
BYLAYER
 10
-3.1558700000000002
 20
-4.2662399999999998
 30
0.0
 11
-3.2309000000000001
 21
-4.1188200000000004
 31
0.0
  0
LINE
  5
16F
100
AcDbEntity
100
AcDbLine
  8
rapid
 62
256
370
-1
 48
1.0
  6
BYLAYER
 10
-3.2309000000000001
 20
-4.1188200000000004
 30
0.0
 11
-3.2309000000000001
 21
-4.1188200000000004
 31
0.0
  0
LINE
  5
170
100
AcDbEntity
100
AcDbLine
  8
cut at -2
 62
256
370
-1
 48
1.0
  6
BYLAYER
 10
-3.2309000000000001
 20
-4.1188200000000004
 30
0.0
 11
-3.30335
 21
-3.9678200000000001
 31
0.0
  0
LINE
  5
171
100
AcDbEntity
100
AcDbLine
  8
rapid
 62
256
370
-1
 48
1.0
  6
BYLAYER
 10
-3.30335
 20
-3.9678200000000001
 30
0.0
 11
-3.30335
 21
-3.9678200000000001
 31
0.0
  0
LINE
  5
172
100
AcDbEntity
100
AcDbLine
  8
cut at -2
 62
256
370
-1
 48
1.0
  6
BYLAYER
 10
-3.30335
 20
-3.9678200000000001
 30
0.0
 11
-3.37317
 21
-3.8132999999999999
 31
0.0
  0
LINE
  5
173
100
AcDbEntity
100
AcDbLine
  8
rapid
 62
256
370
-1
 48
1.0
  6
BYLAYER
 10
-3.37317
 20
-3.8132999999999999
 30
0.0
 11
-3.3726099999999999
 21
-3.8145600000000002
 31
0.0
  0
LINE
  5
174
100
AcDbEntity
100
AcDbLine
  8
cut at -2
 62
256
370
-1
 48
1.0
  6
BYLAYER
 10
-3.3726099999999999
 20
-3.8145600000000002
 30
0.0
 11
-4.3754400000000002
 21
-4.81738
 31
0.0
  0
LINE
  5
175
100
AcDbEntity
100
AcDbLine
  8
rapid
 62
256
370
-1
 48
1.0
  6
BYLAYER
 10
-4.3754400000000002
 20
-4.81738
 30
0.0
 11
-4.3754400000000002
 21
-4.81738
 31
0.0
  0
LINE
  5
176
100
AcDbEntity
100
AcDbLine
  8
cut at -2
 62
256
370
-1
 48
1.0
  6
BYLAYER
 10
-4.3754400000000002
 20
-4.81738
 30
0.0
 11
-4.81738
 21
-4.3754400000000002
 31
0.0
  0
LINE
  5
177
100
AcDbEntity
100
AcDbLine
  8
rapid
 62
256
370
-1
 48
1.0
  6
BYLAYER
 10
-4.81738
 20
-4.3754400000000002
 30
0.0
 11
-4.81738
 21
-4.3754400000000002
 31
0.0
  0
LINE
  5
178
100
AcDbEntity
100
AcDbLine
  8
cut at -2
 62
256
370
-1
 48
1.0
  6
BYLAYER
 10
-4.81738
 20
-4.3754400000000002
 30
0.0
 11
-3.6911499999999999
 21
-3.2492100000000002
 31
0.0
  0
LINE
  5
179
100
AcDbEntity
100
AcDbLine
  8
rapid
 62
256
370
-1
 48
1.0
  6
BYLAYER
 10
-3.6911499999999999
 20
-3.2492100000000002
 30
0.0
 11
-3.5
 21
-6.2786799999999996
 31
0.0
  0
ARC
  5
17A
100
AcDbEntity
  8
cut at -2
 62
256
370
-1
 48
1.0
  6
BYLAYER
100
AcDbCircle
 10
-3.625
 20
-6.2786799999999996
 30
0.0
 40
0.125
100
AcDbArc
 50
0.0
 51
360.0
  0
LINE
  5
17B
100
AcDbEntity
100
AcDbLine
  8
rapid
 62
256
370
-1
 48
1.0
  6
BYLAYER
 10
-3.5
 20
-6.2786799999999996
 30
0.0
 11
-1.7932999999999999
 21
-5.9661799999999996
 31
0.0
  0
LINE
  5
17C
100
AcDbEntity
100
AcDbLine
  8
cut at -2
 62
256
370
-1
 48
1.0
  6
BYLAYER
 10
-1.7932999999999999
 20
-5.9661799999999996
 30
0.0
 11
1.7934600000000001
 21
-5.9661799999999996
 31
0.0
  0
LINE
  5
17D
100
AcDbEntity
100
AcDbLine
  8
rapid
 62
256
370
-1
 48
1.0
  6
BYLAYER
 10
1.7934600000000001
 20
-5.9661799999999996
 30
0.0
 11
-6.1536799999999996
 21
3.625
 31
0.0
  0
ARC
  5
17E
100
AcDbEntity
  8
cut at -2
 62
256
370
-1
 48
1.0
  6
BYLAYER
100
AcDbCircle
 10
-6.2786799999999996
 20
3.625
 30
0.0
 40
0.125
100
AcDbArc
 50
0.0
 51
360.0
  0
LINE
  5
17F
100
AcDbEntity
100
AcDbLine
  8
rapid
 62
256
370
-1
 48
1.0
  6
BYLAYER
 10
-6.1536799999999996
 20
3.625
 30
0.0
 11
-5.8778300000000003
 21
5.43588
 31
0.0
  0
LINE
  5
180
100
AcDbEntity
100
AcDbLine
  8
cut at -2
 62
256
370
-1
 48
1.0
  6
BYLAYER
 10
-5.8778300000000003
 20
5.43588
 30
0.0
 11
-5.43588
 21
5.8778300000000003
 31
0.0
  0
ENDSEC
  0
SECTION
  2
OBJECTS
  0
DICTIONARY
  5
C
100
AcDbDictionary
280
0
281
1
  3
ACAD_GROUP
350
D
  3
ACAD_LAYOUT
350
1A
  3
ACAD_MLINESTYLE
350
17
  3
ACAD_PLOTSETTINGS
350
19
  3
ACAD_PLOTSTYLENAME
350
E
  3
AcDbVariableDictionary
350
181
  3
QCAD_OBJECTS
350
182
  0
DICTIONARY
  5
D
100
AcDbDictionary
280
0
281
1
  0
ACDBDICTIONARYWDFLT
  5
E
100
AcDbDictionary
281
1
  3
Normal
350
F
100
AcDbDictionaryWithDefault
340
F
  0
ACDBPLACEHOLDER
  5
F
  0
DICTIONARY
  5
17
100
AcDbDictionary
280
0
281
1
  3
Standard
350
18
  0
MLINESTYLE
  5
18
100
AcDbMlineStyle
  2
STANDARD
 70
0
  3

 62
256
 51
90.0
 52
90.0
 71
2
 49
0.5
 62
256
  6
BYLAYER
 49
-0.5
 62
256
  6
BYLAYER
  0
DICTIONARY
  5
19
100
AcDbDictionary
280
0
281
1
  0
DICTIONARY
  5
1A
100
AcDbDictionary
281
1
  3
Layout1
350
1E
  3
Layout2
350
26
  3
Model
350
22
  0
LAYOUT
  5
1E
100
AcDbPlotSettings
  1

  2
none_device
  4

  6

 40
0.0
 41
0.0
 42
0.0
 43
0.0
 44
0.0
 45
0.0
 46
0.0
 47
0.0
 48
0.0
 49
0.0
140
0.0
141
0.0
142
1.0
143
1.0
 70
688
 72
0
 73
0
 74
5
  7

 75
16
147
1.0
148
0.0
149
0.0
100
AcDbLayout
  1
Layout1
 70
1
 71
1
 10
0.0
 20
0.0
 11
420.0
 21
297.0
 12
0.0
 22
0.0
 32
0.0
 14
100000000000000000000.0
 24
100000000000000000000.0
 34
100000000000000000000.0
 15
-100000000000000000000.0
 25
-100000000000000000000.0
 35
-100000000000000000000.0
146
0.0
 13
0.0
 23
0.0
 33
0.0
 16
1.0
 26
0.0
 36
0.0
 17
0.0
 27
1.0
 37
0.0
 76
0
330
1B
  0
LAYOUT
  5
22
100
AcDbPlotSettings
  1

  2
none_device
  4

  6

 40
0.0
 41
0.0
 42
0.0
 43
0.0
 44
0.0
 45
0.0
 46
0.0
 47
0.0
 48
0.0
 49
0.0
140
0.0
141
0.0
142
1.0
143
1.0
 70
1712
 72
0
 73
0
 74
0
  7

 75
0
147
1.0
148
0.0
149
0.0
100
AcDbLayout
  1
Model
 70
1
 71
0
 10
0.0
 20
0.0
 11
12.0
 21
9.0
 12
0.0
 22
0.0
 32
0.0
 14
0.0
 24
0.0
 34
0.0
 15
0.0
 25
0.0
 35
0.0
146
0.0
 13
0.0
 23
0.0
 33
0.0
 16
1.0
 26
0.0
 36
0.0
 17
0.0
 27
1.0
 37
0.0
 76
0
330
1F
  0
LAYOUT
  5
26
100
AcDbPlotSettings
  1

  2
none_device
  4

  6

 40
0.0
 41
0.0
 42
0.0
 43
0.0
 44
0.0
 45
0.0
 46
0.0
 47
0.0
 48
0.0
 49
0.0
140
0.0
141
0.0
142
1.0
143
1.0
 70
688
 72
0
 73
0
 74
5
  7

 75
16
147
1.0
148
0.0
149
0.0
100
AcDbLayout
  1
Layout2
 70
1
 71
2
 10
0.0
 20
0.0
 11
12.0
 21
9.0
 12
0.0
 22
0.0
 32
0.0
 14
0.0
 24
0.0
 34
0.0
 15
0.0
 25
0.0
 35
0.0
146
0.0
 13
0.0
 23
0.0
 33
0.0
 16
1.0
 26
0.0
 36
0.0
 17
0.0
 27
1.0
 37
0.0
 76
0
330
23
  0
DICTIONARY
  5
181
100
AcDbDictionary
281
1
  3
DIMASSOC
350
184
  3
HIDETEXT
350
183
  0
DICTIONARYVAR
  5
183
100
DictionaryVariables
280
0
  1
2
  0
DICTIONARYVAR
  5
184
100
DictionaryVariables
280
0
  1
1
  0
DICTIONARY
  5
182
100
AcDbDictionary
281
1
  3
ColorSettings/BackgroundColor
350
185
  3
ColorSettings/ColorMode
350
186
  3
Grid/DisplayGrid00
350
187
  3
Grid/DisplayGrid01
350
188
  3
Grid/DisplayGrid02
350
189
  3
Grid/DisplayGrid03
350
18A
  3
Grid/GridSpacingX00
350
18B
  3
Grid/GridSpacingX01
350
18C
  3
Grid/GridSpacingX02
350
18D
  3
Grid/GridSpacingX03
350
18E
  3
Grid/GridSpacingY00
350
18F
  3
Grid/GridSpacingY01
350
190
  3
Grid/GridSpacingY02
350
191
  3
Grid/GridSpacingY03
350
192
  3
Grid/IsometricGrid00
350
193
  3
Grid/IsometricGrid01
350
194
  3
Grid/IsometricGrid02
350
195
  3
Grid/IsometricGrid03
350
196
  3
Grid/IsometricProjection00
350
197
  3
Grid/IsometricProjection01
350
198
  3
Grid/IsometricProjection02
350
199
  3
Grid/IsometricProjection03
350
19A
  3
Grid/MetaGridSpacingX00
350
19B
  3
Grid/MetaGridSpacingX01
350
19C
  3
Grid/MetaGridSpacingX02
350
19D
  3
Grid/MetaGridSpacingX03
350
19E
  3
Grid/MetaGridSpacingY00
350
19F
  3
Grid/MetaGridSpacingY01
350
1A0
  3
Grid/MetaGridSpacingY02
350
1A1
  3
Grid/MetaGridSpacingY03
350
1A2
  3
MultiPageSettings/Columns
350
1A3
  3
MultiPageSettings/GlueMarginsBottom
350
1A4
  3
MultiPageSettings/GlueMarginsLeft
350
1A5
  3
MultiPageSettings/GlueMarginsRight
350
1A6
  3
MultiPageSettings/GlueMarginsTop
350
1A7
  3
MultiPageSettings/PrintCropMarks
350
1A8
  3
MultiPageSettings/Rows
350
1A9
  3
PageSettings/OffsetX
350
1AA
  3
PageSettings/OffsetY
350
1AB
  3
PageSettings/PageOrientation
350
1AC
  3
PageSettings/PaperHeight
350
1AD
  3
PageSettings/PaperWidth
350
1AE
  3
PageSettings/Scale
350
1AF
  3
PageSettings/ShowPaperBorders
350
1B0
  3
QCADVersion
350
1B1
  3
UnitSettings/PaperUnit
350
1B2
  0
XRECORD
  5
185
330
182
100
AcDbXrecord
280
1
1000
White
  0
XRECORD
  5
186
330
182
100
AcDbXrecord
280
1
1000
FullColor
  0
XRECORD
  5
187
330
182
100
AcDbXrecord
280
1
290
1
  0
XRECORD
  5
188
330
182
100
AcDbXrecord
280
1
290
1
  0
XRECORD
  5
189
330
182
100
AcDbXrecord
280
1
290
1
  0
XRECORD
  5
18A
330
182
100
AcDbXrecord
280
1
290
1
  0
XRECORD
  5
18B
330
182
100
AcDbXrecord
280
1
1000
auto
  0
XRECORD
  5
18C
330
182
100
AcDbXrecord
280
1
1000
auto
  0
XRECORD
  5
18D
330
182
100
AcDbXrecord
280
1
1000
auto
  0
XRECORD
  5
18E
330
182
100
AcDbXrecord
280
1
1000
auto
  0
XRECORD
  5
18F
330
182
100
AcDbXrecord
280
1
1000
auto
  0
XRECORD
  5
190
330
182
100
AcDbXrecord
280
1
1000
auto
  0
XRECORD
  5
191
330
182
100
AcDbXrecord
280
1
1000
auto
  0
XRECORD
  5
192
330
182
100
AcDbXrecord
280
1
1000
auto
  0
XRECORD
  5
193
330
182
100
AcDbXrecord
280
1
290
0
  0
XRECORD
  5
194
330
182
100
AcDbXrecord
280
1
290
0
  0
XRECORD
  5
195
330
182
100
AcDbXrecord
280
1
290
0
  0
XRECORD
  5
196
330
182
100
AcDbXrecord
280
1
290
0
  0
XRECORD
  5
197
330
182
100
AcDbXrecord
280
1
 90
0
  0
XRECORD
  5
198
330
182
100
AcDbXrecord
280
1
 90
0
  0
XRECORD
  5
199
330
182
100
AcDbXrecord
280
1
 90
0
  0
XRECORD
  5
19A
330
182
100
AcDbXrecord
280
1
 90
0
  0
XRECORD
  5
19B
330
182
100
AcDbXrecord
280
1
1000
auto
  0
XRECORD
  5
19C
330
182
100
AcDbXrecord
280
1
1000
auto
  0
XRECORD
  5
19D
330
182
100
AcDbXrecord
280
1
1000
auto
  0
XRECORD
  5
19E
330
182
100
AcDbXrecord
280
1
1000
auto
  0
XRECORD
  5
19F
330
182
100
AcDbXrecord
280
1
1000
auto
  0
XRECORD
  5
1A0
330
182
100
AcDbXrecord
280
1
1000
auto
  0
XRECORD
  5
1A1
330
182
100
AcDbXrecord
280
1
1000
auto
  0
XRECORD
  5
1A2
330
182
100
AcDbXrecord
280
1
1000
auto
  0
XRECORD
  5
1A3
330
182
100
AcDbXrecord
280
1
 90
1
  0
XRECORD
  5
1A4
330
182
100
AcDbXrecord
280
1
 40
0.5
  0
XRECORD
  5
1A5
330
182
100
AcDbXrecord
280
1
 40
0.5
  0
XRECORD
  5
1A6
330
182
100
AcDbXrecord
280
1
 40
0.5
  0
XRECORD
  5
1A7
330
182
100
AcDbXrecord
280
1
 40
0.5
  0
XRECORD
  5
1A8
330
182
100
AcDbXrecord
280
1
290
0
  0
XRECORD
  5
1A9
330
182
100
AcDbXrecord
280
1
 90
1
  0
XRECORD
  5
1AA
330
182
100
AcDbXrecord
280
1
 40
0.0
  0
XRECORD
  5
1AB
330
182
100
AcDbXrecord
280
1
 40
0.0
  0
XRECORD
  5
1AC
330
182
100
AcDbXrecord
280
1
1000
Portrait
  0
XRECORD
  5
1AD
330
182
100
AcDbXrecord
280
1
 40
297.0
  0
XRECORD
  5
1AE
330
182
100
AcDbXrecord
280
1
 40
210.0
  0
XRECORD
  5
1AF
330
182
100
AcDbXrecord
280
1
1000
1:1
  0
XRECORD
  5
1B0
330
182
100
AcDbXrecord
280
1
290
1
  0
XRECORD
  5
1B1
330
182
100
AcDbXrecord
280
1
1000
3.12.8
  0
XRECORD
  5
1B2
330
182
100
AcDbXrecord
280
1
 90
1
  0
ENDSEC
  0
EOF
