  0
SECTION
2
HEADER
  9
$ACADVER
  1
AC1009
  9
$EXTMIN
 10
-8.789
20
-8.796
  9
$EXTMAX
 10
8.900 
 20
7.992 
  9
$LIMMIN
 10
-8.789
20
-8.796
  9
$LIMMAX
 10
8.900 
 20
7.992 
  9
$CLAYER
  8
0
  0
ENDSEC
  0
SECTION
  2
TABLES
  0
TABLE
  2
LAYER
 70
1
  0
LAYER
  2
0
 70
64
 62
1
  6
CONTINUOUS
  0
ENDTAB
  0
ENDSEC
  0
SECTION
  2
ENTITIES
  0
POLYLINE
  8
0
 66
1
  0
VERTEX
  8
0
 10
-3.53307
 20
4.11871
  0
VERTEX
  8
0
 10
-3.85466
 20
4.4403
  0
SEQEND
  0
POLYLINE
  8
0
 66
1
  0
VERTEX
  8
0
 10
-3.30966
 20
-3.89527
  0
VERTEX
  8
0
 10
-4.26711
 20
-4.85273
  0
SEQEND
  0
POLYLINE
  8
0
 66
1
  0
VERTEX
  8
0
 10
4.98603
 20
5.57167
  0
VERTEX
  8
0
 10
5.35645
 20
5.94209
  0
SEQEND
  0
POLYLINE
  8
0
 66
1
  0
VERTEX
  8
0
 10
4.26711
 20
-4.85273
  0
VERTEX
  8
0
 10
5.35645
 20
-5.94209
  0
SEQEND
  0
POLYLINE
  8
0
 66
1
  0
VERTEX
  8
0
 10
4.8373
 20
4.28382
  0
VERTEX
  8
0
 10
5.40182
 20
4.85152
  0
SEQEND
  0
POLYLINE
  8
0
 66
1
  0
VERTEX
  8
0
 10
3.70613
 20
3.14629
  0
VERTEX
  8
0
 10
4.27277
 20
3.71612
  0
SEQEND
  0
POLYLINE
  8
0
 66
1
  0
VERTEX
  8
0
 10
4.83096
 20
-4.28519
  0
VERTEX
  8
0
 10
5.92314
 20
-5.3774
  0
SEQEND
  0
POLYLINE
  8
0
 66
1
  0
VERTEX
  8
0
 10
3.30965
 20
-3.8953
  0
VERTEX
  8
0
 10
3.8735
 20
-3.32776
  0
SEQEND
  0
POLYLINE
  8
0
 66
1
  0
VERTEX
  8
0
 10
-4.83624
 20
4.28565
  0
VERTEX
  8
0
 10
-4.27055
 20
3.71997
  0
SEQEND
  0
POLYLINE
  8
0
 66
1
  0
VERTEX
  8
0
 10
-5.92545
 20
5.37486
  0
VERTEX
  8
0
 10
-5.40192
 20
4.85134
  0
SEQEND
  0
POLYLINE
  8
0
 66
1
  0
VERTEX
  8
0
 10
-4.83096
 20
-4.28519
  0
VERTEX
  8
0
 10
-3.87591
 20
-3.32533
  0
SEQEND
  0
POLYLINE
  8
0
 66
1
  0
VERTEX
  8
0
 10
-3.70486
 20
3.15429
  0
VERTEX
  8
0
 10
-3.72843
 20
3.17785
  0
SEQEND
  0
POLYLINE
  8
0
 66
1
  0
VERTEX
  8
0
 10
-4.27055
 20
3.71997
  0
VERTEX
  8
0
 10
-3.85466
 20
4.4403
  0
SEQEND
  0
POLYLINE
  8
0
 66
1
  0
VERTEX
  8
0
 10
4.27055
 20
3.71997
  0
VERTEX
  8
0
 10
3.85466
 20
4.4403
  0
SEQEND
  0
POLYLINE
  8
0
 66
1
  0
VERTEX
  8
0
 10
-4.83623
 20
4.28566
  0
VERTEX
  8
0
 10
-4.42035
 20
5.00599
  0
SEQEND
  0
POLYLINE
  8
0
 66
1
  0
VERTEX
  8
0
 10
4.83623
 20
4.28566
  0
VERTEX
  8
0
 10
4.42035
 20
5.00599
  0
SEQEND
  0
POLYLINE
  8
0
 66
1
  0
VERTEX
  8
0
 10
-5.40192
 20
4.85134
  0
VERTEX
  8
0
 10
-4.98603
 20
5.57167
  0
SEQEND
  0
POLYLINE
  8
0
 66
1
  0
VERTEX
  8
0
 10
5.40192
 20
4.85134
  0
VERTEX
  8
0
 10
4.98603
 20
5.57167
  0
SEQEND
  0
ARC
  8
0
 10
-20.7546
 20
-0.725268
 40
24.7652
 50
353.968
 51
368.994
  0
ARC
  8
0
 10
20.7546
 20
-0.725268
 40
24.7652
 50
168.721
 51
186.032
  0
ARC
  8
0
 10
0
 20
0
 40
8
 50
137.789
 51
312.033
  0
ARC
  8
0
 10
0
 20
0
 40
8
 50
317.765
 51
407.967
  0
POLYLINE
  8
0
 66
1
  0
VERTEX
  8
0
 10
-2.42361
 20
-5.53376
  0
VERTEX
  8
0
 10
2.41279
 20
-5.53376
  0
SEQEND
  0
ARC
  8
0
 10
3.73675
 20
-1.14359
 40
7.56463
 50
201.331
 51
215.476
  0
ARC
  8
0
 10
-3.73675
 20
-1.14359
 40
7.56463
 50
324.524
 51
338.669
  0
POLYLINE
  8
0
 66
1
  0
VERTEX
  8
0
 10
-4.42035
 20
5.00599
  0
VERTEX
  8
0
 10
-4.98603
 20
5.57167
  0
SEQEND
  0
POLYLINE
  8
0
 66
1
  0
VERTEX
  8
0
 10
3.85466
 20
4.4403
  0
VERTEX
  8
0
 10
4.42035
 20
5.00599
  0
SEQEND
  0
ARC
  8
0
 10
1.38778e-017
 20
0
 40
6.46189
 50
155.62
 51
180
  0
ARC
  8
0
 10
-1.38778e-017
 20
0
 40
6.46189
 50
360
 51
384.38
  0
ARC
  8
0
 10
-5.46189
 20
7.91327e-016
 40
1
 50
180
 51
360
  0
ARC
  8
0
 10
5.46189
 20
7.91327e-016
 40
1
 50
180
 51
360
  0
ARC
  8
0
 10
-10.9606
 20
8.74228e-008
 40
6.49874
 50
0
 51
24.2346
  0
ARC
  8
0
 10
10.9606
 20
8.74228e-008
 40
6.49874
 50
155.765
 51
180
  0
POLYLINE
  8
0
 66
1
  0
VERTEX
  8
0
 10
-4.26711
 20
-4.85273
  0
VERTEX
  8
0
 10
-4.83096
 20
-4.28519
  0
SEQEND
  0
POLYLINE
  8
0
 66
1
  0
VERTEX
  8
0
 10
4.26711
 20
-4.85273
  0
VERTEX
  8
0
 10
4.83096
 20
-4.28519
  0
SEQEND
  0
ARC
  8
0
 10
-5.46013
 20
2.49358
 40
0.459658
 50
22.2365
 51
157.786
  0
ARC
  8
0
 10
5.46013
 20
2.49358
 40
0.459658
 50
382.214
 51
517.764
  0
POLYLINE
  8
0
 66
1
  0
VERTEX
  8
0
 10
-4.96093
 20
2.49358
  0
VERTEX
  8
0
 10
-4.94922
 20
2.49609
  0
SEQEND
  0
POINT
  8
0
 10
0
 20
0
  0
CIRCLE
  8
0
 10
-7
 20
0
 40
0.25
  0
CIRCLE
  8
0
 10
-6.06218
 20
3.5
 40
0.25
  0
CIRCLE
  8
0
 10
6.06218
 20
3.5
 40
0.25
  0
CIRCLE
  8
0
 10
7
 20
0
 40
0.25
  0
CIRCLE
  8
0
 10
6.06218
 20
-3.5
 40
0.25
  0
CIRCLE
  8
0
 10
3.5
 20
-6.06218
 40
0.25
  0
CIRCLE
  8
0
 10
0
 20
-7
 40
0.25
  0
CIRCLE
  8
0
 10
-3.5
 20
-6.06218
 40
0.25
  0
CIRCLE
  8
0
 10
-6.06218
 20
-3.5
 40
0.25
  0
ENDSEC
  0
EOF
