<?xml version="1.0" encoding="UTF-8" standalone="no"?>
<svg
   xmlns:dc="http://purl.org/dc/elements/1.1/"
   xmlns:cc="http://creativecommons.org/ns#"
   xmlns:rdf="http://www.w3.org/1999/02/22-rdf-syntax-ns#"
   xmlns:svg="http://www.w3.org/2000/svg"
   xmlns="http://www.w3.org/2000/svg"
   width="16in"
   height="16in"
   viewBox="0 0 406.40001 406.40001"
   id="svg2"
   version="1.1">
  <metadata
     id="metadata62">
    <rdf:RDF>
      <cc:Work
         rdf:about="">
        <dc:format>image/svg+xml</dc:format>
        <dc:type
           rdf:resource="http://purl.org/dc/dcmitype/StillImage" />
        <dc:title></dc:title>
      </cc:Work>
    </rdf:RDF>
  </metadata>
  <defs
     id="defs60" />
  <g
     transform="translate(0,109.40002)"
     id="Pen # 1">
    <path
       id="path7"
       style="fill:none;stroke:#000000;stroke-width:0.40000001"
       d="m 206.375,277.95 -0.0762,-0.635 -0.1778,-0.5842 -0.3048,-0.5334 -0.381,-0.4826 -0.4826,-0.381 -0.5334,-0.3048 -0.5842,-0.1778 -0.635,-0.0762 -0.6604,0.0762 -0.5842,0.1778 -0.5334,0.3048 -0.4826,0.381 -0.381,0.4826 -0.3048,0.5334 -0.1778,0.5842 -0.0762,0.635 0.0762,0.6604 0.1778,0.5842 0.3048,0.5334 0.381,0.4826 0.4826,0.381 0.5334,0.3048 0.5842,0.1778 0.6604,0.0762 0.635,-0.0762 0.5842,-0.1778 0.5334,-0.3048 0.4826,-0.381 0.381,-0.4826 0.3048,-0.5334 0.1778,-0.5842 0.0762,-0.6604" />
    <path
       id="path9"
       style="fill:none;stroke:#000000;stroke-width:0.40000001"
       d="m 298.45,253.2866 -0.0762,-0.635 -0.1778,-0.5842 -0.3048,-0.5588 -0.381,-0.4572 -0.4826,-0.381 -0.5334,-0.3048 -0.5842,-0.1778 -0.635,-0.0762 -0.6604,0.0762 -0.5842,0.1778 -0.5334,0.3048 -0.4826,0.381 -0.381,0.4572 -0.3048,0.5588 -0.1778,0.5842 -0.0762,0.635 0.0762,0.635 0.1778,0.6096 0.3048,0.5334 0.381,0.4826 0.4826,0.381 0.5334,0.2794 0.5842,0.2032 0.6604,0.0508 0.635,-0.0508 0.5842,-0.2032 0.5334,-0.2794 0.4826,-0.381 0.381,-0.4826 0.3048,-0.5334 0.1778,-0.6096 0.0762,-0.635" />
    <path
       id="path11"
       style="fill:none;stroke:#000000;stroke-width:0.40000001"
       d="m 365.8362,185.875 -0.0508,-0.635 -0.2032,-0.5842 -0.2794,-0.5334 -0.381,-0.4826 -0.4826,-0.381 -0.5334,-0.3048 -0.6096,-0.1778 -0.635,-0.0762 -0.635,0.0762 -0.5842,0.1778 -0.5588,0.3048 -0.4572,0.381 -0.381,0.4826 -0.3048,0.5334 -0.1778,0.5842 -0.0762,0.635 0.0762,0.6604 0.1778,0.5842 0.3048,0.5334 0.381,0.4826 0.4572,0.381 0.5588,0.3048 0.5842,0.1778 0.635,0.0762 0.635,-0.0762 0.6096,-0.1778 0.5334,-0.3048 0.4826,-0.381 0.381,-0.4826 0.2794,-0.5334 0.2032,-0.5842 0.0508,-0.6604" />
    <path
       id="path13"
       style="fill:none;stroke:#000000;stroke-width:0.40000001"
       d="m 390.525,93.8 -0.0762,-0.635 -0.1778,-0.5842 -0.3048,-0.5334 -0.381,-0.4826 -0.4826,-0.381 -0.5334,-0.3048 -0.5842,-0.1778 -0.635,-0.0762 -0.6604,0.0762 -0.5842,0.1778 -0.5334,0.3048 -0.4826,0.381 -0.381,0.4826 -0.3048,0.5334 -0.1778,0.5842 -0.0762,0.635 0.0762,0.6604 0.1778,0.5842 0.3048,0.5334 0.381,0.4826 0.4826,0.381 0.5334,0.3048 0.5842,0.1778 0.6604,0.0762 0.635,-0.0762 0.5842,-0.1778 0.5334,-0.3048 0.4826,-0.381 0.381,-0.4826 0.3048,-0.5334 0.1778,-0.5842 0.0762,-0.6604" />
    <path
       id="path15"
       style="fill:none;stroke:#000000;stroke-width:0.40000001"
       d="m 365.8362,1.725 -0.0508,-0.635 -0.2032,-0.5842 -0.2794,-0.5334 -0.381,-0.4826 -0.4826,-0.381 -0.5334,-0.3048 -0.6096,-0.1778 -0.635,-0.0762 -0.635,0.0762 -0.5842,0.1778 -0.5588,0.3048 -0.4572,0.381 -0.381,0.4826 -0.3048,0.5334 -0.1778,0.5842 -0.0762,0.635 0.0762,0.6604 0.1778,0.5842 0.3048,0.5334 0.381,0.4826 0.4572,0.381 0.5588,0.3048 0.5842,0.1778 0.635,0.0762 0.635,-0.0762 0.6096,-0.1778 0.5334,-0.3048 0.4826,-0.381 0.381,-0.4826 0.2794,-0.5334 0.2032,-0.5842 0.0508,-0.6604" />
    <path
       id="path17"
       style="fill:none;stroke:#000000;stroke-width:0.40000001"
       d="m 114.3,253.2866 -0.0762,-0.635 -0.1778,-0.5842 -0.3048,-0.5588 -0.381,-0.4572 -0.4826,-0.381 -0.5334,-0.3048 -0.5842,-0.1778 -0.635,-0.0762 -0.6604,0.0762 -0.5842,0.1778 -0.5334,0.3048 -0.4826,0.381 -0.381,0.4572 -0.3048,0.5588 -0.1778,0.5842 -0.0762,0.635 0.0762,0.635 0.1778,0.6096 0.3048,0.5334 0.381,0.4826 0.4826,0.381 0.5334,0.2794 0.5842,0.2032 0.6604,0.0508 0.635,-0.0508 0.5842,-0.2032 0.5334,-0.2794 0.4826,-0.381 0.381,-0.4826 0.3048,-0.5334 0.1778,-0.6096 0.0762,-0.635" />
    <path
       id="path19"
       style="fill:none;stroke:#000000;stroke-width:0.40000001"
       d="m 46.8884,185.875 -0.0762,-0.635 -0.1778,-0.5842 -0.3048,-0.5334 -0.381,-0.4826 -0.4572,-0.381 -0.5588,-0.3048 -0.5842,-0.1778 -0.635,-0.0762 -0.635,0.0762 -0.6096,0.1778 -0.5334,0.3048 -0.4826,0.381 -0.381,0.4826 -0.2794,0.5334 -0.2032,0.5842 -0.0508,0.635 0.0508,0.6604 0.2032,0.5842 0.2794,0.5334 0.381,0.4826 0.4826,0.381 0.5334,0.3048 0.6096,0.1778 0.635,0.0762 0.635,-0.0762 0.5842,-0.1778 0.5588,-0.3048 0.4572,-0.381 0.381,-0.4826 0.3048,-0.5334 0.1778,-0.5842 0.0762,-0.6604" />
    <path
       id="path21"
       style="fill:none;stroke:#000000;stroke-width:0.40000001"
       d="M 22.225,93.8 22.1488,93.165 21.971,92.5808 21.6662,92.0474 21.2852,91.5648 20.8026,91.1838 20.2692,90.879 19.685,90.7012 19.05,90.625 l -0.6604,0.0762 -0.5842,0.1778 -0.5334,0.3048 -0.4826,0.381 -0.381,0.4826 -0.3048,0.5334 -0.1778,0.5842 -0.0762,0.635 0.0762,0.6604 0.1778,0.5842 0.3048,0.5334 0.381,0.4826 0.4826,0.381 0.5334,0.3048 0.5842,0.1778 0.6604,0.0762 0.635,-0.0762 0.5842,-0.1778 0.5334,-0.3048 0.4826,-0.381 0.381,-0.4826 0.3048,-0.5334 0.1778,-0.5842 L 22.225,93.8" />
    <path
       id="path23"
       style="fill:none;stroke:#000000;stroke-width:0.40000001"
       d="M 46.8884,1.725 46.8122,1.09 46.6344,0.5058 l -0.3048,-0.5334 -0.381,-0.4826 -0.4572,-0.381 -0.5588,-0.3048 -0.5842,-0.1778 -0.635,-0.0762 -0.635,0.0762 -0.6096,0.1778 -0.5334,0.3048 -0.4826,0.381 -0.381,0.4826 -0.2794,0.5334 -0.2032,0.5842 -0.0508,0.635 0.0508,0.6604 0.2032,0.5842 0.2794,0.5334 0.381,0.4826 0.4826,0.381 0.5334,0.3048 0.6096,0.1778 0.635,0.0762 0.635,-0.0762 0.5842,-0.1778 0.5588,-0.3048 0.4572,-0.381 0.381,-0.4826 0.3048,-0.5334 0.1778,-0.5842 0.0762,-0.6604" />
    <path
       id="path25"
       style="fill:none;stroke:#000000;stroke-width:0.40000001"
       d="m 314.2996,93.8 0.0508,1.4732 0.1016,1.4732 0.1778,1.4224 0.254,1.397 0.3302,1.397 0.381,1.3462 0.4572,1.3208 0.508,1.2954 0.5588,1.27 0.635,1.2446 0.6858,1.1938 0.762,1.143 0.7874,1.143 0.8382,1.0668 0.9144,1.0414 0.9398,0.9906 0.9906,0.9398 1.0414,0.9144 1.0668,0.8382 1.143,0.7874 1.143,0.762 1.1938,0.6858 1.2446,0.635 1.27,0.5588 1.2954,0.508 1.3208,0.4572 1.3462,0.381 1.397,0.3302 1.397,0.254 1.4224,0.1778 1.4732,0.1016 1.4478,0.0508 1.4732,-0.0508 1.4732,-0.1016 1.4224,-0.1778 1.397,-0.254 1.397,-0.3302 1.3462,-0.381 1.3208,-0.4572 1.2954,-0.508 1.27,-0.5588 1.2446,-0.635 1.1938,-0.6858 1.143,-0.762 1.143,-0.7874 1.0668,-0.8382 1.0414,-0.9144 0.9906,-0.9398 0.9398,-0.9906 0.9144,-1.0414 0.8382,-1.0668 0.7874,-1.143 0.762,-1.143 0.6858,-1.1938 0.635,-1.2446 0.5588,-1.27 0.508,-1.2954 0.4572,-1.3208 0.381,-1.3462 0.3302,-1.397 0.254,-1.397 0.1778,-1.4224 0.1016,-1.4732 0.0508,-1.4478" />
    <path
       id="path27"
       style="fill:none;stroke:#000000;stroke-width:0.40000001"
       d="m 371.475,93.8254 -0.1016,-5.4356 -0.254,-5.4356 -0.4318,-5.3848 -0.6096,-5.3848 -0.7874,-5.334 -0.9652,-5.334 -1.1176,-5.2832 -1.27,-5.2324 -1.4732,-5.1816 -1.6256,-5.1562 -1.778,-5.1054 -1.9558,-5.0292 -2.1082,-4.9784 -2.286,-4.9276 -2.4384,-4.826 -2.5908,-4.7752" />
    <path
       id="path29"
       style="fill:none;stroke:#000000;stroke-width:0.40000001"
       d="m 336.1182,10.8944 -2.5908,4.7752 -2.4638,4.8514 -2.2606,4.9276 -2.1336,4.9784 -1.9558,5.0546 -1.8034,5.1054 -1.6256,5.1562 -1.4478,5.207 -1.2954,5.2324 -1.1176,5.2832 -0.9652,5.334 -0.7874,5.3594 -0.6096,5.3848 -0.4318,5.4102 -0.254,5.4102 -0.1016,5.461" />
    <path
       id="path31"
       style="fill:none;stroke:#000000;stroke-width:0.40000001"
       d="m 349.631,10.869 -0.7366,-0.635 -0.762,-0.5842 -0.8128,-0.4826 -0.8382,-0.381 -0.889,-0.3048 -0.889,-0.2286 -0.9144,-0.127 -0.9144,-0.0254 -0.9144,0.0254 -0.889,0.127 -0.889,0.2286 -0.889,0.3048 -0.8382,0.381 -0.8128,0.4826 -0.762,0.5842 -0.7366,0.635" />
    <path
       id="path33"
       style="fill:none;stroke:#000000;stroke-width:0.40000001"
       d="m 349.631,10.869 0.0508,0.1524" />
    <path
       id="path35"
       style="fill:none;stroke:#000000;stroke-width:0.40000001"
       d="m 34.925,93.8254 0.0254,1.4478 0.1016,1.4732 0.1778,1.4224 0.254,1.397 0.3302,1.397 0.381,1.3462 0.4572,1.3208 0.508,1.2954 0.5588,1.27 0.635,1.2446 0.6858,1.1938 0.762,1.143 0.7874,1.143 0.8382,1.0668 0.9144,1.0414 0.9398,0.9906 0.9906,0.9398 1.0414,0.9144 1.0668,0.8382 1.143,0.7874 1.143,0.762 1.1938,0.6858 1.2446,0.635 1.27,0.5588 1.2954,0.508 1.3208,0.4572 1.3462,0.381 1.397,0.3302 1.397,0.254 1.4224,0.1778 1.4732,0.1016 1.4732,0.0254 1.4478,-0.0254 1.4732,-0.1016 1.4224,-0.1778 1.397,-0.254 1.397,-0.3302 1.3462,-0.381 1.3208,-0.4572 1.2954,-0.508 1.27,-0.5588 1.2446,-0.635 1.1938,-0.6858 1.143,-0.762 1.143,-0.7874 1.0668,-0.8382 1.0414,-0.9144 0.9906,-0.9398 0.9398,-0.9906 0.9144,-1.0414 0.8382,-1.0668 0.7874,-1.143 0.762,-1.143 0.6858,-1.1938 0.635,-1.2446 0.5588,-1.27 0.508,-1.2954 0.4572,-1.3208 0.381,-1.3462 0.3302,-1.397 0.254,-1.397 0.1778,-1.4224 0.1016,-1.4732 0.0254,-1.4732" />
    <path
       id="path37"
       style="fill:none;stroke:#000000;stroke-width:0.40000001"
       d="m 56.6928,11.0214 -2.5908,4.7752 -2.4384,4.826 -2.286,4.9276 -2.1082,4.9784 -1.9558,5.0292 -1.778,5.1054 -1.6256,5.1562 -1.4732,5.1816 -1.27,5.2324 -1.1176,5.2832 -0.9652,5.334 -0.7874,5.334 -0.6096,5.3848 -0.4318,5.3848 -0.254,5.4356 L 34.925,93.8" />
    <path
       id="path39"
       style="fill:none;stroke:#000000;stroke-width:0.40000001"
       d="M 92.1004,93.8 91.9988,88.3644 91.7448,82.9542 91.313,77.544 90.7034,72.1592 89.916,66.7998 88.9508,61.4658 87.8332,56.1826 86.5378,50.9502 85.09,45.7432 83.4644,40.587 81.661,35.4816 79.7052,30.427 77.5716,25.4486 75.311,20.521 72.8472,15.6696 70.2564,10.8944" />
    <path
       id="path41"
       style="fill:none;stroke:#000000;stroke-width:0.40000001"
       d="M 70.231,10.869 69.4944,10.234 68.7324,9.6498 67.9196,9.1672 67.0814,8.7862 66.1924,8.4814 65.3034,8.2528 64.4144,8.1258 63.5,8.1004 l -0.9144,0.0254 -0.9144,0.127 -0.889,0.2286 -0.889,0.3048 -0.8382,0.381 -0.8128,0.4826 -0.762,0.5842 -0.7366,0.635" />
    <path
       id="path43"
       style="fill:none;stroke:#000000;stroke-width:0.40000001"
       d="m 56.7436,10.869 -0.0508,0.1524" />
    <path
       id="path45"
       d="m 296.16797,-55.958984 0,23.019531 11.28515,11.259765 11.08594,11.085938 -10.94531,10.94335938 -11.42578,-11.42578138 0,22.935547 0,5.009766 1.42969,4.623047 1.32031,4.644531 1.2168,4.695312 1.14257,4.744141 1.04102,4.771484 0.96484,4.796875 0.86328,4.847657 0.75977,4.873046 0.68555,4.898438 0.58398,4.949219 0.50781,4.923828 0.40625,4.974609 0.30469,4.97461 0.20313,4.974609 0.12695,5 0.0254,4.974609 -0.0508,5.001953 -0.15234,5.000001 -0.22852,4.97461 -0.35547,4.97266 -0.43164,4.95117 -0.50781,4.92383 -0.60938,4.92382 -0.71094,4.89844 -0.78515,4.84766 -0.88867,4.8457 -0.99024,4.79688 -1.0664,4.74609 -1.16602,4.7207 -1.26953,4.69531 -1.3457,4.61914 -1.44922,4.58008 -0.0312,0.15625 0,0.14649 0,0.10742 -0.0254,0.12695 0,0.14844 0,0.12695 0,0.10157 0,0.12695 0,0.12695 0,0.12695 0,0.14649 0.0254,0.12695 0,0.12696 0.0293,0.14648 0.0215,0.10742 0,0.10156 0.0293,0.14649 0.0254,0.12695 0.0273,0.14453 0.0527,0.13086 0.0215,0.084 0.0273,0.14062 0.0508,0.12696 0.0274,0.13476 0.0508,0.10352 0.0254,0.12695 0.0606,0.11719 0.0508,0.12695 0.0508,0.10156 0.0508,0.12696 0.0566,0.11523 0.0898,0.14844 0.34571,0.40039 28.46484,28.46289 -10.94531,10.94531 -25.53906,-25.54101 -0.98243,2.19531 -0.88867,1.95508 -0.91211,1.92578 -0.93945,1.90429 -0.93945,1.87696 -0.96289,1.8789 -0.96485,1.82618 -0.98828,1.80078 -1.01562,1.80078 -1.01563,1.75195 -1.03906,1.75 -1.06445,1.72461 -1.06641,1.67383 -1.06641,1.67578 -1.11523,1.64648 -1.11524,1.59961 -1.11718,1.59766 -1.14063,1.54688 -1.14258,1.54687 -1.1914,1.52148 -1.16602,1.47071 -1.1914,1.44726 -1.21875,1.44532 -1.2168,1.39453 -1.24219,1.36914 -1.24219,1.34375 -1.26757,1.31836 -1.26954,1.29492 -1.26757,1.26562 -1.29102,1.2168 -1.32031,1.2168 -1.32227,1.17187 -0.11718,0.11719 -0.15235,0.10156 -0.13476,0.13477 -0.15235,0.12695 -0.12109,0.11914 -0.14453,0.0977 -0.16602,0.13867 -0.12109,0.11914 -0.15235,0.10156 -0.13476,0.13477 -0.14258,0.11914 -0.12695,0.10156 -0.16211,0.13477 -0.11914,0.11914 -0.15235,0.10156 -0.12695,0.12695 -0.14453,0.0977 -0.1582,0.13281 -0.12696,0.10157 -0.15234,0.12695 -0.12695,0.10156 -0.15235,0.12695 -0.1289,0.10157 -0.14454,0.12109 -0.16015,0.10742 -0.12696,0.12696 -0.15234,0.10156 -0.12695,0.12695 -0.13672,0.0898 -0.16797,0.11329 -0.13281,0.13281 -0.0645,0.0508 -91.03907,0 0,0.40039 91.17969,0 0.18945,-0.15234 0.1211,-0.1211 0.13672,-0.0918 0.16796,-0.11133 0.12696,-0.12696 0.15234,-0.10156 0.12695,-0.12695 0.14649,-0.0977 0.1582,-0.13281 0.12695,-0.10156 0.15235,-0.12696 0.12695,-0.10156 0.15235,-0.12695 0.12695,-0.10156 0.14648,-0.1211 0.16016,-0.10742 0.12695,-0.12695 0.15235,-0.10156 0.13476,-0.13282 0.14258,-0.12109 0.12695,-0.10156 0.16211,-0.13477 0.11914,-0.11914 0.15235,-0.10156 0.13476,-0.13477 0.13672,-0.11328 0.16016,-0.10742 0.13476,-0.13477 0.15235,-0.12695 0.11914,-0.11914 0.15234,-0.10156 0.13672,-0.13672 1.31836,-1.16602 1.32226,-1.2207 1.29883,-1.22266 1.27344,-1.27148 1.27149,-1.29688 1.27148,-1.32421 1.24609,-1.34766 1.2461,-1.37305 1.22265,-1.40039 1.22071,-1.44922 1.19531,-1.45117 1.16992,-1.47461 1.19531,-1.52734 1.14649,-1.55078 1.14453,-1.55274 1.11914,-1.60156 1.11719,-1.60156 1.12109,-1.6543 1.06836,-1.67969 1.06641,-1.67773 1.06836,-1.72852 1.04296,-1.75586 1.01758,-1.7539 1.01758,-1.80469 0.99219,-1.80664 0.96484,-1.83203 0.9668,-1.88086 0.94141,-1.88086 0.93945,-1.90625 0.91601,-1.93359 0.89063,-1.95899 0.74414,-1.66601 25.41211,25.41406 11.50976,-11.50977 -28.73632,-28.73828 -0.31446,-0.36133 -0.0625,-0.10547 -0.043,-0.0879 -0.0508,-0.12695 -0.0508,-0.10156 -0.0527,-0.12696 -0.041,-0.0859 -0.0254,-0.12696 -0.0508,-0.10156 -0.0234,-0.11719 -0.0508,-0.12695 -0.0234,-0.11523 -0.0293,-0.11914 -0.0488,-0.1211 -0.0234,-0.10937 -0.0254,-0.12696 -0.0215,-0.10742 0,-0.10156 -0.0293,-0.14648 -0.0215,-0.10743 0,-0.12695 -0.0254,-0.12695 0,-0.10743 0,-0.12695 0,-0.12695 0,-0.12695 0,-0.10157 0,-0.12695 0,-0.10742 0.0254,-0.12695 0,-0.14844 0,-0.10547 0.0195,-0.0977 1.44531,-4.56445 1.34766,-4.62695 1.27148,-4.70313 1.16992,-4.72851 1.06641,-4.75196 0.99219,-4.80469 0.88867,-4.85546 0.78906,-4.85547 0.71094,-4.90625 0.61133,-4.93164 0.50781,-4.93164 0.43164,-4.95508 0.35547,-4.98242 0.22851,-4.98243 0.1543,-5.007808 0.0508,-5.007813 -0.0254,-4.982421 -0.12695,-5.007813 -0.20508,-4.980469 -0.30469,-4.982422 -0.40625,-4.982422 -0.50781,-4.93164 -0.58594,-4.957031 -0.68555,-4.90625 -0.76171,-4.88086 -0.86524,-4.855469 -0.9668,-4.804687 -1.04101,-4.777344 -1.14453,-4.753906 -1.22071,-4.703125 -1.32226,-4.652344 -1.41406,-4.570312 0,-4.949219 0,-21.972656 11.02734,11.02929662 11.50977,-11.50976562 -11.36914,-11.369141 -11.16797,-11.142578 0,-21.888672 10.88671,10.886719 11.22657,11.226563 11.34179,11.341797 11.50977,-11.482422 -11.36719,-11.369141 -10.85937,-10.884766 21.86133,0 11.16796,11.167969 0.28321,-0.283203 -11.28516,-11.285156 -22.99414,0 11.54297,11.568359 11.08398,11.083984 -10.94336,10.919922 -11.05859,-11.060546 -11.22656,-11.226563 -11.56836,-11.568359 z"
       style="color:#000000;font-style:normal;font-variant:normal;font-weight:normal;font-stretch:normal;font-size:medium;line-height:normal;font-family:sans-serif;text-indent:0;text-align:start;text-decoration:none;text-decoration-line:none;text-decoration-style:solid;text-decoration-color:#000000;letter-spacing:normal;word-spacing:normal;text-transform:none;direction:ltr;block-progression:tb;writing-mode:lr-tb;baseline-shift:baseline;text-anchor:start;white-space:normal;clip-rule:nonzero;display:inline;overflow:visible;visibility:visible;opacity:1;isolation:auto;mix-blend-mode:normal;color-interpolation:sRGB;color-interpolation-filters:linearRGB;solid-color:#000000;solid-opacity:1;fill:#000000;fill-opacity:1;fill-rule:nonzero;stroke:none;stroke-width:0.40000001;stroke-linecap:butt;stroke-linejoin:miter;stroke-miterlimit:4;stroke-dasharray:none;stroke-dashoffset:0;stroke-opacity:1;color-rendering:auto;image-rendering:auto;shape-rendering:auto;text-rendering:auto;enable-background:accumulate" />
    <path
       id="path47"
       d="m 352.52344,-44.279297 -0.29883,0.263672 6.72656,7.617187 6.26758,7.890626 5.8125,8.095703 5.37891,8.296875 4.92187,8.4999996 4.49219,8.6796875 4.03516,8.8300779 3.57617,8.982422 3.14648,9.109375 2.69141,9.185547 2.25781,9.3125 1.82617,9.363281 1.3457,9.439453 0.93946,9.490235 0.48047,9.490234 0.0254,9.515625 -0.4043,9.490237 -0.86328,9.46484 -1.26953,9.43945 -1.75,9.36524 -2.15821,9.3125 -2.63867,9.21094 -3.04492,9.08398 -3.50195,8.98242 -3.93164,8.83008 -4.36524,8.65234 -4.82031,8.50196 -5.25391,8.29687 -5.70898,8.09375 -6.11523,7.86719 -6.57227,7.61133 -7.0293,7.35937 -7.35937,7.0293 -7.61133,6.57227 -7.86719,6.11523 -8.09375,5.70898 -8.29883,5.25391 -8.5,4.82031 -8.67773,4.36524 -8.80469,3.93359 -8.98242,3.5 -9.08594,3.04492 -9.21093,2.64063 -9.3125,2.15625 -9.36329,1.75 -9.43945,1.26953 -9.46484,0.86328 -9.49024,0.40625 -9.51562,-0.0254 -9.49024,-0.48242 -9.49023,-0.93946 -9.43945,-1.3457 -9.36328,-1.82617 -9.3125,-2.25781 -9.18555,-2.68946 -9.10938,-3.14648 -8.98242,-3.57812 -8.83203,-4.03516 -8.67773,-4.49219 -8.500004,-4.92187 -8.296875,-5.37891 -8.095703,-5.81055 -7.890626,-6.26758 -7.617187,-6.72851 -0.263672,0.30078 7.623047,6.73438 7.908203,6.27929 8.109375,5.82227 8.314453,5.39062 8.517579,4.93164 8.69531,4.5 8.84766,4.04297 9,3.58594 9.1289,3.15234 9.20313,2.69532 9.33008,2.26172 9.38281,1.83007 9.45703,1.34766 9.50977,0.94141 9.50976,0.48242 9.53321,0.0254 9.50976,-0.40625 9.48242,-0.86328 9.45899,-1.27149 9.38086,-1.75586 9.33203,-2.16015 9.22851,-2.64453 9.10157,-3.05079 9.00195,-3.50781 8.82227,-3.9414 8.69531,-4.37305 8.51758,-4.83203 8.31445,-5.26172 8.10937,-5.7207 7.88282,-6.12696 7.62695,-6.58593 7.37305,-7.04297 7.04297,-7.37305 6.58398,-7.62695 6.12891,-7.88282 5.7207,-8.10937 5.26172,-8.31445 4.83203,-8.51758 4.37305,-8.66992 3.93945,-8.84766 3.50976,-9 3.05079,-9.10352 2.64453,-9.22851 2.16015,-9.33203 1.75391,-9.38086 1.27148,-9.45899 0.86524,-9.48242 0.40625,-9.509764 -0.0254,-9.533204 -0.48242,-9.509765 -0.94141,-9.507813 -1.34766,-9.458984 -1.83007,-9.380859 -2.26368,-9.332032 -2.69336,-9.203125 -3.15429,-9.126953 -3.58399,-9.001953 -4.04297,-8.8476561 -4.5,-8.6953125 -4.93359,-8.5175784 -5.38867,-8.314453 -5.82227,-8.109375 -6.28125,-7.908203 -6.73437,-7.623047 z"
       style="color:#000000;font-style:normal;font-variant:normal;font-weight:normal;font-stretch:normal;font-size:medium;line-height:normal;font-family:sans-serif;text-indent:0;text-align:start;text-decoration:none;text-decoration-line:none;text-decoration-style:solid;text-decoration-color:#000000;letter-spacing:normal;word-spacing:normal;text-transform:none;direction:ltr;block-progression:tb;writing-mode:lr-tb;baseline-shift:baseline;text-anchor:start;white-space:normal;clip-rule:nonzero;display:inline;overflow:visible;visibility:visible;opacity:1;isolation:auto;mix-blend-mode:normal;color-interpolation:sRGB;color-interpolation-filters:linearRGB;solid-color:#000000;solid-opacity:1;fill:#000000;fill-opacity:1;fill-rule:nonzero;stroke:none;stroke-width:0.40000001;stroke-linecap:butt;stroke-linejoin:miter;stroke-miterlimit:4;stroke-dasharray:none;stroke-dashoffset:0;stroke-opacity:1;color-rendering:auto;image-rendering:auto;shape-rendering:auto;text-rendering:auto;enable-background:accumulate" />
    <path
       id="path49"
       d="m 80.822266,204.66797 -27.064454,27.06445 0.283204,0.2832 26.783203,-26.78124 10.941406,10.9414 -26.78125,26.7832 0.283203,0.28321 27.064453,-27.06446 -11.509765,-11.50976 z"
       style="color:#000000;font-style:normal;font-variant:normal;font-weight:normal;font-stretch:normal;font-size:medium;line-height:normal;font-family:sans-serif;text-indent:0;text-align:start;text-decoration:none;text-decoration-line:none;text-decoration-style:solid;text-decoration-color:#000000;letter-spacing:normal;word-spacing:normal;text-transform:none;direction:ltr;block-progression:tb;writing-mode:lr-tb;baseline-shift:baseline;text-anchor:start;white-space:normal;clip-rule:nonzero;display:inline;overflow:visible;visibility:visible;opacity:1;isolation:auto;mix-blend-mode:normal;color-interpolation:sRGB;color-interpolation-filters:linearRGB;solid-color:#000000;solid-opacity:1;fill:#000000;fill-opacity:1;fill-rule:nonzero;stroke:none;stroke-width:0.40000001;stroke-linecap:butt;stroke-linejoin:miter;stroke-miterlimit:4;stroke-dasharray:none;stroke-dashoffset:0;stroke-opacity:1;color-rendering:auto;image-rendering:auto;shape-rendering:auto;text-rendering:auto;enable-background:accumulate" />
    <path
       id="path51"
       d="m 0.19921875,93.820312 -0.3984375,0.0098 0.203125,9.275392 0.63476563,9.2793 1.04296872,9.23046 1.4746094,9.20313 1.90625,9.12891 2.3398438,9.07617 2.7460942,8.94922 3.152343,8.84765 3.583985,8.7461 4.017578,8.59375 4.449218,8.4414 4.857422,8.26367 5.261719,8.08399 5.720703,7.88281 6.128906,7.65235 6.529297,7.41992 0.300782,-0.26368 -6.525391,-7.41406 -6.115234,-7.63672 -5.708985,-7.86718 -5.251953,-8.06836 -4.847656,-8.24805 -4.439453,-8.42383 -4.009766,-8.57617 -3.578125,-8.72852 -3.146484,-8.83203 -2.7402346,-8.93164 -2.3339844,-9.05859 -1.9042969,-9.10938 -1.4707031,-9.18554 -1.0410156,-9.21094 -0.63476565,-9.26172 -0.203125,-9.267578 z"
       style="color:#000000;font-style:normal;font-variant:normal;font-weight:normal;font-stretch:normal;font-size:medium;line-height:normal;font-family:sans-serif;text-indent:0;text-align:start;text-decoration:none;text-decoration-line:none;text-decoration-style:solid;text-decoration-color:#000000;letter-spacing:normal;word-spacing:normal;text-transform:none;direction:ltr;block-progression:tb;writing-mode:lr-tb;baseline-shift:baseline;text-anchor:start;white-space:normal;clip-rule:nonzero;display:inline;overflow:visible;visibility:visible;opacity:1;isolation:auto;mix-blend-mode:normal;color-interpolation:sRGB;color-interpolation-filters:linearRGB;solid-color:#000000;solid-opacity:1;fill:#000000;fill-opacity:1;fill-rule:nonzero;stroke:none;stroke-width:0.40000001;stroke-linecap:butt;stroke-linejoin:miter;stroke-miterlimit:4;stroke-dasharray:none;stroke-dashoffset:0;stroke-opacity:1;color-rendering:auto;image-rendering:auto;shape-rendering:auto;text-rendering:auto;enable-background:accumulate" />
    <path
       id="path53"
       d="m 53.849609,-44.279297 -6.529297,7.419922 -6.128906,7.652344 -5.720703,7.882812 -5.261719,8.083985 -4.857422,8.2636715 -4.449218,8.4414063 -4.017578,8.5937502 -3.583985,8.746094 -3.152343,8.847656 -2.7460942,8.949218 -2.3398438,9.078126 -1.90625,9.126953 -1.4746094,9.203125 -1.04296872,9.230468 -0.63476563,9.279297 -0.203125,9.275391 0.3984375,0.0098 0.203125,-9.267579 0.63476565,-9.261718 1.0410156,-9.210938 1.4707031,-9.185547 1.9042969,-9.109375 2.3339844,-9.058593 2.7402346,-8.931641 3.146484,-8.832031 3.578125,-8.728516 4.009766,-8.5761719 4.439453,-8.4238281 4.847656,-8.248047 5.251953,-8.068359 5.708985,-7.867188 6.115234,-7.636718 6.525391,-7.414063 -0.300782,-0.263672 z"
       style="color:#000000;font-style:normal;font-variant:normal;font-weight:normal;font-stretch:normal;font-size:medium;line-height:normal;font-family:sans-serif;text-indent:0;text-align:start;text-decoration:none;text-decoration-line:none;text-decoration-style:solid;text-decoration-color:#000000;letter-spacing:normal;word-spacing:normal;text-transform:none;direction:ltr;block-progression:tb;writing-mode:lr-tb;baseline-shift:baseline;text-anchor:start;white-space:normal;clip-rule:nonzero;display:inline;overflow:visible;visibility:visible;opacity:1;isolation:auto;mix-blend-mode:normal;color-interpolation:sRGB;color-interpolation-filters:linearRGB;solid-color:#000000;solid-opacity:1;fill:#000000;fill-opacity:1;fill-rule:nonzero;stroke:none;stroke-width:0.40000001;stroke-linecap:butt;stroke-linejoin:miter;stroke-miterlimit:4;stroke-dasharray:none;stroke-dashoffset:0;stroke-opacity:1;color-rendering:auto;image-rendering:auto;shape-rendering:auto;text-rendering:auto;enable-background:accumulate" />
    <path
       d="M 87.470703,-55.675781 76.210938,-44.390625 65.125,-33.304688 54.041016,-44.390625 l -0.283204,0.283203 11.367188,11.367188 11.369141,-11.367188 11.142578,-11.167969 21.886721,0 -10.884768,10.884766 -11.226563,11.226563 -11.341797,11.34375 11.482422,11.509765 11.369141,-11.369141 10.884765,-10.859374 0,21.861328 -11.308593,11.3105465 11.367183,11.3691405 1.22071,1.21875 0.28125,-0.283203 -1.21875,-1.21875 -11.08594,-11.0859375 11.14453,-11.1445315 0,-22.992187 -11.568358,11.541015 -11.085938,11.085938 -10.917968,-10.943359 11.060546,-11.060547 11.226563,-11.226563 11.568355,-11.568359 -23.019527,0 z"
       style="color:#000000;font-style:normal;font-variant:normal;font-weight:normal;font-stretch:normal;font-size:medium;line-height:normal;font-family:sans-serif;text-indent:0;text-align:start;text-decoration:none;text-decoration-line:none;text-decoration-style:solid;text-decoration-color:#000000;letter-spacing:normal;word-spacing:normal;text-transform:none;direction:ltr;block-progression:tb;writing-mode:lr-tb;baseline-shift:baseline;text-anchor:start;white-space:normal;clip-rule:nonzero;display:inline;overflow:visible;visibility:visible;opacity:1;isolation:auto;mix-blend-mode:normal;color-interpolation:sRGB;color-interpolation-filters:linearRGB;solid-color:#000000;solid-opacity:1;fill:#000000;fill-opacity:1;fill-rule:nonzero;stroke:none;stroke-width:0.40000001;stroke-linecap:butt;stroke-linejoin:miter;stroke-miterlimit:4;stroke-dasharray:none;stroke-dashoffset:0;stroke-opacity:1;color-rendering:auto;image-rendering:auto;shape-rendering:auto;text-rendering:auto;enable-background:accumulate"
       id="path55" />
  </g>
  <g
     transform="translate(0,109.40002)"
     id="Pen #">
    <path
       id="path58"
       d="m 111.3418,12.253906 -1.55078,4.675782 -1.47461,4.728515 -1.34766,4.804688 -1.26953,4.855468 -1.16992,4.88086 -1.06836,4.93164 -0.96485,4.982422 -0.86523,5.007813 -0.76172,5.033203 -0.6875,5.058594 -0.558593,5.109375 -0.482422,5.109375 -0.380859,5.134765 -0.28125,5.134766 -0.177735,5.160156 -0.07617,5.160156 0,5.132813 0.126953,5.160153 0.203126,5.16016 0.30664,5.13477 0.40625,5.13476 0.507813,5.10938 0.609379,5.08398 0.71289,5.08398 0.78711,5.03321 0.91601,5.00781 0.99024,4.95703 1.09375,4.93164 1.19531,4.88086 1.29687,4.85547 1.39844,4.7793 1.50391,4.76758 0.01,0.0234 0,0.0606 0.041,0.12109 0.0254,0.0508 0.01,0.0312 0,0.0762 0.041,0.12109 0.0117,0.0215 0,0.0606 0.0254,0.0762 0,0.0449 0,0.12304 0.0254,0.0508 0,0.0293 0,0.0762 0,0.0762 0,0.0762 0,0.0508 0,0.0762 0,0.0762 0,0.0762 0,0.0762 0,0.0762 0,0.0176 -0.0254,0.0762 0,0.10937 0,0.043 -0.0254,0.0762 0,0.0508 -0.0156,0.0449 -0.0371,0.10743 0,0.0625 -0.0234,0.0469 -0.0625,0.0957 -0.0332,0.13477 -0.0215,0.0801 -0.0527,0.10547 -0.0293,0.14844 -0.0312,0.12109 0,0.10156 -0.0195,0.0781 -0.0312,0.125 0,0.12695 0,0.10156 0,0.10156 0,0.12696 0,0.10156 0,0.12695 0.0254,0.10157 0,0.10156 0.0332,0.125 0.0254,0.10156 0.0254,0.10156 0.0254,0.10157 0.0293,0.12304 0.0508,0.10156 0.0254,0.10157 0.0605,0.12109 0.0566,0.11328 0.0508,0.0762 0.0449,0.0899 0.0566,0.11328 0.0605,0.0918 0.0879,0.11523 6.0957,6.22266 0.0781,0.10351 0.0625,0.0625 0.0449,0.0898 0.0859,0.11523 0.0664,0.0879 0.043,0.0859 0.0508,0.10156 0.0508,0.10156 0.0508,0.10157 0.041,0.082 0.0254,0.10156 0.0488,0.0957 0.0195,0.10547 0.0273,0.10742 0.0234,0.0957 0.0215,0.10351 0,0.10156 0.0254,0.12696 0,0.082 0,0.10156 0,0.12695 0,0.10157 0,0.10156 -0.0254,0.10156 0,0.12891 -0.0215,0.082 -0.0254,0.12695 -0.0195,0.084 -0.0508,0.12695 -0.0234,0.0918 -0.0547,0.10742 -0.0215,0.11328 -0.0293,0.043 -0.0508,0.0781 -0.0586,0.0859 -0.0625,0.125 -0.0312,0.0977 -0.0195,0.0742 -0.0508,0.0762 -0.0312,0.1289 -0.0254,0.0762 -0.0273,0.10937 -0.0234,0.0937 -0.0332,0.0996 0,0.10938 -0.0254,0.10156 0,0.10156 0,0.0762 -0.0254,0.10157 0,0.10156 0,0.10156 0,0.125 0.0254,0.10156 0,0.0527 0,0.125 0.0332,0.13281 0.0254,0.0762 0.0176,0.0703 0,0.10938 0.0391,0.12109 0.0508,0.10157 0.0195,0.0547 0.0293,0.11719 0.0566,0.11523 0.2793,0.63086 0.96485,2.16211 0.99218,2.16016 1.01758,2.13672 1.04297,2.08594 1.04102,2.05859 1.09375,2.06055 1.09375,2.00781 1.11914,1.98437 1.11914,1.95704 1.14453,1.9082 1.16992,1.9082 1.19531,1.85547 1.19532,1.83203 1.2207,1.80664 1.24609,1.75391 1.27149,1.75586 1.27343,1.70312 1.29688,1.6543 1.29687,1.65234 1.32227,1.60352 1.34961,1.57812 1.34766,1.5254 1.37304,1.52734 1.40039,1.44922 1.39844,1.44922 1.40039,1.40039 1.44922,1.375 1.42578,1.32226 1.47656,1.29883 1.47657,1.24609 1.47461,1.22266 1.5,1.19336 0.25,-0.3125 -1.49805,-1.19141 -1.47071,-1.21875 -1.4707,-1.24218 -1.4707,-1.29297 -1.41992,-1.31836 -1.44336,-1.36914 -1.39453,-1.39258 -1.39649,-1.44727 -1.39453,-1.44531 -1.36719,-1.51953 -1.3457,-1.52344 -1.34375,-1.57226 -1.31836,-1.59571 -1.29297,-1.65039 -1.29492,-1.64843 -1.26758,-1.69922 -1.26758,-1.75 -1.24414,-1.75 -1.21679,-1.80078 -1.19141,-1.82618 -1.19336,-1.85156 -1.16602,-1.90234 -1.14257,-1.90235 -1.11524,-1.95312 -1.11719,-1.98047 -1.08984,-2.00391 -1.0918,-2.05468 -1.04101,-2.05469 -1.03906,-2.08203 -1.01563,-2.13086 -0.98828,-2.15625 -0.96484,-2.1582 -0.28125,-0.63868 -0.043,-0.0859 -0.0215,-0.0879 -0.0332,-0.0977 -0.0508,-0.10156 -0.01,-0.0312 0,-0.0937 -0.0332,-0.13282 -0.0254,-0.0762 -0.0176,-0.0703 0,-0.0762 0,-0.10157 -0.0254,-0.10156 0,-0.0762 0,-0.10156 0,-0.0527 0.0254,-0.10156 0,-0.125 0,-0.0527 0.0254,-0.10157 0,-0.0937 0.0176,-0.0527 0.0254,-0.10937 0.0254,-0.0938 0.0254,-0.0762 0.0176,-0.0762 0.0508,-0.0762 0.0332,-0.12695 0.0176,-0.0547 0.0391,-0.0781 0.043,-0.0664 0.0508,-0.0762 0.0742,-0.10938 0.0273,-0.13867 0.0488,-0.0977 0.0273,-0.10937 0.0508,-0.12696 0.0293,-0.11914 0.0254,-0.12695 0.0312,-0.12109 0,-0.12696 0.0254,-0.10156 0,-0.15234 0,-0.10157 0,-0.12695 0,-0.10156 0,-0.12109 -0.0254,-0.12696 0,-0.10156 -0.0312,-0.15234 -0.0254,-0.10547 -0.0254,-0.0977 -0.0293,-0.14844 -0.0527,-0.10547 -0.0254,-0.10156 -0.0605,-0.12109 -0.0508,-0.10156 -0.0508,-0.10157 -0.0508,-0.10156 -0.0586,-0.11719 -0.0879,-0.11718 -0.0644,-0.0859 -0.0586,-0.11524 -0.0879,-0.0898 -0.0762,-0.0996 -6.0957,-6.22266 -0.0645,-0.0879 -0.041,-0.0605 -0.0449,-0.0898 -0.0566,-0.11328 -0.0508,-0.0762 -0.0469,-0.0898 -0.041,-0.082 -0.0254,-0.10157 -0.0508,-0.10156 -0.0195,-0.082 -0.0254,-0.10156 -0.0254,-0.10157 -0.0254,-0.10156 -0.0195,-0.0762 0,-0.10156 -0.0254,-0.10156 0,-0.0781 0,-0.10156 0,-0.12696 0,-0.10156 0,-0.10156 0,-0.0762 0.0195,-0.0781 0.0312,-0.125 0,-0.10156 0.0215,-0.084 0.0215,-0.10547 0.0469,-0.0957 0.0312,-0.12304 0.0176,-0.0684 0.0391,-0.0586 0.0762,-0.15429 0,-0.0918 0.0156,-0.0449 0.0352,-0.10742 0,-0.0508 0.0254,-0.0762 0,-0.10742 0,-0.0449 0.0254,-0.0762 0,-0.082 0,-0.0762 0,-0.0762 0,-0.0762 0,-0.0762 0,-0.0762 0,-0.0508 0,-0.0762 0,-0.0762 0,-0.0762 0,-0.125 -0.0254,-0.0508 0,-0.0273 0,-0.10938 -0.0254,-0.0762 0,-0.0918 -0.0391,-0.0801 -0.0117,-0.0312 0,-0.0762 -0.0391,-0.12109 -0.0254,-0.0508 -0.0117,-0.0312 0,-0.0918 -0.0391,-0.0781 -1.49219,-4.73242 -1.39648,-4.77148 -1.29492,-4.84766 -1.19141,-4.87109 -1.0918,-4.92383 -0.99023,-4.94922 -0.91406,-5 -0.78711,-5.02539 -0.70899,-5.07617 -0.60937,-5.07617 -0.507814,-5.10157 -0.40625,-5.12695 -0.304688,-5.12695 -0.203125,-5.15235 -0.126953,-5.152339 0,-5.126953 0.07617,-5.152344 0.177734,-5.152344 0.279297,-5.126953 0.380859,-5.126953 0.482418,-5.101563 0.5586,-5.101562 0.68359,-5.050781 0.76172,-5.025391 0.86328,-5 0.96485,-4.974609 1.0664,-4.923829 1.16602,-4.871093 1.26953,-4.847657 1.3457,-4.796875 1.47071,-4.720703 1.54882,-4.671875 -0.3789,-0.125 z"
       style="color:#000000;font-style:normal;font-variant:normal;font-weight:normal;font-stretch:normal;font-size:medium;line-height:normal;font-family:sans-serif;text-indent:0;text-align:start;text-decoration:none;text-decoration-line:none;text-decoration-style:solid;text-decoration-color:#000000;letter-spacing:normal;word-spacing:normal;text-transform:none;direction:ltr;block-progression:tb;writing-mode:lr-tb;baseline-shift:baseline;text-anchor:start;white-space:normal;clip-rule:nonzero;display:inline;overflow:visible;visibility:visible;opacity:1;isolation:auto;mix-blend-mode:normal;color-interpolation:sRGB;color-interpolation-filters:linearRGB;solid-color:#000000;solid-opacity:1;fill:#000000;fill-opacity:1;fill-rule:nonzero;stroke:none;stroke-width:0.40000001;stroke-linecap:butt;stroke-linejoin:miter;stroke-miterlimit:4;stroke-dasharray:none;stroke-dashoffset:0;stroke-opacity:1;color-rendering:auto;image-rendering:auto;shape-rendering:auto;text-rendering:auto;enable-background:accumulate" />
  </g>
</svg>
