  0
SECTION
  2
HEADER
  9
$ACADVER
  1
AC1014
  9
$HANDSEED
  5
FFFF
  9
$MEASUREMENT
 70
     1
  0
ENDSEC
  0
SECTION
  2
TABLES
  0
TABLE
  2
VPORT
  5
8
330
0
100
AcDbSymbolTable
 70
     4
  0
VPORT
  5
2E
330
8
100
AcDbSymbolTableRecord
100
AcDbViewportTableRecord
  2
*ACTIVE
 70
     0
 10
0.0
 20
0.0
 11
1.0
 21
1.0
 12
210.0
 22
148.5
 13
0.0
 23
0.0
 14
10.0
 24
10.0
 15
10.0
 25
10.0
 16
0.0
 26
0.0
 36
1.0
 17
0.0
 27
0.0
 37
0.0
 40
341.0
 41
1.24
 42
50.0
 43
0.0
 44
0.0
 50
0.0
 51
0.0
 71
     0
 72
   100
 73
     1
 74
     3
 75
     0
 76
     0
 77
     0
 78
     0
  0
ENDTAB
  0
TABLE
  2
LTYPE
  5
5
330
0
100
AcDbSymbolTable
 70
     1
  0
LTYPE
  5
14
330
5
100
AcDbSymbolTableRecord
100
AcDbLinetypeTableRecord
  2
BYBLOCK
 70
     0
  3

 72
    65
 73
     0
 40
0.0
  0
LTYPE
  5
15
330
5
100
AcDbSymbolTableRecord
100
AcDbLinetypeTableRecord
  2
BYLAYER
 70
     0
  3

 72
    65
 73
     0
 40
0.0
  0
LTYPE
  5
16
330
5
100
AcDbSymbolTableRecord
100
AcDbLinetypeTableRecord
  2
CONTINUOUS
 70
     0
  3
Solid line
 72
    65
 73
     0
 40
0.0
  0
ENDTAB
  0
TABLE
  2
LAYER
  5
2
100
AcDbSymbolTable
 70
3
  0
LAYER
  5
50
100
AcDbSymbolTableRecord
100
AcDbLayerTableRecord
  2
0
 70
0
  6
CONTINUOUS
  0
LAYER
  5
51
100
AcDbSymbolTableRecord
100
AcDbLayerTableRecord
  2
Pen_#_1
 70
0
  6
CONTINUOUS
  0
LAYER
  5
52
100
AcDbSymbolTableRecord
100
AcDbLayerTableRecord
  2
Pen_#
 70
0
  6
CONTINUOUS
  0
ENDTAB
  0
TABLE
  2
STYLE
  5
3
330
0
100
AcDbSymbolTable
 70
     1
  0
STYLE
  5
11
330
3
100
AcDbSymbolTableRecord
100
AcDbTextStyleTableRecord
  2
STANDARD
 70
     0
 40
0.0
 41
1.0
 50
0.0
 71
     0
 42
2.5
  3
txt
  4

  0
ENDTAB
  0
TABLE
  2
VIEW
  5
6
330
0
100
AcDbSymbolTable
 70
     0
  0
ENDTAB
  0
TABLE
  2
UCS
  5
7
330
0
100
AcDbSymbolTable
 70
     0
  0
ENDTAB
  0
TABLE
  2
APPID
  5
9
330
0
100
AcDbSymbolTable
 70
     2
  0
APPID
  5
12
330
9
100
AcDbSymbolTableRecord
100
AcDbRegAppTableRecord
  2
ACAD
 70
     0
  0
ENDTAB
  0
TABLE
  2
DIMSTYLE
  5
A
330
0
100
AcDbSymbolTable
 70
     1
  0
DIMSTYLE
105
27
330
A
100
AcDbSymbolTableRecord
100
AcDbDimStyleTableRecord
  2
ISO-25
 70
     0
  3

  4

  5

  6

  7

 40
1.0
 41
2.5
 42
0.625
 43
3.75
 44
1.25
 45
0.0
 46
0.0
 47
0.0
 48
0.0
140
2.5
141
2.5
142
0.0
143
0.03937007874016
144
1.0
145
0.0
146
1.0
147
0.625
 71
     0
 72
     0
 73
     0
 74
     0
 75
     0
 76
     0
 77
     1
 78
     8
170
     0
171
     3
172
     1
173
     0
174
     0
175
     0
176
     0
177
     0
178
     0
270
     2
271
     2
272
     2
273
     2
274
     3
340
11
275
     0
280
     0
281
     0
282
     0
283
     0
284
     8
285
     0
286
     0
287
     3
288
     0
  0
ENDTAB
  0
TABLE
  2
BLOCK_RECORD
  5
1
330
0
100
AcDbSymbolTable
 70
     1
  0
BLOCK_RECORD
  5
1F
330
1
100
AcDbSymbolTableRecord
100
AcDbBlockTableRecord
  2
*MODEL_SPACE
  0
BLOCK_RECORD
  5
1B
330
1
100
AcDbSymbolTableRecord
100
AcDbBlockTableRecord
  2
*PAPER_SPACE
  0
ENDTAB
  0
ENDSEC
  0
SECTION
  2
BLOCKS
  0
BLOCK
  5
20
330
1F
100
AcDbEntity
  8
0
100
AcDbBlockBegin
  2
*MODEL_SPACE
 70
     0
 10
0.0
 20
0.0
 30
0.0
  3
*MODEL_SPACE
  1

  0
ENDBLK
  5
21
330
1F
100
AcDbEntity
  8
0
100
AcDbBlockEnd
  0
BLOCK
  5
1C
330
1B
100
AcDbEntity
 67
     1
  8
0
100
AcDbBlockBegin
  2
*PAPER_SPACE
  1

  0
ENDBLK
  5
1D
330
1B
100
AcDbEntity
 67
     1
  8
0
100
AcDbBlockEnd
  0
ENDSEC
  0
SECTION
  2
ENTITIES
  0
LWPOLYLINE
  5
100
100
AcDbEntity
  8
Pen_#_1
 62
7
100
AcDbPolyline
 90
36
 70
1
 10
2.257791
 20
0.249175
 30
0.0
 10
2.249978
 20
0.248285
 30
0.0
 10
2.243056
 20
0.246180
 30
0.0
 10
2.236784
 20
0.242578
 30
0.0
 10
2.231076
 20
0.238086
 30
0.0
 10
2.226584
 20
0.232378
 30
0.0
 10
2.222982
 20
0.226107
 30
0.0
 10
2.220877
 20
0.219184
 30
0.0
 10
2.219987
 20
0.211675
 30
0.0
 10
2.220877
 20
0.203884
 30
0.0
 10
2.222982
 20
0.196962
 30
0.0
 10
2.226584
 20
0.190668
 30
0.0
 10
2.231076
 20
0.184961
 30
0.0
 10
2.236784
 20
0.180469
 30
0.0
 10
2.243056
 20
0.176866
 30
0.0
 10
2.249978
 20
0.174761
 30
0.0
 10
2.257791
 20
0.173871
 30
0.0
 10
2.265299
 20
0.174761
 30
0.0
 10
2.272201
 20
0.176866
 30
0.0
 10
2.278494
 20
0.180469
 30
0.0
 10
2.284201
 20
0.184961
 30
0.0
 10
2.288694
 20
0.190668
 30
0.0
 10
2.292296
 20
0.196962
 30
0.0
 10
2.294401
 20
0.203884
 30
0.0
 10
2.295269
 20
0.211415
 30
0.0
 10
2.293055
 20
0.211675
 30
0.0
 10
2.295269
 20
0.211935
 30
0.0
 10
2.294401
 20
0.219183
 30
0.0
 10
2.292296
 20
0.226106
 30
0.0
 10
2.288694
 20
0.232377
 30
0.0
 10
2.284201
 20
0.238085
 30
0.0
 10
2.278494
 20
0.242577
 30
0.0
 10
2.272201
 20
0.246179
 30
0.0
 10
2.265299
 20
0.248284
 30
0.0
 10
2.257791
 20
0.249174
 30
0.0
 10
2.257791
 20
0.249175
 30
0.0
  0
LWPOLYLINE
  5
101
100
AcDbEntity
  8
Pen_#_1
 62
7
100
AcDbPolyline
 90
34
 70
1
 10
2.257769
 20
0.244705
 30
0.0
 10
2.264366
 20
0.243924
 30
0.0
 10
2.270442
 20
0.242079
 30
0.0
 10
2.275998
 20
0.238889
 30
0.0
 10
2.281032
 20
0.234918
 30
0.0
 10
2.285004
 20
0.229883
 30
0.0
 10
2.288172
 20
0.224327
 30
0.0
 10
2.290017
 20
0.218273
 30
0.0
 10
2.290820
 20
0.211654
 30
0.0
 10
2.290017
 20
0.204775
 30
0.0
 10
2.288172
 20
0.198720
 30
0.0
 10
2.285004
 20
0.193164
 30
0.0
 10
2.281032
 20
0.188130
 30
0.0
 10
2.275998
 20
0.184158
 30
0.0
 10
2.270442
 20
0.180990
 30
0.0
 10
2.264366
 20
0.179145
 30
0.0
 10
2.257769
 20
0.178342
 30
0.0
 10
2.250889
 20
0.179145
 30
0.0
 10
2.244835
 20
0.180990
 30
0.0
 10
2.239279
 20
0.184158
 30
0.0
 10
2.234244
 20
0.188130
 30
0.0
 10
2.230273
 20
0.193164
 30
0.0
 10
2.227083
 20
0.198720
 30
0.0
 10
2.225238
 20
0.204775
 30
0.0
 10
2.224457
 20
0.211654
 30
0.0
 10
2.225238
 20
0.218273
 30
0.0
 10
2.227083
 20
0.224327
 30
0.0
 10
2.230273
 20
0.229883
 30
0.0
 10
2.234244
 20
0.234918
 30
0.0
 10
2.239279
 20
0.238889
 30
0.0
 10
2.244835
 20
0.242079
 30
0.0
 10
2.250889
 20
0.243924
 30
0.0
 10
2.257769
 20
0.244705
 30
0.0
 10
2.257769
 20
0.244705
 30
0.0
  0
LWPOLYLINE
  5
102
100
AcDbEntity
  8
Pen_#_1
 62
7
100
AcDbPolyline
 90
36
 70
1
 10
3.280838
 20
0.523220
 30
0.0
 10
3.273047
 20
0.522330
 30
0.0
 10
3.266124
 20
0.520204
 30
0.0
 10
3.259831
 20
0.516623
 30
0.0
 10
3.254167
 20
0.512131
 30
0.0
 10
3.249631
 20
0.506705
 30
0.0
 10
3.246029
 20
0.500108
 30
0.0
 10
3.243945
 20
0.493229
 30
0.0
 10
3.243034
 20
0.485698
 30
0.0
 10
3.243945
 20
0.478211
 30
0.0
 10
3.246029
 20
0.471007
 30
0.0
 10
3.249631
 20
0.464692
 30
0.0
 10
3.254123
 20
0.459006
 30
0.0
 10
3.259852
 20
0.454470
 30
0.0
 10
3.266124
 20
0.451193
 30
0.0
 10
3.273047
 20
0.448806
 30
0.0
 10
3.280838
 20
0.448198
 30
0.0
 10
3.288346
 20
0.448806
 30
0.0
 10
3.295269
 20
0.451193
 30
0.0
 10
3.301519
 20
0.454470
 30
0.0
 10
3.307248
 20
0.459006
 30
0.0
 10
3.311740
 20
0.464692
 30
0.0
 10
3.315343
 20
0.471007
 30
0.0
 10
3.317448
 20
0.478211
 30
0.0
 10
3.318316
 20
0.485438
 30
0.0
 10
3.316102
 20
0.485698
 30
0.0
 10
3.318316
 20
0.485958
 30
0.0
 10
3.317448
 20
0.493228
 30
0.0
 10
3.315343
 20
0.500107
 30
0.0
 10
3.311740
 20
0.506705
 30
0.0
 10
3.307227
 20
0.512130
 30
0.0
 10
3.301562
 20
0.516622
 30
0.0
 10
3.295269
 20
0.520203
 30
0.0
 10
3.288346
 20
0.522308
 30
0.0
 10
3.280838
 20
0.523219
 30
0.0
 10
3.280838
 20
0.523220
 30
0.0
  0
LWPOLYLINE
  5
103
100
AcDbEntity
  8
Pen_#_1
 62
7
100
AcDbPolyline
 90
34
 70
1
 10
3.280838
 20
0.518750
 30
0.0
 10
3.287435
 20
0.517947
 30
0.0
 10
3.293490
 20
0.516102
 30
0.0
 10
3.299067
 20
0.512934
 30
0.0
 10
3.304102
 20
0.508941
 30
0.0
 10
3.308051
 20
0.504210
 30
0.0
 10
3.311220
 20
0.498394
 30
0.0
 10
3.313086
 20
0.492296
 30
0.0
 10
3.313889
 20
0.485698
 30
0.0
 10
3.313086
 20
0.479101
 30
0.0
 10
3.311220
 20
0.472743
 30
0.0
 10
3.308051
 20
0.467187
 30
0.0
 10
3.304080
 20
0.462174
 30
0.0
 10
3.299089
 20
0.458224
 30
0.0
 10
3.293490
 20
0.455295
 30
0.0
 10
3.287435
 20
0.453190
 30
0.0
 10
3.280838
 20
0.452648
 30
0.0
 10
3.273958
 20
0.453190
 30
0.0
 10
3.267882
 20
0.455295
 30
0.0
 10
3.262283
 20
0.458224
 30
0.0
 10
3.257292
 20
0.462174
 30
0.0
 10
3.253320
 20
0.467187
 30
0.0
 10
3.250152
 20
0.472743
 30
0.0
 10
3.248307
 20
0.479101
 30
0.0
 10
3.247504
 20
0.485698
 30
0.0
 10
3.248307
 20
0.492296
 30
0.0
 10
3.250152
 20
0.498394
 30
0.0
 10
3.253320
 20
0.504210
 30
0.0
 10
3.257270
 20
0.508941
 30
0.0
 10
3.262326
 20
0.512934
 30
0.0
 10
3.267882
 20
0.516102
 30
0.0
 10
3.273958
 20
0.517947
 30
0.0
 10
3.280838
 20
0.518750
 30
0.0
 10
3.280838
 20
0.518750
 30
0.0
  0
LWPOLYLINE
  5
104
100
AcDbEntity
  8
Pen_#_1
 62
7
100
AcDbPolyline
 90
36
 70
1
 10
4.029579
 20
1.272244
 30
0.0
 10
4.022049
 20
1.271333
 30
0.0
 10
4.015148
 20
1.269228
 30
0.0
 10
4.008550
 20
1.265647
 30
0.0
 10
4.003125
 20
1.261111
 30
0.0
 10
3.998655
 20
1.255447
 30
0.0
 10
3.995052
 20
1.249154
 30
0.0
 10
3.992947
 20
1.242231
 30
0.0
 10
3.992057
 20
1.234723
 30
0.0
 10
3.992947
 20
1.226932
 30
0.0
 10
3.995052
 20
1.220009
 30
0.0
 10
3.998655
 20
1.213716
 30
0.0
 10
4.003125
 20
1.208052
 30
0.0
 10
4.008550
 20
1.203516
 30
0.0
 10
4.015148
 20
1.199935
 30
0.0
 10
4.022049
 20
1.197830
 30
0.0
 10
4.029579
 20
1.196919
 30
0.0
 10
4.037066
 20
1.197830
 30
0.0
 10
4.044271
 20
1.199935
 30
0.0
 10
4.050564
 20
1.203516
 30
0.0
 10
4.056272
 20
1.208030
 30
0.0
 10
4.060786
 20
1.213759
 30
0.0
 10
4.064062
 20
1.220009
 30
0.0
 10
4.066471
 20
1.226932
 30
0.0
 10
4.067057
 20
1.234549
 30
0.0
 10
4.064843
 20
1.234722
 30
0.0
 10
4.067057
 20
1.234896
 30
0.0
 10
4.066471
 20
1.242231
 30
0.0
 10
4.064062
 20
1.249154
 30
0.0
 10
4.060786
 20
1.255404
 30
0.0
 10
4.056272
 20
1.261133
 30
0.0
 10
4.050564
 20
1.265647
 30
0.0
 10
4.044271
 20
1.269227
 30
0.0
 10
4.037066
 20
1.271332
 30
0.0
 10
4.029579
 20
1.272243
 30
0.0
 10
4.029579
 20
1.272244
 30
0.0
  0
LWPOLYLINE
  5
105
100
AcDbEntity
  8
Pen_#_1
 62
7
100
AcDbPolyline
 90
34
 70
1
 10
4.029579
 20
1.267752
 30
0.0
 10
4.036176
 20
1.266971
 30
0.0
 10
4.042513
 20
1.265126
 30
0.0
 10
4.048069
 20
1.261936
 30
0.0
 10
4.053103
 20
1.257986
 30
0.0
 10
4.057053
 20
1.252973
 30
0.0
 10
4.059983
 20
1.247374
 30
0.0
 10
4.062088
 20
1.241320
 30
0.0
 10
4.062609
 20
1.234722
 30
0.0
 10
4.062088
 20
1.227843
 30
0.0
 10
4.059983
 20
1.221788
 30
0.0
 10
4.057053
 20
1.216189
 30
0.0
 10
4.053103
 20
1.211176
 30
0.0
 10
4.048069
 20
1.207227
 30
0.0
 10
4.042513
 20
1.204037
 30
0.0
 10
4.036176
 20
1.202192
 30
0.0
 10
4.029579
 20
1.201411
 30
0.0
 10
4.022982
 20
1.202192
 30
0.0
 10
4.016884
 20
1.204037
 30
0.0
 10
4.011068
 20
1.207227
 30
0.0
 10
4.006337
 20
1.211155
 30
0.0
 10
4.002344
 20
1.216211
 30
0.0
 10
3.999175
 20
1.221788
 30
0.0
 10
3.997331
 20
1.227843
 30
0.0
 10
3.996527
 20
1.234722
 30
0.0
 10
3.997331
 20
1.241320
 30
0.0
 10
3.999175
 20
1.247374
 30
0.0
 10
4.002344
 20
1.252952
 30
0.0
 10
4.006337
 20
1.258008
 30
0.0
 10
4.011068
 20
1.261936
 30
0.0
 10
4.016884
 20
1.265126
 30
0.0
 10
4.022982
 20
1.266971
 30
0.0
 10
4.029579
 20
1.267752
 30
0.0
 10
4.029579
 20
1.267752
 30
0.0
  0
LWPOLYLINE
  5
106
100
AcDbEntity
  8
Pen_#_1
 62
7
100
AcDbPolyline
 90
36
 70
1
 10
4.303885
 20
2.295291
 30
0.0
 10
4.296094
 20
2.294401
 30
0.0
 10
4.289171
 20
2.292296
 30
0.0
 10
4.282878
 20
2.288694
 30
0.0
 10
4.277192
 20
2.284201
 30
0.0
 10
4.272700
 20
2.278494
 30
0.0
 10
4.269097
 20
2.272201
 30
0.0
 10
4.266992
 20
2.265299
 30
0.0
 10
4.266081
 20
2.257791
 30
0.0
 10
4.266992
 20
2.249978
 30
0.0
 10
4.269097
 20
2.243056
 30
0.0
 10
4.272700
 20
2.236784
 30
0.0
 10
4.277192
 20
2.231076
 30
0.0
 10
4.282878
 20
2.226584
 30
0.0
 10
4.289171
 20
2.222982
 30
0.0
 10
4.296094
 20
2.220877
 30
0.0
 10
4.303885
 20
2.219987
 30
0.0
 10
4.311393
 20
2.220877
 30
0.0
 10
4.318316
 20
2.222982
 30
0.0
 10
4.324609
 20
2.226584
 30
0.0
 10
4.330317
 20
2.231076
 30
0.0
 10
4.334809
 20
2.236784
 30
0.0
 10
4.338390
 20
2.243056
 30
0.0
 10
4.340495
 20
2.249978
 30
0.0
 10
4.341385
 20
2.257530
 30
0.0
 10
4.339171
 20
2.257791
 30
0.0
 10
4.341363
 20
2.258051
 30
0.0
 10
4.340495
 20
2.265300
 30
0.0
 10
4.338390
 20
2.272201
 30
0.0
 10
4.334810
 20
2.278494
 30
0.0
 10
4.330317
 20
2.284201
 30
0.0
 10
4.324610
 20
2.288694
 30
0.0
 10
4.318317
 20
2.292296
 30
0.0
 10
4.311394
 20
2.294401
 30
0.0
 10
4.303885
 20
2.295291
 30
0.0
 10
4.303885
 20
2.295291
 30
0.0
  0
LWPOLYLINE
  5
107
100
AcDbEntity
  8
Pen_#_1
 62
7
100
AcDbPolyline
 90
34
 70
1
 10
4.303885
 20
2.290820
 30
0.0
 10
4.310482
 20
2.290017
 30
0.0
 10
4.316558
 20
2.288173
 30
0.0
 10
4.322114
 20
2.285004
 30
0.0
 10
4.327148
 20
2.281033
 30
0.0
 10
4.331120
 20
2.275998
 30
0.0
 10
4.334288
 20
2.270443
 30
0.0
 10
4.336133
 20
2.264366
 30
0.0
 10
4.336936
 20
2.257769
 30
0.0
 10
4.336133
 20
2.250890
 30
0.0
 10
4.334288
 20
2.244835
 30
0.0
 10
4.331120
 20
2.239279
 30
0.0
 10
4.327148
 20
2.234245
 30
0.0
 10
4.322114
 20
2.230273
 30
0.0
 10
4.316558
 20
2.227083
 30
0.0
 10
4.310482
 20
2.225239
 30
0.0
 10
4.303885
 20
2.224457
 30
0.0
 10
4.297005
 20
2.225239
 30
0.0
 10
4.290951
 20
2.227083
 30
0.0
 10
4.285373
 20
2.230273
 30
0.0
 10
4.280360
 20
2.234245
 30
0.0
 10
4.276389
 20
2.239279
 30
0.0
 10
4.273199
 20
2.244835
 30
0.0
 10
4.271354
 20
2.250890
 30
0.0
 10
4.270573
 20
2.257769
 30
0.0
 10
4.271354
 20
2.264366
 30
0.0
 10
4.273199
 20
2.270443
 30
0.0
 10
4.276389
 20
2.275998
 30
0.0
 10
4.280360
 20
2.281033
 30
0.0
 10
4.285373
 20
2.285004
 30
0.0
 10
4.290951
 20
2.288173
 30
0.0
 10
4.297005
 20
2.290017
 30
0.0
 10
4.303885
 20
2.290820
 30
0.0
 10
4.303885
 20
2.290820
 30
0.0
  0
LWPOLYLINE
  5
108
100
AcDbEntity
  8
Pen_#_1
 62
7
100
AcDbPolyline
 90
36
 70
1
 10
4.029579
 20
3.318359
 30
0.0
 10
4.022049
 20
3.317448
 30
0.0
 10
4.015148
 20
3.315343
 30
0.0
 10
4.008550
 20
3.311740
 30
0.0
 10
4.003125
 20
3.307227
 30
0.0
 10
3.998655
 20
3.301563
 30
0.0
 10
3.995052
 20
3.295269
 30
0.0
 10
3.992947
 20
3.288346
 30
0.0
 10
3.992057
 20
3.280838
 30
0.0
 10
3.992947
 20
3.273047
 30
0.0
 10
3.995052
 20
3.266124
 30
0.0
 10
3.998655
 20
3.259831
 30
0.0
 10
4.003125
 20
3.254167
 30
0.0
 10
4.008550
 20
3.249631
 30
0.0
 10
4.015148
 20
3.246029
 30
0.0
 10
4.022049
 20
3.243945
 30
0.0
 10
4.029579
 20
3.243034
 30
0.0
 10
4.037066
 20
3.243945
 30
0.0
 10
4.044271
 20
3.246029
 30
0.0
 10
4.050564
 20
3.249631
 30
0.0
 10
4.056272
 20
3.254123
 30
0.0
 10
4.060786
 20
3.259852
 30
0.0
 10
4.064062
 20
3.266124
 30
0.0
 10
4.066471
 20
3.273047
 30
0.0
 10
4.067057
 20
3.280664
 30
0.0
 10
4.064843
 20
3.280838
 30
0.0
 10
4.067057
 20
3.281011
 30
0.0
 10
4.066471
 20
3.288346
 30
0.0
 10
4.064062
 20
3.295269
 30
0.0
 10
4.060786
 20
3.301519
 30
0.0
 10
4.056272
 20
3.307248
 30
0.0
 10
4.050564
 20
3.311740
 30
0.0
 10
4.044271
 20
3.315343
 30
0.0
 10
4.037066
 20
3.317448
 30
0.0
 10
4.029579
 20
3.318359
 30
0.0
 10
4.029579
 20
3.318359
 30
0.0
  0
LWPOLYLINE
  5
109
100
AcDbEntity
  8
Pen_#_1
 62
7
100
AcDbPolyline
 90
34
 70
1
 10
4.029579
 20
3.313867
 30
0.0
 10
4.036176
 20
3.313086
 30
0.0
 10
4.042513
 20
3.311220
 30
0.0
 10
4.048069
 20
3.308051
 30
0.0
 10
4.053103
 20
3.304080
 30
0.0
 10
4.057053
 20
3.299089
 30
0.0
 10
4.059983
 20
3.293490
 30
0.0
 10
4.062088
 20
3.287435
 30
0.0
 10
4.062609
 20
3.280838
 30
0.0
 10
4.062088
 20
3.273958
 30
0.0
 10
4.059983
 20
3.267882
 30
0.0
 10
4.057053
 20
3.262283
 30
0.0
 10
4.053103
 20
3.257292
 30
0.0
 10
4.048069
 20
3.253320
 30
0.0
 10
4.042513
 20
3.250152
 30
0.0
 10
4.036176
 20
3.248307
 30
0.0
 10
4.029579
 20
3.247504
 30
0.0
 10
4.022982
 20
3.248307
 30
0.0
 10
4.016884
 20
3.250152
 30
0.0
 10
4.011068
 20
3.253320
 30
0.0
 10
4.006337
 20
3.257270
 30
0.0
 10
4.002344
 20
3.262326
 30
0.0
 10
3.999175
 20
3.267882
 30
0.0
 10
3.997331
 20
3.273958
 30
0.0
 10
3.996527
 20
3.280838
 30
0.0
 10
3.997331
 20
3.287435
 30
0.0
 10
3.999175
 20
3.293490
 30
0.0
 10
4.002344
 20
3.299067
 30
0.0
 10
4.006337
 20
3.304102
 30
0.0
 10
4.011068
 20
3.308051
 30
0.0
 10
4.016884
 20
3.311220
 30
0.0
 10
4.022982
 20
3.313086
 30
0.0
 10
4.029579
 20
3.313867
 30
0.0
 10
4.029579
 20
3.313867
 30
0.0
  0
LWPOLYLINE
  5
10a
100
AcDbEntity
  8
Pen_#_1
 62
7
100
AcDbPolyline
 90
36
 70
1
 10
1.234722
 20
0.523220
 30
0.0
 10
1.226931
 20
0.522330
 30
0.0
 10
1.220009
 20
0.520204
 30
0.0
 10
1.213715
 20
0.516623
 30
0.0
 10
1.208051
 20
0.512131
 30
0.0
 10
1.203516
 20
0.506705
 30
0.0
 10
1.199935
 20
0.500108
 30
0.0
 10
1.197830
 20
0.493229
 30
0.0
 10
1.196919
 20
0.485698
 30
0.0
 10
1.197830
 20
0.478211
 30
0.0
 10
1.199935
 20
0.471007
 30
0.0
 10
1.203516
 20
0.464692
 30
0.0
 10
1.208030
 20
0.459006
 30
0.0
 10
1.213759
 20
0.454470
 30
0.0
 10
1.220009
 20
0.451193
 30
0.0
 10
1.226931
 20
0.448806
 30
0.0
 10
1.234722
 20
0.448198
 30
0.0
 10
1.242231
 20
0.448806
 30
0.0
 10
1.249154
 20
0.451193
 30
0.0
 10
1.255404
 20
0.454470
 30
0.0
 10
1.261133
 20
0.459006
 30
0.0
 10
1.265647
 20
0.464692
 30
0.0
 10
1.269227
 20
0.471007
 30
0.0
 10
1.271332
 20
0.478211
 30
0.0
 10
1.272200
 20
0.485438
 30
0.0
 10
1.270008
 20
0.485698
 30
0.0
 10
1.272200
 20
0.485958
 30
0.0
 10
1.271332
 20
0.493228
 30
0.0
 10
1.269227
 20
0.500107
 30
0.0
 10
1.265647
 20
0.506705
 30
0.0
 10
1.261111
 20
0.512130
 30
0.0
 10
1.255447
 20
0.516622
 30
0.0
 10
1.249154
 20
0.520203
 30
0.0
 10
1.242231
 20
0.522308
 30
0.0
 10
1.234722
 20
0.523219
 30
0.0
 10
1.234722
 20
0.523220
 30
0.0
  0
LWPOLYLINE
  5
10b
100
AcDbEntity
  8
Pen_#_1
 62
7
100
AcDbPolyline
 90
34
 70
1
 10
1.234722
 20
0.518750
 30
0.0
 10
1.241319
 20
0.517947
 30
0.0
 10
1.247374
 20
0.516102
 30
0.0
 10
1.252951
 20
0.512934
 30
0.0
 10
1.258008
 20
0.508941
 30
0.0
 10
1.261936
 20
0.504210
 30
0.0
 10
1.265126
 20
0.498394
 30
0.0
 10
1.266970
 20
0.492296
 30
0.0
 10
1.267774
 20
0.485698
 30
0.0
 10
1.266970
 20
0.479101
 30
0.0
 10
1.265126
 20
0.472743
 30
0.0
 10
1.261936
 20
0.467187
 30
0.0
 10
1.257986
 20
0.462174
 30
0.0
 10
1.252973
 20
0.458224
 30
0.0
 10
1.247374
 20
0.455295
 30
0.0
 10
1.241319
 20
0.453190
 30
0.0
 10
1.234722
 20
0.452648
 30
0.0
 10
1.227843
 20
0.453190
 30
0.0
 10
1.221788
 20
0.455295
 30
0.0
 10
1.216189
 20
0.458224
 30
0.0
 10
1.211176
 20
0.462174
 30
0.0
 10
1.207227
 20
0.467187
 30
0.0
 10
1.204036
 20
0.472743
 30
0.0
 10
1.202192
 20
0.479101
 30
0.0
 10
1.201411
 20
0.485698
 30
0.0
 10
1.202192
 20
0.492296
 30
0.0
 10
1.204036
 20
0.498394
 30
0.0
 10
1.207227
 20
0.504210
 30
0.0
 10
1.211155
 20
0.508941
 30
0.0
 10
1.216211
 20
0.512934
 30
0.0
 10
1.221788
 20
0.516102
 30
0.0
 10
1.227843
 20
0.517947
 30
0.0
 10
1.234722
 20
0.518750
 30
0.0
 10
1.234722
 20
0.518750
 30
0.0
  0
LWPOLYLINE
  5
10c
100
AcDbEntity
  8
Pen_#_1
 62
7
100
AcDbPolyline
 90
36
 70
1
 10
0.485699
 20
1.272244
 30
0.0
 10
0.478212
 20
1.271333
 30
0.0
 10
0.471007
 20
1.269228
 30
0.0
 10
0.464692
 20
1.265647
 30
0.0
 10
0.459006
 20
1.261133
 30
0.0
 10
0.454470
 20
1.255404
 30
0.0
 10
0.451194
 20
1.249154
 30
0.0
 10
0.448806
 20
1.242231
 30
0.0
 10
0.448199
 20
1.234723
 30
0.0
 10
0.448806
 20
1.226932
 30
0.0
 10
0.451194
 20
1.220009
 30
0.0
 10
0.454470
 20
1.213759
 30
0.0
 10
0.459006
 20
1.208030
 30
0.0
 10
0.464692
 20
1.203516
 30
0.0
 10
0.471007
 20
1.199935
 30
0.0
 10
0.478212
 20
1.197830
 30
0.0
 10
0.485699
 20
1.196919
 30
0.0
 10
0.493229
 20
1.197830
 30
0.0
 10
0.500109
 20
1.199935
 30
0.0
 10
0.506706
 20
1.203516
 30
0.0
 10
0.512131
 20
1.208052
 30
0.0
 10
0.516623
 20
1.213716
 30
0.0
 10
0.520204
 20
1.220009
 30
0.0
 10
0.522331
 20
1.226932
 30
0.0
 10
0.523199
 20
1.234462
 30
0.0
 10
0.520985
 20
1.234722
 30
0.0
 10
0.523199
 20
1.234982
 30
0.0
 10
0.522309
 20
1.242230
 30
0.0
 10
0.520204
 20
1.249153
 30
0.0
 10
0.516623
 20
1.255446
 30
0.0
 10
0.512131
 20
1.261111
 30
0.0
 10
0.506706
 20
1.265646
 30
0.0
 10
0.500109
 20
1.269227
 30
0.0
 10
0.493229
 20
1.271332
 30
0.0
 10
0.485699
 20
1.272243
 30
0.0
 10
0.485699
 20
1.272244
 30
0.0
  0
LWPOLYLINE
  5
10d
100
AcDbEntity
  8
Pen_#_1
 62
7
100
AcDbPolyline
 90
34
 70
1
 10
0.485699
 20
1.267752
 30
0.0
 10
0.492296
 20
1.266971
 30
0.0
 10
0.498394
 20
1.265126
 30
0.0
 10
0.504210
 20
1.261936
 30
0.0
 10
0.508941
 20
1.258008
 30
0.0
 10
0.512934
 20
1.252952
 30
0.0
 10
0.516102
 20
1.247374
 30
0.0
 10
0.517947
 20
1.241320
 30
0.0
 10
0.518750
 20
1.234722
 30
0.0
 10
0.517947
 20
1.227843
 30
0.0
 10
0.516102
 20
1.221788
 30
0.0
 10
0.512934
 20
1.216211
 30
0.0
 10
0.508941
 20
1.211155
 30
0.0
 10
0.504210
 20
1.207227
 30
0.0
 10
0.498394
 20
1.204037
 30
0.0
 10
0.492296
 20
1.202192
 30
0.0
 10
0.485699
 20
1.201411
 30
0.0
 10
0.479102
 20
1.202192
 30
0.0
 10
0.472743
 20
1.204037
 30
0.0
 10
0.467188
 20
1.207227
 30
0.0
 10
0.462174
 20
1.211176
 30
0.0
 10
0.458225
 20
1.216189
 30
0.0
 10
0.455295
 20
1.221788
 30
0.0
 10
0.453190
 20
1.227843
 30
0.0
 10
0.452648
 20
1.234722
 30
0.0
 10
0.453190
 20
1.241320
 30
0.0
 10
0.455295
 20
1.247374
 30
0.0
 10
0.458225
 20
1.252973
 30
0.0
 10
0.462174
 20
1.257986
 30
0.0
 10
0.467188
 20
1.261936
 30
0.0
 10
0.472743
 20
1.265126
 30
0.0
 10
0.479102
 20
1.266971
 30
0.0
 10
0.485699
 20
1.267752
 30
0.0
 10
0.485699
 20
1.267752
 30
0.0
  0
LWPOLYLINE
  5
10e
100
AcDbEntity
  8
Pen_#_1
 62
7
100
AcDbPolyline
 90
36
 70
1
 10
0.211675
 20
2.295291
 30
0.0
 10
0.203885
 20
2.294401
 30
0.0
 10
0.196962
 20
2.292296
 30
0.0
 10
0.190668
 20
2.288694
 30
0.0
 10
0.184961
 20
2.284201
 30
0.0
 10
0.180469
 20
2.278494
 30
0.0
 10
0.176866
 20
2.272201
 30
0.0
 10
0.174761
 20
2.265299
 30
0.0
 10
0.173872
 20
2.257791
 30
0.0
 10
0.174761
 20
2.249978
 30
0.0
 10
0.176866
 20
2.243056
 30
0.0
 10
0.180469
 20
2.236784
 30
0.0
 10
0.184961
 20
2.231076
 30
0.0
 10
0.190668
 20
2.226584
 30
0.0
 10
0.196962
 20
2.222982
 30
0.0
 10
0.203885
 20
2.220877
 30
0.0
 10
0.211675
 20
2.219987
 30
0.0
 10
0.219184
 20
2.220877
 30
0.0
 10
0.226107
 20
2.222982
 30
0.0
 10
0.232378
 20
2.226584
 30
0.0
 10
0.238086
 20
2.231076
 30
0.0
 10
0.242578
 20
2.236784
 30
0.0
 10
0.246181
 20
2.243056
 30
0.0
 10
0.248286
 20
2.249978
 30
0.0
 10
0.249154
 20
2.257530
 30
0.0
 10
0.246940
 20
2.257769
 30
0.0
 10
0.249154
 20
2.258051
 30
0.0
 10
0.248286
 20
2.265299
 30
0.0
 10
0.246181
 20
2.272200
 30
0.0
 10
0.242578
 20
2.278494
 30
0.0
 10
0.238086
 20
2.284201
 30
0.0
 10
0.232378
 20
2.288693
 30
0.0
 10
0.226107
 20
2.292296
 30
0.0
 10
0.219184
 20
2.294401
 30
0.0
 10
0.211675
 20
2.295291
 30
0.0
 10
0.211675
 20
2.295291
 30
0.0
  0
LWPOLYLINE
  5
10f
100
AcDbEntity
  8
Pen_#_1
 62
7
100
AcDbPolyline
 90
34
 70
1
 10
0.211653
 20
2.290820
 30
0.0
 10
0.218272
 20
2.290017
 30
0.0
 10
0.224327
 20
2.288173
 30
0.0
 10
0.229882
 20
2.285004
 30
0.0
 10
0.234917
 20
2.281033
 30
0.0
 10
0.238888
 20
2.275998
 30
0.0
 10
0.242078
 20
2.270443
 30
0.0
 10
0.243923
 20
2.264366
 30
0.0
 10
0.244704
 20
2.257856
 30
0.0
 10
0.243923
 20
2.250890
 30
0.0
 10
0.242078
 20
2.244835
 30
0.0
 10
0.238888
 20
2.239279
 30
0.0
 10
0.234917
 20
2.234245
 30
0.0
 10
0.229882
 20
2.230273
 30
0.0
 10
0.224327
 20
2.227083
 30
0.0
 10
0.218272
 20
2.225239
 30
0.0
 10
0.211653
 20
2.224457
 30
0.0
 10
0.204774
 20
2.225239
 30
0.0
 10
0.198719
 20
2.227083
 30
0.0
 10
0.193164
 20
2.230273
 30
0.0
 10
0.188129
 20
2.234245
 30
0.0
 10
0.184157
 20
2.239279
 30
0.0
 10
0.180989
 20
2.244835
 30
0.0
 10
0.179144
 20
2.250890
 30
0.0
 10
0.178341
 20
2.257769
 30
0.0
 10
0.179144
 20
2.264366
 30
0.0
 10
0.180989
 20
2.270443
 30
0.0
 10
0.184157
 20
2.275998
 30
0.0
 10
0.188129
 20
2.281033
 30
0.0
 10
0.193164
 20
2.285004
 30
0.0
 10
0.198719
 20
2.288173
 30
0.0
 10
0.204774
 20
2.290017
 30
0.0
 10
0.211653
 20
2.290820
 30
0.0
 10
0.211653
 20
2.290820
 30
0.0
  0
LWPOLYLINE
  5
110
100
AcDbEntity
  8
Pen_#_1
 62
7
100
AcDbPolyline
 90
36
 70
1
 10
0.485699
 20
3.318359
 30
0.0
 10
0.478212
 20
3.317448
 30
0.0
 10
0.471007
 20
3.315343
 30
0.0
 10
0.464692
 20
3.311740
 30
0.0
 10
0.459006
 20
3.307248
 30
0.0
 10
0.454470
 20
3.301519
 30
0.0
 10
0.451194
 20
3.295269
 30
0.0
 10
0.448806
 20
3.288346
 30
0.0
 10
0.448199
 20
3.280838
 30
0.0
 10
0.448806
 20
3.273047
 30
0.0
 10
0.451194
 20
3.266124
 30
0.0
 10
0.454470
 20
3.259852
 30
0.0
 10
0.459006
 20
3.254123
 30
0.0
 10
0.464692
 20
3.249631
 30
0.0
 10
0.471007
 20
3.246029
 30
0.0
 10
0.478212
 20
3.243945
 30
0.0
 10
0.485699
 20
3.243034
 30
0.0
 10
0.493229
 20
3.243945
 30
0.0
 10
0.500109
 20
3.246029
 30
0.0
 10
0.506706
 20
3.249631
 30
0.0
 10
0.512131
 20
3.254167
 30
0.0
 10
0.516623
 20
3.259831
 30
0.0
 10
0.520204
 20
3.266124
 30
0.0
 10
0.522331
 20
3.273047
 30
0.0
 10
0.523199
 20
3.280577
 30
0.0
 10
0.520985
 20
3.280838
 30
0.0
 10
0.523199
 20
3.281098
 30
0.0
 10
0.522309
 20
3.288346
 30
0.0
 10
0.520204
 20
3.295269
 30
0.0
 10
0.516623
 20
3.301563
 30
0.0
 10
0.512131
 20
3.307227
 30
0.0
 10
0.506706
 20
3.311740
 30
0.0
 10
0.500109
 20
3.315343
 30
0.0
 10
0.493229
 20
3.317448
 30
0.0
 10
0.485699
 20
3.318359
 30
0.0
 10
0.485699
 20
3.318359
 30
0.0
  0
LWPOLYLINE
  5
111
100
AcDbEntity
  8
Pen_#_1
 62
7
100
AcDbPolyline
 90
34
 70
1
 10
0.485699
 20
3.313867
 30
0.0
 10
0.492296
 20
3.313086
 30
0.0
 10
0.498394
 20
3.311220
 30
0.0
 10
0.504210
 20
3.308051
 30
0.0
 10
0.508941
 20
3.304102
 30
0.0
 10
0.512934
 20
3.299067
 30
0.0
 10
0.516102
 20
3.293490
 30
0.0
 10
0.517947
 20
3.287435
 30
0.0
 10
0.518750
 20
3.280838
 30
0.0
 10
0.517947
 20
3.273958
 30
0.0
 10
0.516102
 20
3.267882
 30
0.0
 10
0.512934
 20
3.262326
 30
0.0
 10
0.508941
 20
3.257270
 30
0.0
 10
0.504210
 20
3.253320
 30
0.0
 10
0.498394
 20
3.250152
 30
0.0
 10
0.492296
 20
3.248307
 30
0.0
 10
0.485699
 20
3.247504
 30
0.0
 10
0.479102
 20
3.248307
 30
0.0
 10
0.472743
 20
3.250152
 30
0.0
 10
0.467188
 20
3.253320
 30
0.0
 10
0.462174
 20
3.257292
 30
0.0
 10
0.458225
 20
3.262283
 30
0.0
 10
0.455295
 20
3.267882
 30
0.0
 10
0.453190
 20
3.273958
 30
0.0
 10
0.452648
 20
3.280838
 30
0.0
 10
0.453190
 20
3.287435
 30
0.0
 10
0.455295
 20
3.293490
 30
0.0
 10
0.458225
 20
3.299089
 30
0.0
 10
0.462174
 20
3.304080
 30
0.0
 10
0.467188
 20
3.308051
 30
0.0
 10
0.472743
 20
3.311220
 30
0.0
 10
0.479102
 20
3.313086
 30
0.0
 10
0.485699
 20
3.313867
 30
0.0
 10
0.485699
 20
3.313867
 30
0.0
  0
LWPOLYLINE
  5
112
100
AcDbEntity
  8
Pen_#_1
 62
7
100
AcDbPolyline
 90
132
 70
1
 10
3.494444
 20
2.257856
 30
0.0
 10
3.489996
 20
2.257704
 30
0.0
 10
3.490560
 20
2.241298
 30
0.0
 10
3.491689
 20
2.224826
 30
0.0
 10
3.493685
 20
2.208898
 30
0.0
 10
3.496528
 20
2.193251
 30
0.0
 10
3.500217
 20
2.177626
 30
0.0
 10
3.504492
 20
2.162565
 30
0.0
 10
3.509614
 20
2.147786
 30
0.0
 10
3.515278
 20
2.133312
 30
0.0
 10
3.521528
 20
2.119097
 30
0.0
 10
3.528646
 20
2.105165
 30
0.0
 10
3.536328
 20
2.091797
 30
0.0
 10
3.544857
 20
2.079015
 30
0.0
 10
3.553646
 20
2.066233
 30
0.0
 10
3.563043
 20
2.054297
 30
0.0
 10
3.573264
 20
2.042643
 30
0.0
 10
3.583789
 20
2.031554
 30
0.0
 10
3.594857
 20
2.021050
 30
0.0
 10
3.606511
 20
2.010807
 30
0.0
 10
3.618468
 20
2.001432
 30
0.0
 10
3.631229
 20
1.992622
 30
0.0
 10
3.644011
 20
1.984115
 30
0.0
 10
3.657379
 20
1.976432
 30
0.0
 10
3.671333
 20
1.969314
 30
0.0
 10
3.685525
 20
1.963064
 30
0.0
 10
3.700000
 20
1.957378
 30
0.0
 10
3.714779
 20
1.952279
 30
0.0
 10
3.729861
 20
1.948003
 30
0.0
 10
3.745486
 20
1.944314
 30
0.0
 10
3.761111
 20
1.941471
 30
0.0
 10
3.777040
 20
1.939475
 30
0.0
 10
3.793512
 20
1.938346
 30
0.0
 10
3.809722
 20
1.937782
 30
0.0
 10
3.826194
 20
1.938346
 30
0.0
 10
3.842665
 20
1.939475
 30
0.0
 10
3.858594
 20
1.941471
 30
0.0
 10
3.874241
 20
1.944314
 30
0.0
 10
3.889866
 20
1.948003
 30
0.0
 10
3.904926
 20
1.952279
 30
0.0
 10
3.919705
 20
1.957378
 30
0.0
 10
3.934180
 20
1.963064
 30
0.0
 10
3.948394
 20
1.969314
 30
0.0
 10
3.962327
 20
1.976432
 30
0.0
 10
3.975716
 20
1.984115
 30
0.0
 10
3.988477
 20
1.992622
 30
0.0
 10
4.001259
 20
2.001432
 30
0.0
 10
4.013216
 20
2.010807
 30
0.0
 10
4.024848
 20
2.021050
 30
0.0
 10
4.035938
 20
2.031554
 30
0.0
 10
4.046441
 20
2.042643
 30
0.0
 10
4.056684
 20
2.054297
 30
0.0
 10
4.066081
 20
2.066233
 30
0.0
 10
4.074870
 20
2.079015
 30
0.0
 10
4.083399
 20
2.091797
 30
0.0
 10
4.091081
 20
2.105165
 30
0.0
 10
4.098177
 20
2.119097
 30
0.0
 10
4.104427
 20
2.133312
 30
0.0
 10
4.110113
 20
2.147786
 30
0.0
 10
4.115235
 20
2.162565
 30
0.0
 10
4.119488
 20
2.177626
 30
0.0
 10
4.123177
 20
2.193251
 30
0.0
 10
4.126020
 20
2.208898
 30
0.0
 10
4.128017
 20
2.224826
 30
0.0
 10
4.129145
 20
2.241298
 30
0.0
 10
4.129731
 20
2.257422
 30
0.0
 10
4.125282
 20
2.257574
 30
0.0
 10
4.124718
 20
2.241515
 30
0.0
 10
4.123589
 20
2.225260
 30
0.0
 10
4.121636
 20
2.209570
 30
0.0
 10
4.118836
 20
2.194162
 30
0.0
 10
4.115191
 20
2.178754
 30
0.0
 10
4.110981
 20
2.163911
 30
0.0
 10
4.105946
 20
2.149327
 30
0.0
 10
4.100325
 20
2.135026
 30
0.0
 10
4.094162
 20
2.121007
 30
0.0
 10
4.087152
 20
2.107292
 30
0.0
 10
4.079600
 20
2.094141
 30
0.0
 10
4.071202
 20
2.081510
 30
0.0
 10
4.062500
 20
2.068880
 30
0.0
 10
4.053255
 20
2.057118
 30
0.0
 10
4.043164
 20
2.045638
 30
0.0
 10
4.032790
 20
2.034701
 30
0.0
 10
4.021853
 20
2.024327
 30
0.0
 10
4.010373
 20
2.014236
 30
0.0
 10
3.998611
 20
2.005013
 30
0.0
 10
3.985981
 20
1.996311
 30
0.0
 10
3.973372
 20
1.987891
 30
0.0
 10
3.960221
 20
1.980339
 30
0.0
 10
3.946484
 20
1.973329
 30
0.0
 10
3.932487
 20
1.967166
 30
0.0
 10
3.918164
 20
1.961545
 30
0.0
 10
3.903602
 20
1.956510
 30
0.0
 10
3.888737
 20
1.952300
 30
0.0
 10
3.873329
 20
1.948655
 30
0.0
 10
3.857921
 20
1.945855
 30
0.0
 10
3.842231
 20
1.943902
 30
0.0
 10
3.825976
 20
1.942773
 30
0.0
 10
3.809722
 20
1.942209
 30
0.0
 10
3.793750
 20
1.942773
 30
0.0
 10
3.777474
 20
1.943902
 30
0.0
 10
3.761784
 20
1.945855
 30
0.0
 10
3.746397
 20
1.948655
 30
0.0
 10
3.730968
 20
1.952300
 30
0.0
 10
3.716124
 20
1.956510
 30
0.0
 10
3.701540
 20
1.961545
 30
0.0
 10
3.687239
 20
1.967166
 30
0.0
 10
3.673220
 20
1.973329
 30
0.0
 10
3.659505
 20
1.980339
 30
0.0
 10
3.646354
 20
1.987891
 30
0.0
 10
3.633724
 20
1.996311
 30
0.0
 10
3.621093
 20
2.005013
 30
0.0
 10
3.609353
 20
2.014236
 30
0.0
 10
3.597851
 20
2.024327
 30
0.0
 10
3.586914
 20
2.034701
 30
0.0
 10
3.576540
 20
2.045638
 30
0.0
 10
3.566449
 20
2.057118
 30
0.0
 10
3.557226
 20
2.068880
 30
0.0
 10
3.548524
 20
2.081510
 30
0.0
 10
3.540104
 20
2.094141
 30
0.0
 10
3.532552
 20
2.107292
 30
0.0
 10
3.525542
 20
2.121007
 30
0.0
 10
3.519379
 20
2.135026
 30
0.0
 10
3.513780
 20
2.149327
 30
0.0
 10
3.508724
 20
2.163911
 30
0.0
 10
3.504535
 20
2.178754
 30
0.0
 10
3.500889
 20
2.194162
 30
0.0
 10
3.498090
 20
2.209570
 30
0.0
 10
3.496115
 20
2.225260
 30
0.0
 10
3.495008
 20
2.241515
 30
0.0
 10
3.494444
 20
2.257856
 30
0.0
 10
3.494444
 20
2.257856
 30
0.0
  0
LWPOLYLINE
  5
113
100
AcDbEntity
  8
Pen_#_1
 62
7
100
AcDbPolyline
 90
36
 70
1
 10
3.887305
 20
3.178602
 30
0.0
 10
3.883398
 20
3.176476
 30
0.0
 10
3.912174
 20
3.123459
 30
0.0
 10
3.939236
 20
3.069900
 30
0.0
 10
3.964605
 20
3.015213
 30
0.0
 10
3.987999
 20
2.959961
 30
0.0
 10
4.009701
 20
2.904145
 30
0.0
 10
4.029427
 20
2.847483
 30
0.0
 10
4.047483
 20
2.790256
 30
0.0
 10
4.063824
 20
2.732747
 30
0.0
 10
4.077930
 20
2.674696
 30
0.0
 10
4.090321
 20
2.616059
 30
0.0
 10
4.101042
 20
2.556858
 30
0.0
 10
4.109766
 20
2.497656
 30
0.0
 10
4.116536
 20
2.437912
 30
0.0
 10
4.121332
 20
2.378147
 30
0.0
 10
4.124154
 20
2.317817
 30
0.0
 10
4.125282
 20
2.257444
 30
0.0
 10
4.129731
 20
2.257530
 30
0.0
 10
4.128602
 20
2.317969
 30
0.0
 10
4.125760
 20
2.378429
 30
0.0
 10
4.120964
 20
2.438325
 30
0.0
 10
4.114171
 20
2.498242
 30
0.0
 10
4.105425
 20
2.557574
 30
0.0
 10
4.094683
 20
2.616905
 30
0.0
 10
4.082248
 20
2.675673
 30
0.0
 10
4.068121
 20
2.733897
 30
0.0
 10
4.051736
 20
2.791536
 30
0.0
 10
4.033659
 20
2.848893
 30
0.0
 10
4.013867
 20
2.905686
 30
0.0
 10
3.992122
 20
2.961632
 30
0.0
 10
3.968663
 20
3.017014
 30
0.0
 10
3.943229
 20
3.071831
 30
0.0
 10
3.916102
 20
3.125521
 30
0.0
 10
3.887305
 20
3.178602
 30
0.0
 10
3.887305
 20
3.178602
 30
0.0
  0
LWPOLYLINE
  5
114
100
AcDbEntity
  8
Pen_#_1
 62
7
100
AcDbPolyline
 90
36
 70
1
 10
3.732704
 20
3.180013
 30
0.0
 10
3.703885
 20
3.126931
 30
0.0
 10
3.676476
 20
3.072960
 30
0.0
 10
3.651345
 20
3.018142
 30
0.0
 10
3.627604
 20
2.962760
 30
0.0
 10
3.605838
 20
2.906532
 30
0.0
 10
3.585786
 20
2.849740
 30
0.0
 10
3.567708
 20
2.792383
 30
0.0
 10
3.551584
 20
2.734462
 30
0.0
 10
3.537174
 20
2.676237
 30
0.0
 10
3.524740
 20
2.617470
 30
0.0
 10
3.514019
 20
2.558138
 30
0.0
 10
3.505252
 20
2.498524
 30
0.0
 10
3.498481
 20
2.438607
 30
0.0
 10
3.493663
 20
2.378429
 30
0.0
 10
3.490842
 20
2.318251
 30
0.0
 10
3.489714
 20
2.257530
 30
0.0
 10
3.494162
 20
2.257444
 30
0.0
 10
3.495291
 20
2.318099
 30
0.0
 10
3.498112
 20
2.378147
 30
0.0
 10
3.502886
 20
2.438195
 30
0.0
 10
3.509657
 20
2.497939
 30
0.0
 10
3.518403
 20
2.557422
 30
0.0
 10
3.529102
 20
2.616623
 30
0.0
 10
3.541515
 20
2.675261
 30
0.0
 10
3.555881
 20
2.733312
 30
0.0
 10
3.571962
 20
2.791103
 30
0.0
 10
3.589996
 20
2.848329
 30
0.0
 10
3.610004
 20
2.904991
 30
0.0
 10
3.631727
 20
2.961090
 30
0.0
 10
3.655404
 20
3.016341
 30
0.0
 10
3.680490
 20
3.071029
 30
0.0
 10
3.707834
 20
3.124870
 30
0.0
 10
3.736610
 20
3.177886
 30
0.0
 10
3.732704
 20
3.180013
 30
0.0
 10
3.732704
 20
3.180013
 30
0.0
  0
LWPOLYLINE
  5
115
100
AcDbEntity
  8
Pen_#_1
 62
7
100
AcDbPolyline
 90
36
 70
1
 10
3.809722
 20
3.212218
 30
0.0
 10
3.799371
 20
3.211936
 30
0.0
 10
3.789236
 20
3.210482
 30
0.0
 10
3.779167
 20
3.207899
 30
0.0
 10
3.769097
 20
3.204449
 30
0.0
 10
3.759570
 20
3.200109
 30
0.0
 10
3.750326
 20
3.194618
 30
0.0
 10
3.741710
 20
3.188021
 30
0.0
 10
3.733485
 20
3.180924
 30
0.0
 10
3.736372
 20
3.177561
 30
0.0
 10
3.744510
 20
3.184570
 30
0.0
 10
3.752821
 20
3.190929
 30
0.0
 10
3.761632
 20
3.196159
 30
0.0
 10
3.770747
 20
3.200304
 30
0.0
 10
3.780447
 20
3.203624
 30
0.0
 10
3.790126
 20
3.206120
 30
0.0
 10
3.799740
 20
3.207487
 30
0.0
 10
3.809722
 20
3.207769
 30
0.0
 10
3.819683
 20
3.207487
 30
0.0
 10
3.829601
 20
3.206120
 30
0.0
 10
3.839280
 20
3.203624
 30
0.0
 10
3.848980
 20
3.200304
 30
0.0
 10
3.858073
 20
3.196159
 30
0.0
 10
3.866884
 20
3.190929
 30
0.0
 10
3.875195
 20
3.184570
 30
0.0
 10
3.883333
 20
3.177561
 30
0.0
 10
3.886241
 20
3.180924
 30
0.0
 10
3.878016
 20
3.188021
 30
0.0
 10
3.869379
 20
3.194618
 30
0.0
 10
3.860135
 20
3.200109
 30
0.0
 10
3.850608
 20
3.204449
 30
0.0
 10
3.840560
 20
3.207899
 30
0.0
 10
3.830469
 20
3.210482
 30
0.0
 10
3.820052
 20
3.211936
 30
0.0
 10
3.809722
 20
3.212218
 30
0.0
 10
3.809722
 20
3.212218
 30
0.0
  0
LWPOLYLINE
  5
116
100
AcDbEntity
  8
Pen_#_1
 62
7
100
AcDbPolyline
 90
6
 70
1
 10
3.886892
 20
3.179926
 30
0.0
 10
3.882682
 20
3.178537
 30
0.0
 10
3.883247
 20
3.176845
 30
0.0
 10
3.887457
 20
3.178234
 30
0.0
 10
3.886892
 20
3.179926
 30
0.0
 10
3.886892
 20
3.179926
 30
0.0
  0
LWPOLYLINE
  5
117
100
AcDbEntity
  8
Pen_#_1
 62
7
100
AcDbPolyline
 90
132
 70
1
 10
1.020551
 20
2.257812
 30
0.0
 10
1.020269
 20
2.241515
 30
0.0
 10
1.019141
 20
2.225260
 30
0.0
 10
1.017188
 20
2.209570
 30
0.0
 10
1.014388
 20
2.194162
 30
0.0
 10
1.010742
 20
2.178754
 30
0.0
 10
1.006532
 20
2.163911
 30
0.0
 10
1.001497
 20
2.149327
 30
0.0
 10
0.995877
 20
2.135026
 30
0.0
 10
0.989714
 20
2.121007
 30
0.0
 10
0.982726
 20
2.107292
 30
0.0
 10
0.975174
 20
2.094141
 30
0.0
 10
0.966753
 20
2.081510
 30
0.0
 10
0.958051
 20
2.068880
 30
0.0
 10
0.948806
 20
2.057118
 30
0.0
 10
0.938715
 20
2.045638
 30
0.0
 10
0.928342
 20
2.034701
 30
0.0
 10
0.917426
 20
2.024327
 30
0.0
 10
0.905924
 20
2.014236
 30
0.0
 10
0.894162
 20
2.005013
 30
0.0
 10
0.881554
 20
1.996311
 30
0.0
 10
0.868924
 20
1.987891
 30
0.0
 10
0.855773
 20
1.980339
 30
0.0
 10
0.842036
 20
1.973329
 30
0.0
 10
0.828038
 20
1.967166
 30
0.0
 10
0.813715
 20
1.961545
 30
0.0
 10
0.799154
 20
1.956510
 30
0.0
 10
0.784310
 20
1.952300
 30
0.0
 10
0.768880
 20
1.948655
 30
0.0
 10
0.753472
 20
1.945855
 30
0.0
 10
0.737804
 20
1.943902
 30
0.0
 10
0.721549
 20
1.942773
 30
0.0
 10
0.705556
 20
1.942491
 30
0.0
 10
0.689280
 20
1.942773
 30
0.0
 10
0.673025
 20
1.943902
 30
0.0
 10
0.657357
 20
1.945855
 30
0.0
 10
0.641949
 20
1.948655
 30
0.0
 10
0.626519
 20
1.952300
 30
0.0
 10
0.611675
 20
1.956510
 30
0.0
 10
0.597114
 20
1.961545
 30
0.0
 10
0.582791
 20
1.967166
 30
0.0
 10
0.568793
 20
1.973329
 30
0.0
 10
0.555056
 20
1.980339
 30
0.0
 10
0.541905
 20
1.987891
 30
0.0
 10
0.529275
 20
1.996311
 30
0.0
 10
0.516667
 20
2.005013
 30
0.0
 10
0.504905
 20
2.014236
 30
0.0
 10
0.493403
 20
2.024327
 30
0.0
 10
0.482487
 20
2.034701
 30
0.0
 10
0.472114
 20
2.045638
 30
0.0
 10
0.462023
 20
2.057118
 30
0.0
 10
0.452778
 20
2.068880
 30
0.0
 10
0.444076
 20
2.081510
 30
0.0
 10
0.435655
 20
2.094141
 30
0.0
 10
0.428103
 20
2.107292
 30
0.0
 10
0.421115
 20
2.121007
 30
0.0
 10
0.414952
 20
2.135026
 30
0.0
 10
0.409332
 20
2.149327
 30
0.0
 10
0.404297
 20
2.163911
 30
0.0
 10
0.400087
 20
2.178754
 30
0.0
 10
0.396441
 20
2.194162
 30
0.0
 10
0.393641
 20
2.209570
 30
0.0
 10
0.391688
 20
2.225260
 30
0.0
 10
0.390560
 20
2.241515
 30
0.0
 10
0.390278
 20
2.257530
 30
0.0
 10
0.385829
 20
2.257465
 30
0.0
 10
0.386111
 20
2.241319
 30
0.0
 10
0.387261
 20
2.224826
 30
0.0
 10
0.389236
 20
2.208897
 30
0.0
 10
0.392079
 20
2.193250
 30
0.0
 10
0.395790
 20
2.177625
 30
0.0
 10
0.400043
 20
2.162565
 30
0.0
 10
0.405165
 20
2.147786
 30
0.0
 10
0.410829
 20
2.133311
 30
0.0
 10
0.417101
 20
2.119097
 30
0.0
 10
0.424197
 20
2.105164
 30
0.0
 10
0.431879
 20
2.091796
 30
0.0
 10
0.440408
 20
2.079014
 30
0.0
 10
0.449197
 20
2.066232
 30
0.0
 10
0.458594
 20
2.054296
 30
0.0
 10
0.468815
 20
2.042643
 30
0.0
 10
0.479340
 20
2.031553
 30
0.0
 10
0.490408
 20
2.021050
 30
0.0
 10
0.502062
 20
2.010807
 30
0.0
 10
0.514019
 20
2.001432
 30
0.0
 10
0.526801
 20
1.992621
 30
0.0
 10
0.539562
 20
1.984114
 30
0.0
 10
0.552951
 20
1.976432
 30
0.0
 10
0.566884
 20
1.969314
 30
0.0
 10
0.581098
 20
1.963064
 30
0.0
 10
0.595573
 20
1.957378
 30
0.0
 10
0.610352
 20
1.952278
 30
0.0
 10
0.625412
 20
1.948003
 30
0.0
 10
0.641037
 20
1.944314
 30
0.0
 10
0.656684
 20
1.941471
 30
0.0
 10
0.672613
 20
1.939474
 30
0.0
 10
0.689084
 20
1.938346
 30
0.0
 10
0.705556
 20
1.938064
 30
0.0
 10
0.721745
 20
1.938346
 30
0.0
 10
0.738216
 20
1.939474
 30
0.0
 10
0.754145
 20
1.941471
 30
0.0
 10
0.769792
 20
1.944314
 30
0.0
 10
0.785417
 20
1.948003
 30
0.0
 10
0.800477
 20
1.952278
 30
0.0
 10
0.815256
 20
1.957378
 30
0.0
 10
0.829731
 20
1.963064
 30
0.0
 10
0.843945
 20
1.969314
 30
0.0
 10
0.857878
 20
1.976432
 30
0.0
 10
0.871267
 20
1.984114
 30
0.0
 10
0.884028
 20
1.992621
 30
0.0
 10
0.896810
 20
2.001432
 30
0.0
 10
0.908767
 20
2.010807
 30
0.0
 10
0.920421
 20
2.021050
 30
0.0
 10
0.931489
 20
2.031553
 30
0.0
 10
0.942014
 20
2.042643
 30
0.0
 10
0.952235
 20
2.054296
 30
0.0
 10
0.961632
 20
2.066232
 30
0.0
 10
0.970421
 20
2.079014
 30
0.0
 10
0.978950
 20
2.091796
 30
0.0
 10
0.986632
 20
2.105164
 30
0.0
 10
0.993728
 20
2.119097
 30
0.0
 10
1.000000
 20
2.133311
 30
0.0
 10
1.005664
 20
2.147786
 30
0.0
 10
1.010786
 20
2.162565
 30
0.0
 10
1.015039
 20
2.177625
 30
0.0
 10
1.018750
 20
2.193250
 30
0.0
 10
1.021593
 20
2.208897
 30
0.0
 10
1.023568
 20
2.224826
 30
0.0
 10
1.024718
 20
2.241319
 30
0.0
 10
1.025000
 20
2.257747
 30
0.0
 10
1.020551
 20
2.257812
 30
0.0
 10
1.020551
 20
2.257812
 30
0.0
  0
LWPOLYLINE
  5
118
100
AcDbEntity
  8
Pen_#_1
 62
7
100
AcDbPolyline
 90
36
 70
1
 10
0.627973
 20
3.178602
 30
0.0
 10
0.599175
 20
3.125521
 30
0.0
 10
0.572049
 20
3.071832
 30
0.0
 10
0.546615
 20
3.017014
 30
0.0
 10
0.523155
 20
2.961632
 30
0.0
 10
0.501389
 20
2.905686
 30
0.0
 10
0.481619
 20
2.848893
 30
0.0
 10
0.463542
 20
2.791536
 30
0.0
 10
0.447157
 20
2.733898
 30
0.0
 10
0.433030
 20
2.675673
 30
0.0
 10
0.420595
 20
2.616905
 30
0.0
 10
0.409852
 20
2.557574
 30
0.0
 10
0.401085
 20
2.498242
 30
0.0
 10
0.394314
 20
2.438325
 30
0.0
 10
0.389497
 20
2.378429
 30
0.0
 10
0.386675
 20
2.317969
 30
0.0
 10
0.385829
 20
2.257812
 30
0.0
 10
0.390278
 20
2.257747
 30
0.0
 10
0.391124
 20
2.317816
 30
0.0
 10
0.393945
 20
2.378146
 30
0.0
 10
0.398741
 20
2.437912
 30
0.0
 10
0.405490
 20
2.497656
 30
0.0
 10
0.414236
 20
2.556857
 30
0.0
 10
0.424957
 20
2.616059
 30
0.0
 10
0.437348
 20
2.674696
 30
0.0
 10
0.451454
 20
2.732747
 30
0.0
 10
0.467795
 20
2.790256
 30
0.0
 10
0.485829
 20
2.847482
 30
0.0
 10
0.505577
 20
2.904145
 30
0.0
 10
0.527279
 20
2.959960
 30
0.0
 10
0.550673
 20
3.015212
 30
0.0
 10
0.576042
 20
3.069900
 30
0.0
 10
0.603103
 20
3.123459
 30
0.0
 10
0.631879
 20
3.176475
 30
0.0
 10
0.627973
 20
3.178602
 30
0.0
 10
0.627973
 20
3.178602
 30
0.0
  0
LWPOLYLINE
  5
119
100
AcDbEntity
  8
Pen_#_1
 62
7
100
AcDbPolyline
 90
36
 70
1
 10
0.782574
 20
3.180013
 30
0.0
 10
0.778668
 20
3.177886
 30
0.0
 10
0.807444
 20
3.124870
 30
0.0
 10
0.834787
 20
3.071029
 30
0.0
 10
0.859874
 20
3.016341
 30
0.0
 10
0.883550
 20
2.961089
 30
0.0
 10
0.905252
 20
2.904991
 30
0.0
 10
0.925282
 20
2.848329
 30
0.0
 10
0.943316
 20
2.791102
 30
0.0
 10
0.959375
 20
2.733312
 30
0.0
 10
0.973763
 20
2.675260
 30
0.0
 10
0.986155
 20
2.616623
 30
0.0
 10
0.996875
 20
2.557422
 30
0.0
 10
1.005621
 20
2.497938
 30
0.0
 10
1.012370
 20
2.438194
 30
0.0
 10
1.017166
 20
2.378147
 30
0.0
 10
1.019987
 20
2.318099
 30
0.0
 10
1.021115
 20
2.257726
 30
0.0
 10
1.025564
 20
2.257812
 30
0.0
 10
1.024436
 20
2.318251
 30
0.0
 10
1.021615
 20
2.378429
 30
0.0
 10
1.016797
 20
2.438607
 30
0.0
 10
1.010026
 20
2.498524
 30
0.0
 10
1.001259
 20
2.558138
 30
0.0
 10
0.990516
 20
2.617469
 30
0.0
 10
0.978082
 20
2.676237
 30
0.0
 10
0.963672
 20
2.734462
 30
0.0
 10
0.947569
 20
2.792383
 30
0.0
 10
0.929492
 20
2.849739
 30
0.0
 10
0.909418
 20
2.906532
 30
0.0
 10
0.887674
 20
2.962760
 30
0.0
 10
0.863932
 20
3.018142
 30
0.0
 10
0.838780
 20
3.072960
 30
0.0
 10
0.811372
 20
3.126931
 30
0.0
 10
0.782574
 20
3.180013
 30
0.0
 10
0.782574
 20
3.180013
 30
0.0
  0
LWPOLYLINE
  5
11a
100
AcDbEntity
  8
Pen_#_1
 62
7
100
AcDbPolyline
 90
36
 70
1
 10
0.705556
 20
3.212218
 30
0.0
 10
0.695204
 20
3.211936
 30
0.0
 10
0.684809
 20
3.210482
 30
0.0
 10
0.674718
 20
3.207899
 30
0.0
 10
0.664648
 20
3.204449
 30
0.0
 10
0.655143
 20
3.200109
 30
0.0
 10
0.645898
 20
3.194618
 30
0.0
 10
0.637261
 20
3.188021
 30
0.0
 10
0.629036
 20
3.180924
 30
0.0
 10
0.631944
 20
3.177561
 30
0.0
 10
0.640061
 20
3.184570
 30
0.0
 10
0.648372
 20
3.190929
 30
0.0
 10
0.657205
 20
3.196159
 30
0.0
 10
0.666298
 20
3.200304
 30
0.0
 10
0.675998
 20
3.203624
 30
0.0
 10
0.685677
 20
3.206120
 30
0.0
 10
0.695573
 20
3.207487
 30
0.0
 10
0.705556
 20
3.207769
 30
0.0
 10
0.715516
 20
3.207487
 30
0.0
 10
0.725152
 20
3.206120
 30
0.0
 10
0.734831
 20
3.203624
 30
0.0
 10
0.744531
 20
3.200304
 30
0.0
 10
0.753624
 20
3.196159
 30
0.0
 10
0.762435
 20
3.190929
 30
0.0
 10
0.770747
 20
3.184570
 30
0.0
 10
0.778885
 20
3.177561
 30
0.0
 10
0.781793
 20
3.180924
 30
0.0
 10
0.773568
 20
3.188021
 30
0.0
 10
0.764931
 20
3.194618
 30
0.0
 10
0.755686
 20
3.200109
 30
0.0
 10
0.746181
 20
3.204449
 30
0.0
 10
0.736111
 20
3.207899
 30
0.0
 10
0.726020
 20
3.210482
 30
0.0
 10
0.715907
 20
3.211936
 30
0.0
 10
0.705556
 20
3.212218
 30
0.0
 10
0.705556
 20
3.212218
 30
0.0
  0
LWPOLYLINE
  5
11b
100
AcDbEntity
  8
Pen_#_1
 62
7
100
AcDbPolyline
 90
6
 70
1
 10
0.628385
 20
3.179926
 30
0.0
 10
0.627821
 20
3.178234
 30
0.0
 10
0.632031
 20
3.176845
 30
0.0
 10
0.632595
 20
3.178537
 30
0.0
 10
0.628385
 20
3.179926
 30
0.0
 10
0.628385
 20
3.179926
 30
0.0
  0
LWPOLYLINE
  5
11c
100
AcDbEntity
  8
Pen_#_1
 62
7
100
AcDbPolyline
 90
300
 70
1
 10
3.290755
 20
3.921766
 30
0.0
 10
3.290755
 20
3.665994
 30
0.0
 10
3.416146
 20
3.540885
 30
0.0
 10
3.539323
 20
3.417708
 30
0.0
 10
3.417708
 20
3.296115
 30
0.0
 10
3.290755
 20
3.423069
 30
0.0
 10
3.290755
 20
3.168229
 30
0.0
 10
3.290755
 20
3.112565
 30
0.0
 10
3.306641
 20
3.061198
 30
0.0
 10
3.321311
 20
3.009592
 30
0.0
 10
3.334831
 20
2.957422
 30
0.0
 10
3.347526
 20
2.904709
 30
0.0
 10
3.359093
 20
2.851693
 30
0.0
 10
3.369813
 20
2.798394
 30
0.0
 10
3.379405
 20
2.744531
 30
0.0
 10
3.387847
 20
2.690386
 30
0.0
 10
3.395464
 20
2.635959
 30
0.0
 10
3.401953
 20
2.580968
 30
0.0
 10
3.407595
 20
2.526259
 30
0.0
 10
3.412109
 20
2.470985
 30
0.0
 10
3.415495
 20
2.415712
 30
0.0
 10
3.417752
 20
2.360438
 30
0.0
 10
3.419162
 20
2.304883
 30
0.0
 10
3.419445
 20
2.249609
 30
0.0
 10
3.418880
 20
2.194032
 30
0.0
 10
3.417187
 20
2.138477
 30
0.0
 10
3.414648
 20
2.083203
 30
0.0
 10
3.410699
 20
2.027951
 30
0.0
 10
3.405903
 20
1.972938
 30
0.0
 10
3.400260
 20
1.918229
 30
0.0
 10
3.393489
 20
1.863520
 30
0.0
 10
3.385590
 20
1.809093
 30
0.0
 10
3.376866
 20
1.755230
 30
0.0
 10
3.366992
 20
1.701389
 30
0.0
 10
3.355989
 20
1.648090
 30
0.0
 10
3.344141
 20
1.595356
 30
0.0
 10
3.331185
 20
1.542904
 30
0.0
 10
3.317079
 20
1.490734
 30
0.0
 10
3.302127
 20
1.439410
 30
0.0
 10
3.286024
 20
1.388520
 30
0.0
 10
3.285678
 20
1.386784
 30
0.0
 10
3.285678
 20
1.385156
 30
0.0
 10
3.285678
 20
1.383963
 30
0.0
 10
3.285395
 20
1.382552
 30
0.0
 10
3.285395
 20
1.380903
 30
0.0
 10
3.285395
 20
1.379492
 30
0.0
 10
3.285395
 20
1.378364
 30
0.0
 10
3.285395
 20
1.376953
 30
0.0
 10
3.285395
 20
1.375543
 30
0.0
 10
3.285395
 20
1.374132
 30
0.0
 10
3.285395
 20
1.372504
 30
0.0
 10
3.285678
 20
1.371094
 30
0.0
 10
3.285678
 20
1.369683
 30
0.0
 10
3.286003
 20
1.368056
 30
0.0
 10
3.286242
 20
1.366862
 30
0.0
 10
3.286242
 20
1.365734
 30
0.0
 10
3.286568
 20
1.364106
 30
0.0
 10
3.286850
 20
1.362695
 30
0.0
 10
3.287153
 20
1.361089
 30
0.0
 10
3.287739
 20
1.359635
 30
0.0
 10
3.287978
 20
1.358702
 30
0.0
 10
3.288281
 20
1.357140
 30
0.0
 10
3.288845
 20
1.355729
 30
0.0
 10
3.289150
 20
1.354232
 30
0.0
 10
3.289714
 20
1.353081
 30
0.0
 10
3.289996
 20
1.351671
 30
0.0
 10
3.290670
 20
1.350369
 30
0.0
 10
3.291234
 20
1.348958
 30
0.0
 10
3.291799
 20
1.347830
 30
0.0
 10
3.292363
 20
1.346419
 30
0.0
 10
3.292992
 20
1.345139
 30
0.0
 10
3.293990
 20
1.343489
 30
0.0
 10
3.297831
 20
1.339041
 30
0.0
 10
3.614107
 20
1.022786
 30
0.0
 10
3.492492
 20
0.901172
 30
0.0
 10
3.208725
 20
1.184961
 30
0.0
 10
3.197809
 20
1.160568
 30
0.0
 10
3.187935
 20
1.138845
 30
0.0
 10
3.177801
 20
1.117448
 30
0.0
 10
3.167362
 20
1.096289
 30
0.0
 10
3.156924
 20
1.075434
 30
0.0
 10
3.146225
 20
1.054557
 30
0.0
 10
3.135505
 20
1.034266
 30
0.0
 10
3.124524
 20
1.014258
 30
0.0
 10
3.113239
 20
0.994249
 30
0.0
 10
3.101954
 20
0.974783
 30
0.0
 10
3.090409
 20
0.955338
 30
0.0
 10
3.078582
 20
0.936176
 30
0.0
 10
3.066733
 20
0.917578
 30
0.0
 10
3.054884
 20
0.898958
 30
0.0
 10
3.042492
 20
0.880664
 30
0.0
 10
3.030101
 20
0.862891
 30
0.0
 10
3.017688
 20
0.845139
 30
0.0
 10
3.005014
 20
0.827951
 30
0.0
 10
2.992319
 20
0.810764
 30
0.0
 10
2.979081
 20
0.793858
 30
0.0
 10
2.966125
 20
0.777517
 30
0.0
 10
2.952887
 20
0.761437
 30
0.0
 10
2.939346
 20
0.745377
 30
0.0
 10
2.925826
 20
0.729883
 30
0.0
 10
2.912024
 20
0.714670
 30
0.0
 10
2.898222
 20
0.699739
 30
0.0
 10
2.884137
 20
0.685091
 30
0.0
 10
2.870031
 20
0.670703
 30
0.0
 10
2.855947
 20
0.656641
 30
0.0
 10
2.841603
 20
0.643121
 30
0.0
 10
2.826933
 20
0.629601
 30
0.0
 10
2.812241
 20
0.616580
 30
0.0
 10
2.810939
 20
0.615278
 30
0.0
 10
2.809246
 20
0.614149
 30
0.0
 10
2.807749
 20
0.612652
 30
0.0
 10
2.806056
 20
0.611241
 30
0.0
 10
2.804710
 20
0.609917
 30
0.0
 10
2.803104
 20
0.608832
 30
0.0
 10
2.801260
 20
0.607291
 30
0.0
 10
2.799914
 20
0.605967
 30
0.0
 10
2.798222
 20
0.604839
 30
0.0
 10
2.796724
 20
0.603341
 30
0.0
 10
2.795140
 20
0.602018
 30
0.0
 10
2.793729
 20
0.600889
 30
0.0
 10
2.791928
 20
0.599392
 30
0.0
 10
2.790604
 20
0.598068
 30
0.0
 10
2.788912
 20
0.596940
 30
0.0
 10
2.787501
 20
0.595529
 30
0.0
 10
2.785895
 20
0.594443
 30
0.0
 10
2.784137
 20
0.592968
 30
0.0
 10
2.782727
 20
0.591839
 30
0.0
 10
2.781034
 20
0.590429
 30
0.0
 10
2.779624
 20
0.589300
 30
0.0
 10
2.777931
 20
0.587890
 30
0.0
 10
2.776499
 20
0.586761
 30
0.0
 10
2.774893
 20
0.585416
 30
0.0
 10
2.773113
 20
0.584222
 30
0.0
 10
2.771702
 20
0.582811
 30
0.0
 10
2.770010
 20
0.581683
 30
0.0
 10
2.768599
 20
0.580272
 30
0.0
 10
2.767080
 20
0.579275
 30
0.0
 10
2.765214
 20
0.578016
 30
0.0
 10
2.763738
 20
0.576540
 30
0.0
 10
2.763021
 20
0.575976
 30
0.0
 10
1.751476
 20
0.575976
 30
0.0
 10
1.751476
 20
0.571527
 30
0.0
 10
2.764584
 20
0.571527
 30
0.0
 10
2.766689
 20
0.573220
 30
0.0
 10
2.768034
 20
0.574565
 30
0.0
 10
2.769554
 20
0.575585
 30
0.0
 10
2.771420
 20
0.576822
 30
0.0
 10
2.772830
 20
0.578233
 30
0.0
 10
2.774523
 20
0.579361
 30
0.0
 10
2.775934
 20
0.580772
 30
0.0
 10
2.777561
 20
0.581857
 30
0.0
 10
2.779319
 20
0.583333
 30
0.0
 10
2.780730
 20
0.584462
 30
0.0
 10
2.782422
 20
0.585872
 30
0.0
 10
2.783833
 20
0.587001
 30
0.0
 10
2.785526
 20
0.588411
 30
0.0
 10
2.786936
 20
0.589540
 30
0.0
 10
2.788564
 20
0.590885
 30
0.0
 10
2.790343
 20
0.592079
 30
0.0
 10
2.791754
 20
0.593489
 30
0.0
 10
2.793447
 20
0.594618
 30
0.0
 10
2.794944
 20
0.596094
 30
0.0
 10
2.796528
 20
0.597439
 30
0.0
 10
2.797939
 20
0.598567
 30
0.0
 10
2.799740
 20
0.600065
 30
0.0
 10
2.801064
 20
0.601389
 30
0.0
 10
2.802757
 20
0.602517
 30
0.0
 10
2.804254
 20
0.604015
 30
0.0
 10
2.805773
 20
0.605273
 30
0.0
 10
2.807553
 20
0.606467
 30
0.0
 10
2.809050
 20
0.607964
 30
0.0
 10
2.810743
 20
0.609375
 30
0.0
 10
2.812067
 20
0.610699
 30
0.0
 10
2.813759
 20
0.611827
 30
0.0
 10
2.815278
 20
0.613346
 30
0.0
 10
2.829927
 20
0.626302
 30
0.0
 10
2.844619
 20
0.639865
 30
0.0
 10
2.859050
 20
0.653450
 30
0.0
 10
2.873199
 20
0.667578
 30
0.0
 10
2.887327
 20
0.681988
 30
0.0
 10
2.901455
 20
0.696701
 30
0.0
 10
2.915300
 20
0.711675
 30
0.0
 10
2.929146
 20
0.726931
 30
0.0
 10
2.942731
 20
0.742491
 30
0.0
 10
2.956294
 20
0.758594
 30
0.0
 10
2.969575
 20
0.774718
 30
0.0
 10
2.982574
 20
0.791102
 30
0.0
 10
2.995856
 20
0.808073
 30
0.0
 10
3.008594
 20
0.825304
 30
0.0
 10
3.021311
 20
0.842556
 30
0.0
 10
3.033746
 20
0.860351
 30
0.0
 10
3.046159
 20
0.878146
 30
0.0
 10
3.058616
 20
0.896528
 30
0.0
 10
3.070487
 20
0.915191
 30
0.0
 10
3.082336
 20
0.933832
 30
0.0
 10
3.094206
 20
0.953038
 30
0.0
 10
3.105795
 20
0.972548
 30
0.0
 10
3.117101
 20
0.992035
 30
0.0
 10
3.128408
 20
1.012087
 30
0.0
 10
3.139432
 20
1.032161
 30
0.0
 10
3.150152
 20
1.052517
 30
0.0
 10
3.160895
 20
1.073416
 30
0.0
 10
3.171355
 20
1.094314
 30
0.0
 10
3.181793
 20
1.115495
 30
0.0
 10
3.191971
 20
1.136979
 30
0.0
 10
3.201867
 20
1.158745
 30
0.0
 10
3.210135
 20
1.177257
 30
0.0
 10
3.492492
 20
0.894878
 30
0.0
 10
3.620378
 20
1.022765
 30
0.0
 10
3.301086
 20
1.342079
 30
0.0
 10
3.297592
 20
1.346094
 30
0.0
 10
3.296897
 20
1.347265
 30
0.0
 10
3.296419
 20
1.348242
 30
0.0
 10
3.295855
 20
1.349653
 30
0.0
 10
3.295291
 20
1.350781
 30
0.0
 10
3.294705
 20
1.352192
 30
0.0
 10
3.294249
 20
1.353146
 30
0.0
 10
3.293967
 20
1.354557
 30
0.0
 10
3.293403
 20
1.355685
 30
0.0
 10
3.293143
 20
1.356987
 30
0.0
 10
3.292578
 20
1.358398
 30
0.0
 10
3.292318
 20
1.359678
 30
0.0
 10
3.291993
 20
1.361002
 30
0.0
 10
3.291451
 20
1.362348
 30
0.0
 10
3.291191
 20
1.363563
 30
0.0
 10
3.290908
 20
1.364974
 30
0.0
 10
3.290669
 20
1.366167
 30
0.0
 10
3.290669
 20
1.367296
 30
0.0
 10
3.290344
 20
1.368923
 30
0.0
 10
3.290105
 20
1.370117
 30
0.0
 10
3.290105
 20
1.371527
 30
0.0
 10
3.289823
 20
1.372938
 30
0.0
 10
3.289823
 20
1.374132
 30
0.0
 10
3.289823
 20
1.375542
 30
0.0
 10
3.289823
 20
1.376953
 30
0.0
 10
3.289823
 20
1.378363
 30
0.0
 10
3.289823
 20
1.379492
 30
0.0
 10
3.289823
 20
1.380902
 30
0.0
 10
3.289823
 20
1.382096
 30
0.0
 10
3.290105
 20
1.383506
 30
0.0
 10
3.290105
 20
1.385156
 30
0.0
 10
3.290105
 20
1.386328
 30
0.0
 10
3.290322
 20
1.387413
 30
0.0
 10
3.306381
 20
1.438129
 30
0.0
 10
3.321355
 20
1.489540
 30
0.0
 10
3.335482
 20
1.541797
 30
0.0
 10
3.348481
 20
1.594336
 30
0.0
 10
3.360330
 20
1.647135
 30
0.0
 10
3.371355
 20
1.700521
 30
0.0
 10
3.381229
 20
1.754470
 30
0.0
 10
3.389996
 20
1.808420
 30
0.0
 10
3.397895
 20
1.862934
 30
0.0
 10
3.404688
 20
1.917730
 30
0.0
 10
3.410330
 20
1.972526
 30
0.0
 10
3.415126
 20
2.027582
 30
0.0
 10
3.419076
 20
2.082943
 30
0.0
 10
3.421615
 20
2.138303
 30
0.0
 10
3.423329
 20
2.193945
 30
0.0
 10
3.423894
 20
2.249588
 30
0.0
 10
3.423612
 20
2.304948
 30
0.0
 10
3.422201
 20
2.360590
 30
0.0
 10
3.419922
 20
2.415929
 30
0.0
 10
3.416537
 20
2.471289
 30
0.0
 10
3.412023
 20
2.526649
 30
0.0
 10
3.406381
 20
2.581445
 30
0.0
 10
3.399870
 20
2.636523
 30
0.0
 10
3.392253
 20
2.691037
 30
0.0
 10
3.383790
 20
2.745269
 30
0.0
 10
3.374176
 20
2.799219
 30
0.0
 10
3.363434
 20
2.852604
 30
0.0
 10
3.351867
 20
2.905686
 30
0.0
 10
3.339150
 20
2.958507
 30
0.0
 10
3.325586
 20
3.010764
 30
0.0
 10
3.310895
 20
3.062457
 30
0.0
 10
3.295183
 20
3.113238
 30
0.0
 10
3.295183
 20
3.168229
 30
0.0
 10
3.295183
 20
3.412370
 30
0.0
 10
3.417709
 20
3.289822
 30
0.0
 10
3.545595
 20
3.417708
 30
0.0
 10
3.419271
 20
3.544032
 30
0.0
 10
3.295183
 20
3.667839
 30
0.0
 10
3.295183
 20
3.911046
 30
0.0
 10
3.416146
 20
3.790082
 30
0.0
 10
3.540886
 20
3.665343
 30
0.0
 10
3.666906
 20
3.539323
 30
0.0
 10
3.794792
 20
3.666905
 30
0.0
 10
3.668490
 20
3.793229
 30
0.0
 10
3.547830
 20
3.914171
 30
0.0
 10
3.790734
 20
3.914171
 30
0.0
 10
3.914823
 20
3.790082
 30
0.0
 10
3.917969
 20
3.793229
 30
0.0
 10
3.792579
 20
3.918620
 30
0.0
 10
3.537088
 20
3.918620
 30
0.0
 10
3.665343
 20
3.790082
 30
0.0
 10
3.788499
 20
3.666927
 30
0.0
 10
3.666906
 20
3.545595
 30
0.0
 10
3.544033
 20
3.668490
 30
0.0
 10
3.419293
 20
3.793229
 30
0.0
 10
3.290756
 20
3.921766
 30
0.0
 10
3.290755
 20
3.921766
 30
0.0
  0
LWPOLYLINE
  5
11d
100
AcDbEntity
  8
Pen_#_1
 62
7
100
AcDbPolyline
 90
132
 70
1
 10
3.916927
 20
3.791992
 30
0.0
 10
3.913607
 20
3.789063
 30
0.0
 10
3.988346
 20
3.704427
 30
0.0
 10
4.057986
 20
3.616753
 30
0.0
 10
4.122569
 20
3.526801
 30
0.0
 10
4.182335
 20
3.434614
 30
0.0
 10
4.237023
 20
3.340169
 30
0.0
 10
4.286936
 20
3.243728
 30
0.0
 10
4.331771
 20
3.145616
 30
0.0
 10
4.371506
 20
3.045812
 30
0.0
 10
4.406467
 20
2.944596
 30
0.0
 10
4.436372
 20
2.842535
 30
0.0
 10
4.461458
 20
2.739063
 30
0.0
 10
4.481749
 20
2.635026
 30
0.0
 10
4.496701
 20
2.530143
 30
0.0
 10
4.507140
 20
2.424696
 30
0.0
 10
4.512478
 20
2.319249
 30
0.0
 10
4.512761
 20
2.213520
 30
0.0
 10
4.508268
 20
2.108073
 30
0.0
 10
4.498676
 20
2.002908
 30
0.0
 10
4.484570
 20
1.898025
 30
0.0
 10
4.465126
 20
1.793967
 30
0.0
 10
4.441146
 20
1.690495
 30
0.0
 10
4.411827
 20
1.588151
 30
0.0
 10
4.377995
 20
1.487218
 30
0.0
 10
4.339084
 20
1.387413
 30
0.0
 10
4.295399
 20
1.289301
 30
0.0
 10
4.246897
 20
1.193164
 30
0.0
 10
4.193338
 20
1.098698
 30
0.0
 10
4.134961
 20
1.006510
 30
0.0
 10
4.071528
 20
0.916580
 30
0.0
 10
4.003581
 20
0.829167
 30
0.0
 10
3.930556
 20
0.744596
 30
0.0
 10
3.852452
 20
0.662826
 30
0.0
 10
3.770682
 20
0.584722
 30
0.0
 10
3.686111
 20
0.511697
 30
0.0
 10
3.598698
 20
0.443750
 30
0.0
 10
3.508767
 20
0.380317
 30
0.0
 10
3.416558
 20
0.321940
 30
0.0
 10
3.322114
 20
0.268381
 30
0.0
 10
3.225695
 20
0.219878
 30
0.0
 10
3.127865
 20
0.176172
 30
0.0
 10
3.028060
 20
0.137283
 30
0.0
 10
2.927105
 20
0.103451
 30
0.0
 10
2.824761
 20
0.074110
 30
0.0
 10
2.721289
 20
0.050152
 30
0.0
 10
2.617253
 20
0.030707
 30
0.0
 10
2.512370
 20
0.016602
 30
0.0
 10
2.407205
 20
0.007010
 30
0.0
 10
2.301758
 20
0.002496
 30
0.0
 10
2.196029
 20
0.002778
 30
0.0
 10
2.090582
 20
0.008138
 30
0.0
 10
1.985135
 20
0.018577
 30
0.0
 10
1.880252
 20
0.033529
 30
0.0
 10
1.776215
 20
0.053820
 30
0.0
 10
1.672743
 20
0.078906
 30
0.0
 10
1.570682
 20
0.108789
 30
0.0
 10
1.469466
 20
0.143750
 30
0.0
 10
1.369662
 20
0.183507
 30
0.0
 10
1.271528
 20
0.228342
 30
0.0
 10
1.175109
 20
0.278255
 30
0.0
 10
1.080664
 20
0.332943
 30
0.0
 10
0.988477
 20
0.392708
 30
0.0
 10
0.898524
 20
0.457270
 30
0.0
 10
0.810851
 20
0.526910
 30
0.0
 10
0.726215
 20
0.601671
 30
0.0
 10
0.723286
 20
0.598329
 30
0.0
 10
0.807986
 20
0.523503
 30
0.0
 10
0.895855
 20
0.453733
 30
0.0
 10
0.985959
 20
0.389041
 30
0.0
 10
1.078342
 20
0.329145
 30
0.0
 10
1.172982
 20
0.274349
 30
0.0
 10
1.269596
 20
0.224349
 30
0.0
 10
1.367904
 20
0.179427
 30
0.0
 10
1.467904
 20
0.139583
 30
0.0
 10
1.569336
 20
0.104557
 30
0.0
 10
1.671593
 20
0.074609
 30
0.0
 10
1.775261
 20
0.049479
 30
0.0
 10
1.879514
 20
0.029145
 30
0.0
 10
1.984592
 20
0.014171
 30
0.0
 10
2.090256
 20
0.003711
 30
0.0
 10
2.195920
 20
-0.001649
 30
0.0
 10
2.301845
 20
-0.001931
 30
0.0
 10
2.407509
 20
0.002582
 30
0.0
 10
2.512869
 20
0.012174
 30
0.0
 10
2.617969
 20
0.026302
 30
0.0
 10
2.722201
 20
0.045812
 30
0.0
 10
2.825890
 20
0.069813
 30
0.0
 10
2.928429
 20
0.099197
 30
0.0
 10
3.029557
 20
0.133095
 30
0.0
 10
3.129579
 20
0.172070
 30
0.0
 10
3.227604
 20
0.215864
 30
0.0
 10
3.324219
 20
0.264453
 30
0.0
 10
3.418859
 20
0.318142
 30
0.0
 10
3.511241
 20
0.376606
 30
0.0
 10
3.601346
 20
0.440169
 30
0.0
 10
3.688932
 20
0.508247
 30
0.0
 10
3.773676
 20
0.581424
 30
0.0
 10
3.855599
 20
0.659679
 30
0.0
 10
3.933854
 20
0.741602
 30
0.0
 10
4.007010
 20
0.826345
 30
0.0
 10
4.075109
 20
0.913932
 30
0.0
 10
4.138672
 20
1.004036
 30
0.0
 10
4.197136
 20
1.096419
 30
0.0
 10
4.250825
 20
1.191059
 30
0.0
 10
4.299414
 20
1.287391
 30
0.0
 10
4.343186
 20
1.385699
 30
0.0
 10
4.382183
 20
1.485699
 30
0.0
 10
4.416081
 20
1.586849
 30
0.0
 10
4.445465
 20
1.689388
 30
0.0
 10
4.469466
 20
1.793077
 30
0.0
 10
4.488954
 20
1.897309
 30
0.0
 10
4.503082
 20
2.002409
 30
0.0
 10
4.512695
 20
2.107769
 30
0.0
 10
4.517209
 20
2.213433
 30
0.0
 10
4.516927
 20
2.319358
 30
0.0
 10
4.511567
 20
2.425022
 30
0.0
 10
4.501107
 20
2.530664
 30
0.0
 10
4.486133
 20
2.635764
 30
0.0
 10
4.465799
 20
2.739996
 30
0.0
 10
4.440647
 20
2.843685
 30
0.0
 10
4.410720
 20
2.945942
 30
0.0
 10
4.375673
 20
3.047352
 30
0.0
 10
4.335851
 20
3.147374
 30
0.0
 10
4.290929
 20
3.245681
 30
0.0
 10
4.240929
 20
3.342296
 30
0.0
 10
4.186111
 20
3.436936
 30
0.0
 10
4.126237
 20
3.529319
 30
0.0
 10
4.061545
 20
3.619423
 30
0.0
 10
3.991753
 20
3.707292
 30
0.0
 10
3.916927
 20
3.791992
 30
0.0
 10
3.916927
 20
3.791992
 30
0.0
  0
LWPOLYLINE
  5
11e
100
AcDbEntity
  8
Pen_#_1
 62
7
100
AcDbPolyline
 90
10
 70
1
 10
0.898025
 20
1.025911
 30
0.0
 10
0.597309
 20
0.725195
 30
0.0
 10
0.600456
 20
0.722049
 30
0.0
 10
0.898047
 20
1.019618
 30
0.0
 10
1.019618
 20
0.898047
 30
0.0
 10
0.722049
 20
0.600456
 30
0.0
 10
0.725195
 20
0.597309
 30
0.0
 10
1.025911
 20
0.898025
 30
0.0
 10
0.898025
 20
1.025911
 30
0.0
 10
0.898025
 20
1.025911
 30
0.0
  0
LWPOLYLINE
  5
11f
100
AcDbEntity
  8
Pen_#_1
 62
7
100
AcDbPolyline
 90
36
 70
1
 10
0.002214
 20
2.257552
 30
0.0
 10
-0.002214
 20
2.257443
 30
0.0
 10
0.000043
 20
2.154383
 30
0.0
 10
0.007096
 20
2.051280
 30
0.0
 10
0.018685
 20
1.948719
 30
0.0
 10
0.035069
 20
1.846462
 30
0.0
 10
0.056250
 20
1.745030
 30
0.0
 10
0.082248
 20
1.644184
 30
0.0
 10
0.112760
 20
1.544748
 30
0.0
 10
0.147786
 20
1.446441
 30
0.0
 10
0.187609
 20
1.349262
 30
0.0
 10
0.232248
 20
1.253776
 30
0.0
 10
0.281684
 20
1.159982
 30
0.0
 10
0.335655
 20
1.068164
 30
0.0
 10
0.394119
 20
0.978342
 30
0.0
 10
0.457682
 20
0.890755
 30
0.0
 10
0.525781
 20
0.805729
 30
0.0
 10
0.598329
 20
0.723285
 30
0.0
 10
0.601671
 20
0.726215
 30
0.0
 10
0.529167
 20
0.808593
 30
0.0
 10
0.461220
 20
0.893446
 30
0.0
 10
0.397786
 20
0.980859
 30
0.0
 10
0.339431
 20
1.070507
 30
0.0
 10
0.285569
 20
1.162152
 30
0.0
 10
0.236241
 20
1.255751
 30
0.0
 10
0.191688
 20
1.351041
 30
0.0
 10
0.151931
 20
1.448025
 30
0.0
 10
0.116970
 20
1.546159
 30
0.0
 10
0.086523
 20
1.645399
 30
0.0
 10
0.060590
 20
1.746050
 30
0.0
 10
0.039431
 20
1.847265
 30
0.0
 10
0.023090
 20
1.949327
 30
0.0
 10
0.011523
 20
2.051671
 30
0.0
 10
0.004470
 20
2.154579
 30
0.0
 10
0.002214
 20
2.257552
 30
0.0
 10
0.002214
 20
2.257552
 30
0.0
  0
LWPOLYLINE
  5
120
100
AcDbEntity
  8
Pen_#_1
 62
7
100
AcDbPolyline
 90
36
 70
1
 10
0.598329
 20
3.791992
 30
0.0
 10
0.525781
 20
3.709549
 30
0.0
 10
0.457682
 20
3.624523
 30
0.0
 10
0.394119
 20
3.536936
 30
0.0
 10
0.335655
 20
3.447114
 30
0.0
 10
0.281684
 20
3.355295
 30
0.0
 10
0.232248
 20
3.261502
 30
0.0
 10
0.187609
 20
3.166016
 30
0.0
 10
0.147786
 20
3.068837
 30
0.0
 10
0.112760
 20
2.970530
 30
0.0
 10
0.082248
 20
2.871094
 30
0.0
 10
0.056250
 20
2.770226
 30
0.0
 10
0.035069
 20
2.668815
 30
0.0
 10
0.018685
 20
2.566558
 30
0.0
 10
0.007096
 20
2.463997
 30
0.0
 10
0.000043
 20
2.360894
 30
0.0
 10
-0.002214
 20
2.257834
 30
0.0
 10
0.002214
 20
2.257725
 30
0.0
 10
0.004470
 20
2.360698
 30
0.0
 10
0.011523
 20
2.463606
 30
0.0
 10
0.023090
 20
2.565950
 30
0.0
 10
0.039431
 20
2.668012
 30
0.0
 10
0.060590
 20
2.769227
 30
0.0
 10
0.086523
 20
2.869878
 30
0.0
 10
0.116970
 20
2.969119
 30
0.0
 10
0.151931
 20
3.067252
 30
0.0
 10
0.191688
 20
3.164236
 30
0.0
 10
0.236241
 20
3.259527
 30
0.0
 10
0.285569
 20
3.353125
 30
0.0
 10
0.339431
 20
3.444770
 30
0.0
 10
0.397786
 20
3.534418
 30
0.0
 10
0.461220
 20
3.621831
 30
0.0
 10
0.529167
 20
3.706684
 30
0.0
 10
0.601671
 20
3.789062
 30
0.0
 10
0.598329
 20
3.791992
 30
0.0
 10
0.598329
 20
3.791992
 30
0.0
  0
LWPOLYLINE
  5
121
100
AcDbEntity
  8
Pen_#_1
 62
7
100
AcDbPolyline
 90
32
 70
1
 10
0.971897
 20
3.918620
 30
0.0
 10
0.846788
 20
3.793229
 30
0.0
 10
0.723611
 20
3.670052
 30
0.0
 10
0.600456
 20
3.793229
 30
0.0
 10
0.597309
 20
3.790082
 30
0.0
 10
0.723611
 20
3.663780
 30
0.0
 10
0.849935
 20
3.790082
 30
0.0
 10
0.973741
 20
3.914171
 30
0.0
 10
1.216927
 20
3.914171
 30
0.0
 10
1.095985
 20
3.793229
 30
0.0
 10
0.971246
 20
3.668490
 30
0.0
 10
0.845226
 20
3.542448
 30
0.0
 10
0.972808
 20
3.414562
 30
0.0
 10
1.099132
 20
3.540885
 30
0.0
 10
1.220074
 20
3.661545
 30
0.0
 10
1.220074
 20
3.418641
 30
0.0
 10
1.094423
 20
3.292969
 30
0.0
 10
1.220725
 20
3.166645
 30
0.0
 10
1.234288
 20
3.153103
 30
0.0
 10
1.237413
 20
3.156250
 30
0.0
 10
1.223872
 20
3.169792
 30
0.0
 10
1.100694
 20
3.292969
 30
0.0
 10
1.224523
 20
3.416797
 30
0.0
 10
1.224523
 20
3.672266
 30
0.0
 10
1.095985
 20
3.544032
 30
0.0
 10
0.972808
 20
3.420855
 30
0.0
 10
0.851497
 20
3.542448
 30
0.0
 10
0.974392
 20
3.665343
 30
0.0
 10
1.099132
 20
3.790082
 30
0.0
 10
1.227669
 20
3.918620
 30
0.0
 10
0.971897
 20
3.918620
 30
0.0
 10
0.971897
 20
3.918620
 30
0.0
  0
LWPOLYLINE
  5
122
100
AcDbEntity
  8
Pen_#
 62
7
100
AcDbPolyline
 90
392
 70
1
 10
1.237131
 20
3.163845
 30
0.0
 10
1.219900
 20
3.111892
 30
0.0
 10
1.203516
 20
3.059353
 30
0.0
 10
1.188542
 20
3.005968
 30
0.0
 10
1.174436
 20
2.952018
 30
0.0
 10
1.161437
 20
2.897786
 30
0.0
 10
1.149566
 20
2.842990
 30
0.0
 10
1.138845
 20
2.787630
 30
0.0
 10
1.129232
 20
2.731988
 30
0.0
 10
1.120768
 20
2.676063
 30
0.0
 10
1.113129
 20
2.619857
 30
0.0
 10
1.106923
 20
2.563086
 30
0.0
 10
1.101562
 20
2.506315
 30
0.0
 10
1.097331
 20
2.449262
 30
0.0
 10
1.094206
 20
2.392209
 30
0.0
 10
1.092231
 20
2.334874
 30
0.0
 10
1.091385
 20
2.277539
 30
0.0
 10
1.091385
 20
2.220508
 30
0.0
 10
1.092795
 20
2.163173
 30
0.0
 10
1.095052
 20
2.105838
 30
0.0
 10
1.098459
 20
2.048785
 30
0.0
 10
1.102973
 20
1.991732
 30
0.0
 10
1.108615
 20
1.934961
 30
0.0
 10
1.115386
 20
1.878472
 30
0.0
 10
1.123307
 20
1.821984
 30
0.0
 10
1.132053
 20
1.766059
 30
0.0
 10
1.142231
 20
1.710417
 30
0.0
 10
1.153234
 20
1.655339
 30
0.0
 10
1.165386
 20
1.600543
 30
0.0
 10
1.178668
 20
1.546311
 30
0.0
 10
1.193077
 20
1.492361
 30
0.0
 10
1.208615
 20
1.439258
 30
0.0
 10
1.225326
 20
1.386285
 30
0.0
 10
1.225437
 20
1.386025
 30
0.0
 10
1.225437
 20
1.385351
 30
0.0
 10
1.225892
 20
1.384006
 30
0.0
 10
1.226174
 20
1.383441
 30
0.0
 10
1.226286
 20
1.383095
 30
0.0
 10
1.226286
 20
1.382248
 30
0.0
 10
1.226741
 20
1.380903
 30
0.0
 10
1.226871
 20
1.380664
 30
0.0
 10
1.226871
 20
1.379990
 30
0.0
 10
1.227153
 20
1.379144
 30
0.0
 10
1.227153
 20
1.378645
 30
0.0
 10
1.227153
 20
1.377278
 30
0.0
 10
1.227436
 20
1.376713
 30
0.0
 10
1.227436
 20
1.376388
 30
0.0
 10
1.227436
 20
1.375541
 30
0.0
 10
1.227436
 20
1.374694
 30
0.0
 10
1.227436
 20
1.373848
 30
0.0
 10
1.227436
 20
1.373283
 30
0.0
 10
1.227436
 20
1.372437
 30
0.0
 10
1.227436
 20
1.371590
 30
0.0
 10
1.227436
 20
1.370743
 30
0.0
 10
1.227436
 20
1.369897
 30
0.0
 10
1.227436
 20
1.369050
 30
0.0
 10
1.227436
 20
1.368854
 30
0.0
 10
1.227153
 20
1.368008
 30
0.0
 10
1.227153
 20
1.366793
 30
0.0
 10
1.227153
 20
1.366315
 30
0.0
 10
1.226871
 20
1.365468
 30
0.0
 10
1.226871
 20
1.364904
 30
0.0
 10
1.226698
 20
1.364405
 30
0.0
 10
1.226286
 20
1.363211
 30
0.0
 10
1.226286
 20
1.362517
 30
0.0
 10
1.226026
 20
1.361996
 30
0.0
 10
1.225331
 20
1.360932
 30
0.0
 10
1.224962
 20
1.359435
 30
0.0
 10
1.224723
 20
1.358545
 30
0.0
 10
1.224138
 20
1.357373
 30
0.0
 10
1.223812
 20
1.355724
 30
0.0
 10
1.223466
 20
1.354378
 30
0.0
 10
1.223466
 20
1.353250
 30
0.0
 10
1.223249
 20
1.352382
 30
0.0
 10
1.222902
 20
1.350993
 30
0.0
 10
1.222902
 20
1.349582
 30
0.0
 10
1.222902
 20
1.348454
 30
0.0
 10
1.222902
 20
1.347326
 30
0.0
 10
1.222902
 20
1.345915
 30
0.0
 10
1.222902
 20
1.344786
 30
0.0
 10
1.222902
 20
1.343376
 30
0.0
 10
1.223184
 20
1.342247
 30
0.0
 10
1.223184
 20
1.341119
 30
0.0
 10
1.223553
 20
1.339730
 30
0.0
 10
1.223836
 20
1.338602
 30
0.0
 10
1.224118
 20
1.337473
 30
0.0
 10
1.224400
 20
1.336345
 30
0.0
 10
1.224726
 20
1.334977
 30
0.0
 10
1.225290
 20
1.333849
 30
0.0
 10
1.225572
 20
1.332720
 30
0.0
 10
1.226244
 20
1.331375
 30
0.0
 10
1.226873
 20
1.330116
 30
0.0
 10
1.227438
 20
1.329270
 30
0.0
 10
1.227937
 20
1.328271
 30
0.0
 10
1.228566
 20
1.327012
 30
0.0
 10
1.229238
 20
1.325992
 30
0.0
 10
1.230214
 20
1.324712
 30
0.0
 10
1.297944
 20
1.255571
 30
0.0
 10
1.298812
 20
1.254421
 30
0.0
 10
1.299507
 20
1.253727
 30
0.0
 10
1.300006
 20
1.252729
 30
0.0
 10
1.300960
 20
1.251448
 30
0.0
 10
1.301698
 20
1.250472
 30
0.0
 10
1.302176
 20
1.249517
 30
0.0
 10
1.302740
 20
1.248389
 30
0.0
 10
1.303304
 20
1.247260
 30
0.0
 10
1.303869
 20
1.246132
 30
0.0
 10
1.304324
 20
1.245221
 30
0.0
 10
1.304607
 20
1.244092
 30
0.0
 10
1.305149
 20
1.243029
 30
0.0
 10
1.305366
 20
1.241857
 30
0.0
 10
1.305669
 20
1.240664
 30
0.0
 10
1.305929
 20
1.239600
 30
0.0
 10
1.306168
 20
1.238450
 30
0.0
 10
1.306168
 20
1.237322
 30
0.0
 10
1.306450
 20
1.235911
 30
0.0
 10
1.306450
 20
1.235000
 30
0.0
 10
1.306450
 20
1.233871
 30
0.0
 10
1.306450
 20
1.232461
 30
0.0
 10
1.306450
 20
1.231332
 30
0.0
 10
1.306450
 20
1.230204
 30
0.0
 10
1.306168
 20
1.229075
 30
0.0
 10
1.306168
 20
1.227643
 30
0.0
 10
1.305929
 20
1.226732
 30
0.0
 10
1.305647
 20
1.225321
 30
0.0
 10
1.305430
 20
1.224388
 30
0.0
 10
1.304866
 20
1.222978
 30
0.0
 10
1.304606
 20
1.221958
 30
0.0
 10
1.303998
 20
1.220764
 30
0.0
 10
1.303759
 20
1.219505
 30
0.0
 10
1.303433
 20
1.219028
 30
0.0
 10
1.302869
 20
1.218160
 30
0.0
 10
1.302218
 20
1.217205
 30
0.0
 10
1.301523
 20
1.215816
 30
0.0
 10
1.301177
 20
1.214731
 30
0.0
 10
1.300960
 20
1.213906
 30
0.0
 10
1.300396
 20
1.213060
 30
0.0
 10
1.300049
 20
1.211628
 30
0.0
 10
1.299767
 20
1.210781
 30
0.0
 10
1.299463
 20
1.209566
 30
0.0
 10
1.299203
 20
1.208525
 30
0.0
 10
1.298834
 20
1.207418
 30
0.0
 10
1.298834
 20
1.206203
 30
0.0
 10
1.298552
 20
1.205074
 30
0.0
 10
1.298552
 20
1.203946
 30
0.0
 10
1.298552
 20
1.203099
 30
0.0
 10
1.298270
 20
1.201970
 30
0.0
 10
1.298270
 20
1.200842
 30
0.0
 10
1.298270
 20
1.199714
 30
0.0
 10
1.298270
 20
1.198325
 30
0.0
 10
1.298552
 20
1.197196
 30
0.0
 10
1.298552
 20
1.196611
 30
0.0
 10
1.298552
 20
1.195222
 30
0.0
 10
1.298921
 20
1.193746
 30
0.0
 10
1.299203
 20
1.192899
 30
0.0
 10
1.299399
 20
1.192118
 30
0.0
 10
1.299399
 20
1.190903
 30
0.0
 10
1.299833
 20
1.189558
 30
0.0
 10
1.300398
 20
1.188429
 30
0.0
 10
1.300614
 20
1.187821
 30
0.0
 10
1.300940
 20
1.186519
 30
0.0
 10
1.301569
 20
1.185239
 30
0.0
 10
1.304672
 20
1.178229
 30
0.0
 10
1.315393
 20
1.154206
 30
0.0
 10
1.326417
 20
1.130204
 30
0.0
 10
1.337723
 20
1.106463
 30
0.0
 10
1.349312
 20
1.083286
 30
0.0
 10
1.360879
 20
1.060412
 30
0.0
 10
1.373032
 20
1.037517
 30
0.0
 10
1.385184
 20
1.015208
 30
0.0
 10
1.397619
 20
0.993160
 30
0.0
 10
1.410054
 20
0.971415
 30
0.0
 10
1.422771
 20
0.950213
 30
0.0
 10
1.435770
 20
0.929010
 30
0.0
 10
1.449052
 20
0.908394
 30
0.0
 10
1.462333
 20
0.888038
 30
0.0
 10
1.475896
 20
0.867964
 30
0.0
 10
1.489742
 20
0.848477
 30
0.0
 10
1.503869
 20
0.828967
 30
0.0
 10
1.518019
 20
0.810043
 30
0.0
 10
1.532428
 20
0.791662
 30
0.0
 10
1.546838
 20
0.773303
 30
0.0
 10
1.561530
 20
0.755486
 30
0.0
 10
1.576526
 20
0.737951
 30
0.0
 10
1.591500
 20
0.721003
 30
0.0
 10
1.606756
 20
0.704032
 30
0.0
 10
1.622315
 20
0.687930
 30
0.0
 10
1.637854
 20
0.671827
 30
0.0
 10
1.653414
 20
0.656267
 30
0.0
 10
1.669516
 20
0.640990
 30
0.0
 10
1.685358
 20
0.626298
 30
0.0
 10
1.701764
 20
0.611866
 30
0.0
 10
1.718171
 20
0.598021
 30
0.0
 10
1.734555
 20
0.584436
 30
0.0
 10
1.751222
 20
0.571176
 30
0.0
 10
1.754000
 20
0.574648
 30
0.0
 10
1.737355
 20
0.587886
 30
0.0
 10
1.721013
 20
0.601428
 30
0.0
 10
1.704672
 20
0.615230
 30
0.0
 10
1.688331
 20
0.629596
 30
0.0
 10
1.672554
 20
0.644245
 30
0.0
 10
1.656517
 20
0.659457
 30
0.0
 10
1.641022
 20
0.674931
 30
0.0
 10
1.625506
 20
0.691011
 30
0.0
 10
1.610011
 20
0.707070
 30
0.0
 10
1.594820
 20
0.723954
 30
0.0
 10
1.579868
 20
0.740881
 30
0.0
 10
1.564937
 20
0.758351
 30
0.0
 10
1.550289
 20
0.776081
 30
0.0
 10
1.535922
 20
0.794418
 30
0.0
 10
1.521534
 20
0.812734
 30
0.0
 10
1.507450
 20
0.831615
 30
0.0
 10
1.493366
 20
0.851059
 30
0.0
 10
1.479542
 20
0.870503
 30
0.0
 10
1.466022
 20
0.890512
 30
0.0
 10
1.452784
 20
0.910803
 30
0.0
 10
1.439525
 20
0.931376
 30
0.0
 10
1.426569
 20
0.952513
 30
0.0
 10
1.413874
 20
0.973650
 30
0.0
 10
1.401482
 20
0.995352
 30
0.0
 10
1.389069
 20
1.017357
 30
0.0
 10
1.376960
 20
1.039622
 30
0.0
 10
1.364828
 20
1.062452
 30
0.0
 10
1.353262
 20
1.085282
 30
0.0
 10
1.341717
 20
1.108416
 30
0.0
 10
1.330432
 20
1.132092
 30
0.0
 10
1.319451
 20
1.156050
 30
0.0
 10
1.308730
 20
1.180030
 30
0.0
 10
1.305605
 20
1.187127
 30
0.0
 10
1.305128
 20
1.188081
 30
0.0
 10
1.304889
 20
1.189058
 30
0.0
 10
1.304520
 20
1.190143
 30
0.0
 10
1.303955
 20
1.191272
 30
0.0
 10
1.303844
 20
1.191619
 30
0.0
 10
1.303844
 20
1.192660
 30
0.0
 10
1.303475
 20
1.194135
 30
0.0
 10
1.303193
 20
1.194982
 30
0.0
 10
1.302998
 20
1.195763
 30
0.0
 10
1.302998
 20
1.196610
 30
0.0
 10
1.302998
 20
1.197738
 30
0.0
 10
1.302715
 20
1.198867
 30
0.0
 10
1.302715
 20
1.199714
 30
0.0
 10
1.302715
 20
1.200842
 30
0.0
 10
1.302715
 20
1.201428
 30
0.0
 10
1.302998
 20
1.202556
 30
0.0
 10
1.302998
 20
1.203945
 30
0.0
 10
1.302998
 20
1.204530
 30
0.0
 10
1.303280
 20
1.205659
 30
0.0
 10
1.303280
 20
1.206700
 30
0.0
 10
1.303475
 20
1.207286
 30
0.0
 10
1.303758
 20
1.208501
 30
0.0
 10
1.304040
 20
1.209543
 30
0.0
 10
1.304322
 20
1.210390
 30
0.0
 10
1.304518
 20
1.211236
 30
0.0
 10
1.305082
 20
1.212083
 30
0.0
 10
1.305451
 20
1.213494
 30
0.0
 10
1.305647
 20
1.214101
 30
0.0
 10
1.306081
 20
1.214969
 30
0.0
 10
1.306559
 20
1.215707
 30
0.0
 10
1.307123
 20
1.216554
 30
0.0
 10
1.307948
 20
1.217769
 30
0.0
 10
1.308251
 20
1.219310
 30
0.0
 10
1.308793
 20
1.220395
 30
0.0
 10
1.309097
 20
1.221611
 30
0.0
 10
1.309661
 20
1.223021
 30
0.0
 10
1.309987
 20
1.224345
 30
0.0
 10
1.310269
 20
1.225756
 30
0.0
 10
1.310615
 20
1.227101
 30
0.0
 10
1.310615
 20
1.228512
 30
0.0
 10
1.310898
 20
1.229640
 30
0.0
 10
1.310898
 20
1.231333
 30
0.0
 10
1.310898
 20
1.232461
 30
0.0
 10
1.310898
 20
1.233872
 30
0.0
 10
1.310898
 20
1.235000
 30
0.0
 10
1.310898
 20
1.236346
 30
0.0
 10
1.310615
 20
1.237756
 30
0.0
 10
1.310615
 20
1.238885
 30
0.0
 10
1.310269
 20
1.240578
 30
0.0
 10
1.309987
 20
1.241749
 30
0.0
 10
1.309704
 20
1.242835
 30
0.0
 10
1.309379
 20
1.244484
 30
0.0
 10
1.308793
 20
1.245656
 30
0.0
 10
1.308511
 20
1.246785
 30
0.0
 10
1.307839
 20
1.248130
 30
0.0
 10
1.307274
 20
1.249259
 30
0.0
 10
1.306710
 20
1.250387
 30
0.0
 10
1.306145
 20
1.251516
 30
0.0
 10
1.305494
 20
1.252818
 30
0.0
 10
1.304518
 20
1.254120
 30
0.0
 10
1.303802
 20
1.255074
 30
0.0
 10
1.303151
 20
1.256355
 30
0.0
 10
1.302174
 20
1.257352
 30
0.0
 10
1.301328
 20
1.258459
 30
0.0
 10
1.233598
 20
1.327600
 30
0.0
 10
1.232881
 20
1.328576
 30
0.0
 10
1.232425
 20
1.329249
 30
0.0
 10
1.231927
 20
1.330246
 30
0.0
 10
1.231298
 20
1.331505
 30
0.0
 10
1.230733
 20
1.332352
 30
0.0
 10
1.230212
 20
1.333349
 30
0.0
 10
1.229757
 20
1.334261
 30
0.0
 10
1.229474
 20
1.335389
 30
0.0
 10
1.228910
 20
1.336518
 30
0.0
 10
1.228693
 20
1.337429
 30
0.0
 10
1.228411
 20
1.338557
 30
0.0
 10
1.228129
 20
1.339686
 30
0.0
 10
1.227847
 20
1.340814
 30
0.0
 10
1.227630
 20
1.341661
 30
0.0
 10
1.227630
 20
1.342789
 30
0.0
 10
1.227348
 20
1.343918
 30
0.0
 10
1.227348
 20
1.344785
 30
0.0
 10
1.227348
 20
1.345914
 30
0.0
 10
1.227348
 20
1.347325
 30
0.0
 10
1.227348
 20
1.348453
 30
0.0
 10
1.227348
 20
1.349581
 30
0.0
 10
1.227348
 20
1.350428
 30
0.0
 10
1.227564
 20
1.351296
 30
0.0
 10
1.227911
 20
1.352685
 30
0.0
 10
1.227911
 20
1.353813
 30
0.0
 10
1.228150
 20
1.354747
 30
0.0
 10
1.228389
 20
1.355918
 30
0.0
 10
1.228910
 20
1.356982
 30
0.0
 10
1.229257
 20
1.358349
 30
0.0
 10
1.229452
 20
1.359109
 30
0.0
 10
1.229887
 20
1.359760
 30
0.0
 10
1.230733
 20
1.361474
 30
0.0
 10
1.230733
 20
1.362494
 30
0.0
 10
1.230907
 20
1.362993
 30
0.0
 10
1.231298
 20
1.364187
 30
0.0
 10
1.231298
 20
1.364751
 30
0.0
 10
1.231580
 20
1.365598
 30
0.0
 10
1.231580
 20
1.366791
 30
0.0
 10
1.231580
 20
1.367290
 30
0.0
 10
1.231862
 20
1.368137
 30
0.0
 10
1.231862
 20
1.369048
 30
0.0
 10
1.231862
 20
1.369895
 30
0.0
 10
1.231862
 20
1.370741
 30
0.0
 10
1.231862
 20
1.371588
 30
0.0
 10
1.231862
 20
1.372435
 30
0.0
 10
1.231862
 20
1.373281
 30
0.0
 10
1.231862
 20
1.373846
 30
0.0
 10
1.231862
 20
1.374693
 30
0.0
 10
1.231862
 20
1.375539
 30
0.0
 10
1.231862
 20
1.376386
 30
0.0
 10
1.231862
 20
1.377775
 30
0.0
 10
1.231580
 20
1.378339
 30
0.0
 10
1.231580
 20
1.378643
 30
0.0
 10
1.231580
 20
1.379858
 30
0.0
 10
1.231298
 20
1.380705
 30
0.0
 10
1.231298
 20
1.381725
 30
0.0
 10
1.230863
 20
1.382615
 30
0.0
 10
1.230733
 20
1.382961
 30
0.0
 10
1.230733
 20
1.383808
 30
0.0
 10
1.230299
 20
1.385153
 30
0.0
 10
1.230017
 20
1.385718
 30
0.0
 10
1.229887
 20
1.386064
 30
0.0
 10
1.229887
 20
1.387084
 30
0.0
 10
1.229452
 20
1.387952
 30
0.0
 10
1.212872
 20
1.440535
 30
0.0
 10
1.197356
 20
1.493551
 30
0.0
 10
1.182968
 20
1.547414
 30
0.0
 10
1.169730
 20
1.601537
 30
0.0
 10
1.157599
 20
1.656246
 30
0.0
 10
1.146596
 20
1.711238
 30
0.0
 10
1.136440
 20
1.766793
 30
0.0
 10
1.127694
 20
1.822631
 30
0.0
 10
1.119817
 20
1.879033
 30
0.0
 10
1.113046
 20
1.935435
 30
0.0
 10
1.107404
 20
1.992119
 30
0.0
 10
1.102890
 20
2.049085
 30
0.0
 10
1.099504
 20
2.106051
 30
0.0
 10
1.097247
 20
2.163299
 30
0.0
 10
1.095837
 20
2.220548
 30
0.0
 10
1.095837
 20
2.277514
 30
0.0
 10
1.096683
 20
2.334762
 30
0.0
 10
1.098658
 20
2.392010
 30
0.0
 10
1.101761
 20
2.448976
 30
0.0
 10
1.105993
 20
2.505943
 30
0.0
 10
1.111353
 20
2.562627
 30
0.0
 10
1.117560
 20
2.619311
 30
0.0
 10
1.125155
 20
2.675430
 30
0.0
 10
1.133619
 20
2.731268
 30
0.0
 10
1.143211
 20
2.786824
 30
0.0
 10
1.153931
 20
2.842097
 30
0.0
 10
1.165780
 20
2.896806
 30
0.0
 10
1.178736
 20
2.950930
 30
0.0
 10
1.192842
 20
3.004792
 30
0.0
 10
1.207794
 20
3.058091
 30
0.0
 10
1.224135
 20
3.110543
 30
0.0
 10
1.241344
 20
3.162453
 30
0.0
 10
1.237134
 20
3.163842
 30
0.0
 10
1.237131
 20
3.163845
 30
0.0
  0
ENDSEC
  0
SECTION
  2
OBJECTS
  0
DICTIONARY
  5
C
330
0
100
AcDbDictionary
  3
ACAD_GROUP
350
D
  3
ACAD_MLINESTYLE
350
17
  0
DICTIONARY
  5
D
330
C
100
AcDbDictionary
  0
DICTIONARY
  5
1A
330
C
100
AcDbDictionary
  0
DICTIONARY
  5
17
330
C
100
AcDbDictionary
  3
STANDARD
350
18
  0
DICTIONARY
  5
19
330
C
100
AcDbDictionary
  0
ENDSEC
  0
EOF
