<?xml version="1.0" standalone="no"?>
<!DOCTYPE svg PUBLIC "-//W3C//DTD SVG 1.1//EN" "http://www.w3.org/Graphics/SVG/1.1/DTD/svg11.dtd">
<svg width="16" height="16" viewBox="-8 -8 16 16" xmlns="http://www.w3.org/2000/svg" version="1.1">
<title>OpenSCAD Model</title>
<path d="
M -7.99238,-0 L -7.98168,0.426446 L -7.95039,0.75015 L -7.90656,1.20341 L -7.90029,1.24581 L -7.89582,1.27609
 L -7.85277,1.47081 L -7.71013,2.11603 L -7.64241,2.34436 L -7.52331,2.6829 L -7.43291,2.93986 L -7.34725,3.13804
 L -7.24405,3.37683 L -7.14544,3.57676 L -7.06428,3.74132 L -6.91506,3.99816 L -6.75348,4.2763 L -6.59861,4.5143
 L -6.20784,5.03603 L -6.02754,5.25292 L -5.8137,5.47931 L -5.63917,5.66408 L -5.33877,5.95157 L -5.1803,6.08592
 L -5.07164,6.17804 L -4.53429,6.58957 L -4.52103,6.59973 L -4.51815,6.60171 L -4.51346,6.60493 L -4.15976,6.82118
 L -3.98301,6.92925 L -3.4796,7.20324 L -3.47539,7.20553 L -3.47383,7.20628 L -3.4702,7.20801 L -2.98436,7.4148
 L -2.7401,7.50474 L -2.51775,7.58662 L -2.39856,7.62371 L -2.07078,7.72569 L -1.9506,7.75624 L -1.63747,7.82679
 L -1.31494,7.88332 L -1.21684,7.90051 L -1.09251,7.91607 L -0.805966,7.95195 L -0.645632,7.964 L -0.401426,7.98234
 L -0.224431,7.98677 L 0,7.99239 L 0.224431,7.98677 L 0.401426,7.98234 L 0.645632,7.964 L 0.805966,7.95195
 L 1.09251,7.91607 L 1.21684,7.90051 L 1.31494,7.88332 L 1.63747,7.82679 L 1.9506,7.75624 L 2.07078,7.72569
 L 2.39856,7.62371 L 2.51775,7.58662 L 2.7401,7.50474 L 2.98436,7.4148 L 3.4702,7.20801 L 3.47383,7.20628
 L 3.47539,7.20553 L 3.4796,7.20324 L 3.98301,6.92925 L 4.15976,6.82118 L 4.51346,6.60493 L 4.51815,6.60171
 L 4.52103,6.59973 L 4.53429,6.58957 L 5.07164,6.17804 L 5.1803,6.08592 L 5.33877,5.95157 L 5.41335,5.88019
 L 4.32003,4.78204 L 4.76303,4.34115 L 5.85385,5.4368 L 6.02754,5.25292 L 6.20784,5.03603 L 6.59861,4.5143
 L 6.75348,4.2763 L 6.91506,3.99816 L 7.06428,3.74132 L 7.14544,3.57676 L 7.24405,3.37683 L 7.34725,3.13804
 L 7.43291,2.93986 L 7.52331,2.6829 L 7.64241,2.34436 L 7.71013,2.11603 L 7.85277,1.47081 L 7.89582,1.27609
 L 7.90029,1.24581 L 7.90656,1.20341 L 7.95039,0.75015 L 7.98168,0.426446 L 7.99238,-0 L 7.98168,-0.426445
 L 7.95039,-0.750149 L 7.90656,-1.20341 L 7.90029,-1.24581 L 7.89582,-1.27609 L 7.85277,-1.47081 L 7.71013,-2.11603
 L 7.64241,-2.34436 L 7.52331,-2.6829 L 7.43291,-2.93986 L 7.34725,-3.13804 L 7.24405,-3.37683 L 7.14544,-3.57676
 L 7.06428,-3.74131 L 6.91506,-3.99816 L 6.75348,-4.2763 L 6.59861,-4.5143 L 6.20784,-5.03603 L 6.02754,-5.25292
 L 5.8137,-5.47931 L 5.63917,-5.66408 L 5.33877,-5.95157 L 5.1803,-6.08591 L 5.07164,-6.17804 L 4.53429,-6.58958
 L 4.52103,-6.59973 L 4.51815,-6.60171 L 4.51346,-6.60492 L 4.15976,-6.82118 L 3.98301,-6.92925 L 3.4796,-7.20324
 L 3.47539,-7.20553 L 3.47383,-7.20628 L 3.4702,-7.20801 L 2.98436,-7.4148 L 2.7401,-7.50474 L 2.51775,-7.58662
 L 2.39856,-7.62371 L 2.07078,-7.72569 L 1.9506,-7.75624 L 1.63747,-7.82679 L 1.31494,-7.88331 L 1.21684,-7.90051
 L 1.09251,-7.91607 L 0.805966,-7.95195 L 0.645632,-7.964 L 0.401426,-7.98234 L 0.224431,-7.98677 L 0,-7.99239
 L -0.224431,-7.98677 L -0.401426,-7.98234 L -0.645632,-7.964 L -0.805966,-7.95195 L -1.09251,-7.91607 L -1.21684,-7.90051
 L -1.31494,-7.88331 L -1.63747,-7.82679 L -1.9506,-7.75624 L -2.07078,-7.72569 L -2.39856,-7.62371 L -2.51775,-7.58662
 L -2.7401,-7.50474 L -2.98436,-7.4148 L -3.4702,-7.20801 L -3.47383,-7.20628 L -3.47539,-7.20553 L -3.4796,-7.20324
 L -3.98301,-6.92925 L -4.15976,-6.82118 L -4.51346,-6.60492 L -4.51815,-6.60171 L -4.52103,-6.59973 L -4.53429,-6.58958
 L -5.07164,-6.17804 L -5.1803,-6.08591 L -5.33877,-5.95157 L -5.41335,-5.88019 L -4.32003,-4.78204 L -4.76303,-4.34115
 L -5.85385,-5.4368 L -6.02754,-5.25292 L -6.20784,-5.03603 L -6.59861,-4.5143 L -6.75348,-4.2763 L -6.91506,-3.99816
 L -7.06428,-3.74131 L -7.14544,-3.57676 L -7.24405,-3.37683 L -7.34725,-3.13804 L -7.43291,-2.93986 L -7.52331,-2.6829
 L -7.64241,-2.34436 L -7.71013,-2.11603 L -7.85277,-1.47081 L -7.89582,-1.27609 L -7.90029,-1.24581 L -7.90656,-1.20341
 L -7.95039,-0.750149 L -7.98168,-0.426445 z
M -7.1875,-0 L -7.05794,-0.178323 L -6.84831,-0.110209 L -6.84831,0.110209 L -7.05794,0.178323 z
M -6.22456,3.59375 L -6.20152,3.37454 L -5.98591,3.32871 L -5.8757,3.5196 L -6.02319,3.6834 z
M -6.22456,-3.59375 L -6.02319,-3.6834 L -5.8757,-3.5196 L -5.98591,-3.32871 L -6.20152,-3.37454 z
M -4.76303,4.34115 L -4.74614,4.32419 L -4.66033,4.238 L -4.28389,3.8599 L -3.56353,3.13635 L -3.63386,2.90851
 L -3.81177,2.10958 L -3.93189,1.27868 L -3.99241,0.428391 L -3.99241,-0.428391 L -3.93189,-1.27868 L -3.81177,-2.10958
 L -3.63386,-2.90851 L -3.40087,-3.66334 L -3.11632,-4.36265 L -2.78454,-4.99582 L -2.41054,-5.55325 L -2,-6.02651
 L -1.55914,-6.40841 L -1.09465,-6.69317 L -0.613566,-6.87646 L -0.143955,-6.95217 L -0.178323,-7.05794 L 0,-7.1875
 L 0.178323,-7.05794 L 0.140451,-6.94138 L 0.369073,-6.92913 L 0.855732,-6.79771 L 1.32942,-6.56324 L 1.78295,-6.22928
 L 2.20946,-5.80088 L 2.60247,-5.28456 L 2.95604,-4.68812 L 3.26479,-4.02062 L 3.34304,-3.80074 L 3.81072,-4.27048
 L 4.14907,-4.61032 L 4.2515,-4.71321 L 4.31955,-4.78156 L 4.32003,-4.78204 L 4.76303,-4.34115 L 4.74614,-4.32419
 L 4.66033,-4.238 L 4.28389,-3.8599 L 3.56489,-3.13772 L 3.72989,-2.51381 L 3.87919,-1.69735 L 3.96968,-0.855156
 L 4,-0 L 3.96968,0.855156 L 3.87919,1.69735 L 3.72989,2.51381 L 3.52405,3.29217 L 3.26479,4.02062
 L 2.95604,4.68812 L 2.60247,5.28456 L 2.20946,5.80088 L 1.78295,6.22928 L 1.32942,6.56324 L 0.855732,6.79771
 L 0.369073,6.92913 L 0.140451,6.94138 L 0.178323,7.05794 L 0,7.1875 L -0.178323,7.05794 L -0.143955,6.95217
 L -0.613566,6.87646 L -1.09465,6.69317 L -1.55914,6.40841 L -2,6.02651 L -2.41054,5.55325 L -2.78454,4.99582
 L -3.11632,4.36265 L -3.34441,3.80211 L -3.81072,4.27049 L -4.14907,4.61032 L -4.2515,4.71321 L -4.31955,4.78156
 L -4.32003,4.78204 z
M -3.6834,6.02319 L -3.5196,5.8757 L -3.32871,5.98591 L -3.37454,6.20152 L -3.59375,6.22456 z
M -3.6834,-6.02319 L -3.59375,-6.22456 L -3.37454,-6.20152 L -3.32871,-5.98591 L -3.5196,-5.8757 z
M 3.32871,5.98591 L 3.5196,5.8757 L 3.6834,6.02319 L 3.59375,6.22456 L 3.37454,6.20152 z
M 3.32871,-5.98591 L 3.37454,-6.20152 L 3.59375,-6.22456 L 3.6834,-6.02319 L 3.5196,-5.8757 z
M 5.8757,3.5196 L 5.98591,3.32871 L 6.20152,3.37454 L 6.22456,3.59375 L 6.02319,3.6834 z
M 5.8757,-3.5196 L 6.02319,-3.6834 L 6.22456,-3.59375 L 6.20152,-3.37454 L 5.98591,-3.32871 z
M 6.84831,0.110209 L 6.84831,-0.110209 L 7.05794,-0.178323 L 7.1875,-0 L 7.05794,0.178323 z
" stroke="black" fill="lightgray" stroke-width="0.5"/></svg>
