  0
SECTION
  2
BLOCKS
  0
ENDSEC
  0
SECTION
  2
ENTITIES
  0
LINE
  8
0
 10
-7.99238
 20
0
 11
-7.98168
 21
-0.426446
  0
LINE
  8
0
 10
-7.98168
 20
-0.426446
 11
-7.95039
 21
-0.75015
  0
LINE
  8
0
 10
-7.95039
 20
-0.75015
 11
-7.90656
 21
-1.20341
  0
LINE
  8
0
 10
-7.90656
 20
-1.20341
 11
-7.90029
 21
-1.24581
  0
LINE
  8
0
 10
-7.90029
 20
-1.24581
 11
-7.89582
 21
-1.27609
  0
LINE
  8
0
 10
-7.89582
 20
-1.27609
 11
-7.85277
 21
-1.47081
  0
LINE
  8
0
 10
-7.85277
 20
-1.47081
 11
-7.71013
 21
-2.11603
  0
LINE
  8
0
 10
-7.71013
 20
-2.11603
 11
-7.64241
 21
-2.34436
  0
LINE
  8
0
 10
-7.64241
 20
-2.34436
 11
-7.52331
 21
-2.6829
  0
LINE
  8
0
 10
-7.52331
 20
-2.6829
 11
-7.43291
 21
-2.93986
  0
LINE
  8
0
 10
-7.43291
 20
-2.93986
 11
-7.34725
 21
-3.13804
  0
LINE
  8
0
 10
-7.34725
 20
-3.13804
 11
-7.24405
 21
-3.37683
  0
LINE
  8
0
 10
-7.24405
 20
-3.37683
 11
-7.14544
 21
-3.57676
  0
LINE
  8
0
 10
-7.14544
 20
-3.57676
 11
-7.06428
 21
-3.74132
  0
LINE
  8
0
 10
-7.06428
 20
-3.74132
 11
-6.91506
 21
-3.99816
  0
LINE
  8
0
 10
-6.91506
 20
-3.99816
 11
-6.75348
 21
-4.2763
  0
LINE
  8
0
 10
-6.75348
 20
-4.2763
 11
-6.59861
 21
-4.5143
  0
LINE
  8
0
 10
-6.59861
 20
-4.5143
 11
-6.20784
 21
-5.03603
  0
LINE
  8
0
 10
-6.20784
 20
-5.03603
 11
-6.02754
 21
-5.25292
  0
LINE
  8
0
 10
-6.02754
 20
-5.25292
 11
-5.8137
 21
-5.47931
  0
LINE
  8
0
 10
-5.8137
 20
-5.47931
 11
-5.63917
 21
-5.66408
  0
LINE
  8
0
 10
-5.63917
 20
-5.66408
 11
-5.33877
 21
-5.95157
  0
LINE
  8
0
 10
-5.33877
 20
-5.95157
 11
-5.1803
 21
-6.08592
  0
LINE
  8
0
 10
-5.1803
 20
-6.08592
 11
-5.07164
 21
-6.17804
  0
LINE
  8
0
 10
-5.07164
 20
-6.17804
 11
-4.53429
 21
-6.58957
  0
LINE
  8
0
 10
-4.53429
 20
-6.58957
 11
-4.52103
 21
-6.59973
  0
LINE
  8
0
 10
-4.52103
 20
-6.59973
 11
-4.51815
 21
-6.60171
  0
LINE
  8
0
 10
-4.51815
 20
-6.60171
 11
-4.51346
 21
-6.60493
  0
LINE
  8
0
 10
-4.51346
 20
-6.60493
 11
-4.15976
 21
-6.82118
  0
LINE
  8
0
 10
-4.15976
 20
-6.82118
 11
-3.98301
 21
-6.92925
  0
LINE
  8
0
 10
-3.98301
 20
-6.92925
 11
-3.4796
 21
-7.20324
  0
LINE
  8
0
 10
-3.4796
 20
-7.20324
 11
-3.47539
 21
-7.20553
  0
LINE
  8
0
 10
-3.47539
 20
-7.20553
 11
-3.47383
 21
-7.20628
  0
LINE
  8
0
 10
-3.47383
 20
-7.20628
 11
-3.4702
 21
-7.20801
  0
LINE
  8
0
 10
-3.4702
 20
-7.20801
 11
-2.98436
 21
-7.4148
  0
LINE
  8
0
 10
-2.98436
 20
-7.4148
 11
-2.7401
 21
-7.50474
  0
LINE
  8
0
 10
-2.7401
 20
-7.50474
 11
-2.51775
 21
-7.58662
  0
LINE
  8
0
 10
-2.51775
 20
-7.58662
 11
-2.39856
 21
-7.62371
  0
LINE
  8
0
 10
-2.39856
 20
-7.62371
 11
-2.07078
 21
-7.72569
  0
LINE
  8
0
 10
-2.07078
 20
-7.72569
 11
-1.9506
 21
-7.75624
  0
LINE
  8
0
 10
-1.9506
 20
-7.75624
 11
-1.63747
 21
-7.82679
  0
LINE
  8
0
 10
-1.63747
 20
-7.82679
 11
-1.31494
 21
-7.88332
  0
LINE
  8
0
 10
-1.31494
 20
-7.88332
 11
-1.21684
 21
-7.90051
  0
LINE
  8
0
 10
-1.21684
 20
-7.90051
 11
-1.09251
 21
-7.91607
  0
LINE
  8
0
 10
-1.09251
 20
-7.91607
 11
-0.805966
 21
-7.95195
  0
LINE
  8
0
 10
-0.805966
 20
-7.95195
 11
-0.645632
 21
-7.964
  0
LINE
  8
0
 10
-0.645632
 20
-7.964
 11
-0.401426
 21
-7.98234
  0
LINE
  8
0
 10
-0.401426
 20
-7.98234
 11
-0.224431
 21
-7.98677
  0
LINE
  8
0
 10
-0.224431
 20
-7.98677
 11
0
 21
-7.99239
  0
LINE
  8
0
 10
0
 20
-7.99239
 11
0.224431
 21
-7.98677
  0
LINE
  8
0
 10
0.224431
 20
-7.98677
 11
0.401426
 21
-7.98234
  0
LINE
  8
0
 10
0.401426
 20
-7.98234
 11
0.645632
 21
-7.964
  0
LINE
  8
0
 10
0.645632
 20
-7.964
 11
0.805966
 21
-7.95195
  0
LINE
  8
0
 10
0.805966
 20
-7.95195
 11
1.09251
 21
-7.91607
  0
LINE
  8
0
 10
1.09251
 20
-7.91607
 11
1.21684
 21
-7.90051
  0
LINE
  8
0
 10
1.21684
 20
-7.90051
 11
1.31494
 21
-7.88332
  0
LINE
  8
0
 10
1.31494
 20
-7.88332
 11
1.63747
 21
-7.82679
  0
LINE
  8
0
 10
1.63747
 20
-7.82679
 11
1.9506
 21
-7.75624
  0
LINE
  8
0
 10
1.9506
 20
-7.75624
 11
2.07078
 21
-7.72569
  0
LINE
  8
0
 10
2.07078
 20
-7.72569
 11
2.39856
 21
-7.62371
  0
LINE
  8
0
 10
2.39856
 20
-7.62371
 11
2.51775
 21
-7.58662
  0
LINE
  8
0
 10
2.51775
 20
-7.58662
 11
2.7401
 21
-7.50474
  0
LINE
  8
0
 10
2.7401
 20
-7.50474
 11
2.98436
 21
-7.4148
  0
LINE
  8
0
 10
2.98436
 20
-7.4148
 11
3.4702
 21
-7.20801
  0
LINE
  8
0
 10
3.4702
 20
-7.20801
 11
3.47383
 21
-7.20628
  0
LINE
  8
0
 10
3.47383
 20
-7.20628
 11
3.47539
 21
-7.20553
  0
LINE
  8
0
 10
3.47539
 20
-7.20553
 11
3.4796
 21
-7.20324
  0
LINE
  8
0
 10
3.4796
 20
-7.20324
 11
3.98301
 21
-6.92925
  0
LINE
  8
0
 10
3.98301
 20
-6.92925
 11
4.15976
 21
-6.82118
  0
LINE
  8
0
 10
4.15976
 20
-6.82118
 11
4.51346
 21
-6.60493
  0
LINE
  8
0
 10
4.51346
 20
-6.60493
 11
4.51815
 21
-6.60171
  0
LINE
  8
0
 10
4.51815
 20
-6.60171
 11
4.52103
 21
-6.59973
  0
LINE
  8
0
 10
4.52103
 20
-6.59973
 11
4.53429
 21
-6.58957
  0
LINE
  8
0
 10
4.53429
 20
-6.58957
 11
5.07164
 21
-6.17804
  0
LINE
  8
0
 10
5.07164
 20
-6.17804
 11
5.1803
 21
-6.08592
  0
LINE
  8
0
 10
5.1803
 20
-6.08592
 11
5.33877
 21
-5.95157
  0
LINE
  8
0
 10
5.33877
 20
-5.95157
 11
5.35012
 21
-5.9407
  0
LINE
  8
0
 10
5.35012
 20
-5.9407
 11
4.23155
 21
-4.81719
  0
LINE
  8
0
 10
4.23155
 20
-4.81719
 11
4.79859
 21
-4.25285
  0
LINE
  8
0
 10
4.79859
 20
-4.25285
 11
5.91397
 21
-5.37316
  0
LINE
  8
0
 10
5.91397
 20
-5.37316
 11
6.02754
 21
-5.25292
  0
LINE
  8
0
 10
6.02754
 20
-5.25292
 11
6.20784
 21
-5.03603
  0
LINE
  8
0
 10
6.20784
 20
-5.03603
 11
6.59861
 21
-4.5143
  0
LINE
  8
0
 10
6.59861
 20
-4.5143
 11
6.75348
 21
-4.2763
  0
LINE
  8
0
 10
6.75348
 20
-4.2763
 11
6.91506
 21
-3.99816
  0
LINE
  8
0
 10
6.91506
 20
-3.99816
 11
7.06428
 21
-3.74132
  0
LINE
  8
0
 10
7.06428
 20
-3.74132
 11
7.14544
 21
-3.57676
  0
LINE
  8
0
 10
7.14544
 20
-3.57676
 11
7.24405
 21
-3.37683
  0
LINE
  8
0
 10
7.24405
 20
-3.37683
 11
7.34725
 21
-3.13804
  0
LINE
  8
0
 10
7.34725
 20
-3.13804
 11
7.43291
 21
-2.93986
  0
LINE
  8
0
 10
7.43291
 20
-2.93986
 11
7.52331
 21
-2.6829
  0
LINE
  8
0
 10
7.52331
 20
-2.6829
 11
7.64241
 21
-2.34436
  0
LINE
  8
0
 10
7.64241
 20
-2.34436
 11
7.71013
 21
-2.11603
  0
LINE
  8
0
 10
7.71013
 20
-2.11603
 11
7.85277
 21
-1.47081
  0
LINE
  8
0
 10
7.85277
 20
-1.47081
 11
7.89582
 21
-1.27609
  0
LINE
  8
0
 10
7.89582
 20
-1.27609
 11
7.90029
 21
-1.24581
  0
LINE
  8
0
 10
7.90029
 20
-1.24581
 11
7.90656
 21
-1.20341
  0
LINE
  8
0
 10
7.90656
 20
-1.20341
 11
7.95039
 21
-0.75015
  0
LINE
  8
0
 10
7.95039
 20
-0.75015
 11
7.98168
 21
-0.426446
  0
LINE
  8
0
 10
7.98168
 20
-0.426446
 11
7.99238
 21
0
  0
LINE
  8
0
 10
7.99238
 20
0
 11
7.98168
 21
0.426445
  0
LINE
  8
0
 10
7.98168
 20
0.426445
 11
7.95039
 21
0.750149
  0
LINE
  8
0
 10
7.95039
 20
0.750149
 11
7.90656
 21
1.20341
  0
LINE
  8
0
 10
7.90656
 20
1.20341
 11
7.90029
 21
1.24581
  0
LINE
  8
0
 10
7.90029
 20
1.24581
 11
7.89582
 21
1.27609
  0
LINE
  8
0
 10
7.89582
 20
1.27609
 11
7.85277
 21
1.47081
  0
LINE
  8
0
 10
7.85277
 20
1.47081
 11
7.71013
 21
2.11603
  0
LINE
  8
0
 10
7.71013
 20
2.11603
 11
7.64241
 21
2.34436
  0
LINE
  8
0
 10
7.64241
 20
2.34436
 11
7.52331
 21
2.6829
  0
LINE
  8
0
 10
7.52331
 20
2.6829
 11
7.43291
 21
2.93986
  0
LINE
  8
0
 10
7.43291
 20
2.93986
 11
7.34725
 21
3.13804
  0
LINE
  8
0
 10
7.34725
 20
3.13804
 11
7.24405
 21
3.37683
  0
LINE
  8
0
 10
7.24405
 20
3.37683
 11
7.14544
 21
3.57676
  0
LINE
  8
0
 10
7.14544
 20
3.57676
 11
7.06428
 21
3.74131
  0
LINE
  8
0
 10
7.06428
 20
3.74131
 11
6.91506
 21
3.99816
  0
LINE
  8
0
 10
6.91506
 20
3.99816
 11
6.75348
 21
4.2763
  0
LINE
  8
0
 10
6.75348
 20
4.2763
 11
6.59861
 21
4.5143
  0
LINE
  8
0
 10
6.59861
 20
4.5143
 11
6.20784
 21
5.03603
  0
LINE
  8
0
 10
6.20784
 20
5.03603
 11
6.02754
 21
5.25292
  0
LINE
  8
0
 10
6.02754
 20
5.25292
 11
5.8137
 21
5.47931
  0
LINE
  8
0
 10
5.8137
 20
5.47931
 11
5.63917
 21
5.66408
  0
LINE
  8
0
 10
5.63917
 20
5.66408
 11
5.33877
 21
5.95157
  0
LINE
  8
0
 10
5.33877
 20
5.95157
 11
5.1803
 21
6.08591
  0
LINE
  8
0
 10
5.1803
 20
6.08591
 11
5.07164
 21
6.17804
  0
LINE
  8
0
 10
5.07164
 20
6.17804
 11
4.53429
 21
6.58958
  0
LINE
  8
0
 10
4.53429
 20
6.58958
 11
4.52103
 21
6.59973
  0
LINE
  8
0
 10
4.52103
 20
6.59973
 11
4.51815
 21
6.60171
  0
LINE
  8
0
 10
4.51815
 20
6.60171
 11
4.51346
 21
6.60492
  0
LINE
  8
0
 10
4.51346
 20
6.60492
 11
4.15976
 21
6.82118
  0
LINE
  8
0
 10
4.15976
 20
6.82118
 11
3.98301
 21
6.92925
  0
LINE
  8
0
 10
3.98301
 20
6.92925
 11
3.4796
 21
7.20324
  0
LINE
  8
0
 10
3.4796
 20
7.20324
 11
3.47539
 21
7.20553
  0
LINE
  8
0
 10
3.47539
 20
7.20553
 11
3.47383
 21
7.20628
  0
LINE
  8
0
 10
3.47383
 20
7.20628
 11
3.4702
 21
7.20801
  0
LINE
  8
0
 10
3.4702
 20
7.20801
 11
2.98436
 21
7.4148
  0
LINE
  8
0
 10
2.98436
 20
7.4148
 11
2.7401
 21
7.50474
  0
LINE
  8
0
 10
2.7401
 20
7.50474
 11
2.51775
 21
7.58662
  0
LINE
  8
0
 10
2.51775
 20
7.58662
 11
2.39856
 21
7.62371
  0
LINE
  8
0
 10
2.39856
 20
7.62371
 11
2.07078
 21
7.72569
  0
LINE
  8
0
 10
2.07078
 20
7.72569
 11
1.9506
 21
7.75624
  0
LINE
  8
0
 10
1.9506
 20
7.75624
 11
1.63747
 21
7.82679
  0
LINE
  8
0
 10
1.63747
 20
7.82679
 11
1.31494
 21
7.88331
  0
LINE
  8
0
 10
1.31494
 20
7.88331
 11
1.21684
 21
7.90051
  0
LINE
  8
0
 10
1.21684
 20
7.90051
 11
1.09251
 21
7.91607
  0
LINE
  8
0
 10
1.09251
 20
7.91607
 11
0.805966
 21
7.95195
  0
LINE
  8
0
 10
0.805966
 20
7.95195
 11
0.645632
 21
7.964
  0
LINE
  8
0
 10
0.645632
 20
7.964
 11
0.401426
 21
7.98234
  0
LINE
  8
0
 10
0.401426
 20
7.98234
 11
0.224431
 21
7.98677
  0
LINE
  8
0
 10
0.224431
 20
7.98677
 11
0
 21
7.99239
  0
LINE
  8
0
 10
0
 20
7.99239
 11
-0.224431
 21
7.98677
  0
LINE
  8
0
 10
-0.224431
 20
7.98677
 11
-0.401426
 21
7.98234
  0
LINE
  8
0
 10
-0.401426
 20
7.98234
 11
-0.645632
 21
7.964
  0
LINE
  8
0
 10
-0.645632
 20
7.964
 11
-0.805966
 21
7.95195
  0
LINE
  8
0
 10
-0.805966
 20
7.95195
 11
-1.09251
 21
7.91607
  0
LINE
  8
0
 10
-1.09251
 20
7.91607
 11
-1.21684
 21
7.90051
  0
LINE
  8
0
 10
-1.21684
 20
7.90051
 11
-1.31494
 21
7.88331
  0
LINE
  8
0
 10
-1.31494
 20
7.88331
 11
-1.63747
 21
7.82679
  0
LINE
  8
0
 10
-1.63747
 20
7.82679
 11
-1.9506
 21
7.75624
  0
LINE
  8
0
 10
-1.9506
 20
7.75624
 11
-2.07078
 21
7.72569
  0
LINE
  8
0
 10
-2.07078
 20
7.72569
 11
-2.39856
 21
7.62371
  0
LINE
  8
0
 10
-2.39856
 20
7.62371
 11
-2.51775
 21
7.58662
  0
LINE
  8
0
 10
-2.51775
 20
7.58662
 11
-2.7401
 21
7.50474
  0
LINE
  8
0
 10
-2.7401
 20
7.50474
 11
-2.98436
 21
7.4148
  0
LINE
  8
0
 10
-2.98436
 20
7.4148
 11
-3.4702
 21
7.20801
  0
LINE
  8
0
 10
-3.4702
 20
7.20801
 11
-3.47383
 21
7.20628
  0
LINE
  8
0
 10
-3.47383
 20
7.20628
 11
-3.47539
 21
7.20553
  0
LINE
  8
0
 10
-3.47539
 20
7.20553
 11
-3.4796
 21
7.20324
  0
LINE
  8
0
 10
-3.4796
 20
7.20324
 11
-3.98301
 21
6.92925
  0
LINE
  8
0
 10
-3.98301
 20
6.92925
 11
-4.15976
 21
6.82118
  0
LINE
  8
0
 10
-4.15976
 20
6.82118
 11
-4.51346
 21
6.60492
  0
LINE
  8
0
 10
-4.51346
 20
6.60492
 11
-4.51815
 21
6.60171
  0
LINE
  8
0
 10
-4.51815
 20
6.60171
 11
-4.52103
 21
6.59973
  0
LINE
  8
0
 10
-4.52103
 20
6.59973
 11
-4.53429
 21
6.58958
  0
LINE
  8
0
 10
-4.53429
 20
6.58958
 11
-5.07164
 21
6.17804
  0
LINE
  8
0
 10
-5.07164
 20
6.17804
 11
-5.1803
 21
6.08591
  0
LINE
  8
0
 10
-5.1803
 20
6.08591
 11
-5.33877
 21
5.95157
  0
LINE
  8
0
 10
-5.33877
 20
5.95157
 11
-5.35012
 21
5.9407
  0
LINE
  8
0
 10
-5.35012
 20
5.9407
 11
-4.23155
 21
4.81719
  0
LINE
  8
0
 10
-4.23155
 20
4.81719
 11
-4.79859
 21
4.25285
  0
LINE
  8
0
 10
-4.79859
 20
4.25285
 11
-5.91397
 21
5.37316
  0
LINE
  8
0
 10
-5.91397
 20
5.37316
 11
-6.02754
 21
5.25292
  0
LINE
  8
0
 10
-6.02754
 20
5.25292
 11
-6.20784
 21
5.03603
  0
LINE
  8
0
 10
-6.20784
 20
5.03603
 11
-6.59861
 21
4.5143
  0
LINE
  8
0
 10
-6.59861
 20
4.5143
 11
-6.75348
 21
4.2763
  0
LINE
  8
0
 10
-6.75348
 20
4.2763
 11
-6.91506
 21
3.99816
  0
LINE
  8
0
 10
-6.91506
 20
3.99816
 11
-7.06428
 21
3.74131
  0
LINE
  8
0
 10
-7.06428
 20
3.74131
 11
-7.14544
 21
3.57676
  0
LINE
  8
0
 10
-7.14544
 20
3.57676
 11
-7.24405
 21
3.37683
  0
LINE
  8
0
 10
-7.24405
 20
3.37683
 11
-7.34725
 21
3.13804
  0
LINE
  8
0
 10
-7.34725
 20
3.13804
 11
-7.43291
 21
2.93986
  0
LINE
  8
0
 10
-7.43291
 20
2.93986
 11
-7.52331
 21
2.6829
  0
LINE
  8
0
 10
-7.52331
 20
2.6829
 11
-7.64241
 21
2.34436
  0
LINE
  8
0
 10
-7.64241
 20
2.34436
 11
-7.71013
 21
2.11603
  0
LINE
  8
0
 10
-7.71013
 20
2.11603
 11
-7.85277
 21
1.47081
  0
LINE
  8
0
 10
-7.85277
 20
1.47081
 11
-7.89582
 21
1.27609
  0
LINE
  8
0
 10
-7.89582
 20
1.27609
 11
-7.90029
 21
1.24581
  0
LINE
  8
0
 10
-7.90029
 20
1.24581
 11
-7.90656
 21
1.20341
  0
LINE
  8
0
 10
-7.90656
 20
1.20341
 11
-7.95039
 21
0.750149
  0
LINE
  8
0
 10
-7.95039
 20
0.750149
 11
-7.98168
 21
0.426445
  0
LINE
  8
0
 10
-7.98168
 20
0.426445
 11
-7.99238
 21
0
  0
LINE
  8
0
 10
-7.1875
 20
0
 11
-7.05794
 21
0.178323
  0
LINE
  8
0
 10
-7.05794
 20
0.178323
 11
-6.84831
 21
0.110209
  0
LINE
  8
0
 10
-6.84831
 20
0.110209
 11
-6.84831
 21
-0.110209
  0
LINE
  8
0
 10
-6.84831
 20
-0.110209
 11
-7.05794
 21
-0.178323
  0
LINE
  8
0
 10
-7.05794
 20
-0.178323
 11
-7.1875
 21
0
  0
LINE
  8
0
 10
-6.22456
 20
-3.59375
 11
-6.20152
 21
-3.37454
  0
LINE
  8
0
 10
-6.20152
 20
-3.37454
 11
-5.98591
 21
-3.32871
  0
LINE
  8
0
 10
-5.98591
 20
-3.32871
 11
-5.8757
 21
-3.5196
  0
LINE
  8
0
 10
-5.8757
 20
-3.5196
 11
-6.02319
 21
-3.6834
  0
LINE
  8
0
 10
-6.02319
 20
-3.6834
 11
-6.22456
 21
-3.59375
  0
LINE
  8
0
 10
-6.22456
 20
3.59375
 11
-6.02319
 21
3.6834
  0
LINE
  8
0
 10
-6.02319
 20
3.6834
 11
-5.8757
 21
3.5196
  0
LINE
  8
0
 10
-5.8757
 20
3.5196
 11
-5.98591
 21
3.32871
  0
LINE
  8
0
 10
-5.98591
 20
3.32871
 11
-6.20152
 21
3.37454
  0
LINE
  8
0
 10
-6.20152
 20
3.37454
 11
-6.22456
 21
3.59375
  0
LINE
  8
0
 10
-4.79859
 20
-4.25285
 11
-4.79821
 21
-4.25247
  0
LINE
  8
0
 10
-4.79821
 20
-4.25247
 11
-4.69651
 21
-4.15032
  0
LINE
  8
0
 10
-4.69651
 20
-4.15032
 11
-4.64511
 21
-4.09869
  0
LINE
  8
0
 10
-4.64511
 20
-4.09869
 11
-4.44043
 21
-3.89311
  0
LINE
  8
0
 10
-4.44043
 20
-3.89311
 11
-4.32434
 21
-3.77651
  0
LINE
  8
0
 10
-4.32434
 20
-3.77651
 11
-3.59275
 21
-3.04169
  0
LINE
  8
0
 10
-3.59275
 20
-3.04169
 11
-3.63386
 21
-2.90851
  0
LINE
  8
0
 10
-3.63386
 20
-2.90851
 11
-3.81177
 21
-2.10958
  0
LINE
  8
0
 10
-3.81177
 20
-2.10958
 11
-3.93189
 21
-1.27868
  0
LINE
  8
0
 10
-3.93189
 20
-1.27868
 11
-3.99241
 21
-0.428391
  0
LINE
  8
0
 10
-3.99241
 20
-0.428391
 11
-3.99241
 21
0.428391
  0
LINE
  8
0
 10
-3.99241
 20
0.428391
 11
-3.93189
 21
1.27868
  0
LINE
  8
0
 10
-3.93189
 20
1.27868
 11
-3.81177
 21
2.10958
  0
LINE
  8
0
 10
-3.81177
 20
2.10958
 11
-3.63386
 21
2.90851
  0
LINE
  8
0
 10
-3.63386
 20
2.90851
 11
-3.40087
 21
3.66334
  0
LINE
  8
0
 10
-3.40087
 20
3.66334
 11
-3.11632
 21
4.36265
  0
LINE
  8
0
 10
-3.11632
 20
4.36265
 11
-2.78454
 21
4.99582
  0
LINE
  8
0
 10
-2.78454
 20
4.99582
 11
-2.41054
 21
5.55325
  0
LINE
  8
0
 10
-2.41054
 20
5.55325
 11
-2
 21
6.02651
  0
LINE
  8
0
 10
-2
 20
6.02651
 11
-1.55914
 21
6.40841
  0
LINE
  8
0
 10
-1.55914
 20
6.40841
 11
-1.09465
 21
6.69317
  0
LINE
  8
0
 10
-1.09465
 20
6.69317
 11
-0.613566
 21
6.87646
  0
LINE
  8
0
 10
-0.613566
 20
6.87646
 11
-0.143955
 21
6.95217
  0
LINE
  8
0
 10
-0.143955
 20
6.95217
 11
-0.178323
 21
7.05794
  0
LINE
  8
0
 10
-0.178323
 20
7.05794
 11
0
 21
7.1875
  0
LINE
  8
0
 10
0
 20
7.1875
 11
0.178323
 21
7.05794
  0
LINE
  8
0
 10
0.178323
 20
7.05794
 11
0.140451
 21
6.94138
  0
LINE
  8
0
 10
0.140451
 20
6.94138
 11
0.369073
 21
6.92913
  0
LINE
  8
0
 10
0.369073
 20
6.92913
 11
0.855732
 21
6.79771
  0
LINE
  8
0
 10
0.855732
 20
6.79771
 11
1.32942
 21
6.56324
  0
LINE
  8
0
 10
1.32942
 20
6.56324
 11
1.78295
 21
6.22928
  0
LINE
  8
0
 10
1.78295
 20
6.22928
 11
2.20946
 21
5.80088
  0
LINE
  8
0
 10
2.20946
 20
5.80088
 11
2.60247
 21
5.28456
  0
LINE
  8
0
 10
2.60247
 20
5.28456
 11
2.95604
 21
4.68812
  0
LINE
  8
0
 10
2.95604
 20
4.68812
 11
3.26479
 21
4.02062
  0
LINE
  8
0
 10
3.26479
 20
4.02062
 11
3.31053
 21
3.8921
  0
LINE
  8
0
 10
3.31053
 20
3.8921
 11
3.87027
 21
4.45432
  0
LINE
  8
0
 10
3.87027
 20
4.45432
 11
4.1814
 21
4.76681
  0
LINE
  8
0
 10
4.1814
 20
4.76681
 11
4.21486
 21
4.80042
  0
LINE
  8
0
 10
4.21486
 20
4.80042
 11
4.23155
 21
4.81719
  0
LINE
  8
0
 10
4.23155
 20
4.81719
 11
4.24758
 21
4.80124
  0
LINE
  8
0
 10
4.24758
 20
4.80124
 11
4.79859
 21
4.25285
  0
LINE
  8
0
 10
4.79859
 20
4.25285
 11
4.79821
 21
4.25247
  0
LINE
  8
0
 10
4.79821
 20
4.25247
 11
4.69651
 21
4.15032
  0
LINE
  8
0
 10
4.69651
 20
4.15032
 11
4.64511
 21
4.09869
  0
LINE
  8
0
 10
4.64511
 20
4.09869
 11
4.44043
 21
3.89311
  0
LINE
  8
0
 10
4.44043
 20
3.89311
 11
4.32434
 21
3.77651
  0
LINE
  8
0
 10
4.32434
 20
3.77651
 11
3.59081
 21
3.03973
  0
LINE
  8
0
 10
3.59081
 20
3.03973
 11
3.72989
 21
2.51381
  0
LINE
  8
0
 10
3.72989
 20
2.51381
 11
3.87919
 21
1.69735
  0
LINE
  8
0
 10
3.87919
 20
1.69735
 11
3.96968
 21
0.855156
  0
LINE
  8
0
 10
3.96968
 20
0.855156
 11
4
 21
0
  0
LINE
  8
0
 10
4
 20
0
 11
3.96968
 21
-0.855156
  0
LINE
  8
0
 10
3.96968
 20
-0.855156
 11
3.87919
 21
-1.69735
  0
LINE
  8
0
 10
3.87919
 20
-1.69735
 11
3.72989
 21
-2.51381
  0
LINE
  8
0
 10
3.72989
 20
-2.51381
 11
3.52405
 21
-3.29217
  0
LINE
  8
0
 10
3.52405
 20
-3.29217
 11
3.26479
 21
-4.02062
  0
LINE
  8
0
 10
3.26479
 20
-4.02062
 11
2.95604
 21
-4.68812
  0
LINE
  8
0
 10
2.95604
 20
-4.68812
 11
2.60247
 21
-5.28456
  0
LINE
  8
0
 10
2.60247
 20
-5.28456
 11
2.41279
 21
-5.53376
  0
LINE
  8
0
 10
2.41279
 20
-5.53376
 11
-2.42361
 21
-5.53376
  0
LINE
  8
0
 10
-2.42361
 20
-5.53376
 11
-2.78454
 21
-4.99582
  0
LINE
  8
0
 10
-2.78454
 20
-4.99582
 11
-3.11632
 21
-4.36265
  0
LINE
  8
0
 10
-3.11632
 20
-4.36265
 11
-3.30858
 21
-3.89015
  0
LINE
  8
0
 10
-3.30858
 20
-3.89015
 11
-3.87027
 21
-4.45432
  0
LINE
  8
0
 10
-3.87027
 20
-4.45432
 11
-4.1814
 21
-4.76682
  0
LINE
  8
0
 10
-4.1814
 20
-4.76682
 11
-4.21486
 21
-4.80043
  0
LINE
  8
0
 10
-4.21486
 20
-4.80043
 11
-4.23155
 21
-4.81719
  0
LINE
  8
0
 10
-4.23155
 20
-4.81719
 11
-4.24758
 21
-4.80125
  0
LINE
  8
0
 10
-4.24758
 20
-4.80125
 11
-4.79859
 21
-4.25285
  0
LINE
  8
0
 10
-3.6834
 20
-6.02319
 11
-3.5196
 21
-5.8757
  0
LINE
  8
0
 10
-3.5196
 20
-5.8757
 11
-3.32871
 21
-5.98591
  0
LINE
  8
0
 10
-3.32871
 20
-5.98591
 11
-3.37454
 21
-6.20152
  0
LINE
  8
0
 10
-3.37454
 20
-6.20152
 11
-3.59375
 21
-6.22456
  0
LINE
  8
0
 10
-3.59375
 20
-6.22456
 11
-3.6834
 21
-6.02319
  0
LINE
  8
0
 10
-3.6834
 20
6.02319
 11
-3.59375
 21
6.22456
  0
LINE
  8
0
 10
-3.59375
 20
6.22456
 11
-3.37454
 21
6.20152
  0
LINE
  8
0
 10
-3.37454
 20
6.20152
 11
-3.32871
 21
5.98591
  0
LINE
  8
0
 10
-3.32871
 20
5.98591
 11
-3.5196
 21
5.8757
  0
LINE
  8
0
 10
-3.5196
 20
5.8757
 11
-3.6834
 21
6.02319
  0
LINE
  8
0
 10
-0.178323
 20
-7.05794
 11
-0.110209
 21
-6.84831
  0
LINE
  8
0
 10
-0.110209
 20
-6.84831
 11
0.110209
 21
-6.84831
  0
LINE
  8
0
 10
0.110209
 20
-6.84831
 11
0.178323
 21
-7.05794
  0
LINE
  8
0
 10
0.178323
 20
-7.05794
 11
0
 21
-7.1875
  0
LINE
  8
0
 10
0
 20
-7.1875
 11
-0.178323
 21
-7.05794
  0
LINE
  8
0
 10
3.32871
 20
-5.98591
 11
3.5196
 21
-5.8757
  0
LINE
  8
0
 10
3.5196
 20
-5.8757
 11
3.6834
 21
-6.02319
  0
LINE
  8
0
 10
3.6834
 20
-6.02319
 11
3.59375
 21
-6.22456
  0
LINE
  8
0
 10
3.59375
 20
-6.22456
 11
3.37454
 21
-6.20152
  0
LINE
  8
0
 10
3.37454
 20
-6.20152
 11
3.32871
 21
-5.98591
  0
LINE
  8
0
 10
3.32871
 20
5.98591
 11
3.37454
 21
6.20152
  0
LINE
  8
0
 10
3.37454
 20
6.20152
 11
3.59375
 21
6.22456
  0
LINE
  8
0
 10
3.59375
 20
6.22456
 11
3.6834
 21
6.02319
  0
LINE
  8
0
 10
3.6834
 20
6.02319
 11
3.5196
 21
5.8757
  0
LINE
  8
0
 10
3.5196
 20
5.8757
 11
3.32871
 21
5.98591
  0
LINE
  8
0
 10
5.8757
 20
-3.5196
 11
5.98591
 21
-3.32871
  0
LINE
  8
0
 10
5.98591
 20
-3.32871
 11
6.20152
 21
-3.37454
  0
LINE
  8
0
 10
6.20152
 20
-3.37454
 11
6.22456
 21
-3.59375
  0
LINE
  8
0
 10
6.22456
 20
-3.59375
 11
6.02319
 21
-3.6834
  0
LINE
  8
0
 10
6.02319
 20
-3.6834
 11
5.8757
 21
-3.5196
  0
LINE
  8
0
 10
5.8757
 20
3.5196
 11
6.02319
 21
3.6834
  0
LINE
  8
0
 10
6.02319
 20
3.6834
 11
6.22456
 21
3.59375
  0
LINE
  8
0
 10
6.22456
 20
3.59375
 11
6.20152
 21
3.37454
  0
LINE
  8
0
 10
6.20152
 20
3.37454
 11
5.98591
 21
3.32871
  0
LINE
  8
0
 10
5.98591
 20
3.32871
 11
5.8757
 21
3.5196
  0
LINE
  8
0
 10
6.84831
 20
-0.110209
 11
6.84831
 21
0.110209
  0
LINE
  8
0
 10
6.84831
 20
0.110209
 11
7.05794
 21
0.178323
  0
LINE
  8
0
 10
7.05794
 20
0.178323
 11
7.1875
 21
0
  0
LINE
  8
0
 10
7.1875
 20
0
 11
7.05794
 21
-0.178323
  0
LINE
  8
0
 10
7.05794
 20
-0.178323
 11
6.84831
 21
-0.110209
  0
ENDSEC
  0
SECTION
  2
OBJECTS
  0
DICTIONARY
  0
ENDSEC
  0
EOF
