  0
SECTION
2
HEADER
  9
$ACADVER
  1
AC1009
  9
$EXTMIN
 10
-13.090
20
-13.180
  9
$EXTMAX
 10
13.187
 20
10.925
  9
$LIMMIN
 10
-13.090
20
-13.180
  9
$LIMMAX
 10
13.187
 20
10.925
  9
$CLAYER
  8
1
  0
ENDSEC
  0
SECTION
  2
TABLES
  0
TABLE
  2
LAYER
 70
1
  0
LAYER
  2
1
 70
64
 62
1
  6
CONTINUOUS
  0
ENDTAB
  0
ENDSEC
  0
SECTION
  2
ENTITIES
  0
POLYLINE
  8
1
 66
1
  0
VERTEX
  8
1
 10
-3.625
 20
0
  0
VERTEX
  8
1
 10
-3.61391
 20
-0.401839
  0
VERTEX
  8
1
 10
-3.58109
 20
-0.796846
  0
VERTEX
  8
1
 10
-3.52725
 20
-1.18361
  0
VERTEX
  8
1
 10
-3.45309
 20
-1.56072
  0
VERTEX
  8
1
 10
-3.35931
 20
-1.92678
  0
VERTEX
  8
1
 10
-3.2466
 20
-2.28036
  0
VERTEX
  8
1
 10
-3.11567
 20
-2.62006
  0
VERTEX
  8
1
 10
-2.96721
 20
-2.94448
  0
VERTEX
  8
1
 10
-2.80193
 20
-3.2522
  0
VERTEX
  8
1
 10
-2.62052
 20
-3.54181
  0
VERTEX
  8
1
 10
-2.42368
 20
-3.81191
  0
VERTEX
  8
1
 10
-2.21211
 20
-4.06108
  0
VERTEX
  8
1
 10
-1.98652
 20
-4.28792
  0
VERTEX
  8
1
 10
-1.7476
 20
-4.49102
  0
VERTEX
  8
1
 10
-1.49605
 20
-4.66897
  0
VERTEX
  8
1
 10
-1.23256
 20
-4.82035
  0
VERTEX
  8
1
 10
-0.961539
 20
-4.94223
  0
VERTEX
  8
1
 10
-0.687671
 20
-5.03291
  0
VERTEX
  8
1
 10
-0.412137
 20
-5.09282
  0
VERTEX
  8
1
 10
-0.136112
 20
-5.12243
  0
VERTEX
  8
1
 10
0.139229
 20
-5.12219
  0
VERTEX
  8
1
 10
0.412712
 20
-5.09254
  0
VERTEX
  8
1
 10
0.683161
 20
-5.03394
  0
VERTEX
  8
1
 10
0.949401
 20
-4.94683
  0
VERTEX
  8
1
 10
1.21026
 20
-4.83167
  0
VERTEX
  8
1
 10
1.46456
 20
-4.68892
  0
VERTEX
  8
1
 10
1.71112
 20
-4.51901
  0
VERTEX
  8
1
 10
1.94878
 20
-4.32241
  0
VERTEX
  8
1
 10
2.17635
 20
-4.09955
  0
VERTEX
  8
1
 10
2.39266
 20
-3.8509
  0
VERTEX
  8
1
 10
2.59654
 20
-3.5769
  0
VERTEX
  8
1
 10
2.78681
 20
-3.27801
  0
SEQEND
  0
POLYLINE
  8
1
 66
1
  0
VERTEX
  8
1
 10
2.4495
 20
-3.77847
  0
VERTEX
  8
1
 10
2.45544
 20
-3.77076
  0
VERTEX
  8
1
 10
2.46136
 20
-3.76303
  0
VERTEX
  8
1
 10
2.46727
 20
-3.75528
  0
VERTEX
  8
1
 10
2.47317
 20
-3.74752
  0
VERTEX
  8
1
 10
2.47905
 20
-3.73973
  0
VERTEX
  8
1
 10
2.48493
 20
-3.73193
  0
VERTEX
  8
1
 10
2.49079
 20
-3.72411
  0
VERTEX
  8
1
 10
2.49664
 20
-3.71627
  0
VERTEX
  8
1
 10
2.50247
 20
-3.70842
  0
VERTEX
  8
1
 10
2.5083
 20
-3.70054
  0
VERTEX
  8
1
 10
2.51411
 20
-3.69265
  0
VERTEX
  8
1
 10
2.51991
 20
-3.68473
  0
VERTEX
  8
1
 10
2.5257
 20
-3.6768
  0
VERTEX
  8
1
 10
2.53147
 20
-3.66885
  0
VERTEX
  8
1
 10
2.53723
 20
-3.66089
  0
VERTEX
  8
1
 10
2.54298
 20
-3.6529
  0
SEQEND
  0
POLYLINE
  8
1
 66
1
  0
VERTEX
  8
1
 10
3.13678
 20
-2.56915
  0
VERTEX
  8
1
 10
3.19496
 20
-2.42155
  0
VERTEX
  8
1
 10
3.24958
 20
-2.27161
  0
VERTEX
  8
1
 10
3.30059
 20
-2.11946
  0
VERTEX
  8
1
 10
3.34798
 20
-1.96523
  0
VERTEX
  8
1
 10
3.39173
 20
-1.80905
  0
VERTEX
  8
1
 10
3.4318
 20
-1.65106
  0
VERTEX
  8
1
 10
3.46817
 20
-1.49138
  0
VERTEX
  8
1
 10
3.50082
 20
-1.33014
  0
VERTEX
  8
1
 10
3.52972
 20
-1.16748
  0
VERTEX
  8
1
 10
3.55485
 20
-1.00353
  0
VERTEX
  8
1
 10
3.57618
 20
-0.83841
  0
VERTEX
  8
1
 10
3.59369
 20
-0.672264
  0
VERTEX
  8
1
 10
3.60735
 20
-0.505219
  0
VERTEX
  8
1
 10
3.61714
 20
-0.337406
  0
VERTEX
  8
1
 10
3.62303
 20
-0.168956
  0
VERTEX
  8
1
 10
3.625
 20
-1.25588e-015
  0
SEQEND
  0
ARC
  8
1
 10
0
 20
0
 40
12
 50
136.685
 51
223.315
  0
ARC
  8
1
 10
0
 20
0
 40
12
 50
226.685
 51
403.209
  0
POLYLINE
  8
1
 66
1
  0
VERTEX
  8
1
 10
-8.72055
 20
-8.21897
  0
VERTEX
  8
1
 10
-6.26972
 20
-5.73939
  0
VERTEX
  8
1
 10
-5.72573
 20
-6.28254
  0
VERTEX
  8
1
 10
-8.21597
 20
-8.7463
  0
SEQEND
  0
POLYLINE
  8
1
 66
1
  0
VERTEX
  8
1
 10
3.12128
 20
-2.59095
  0
VERTEX
  8
1
 10
6.27026
 20
-5.73993
  0
VERTEX
  8
1
 10
5.73939
 20
-6.26972
  0
VERTEX
  8
1
 10
2.76099
 20
-3.29132
  0
SEQEND
  0
POLYLINE
  8
1
 66
1
  0
VERTEX
  8
1
 10
-8.21597
 20
8.7463
  0
VERTEX
  8
1
 10
-8.74632
 20
8.21599
  0
SEQEND
  0
POLYLINE
  8
1
 66
1
  0
VERTEX
  8
1
 10
-7.68564
 20
8.21597
  0
VERTEX
  8
1
 10
-8.21599
 20
7.68566
  0
SEQEND
  0
POLYLINE
  8
1
 66
1
  0
VERTEX
  8
1
 10
7.68564
 20
8.21597
  0
VERTEX
  8
1
 10
8.21599
 20
7.68566
  0
SEQEND
  0
POLYLINE
  8
1
 66
1
  0
VERTEX
  8
1
 10
-7.15531
 20
7.68564
  0
VERTEX
  8
1
 10
-7.68566
 20
7.15533
  0
SEQEND
  0
POLYLINE
  8
1
 66
1
  0
VERTEX
  8
1
 10
7.15531
 20
7.68564
  0
VERTEX
  8
1
 10
7.68566
 20
7.15533
  0
SEQEND
  0
POLYLINE
  8
1
 66
1
  0
VERTEX
  8
1
 10
-6.62498
 20
7.15531
  0
VERTEX
  8
1
 10
-7.15533
 20
6.625
  0
SEQEND
  0
POLYLINE
  8
1
 66
1
  0
VERTEX
  8
1
 10
6.62498
 20
7.15531
  0
VERTEX
  8
1
 10
7.15533
 20
6.625
  0
SEQEND
  0
POLYLINE
  8
1
 66
1
  0
VERTEX
  8
1
 10
-6.09465
 20
6.62498
  0
VERTEX
  8
1
 10
-6.625
 20
6.09467
  0
SEQEND
  0
POLYLINE
  8
1
 66
1
  0
VERTEX
  8
1
 10
-8.21599
 20
7.68566
  0
VERTEX
  8
1
 10
-7.68566
 20
7.15533
  0
SEQEND
  0
POLYLINE
  8
1
 66
1
  0
VERTEX
  8
1
 10
-7.15531
 20
7.68564
  0
VERTEX
  8
1
 10
-6.62498
 20
7.15531
  0
SEQEND
  0
POLYLINE
  8
1
 66
1
  0
VERTEX
  8
1
 10
-7.15533
 20
6.625
  0
VERTEX
  8
1
 10
-6.625
 20
6.09467
  0
SEQEND
  0
POLYLINE
  8
1
 66
1
  0
VERTEX
  8
1
 10
8.74632
 20
8.21599
  0
VERTEX
  8
1
 10
8.21599
 20
7.68566
  0
SEQEND
  0
POLYLINE
  8
1
 66
1
  0
VERTEX
  8
1
 10
7.68564
 20
8.21597
  0
VERTEX
  8
1
 10
7.15531
 20
7.68564
  0
SEQEND
  0
POLYLINE
  8
1
 66
1
  0
VERTEX
  8
1
 10
7.68566
 20
7.15533
  0
VERTEX
  8
1
 10
7.15533
 20
6.625
  0
SEQEND
  0
POLYLINE
  8
1
 66
1
  0
VERTEX
  8
1
 10
6.62498
 20
7.15531
  0
VERTEX
  8
1
 10
6.09465
 20
6.62498
  0
SEQEND
  0
POLYLINE
  8
1
 66
1
  0
VERTEX
  8
1
 10
6.625
 20
6.09467
  0
VERTEX
  8
1
 10
6.09467
 20
5.56434
  0
SEQEND
  0
POLYLINE
  8
1
 66
1
  0
VERTEX
  8
1
 10
-8.21597
 20
8.7463
  0
VERTEX
  8
1
 10
-7.68564
 20
8.21597
  0
SEQEND
  0
POLYLINE
  8
1
 66
1
  0
VERTEX
  8
1
 10
-4.81432
 20
5.34465
  0
VERTEX
  8
1
 10
-3.625
 20
0
  0
SEQEND
  0
POLYLINE
  8
1
 66
1
  0
VERTEX
  8
1
 10
4.81432
 20
5.34465
  0
VERTEX
  8
1
 10
3.625
 20
0
  0
SEQEND
  0
POLYLINE
  8
1
 66
1
  0
VERTEX
  8
1
 10
6.09465
 20
6.62498
  0
VERTEX
  8
1
 10
6.625
 20
6.09467
  0
SEQEND
  0
ARC
  8
1
 10
0
 20
0
 40
10
 50
143.13
 51
180
  0
ARC
  8
1
 10
0
 20
0
 40
10
 50
360
 51
396.87
  0
ARC
  8
1
 10
-16
 20
-3.55271e-015
 40
10
 50
0
 51
36.8699
  0
ARC
  8
1
 10
16
 20
-3.55271e-015
 40
10
 50
503.13
 51
540
  0
ARC
  8
1
 10
-8
 20
-3.55271e-015
 40
2
 50
180
 51
360
  0
ARC
  8
1
 10
8
 20
-3.55271e-015
 40
2
 50
180
 51
360
  0
POINT
  8
1
 10
-8
 20
-3.55271e-015
  0
POINT
  8
1
 10
8
 20
-3.55271e-015
  0
POLYLINE
  8
1
 66
1
  0
VERTEX
  8
1
 10
-6.09465
 20
6.62498
  0
VERTEX
  8
1
 10
-5.56432
 20
6.09465
  0
SEQEND
  0
POLYLINE
  8
1
 66
1
  0
VERTEX
  8
1
 10
-4.81432
 20
5.84465
  0
VERTEX
  8
1
 10
-5.56432
 20
5.84465
  0
VERTEX
  8
1
 10
-5.56432
 20
6.09465
  0
SEQEND
  0
POLYLINE
  8
1
 66
1
  0
VERTEX
  8
1
 10
4.81432
 20
5.84465
  0
VERTEX
  8
1
 10
5.56432
 20
5.84465
  0
VERTEX
  8
1
 10
5.56432
 20
6.09465
  0
SEQEND
  0
POLYLINE
  8
1
 66
1
  0
VERTEX
  8
1
 10
-5.56432
 20
5.84465
  0
VERTEX
  8
1
 10
-4.81432
 20
5.84465
  0
VERTEX
  8
1
 10
-4.81432
 20
5.34465
  0
SEQEND
  0
POLYLINE
  8
1
 66
1
  0
VERTEX
  8
1
 10
5.56432
 20
5.84465
  0
VERTEX
  8
1
 10
4.81432
 20
5.84465
  0
VERTEX
  8
1
 10
4.81432
 20
5.34465
  0
SEQEND
  0
POLYLINE
  8
1
 66
1
  0
VERTEX
  8
1
 10
-4.81432
 20
5.34465
  0
VERTEX
  8
1
 10
-5.56432
 20
5.34465
  0
SEQEND
  0
POLYLINE
  8
1
 66
1
  0
VERTEX
  8
1
 10
4.81432
 20
5.34465
  0
VERTEX
  8
1
 10
5.56432
 20
5.34465
  0
SEQEND
  0
POLYLINE
  8
1
 66
1
  0
VERTEX
  8
1
 10
5.56432
 20
6.09465
  0
VERTEX
  8
1
 10
6.09467
 20
5.56434
  0
SEQEND
  0
POLYLINE
  8
1
 66
1
  0
VERTEX
  8
1
 10
5.56432
 20
5.84465
  0
VERTEX
  8
1
 10
5.56432
 20
5.34465
  0
SEQEND
  0
POLYLINE
  8
1
 66
1
  0
VERTEX
  8
1
 10
-5.56432
 20
5.84465
  0
VERTEX
  8
1
 10
-5.56432
 20
5.34465
  0
SEQEND
  0
CIRCLE
  8
1
 10
-11
 20
1.34707e-015
 40
0.25
  0
CIRCLE
  8
1
 10
-9.52628
 20
5.5
 40
0.25
  0
CIRCLE
  8
1
 10
9.52628
 20
5.5
 40
0.25
  0
CIRCLE
  8
1
 10
11
 20
-1.34707e-015
 40
0.25
  0
CIRCLE
  8
1
 10
9.52628
 20
-5.5
 40
0.25
  0
CIRCLE
  8
1
 10
5.5
 20
-9.52628
 40
0.25
  0
CIRCLE
  8
1
 10
3.55271e-015
 20
-11
 40
0.25
  0
CIRCLE
  8
1
 10
-5.5
 20
-9.52628
 40
0.25
  0
CIRCLE
  8
1
 10
-9.52628
 20
-5.5
 40
0.25
  0
CIRCLE
  8
1
 10
-11
 20
-7.10543e-015
 40
0.25
  0
CIRCLE
  8
1
 10
-9.52628
 20
5.5
 40
0.25
  0
POINT
  8
1
 10
-9.52628
 20
5.5
  0
POINT
  8
1
 10
-11
 20
-7.10543e-015
  0
POINT
  8
1
 10
-9.52628
 20
-5.5
  0
POINT
  8
1
 10
-5.5
 20
-9.52628
  0
POINT
  8
1
 10
3.55271e-015
 20
-11
  0
POINT
  8
1
 10
5.5
 20
-9.52628
  0
POINT
  8
1
 10
9.52628
 20
-5.5
  0
POINT
  8
1
 10
9.52628
 20
5.5
  0
POINT
  8
1
 10
11
 20
-1.34707e-015
  0
POLYLINE
  8
1
 66
1
  0
VERTEX
  8
1
 10
5.8295
 20
5.8295
  0
VERTEX
  8
1
 10
4.66254
 20
4.66254
  0
SEQEND
  0
POLYLINE
  8
1
 66
1
  0
VERTEX
  8
1
 10
6.09467
 20
5.56434
  0
VERTEX
  8
1
 10
4.51075
 20
3.98042
  0
SEQEND
  0
POLYLINE
  8
1
 66
1
  0
VERTEX
  8
1
 10
6.09467
 20
5.56434
  0
VERTEX
  8
1
 10
4.51075
 20
3.98042
  0
SEQEND
  0
POLYLINE
  8
1
 66
1
  0
VERTEX
  8
1
 10
-4.66254
 20
4.66254
  0
VERTEX
  8
1
 10
-5.56432
 20
5.56432
  0
SEQEND
  0
POLYLINE
  8
1
 66
1
  0
VERTEX
  8
1
 10
-4.51075
 20
3.98042
  0
VERTEX
  8
1
 10
-5.56767
 20
5.03734
  0
SEQEND
  0
ENDSEC
  0
EOF
