<?xml version="1.0" encoding="UTF-8" standalone="no"?>
<!-- Created with Inkscape (http://www.inkscape.org/) -->

<svg
   xmlns:dc="http://purl.org/dc/elements/1.1/"
   xmlns:cc="http://creativecommons.org/ns#"
   xmlns:rdf="http://www.w3.org/1999/02/22-rdf-syntax-ns#"
   xmlns:svg="http://www.w3.org/2000/svg"
   xmlns="http://www.w3.org/2000/svg"
   xmlns:sodipodi="http://sodipodi.sourceforge.net/DTD/sodipodi-0.dtd"
   xmlns:inkscape="http://www.inkscape.org/namespaces/inkscape"
   id="svg3355"
   version="1.1"
   inkscape:version="0.91 r13725"
   xml:space="preserve"
   width="2160"
   height="2160"
   viewBox="0 0 2160 2160"
   sodipodi:docname="criterian_tube_holder_print.svg"><metadata
     id="metadata3361"><rdf:RDF><cc:Work
         rdf:about=""><dc:format>image/svg+xml</dc:format><dc:type
           rdf:resource="http://purl.org/dc/dcmitype/StillImage" /><dc:title></dc:title></cc:Work></rdf:RDF></metadata><defs
     id="defs3359" /><sodipodi:namedview
     pagecolor="#ffffff"
     bordercolor="#666666"
     borderopacity="1"
     objecttolerance="10"
     gridtolerance="10"
     guidetolerance="10"
     inkscape:pageopacity="0"
     inkscape:pageshadow="2"
     inkscape:window-width="1920"
     inkscape:window-height="1018"
     id="namedview3357"
     showgrid="false"
     inkscape:zoom="0.37546296"
     inkscape:cx="1080"
     inkscape:cy="1080"
     inkscape:window-x="0"
     inkscape:window-y="0"
     inkscape:window-maximized="1"
     inkscape:current-layer="g3363" /><g
     id="g3363"
     inkscape:groupmode="layer"
     inkscape:label="ink_ext_XXXXXX"
     transform="matrix(1.25,0,0,-1.25,0,2160)"><g
       id="g3365"
       transform="scale(0.117791,0.117791)"><path
         d="m 1998.11,12672.4 -122.93,-133.3 -119.02,-135.8 -115.12,-138.4 -111.22,-140.1 -107.3,-141.8 -103.49,-144.3 -99.5,-146 -95.59,-147.7 -91.69,-149.4 -87.867,-152 -83.879,-152.8 -79.996,-154.5 -76.102,-155.4 -72.195,-157 -68.297,-158.8 -64.394,-159.6 -60.489,-161.3 -56.593,-162.15 -52.676,-163 L 280.973,9655.2 236.094,9490.5 195.117,9324.96 158.043,9158.56 124.875,8991.32 95.6016,8824.07 70.2344,8655.98 48.7695,8487.38 31.207,8318.43 17.5469,8149.23 7.79297,7979.79 1.9375,7810.25 0.0585938,7646.91"
         style="fill:none;stroke:#000000;stroke-width:4.07499981;stroke-linecap:butt;stroke-linejoin:miter;stroke-miterlimit:4;stroke-dasharray:none;stroke-opacity:1"
         id="path3367"
         inkscape:connector-curvature="0" /><path
         d="M 0.0585938,7634.34 1.9375,7471 l 5.85547,-169.54 9.75393,-169.44 13.6601,-169.2 17.5625,-168.94 21.4649,-168.52 25.3672,-168.1 29.2734,-167.58 33.168,-166.99 37.074,-166.4 40.977,-165.63 44.879,-164.87 48.789,-163.93 52.676,-163 56.593,-162.07 60.489,-160.88 64.394,-159.77 68.297,-158.5 72.195,-157.23 76.102,-155.87 79.996,-154.34 83.879,-152.81 87.867,-151.28 91.69,-149.59 95.59,-147.81 99.5,-146.1 103.49,-144.07 107.3,-142.2 111.22,-140.16 115.12,-138.04 119.02,-135.84 122.93,-133.62"
         style="fill:none;stroke:#000000;stroke-width:4.07499981;stroke-linecap:butt;stroke-linejoin:miter;stroke-miterlimit:4;stroke-dasharray:none;stroke-opacity:1"
         id="path3369"
         inkscape:connector-curvature="0" /><path
         d="m 2303.05,2303.73 136.43,-125.39 138.72,-121.4 141.01,-117.33 143.14,-113.16 145.17,-109.18 147.29,-105.01 149.17,-101.03 151.02,-96.95 152.9,-92.88 154.51,-88.71 156.21,-84.73 157.74,-80.73 159.18,-76.582 160.62,-72.5 161.98,-68.425 163.17,-64.438 164.36,-60.344 165.46,-56.285 166.48,-52.218 167.42,-48.172 168.26,-44.11 169.03,-40.054 169.79,-35.997 170.47,-31.945 170.9,-27.898 171.48,-23.848 171.84,-19.797 172.16,-15.738 172.43,-11.699 172.59,-7.657 172.76,-3.609 172.68,0.441 172.68,4.481 172.51,8.523 172.34,12.567 172,16.597 171.66,20.645 171.23,24.68 170.55,28.722 170.65,32.743 168.94,36.792 168.94,40.821 168.1,44.851 166.39,48.883 166.4,52.914 164.69,56.942 163.86,60.968 162.14,64.973 161.3,69.02 160.5,73.093 157.9,77.09 157,81.07 155.4,85.07 153.6,89.14 152,93.22 150.3,97.12 148.5,101.19 146.1,105.19 144.3,109.26 141.8,113.25 140,117.24 137.6,121.23 135,125.31 133.2,129.21 129.1,132.52 125.6,134.99 121.4,137.36 118,139.65 112.9,141.86 109.6,143.99 106.1,146.02 101,148.06 97.6,150.01 93.4,151.7 89.2,153.58 85.7,155.19 81.5,156.89 77.3,158.33 73,159.77 69.6,161.13 65.4,162.5 61.1,163.68 56.9,164.78 53.4,165.88 49.3,166.91 45,167.75 41.6,168.61 36.5,169.36 33.1,170.05 29.7,170.64 24.6,171.15 21.3,171.66 16.9,172 12.8,172.25 8.5,172.51 5.1,172.68 0.8,172.68 -3.4,172.76 -7.6,172.59 -11.1,172.43 -15.3,172.25 -19.5,172.17 -23.8,171.49 -27.1,170.64 -32.3,170.64 -35.6,169.79 -39.9,168.94 -43.3,168.1 -48.4,168.09 -51.8,166.4 -56,165.51 -59.5,164.7 -64.5,163 -67.9,162.2 -72.2,160.4 -76.4,159.6 -80.6,157.9 -84.1,156.3 -88.3,154.5 -92.5,153.6 -96.8,151.1 -101,149.5 -104.4,146.8 -109.5,146.1 -113,143.4 -117.1,141 -120.6,139.2 -125.6,136.7"
         style="fill:none;stroke:#000000;stroke-width:4.07499981;stroke-linecap:butt;stroke-linejoin:miter;stroke-miterlimit:4;stroke-dasharray:none;stroke-opacity:1"
         id="path3371"
         inkscape:connector-curvature="0" /><path
         d="M 2004.56,2616.75 3286.4,3913.95 3616.82,3584.47 2312.99,2294.48"
         style="fill:none;stroke:#000000;stroke-width:4.07499981;stroke-linecap:butt;stroke-linejoin:miter;stroke-miterlimit:4;stroke-dasharray:none;stroke-opacity:1"
         id="path3373"
         inkscape:connector-curvature="0" /><path
         d="M 10487.2,4807.65 11382,3912.51 11060.2,3591.09 10022,4629.29"
         style="fill:none;stroke:#000000;stroke-width:4.07499981;stroke-linecap:butt;stroke-linejoin:miter;stroke-miterlimit:4;stroke-dasharray:none;stroke-opacity:1"
         id="path3375"
         inkscape:connector-curvature="0" /><path
         d="m 2312.99,12986.5 -324.13,-323.4"
         style="fill:none;stroke:#000000;stroke-width:4.07499981;stroke-linecap:butt;stroke-linejoin:miter;stroke-miterlimit:4;stroke-dasharray:none;stroke-opacity:1"
         id="path3377"
         inkscape:connector-curvature="0" /><path
         d="m 2637.12,12663.1 -324.13,-324.3"
         style="fill:none;stroke:#000000;stroke-width:4.07499981;stroke-linecap:butt;stroke-linejoin:miter;stroke-miterlimit:4;stroke-dasharray:none;stroke-opacity:1"
         id="path3379"
         inkscape:connector-curvature="0" /><path
         d="m 12033.1,12663.1 324.3,-324.3"
         style="fill:none;stroke:#000000;stroke-width:4.07499981;stroke-linecap:butt;stroke-linejoin:miter;stroke-miterlimit:4;stroke-dasharray:none;stroke-opacity:1"
         id="path3381"
         inkscape:connector-curvature="0" /><path
         d="m 2961.34,12338.8 -324.22,-324.3"
         style="fill:none;stroke:#000000;stroke-width:4.07499981;stroke-linecap:butt;stroke-linejoin:miter;stroke-miterlimit:4;stroke-dasharray:none;stroke-opacity:1"
         id="path3383"
         inkscape:connector-curvature="0" /><path
         d="m 11708.8,12338.8 324.3,-324.3"
         style="fill:none;stroke:#000000;stroke-width:4.07499981;stroke-linecap:butt;stroke-linejoin:miter;stroke-miterlimit:4;stroke-dasharray:none;stroke-opacity:1"
         id="path3385"
         inkscape:connector-curvature="0" /><path
         d="m 3285.47,12014.5 -324.13,-324.3"
         style="fill:none;stroke:#000000;stroke-width:4.07499981;stroke-linecap:butt;stroke-linejoin:miter;stroke-miterlimit:4;stroke-dasharray:none;stroke-opacity:1"
         id="path3387"
         inkscape:connector-curvature="0" /><path
         d="m 11384.5,12014.5 324.3,-324.3"
         style="fill:none;stroke:#000000;stroke-width:4.07499981;stroke-linecap:butt;stroke-linejoin:miter;stroke-miterlimit:4;stroke-dasharray:none;stroke-opacity:1"
         id="path3389"
         inkscape:connector-curvature="0" /><path
         d="m 2312.99,12338.8 324.13,-324.3"
         style="fill:none;stroke:#000000;stroke-width:4.07499981;stroke-linecap:butt;stroke-linejoin:miter;stroke-miterlimit:4;stroke-dasharray:none;stroke-opacity:1"
         id="path3391"
         inkscape:connector-curvature="0" /><path
         d="m 2961.34,12338.8 324.13,-324.3"
         style="fill:none;stroke:#000000;stroke-width:4.07499981;stroke-linecap:butt;stroke-linejoin:miter;stroke-miterlimit:4;stroke-dasharray:none;stroke-opacity:1"
         id="path3393"
         inkscape:connector-curvature="0" /><path
         d="m 2961.34,11690.2 324.13,-324.3"
         style="fill:none;stroke:#000000;stroke-width:4.07499981;stroke-linecap:butt;stroke-linejoin:miter;stroke-miterlimit:4;stroke-dasharray:none;stroke-opacity:1"
         id="path3395"
         inkscape:connector-curvature="0" /><path
         d="m 12680.9,12663.1 -323.5,-324.3"
         style="fill:none;stroke:#000000;stroke-width:4.07499981;stroke-linecap:butt;stroke-linejoin:miter;stroke-miterlimit:4;stroke-dasharray:none;stroke-opacity:1"
         id="path3397"
         inkscape:connector-curvature="0" /><path
         d="m 12033.1,12663.1 -324.3,-324.3"
         style="fill:none;stroke:#000000;stroke-width:4.07499981;stroke-linecap:butt;stroke-linejoin:miter;stroke-miterlimit:4;stroke-dasharray:none;stroke-opacity:1"
         id="path3399"
         inkscape:connector-curvature="0" /><path
         d="m 12033.1,12014.5 -324.3,-324.3"
         style="fill:none;stroke:#000000;stroke-width:4.07499981;stroke-linecap:butt;stroke-linejoin:miter;stroke-miterlimit:4;stroke-dasharray:none;stroke-opacity:1"
         id="path3401"
         inkscape:connector-curvature="0" /><path
         d="m 11384.5,12014.5 -324.3,-324.3"
         style="fill:none;stroke:#000000;stroke-width:4.07499981;stroke-linecap:butt;stroke-linejoin:miter;stroke-miterlimit:4;stroke-dasharray:none;stroke-opacity:1"
         id="path3403"
         inkscape:connector-curvature="0" /><path
         d="m 2312.99,12986.5 324.13,-323.4"
         style="fill:none;stroke:#000000;stroke-width:4.07499981;stroke-linecap:butt;stroke-linejoin:miter;stroke-miterlimit:4;stroke-dasharray:none;stroke-opacity:1"
         id="path3405"
         inkscape:connector-curvature="0" /><path
         d="m 11060.2,11690.2 324.3,-324.3"
         style="fill:none;stroke:#000000;stroke-width:4.07499981;stroke-linecap:butt;stroke-linejoin:miter;stroke-miterlimit:4;stroke-dasharray:none;stroke-opacity:1"
         id="path3407"
         inkscape:connector-curvature="0" /><path
         d="m 764.063,7640.63 c 0,84.38 -68.418,152.81 -152.813,152.81 -84.395,0 -152.812,-68.43 -152.812,-152.81 0,-84.39 68.417,-152.82 152.812,-152.82 84.395,0 152.813,68.43 152.813,152.82 z"
         style="fill:none;stroke:#000000;stroke-width:4.07499981;stroke-linecap:butt;stroke-linejoin:miter;stroke-miterlimit:4;stroke-dasharray:none;stroke-opacity:1"
         id="path3409"
         inkscape:connector-curvature="0" /><path
         d="m 1664.89,11002.5 c 0,84 -68.43,152.8 -152.81,152.8 -84.39,0 -152.81,-68.8 -152.81,-152.8 0,-84 68.42,-152.8 152.81,-152.8 84.38,0 152.81,68.8 152.81,152.8 z"
         style="fill:none;stroke:#000000;stroke-width:4.07499981;stroke-linecap:butt;stroke-linejoin:miter;stroke-miterlimit:4;stroke-dasharray:none;stroke-opacity:1"
         id="path3411"
         inkscape:connector-curvature="0" /><path
         d="m 13310.8,11002.5 c 0,84 -68.7,152.8 -152.8,152.8 -84,0 -152.8,-68.8 -152.8,-152.8 0,-84 68.8,-152.8 152.8,-152.8 84.1,0 152.8,68.8 152.8,152.8 z"
         style="fill:none;stroke:#000000;stroke-width:4.07499981;stroke-linecap:butt;stroke-linejoin:miter;stroke-miterlimit:4;stroke-dasharray:none;stroke-opacity:1"
         id="path3413"
         inkscape:connector-curvature="0" /><path
         d="m 14211.6,7640.63 c 0,84.38 -68.8,152.81 -152.8,152.81 -84.1,0 -152.9,-68.43 -152.9,-152.81 0,-84.39 68.8,-152.82 152.9,-152.82 84,0 152.8,68.43 152.8,152.82 z"
         style="fill:none;stroke:#000000;stroke-width:4.07499981;stroke-linecap:butt;stroke-linejoin:miter;stroke-miterlimit:4;stroke-dasharray:none;stroke-opacity:1"
         id="path3415"
         inkscape:connector-curvature="0" /><path
         d="m 13310.8,4278.75 c 0,84.39 -68.7,152.81 -152.8,152.81 -84,0 -152.8,-68.42 -152.8,-152.81 0,-84.39 68.8,-152.81 152.8,-152.81 84.1,0 152.8,68.42 152.8,152.81 z"
         style="fill:none;stroke:#000000;stroke-width:4.07499981;stroke-linecap:butt;stroke-linejoin:miter;stroke-miterlimit:4;stroke-dasharray:none;stroke-opacity:1"
         id="path3417"
         inkscape:connector-curvature="0" /><path
         d="m 10849.7,1817.7 c 0,84.39 -68.8,152.82 -152.8,152.82 -84.1,0 -152.8,-68.43 -152.8,-152.82 0,-84.38 68.7,-152.81 152.8,-152.81 84,0 152.8,68.43 152.8,152.81 z"
         style="fill:none;stroke:#000000;stroke-width:4.07499981;stroke-linecap:butt;stroke-linejoin:miter;stroke-miterlimit:4;stroke-dasharray:none;stroke-opacity:1"
         id="path3419"
         inkscape:connector-curvature="0" /><path
         d="m 7487.81,916.875 c 0,84.385 -68.42,152.815 -152.81,152.815 -84.39,0 -152.81,-68.43 -152.81,-152.815 0,-84.395 68.42,-152.812 152.81,-152.812 84.39,0 152.81,68.417 152.81,152.812 z"
         style="fill:none;stroke:#000000;stroke-width:4.07499981;stroke-linecap:butt;stroke-linejoin:miter;stroke-miterlimit:4;stroke-dasharray:none;stroke-opacity:1"
         id="path3421"
         inkscape:connector-curvature="0" /><path
         d="m 4125.94,1817.7 c 0,84.39 -68.43,152.82 -152.81,152.82 -84.39,0 -152.82,-68.43 -152.82,-152.82 0,-84.38 68.43,-152.81 152.82,-152.81 84.38,0 152.81,68.43 152.81,152.81 z"
         style="fill:none;stroke:#000000;stroke-width:4.07499981;stroke-linecap:butt;stroke-linejoin:miter;stroke-miterlimit:4;stroke-dasharray:none;stroke-opacity:1"
         id="path3423"
         inkscape:connector-curvature="0" /><path
         d="m 1664.89,4278.75 c 0,84.39 -68.43,152.81 -152.81,152.81 -84.39,0 -152.81,-68.42 -152.81,-152.81 0,-84.39 68.42,-152.81 152.81,-152.81 84.38,0 152.81,68.42 152.81,152.81 z"
         style="fill:none;stroke:#000000;stroke-width:4.07499981;stroke-linecap:butt;stroke-linejoin:miter;stroke-miterlimit:4;stroke-dasharray:none;stroke-opacity:1"
         id="path3425"
         inkscape:connector-curvature="0" /><path
         d="m 764.063,7640.63 c 0,84.38 -68.418,152.81 -152.813,152.81 -84.395,0 -152.812,-68.43 -152.812,-152.81 0,-84.39 68.417,-152.82 152.812,-152.82 84.395,0 152.813,68.43 152.813,152.82 z"
         style="fill:none;stroke:#000000;stroke-width:4.07499981;stroke-linecap:butt;stroke-linejoin:miter;stroke-miterlimit:4;stroke-dasharray:none;stroke-opacity:1"
         id="path3427"
         inkscape:connector-curvature="0" /><path
         d="m 1664.89,11002.5 c 0,84 -68.43,152.8 -152.81,152.8 -84.39,0 -152.81,-68.8 -152.81,-152.8 0,-84 68.42,-152.8 152.81,-152.8 84.38,0 152.81,68.8 152.81,152.8 z"
         style="fill:none;stroke:#000000;stroke-width:4.07499981;stroke-linecap:butt;stroke-linejoin:miter;stroke-miterlimit:4;stroke-dasharray:none;stroke-opacity:1"
         id="path3429"
         inkscape:connector-curvature="0" /><path
         d="m 1512.08,11308.1 0,-611.2"
         style="fill:none;stroke:#000000;stroke-width:4.07499981;stroke-linecap:butt;stroke-linejoin:miter;stroke-miterlimit:4;stroke-dasharray:none;stroke-opacity:1"
         id="path3431"
         inkscape:connector-curvature="0" /><path
         d="m 1817.7,11002.5 -611.25,0"
         style="fill:none;stroke:#000000;stroke-width:4.07499981;stroke-linecap:butt;stroke-linejoin:miter;stroke-miterlimit:4;stroke-dasharray:none;stroke-opacity:1"
         id="path3433"
         inkscape:connector-curvature="0" /><path
         d="m 611.25,7946.25 0,-611.25"
         style="fill:none;stroke:#000000;stroke-width:4.07499981;stroke-linecap:butt;stroke-linejoin:miter;stroke-miterlimit:4;stroke-dasharray:none;stroke-opacity:1"
         id="path3435"
         inkscape:connector-curvature="0" /><path
         d="m 916.875,7640.63 -611.25,0"
         style="fill:none;stroke:#000000;stroke-width:4.07499981;stroke-linecap:butt;stroke-linejoin:miter;stroke-miterlimit:4;stroke-dasharray:none;stroke-opacity:1"
         id="path3437"
         inkscape:connector-curvature="0" /><path
         d="m 1512.08,4584.38 0,-611.25"
         style="fill:none;stroke:#000000;stroke-width:4.07499981;stroke-linecap:butt;stroke-linejoin:miter;stroke-miterlimit:4;stroke-dasharray:none;stroke-opacity:1"
         id="path3439"
         inkscape:connector-curvature="0" /><path
         d="m 1817.7,4278.75 -611.25,0"
         style="fill:none;stroke:#000000;stroke-width:4.07499981;stroke-linecap:butt;stroke-linejoin:miter;stroke-miterlimit:4;stroke-dasharray:none;stroke-opacity:1"
         id="path3441"
         inkscape:connector-curvature="0" /><path
         d="m 3973.13,2123.33 0,-611.25"
         style="fill:none;stroke:#000000;stroke-width:4.07499981;stroke-linecap:butt;stroke-linejoin:miter;stroke-miterlimit:4;stroke-dasharray:none;stroke-opacity:1"
         id="path3443"
         inkscape:connector-curvature="0" /><path
         d="m 4278.75,1817.7 -611.25,0"
         style="fill:none;stroke:#000000;stroke-width:4.07499981;stroke-linecap:butt;stroke-linejoin:miter;stroke-miterlimit:4;stroke-dasharray:none;stroke-opacity:1"
         id="path3445"
         inkscape:connector-curvature="0" /><path
         d="m 7335,1222.5 0,-611.25"
         style="fill:none;stroke:#000000;stroke-width:4.07499981;stroke-linecap:butt;stroke-linejoin:miter;stroke-miterlimit:4;stroke-dasharray:none;stroke-opacity:1"
         id="path3447"
         inkscape:connector-curvature="0" /><path
         d="m 7640.63,916.875 -611.25,0"
         style="fill:none;stroke:#000000;stroke-width:4.07499981;stroke-linecap:butt;stroke-linejoin:miter;stroke-miterlimit:4;stroke-dasharray:none;stroke-opacity:1"
         id="path3449"
         inkscape:connector-curvature="0" /><path
         d="m 10696.9,2123.33 0,-611.25"
         style="fill:none;stroke:#000000;stroke-width:4.07499981;stroke-linecap:butt;stroke-linejoin:miter;stroke-miterlimit:4;stroke-dasharray:none;stroke-opacity:1"
         id="path3451"
         inkscape:connector-curvature="0" /><path
         d="m 11002.5,1817.7 -611.2,0"
         style="fill:none;stroke:#000000;stroke-width:4.07499981;stroke-linecap:butt;stroke-linejoin:miter;stroke-miterlimit:4;stroke-dasharray:none;stroke-opacity:1"
         id="path3453"
         inkscape:connector-curvature="0" /><path
         d="m 13158,4584.38 0,-611.25"
         style="fill:none;stroke:#000000;stroke-width:4.07499981;stroke-linecap:butt;stroke-linejoin:miter;stroke-miterlimit:4;stroke-dasharray:none;stroke-opacity:1"
         id="path3455"
         inkscape:connector-curvature="0" /><path
         d="m 13463.6,4278.75 -611.2,0"
         style="fill:none;stroke:#000000;stroke-width:4.07499981;stroke-linecap:butt;stroke-linejoin:miter;stroke-miterlimit:4;stroke-dasharray:none;stroke-opacity:1"
         id="path3457"
         inkscape:connector-curvature="0" /><path
         d="m 13158,11308.1 0,-611.2"
         style="fill:none;stroke:#000000;stroke-width:4.07499981;stroke-linecap:butt;stroke-linejoin:miter;stroke-miterlimit:4;stroke-dasharray:none;stroke-opacity:1"
         id="path3459"
         inkscape:connector-curvature="0" /><path
         d="m 13463.6,11002.5 -611.2,0"
         style="fill:none;stroke:#000000;stroke-width:4.07499981;stroke-linecap:butt;stroke-linejoin:miter;stroke-miterlimit:4;stroke-dasharray:none;stroke-opacity:1"
         id="path3461"
         inkscape:connector-curvature="0" /><path
         d="m 14058.8,7946.25 0,-611.25"
         style="fill:none;stroke:#000000;stroke-width:4.07499981;stroke-linecap:butt;stroke-linejoin:miter;stroke-miterlimit:4;stroke-dasharray:none;stroke-opacity:1"
         id="path3463"
         inkscape:connector-curvature="0" /><path
         d="m 14364.4,7640.63 -611.3,0"
         style="fill:none;stroke:#000000;stroke-width:4.07499981;stroke-linecap:butt;stroke-linejoin:miter;stroke-miterlimit:4;stroke-dasharray:none;stroke-opacity:1"
         id="path3465"
         inkscape:connector-curvature="0" /><path
         d="M 3285.47,11365.9 C 2351.11,10350.5 1832.56,9021.03 1832.56,7640.63"
         style="fill:none;stroke:#000000;stroke-width:4.07499981;stroke-linecap:butt;stroke-linejoin:miter;stroke-miterlimit:4;stroke-dasharray:none;stroke-opacity:1"
         id="path3467"
         inkscape:connector-curvature="0" /><path
         d="m 12837.1,7640.63 c 0,1380.4 -517.9,2709.87 -1452.6,3725.27"
         style="fill:none;stroke:#000000;stroke-width:4.07499981;stroke-linecap:butt;stroke-linejoin:miter;stroke-miterlimit:4;stroke-dasharray:none;stroke-opacity:1"
         id="path3469"
         inkscape:connector-curvature="0" /><path
         d="m 1833.75,7640.63 c 0,-1136.68 888.77,-2200.76 2377.34,-2846.14"
         style="fill:none;stroke:#000000;stroke-width:4.07499981;stroke-linecap:butt;stroke-linejoin:miter;stroke-miterlimit:4;stroke-dasharray:none;stroke-opacity:1"
         id="path3471"
         inkscape:connector-curvature="0" /><path
         d="m 4211.09,4794.49 c 1903.7,-825.53 4425.36,-814.4 6310.91,27.68"
         style="fill:none;stroke:#000000;stroke-width:4.07499981;stroke-linecap:butt;stroke-linejoin:miter;stroke-miterlimit:4;stroke-dasharray:none;stroke-opacity:1"
         id="path3473"
         inkscape:connector-curvature="0" /><path
         d="m 10522,4822.17 c 1451.7,648.6 2314.3,1698.85 2314.3,2818.46"
         style="fill:none;stroke:#000000;stroke-width:4.07499981;stroke-linecap:butt;stroke-linejoin:miter;stroke-miterlimit:4;stroke-dasharray:none;stroke-opacity:1"
         id="path3475"
         inkscape:connector-curvature="0" /><path
         d="m 2674.22,10601.8 0,534.8 382.03,0"
         style="fill:none;stroke:#000000;stroke-width:4.07499981;stroke-linecap:butt;stroke-linejoin:miter;stroke-miterlimit:4;stroke-dasharray:none;stroke-opacity:1"
         id="path3477"
         inkscape:connector-curvature="0" /><path
         d="m 11995.8,10601.8 0,534.8 -382,0"
         style="fill:none;stroke:#000000;stroke-width:4.07499981;stroke-linecap:butt;stroke-linejoin:miter;stroke-miterlimit:4;stroke-dasharray:none;stroke-opacity:1"
         id="path3479"
         inkscape:connector-curvature="0" /></g></g></svg>