  0
SECTION
2
HEADER
  9
$ACADVER
  1
AC1009
  9
$EXTMIN
 10
-13.090
20
-15.000
  9
$EXTMAX
 10
13.187
 20
9.000 
  9
$LIMMIN
 10
-13.090
20
-15.000
  9
$LIMMAX
 10
13.187
 20
9.000 
  9
$CLAYER
  8
1
  0
ENDSEC
  0
SECTION
  2
TABLES
  0
TABLE
  2
LAYER
 70
1
  0
LAYER
  2
1
 70
64
 62
1
  6
CONTINUOUS
  0
ENDTAB
  0
ENDSEC
  0
SECTION
  2
ENTITIES
  0
ARC
  8
1
 10
-3.55271e-015
 20
0
 40
12
 50
226.685
 51
403.209
  0
POLYLINE
  8
1
 66
1
  0
VERTEX
  8
1
 10
-9
 20
0
  0
VERTEX
  8
1
 10
-8.95353
 20
-0.613465
  0
VERTEX
  8
1
 10
-8.81715
 20
-1.20921
  0
VERTEX
  8
1
 10
-8.59538
 20
-1.78422
  0
VERTEX
  8
1
 10
-8.29274
 20
-2.33547
  0
VERTEX
  8
1
 10
-7.91375
 20
-2.85996
  0
VERTEX
  8
1
 10
-7.46294
 20
-3.35466
  0
VERTEX
  8
1
 10
-6.94484
 20
-3.81656
  0
VERTEX
  8
1
 10
-6.36396
 20
-4.24264
  0
VERTEX
  8
1
 10
-5.72484
 20
-4.62989
  0
VERTEX
  8
1
 10
-5.03199
 20
-4.97529
  0
VERTEX
  8
1
 10
-4.28993
 20
-5.27583
  0
VERTEX
  8
1
 10
-3.50321
 20
-5.52849
  0
VERTEX
  8
1
 10
-2.67632
 20
-5.73025
  0
VERTEX
  8
1
 10
-1.81381
 20
-5.8781
  0
VERTEX
  8
1
 10
-0.920197
 20
-5.96902
  0
VERTEX
  8
1
 10
3.93403e-007
 20
-6
  0
VERTEX
  8
1
 10
0.920198
 20
-5.96902
  0
VERTEX
  8
1
 10
1.81381
 20
-5.8781
  0
VERTEX
  8
1
 10
2.67633
 20
-5.73025
  0
VERTEX
  8
1
 10
3.50321
 20
-5.52849
  0
VERTEX
  8
1
 10
4.28993
 20
-5.27583
  0
VERTEX
  8
1
 10
5.03199
 20
-4.97529
  0
VERTEX
  8
1
 10
5.72484
 20
-4.62989
  0
VERTEX
  8
1
 10
6.36396
 20
-4.24264
  0
VERTEX
  8
1
 10
6.94484
 20
-3.81656
  0
VERTEX
  8
1
 10
7.46294
 20
-3.35466
  0
VERTEX
  8
1
 10
7.91375
 20
-2.85996
  0
VERTEX
  8
1
 10
8.29274
 20
-2.33547
  0
VERTEX
  8
1
 10
8.59538
 20
-1.78422
  0
VERTEX
  8
1
 10
8.81715
 20
-1.20921
  0
VERTEX
  8
1
 10
8.95353
 20
-0.613465
  0
VERTEX
  8
1
 10
9
 20
5.24537e-007
  0
SEQEND
  0
ARC
  8
1
 10
-3.55271e-015
 20
0
 40
12
 50
136.685
 51
223.315
  0
POLYLINE
  8
1
 66
1
  0
VERTEX
  8
1
 10
-8.72055
 20
-8.21897
  0
VERTEX
  8
1
 10
-6.97377
 20
-6.45118
  0
VERTEX
  8
1
 10
-6.4373
 20
-6.98654
  0
VERTEX
  8
1
 10
-8.21597
 20
-8.7463
  0
SEQEND
  0
POLYLINE
  8
1
 66
1
  0
VERTEX
  8
1
 10
4.78791
 20
-5.31824
  0
VERTEX
  8
1
 10
6.44728
 20
-6.97761
  0
VERTEX
  8
1
 10
6.97752
 20
-6.44719
  0
VERTEX
  8
1
 10
5.26123
 20
-4.73875
  0
SEQEND
  0
POLYLINE
  8
1
 66
1
  0
VERTEX
  8
1
 10
-8.21597
 20
8.7463
  0
VERTEX
  8
1
 10
-8.74632
 20
8.21599
  0
SEQEND
  0
POLYLINE
  8
1
 66
1
  0
VERTEX
  8
1
 10
-7.68564
 20
8.21597
  0
VERTEX
  8
1
 10
-8.21599
 20
7.68566
  0
SEQEND
  0
POLYLINE
  8
1
 66
1
  0
VERTEX
  8
1
 10
7.68564
 20
8.21597
  0
VERTEX
  8
1
 10
8.21599
 20
7.68566
  0
SEQEND
  0
POLYLINE
  8
1
 66
1
  0
VERTEX
  8
1
 10
-7.15531
 20
7.68564
  0
VERTEX
  8
1
 10
-7.68566
 20
7.15533
  0
SEQEND
  0
POLYLINE
  8
1
 66
1
  0
VERTEX
  8
1
 10
7.15531
 20
7.68564
  0
VERTEX
  8
1
 10
7.68566
 20
7.15533
  0
SEQEND
  0
POLYLINE
  8
1
 66
1
  0
VERTEX
  8
1
 10
-6.62498
 20
7.15531
  0
VERTEX
  8
1
 10
-7.15533
 20
6.625
  0
SEQEND
  0
POLYLINE
  8
1
 66
1
  0
VERTEX
  8
1
 10
6.62498
 20
7.15531
  0
VERTEX
  8
1
 10
7.15533
 20
6.625
  0
SEQEND
  0
POLYLINE
  8
1
 66
1
  0
VERTEX
  8
1
 10
-8.21599
 20
7.68566
  0
VERTEX
  8
1
 10
-7.68566
 20
7.15533
  0
SEQEND
  0
POLYLINE
  8
1
 66
1
  0
VERTEX
  8
1
 10
-7.15531
 20
7.68564
  0
VERTEX
  8
1
 10
-6.62498
 20
7.15531
  0
SEQEND
  0
POLYLINE
  8
1
 66
1
  0
VERTEX
  8
1
 10
-7.15533
 20
6.625
  0
VERTEX
  8
1
 10
-6.625
 20
6.09467
  0
SEQEND
  0
POLYLINE
  8
1
 66
1
  0
VERTEX
  8
1
 10
8.74632
 20
8.21599
  0
VERTEX
  8
1
 10
8.21599
 20
7.68566
  0
SEQEND
  0
POLYLINE
  8
1
 66
1
  0
VERTEX
  8
1
 10
7.68564
 20
8.21597
  0
VERTEX
  8
1
 10
7.15531
 20
7.68564
  0
SEQEND
  0
POLYLINE
  8
1
 66
1
  0
VERTEX
  8
1
 10
7.68566
 20
7.15533
  0
VERTEX
  8
1
 10
7.15533
 20
6.625
  0
SEQEND
  0
POLYLINE
  8
1
 66
1
  0
VERTEX
  8
1
 10
6.62498
 20
7.15531
  0
VERTEX
  8
1
 10
6.09465
 20
6.62498
  0
SEQEND
  0
POLYLINE
  8
1
 66
1
  0
VERTEX
  8
1
 10
-8.21597
 20
8.7463
  0
VERTEX
  8
1
 10
-7.68564
 20
8.21597
  0
SEQEND
  0
POLYLINE
  8
1
 66
1
  0
VERTEX
  8
1
 10
6.09465
 20
6.62498
  0
VERTEX
  8
1
 10
6.625
 20
6.09467
  0
SEQEND
  0
CIRCLE
  8
1
 10
-11
 20
1.77636e-015
 40
0.25
  0
CIRCLE
  8
1
 10
-9.52628
 20
5.5
 40
0.25
  0
CIRCLE
  8
1
 10
9.52628
 20
5.5
 40
0.25
  0
CIRCLE
  8
1
 10
11
 20
-1.77636e-015
 40
0.25
  0
CIRCLE
  8
1
 10
9.52628
 20
-5.5
 40
0.25
  0
CIRCLE
  8
1
 10
0
 20
-11
 40
0.25
  0
CIRCLE
  8
1
 10
-5.5
 20
-9.52628
 40
0.25
  0
CIRCLE
  8
1
 10
-9.52628
 20
-5.5
 40
0.25
  0
CIRCLE
  8
1
 10
-11
 20
-7.10543e-015
 40
0.25
  0
CIRCLE
  8
1
 10
-9.52628
 20
5.5
 40
0.25
  0
POINT
  8
1
 10
-9.52628
 20
5.5
  0
POINT
  8
1
 10
-11
 20
-7.10543e-015
  0
POINT
  8
1
 10
-9.52628
 20
-5.5
  0
POINT
  8
1
 10
-5.5
 20
-9.52628
  0
POINT
  8
1
 10
0
 20
-11
  0
POINT
  8
1
 10
5.5
 20
-9.52628
  0
POINT
  8
1
 10
9.52628
 20
-5.5
  0
POINT
  8
1
 10
9.52628
 20
5.5
  0
POINT
  8
1
 10
11
 20
-1.77636e-015
  0
ARC
  8
1
 10
-3.55271e-015
 20
0
 40
9.00198
 50
137.387
 51
180
  0
ARC
  8
1
 10
-3.55271e-015
 20
0
 40
9.00198
 50
0
 51
42.6125
  0
POLYLINE
  8
1
 66
1
  0
VERTEX
  8
1
 10
-7.45811
 20
4.96967
  0
VERTEX
  8
1
 10
-7.45811
 20
5.71967
  0
VERTEX
  8
1
 10
-7
 20
5.71967
  0
SEQEND
  0
POLYLINE
  8
1
 66
1
  0
VERTEX
  8
1
 10
7.4186
 20
5.10046
  0
VERTEX
  8
1
 10
7.42365
 20
5.71967
  0
VERTEX
  8
1
 10
7
 20
5.71967
  0
SEQEND
  0
ARC
  8
1
 10
4.52604
 20
-5.58666
 40
0.375
 50
45.7066
 51
105.24
  0
ARC
  8
1
 10
5.38733
 20
-4.38561
 40
0.375
 50
-109.651
 51
-63.2967
  0
POLYLINE
  8
1
 66
1
  0
VERTEX
  8
1
 10
-4.99219
 20
-4.98828
  0
VERTEX
  8
1
 10
-5.25727
 20
-4.72308
  0
SEQEND
  0
POLYLINE
  8
1
 66
1
  0
VERTEX
  8
1
 10
-4.99219
 20
-4.98828
  0
VERTEX
  8
1
 10
-4.72511
 20
-5.25238
  0
SEQEND
  0
ARC
  8
1
 10
-5.4026
 20
-4.37739
 40
0.375
 50
-120.832
 51
-67.198
  0
ARC
  8
1
 10
-4.54284
 20
-5.5801
 40
0.375
 50
-294.551
 51
-240.917
  0
ARC
  8
1
 10
0
 20
0
 40
12
 50
223.307
 51
226.791
  0
CIRCLE
  8
1
 10
5.5
 20
-9.52628
 40
0.25
  0
ENDSEC
  0
EOF
