<?xml version="1.0" standalone="no"?>
<!DOCTYPE svg PUBLIC "-//W3C//DTD SVG 1.1//EN" "http://www.w3.org/Graphics/SVG/1.1/DTD/svg11.dtd">
<svg width="24" height="23" viewBox="-12 -11 24 23" xmlns="http://www.w3.org/2000/svg" version="1.1">
<title>OpenSCAD Model</title>
<path d="
M -11.9886,-0 L -11.9725,0.639669 L -11.9256,1.12522 L -11.8598,1.80512 L -11.8504,1.86872 L -11.8437,1.91414
 L -11.7792,2.20621 L -11.5652,3.17404 L -11.5212,3.3225 L -11.4636,3.51654 L -11.1494,4.40979 L -11.0209,4.70706
 L -10.8661,5.06524 L -10.7182,5.36514 L -10.5964,5.61197 L -10.1302,6.41446 L -9.89791,6.77145 L -9.59742,7.17265
 L -9.31177,7.55405 L -9.0413,7.87939 L -8.72055,8.21897 L -8.45875,8.49613 L -8.00815,8.92736 L -7.60746,9.26706
 L -7.2649,9.52941 L -6.78154,9.8996 L -6.77019,9.90739 L -6.23965,10.2318 L -5.97451,10.3939 L -5.2194,10.8049
 L -5.21309,10.8083 L -5.21074,10.8094 L -5.2053,10.812 L -4.47653,11.1222 L -4.11015,11.2571 L -3.77662,11.3799
 L -3.59784,11.4356 L -3.10617,11.5885 L -2.9259,11.6344 L -2.52628,11.7244 L -2.45621,11.7402 L -2.35973,11.7571
 L -1.82525,11.8508 L -1.4146,11.9022 L -1.20895,11.9279 L -0.847745,11.9551 L -0.60214,11.9735 L -0.266168,11.9819
 L 0,11.9886 L 0.266168,11.9819 L 0.60214,11.9735 L 0.847745,11.9551 L 1.20895,11.9279 L 1.4146,11.9022
 L 1.82525,11.8508 L 2.35973,11.7571 L 2.45621,11.7402 L 2.52628,11.7244 L 2.9259,11.6344 L 3.10617,11.5885
 L 3.59784,11.4356 L 3.77662,11.3799 L 4.11015,11.2571 L 4.47653,11.1222 L 5.2053,10.812 L 5.21074,10.8094
 L 5.21309,10.8083 L 5.2194,10.8049 L 5.97451,10.3939 L 6.23965,10.2318 L 6.77019,9.90739 L 6.78154,9.8996
 L 7.2649,9.52941 L 7.60746,9.26706 L 8.00815,8.92736 L 8.18777,8.75546 L 6.61263,7.17336 L 7.14423,6.64429
 L 8.71638,8.22338 L 8.72055,8.21897 L 9.0413,7.87939 L 9.31177,7.55405 L 9.59742,7.17265 L 9.89791,6.77145
 L 10.1302,6.41446 L 10.5964,5.61197 L 10.7182,5.36514 L 10.8661,5.06524 L 11.0209,4.70706 L 11.1494,4.40979
 L 11.4636,3.51654 L 11.5212,3.3225 L 11.5652,3.17404 L 11.7792,2.20621 L 11.8437,1.91414 L 11.8504,1.86872
 L 11.8598,1.80512 L 11.9256,1.12522 L 11.9725,0.639669 L 11.9886,-0 L 11.9725,-0.639668 L 11.9256,-1.12522
 L 11.8598,-1.80512 L 11.8504,-1.86872 L 11.8437,-1.91414 L 11.7792,-2.20621 L 11.5652,-3.17404 L 11.5212,-3.3225
 L 11.4636,-3.51654 L 11.1494,-4.40979 L 11.0209,-4.70706 L 10.8661,-5.06524 L 10.7182,-5.36514 L 10.5964,-5.61197
 L 10.1302,-6.41446 L 9.89791,-6.77145 L 9.59742,-7.17265 L 9.31177,-7.55405 L 9.0413,-7.87938 L 8.72055,-8.21897
 L 8.45875,-8.49613 L 8.00815,-8.92736 L 7.60746,-9.26706 L 7.2649,-9.52941 L 6.78154,-9.8996 L 6.77019,-9.90739
 L 6.23965,-10.2318 L 5.97451,-10.3939 L 5.2194,-10.8049 L 5.21309,-10.8083 L 5.21074,-10.8094 L 5.2053,-10.812
 L 4.93937,-10.9252 L 5.05857,-10.4879 L 5.29344,-9.3012 L 5.375,-9.30977 L 5.49454,-9.04129 L 5.34987,-8.91103
 L 5.47274,-7.98903 L 5.55728,-6.86827 L 5.56409,-6.77792 L 5.56627,-6.68008 L 5.5784,-6.13456 L 6.1954,-6.75428
 L 6.45071,-7.01072 L 6.50612,-7.06637 L 6.56028,-7.12078 L 6.61192,-7.17264 L 6.61263,-7.17336 L 7.13177,-6.65669
 L 7.14423,-6.64429 L 7.11866,-6.61861 L 7.09188,-6.59171 L 6.50652,-6.00376 L 5.57476,-5.06789 L 5.56235,-4.62139
 L 5.55925,-4.50987 L 5.55027,-4.39154 L 5.48034,-3.47016 L 5.37646,-2.62507 L 5.36097,-2.49903 L 5.33868,-2.36768
 L 5.208,-1.59759 L 5.0564,-0.898691 L 5.02744,-0.765198 L 4.99116,-0.628419 L 4.82447,-0 L 4.64584,0.566259
 L 4.60344,0.700663 L 4.55356,0.836096 L 4.36802,1.33992 L 4.17635,1.79139 L 4.12126,1.92114 L 4.05889,2.04963
 L 3.86565,2.44773 L 3.6698,2.8025 L 3.60323,2.92307 L 3.52986,3.04023 L 3.33563,3.35037 L 3.14077,3.62476
 L 3.06417,3.73263 L 2.98147,3.83514 L 2.78989,4.07263 L 2.59867,4.28043 L 2.51359,4.3729 L 2.42331,4.45834
 L 2.2359,4.63569 L 2.04927,4.78797 L 1.9573,4.86301 L 1.86115,4.92968 L 1.67812,5.0566 L 1.49588,5.16179
 L 1.39861,5.21793 L 1.29829,5.26469 L 1.11893,5.34827 L 0.940203,5.41239 L 0.839196,5.44862 L 0.736339,5.47477
 L 0.559451,5.51975 L 0.3829,5.54654 L 0.27972,5.5622 L 0.175918,5.56744 L 0,5.57632 L -0.175918,5.56744
 L -0.27972,5.5622 L -0.3829,5.54654 L -0.559451,5.51975 L -0.736339,5.47477 L -0.839196,5.44862 L -0.940203,5.41239
 L -1.11893,5.34827 L -1.29829,5.26469 L -1.39861,5.21793 L -1.49588,5.16179 L -1.67812,5.0566 L -1.86115,4.92968
 L -1.9573,4.86301 L -2.04927,4.78797 L -2.2359,4.63569 L -2.42331,4.45834 L -2.51359,4.3729 L -2.59867,4.28043
 L -2.78989,4.07263 L -2.98147,3.83514 L -3.06417,3.73263 L -3.11532,3.6606 L -6.1954,6.75428 L -6.45071,7.01072
 L -6.50612,7.06637 L -6.56028,7.12078 L -6.61192,7.17264 L -6.61263,7.17336 L -7.13177,6.65669 L -7.14423,6.64429
 L -7.11866,6.61861 L -7.09188,6.59171 L -6.50652,6.00376 L -3.53996,3.0241 L -3.60323,2.92307 L -3.6698,2.8025
 L -3.86565,2.44773 L -4.05889,2.04963 L -4.12126,1.92114 L -4.17635,1.79139 L -4.36802,1.33992 L -4.55356,0.836096
 L -4.60344,0.700663 L -4.64584,0.566259 L -4.82447,-0 L -4.99116,-0.628419 L -5.02744,-0.765198 L -5.0564,-0.898691
 L -5.208,-1.59759 L -5.33868,-2.36768 L -5.36097,-2.49903 L -5.37646,-2.62507 L -5.48034,-3.47016 L -5.55027,-4.39154
 L -5.55925,-4.50987 L -5.56235,-4.62139 L -5.58997,-5.61467 L -5.56627,-6.68008 L -5.56409,-6.77792 L -5.55728,-6.86827
 L -5.47274,-7.98903 L -5.34987,-8.91103 L -5.49454,-9.04129 L -5.375,-9.30977 L -5.29344,-9.3012 L -5.05857,-10.4879
 L -4.93937,-10.9252 L -5.2053,-10.812 L -5.21074,-10.8094 L -5.21309,-10.8083 L -5.2194,-10.8049 L -5.97451,-10.3939
 L -6.23965,-10.2318 L -6.77019,-9.90739 L -6.78154,-9.8996 L -7.2649,-9.52941 L -7.60746,-9.26706 L -8.00815,-8.92736
 L -8.18777,-8.75546 L -6.61263,-7.17336 L -7.14423,-6.64429 L -8.71638,-8.22338 L -8.72055,-8.21897 L -9.0413,-7.87938
 L -9.31177,-7.55405 L -9.59742,-7.17265 L -9.89791,-6.77145 L -10.1302,-6.41446 L -10.5964,-5.61197 L -10.7182,-5.36514
 L -10.8661,-5.06524 L -11.0209,-4.70706 L -11.1494,-4.40979 L -11.4636,-3.51654 L -11.5212,-3.3225 L -11.5652,-3.17404
 L -11.7792,-2.20621 L -11.8437,-1.91414 L -11.8504,-1.86872 L -11.8598,-1.80512 L -11.9256,-1.12522 L -11.9725,-0.639668
 z
M -10.75,-0 L -10.5773,-0.237763 L -10.2977,-0.146946 L -10.2977,0.146946 L -10.5773,0.237763 z
M -9.30977,5.375 L -9.27905,5.08272 L -8.99158,5.02161 L -8.84464,5.27613 L -9.04129,5.49454 z
M -9.30977,-5.375 L -9.04129,-5.49454 L -8.84464,-5.27613 L -8.99158,-5.02161 L -9.27905,-5.08272 z
M -5.49454,9.04129 L -5.27613,8.84464 L -5.02161,8.99158 L -5.08272,9.27905 L -5.375,9.30977 z
M -0.237763,10.5773 L -0.146946,10.2977 L 0.146946,10.2977 L 0.237763,10.5773 L 0,10.75 z
M 5.02161,8.99158 L 5.27613,8.84464 L 5.49454,9.04129 L 5.375,9.30977 L 5.08272,9.27905 z
M 8.84464,5.27613 L 8.99158,5.02161 L 9.27905,5.08272 L 9.30977,5.375 L 9.04129,5.49454 z
M 8.84464,-5.27613 L 9.04129,-5.49454 L 9.30977,-5.375 L 9.27905,-5.08272 L 8.99158,-5.02161 z
M 10.2977,0.146946 L 10.2977,-0.146946 L 10.5773,-0.237763 L 10.75,-0 L 10.5773,0.237763 z
" stroke="black" fill="lightgray" stroke-width="0.5"/></svg>
