  0
SECTION
  2
BLOCKS
  0
ENDSEC
  0
SECTION
  2
ENTITIES
  0
LINE
  8
0
 10
-11.9886
 20
0
 11
-11.9725
 21
-0.639669
  0
LINE
  8
0
 10
-11.9725
 20
-0.639669
 11
-11.9256
 21
-1.12522
  0
LINE
  8
0
 10
-11.9256
 20
-1.12522
 11
-11.8598
 21
-1.80512
  0
LINE
  8
0
 10
-11.8598
 20
-1.80512
 11
-11.8504
 21
-1.86872
  0
LINE
  8
0
 10
-11.8504
 20
-1.86872
 11
-11.8437
 21
-1.91414
  0
LINE
  8
0
 10
-11.8437
 20
-1.91414
 11
-11.7792
 21
-2.20621
  0
LINE
  8
0
 10
-11.7792
 20
-2.20621
 11
-11.5652
 21
-3.17404
  0
LINE
  8
0
 10
-11.5652
 20
-3.17404
 11
-11.5212
 21
-3.3225
  0
LINE
  8
0
 10
-11.5212
 20
-3.3225
 11
-11.4636
 21
-3.51654
  0
LINE
  8
0
 10
-11.4636
 20
-3.51654
 11
-11.1494
 21
-4.40979
  0
LINE
  8
0
 10
-11.1494
 20
-4.40979
 11
-11.0209
 21
-4.70706
  0
LINE
  8
0
 10
-11.0209
 20
-4.70706
 11
-10.8661
 21
-5.06524
  0
LINE
  8
0
 10
-10.8661
 20
-5.06524
 11
-10.7182
 21
-5.36514
  0
LINE
  8
0
 10
-10.7182
 20
-5.36514
 11
-10.5964
 21
-5.61197
  0
LINE
  8
0
 10
-10.5964
 20
-5.61197
 11
-10.1302
 21
-6.41446
  0
LINE
  8
0
 10
-10.1302
 20
-6.41446
 11
-9.89791
 21
-6.77145
  0
LINE
  8
0
 10
-9.89791
 20
-6.77145
 11
-9.59742
 21
-7.17265
  0
LINE
  8
0
 10
-9.59742
 20
-7.17265
 11
-9.31177
 21
-7.55405
  0
LINE
  8
0
 10
-9.31177
 20
-7.55405
 11
-9.0413
 21
-7.87939
  0
LINE
  8
0
 10
-9.0413
 20
-7.87939
 11
-8.72055
 21
-8.21897
  0
LINE
  8
0
 10
-8.72055
 20
-8.21897
 11
-8.45875
 21
-8.49613
  0
LINE
  8
0
 10
-8.45875
 20
-8.49613
 11
-8.00815
 21
-8.92736
  0
LINE
  8
0
 10
-8.00815
 20
-8.92736
 11
-7.60746
 21
-9.26706
  0
LINE
  8
0
 10
-7.60746
 20
-9.26706
 11
-7.2649
 21
-9.52941
  0
LINE
  8
0
 10
-7.2649
 20
-9.52941
 11
-6.78154
 21
-9.8996
  0
LINE
  8
0
 10
-6.78154
 20
-9.8996
 11
-6.77019
 21
-9.90739
  0
LINE
  8
0
 10
-6.77019
 20
-9.90739
 11
-6.23965
 21
-10.2318
  0
LINE
  8
0
 10
-6.23965
 20
-10.2318
 11
-5.97451
 21
-10.3939
  0
LINE
  8
0
 10
-5.97451
 20
-10.3939
 11
-5.2194
 21
-10.8049
  0
LINE
  8
0
 10
-5.2194
 20
-10.8049
 11
-5.21309
 21
-10.8083
  0
LINE
  8
0
 10
-5.21309
 20
-10.8083
 11
-5.21074
 21
-10.8094
  0
LINE
  8
0
 10
-5.21074
 20
-10.8094
 11
-5.2053
 21
-10.812
  0
LINE
  8
0
 10
-5.2053
 20
-10.812
 11
-4.47653
 21
-11.1222
  0
LINE
  8
0
 10
-4.47653
 20
-11.1222
 11
-4.11015
 21
-11.2571
  0
LINE
  8
0
 10
-4.11015
 20
-11.2571
 11
-3.77662
 21
-11.3799
  0
LINE
  8
0
 10
-3.77662
 20
-11.3799
 11
-3.59784
 21
-11.4356
  0
LINE
  8
0
 10
-3.59784
 20
-11.4356
 11
-3.10617
 21
-11.5885
  0
LINE
  8
0
 10
-3.10617
 20
-11.5885
 11
-2.9259
 21
-11.6344
  0
LINE
  8
0
 10
-2.9259
 20
-11.6344
 11
-2.52628
 21
-11.7244
  0
LINE
  8
0
 10
-2.52628
 20
-11.7244
 11
-2.45621
 21
-11.7402
  0
LINE
  8
0
 10
-2.45621
 20
-11.7402
 11
-2.35973
 21
-11.7571
  0
LINE
  8
0
 10
-2.35973
 20
-11.7571
 11
-1.82525
 21
-11.8508
  0
LINE
  8
0
 10
-1.82525
 20
-11.8508
 11
-1.4146
 21
-11.9022
  0
LINE
  8
0
 10
-1.4146
 20
-11.9022
 11
-1.20895
 21
-11.9279
  0
LINE
  8
0
 10
-1.20895
 20
-11.9279
 11
-0.847745
 21
-11.9551
  0
LINE
  8
0
 10
-0.847745
 20
-11.9551
 11
-0.60214
 21
-11.9735
  0
LINE
  8
0
 10
-0.60214
 20
-11.9735
 11
-0.266168
 21
-11.9819
  0
LINE
  8
0
 10
-0.266168
 20
-11.9819
 11
0
 21
-11.9886
  0
LINE
  8
0
 10
0
 20
-11.9886
 11
0.266168
 21
-11.9819
  0
LINE
  8
0
 10
0.266168
 20
-11.9819
 11
0.60214
 21
-11.9735
  0
LINE
  8
0
 10
0.60214
 20
-11.9735
 11
0.847745
 21
-11.9551
  0
LINE
  8
0
 10
0.847745
 20
-11.9551
 11
1.20895
 21
-11.9279
  0
LINE
  8
0
 10
1.20895
 20
-11.9279
 11
1.4146
 21
-11.9022
  0
LINE
  8
0
 10
1.4146
 20
-11.9022
 11
1.82525
 21
-11.8508
  0
LINE
  8
0
 10
1.82525
 20
-11.8508
 11
2.35973
 21
-11.7571
  0
LINE
  8
0
 10
2.35973
 20
-11.7571
 11
2.45621
 21
-11.7402
  0
LINE
  8
0
 10
2.45621
 20
-11.7402
 11
2.52628
 21
-11.7244
  0
LINE
  8
0
 10
2.52628
 20
-11.7244
 11
2.9259
 21
-11.6344
  0
LINE
  8
0
 10
2.9259
 20
-11.6344
 11
3.10617
 21
-11.5885
  0
LINE
  8
0
 10
3.10617
 20
-11.5885
 11
3.59784
 21
-11.4356
  0
LINE
  8
0
 10
3.59784
 20
-11.4356
 11
3.77662
 21
-11.3799
  0
LINE
  8
0
 10
3.77662
 20
-11.3799
 11
4.11015
 21
-11.2571
  0
LINE
  8
0
 10
4.11015
 20
-11.2571
 11
4.47653
 21
-11.1222
  0
LINE
  8
0
 10
4.47653
 20
-11.1222
 11
5.2053
 21
-10.812
  0
LINE
  8
0
 10
5.2053
 20
-10.812
 11
5.21074
 21
-10.8094
  0
LINE
  8
0
 10
5.21074
 20
-10.8094
 11
5.21309
 21
-10.8083
  0
LINE
  8
0
 10
5.21309
 20
-10.8083
 11
5.2194
 21
-10.8049
  0
LINE
  8
0
 10
5.2194
 20
-10.8049
 11
5.97451
 21
-10.3939
  0
LINE
  8
0
 10
5.97451
 20
-10.3939
 11
6.23965
 21
-10.2318
  0
LINE
  8
0
 10
6.23965
 20
-10.2318
 11
6.77019
 21
-9.90739
  0
LINE
  8
0
 10
6.77019
 20
-9.90739
 11
6.78154
 21
-9.8996
  0
LINE
  8
0
 10
6.78154
 20
-9.8996
 11
7.2649
 21
-9.52941
  0
LINE
  8
0
 10
7.2649
 20
-9.52941
 11
7.60746
 21
-9.26706
  0
LINE
  8
0
 10
7.60746
 20
-9.26706
 11
8.00815
 21
-8.92736
  0
LINE
  8
0
 10
8.00815
 20
-8.92736
 11
8.18777
 21
-8.75546
  0
LINE
  8
0
 10
8.18777
 20
-8.75546
 11
6.61263
 21
-7.17336
  0
LINE
  8
0
 10
6.61263
 20
-7.17336
 11
7.14423
 21
-6.64429
  0
LINE
  8
0
 10
7.14423
 20
-6.64429
 11
8.71638
 21
-8.22338
  0
LINE
  8
0
 10
8.71638
 20
-8.22338
 11
8.72055
 21
-8.21897
  0
LINE
  8
0
 10
8.72055
 20
-8.21897
 11
9.0413
 21
-7.87939
  0
LINE
  8
0
 10
9.0413
 20
-7.87939
 11
9.31177
 21
-7.55405
  0
LINE
  8
0
 10
9.31177
 20
-7.55405
 11
9.59742
 21
-7.17265
  0
LINE
  8
0
 10
9.59742
 20
-7.17265
 11
9.89791
 21
-6.77145
  0
LINE
  8
0
 10
9.89791
 20
-6.77145
 11
10.1302
 21
-6.41446
  0
LINE
  8
0
 10
10.1302
 20
-6.41446
 11
10.5964
 21
-5.61197
  0
LINE
  8
0
 10
10.5964
 20
-5.61197
 11
10.7182
 21
-5.36514
  0
LINE
  8
0
 10
10.7182
 20
-5.36514
 11
10.8661
 21
-5.06524
  0
LINE
  8
0
 10
10.8661
 20
-5.06524
 11
11.0209
 21
-4.70706
  0
LINE
  8
0
 10
11.0209
 20
-4.70706
 11
11.1494
 21
-4.40979
  0
LINE
  8
0
 10
11.1494
 20
-4.40979
 11
11.4636
 21
-3.51654
  0
LINE
  8
0
 10
11.4636
 20
-3.51654
 11
11.5212
 21
-3.3225
  0
LINE
  8
0
 10
11.5212
 20
-3.3225
 11
11.5652
 21
-3.17404
  0
LINE
  8
0
 10
11.5652
 20
-3.17404
 11
11.7792
 21
-2.20621
  0
LINE
  8
0
 10
11.7792
 20
-2.20621
 11
11.8437
 21
-1.91414
  0
LINE
  8
0
 10
11.8437
 20
-1.91414
 11
11.8504
 21
-1.86872
  0
LINE
  8
0
 10
11.8504
 20
-1.86872
 11
11.8598
 21
-1.80512
  0
LINE
  8
0
 10
11.8598
 20
-1.80512
 11
11.9256
 21
-1.12522
  0
LINE
  8
0
 10
11.9256
 20
-1.12522
 11
11.9725
 21
-0.639669
  0
LINE
  8
0
 10
11.9725
 20
-0.639669
 11
11.9886
 21
0
  0
LINE
  8
0
 10
11.9886
 20
0
 11
11.9725
 21
0.639668
  0
LINE
  8
0
 10
11.9725
 20
0.639668
 11
11.9256
 21
1.12522
  0
LINE
  8
0
 10
11.9256
 20
1.12522
 11
11.8598
 21
1.80512
  0
LINE
  8
0
 10
11.8598
 20
1.80512
 11
11.8504
 21
1.86872
  0
LINE
  8
0
 10
11.8504
 20
1.86872
 11
11.8437
 21
1.91414
  0
LINE
  8
0
 10
11.8437
 20
1.91414
 11
11.7792
 21
2.20621
  0
LINE
  8
0
 10
11.7792
 20
2.20621
 11
11.5652
 21
3.17404
  0
LINE
  8
0
 10
11.5652
 20
3.17404
 11
11.5212
 21
3.3225
  0
LINE
  8
0
 10
11.5212
 20
3.3225
 11
11.4636
 21
3.51654
  0
LINE
  8
0
 10
11.4636
 20
3.51654
 11
11.1494
 21
4.40979
  0
LINE
  8
0
 10
11.1494
 20
4.40979
 11
11.0209
 21
4.70706
  0
LINE
  8
0
 10
11.0209
 20
4.70706
 11
10.8661
 21
5.06524
  0
LINE
  8
0
 10
10.8661
 20
5.06524
 11
10.7182
 21
5.36514
  0
LINE
  8
0
 10
10.7182
 20
5.36514
 11
10.5964
 21
5.61197
  0
LINE
  8
0
 10
10.5964
 20
5.61197
 11
10.1302
 21
6.41446
  0
LINE
  8
0
 10
10.1302
 20
6.41446
 11
9.89791
 21
6.77145
  0
LINE
  8
0
 10
9.89791
 20
6.77145
 11
9.59742
 21
7.17265
  0
LINE
  8
0
 10
9.59742
 20
7.17265
 11
9.31177
 21
7.55405
  0
LINE
  8
0
 10
9.31177
 20
7.55405
 11
9.0413
 21
7.87938
  0
LINE
  8
0
 10
9.0413
 20
7.87938
 11
8.72055
 21
8.21897
  0
LINE
  8
0
 10
8.72055
 20
8.21897
 11
8.45875
 21
8.49613
  0
LINE
  8
0
 10
8.45875
 20
8.49613
 11
8.00815
 21
8.92736
  0
LINE
  8
0
 10
8.00815
 20
8.92736
 11
7.60746
 21
9.26706
  0
LINE
  8
0
 10
7.60746
 20
9.26706
 11
7.2649
 21
9.52941
  0
LINE
  8
0
 10
7.2649
 20
9.52941
 11
6.78154
 21
9.8996
  0
LINE
  8
0
 10
6.78154
 20
9.8996
 11
6.77019
 21
9.90739
  0
LINE
  8
0
 10
6.77019
 20
9.90739
 11
6.23965
 21
10.2318
  0
LINE
  8
0
 10
6.23965
 20
10.2318
 11
5.97451
 21
10.3939
  0
LINE
  8
0
 10
5.97451
 20
10.3939
 11
5.2194
 21
10.8049
  0
LINE
  8
0
 10
5.2194
 20
10.8049
 11
5.21309
 21
10.8083
  0
LINE
  8
0
 10
5.21309
 20
10.8083
 11
5.21074
 21
10.8094
  0
LINE
  8
0
 10
5.21074
 20
10.8094
 11
5.2053
 21
10.812
  0
LINE
  8
0
 10
5.2053
 20
10.812
 11
4.93937
 21
10.9252
  0
LINE
  8
0
 10
4.93937
 20
10.9252
 11
5.05857
 21
10.4879
  0
LINE
  8
0
 10
5.05857
 20
10.4879
 11
5.29344
 21
9.3012
  0
LINE
  8
0
 10
5.29344
 20
9.3012
 11
5.375
 21
9.30977
  0
LINE
  8
0
 10
5.375
 20
9.30977
 11
5.49454
 21
9.04129
  0
LINE
  8
0
 10
5.49454
 20
9.04129
 11
5.34987
 21
8.91103
  0
LINE
  8
0
 10
5.34987
 20
8.91103
 11
5.47274
 21
7.98903
  0
LINE
  8
0
 10
5.47274
 20
7.98903
 11
5.55728
 21
6.86827
  0
LINE
  8
0
 10
5.55728
 20
6.86827
 11
5.56409
 21
6.77792
  0
LINE
  8
0
 10
5.56409
 20
6.77792
 11
5.56627
 21
6.68008
  0
LINE
  8
0
 10
5.56627
 20
6.68008
 11
5.5784
 21
6.13456
  0
LINE
  8
0
 10
5.5784
 20
6.13456
 11
6.1954
 21
6.75428
  0
LINE
  8
0
 10
6.1954
 20
6.75428
 11
6.45071
 21
7.01072
  0
LINE
  8
0
 10
6.45071
 20
7.01072
 11
6.50612
 21
7.06637
  0
LINE
  8
0
 10
6.50612
 20
7.06637
 11
6.56028
 21
7.12078
  0
LINE
  8
0
 10
6.56028
 20
7.12078
 11
6.61192
 21
7.17264
  0
LINE
  8
0
 10
6.61192
 20
7.17264
 11
6.61263
 21
7.17336
  0
LINE
  8
0
 10
6.61263
 20
7.17336
 11
7.13177
 21
6.65669
  0
LINE
  8
0
 10
7.13177
 20
6.65669
 11
7.14423
 21
6.64429
  0
LINE
  8
0
 10
7.14423
 20
6.64429
 11
7.11866
 21
6.61861
  0
LINE
  8
0
 10
7.11866
 20
6.61861
 11
7.09188
 21
6.59171
  0
LINE
  8
0
 10
7.09188
 20
6.59171
 11
6.50652
 21
6.00376
  0
LINE
  8
0
 10
6.50652
 20
6.00376
 11
5.57476
 21
5.06789
  0
LINE
  8
0
 10
5.57476
 20
5.06789
 11
5.56235
 21
4.62139
  0
LINE
  8
0
 10
5.56235
 20
4.62139
 11
5.55925
 21
4.50987
  0
LINE
  8
0
 10
5.55925
 20
4.50987
 11
5.55027
 21
4.39154
  0
LINE
  8
0
 10
5.55027
 20
4.39154
 11
5.48034
 21
3.47016
  0
LINE
  8
0
 10
5.48034
 20
3.47016
 11
5.37646
 21
2.62507
  0
LINE
  8
0
 10
5.37646
 20
2.62507
 11
5.36097
 21
2.49903
  0
LINE
  8
0
 10
5.36097
 20
2.49903
 11
5.33868
 21
2.36768
  0
LINE
  8
0
 10
5.33868
 20
2.36768
 11
5.208
 21
1.59759
  0
LINE
  8
0
 10
5.208
 20
1.59759
 11
5.0564
 21
0.898691
  0
LINE
  8
0
 10
5.0564
 20
0.898691
 11
5.02744
 21
0.765198
  0
LINE
  8
0
 10
5.02744
 20
0.765198
 11
4.99116
 21
0.628419
  0
LINE
  8
0
 10
4.99116
 20
0.628419
 11
4.82447
 21
0
  0
LINE
  8
0
 10
4.82447
 20
0
 11
4.64584
 21
-0.566259
  0
LINE
  8
0
 10
4.64584
 20
-0.566259
 11
4.60344
 21
-0.700663
  0
LINE
  8
0
 10
4.60344
 20
-0.700663
 11
4.55356
 21
-0.836096
  0
LINE
  8
0
 10
4.55356
 20
-0.836096
 11
4.36802
 21
-1.33992
  0
LINE
  8
0
 10
4.36802
 20
-1.33992
 11
4.17635
 21
-1.79139
  0
LINE
  8
0
 10
4.17635
 20
-1.79139
 11
4.12126
 21
-1.92114
  0
LINE
  8
0
 10
4.12126
 20
-1.92114
 11
4.05889
 21
-2.04963
  0
LINE
  8
0
 10
4.05889
 20
-2.04963
 11
3.86565
 21
-2.44773
  0
LINE
  8
0
 10
3.86565
 20
-2.44773
 11
3.6698
 21
-2.8025
  0
LINE
  8
0
 10
3.6698
 20
-2.8025
 11
3.60323
 21
-2.92307
  0
LINE
  8
0
 10
3.60323
 20
-2.92307
 11
3.52986
 21
-3.04023
  0
LINE
  8
0
 10
3.52986
 20
-3.04023
 11
3.33563
 21
-3.35037
  0
LINE
  8
0
 10
3.33563
 20
-3.35037
 11
3.14077
 21
-3.62476
  0
LINE
  8
0
 10
3.14077
 20
-3.62476
 11
3.06417
 21
-3.73263
  0
LINE
  8
0
 10
3.06417
 20
-3.73263
 11
2.98147
 21
-3.83514
  0
LINE
  8
0
 10
2.98147
 20
-3.83514
 11
2.78989
 21
-4.07263
  0
LINE
  8
0
 10
2.78989
 20
-4.07263
 11
2.59867
 21
-4.28043
  0
LINE
  8
0
 10
2.59867
 20
-4.28043
 11
2.51359
 21
-4.3729
  0
LINE
  8
0
 10
2.51359
 20
-4.3729
 11
2.42331
 21
-4.45834
  0
LINE
  8
0
 10
2.42331
 20
-4.45834
 11
2.2359
 21
-4.63569
  0
LINE
  8
0
 10
2.2359
 20
-4.63569
 11
2.04927
 21
-4.78797
  0
LINE
  8
0
 10
2.04927
 20
-4.78797
 11
1.9573
 21
-4.86301
  0
LINE
  8
0
 10
1.9573
 20
-4.86301
 11
1.86115
 21
-4.92968
  0
LINE
  8
0
 10
1.86115
 20
-4.92968
 11
1.67812
 21
-5.0566
  0
LINE
  8
0
 10
1.67812
 20
-5.0566
 11
1.49588
 21
-5.16179
  0
LINE
  8
0
 10
1.49588
 20
-5.16179
 11
1.39861
 21
-5.21793
  0
LINE
  8
0
 10
1.39861
 20
-5.21793
 11
1.29829
 21
-5.26469
  0
LINE
  8
0
 10
1.29829
 20
-5.26469
 11
1.11893
 21
-5.34827
  0
LINE
  8
0
 10
1.11893
 20
-5.34827
 11
0.940203
 21
-5.41239
  0
LINE
  8
0
 10
0.940203
 20
-5.41239
 11
0.839196
 21
-5.44862
  0
LINE
  8
0
 10
0.839196
 20
-5.44862
 11
0.736339
 21
-5.47477
  0
LINE
  8
0
 10
0.736339
 20
-5.47477
 11
0.559451
 21
-5.51975
  0
LINE
  8
0
 10
0.559451
 20
-5.51975
 11
0.3829
 21
-5.54654
  0
LINE
  8
0
 10
0.3829
 20
-5.54654
 11
0.27972
 21
-5.5622
  0
LINE
  8
0
 10
0.27972
 20
-5.5622
 11
0.175918
 21
-5.56744
  0
LINE
  8
0
 10
0.175918
 20
-5.56744
 11
0
 21
-5.57632
  0
LINE
  8
0
 10
0
 20
-5.57632
 11
-0.175918
 21
-5.56744
  0
LINE
  8
0
 10
-0.175918
 20
-5.56744
 11
-0.27972
 21
-5.5622
  0
LINE
  8
0
 10
-0.27972
 20
-5.5622
 11
-0.3829
 21
-5.54654
  0
LINE
  8
0
 10
-0.3829
 20
-5.54654
 11
-0.559451
 21
-5.51975
  0
LINE
  8
0
 10
-0.559451
 20
-5.51975
 11
-0.736339
 21
-5.47477
  0
LINE
  8
0
 10
-0.736339
 20
-5.47477
 11
-0.839196
 21
-5.44862
  0
LINE
  8
0
 10
-0.839196
 20
-5.44862
 11
-0.940203
 21
-5.41239
  0
LINE
  8
0
 10
-0.940203
 20
-5.41239
 11
-1.11893
 21
-5.34827
  0
LINE
  8
0
 10
-1.11893
 20
-5.34827
 11
-1.29829
 21
-5.26469
  0
LINE
  8
0
 10
-1.29829
 20
-5.26469
 11
-1.39861
 21
-5.21793
  0
LINE
  8
0
 10
-1.39861
 20
-5.21793
 11
-1.49588
 21
-5.16179
  0
LINE
  8
0
 10
-1.49588
 20
-5.16179
 11
-1.67812
 21
-5.0566
  0
LINE
  8
0
 10
-1.67812
 20
-5.0566
 11
-1.86115
 21
-4.92968
  0
LINE
  8
0
 10
-1.86115
 20
-4.92968
 11
-1.9573
 21
-4.86301
  0
LINE
  8
0
 10
-1.9573
 20
-4.86301
 11
-2.04927
 21
-4.78797
  0
LINE
  8
0
 10
-2.04927
 20
-4.78797
 11
-2.2359
 21
-4.63569
  0
LINE
  8
0
 10
-2.2359
 20
-4.63569
 11
-2.42331
 21
-4.45834
  0
LINE
  8
0
 10
-2.42331
 20
-4.45834
 11
-2.51359
 21
-4.3729
  0
LINE
  8
0
 10
-2.51359
 20
-4.3729
 11
-2.59867
 21
-4.28043
  0
LINE
  8
0
 10
-2.59867
 20
-4.28043
 11
-2.78989
 21
-4.07263
  0
LINE
  8
0
 10
-2.78989
 20
-4.07263
 11
-2.98147
 21
-3.83514
  0
LINE
  8
0
 10
-2.98147
 20
-3.83514
 11
-3.06417
 21
-3.73263
  0
LINE
  8
0
 10
-3.06417
 20
-3.73263
 11
-3.11532
 21
-3.6606
  0
LINE
  8
0
 10
-3.11532
 20
-3.6606
 11
-6.1954
 21
-6.75428
  0
LINE
  8
0
 10
-6.1954
 20
-6.75428
 11
-6.45071
 21
-7.01072
  0
LINE
  8
0
 10
-6.45071
 20
-7.01072
 11
-6.50612
 21
-7.06637
  0
LINE
  8
0
 10
-6.50612
 20
-7.06637
 11
-6.56028
 21
-7.12078
  0
LINE
  8
0
 10
-6.56028
 20
-7.12078
 11
-6.61192
 21
-7.17264
  0
LINE
  8
0
 10
-6.61192
 20
-7.17264
 11
-6.61263
 21
-7.17336
  0
LINE
  8
0
 10
-6.61263
 20
-7.17336
 11
-7.13177
 21
-6.65669
  0
LINE
  8
0
 10
-7.13177
 20
-6.65669
 11
-7.14423
 21
-6.64429
  0
LINE
  8
0
 10
-7.14423
 20
-6.64429
 11
-7.11866
 21
-6.61861
  0
LINE
  8
0
 10
-7.11866
 20
-6.61861
 11
-7.09188
 21
-6.59171
  0
LINE
  8
0
 10
-7.09188
 20
-6.59171
 11
-6.50652
 21
-6.00376
  0
LINE
  8
0
 10
-6.50652
 20
-6.00376
 11
-3.53996
 21
-3.0241
  0
LINE
  8
0
 10
-3.53996
 20
-3.0241
 11
-3.60323
 21
-2.92307
  0
LINE
  8
0
 10
-3.60323
 20
-2.92307
 11
-3.6698
 21
-2.8025
  0
LINE
  8
0
 10
-3.6698
 20
-2.8025
 11
-3.86565
 21
-2.44773
  0
LINE
  8
0
 10
-3.86565
 20
-2.44773
 11
-4.05889
 21
-2.04963
  0
LINE
  8
0
 10
-4.05889
 20
-2.04963
 11
-4.12126
 21
-1.92114
  0
LINE
  8
0
 10
-4.12126
 20
-1.92114
 11
-4.17635
 21
-1.79139
  0
LINE
  8
0
 10
-4.17635
 20
-1.79139
 11
-4.36802
 21
-1.33992
  0
LINE
  8
0
 10
-4.36802
 20
-1.33992
 11
-4.55356
 21
-0.836096
  0
LINE
  8
0
 10
-4.55356
 20
-0.836096
 11
-4.60344
 21
-0.700663
  0
LINE
  8
0
 10
-4.60344
 20
-0.700663
 11
-4.64584
 21
-0.566259
  0
LINE
  8
0
 10
-4.64584
 20
-0.566259
 11
-4.82447
 21
0
  0
LINE
  8
0
 10
-4.82447
 20
0
 11
-4.99116
 21
0.628419
  0
LINE
  8
0
 10
-4.99116
 20
0.628419
 11
-5.02744
 21
0.765198
  0
LINE
  8
0
 10
-5.02744
 20
0.765198
 11
-5.0564
 21
0.898691
  0
LINE
  8
0
 10
-5.0564
 20
0.898691
 11
-5.208
 21
1.59759
  0
LINE
  8
0
 10
-5.208
 20
1.59759
 11
-5.33868
 21
2.36768
  0
LINE
  8
0
 10
-5.33868
 20
2.36768
 11
-5.36097
 21
2.49903
  0
LINE
  8
0
 10
-5.36097
 20
2.49903
 11
-5.37646
 21
2.62507
  0
LINE
  8
0
 10
-5.37646
 20
2.62507
 11
-5.48034
 21
3.47016
  0
LINE
  8
0
 10
-5.48034
 20
3.47016
 11
-5.55027
 21
4.39154
  0
LINE
  8
0
 10
-5.55027
 20
4.39154
 11
-5.55925
 21
4.50987
  0
LINE
  8
0
 10
-5.55925
 20
4.50987
 11
-5.56235
 21
4.62139
  0
LINE
  8
0
 10
-5.56235
 20
4.62139
 11
-5.58997
 21
5.61467
  0
LINE
  8
0
 10
-5.58997
 20
5.61467
 11
-5.56627
 21
6.68008
  0
LINE
  8
0
 10
-5.56627
 20
6.68008
 11
-5.56409
 21
6.77792
  0
LINE
  8
0
 10
-5.56409
 20
6.77792
 11
-5.55728
 21
6.86827
  0
LINE
  8
0
 10
-5.55728
 20
6.86827
 11
-5.47274
 21
7.98903
  0
LINE
  8
0
 10
-5.47274
 20
7.98903
 11
-5.34987
 21
8.91103
  0
LINE
  8
0
 10
-5.34987
 20
8.91103
 11
-5.49454
 21
9.04129
  0
LINE
  8
0
 10
-5.49454
 20
9.04129
 11
-5.375
 21
9.30977
  0
LINE
  8
0
 10
-5.375
 20
9.30977
 11
-5.29344
 21
9.3012
  0
LINE
  8
0
 10
-5.29344
 20
9.3012
 11
-5.05857
 21
10.4879
  0
LINE
  8
0
 10
-5.05857
 20
10.4879
 11
-4.93937
 21
10.9252
  0
LINE
  8
0
 10
-4.93937
 20
10.9252
 11
-5.2053
 21
10.812
  0
LINE
  8
0
 10
-5.2053
 20
10.812
 11
-5.21074
 21
10.8094
  0
LINE
  8
0
 10
-5.21074
 20
10.8094
 11
-5.21309
 21
10.8083
  0
LINE
  8
0
 10
-5.21309
 20
10.8083
 11
-5.2194
 21
10.8049
  0
LINE
  8
0
 10
-5.2194
 20
10.8049
 11
-5.97451
 21
10.3939
  0
LINE
  8
0
 10
-5.97451
 20
10.3939
 11
-6.23965
 21
10.2318
  0
LINE
  8
0
 10
-6.23965
 20
10.2318
 11
-6.77019
 21
9.90739
  0
LINE
  8
0
 10
-6.77019
 20
9.90739
 11
-6.78154
 21
9.8996
  0
LINE
  8
0
 10
-6.78154
 20
9.8996
 11
-7.2649
 21
9.52941
  0
LINE
  8
0
 10
-7.2649
 20
9.52941
 11
-7.60746
 21
9.26706
  0
LINE
  8
0
 10
-7.60746
 20
9.26706
 11
-8.00815
 21
8.92736
  0
LINE
  8
0
 10
-8.00815
 20
8.92736
 11
-8.18777
 21
8.75546
  0
LINE
  8
0
 10
-8.18777
 20
8.75546
 11
-6.61263
 21
7.17336
  0
LINE
  8
0
 10
-6.61263
 20
7.17336
 11
-7.14423
 21
6.64429
  0
LINE
  8
0
 10
-7.14423
 20
6.64429
 11
-8.71638
 21
8.22338
  0
LINE
  8
0
 10
-8.71638
 20
8.22338
 11
-8.72055
 21
8.21897
  0
LINE
  8
0
 10
-8.72055
 20
8.21897
 11
-9.0413
 21
7.87938
  0
LINE
  8
0
 10
-9.0413
 20
7.87938
 11
-9.31177
 21
7.55405
  0
LINE
  8
0
 10
-9.31177
 20
7.55405
 11
-9.59742
 21
7.17265
  0
LINE
  8
0
 10
-9.59742
 20
7.17265
 11
-9.89791
 21
6.77145
  0
LINE
  8
0
 10
-9.89791
 20
6.77145
 11
-10.1302
 21
6.41446
  0
LINE
  8
0
 10
-10.1302
 20
6.41446
 11
-10.5964
 21
5.61197
  0
LINE
  8
0
 10
-10.5964
 20
5.61197
 11
-10.7182
 21
5.36514
  0
LINE
  8
0
 10
-10.7182
 20
5.36514
 11
-10.8661
 21
5.06524
  0
LINE
  8
0
 10
-10.8661
 20
5.06524
 11
-11.0209
 21
4.70706
  0
LINE
  8
0
 10
-11.0209
 20
4.70706
 11
-11.1494
 21
4.40979
  0
LINE
  8
0
 10
-11.1494
 20
4.40979
 11
-11.4636
 21
3.51654
  0
LINE
  8
0
 10
-11.4636
 20
3.51654
 11
-11.5212
 21
3.3225
  0
LINE
  8
0
 10
-11.5212
 20
3.3225
 11
-11.5652
 21
3.17404
  0
LINE
  8
0
 10
-11.5652
 20
3.17404
 11
-11.7792
 21
2.20621
  0
LINE
  8
0
 10
-11.7792
 20
2.20621
 11
-11.8437
 21
1.91414
  0
LINE
  8
0
 10
-11.8437
 20
1.91414
 11
-11.8504
 21
1.86872
  0
LINE
  8
0
 10
-11.8504
 20
1.86872
 11
-11.8598
 21
1.80512
  0
LINE
  8
0
 10
-11.8598
 20
1.80512
 11
-11.9256
 21
1.12522
  0
LINE
  8
0
 10
-11.9256
 20
1.12522
 11
-11.9725
 21
0.639668
  0
LINE
  8
0
 10
-11.9725
 20
0.639668
 11
-11.9886
 21
0
  0
LINE
  8
0
 10
-10.75
 20
0
 11
-10.5773
 21
0.237763
  0
LINE
  8
0
 10
-10.5773
 20
0.237763
 11
-10.2977
 21
0.146946
  0
LINE
  8
0
 10
-10.2977
 20
0.146946
 11
-10.2977
 21
-0.146946
  0
LINE
  8
0
 10
-10.2977
 20
-0.146946
 11
-10.5773
 21
-0.237763
  0
LINE
  8
0
 10
-10.5773
 20
-0.237763
 11
-10.75
 21
0
  0
LINE
  8
0
 10
-9.30977
 20
-5.375
 11
-9.27905
 21
-5.08272
  0
LINE
  8
0
 10
-9.27905
 20
-5.08272
 11
-8.99158
 21
-5.02161
  0
LINE
  8
0
 10
-8.99158
 20
-5.02161
 11
-8.84464
 21
-5.27613
  0
LINE
  8
0
 10
-8.84464
 20
-5.27613
 11
-9.04129
 21
-5.49454
  0
LINE
  8
0
 10
-9.04129
 20
-5.49454
 11
-9.30977
 21
-5.375
  0
LINE
  8
0
 10
-9.30977
 20
5.375
 11
-9.04129
 21
5.49454
  0
LINE
  8
0
 10
-9.04129
 20
5.49454
 11
-8.84464
 21
5.27613
  0
LINE
  8
0
 10
-8.84464
 20
5.27613
 11
-8.99158
 21
5.02161
  0
LINE
  8
0
 10
-8.99158
 20
5.02161
 11
-9.27905
 21
5.08272
  0
LINE
  8
0
 10
-9.27905
 20
5.08272
 11
-9.30977
 21
5.375
  0
LINE
  8
0
 10
-5.49454
 20
-9.04129
 11
-5.27613
 21
-8.84464
  0
LINE
  8
0
 10
-5.27613
 20
-8.84464
 11
-5.02161
 21
-8.99158
  0
LINE
  8
0
 10
-5.02161
 20
-8.99158
 11
-5.08272
 21
-9.27905
  0
LINE
  8
0
 10
-5.08272
 20
-9.27905
 11
-5.375
 21
-9.30977
  0
LINE
  8
0
 10
-5.375
 20
-9.30977
 11
-5.49454
 21
-9.04129
  0
LINE
  8
0
 10
-0.237763
 20
-10.5773
 11
-0.146946
 21
-10.2977
  0
LINE
  8
0
 10
-0.146946
 20
-10.2977
 11
0.146946
 21
-10.2977
  0
LINE
  8
0
 10
0.146946
 20
-10.2977
 11
0.237763
 21
-10.5773
  0
LINE
  8
0
 10
0.237763
 20
-10.5773
 11
0
 21
-10.75
  0
LINE
  8
0
 10
0
 20
-10.75
 11
-0.237763
 21
-10.5773
  0
LINE
  8
0
 10
5.02161
 20
-8.99158
 11
5.27613
 21
-8.84464
  0
LINE
  8
0
 10
5.27613
 20
-8.84464
 11
5.49454
 21
-9.04129
  0
LINE
  8
0
 10
5.49454
 20
-9.04129
 11
5.375
 21
-9.30977
  0
LINE
  8
0
 10
5.375
 20
-9.30977
 11
5.08272
 21
-9.27905
  0
LINE
  8
0
 10
5.08272
 20
-9.27905
 11
5.02161
 21
-8.99158
  0
LINE
  8
0
 10
8.84464
 20
-5.27613
 11
8.99158
 21
-5.02161
  0
LINE
  8
0
 10
8.99158
 20
-5.02161
 11
9.27905
 21
-5.08272
  0
LINE
  8
0
 10
9.27905
 20
-5.08272
 11
9.30977
 21
-5.375
  0
LINE
  8
0
 10
9.30977
 20
-5.375
 11
9.04129
 21
-5.49454
  0
LINE
  8
0
 10
9.04129
 20
-5.49454
 11
8.84464
 21
-5.27613
  0
LINE
  8
0
 10
8.84464
 20
5.27613
 11
9.04129
 21
5.49454
  0
LINE
  8
0
 10
9.04129
 20
5.49454
 11
9.30977
 21
5.375
  0
LINE
  8
0
 10
9.30977
 20
5.375
 11
9.27905
 21
5.08272
  0
LINE
  8
0
 10
9.27905
 20
5.08272
 11
8.99158
 21
5.02161
  0
LINE
  8
0
 10
8.99158
 20
5.02161
 11
8.84464
 21
5.27613
  0
LINE
  8
0
 10
10.2977
 20
-0.146946
 11
10.2977
 21
0.146946
  0
LINE
  8
0
 10
10.2977
 20
0.146946
 11
10.5773
 21
0.237763
  0
LINE
  8
0
 10
10.5773
 20
0.237763
 11
10.75
 21
0
  0
LINE
  8
0
 10
10.75
 20
0
 11
10.5773
 21
-0.237763
  0
LINE
  8
0
 10
10.5773
 20
-0.237763
 11
10.2977
 21
-0.146946
  0
ENDSEC
  0
SECTION
  2
OBJECTS
  0
DICTIONARY
  0
ENDSEC
  0
EOF
