<?xml version="1.0" encoding="UTF-8" standalone="no"?>
<svg
   xmlns:dc="http://purl.org/dc/elements/1.1/"
   xmlns:cc="http://creativecommons.org/ns#"
   xmlns:rdf="http://www.w3.org/1999/02/22-rdf-syntax-ns#"
   xmlns:svg="http://www.w3.org/2000/svg"
   xmlns="http://www.w3.org/2000/svg"
   version="1.1"
   id="svg2"
   viewBox="0 0 2159.9999 2159.9999"
   height="24in"
   width="24in">
  <defs
     id="defs4">
    <marker
       id="DistanceX"
       orient="auto"
       refX="0"
       refY="0"
       style="overflow:visible">
      <path
         d="M 3,-3 -3,3 M 0,-5 0,5"
         style="stroke:#000000;stroke-width:0.5"
         id="path3362" />
    </marker>
    <pattern
       height="8"
       id="Hatch"
       patternUnits="userSpaceOnUse"
       width="8"
       x="0"
       y="0">
      <path
         d="M8 4 l-4,4"
         linecap="square"
         stroke="#000000"
         stroke-width="0.25"
         id="path3365" />
      <path
         d="M6 2 l-4,4"
         linecap="square"
         stroke="#000000"
         stroke-width="0.25"
         id="path3367" />
      <path
         d="M4 0 l-4,4"
         linecap="square"
         stroke="#000000"
         stroke-width="0.25"
         id="path3369" />
    </pattern>
    <symbol
       id="*Model_Space" />
    <symbol
       id="*Paper_Space" />
    <symbol
       id="*Paper_Space0" />
  </defs>
  <metadata
     id="metadata7">
    <rdf:RDF>
      <cc:Work
         rdf:about="">
        <dc:format>image/svg+xml</dc:format>
        <dc:type
           rdf:resource="http://purl.org/dc/dcmitype/StillImage" />
        <dc:title></dc:title>
      </cc:Work>
    </rdf:RDF>
  </metadata>
  <g
     transform="translate(0,1107.6378)"
     id="layer1">
    <g
       transform="translate(-4.2311631e-6,-2.2448779e-5)"
       id="g3977">
      <g
         id="g3374">
        <path
           d="M 1890.1782,-27.637795 A 810.1782,810.1782 0 0 0 1676.2502,-576.15801"
           style="fill:none;stroke:#000000;stroke-linecap:round"
           id="path3376" />
        <path
           d="M 483.7546,-576.16322 A 810.1782,810.1782 0 0 0 269.8218,-27.637795"
           style="fill:none;stroke:#000000;stroke-linecap:round"
           id="path3378" />
        <path
           d="m 2070.25,-27.637795 a 0.25,0.25 0 1 0 -0.5,0 0.25,0.25 0 1 0 0.5,0 z"
           style="fill:none;stroke:#000000;stroke-linecap:round"
           id="path3380" />
        <path
           d="m 1937.6152,-522.63779 a 0.25,0.25 0 1 0 -0.5,0 0.25,0.25 0 1 0 0.5,0 z"
           style="fill:none;stroke:#000000;stroke-linecap:round"
           id="path3382" />
        <path
           d="m 1937.6152,467.36221 a 0.25,0.25 0 1 0 -0.5,0 0.25,0.25 0 1 0 0.5,0 z"
           style="fill:none;stroke:#000000;stroke-linecap:round"
           id="path3384" />
        <path
           d="m 1575.25,829.7274 a 0.25,0.25 0 1 0 -0.5,0 0.25,0.25 0 1 0 0.5,0 z"
           style="fill:none;stroke:#000000;stroke-linecap:round"
           id="path3386" />
        <path
           d="m 1080.25,962.36221 a 0.25,0.25 0 1 0 -0.5,0 0.25,0.25 0 1 0 0.5,0 z"
           style="fill:none;stroke:#000000;stroke-linecap:round"
           id="path3388" />
        <path
           d="m 585.25,829.7274 a 0.25,0.25 0 1 0 -0.5,0 0.25,0.25 0 1 0 0.5,0 z"
           style="fill:none;stroke:#000000;stroke-linecap:round"
           id="path3390" />
        <path
           d="m 222.8848,467.36221 a 0.25,0.25 0 1 0 -0.5,0 0.25,0.25 0 1 0 0.5,0 z"
           style="fill:none;stroke:#000000;stroke-linecap:round"
           id="path3392" />
        <path
           d="m 90.25,-27.637795 a 0.25,0.25 0 1 0 -0.5,0 0.25,0.25 0 1 0 0.5,0 z"
           style="fill:none;stroke:#000000;stroke-linecap:round"
           id="path3394" />
        <path
           d="m 222.8848,-522.63779 a 0.25,0.25 0 1 0 -0.5,0 0.25,0.25 0 1 0 0.5,0 z"
           style="fill:none;stroke:#000000;stroke-linecap:round"
           id="path3396" />
        <path
           d="m 245.1348,-522.63779 a 22.5,22.5 0 1 0 -45,0 22.5,22.5 0 1 0 45,0 z"
           style="fill:none;stroke:#000000;stroke-linecap:round"
           id="path3398" />
        <path
           d="m 112.5,-27.637795 a 22.5,22.5 0 1 0 -45,0 22.5,22.5 0 1 0 45,0 z"
           style="fill:none;stroke:#000000;stroke-linecap:round"
           id="path3400" />
        <path
           d="m 245.1348,467.36221 a 22.5,22.5 0 1 0 -45,0 22.5,22.5 0 1 0 45,0 z"
           style="fill:none;stroke:#000000;stroke-linecap:round"
           id="path3402" />
        <path
           d="m 607.5,829.7274 a 22.5,22.5 0 1 0 -45,0 22.5,22.5 0 1 0 45,0 z"
           style="fill:none;stroke:#000000;stroke-linecap:round"
           id="path3404" />
        <path
           d="m 1102.5,962.36221 a 22.5,22.5 0 1 0 -45,0 22.5,22.5 0 1 0 45,0 z"
           style="fill:none;stroke:#000000;stroke-linecap:round"
           id="path3406" />
        <path
           d="m 1597.5,829.7274 a 22.5,22.5 0 1 0 -45,0 22.5,22.5 0 1 0 45,0 z"
           style="fill:none;stroke:#000000;stroke-linecap:round"
           id="path3408" />
        <path
           d="m 1959.8652,467.36221 a 22.5,22.5 0 1 0 -45,0 22.5,22.5 0 1 0 45,0 z"
           style="fill:none;stroke:#000000;stroke-linecap:round"
           id="path3410" />
        <path
           d="m 2092.5,-27.637795 a 22.5,22.5 0 1 0 -45,0 22.5,22.5 0 1 0 45,0 z"
           style="fill:none;stroke:#000000;stroke-linecap:round"
           id="path3412" />
        <path
           d="m 1959.8652,-522.63779 a 22.5,22.5 0 1 0 -45,0 22.5,22.5 0 1 0 45,0 z"
           style="fill:none;stroke:#000000;stroke-linecap:round"
           id="path3414" />
        <path
           d="m 245.1348,-522.63779 a 22.5,22.5 0 1 0 -45,0 22.5,22.5 0 1 0 45,0 z"
           style="fill:none;stroke:#000000;stroke-linecap:round"
           id="path3416" />
        <path
           d="m 112.5,-27.637795 a 22.5,22.5 0 1 0 -45,0 22.5,22.5 0 1 0 45,0 z"
           style="fill:none;stroke:#000000;stroke-linecap:round"
           id="path3418" />
        <path
           d="M 339.11043,758.16284 A 1080,1080 0 0 0 1867.17,-767.07231"
           style="fill:none;stroke:#000000;stroke-linecap:round"
           id="path3420" />
        <path
           d="m 294.19936,-768.52736 a 1080,1080 0 0 0 0,1481.77913"
           style="fill:none;stroke:#000000;stroke-linecap:round"
           id="path3422" />
        <path
           d="m 1561.3146,406.7256 2.1456,-1.09889"
           style="fill:none;stroke:#000000;stroke-linecap:round"
           id="path3424" />
        <path
           d="m 1563.4602,405.62671 37.5255,-19.78111 35.4933,-21.0879 33.4089,-22.3218 31.2705,-23.4864 29.0781,-24.5772 26.8308,-25.5978 24.5313,-26.5473 22.1769,-27.4248 19.7703,-28.2321 17.3079,-28.9665 14.7924,-29.63069 12.2238,-30.222905 9.6012,-30.7431 6.9246,-31.19409 4.194,-31.57191 1.4103,-31.87899"
           style="fill:none;stroke:#000000;stroke-linecap:round"
           id="path3426" />
        <path
           d="m 270,-27.637795 1.8279,36.31824 5.4261,35.86401 8.9352,35.30925 12.357,34.652705 15.6897,33.89669 18.9351,33.0399 22.0905,32.0814 25.1604,31.023 28.1403,29.8629 31.032,28.60291 33.8355,27.2412 36.5517,25.78049 39.1797,24.2172 41.7177,22.554 44.1693,20.79001 46.5327,18.92519 48.3309,16.803 49.5072,14.4909 50.5089,12.18151 51.3351,9.87299 51.9858,7.56541 52.4628,5.26139 52.7648,2.9574 52.8911,0.65521 52.8426,-1.64521 52.619,-3.9429 52.2207,-6.24059 51.6474,-8.53561 50.8995,-10.8288 49.9761,-13.12199 48.8772,-15.41161 47.6046,-17.70029"
           style="fill:none;stroke:#000000;stroke-linecap:round"
           id="path3428" />
        <path
           d="m 1766.25,-463.65809 0,-78.75 -56.25,0"
           style="fill:none;stroke:#000000;stroke-linecap:round"
           id="path3430" />
        <path
           d="m 393.75,-463.65809 0,-78.75 56.25,0"
           style="fill:none;stroke:#000000;stroke-linecap:round"
           id="path3432" />
        <path
           d="m 1628.5185,-623.88599 47.7315,47.7279"
           style="fill:none;stroke:#000000;stroke-linecap:round"
           id="path3434" />
        <path
           d="m 340.5627,-814.8048 47.7297,47.7297"
           style="fill:none;stroke:#000000;stroke-linecap:round"
           id="path3436" />
        <path
           d="m 1676.2482,-671.61569 -47.7297,47.7297"
           style="fill:none;stroke:#000000;stroke-linecap:round"
           id="path3438" />
        <path
           d="m 1771.7094,-671.61749 -47.7297,47.7297"
           style="fill:none;stroke:#000000;stroke-linecap:round"
           id="path3440" />
        <path
           d="m 1771.7076,-767.0751 -47.7297,47.7297"
           style="fill:none;stroke:#000000;stroke-linecap:round"
           id="path3442" />
        <path
           d="m 1867.1688,-767.0769 -47.7297,47.7297"
           style="fill:none;stroke:#000000;stroke-linecap:round"
           id="path3444" />
        <path
           d="m 436.0203,-623.88779 47.7297,47.7297"
           style="fill:none;stroke:#000000;stroke-linecap:round"
           id="path3446" />
        <path
           d="m 436.0221,-719.3454 47.7297,47.72971"
           style="fill:none;stroke:#000000;stroke-linecap:round"
           id="path3448" />
        <path
           d="m 340.5609,-719.3472 47.7297,47.72971"
           style="fill:none;stroke:#000000;stroke-linecap:round"
           id="path3450" />
        <path
           d="m 1676.2482,-671.61569 47.7315,47.7279"
           style="fill:none;stroke:#000000;stroke-linecap:round"
           id="path3452" />
        <path
           d="m 483.7518,-671.61569 -47.7315,47.7279"
           style="fill:none;stroke:#000000;stroke-linecap:round"
           id="path3454" />
        <path
           d="m 1723.9779,-719.3454 47.7315,47.72791"
           style="fill:none;stroke:#000000;stroke-linecap:round"
           id="path3456" />
        <path
           d="m 436.0221,-719.3454 -47.7315,47.72791"
           style="fill:none;stroke:#000000;stroke-linecap:round"
           id="path3458" />
        <path
           d="m 1771.7076,-767.0751 47.7315,47.7279"
           style="fill:none;stroke:#000000;stroke-linecap:round"
           id="path3460" />
        <path
           d="m 388.2924,-767.0751 -47.7315,47.7279"
           style="fill:none;stroke:#000000;stroke-linecap:round"
           id="path3462" />
        <path
           d="m 340.5627,-814.8048 -47.7315,47.7279"
           style="fill:none;stroke:#000000;stroke-linecap:round"
           id="path3464" />
        <path
           d="m 1561.3146,406.7256 114.5619,114.5619 -47.3562,47.32471 -132.795,-132.79501"
           style="fill:none;stroke:#000000;stroke-linecap:round"
           id="path3466" />
        <path
           d="M 295.1505,712.06951 483.8841,521.0751 532.5435,569.5896 340.5627,759.52921"
           style="fill:none;stroke:#000000;stroke-linecap:round"
           id="path3468" />
      </g>
      <g
         id="g3470" />
      <g
         id="g3472" />
      <g
         id="g3474" />
      <g
         id="g3476" />
      <g
         id="g3478" />
      <g
         id="g3480" />
      <g
         id="g3482" />
      <g
         id="g3484" />
      <g
         id="g3486" />
      <g
         id="g3488" />
      <g
         id="g3490" />
      <g
         id="g3492" />
      <g
         id="g3494" />
      <g
         id="g3496" />
      <g
         id="g3498" />
      <g
         id="g3500" />
      <g
         id="g3502" />
      <g
         id="g3504" />
      <g
         id="g3506" />
      <g
         id="g3508" />
      <g
         id="g3510" />
      <g
         id="g3512" />
      <g
         id="g3514" />
      <g
         id="g3516" />
      <g
         id="g3518" />
      <g
         id="g3520" />
      <g
         id="g3522" />
      <g
         id="g3524" />
      <g
         id="g3526" />
      <g
         id="g3528" />
      <g
         id="g3530" />
      <g
         id="g3532" />
      <g
         id="g3534" />
      <g
         id="g3536" />
      <g
         id="g3538" />
      <g
         id="g3540" />
      <g
         id="g3542" />
      <g
         id="g3544" />
      <g
         id="g3546" />
      <g
         id="g3548" />
      <g
         id="g3550" />
      <g
         id="g3552" />
      <g
         id="g3554" />
      <g
         id="g3556" />
      <g
         id="g3558" />
      <g
         id="g3560" />
      <g
         id="g3562" />
      <g
         id="g3564" />
      <g
         id="g3566" />
      <g
         id="g3568" />
      <g
         id="g3570" />
      <g
         id="g3572" />
      <g
         id="g3574" />
      <g
         id="g3576" />
      <g
         id="g3578" />
      <g
         id="g3580" />
      <g
         id="g3582" />
      <g
         id="g3584" />
      <g
         id="g3586" />
      <g
         id="g3588" />
      <g
         id="g3590" />
      <g
         id="g3592" />
      <g
         id="g3594" />
      <g
         id="g3596" />
      <g
         id="g3598" />
      <g
         id="g3600" />
      <g
         id="g3602" />
      <g
         id="g3604" />
      <g
         id="g3606" />
      <g
         id="g3608" />
      <g
         id="g3610" />
      <g
         id="g3612" />
      <g
         id="g3614" />
      <g
         id="g3616" />
      <g
         id="g3618" />
      <g
         id="g3620" />
      <g
         id="g3622" />
      <g
         id="g3624" />
      <g
         id="g3626" />
      <g
         id="g3628" />
      <g
         id="g3630" />
      <g
         id="g3632" />
      <g
         id="g3634" />
      <g
         id="g3636" />
      <g
         id="g3638" />
      <g
         id="g3640" />
      <g
         id="g3642" />
      <g
         id="g3644" />
      <g
         id="g3646" />
      <g
         id="g3648" />
      <g
         id="g3650" />
      <g
         id="g3652" />
      <g
         id="g3654" />
      <g
         id="g3656" />
      <g
         id="g3658" />
      <g
         id="g3660" />
      <g
         id="g3662" />
      <g
         id="g3664" />
      <g
         id="g3666" />
      <g
         id="g3668" />
      <g
         id="g3670" />
      <g
         id="g3672" />
      <g
         id="g3674" />
      <g
         id="g3676" />
      <g
         id="g3678" />
      <g
         id="g3680" />
      <g
         id="g3682" />
      <g
         id="g3684" />
      <g
         id="g3686" />
      <g
         id="g3688" />
      <g
         id="g3690" />
      <g
         id="g3692" />
      <g
         id="g3694" />
      <g
         id="g3696" />
      <g
         id="g3698" />
      <g
         id="g3700" />
      <g
         id="g3702" />
      <g
         id="g3704" />
      <g
         id="g3706" />
      <g
         id="g3708" />
      <g
         id="g3710" />
      <g
         id="g3712" />
      <g
         id="g3714" />
      <g
         id="g3716" />
      <g
         id="g3718" />
      <g
         id="g3720" />
      <g
         id="g3722" />
      <g
         id="g3724" />
      <g
         id="g3726" />
      <g
         id="g3728" />
      <g
         id="g3730" />
      <g
         id="g3732" />
      <g
         id="g3734" />
      <g
         id="g3736" />
      <g
         id="g3738" />
      <g
         id="g3740" />
      <g
         id="g3742" />
      <g
         id="g3744" />
      <g
         id="g3746" />
      <g
         id="g3748" />
      <g
         id="g3750" />
      <g
         id="g3752" />
      <g
         id="g3754" />
      <g
         id="g3756" />
      <g
         id="g3758" />
      <g
         id="g3760" />
      <g
         id="g3762" />
      <g
         id="g3764" />
      <g
         id="g3766" />
      <g
         id="g3768" />
      <g
         id="g3770" />
      <g
         id="g3772" />
      <g
         id="g3774" />
      <g
         id="g3776" />
      <g
         id="g3778" />
      <g
         id="g3780" />
      <g
         id="g3782" />
      <g
         id="g3784" />
      <g
         id="g3786" />
      <g
         id="g3788" />
      <g
         id="g3790" />
      <g
         id="g3792" />
      <g
         id="g3794" />
      <g
         id="g3796" />
      <g
         id="g3798" />
      <g
         id="g3800" />
      <g
         id="g3802" />
      <g
         id="g3804" />
      <g
         id="g3806" />
      <g
         id="g3808" />
      <g
         id="g3810" />
      <g
         id="g3812" />
      <g
         id="g3814" />
      <g
         id="g3816" />
      <g
         id="g3818" />
      <g
         id="g3820" />
      <g
         id="g3822" />
      <g
         id="g3824" />
      <g
         id="g3826" />
      <g
         id="g3828" />
      <g
         id="g3830" />
      <g
         id="g3832" />
      <g
         id="g3834" />
      <g
         id="g3836" />
      <g
         id="g3838" />
      <g
         id="g3840" />
      <g
         id="g3842" />
      <g
         id="g3844" />
      <g
         id="g3846" />
      <g
         id="g3848" />
      <g
         id="g3850" />
      <g
         id="g3852" />
      <g
         id="g3854" />
      <g
         id="g3856" />
      <g
         id="g3858" />
      <g
         id="g3860" />
      <g
         id="g3862" />
      <g
         id="g3864" />
      <g
         id="g3866" />
      <g
         id="g3868" />
      <g
         id="g3870" />
      <g
         id="g3872" />
      <g
         id="g3874" />
      <g
         id="g3876" />
      <g
         id="g3878" />
      <g
         id="g3880" />
      <g
         id="g3882" />
      <g
         id="g3884" />
      <g
         id="g3886" />
      <g
         id="g3888" />
      <g
         id="g3890" />
      <g
         id="g3892" />
      <g
         id="g3894" />
      <g
         id="g3896" />
      <g
         id="g3898" />
      <g
         id="g3900" />
      <g
         id="g3902" />
      <g
         id="g3904" />
      <g
         id="g3906" />
      <g
         id="g3908" />
      <g
         id="g3910" />
      <g
         id="g3912" />
      <g
         id="g3914" />
      <g
         id="g3916" />
      <g
         id="g3918" />
      <g
         id="g3920" />
      <g
         id="g3922" />
      <g
         id="g3924" />
      <g
         id="g3926" />
      <g
         id="g3928" />
      <g
         id="g3930" />
      <g
         id="g3932" />
      <g
         id="g3934" />
      <g
         id="g3936" />
      <g
         id="g3938" />
      <g
         id="g3940" />
      <g
         id="g3942" />
      <g
         id="g3944" />
      <g
         id="g3946" />
      <g
         id="g3948" />
      <g
         id="g3950" />
      <g
         id="g3952" />
      <g
         id="g3954" />
      <g
         id="g3956" />
      <g
         id="g3958" />
      <g
         id="g3960" />
      <g
         id="g3962" />
    </g>
  </g>
</svg>
