<?xml version="1.0" encoding="UTF-8" standalone="no"?>
<!-- Created with Inkscape (http://www.inkscape.org/) -->

<svg
   xmlns:svg="http://www.w3.org/2000/svg"
   xmlns="http://www.w3.org/2000/svg"
   version="1.1"
   width="2700"
   height="2340"
   id="svg3119"
   xml:space="preserve"><defs
     id="defs3123" /><g
     transform="matrix(1.25,0,0,-1.25,0,2340)"
     id="g3129"><g
       transform="scale(0.147239,0.147239)"
       id="g3131"><path
         d="m 7335,7830.79 0,-491.04"
         id="path3133"
         style="fill:none;stroke:#000000;stroke-width:4.72700024;stroke-linecap:butt;stroke-linejoin:miter;stroke-miterlimit:4;stroke-opacity:1;stroke-dasharray:none" /><path
         d="m 7580.86,7584.93 -491.72,0"
         id="path3135"
         style="fill:none;stroke:#000000;stroke-width:4.72700024;stroke-linecap:butt;stroke-linejoin:miter;stroke-miterlimit:4;stroke-opacity:1;stroke-dasharray:none" /><path
         d="m 7335,7830.79 0,-491.04"
         id="path3137"
         style="fill:none;stroke:#000000;stroke-width:4.72700024;stroke-linecap:butt;stroke-linejoin:miter;stroke-miterlimit:4;stroke-opacity:1;stroke-dasharray:none" /><path
         d="m 7580.86,7584.93 -491.72,0"
         id="path3139"
         style="fill:none;stroke:#000000;stroke-width:4.72700024;stroke-linecap:butt;stroke-linejoin:miter;stroke-miterlimit:4;stroke-opacity:1;stroke-dasharray:none" /><path
         d="m 13966.4,7768.99 0,-368.11"
         id="path3141"
         style="fill:none;stroke:#000000;stroke-width:4.72700024;stroke-linecap:butt;stroke-linejoin:miter;stroke-miterlimit:4;stroke-opacity:1;stroke-dasharray:none" /><path
         d="m 14151.1,7584.93 -368.8,0"
         id="path3143"
         style="fill:none;stroke:#000000;stroke-width:4.72700024;stroke-linecap:butt;stroke-linejoin:miter;stroke-miterlimit:4;stroke-opacity:1;stroke-dasharray:none" /><path
         d="m 703.344,7768.99 0,-368.11"
         id="path3145"
         style="fill:none;stroke:#000000;stroke-width:4.72700024;stroke-linecap:butt;stroke-linejoin:miter;stroke-miterlimit:4;stroke-opacity:1;stroke-dasharray:none" /><path
         d="m 887.535,7584.93 -368.414,0"
         id="path3147"
         style="fill:none;stroke:#000000;stroke-width:4.72700024;stroke-linecap:butt;stroke-linejoin:miter;stroke-miterlimit:4;stroke-opacity:1;stroke-dasharray:none" /><path
         d="m 7335,1137.61 0,-368.387"
         id="path3149"
         style="fill:none;stroke:#000000;stroke-width:4.72700024;stroke-linecap:butt;stroke-linejoin:miter;stroke-miterlimit:4;stroke-opacity:1;stroke-dasharray:none" /><path
         d="m 7519.05,953.414 -368.1,0"
         id="path3151"
         style="fill:none;stroke:#000000;stroke-width:4.72700024;stroke-linecap:butt;stroke-linejoin:miter;stroke-miterlimit:4;stroke-opacity:1;stroke-dasharray:none" /><path
         d="m 1591.83,11085.4 0,-368.8"
         id="path3153"
         style="fill:none;stroke:#000000;stroke-width:4.72700024;stroke-linecap:butt;stroke-linejoin:miter;stroke-miterlimit:4;stroke-opacity:1;stroke-dasharray:none" /><path
         d="m 1776.02,10900.6 -368.45,0"
         id="path3155"
         style="fill:none;stroke:#000000;stroke-width:4.72700024;stroke-linecap:butt;stroke-linejoin:miter;stroke-miterlimit:4;stroke-opacity:1;stroke-dasharray:none" /><path
         d="m 13078,11085.4 0,-368.8"
         id="path3157"
         style="fill:none;stroke:#000000;stroke-width:4.72700024;stroke-linecap:butt;stroke-linejoin:miter;stroke-miterlimit:4;stroke-opacity:1;stroke-dasharray:none" /><path
         d="m 12894,10900.6 368.1,0"
         id="path3159"
         style="fill:none;stroke:#000000;stroke-width:4.72700024;stroke-linecap:butt;stroke-linejoin:miter;stroke-miterlimit:4;stroke-opacity:1;stroke-dasharray:none" /><path
         d="m 1591.83,4453.43 0,-368.38"
         id="path3161"
         style="fill:none;stroke:#000000;stroke-width:4.72700024;stroke-linecap:butt;stroke-linejoin:miter;stroke-miterlimit:4;stroke-opacity:1;stroke-dasharray:none" /><path
         d="m 1776.02,4269.24 -368.45,0"
         id="path3163"
         style="fill:none;stroke:#000000;stroke-width:4.72700024;stroke-linecap:butt;stroke-linejoin:miter;stroke-miterlimit:4;stroke-opacity:1;stroke-dasharray:none" /><path
         d="m 13078,4453.43 0,-368.38"
         id="path3165"
         style="fill:none;stroke:#000000;stroke-width:4.72700024;stroke-linecap:butt;stroke-linejoin:miter;stroke-miterlimit:4;stroke-opacity:1;stroke-dasharray:none" /><path
         d="m 12894,4269.24 368.1,0"
         id="path3167"
         style="fill:none;stroke:#000000;stroke-width:4.72700024;stroke-linecap:butt;stroke-linejoin:miter;stroke-miterlimit:4;stroke-opacity:1;stroke-dasharray:none" /><path
         d="m 4019.17,2026.09 0,-368.38"
         id="path3169"
         style="fill:none;stroke:#000000;stroke-width:4.72700024;stroke-linecap:butt;stroke-linejoin:miter;stroke-miterlimit:4;stroke-opacity:1;stroke-dasharray:none" /><path
         d="m 4203.36,1841.9 -368.38,0"
         id="path3171"
         style="fill:none;stroke:#000000;stroke-width:4.72700024;stroke-linecap:butt;stroke-linejoin:miter;stroke-miterlimit:4;stroke-opacity:1;stroke-dasharray:none" /><path
         d="m 10650.7,2026.09 0,-368.38"
         id="path3173"
         style="fill:none;stroke:#000000;stroke-width:4.72700024;stroke-linecap:butt;stroke-linejoin:miter;stroke-miterlimit:4;stroke-opacity:1;stroke-dasharray:none" /><path
         d="m 10466.6,1841.9 368.1,0"
         id="path3175"
         style="fill:none;stroke:#000000;stroke-width:4.72700024;stroke-linecap:butt;stroke-linejoin:miter;stroke-miterlimit:4;stroke-opacity:1;stroke-dasharray:none" /><path
         d="m 7457.93,953.414 c 0,67.846 -55.01,122.796 -122.93,122.796 -67.92,0 -122.93,-54.95 -122.93,-122.796 0,-67.848 55.01,-122.793 122.93,-122.793 67.92,0 122.93,54.945 122.93,122.793 z"
         id="path3177"
         style="fill:none;stroke:#000000;stroke-width:4.72700024;stroke-linecap:butt;stroke-linejoin:miter;stroke-miterlimit:4;stroke-opacity:1;stroke-dasharray:none" /><path
         d="m 4141.96,1841.9 c 0,67.85 -54.94,122.79 -122.79,122.79 -67.85,0 -122.79,-54.94 -122.79,-122.79 0,-67.85 54.94,-122.79 122.79,-122.79 67.85,0 122.79,54.94 122.79,122.79 z"
         id="path3179"
         style="fill:none;stroke:#000000;stroke-width:4.72700024;stroke-linecap:butt;stroke-linejoin:miter;stroke-miterlimit:4;stroke-opacity:1;stroke-dasharray:none" /><path
         d="m 1714.62,4269.24 c 0,67.85 -55.01,122.8 -122.79,122.8 -67.85,0 -122.86,-54.95 -122.86,-122.8 0,-67.85 55.01,-122.79 122.86,-122.79 67.78,0 122.79,54.94 122.79,122.79 z"
         id="path3181"
         style="fill:none;stroke:#000000;stroke-width:4.72700024;stroke-linecap:butt;stroke-linejoin:miter;stroke-miterlimit:4;stroke-opacity:1;stroke-dasharray:none" /><path
         d="m 826.137,7584.93 c 0,67.92 -55.012,122.93 -122.793,122.93 -67.84,0 -122.821,-55.01 -122.821,-122.93 0,-67.91 54.981,-122.93 122.821,-122.93 67.781,0 122.793,55.02 122.793,122.93 z"
         id="path3183"
         style="fill:none;stroke:#000000;stroke-width:4.72700024;stroke-linecap:butt;stroke-linejoin:miter;stroke-miterlimit:4;stroke-opacity:1;stroke-dasharray:none" /><path
         d="m 14089.3,7584.93 c 0,67.92 -55,122.93 -122.9,122.93 -67.3,0 -122.3,-55.01 -122.3,-122.93 0,-67.91 55,-122.93 122.3,-122.93 67.9,0 122.9,55.02 122.9,122.93 z"
         id="path3185"
         style="fill:none;stroke:#000000;stroke-width:4.72700024;stroke-linecap:butt;stroke-linejoin:miter;stroke-miterlimit:4;stroke-opacity:1;stroke-dasharray:none" /><path
         d="m 13201,4269.24 c 0,67.85 -55.1,122.8 -123,122.8 -67.9,0 -122.9,-54.95 -122.9,-122.8 0,-67.85 55,-122.79 122.9,-122.79 67.9,0 123,54.94 123,122.79 z"
         id="path3187"
         style="fill:none;stroke:#000000;stroke-width:4.72700024;stroke-linecap:butt;stroke-linejoin:miter;stroke-miterlimit:4;stroke-opacity:1;stroke-dasharray:none" /><path
         d="m 10773.6,1841.9 c 0,67.85 -55,122.79 -122.9,122.79 -67.9,0 -122.9,-54.94 -122.9,-122.79 0,-67.85 55,-122.79 122.9,-122.79 67.9,0 122.9,54.94 122.9,122.79 z"
         id="path3189"
         style="fill:none;stroke:#000000;stroke-width:4.72700024;stroke-linecap:butt;stroke-linejoin:miter;stroke-miterlimit:4;stroke-opacity:1;stroke-dasharray:none" /><path
         d="m 2033.63,12261 -312.69,0"
         id="path3191"
         style="fill:none;stroke:#000000;stroke-width:4.72700024;stroke-linecap:butt;stroke-linejoin:miter;stroke-miterlimit:4;stroke-opacity:1;stroke-dasharray:none" /><path
         d="m 12636.6,12261 312.4,0"
         id="path3193"
         style="fill:none;stroke:#000000;stroke-width:4.72700024;stroke-linecap:butt;stroke-linejoin:miter;stroke-miterlimit:4;stroke-opacity:1;stroke-dasharray:none" /><path
         d="m 1653.23,10900.6 c 0,34 -27.51,61.8 -61.4,61.8 -33.96,0 -61.4,-27.8 -61.4,-61.8 0,-33.3 27.44,-61.1 61.4,-61.1 33.89,0 61.4,27.8 61.4,61.1 z"
         id="path3195"
         style="fill:none;stroke:#000000;stroke-width:4.72700024;stroke-linecap:butt;stroke-linejoin:miter;stroke-miterlimit:4;stroke-opacity:1;stroke-dasharray:none" /><path
         d="m 13139.8,10900.6 c 0,34 -27.8,61.8 -61.8,61.8 -33.9,0 -61.1,-27.8 -61.1,-61.8 0,-33.3 27.2,-61.1 61.1,-61.1 34,0 61.8,27.8 61.8,61.1 z"
         id="path3197"
         style="fill:none;stroke:#000000;stroke-width:4.72700024;stroke-linecap:butt;stroke-linejoin:miter;stroke-miterlimit:4;stroke-opacity:1;stroke-dasharray:none" /><path
         d="m 2298.3,2287.91 566.36,566.29 -260.67,260.39 -566.15,-566.15 1.7,1.56 -247.9,274.11 -231.59,283.08 -215.23,291.56 -198.93,299.45 -182.628,306.64 -166.328,313.23 -150.028,319.21 -133.75,324.58 -117.468,329.26 -101.2,333.47 -84.945,336.93 -68.691,339.79 -52.4458,342.16 -36.207,343.8 -19.9765,345.02 -3.7579,345.01 12.4532,345.02 28.664,344.34 44.859,342.29 61.047,340.94 77.239,337.55 93.402,334.83 109.57,330.73 125.735,326.7 141.878,320.6 158.043,315.8 174.135,309 190.31,301.6 206.4,294 222.56,286.6 238.59,277.1 12.49,12.9 170.88,0 -16.7,-61.1 -41.91,-158.2 -40.54,-158.3 -39.12,-158.9 -37.7,-159.6 -36.27,-159.6 -34.91,-159.6 -33.41,-160.3 -32.06,-160.3 -30.63,-160.3 -29.2,-160.9 -27.78,-161 -26.35,-161.6 -25,-161.7 -23.5,-161.6 -22.07,-162.3 -20.64,-161.67 -19.29,-162.32 -17.8,-163 -16.36,-162.32 -14.94,-163 -13.52,-163 -12.09,-163 -10.59,-163 -9.24,-163.68 -7.74,-163.68 -6.32,-163 -4.89,-163.68 -3.4,-163.68 -2.04,-164.36 -0.54,-163.68 1.56,-133.79 4.56,-133.8 7.53,-133.79 10.6,-132.44 13.58,-132.44 16.51,-132.1 19.49,-131.41 22.41,-130.75 25.27,-130.05 28.25,-129.39 31.04,-128.63 33.96,-127.82 36.74,-126.94 39.6,-126.05 42.44,-125.1 45.17,-124.15 47.94,-123.07 50.74,-121.91 53.45,-120.89 56.17,-119.6 58.81,-118.45 61.53,-117.16 64.19,-115.79 66.9,-114.44 69.41,-113.02 72.12,-111.52 74.64,-110.02 77.22,-108.53 79.8,-106.83 82.32,-105.21 84.83,-103.5 87.41,-101.74 8.35,-8.76 6.93,-6.52 7.06,-6.11 7.41,-5.71 7.53,-5.23 7.75,-4.89 7.94,-4.42 8.08,-4 8.29,-3.6 8.35,-3.13 8.49,-2.78 8.56,-2.31 8.7,-1.9 8.75,-1.43 8.77,-1.08 8.83,-0.61 8.83,-0.21 8.82,0.21 8.83,0.61 8.83,1.08 8.7,1.43 8.69,1.9 8.56,2.31 8.55,2.78 8.36,3.13 8.22,3.6 8.15,4 7.88,4.42 7.81,4.89 7.53,5.23 7.34,5.71 7.13,6.11 6.86,6.52 80.55,80.55"
         id="path3199"
         style="fill:none;stroke:#000000;stroke-width:4.72700024;stroke-linecap:butt;stroke-linejoin:miter;stroke-miterlimit:4;stroke-opacity:1;stroke-dasharray:none" /><path
         d="m 2299.93,2289.61 276.56,-250.07 285.72,-233.43 294.35,-216.72 302.23,-200.16 309.5,-183.57 316.22,-166.94 322.2,-150.368 327.56,-133.797 332.38,-117.266 336.46,-100.691 339.99,-84.157 342.85,-67.632 345.01,-51.121 346.65,-34.626 347.53,-18.132 347.73,-1.657 347.74,14.805 347.05,31.262 345.02,47.699 342.98,64.125 339.58,80.543 336.87,96.945 332.11,113.348 328.08,129.719 321.9,146.091 316.5,162.46 309.7,178.75 302.2,195.12 294.8,211.43 285.9,227.73 276.4,244.09 266.9,260.32 253.3,273.37 237.1,282.8 220.7,291.5 203.8,299.72 187.4,307.19 171.2,314.04 154.1,320.29 137.9,325.87 121.6,330.89 104.6,335.17 88.9,338.84 72,341.95 55,344.41 39.4,345.9 22.4,347.73 6.2,347.74 -10.9,347.73 -26.5,347.06 -43.5,345.69 -59.7,343.66 -76.1,340.94 -93,337.55 -109.4,334.15 -125,329.4 -142.6,324 -158.2,318.5 -174.6,311.7 -191.5,305 -207.8,296.8 -224.2,288.6 -240.4,279.8 -20.4,15.6 -165,0 16.3,-61.1 42.1,-158.2 40.8,-158.3 38.7,-158.9 38,-159.6 36,-159.6 35.3,-159.6 33.3,-160.3 31.9,-160.3 30.6,-160.3 29.2,-160.9 27.8,-161 26.5,-161.6 25.2,-161.7 23,-161.6 22.5,-162.3 20.3,-161.67 19.7,-162.32 17.7,-163 16.3,-162.32 14.9,-163 13.6,-163 12.2,-163 10.2,-163 9.5,-163.68 7.5,-163.68 6.1,-163 5.5,-163.68 3.3,-163.68 2.1,-164.36 0,-163.68 -1.4,-134.47 -4.7,-133.8 -7.5,-133.79 -10.2,-133.8 -13.6,-132.44 -16.9,-132.37 -19.7,-131.76 -22.5,-131.14 -25.1,-130.4 -28.5,-129.72 -31.3,-128.98 -33.9,-128.15 -37.4,-127.28 -40,-126.39 -42.1,-125.38 -45.5,-124.42 -48.3,-123.41 -50.9,-122.25 -53.7,-121.09 -57,-119.94 -59.1,-118.65 -61.8,-117.43 -64.5,-116 -67.3,-114.71 -69.9,-113.22 -72,-111.72 -75.4,-110.23 -77.4,-108.67 -80.2,-106.97 -82.8,-105.34 -85.6,-103.63 -87.6,-101.81 -6.8,-6.86 -6.1,-7.14 -5.4,-7.33 -5.5,-7.54 -4.7,-7.81 -4.8,-7.94 -4.1,-8.09 -3.4,-8.22 -2.7,-8.42 -2.7,-8.49 -2.7,-8.55 -2,-8.7 -1.4,-8.76 -0.7,-8.76 -0.7,-8.83 -0.6,-8.83 0.6,-8.83 0.7,-8.83 0.7,-8.76 1.4,-8.76 2,-8.69 2.7,-8.56 2.7,-8.49 2.7,-8.42 3.4,-8.22 4.1,-8.08 4.8,-7.95 4.7,-7.74 5.5,-7.61 5.4,-7.33 6.1,-7.13 6.8,-6.86 310.4,-310.31 -260.8,-260.53 -658.1,658.38 -6.8,6.52 -7.5,6.11 -7.5,5.71 -7.4,5.3 -7.5,4.82 -8.2,4.41 -8.1,4.01 -8.2,3.6 -8.1,3.12 -8.8,2.79 -8.9,2.31 -8.1,1.9 -8.9,1.43 -8.8,1.08 -8.8,0.61 -8.8,0.21 -8.9,-0.21 -8.8,-0.68 -8.8,-1.01 -8.9,-1.5 -8.8,-1.9 -8.1,-2.31 -8.9,-2.78 -8.1,-3.19 -8.2,-3.54 -8.1,-4.07 -8.2,-4.42 -8.1,-4.89 -7.5,-5.22 -6.8,-5.71 -7.4,-6.18 -6.8,-6.52 -203.8,-169.25 -209.8,-157.7 -215.3,-146.16 -220.1,-134.61 -225.48,-123.07 -228.88,-111.52 -232.95,-100.03 -236.35,-88.57 -239.75,-77.15 -241.78,-65.61 -243.82,-54.2 -245.86,-42.78 -247.22,-31.38 -247.89,-19.9 -248.58,-8.63 -248.57,2.86 -247.9,14.12 -247.08,25.54 -245.99,36.81 -244.37,48.15 -242.26,59.43 -239.81,70.7 -236.9,81.98 -233.56,93.25 -229.76,104.52 -225.69,115.73 -221.07,126.94 -216.04,138.07 -210.61,149.35 -204.77,160.49 -198.52,171.62 -11.34,9.37 -3.12,2.52 -3.2,2.51 -3.19,2.38 -1.83,1.22"
         id="path3201"
         style="fill:none;stroke:#000000;stroke-width:4.72700024;stroke-linecap:butt;stroke-linejoin:miter;stroke-miterlimit:4;stroke-opacity:1;stroke-dasharray:none" /><path
         d="m 3516.32,3766.39 c -72,71.92 -188.61,71.92 -260.53,0"
         id="path3203"
         style="fill:none;stroke:#000000;stroke-width:4.72700024;stroke-linecap:butt;stroke-linejoin:miter;stroke-miterlimit:4;stroke-opacity:1;stroke-dasharray:none" /><path
         d="m 3683.26,3599.38 -166.94,167.01"
         id="path3205"
         style="fill:none;stroke:#000000;stroke-width:4.72700024;stroke-linecap:butt;stroke-linejoin:miter;stroke-miterlimit:4;stroke-opacity:1;stroke-dasharray:none" /></g></g></svg>