<?xml version="1.0" encoding="UTF-8" standalone="no"?>
<!-- Created with Inkscape (http://www.inkscape.org/) -->

<svg
   xmlns:svg="http://www.w3.org/2000/svg"
   xmlns="http://www.w3.org/2000/svg"
   version="1.1"
   width="2160"
   height="1800"
   id="svg2967"
   xml:space="preserve"><defs
     id="defs2971" /><g
     transform="matrix(1.25,0,0,-1.25,0,1800)"
     id="g2977"><g
       transform="scale(0.117791,0.117791)"
       id="g2979"><path
         d="m 7335,7793.44 0,-611.25"
         id="path2981"
         style="fill:none;stroke:#000000;stroke-width:5.90875006;stroke-linecap:butt;stroke-linejoin:miter;stroke-miterlimit:4;stroke-opacity:1;stroke-dasharray:none" /><path
         d="m 7640.62,7487.81 -611.24,0"
         id="path2983"
         style="fill:none;stroke:#000000;stroke-width:5.90875006;stroke-linecap:butt;stroke-linejoin:miter;stroke-miterlimit:4;stroke-opacity:1;stroke-dasharray:none" /><path
         d="m 7335,7793.44 0,-611.25"
         id="path2985"
         style="fill:none;stroke:#000000;stroke-width:5.90875006;stroke-linecap:butt;stroke-linejoin:miter;stroke-miterlimit:4;stroke-opacity:1;stroke-dasharray:5.90875, 41.3613;stroke-dashoffset:0" /><path
         d="m 7640.62,7487.81 -611.24,0"
         id="path2987"
         style="fill:none;stroke:#000000;stroke-width:5.90875006;stroke-linecap:butt;stroke-linejoin:miter;stroke-miterlimit:4;stroke-opacity:1;stroke-dasharray:5.90875, 41.3613;stroke-dashoffset:0" /><path
         d="m 13753.1,7793.44 0,-611.25"
         id="path2989"
         style="fill:none;stroke:#000000;stroke-width:5.90875006;stroke-linecap:butt;stroke-linejoin:miter;stroke-miterlimit:4;stroke-opacity:1;stroke-dasharray:none" /><path
         d="m 14058.8,7487.81 -611.3,0"
         id="path2991"
         style="fill:none;stroke:#000000;stroke-width:5.90875006;stroke-linecap:butt;stroke-linejoin:miter;stroke-miterlimit:4;stroke-opacity:1;stroke-dasharray:none" /><path
         d="m 916.875,7793.44 0,-611.25"
         id="path2993"
         style="fill:none;stroke:#000000;stroke-width:5.90875006;stroke-linecap:butt;stroke-linejoin:miter;stroke-miterlimit:4;stroke-opacity:1;stroke-dasharray:none" /><path
         d="m 1222.5,7487.81 -611.25,0"
         id="path2995"
         style="fill:none;stroke:#000000;stroke-width:5.90875006;stroke-linecap:butt;stroke-linejoin:miter;stroke-miterlimit:4;stroke-opacity:1;stroke-dasharray:none" /><path
         d="m 1776.7,4584.38 0,-611.26"
         id="path2997"
         style="fill:none;stroke:#000000;stroke-width:5.90875006;stroke-linecap:butt;stroke-linejoin:miter;stroke-miterlimit:4;stroke-opacity:1;stroke-dasharray:none" /><path
         d="m 2082.32,4278.75 -611.25,0"
         id="path2999"
         style="fill:none;stroke:#000000;stroke-width:5.90875006;stroke-linecap:butt;stroke-linejoin:miter;stroke-miterlimit:4;stroke-opacity:1;stroke-dasharray:none" /><path
         d="m 4125.68,2234.71 0,-611.25"
         id="path3001"
         style="fill:none;stroke:#000000;stroke-width:5.90875006;stroke-linecap:butt;stroke-linejoin:miter;stroke-miterlimit:4;stroke-opacity:1;stroke-dasharray:none" /><path
         d="m 4431.31,1929.09 -611.25,0"
         id="path3003"
         style="fill:none;stroke:#000000;stroke-width:5.90875006;stroke-linecap:butt;stroke-linejoin:miter;stroke-miterlimit:4;stroke-opacity:1;stroke-dasharray:none" /><path
         d="m 10544.1,2235.05 0,-611.25"
         id="path3005"
         style="fill:none;stroke:#000000;stroke-width:5.90875006;stroke-linecap:butt;stroke-linejoin:miter;stroke-miterlimit:4;stroke-opacity:1;stroke-dasharray:none" /><path
         d="m 10849.7,1929.43 -611.3,0"
         id="path3007"
         style="fill:none;stroke:#000000;stroke-width:5.90875006;stroke-linecap:butt;stroke-linejoin:miter;stroke-miterlimit:4;stroke-opacity:1;stroke-dasharray:none" /><path
         d="m 12894,4583.78 0,-611.25"
         id="path3009"
         style="fill:none;stroke:#000000;stroke-width:5.90875006;stroke-linecap:butt;stroke-linejoin:miter;stroke-miterlimit:4;stroke-opacity:1;stroke-dasharray:none" /><path
         d="m 13199.6,4278.16 -611.2,0"
         id="path3011"
         style="fill:none;stroke:#000000;stroke-width:5.90875006;stroke-linecap:butt;stroke-linejoin:miter;stroke-miterlimit:4;stroke-opacity:1;stroke-dasharray:none" /><path
         d="m 12893.1,11002.5 0,-611.3"
         id="path3013"
         style="fill:none;stroke:#000000;stroke-width:5.90875006;stroke-linecap:butt;stroke-linejoin:miter;stroke-miterlimit:4;stroke-opacity:1;stroke-dasharray:none" /><path
         d="m 13198.8,10696.9 -611.3,0"
         id="path3015"
         style="fill:none;stroke:#000000;stroke-width:5.90875006;stroke-linecap:butt;stroke-linejoin:miter;stroke-miterlimit:4;stroke-opacity:1;stroke-dasharray:none" /><path
         d="m 1776.28,11002.5 0,-611.3"
         id="path3017"
         style="fill:none;stroke:#000000;stroke-width:5.90875006;stroke-linecap:butt;stroke-linejoin:miter;stroke-miterlimit:4;stroke-opacity:1;stroke-dasharray:none" /><path
         d="m 2081.9,10696.9 -611.25,0"
         id="path3019"
         style="fill:none;stroke:#000000;stroke-width:5.90875006;stroke-linecap:butt;stroke-linejoin:miter;stroke-miterlimit:4;stroke-opacity:1;stroke-dasharray:none" /><path
         d="m 7335,1375.31 0,-611.248"
         id="path3021"
         style="fill:none;stroke:#000000;stroke-width:5.90875006;stroke-linecap:butt;stroke-linejoin:miter;stroke-miterlimit:4;stroke-opacity:1;stroke-dasharray:none" /><path
         d="m 7640.62,1069.69 -611.24,0"
         id="path3023"
         style="fill:none;stroke:#000000;stroke-width:5.90875006;stroke-linecap:butt;stroke-linejoin:miter;stroke-miterlimit:4;stroke-opacity:1;stroke-dasharray:none" /><path
         d="m 1852.68,10696.9 c 0,42.4 -34.21,76.4 -76.4,76.4 -42.2,0 -76.41,-34 -76.41,-76.4 0,-41.6 34.21,-76.4 76.41,-76.4 42.19,0 76.4,34.8 76.4,76.4 z"
         id="path3025"
         style="fill:none;stroke:#000000;stroke-width:5.90875006;stroke-linecap:butt;stroke-linejoin:miter;stroke-miterlimit:4;stroke-opacity:1;stroke-dasharray:none" /><path
         d="m 12969.5,10696.9 c 0,42.4 -33.9,76.4 -76.4,76.4 -41.6,0 -76.4,-34 -76.4,-76.4 0,-42.5 34.8,-76.4 76.4,-76.4 42.5,0 76.4,33.9 76.4,76.4 z"
         id="path3027"
         style="fill:none;stroke:#000000;stroke-width:5.90875006;stroke-linecap:butt;stroke-linejoin:miter;stroke-miterlimit:4;stroke-opacity:1;stroke-dasharray:none" /><path
         d="m 13905.9,7487.81 c 0,84.39 -68.7,152.81 -152.8,152.81 -84,0 -152.8,-68.42 -152.8,-152.81 0,-84.38 68.8,-152.81 152.8,-152.81 84.1,0 152.8,68.43 152.8,152.81 z"
         id="path3029"
         style="fill:none;stroke:#000000;stroke-width:5.90875006;stroke-linecap:butt;stroke-linejoin:miter;stroke-miterlimit:4;stroke-opacity:1;stroke-dasharray:none" /><path
         d="m 13046.8,4278.16 c 0,84.38 -67.9,152.81 -152.8,152.81 -84.1,0 -152.8,-68.43 -152.8,-152.81 0,-84.39 68.7,-152.82 152.8,-152.82 84.9,0 152.8,68.43 152.8,152.82 z"
         id="path3031"
         style="fill:none;stroke:#000000;stroke-width:5.90875006;stroke-linecap:butt;stroke-linejoin:miter;stroke-miterlimit:4;stroke-opacity:1;stroke-dasharray:none" /><path
         d="m 10696.9,1929.43 c 0,84.38 -67.9,152.81 -152.8,152.81 -84.1,0 -152.9,-68.43 -152.9,-152.81 0,-84.39 68.8,-152.82 152.9,-152.82 84.9,0 152.8,68.43 152.8,152.82 z"
         id="path3033"
         style="fill:none;stroke:#000000;stroke-width:5.90875006;stroke-linecap:butt;stroke-linejoin:miter;stroke-miterlimit:4;stroke-opacity:1;stroke-dasharray:none" /><path
         d="m 7487.81,1069.69 c 0,84.38 -68.42,152.81 -152.81,152.81 -84.39,0 -152.81,-68.43 -152.81,-152.81 0,-84.389 68.42,-152.815 152.81,-152.815 84.39,0 152.81,68.426 152.81,152.815 z"
         id="path3035"
         style="fill:none;stroke:#000000;stroke-width:5.90875006;stroke-linecap:butt;stroke-linejoin:miter;stroke-miterlimit:4;stroke-opacity:1;stroke-dasharray:none" /><path
         d="m 4278.5,1929.09 c 0,84.38 -68.43,152.81 -152.82,152.81 -84.38,0 -152.81,-68.43 -152.81,-152.81 0,-84.39 68.43,-152.81 152.81,-152.81 84.39,0 152.82,68.42 152.82,152.81 z"
         id="path3037"
         style="fill:none;stroke:#000000;stroke-width:5.90875006;stroke-linecap:butt;stroke-linejoin:miter;stroke-miterlimit:4;stroke-opacity:1;stroke-dasharray:none" /><path
         d="m 1929.51,4278.75 c 0,84.39 -68.34,152.81 -152.81,152.81 -84.39,0 -152.81,-68.42 -152.81,-152.81 0,-84.39 68.42,-152.81 152.81,-152.81 84.47,0 152.81,68.42 152.81,152.81 z"
         id="path3039"
         style="fill:none;stroke:#000000;stroke-width:5.90875006;stroke-linecap:butt;stroke-linejoin:miter;stroke-miterlimit:4;stroke-opacity:1;stroke-dasharray:none" /><path
         d="m 1069.69,7487.81 c 0,84.39 -68.43,152.81 -152.815,152.81 -84.395,0 -152.813,-68.42 -152.813,-152.81 0,-84.38 68.418,-152.81 152.813,-152.81 84.385,0 152.815,68.43 152.815,152.81 z"
         id="path3041"
         style="fill:none;stroke:#000000;stroke-width:5.90875006;stroke-linecap:butt;stroke-linejoin:miter;stroke-miterlimit:4;stroke-opacity:1;stroke-dasharray:none" /><path
         d="m 12836.2,7487.81 -1.6,-129.21 -4.3,-128.79 -7.6,-128.53 -10.2,-128.02 -13.6,-127.51 -17,-127.01 -18.7,-126.41 -22.9,-125.73 -24.6,-125.14 -28,-124.28 -31.4,-123.61 -33.1,-122.76 -36.5,-121.91 -39.9,-120.98 -41.6,-119.96 -45,-119.02 -47.6,-117.83 -50.1,-116.82 -53.5,-115.63 -55.1,-114.44 -58.6,-113.17 -61.1,-111.8 -62.9,-110.54 -66.2,-109.09 -68.7,-107.56 -71.4,-106.21 -74.7,-104.5 -76.4,-102.98 -78.9,-101.37 -80.7,-99.66 -19.5,-21.91 -3.4,-3.73 -4.2,-3.65 -3.4,-3.57 -4.3,-3.4 -4.2,-3.31 -4.3,-3.22 -4.2,-3.14 -4.3,-3.06 -4.2,-2.97 -4.3,-2.8 -5,-2.72 -4.3,-2.63 -5.1,-2.46 -4.2,-2.38 -5.1,-2.29 -4.3,-2.21 -5.1,-2.04 -5.1,-1.95 -5,-1.87 -4.3,-1.78 -5.1,-1.61 -5.1,-1.45 -5.1,-1.44 -5.1,-1.27 -5.1,-1.11 -5.1,-1.1 -5.9,-0.85 -5.1,-0.85 -5.1,-0.68 -5.1,-0.51 -5.9,-0.42 -5.1,-0.34 -2.6,0 -2.5,-0.08 -2.6,-0.18 -2.5,-0.16 -2.6,-0.34 -2.5,-0.34 -2.5,-0.43 -2.6,-0.43 -2.5,-0.59 -2.6,-0.59 -2.5,-0.6 -2.6,-0.76 -2.5,-0.76 -2.6,-0.86 -2.5,-0.84 -1.7,-1.02 -2.6,-1.02 -2.5,-1.02 -2.6,-1.1 -1.7,-1.19 -2.5,-1.27 -2.6,-1.28 -1.6,-1.36 -2.6,-1.44 -1.7,-1.44 -2.5,-1.53 -1.7,-1.53 -2.6,-1.61 -1.7,-1.7 -1.7,-1.7 -1.7,-1.78 -2.5,-1.87 726.7,-726.2 -324.3,-324.21 -814.2,813.89 -8.5,9.17 -8.5,8.49 -9.3,7.98 -9.3,7.47 -10.2,6.88 -9.4,6.28 -10.1,5.77 -11.1,5.18 -10.2,4.67 -11,4.08 -11,3.48 -11.1,2.97 -11,2.37 -11.9,1.79 -11,1.27 -11.9,0.68 -11.1,0.08 -11,-0.42 -11.9,-1.02 -11,-1.61 -11.9,-2.21 -11,-2.72 -11.1,-3.3 -11,-3.91 -11,-4.5 -10.2,-5.01 -10.2,-5.6 -10.2,-6.2 -10.2,-6.79 -9.3,-7.3 -9.4,-7.98 -9.3,-8.49 -17.8,-15.03 -197,-154.68 -202,-143.39 -207.19,-132.27 -212.24,-121.14 -216.49,-109.94 -220.73,-98.91 -223.27,-87.69 -227.52,-76.67 -229.22,-65.45 -231.43,-54.5 -233.46,-43.38 -234.74,-32.26 -235.76,-21.31 -236.35,-10.19 -236.34,0.76 -236.1,11.8 -235.42,22.84 -234.31,33.87 -232.7,44.75 -230.83,55.77 -228.37,66.81 -225.57,77.68 -222.42,88.63 -218.78,99.5 -214.7,110.53 -210.29,121.32 -205.36,132.27 -200.1,143.22 -194.41,154 -188.22,164.87 -181.93,175.56 -8.66,5.69 -8.74,5.27 -9,4.75 -9.09,4.41 -9.25,3.99 -9.34,3.48 -9.51,3.14 -9.51,2.64 -9.59,2.29 -9.68,1.78 -9.76,1.45 -9.76,1.02 -9.76,0.5 -9.77,0.17 -9.85,-0.25 -9.67,-0.68 -9.77,-1.1 -9.68,-1.53 -9.59,-1.87 -9.51,-2.29 -9.42,-2.8 -9.26,-3.15 -9.25,-3.48 -9,-3.99 -8.91,-4.33 -8.75,-4.75 -8.57,-5.18 -8.4,-5.52 -8.16,-5.94 -7.98,-6.37 -7.64,-6.79 -7.47,-7.13 -6.79,-6.45 -6.96,-6.2 -7.21,-5.86 -7.39,-5.51 -7.56,-5.27 -7.72,-4.84 -7.9,-4.58 -8.06,-4.25 -8.15,-3.82 -8.32,-3.56 -8.41,-3.23 -8.57,-2.88 -8.58,-2.55 -8.74,-2.21 -8.74,-1.87 -8.83,-1.44 -8.92,-1.19 -8.91,-0.85 -9,-0.42 -9,-0.17 -9,0.25 -8.91,0.6 -9,0.93 -9,1.36 -8.92,1.61 -8.91,2.04 -8.75,2.38 -8.82,2.8 -8.66,3.05 -8.58,3.48 -8.49,3.91 -8.4,4.16 -80.23,94.66 -77.93,96.18 -75.56,97.72 -73.26,99.25 -70.89,100.76 -68.6,102.13 -66.13,103.49 -63.76,104.94 -61.38,106.12 -58.91,107.39 -56.46,108.58 -53.99,109.85 -51.54,110.88 -49.07,111.98 -46.52,112.99 -43.98,114.02 -41.51,114.95 -38.88,115.88 -36.34,116.64 -33.7,117.59 -31.16,118.34 -28.52,119.03 -25.81,119.7 -23.26,120.38 -20.55,121.06 -17.83,121.49 -15.19,122.08 -12.4,122.59 -9.67,123.01 -6.97,123.36 -4.24,123.69 -1.36,124.03"
         id="path3043"
         style="fill:none;stroke:#000000;stroke-width:5.90875006;stroke-linecap:butt;stroke-linejoin:miter;stroke-miterlimit:4;stroke-opacity:1;stroke-dasharray:none" /><path
         d="m 12836.2,7478.73 0,162.83 -0.8,162.83 -0.8,162.74 -2.6,162.83 -2.5,162.75 -2.6,162.75 -4.2,162.32 -4.3,163 -5.1,163 -5.9,162.15 -6.8,163 -6.8,162.15 -7.6,163 -7.7,162.15 -9.3,163 -9.4,162.17 -10.1,162.1 -11.1,163 -11,162.2 -11.9,162.1 -12.7,162.2 -13.6,162.1 -13.6,162.2 -15.3,162.1 -15.3,162.2 -15.2,162.1 -17,162.2 -17,161.3 -3.4,35.6 474.6,0 177.4,-228.3 208,-298 191.9,-304.8 175.7,-312.4 158.7,-319.2 142.7,-324.3 125.6,-330.25 110.4,-333.64 92.5,-338.74 77.3,-341.28 60.3,-344.68 44.1,-346.03 27.2,-347.73 11,-348.42 -5.9,-348.49 -22.1,-348.08 -38.2,-346.97 -55.2,-345.1 -71.3,-342.72 -87.5,-339.76 -104.4,-336.02 -121.4,-331.77 -137.5,-326.76 -153.7,-321.25 -170.6,-315.13 -186.8,-308.17 -203.7,-300.79 -219.9,-292.63 -236.9,-283.98 -253,-274.64 -266.5,-261.56 -276.8,-245.35 -285.2,-229.05 -294.6,-212.83 -302.3,-196.54 -309,-180.23 -316.6,-163.851 -322.7,-147.609 -327.65,-131.23 -331.94,-114.875 -337.04,-98.497 -340.43,-82.101 -342.98,-65.699 -345.95,-49.286 -347.14,-32.843 -348.24,-16.395 -348.58,0.067 -348.33,16.547 -347.48,33.042 -346.03,49.555 -343.75,66.074 -341.11,82.61 -337.63,99.168 -333.56,115.73 -328.97,132.321 -323.62,148.941 -317.68,165.461 -311.06,182.19 -303.92,198.82 -296.12,215.47 -287.54,232.1 -278.55,248.83 645.89,645.72 -324.13,324.13 -645.72,-645.89 -246.2,275.41 -229.81,284.31 -213.6,292.72 -197.3,300.37 -180.995,307.49 -164.758,314.03 -148.5,319.89 -132.265,325.14 -116.039,329.83 -99.809,333.81 -83.605,337.29 -67.403,340.09 -51.2029,342.3 -35.0234,343.91 -18.84767,344.85 -2.687499,345.19 13.468769,345.02 29.6133,344.08 45.75,342.47 61.8714,340.43 77.984,337.88 94.102,334.49 110.183,331.1 126.285,325.99 142.352,320.9 158.426,315 174.46,308.1 190.59,302.3 206.55,293.7 170.64,219 474.49,0 -3.91,-35.6 -17.06,-161.3 -16.48,-162.2 -15.87,-162.1 -15.2,-162.2 -14.51,-162.1 -13.93,-162.2 -13.32,-162.1 -12.65,-162.2 -12.06,-162.1 -11.46,-162.2 -10.78,-163 -10.11,-162.1 -9.5,-162.17 -8.92,-163 -8.23,-162.15 -7.64,-163 -7.05,-162.15 -6.37,-163 -5.68,-162.15 -5.1,-163 -4.5,-163 -3.82,-162.32 -3.22,-162.75 -2.55,-162.75 -1.95,-162.83 -1.36,-162.74 -0.59,-162.83 -0.09,-162.83"
         id="path3045"
         style="fill:none;stroke:#000000;stroke-width:5.90875006;stroke-linecap:butt;stroke-linejoin:miter;stroke-miterlimit:4;stroke-opacity:1;stroke-dasharray:none" /><path
         d="m 1776.28,11002.5 0,-611.3"
         id="path3047"
         style="fill:none;stroke:#000000;stroke-width:5.90875006;stroke-linecap:butt;stroke-linejoin:miter;stroke-miterlimit:4;stroke-opacity:1;stroke-dasharray:none" /><path
         d="m 2081.9,10696.9 -611.25,0"
         id="path3049"
         style="fill:none;stroke:#000000;stroke-width:5.90875006;stroke-linecap:butt;stroke-linejoin:miter;stroke-miterlimit:4;stroke-opacity:1;stroke-dasharray:none" /><path
         d="m 1317.84,11002.5 0,-611.3"
         id="path3051"
         style="fill:none;stroke:#000000;stroke-width:5.90875006;stroke-linecap:butt;stroke-linejoin:miter;stroke-miterlimit:4;stroke-opacity:1;stroke-dasharray:none" /><path
         d="m 1623.46,10696.9 -611.25,0"
         id="path3053"
         style="fill:none;stroke:#000000;stroke-width:5.90875006;stroke-linecap:butt;stroke-linejoin:miter;stroke-miterlimit:4;stroke-opacity:1;stroke-dasharray:none" /><path
         d="m 13352.4,11002.5 0,-611.3"
         id="path3055"
         style="fill:none;stroke:#000000;stroke-width:5.90875006;stroke-linecap:butt;stroke-linejoin:miter;stroke-miterlimit:4;stroke-opacity:1;stroke-dasharray:none" /><path
         d="m 13046.8,10696.9 611.2,0"
         id="path3057"
         style="fill:none;stroke:#000000;stroke-width:5.90875006;stroke-linecap:butt;stroke-linejoin:miter;stroke-miterlimit:4;stroke-opacity:1;stroke-dasharray:none" /><path
         d="m 1776.28,11002.5 0,-611.3"
         id="path3059"
         style="fill:none;stroke:#000000;stroke-width:5.90875006;stroke-linecap:butt;stroke-linejoin:miter;stroke-miterlimit:4;stroke-opacity:1;stroke-dasharray:none" /><path
         d="m 2081.9,10696.9 -611.25,0"
         id="path3061"
         style="fill:none;stroke:#000000;stroke-width:5.90875006;stroke-linecap:butt;stroke-linejoin:miter;stroke-miterlimit:4;stroke-opacity:1;stroke-dasharray:none" /><path
         d="m 1776.28,11002.5 0,-611.3"
         id="path3063"
         style="fill:none;stroke:#000000;stroke-width:5.90875006;stroke-linecap:butt;stroke-linejoin:miter;stroke-miterlimit:4;stroke-opacity:1;stroke-dasharray:none" /><path
         d="m 2081.9,10696.9 -611.25,0"
         id="path3065"
         style="fill:none;stroke:#000000;stroke-width:5.90875006;stroke-linecap:butt;stroke-linejoin:miter;stroke-miterlimit:4;stroke-opacity:1;stroke-dasharray:none" /><path
         d="m 1776.28,11002.5 0,-611.3"
         id="path3067"
         style="fill:none;stroke:#000000;stroke-width:5.90875006;stroke-linecap:butt;stroke-linejoin:miter;stroke-miterlimit:4;stroke-opacity:1;stroke-dasharray:none" /><path
         d="m 2081.9,10696.9 -611.25,0"
         id="path3069"
         style="fill:none;stroke:#000000;stroke-width:5.90875006;stroke-linecap:butt;stroke-linejoin:miter;stroke-miterlimit:4;stroke-opacity:1;stroke-dasharray:none" /><path
         d="m 1852.68,10696.9 c 0,42.4 -34.21,76.4 -76.4,76.4 -42.2,0 -76.41,-34 -76.41,-76.4 0,-41.6 34.21,-76.4 76.41,-76.4 42.19,0 76.4,34.8 76.4,76.4 z"
         id="path3071"
         style="fill:none;stroke:#000000;stroke-width:5.90875006;stroke-linecap:butt;stroke-linejoin:miter;stroke-miterlimit:4;stroke-opacity:1;stroke-dasharray:none" /><path
         d="m 1394.25,10696.9 c 0,42.4 -34.22,76.4 -76.41,76.4 -42.2,0 -76.41,-34 -76.41,-76.4 0,-41.6 34.21,-76.4 76.41,-76.4 42.19,0 76.41,34.8 76.41,76.4 z"
         id="path3073"
         style="fill:none;stroke:#000000;stroke-width:5.90875006;stroke-linecap:butt;stroke-linejoin:miter;stroke-miterlimit:4;stroke-opacity:1;stroke-dasharray:none" /><path
         d="m 13428.8,10696.9 c 0,42.4 -34.8,76.4 -76.4,76.4 -42.4,0 -76.4,-34 -76.4,-76.4 0,-41.6 34,-76.4 76.4,-76.4 41.6,0 76.4,34.8 76.4,76.4 z"
         id="path3075"
         style="fill:none;stroke:#000000;stroke-width:5.90875006;stroke-linecap:butt;stroke-linejoin:miter;stroke-miterlimit:4;stroke-opacity:1;stroke-dasharray:none" /></g></g></svg>