  0
SECTION
2
HEADER
  9
$ACADVER
  1
AC1009
  9
$EXTMIN
 10
-36.000
20
-12.000
  9
$EXTMAX
 10
12.000
 20
12.000
  9
$LIMMIN
 10
-36.000
20
-12.000
  9
$LIMMAX
 10
12.000
 20
12.000
  9
$CLAYER
  8
blank
  0
ENDSEC
  0
SECTION
  2
TABLES
  0
TABLE
  2
LAYER
 70
1
  0
LAYER
  2
blank
 70
64
 62
1
  6
CONTINUOUS
  0
ENDTAB
  0
ENDSEC
  0
SECTION
  2
ENTITIES
  0
POINT
  8
blank
 10
0
 20
0
  0
POINT
  8
blank
 10
0
 20
0
  0
POINT
  8
blank
 10
10.5
 20
0
  0
POINT
  8
blank
 10
-10.5
 20
0
  0
POINT
  8
blank
 10
-9.09327
 20
-5.25001
  0
POINT
  8
blank
 10
-5.25044
 20
-9.09405
  0
POINT
  8
blank
 10
5.25013
 20
-9.09349
  0
POINT
  8
blank
 10
9.09504
 20
-5.25102
  0
POINT
  8
blank
 10
9.09365
 20
5.25022
  0
POINT
  8
blank
 10
-9.09405
 20
5.25045
  0
POINT
  8
blank
 10
-1.92876e-015
 20
-10.5
  0
CIRCLE
  8
blank
 10
-9.09405
 20
5.25045
 40
0.125
  0
CIRCLE
  8
blank
 10
9.09365
 20
5.25022
 40
0.125
  0
CIRCLE
  8
blank
 10
10.5
 20
0
 40
0.25
  0
CIRCLE
  8
blank
 10
9.09504
 20
-5.25102
 40
0.25
  0
CIRCLE
  8
blank
 10
5.25013
 20
-9.09349
 40
0.25
  0
CIRCLE
  8
blank
 10
-1.92876e-015
 20
-10.5
 40
0.25
  0
CIRCLE
  8
blank
 10
-5.25044
 20
-9.09405
 40
0.25
  0
CIRCLE
  8
blank
 10
-9.09327
 20
-5.25001
 40
0.25
  0
CIRCLE
  8
blank
 10
-10.5
 20
0
 40
0.25
  0
POLYLINE
  8
blank
 66
1
  0
VERTEX
  8
blank
 10
9
 20
3.70903e-007
  0
VERTEX
  8
blank
 10
8.99753
 20
-0.211357
  0
VERTEX
  8
blank
 10
8.99011
 20
-0.422152
  0
VERTEX
  8
blank
 10
8.97778
 20
-0.632307
  0
VERTEX
  8
blank
 10
8.96058
 20
-0.841741
  0
VERTEX
  8
blank
 10
8.93853
 20
-1.05038
  0
VERTEX
  8
blank
 10
8.91166
 20
-1.25814
  0
VERTEX
  8
blank
 10
8.88001
 20
-1.46494
  0
VERTEX
  8
blank
 10
8.8436
 20
-1.6707
  0
VERTEX
  8
blank
 10
8.80247
 20
-1.87536
  0
VERTEX
  8
blank
 10
8.75665
 20
-2.07882
  0
VERTEX
  8
blank
 10
8.70617
 20
-2.281
  0
VERTEX
  8
blank
 10
8.65106
 20
-2.48184
  0
VERTEX
  8
blank
 10
8.59134
 20
-2.68124
  0
VERTEX
  8
blank
 10
8.52706
 20
-2.87914
  0
VERTEX
  8
blank
 10
8.45823
 20
-3.07545
  0
VERTEX
  8
blank
 10
8.3849
 20
-3.27009
  0
VERTEX
  8
blank
 10
8.3071
 20
-3.46298
  0
VERTEX
  8
blank
 10
8.22484
 20
-3.65405
  0
VERTEX
  8
blank
 10
8.13817
 20
-3.84322
  0
VERTEX
  8
blank
 10
8.04712
 20
-4.0304
  0
VERTEX
  8
blank
 10
7.95171
 20
-4.21552
  0
VERTEX
  8
blank
 10
7.85198
 20
-4.3985
  0
VERTEX
  8
blank
 10
7.74796
 20
-4.57926
  0
VERTEX
  8
blank
 10
7.63968
 20
-4.75772
  0
VERTEX
  8
blank
 10
7.52716
 20
-4.9338
  0
VERTEX
  8
blank
 10
7.41044
 20
-5.10743
  0
VERTEX
  8
blank
 10
7.28956
 20
-5.27852
  0
VERTEX
  8
blank
 10
7.16454
 20
-5.447
  0
VERTEX
  8
blank
 10
7.03541
 20
-5.61279
  0
VERTEX
  8
blank
 10
6.9022
 20
-5.7758
  0
VERTEX
  8
blank
 10
6.87144
 20
-5.81169
  0
VERTEX
  8
blank
 10
6.86518
 20
-5.8178
  0
VERTEX
  8
blank
 10
6.8588
 20
-5.82374
  0
VERTEX
  8
blank
 10
6.85229
 20
-5.82952
  0
VERTEX
  8
blank
 10
6.84567
 20
-5.83515
  0
VERTEX
  8
blank
 10
6.83892
 20
-5.8406
  0
VERTEX
  8
blank
 10
6.83206
 20
-5.8459
  0
VERTEX
  8
blank
 10
6.82509
 20
-5.85102
  0
VERTEX
  8
blank
 10
6.81801
 20
-5.85598
  0
VERTEX
  8
blank
 10
6.81083
 20
-5.86077
  0
VERTEX
  8
blank
 10
6.80354
 20
-5.86539
  0
VERTEX
  8
blank
 10
6.79615
 20
-5.86984
  0
VERTEX
  8
blank
 10
6.78867
 20
-5.87411
  0
VERTEX
  8
blank
 10
6.7811
 20
-5.87821
  0
VERTEX
  8
blank
 10
6.77344
 20
-5.88213
  0
VERTEX
  8
blank
 10
6.76569
 20
-5.88587
  0
VERTEX
  8
blank
 10
6.75786
 20
-5.88944
  0
VERTEX
  8
blank
 10
6.74995
 20
-5.89282
  0
VERTEX
  8
blank
 10
6.74197
 20
-5.89603
  0
VERTEX
  8
blank
 10
6.73391
 20
-5.89904
  0
VERTEX
  8
blank
 10
6.72578
 20
-5.90188
  0
VERTEX
  8
blank
 10
6.71758
 20
-5.90453
  0
VERTEX
  8
blank
 10
6.70932
 20
-5.90699
  0
VERTEX
  8
blank
 10
6.701
 20
-5.90926
  0
VERTEX
  8
blank
 10
6.69262
 20
-5.91135
  0
VERTEX
  8
blank
 10
6.68418
 20
-5.91324
  0
VERTEX
  8
blank
 10
6.6757
 20
-5.91493
  0
VERTEX
  8
blank
 10
6.66717
 20
-5.91644
  0
VERTEX
  8
blank
 10
6.65859
 20
-5.91775
  0
VERTEX
  8
blank
 10
6.64997
 20
-5.91886
  0
VERTEX
  8
blank
 10
6.64131
 20
-5.91977
  0
VERTEX
  8
blank
 10
6.63262
 20
-5.92048
  0
VERTEX
  8
blank
 10
6.62389
 20
-5.92099
  0
VERTEX
  8
blank
 10
6.6196
 20
-5.92095
  0
VERTEX
  8
blank
 10
6.61533
 20
-5.92111
  0
VERTEX
  8
blank
 10
6.61107
 20
-5.92137
  0
VERTEX
  8
blank
 10
6.60683
 20
-5.92173
  0
VERTEX
  8
blank
 10
6.60261
 20
-5.9222
  0
VERTEX
  8
blank
 10
6.5984
 20
-5.92277
  0
VERTEX
  8
blank
 10
6.59422
 20
-5.92344
  0
VERTEX
  8
blank
 10
6.59006
 20
-5.92421
  0
VERTEX
  8
blank
 10
6.58593
 20
-5.92509
  0
VERTEX
  8
blank
 10
6.58182
 20
-5.92606
  0
VERTEX
  8
blank
 10
6.57774
 20
-5.92714
  0
VERTEX
  8
blank
 10
6.5737
 20
-5.92831
  0
VERTEX
  8
blank
 10
6.56968
 20
-5.92958
  0
VERTEX
  8
blank
 10
6.5657
 20
-5.93095
  0
VERTEX
  8
blank
 10
6.56175
 20
-5.93242
  0
VERTEX
  8
blank
 10
6.55784
 20
-5.93398
  0
VERTEX
  8
blank
 10
6.55398
 20
-5.93563
  0
VERTEX
  8
blank
 10
6.55015
 20
-5.93738
  0
VERTEX
  8
blank
 10
6.54636
 20
-5.93923
  0
VERTEX
  8
blank
 10
6.54262
 20
-5.94116
  0
VERTEX
  8
blank
 10
6.53893
 20
-5.94319
  0
VERTEX
  8
blank
 10
6.53528
 20
-5.94531
  0
VERTEX
  8
blank
 10
6.53168
 20
-5.94752
  0
VERTEX
  8
blank
 10
6.52814
 20
-5.94982
  0
VERTEX
  8
blank
 10
6.52465
 20
-5.95221
  0
VERTEX
  8
blank
 10
6.52121
 20
-5.95469
  0
VERTEX
  8
blank
 10
6.51783
 20
-5.95725
  0
VERTEX
  8
blank
 10
6.51451
 20
-5.9599
  0
VERTEX
  8
blank
 10
6.51125
 20
-5.96264
  0
VERTEX
  8
blank
 10
6.50806
 20
-5.96546
  0
VERTEX
  8
blank
 10
6.50492
 20
-5.96837
  0
VERTEX
  8
blank
 10
6.50186
 20
-5.97136
  0
VERTEX
  8
blank
 10
7.68979
 20
-7.15946
  0
VERTEX
  8
blank
 10
7.15946
 20
-7.68979
  0
VERTEX
  8
blank
 10
5.82748
 20
-6.35828
  0
VERTEX
  8
blank
 10
5.81378
 20
-6.34338
  0
VERTEX
  8
blank
 10
5.79949
 20
-6.3294
  0
VERTEX
  8
blank
 10
5.78464
 20
-6.31633
  0
VERTEX
  8
blank
 10
5.76926
 20
-6.30417
  0
VERTEX
  8
blank
 10
5.75339
 20
-6.29292
  0
VERTEX
  8
blank
 10
5.73708
 20
-6.28259
  0
VERTEX
  8
blank
 10
5.72036
 20
-6.27317
  0
VERTEX
  8
blank
 10
5.70326
 20
-6.26468
  0
VERTEX
  8
blank
 10
5.68583
 20
-6.2571
  0
VERTEX
  8
blank
 10
5.66811
 20
-6.25044
  0
VERTEX
  8
blank
 10
5.65012
 20
-6.2447
  0
VERTEX
  8
blank
 10
5.63192
 20
-6.23989
  0
VERTEX
  8
blank
 10
5.61352
 20
-6.236
  0
VERTEX
  8
blank
 10
5.59499
 20
-6.23304
  0
VERTEX
  8
blank
 10
5.57635
 20
-6.231
  0
VERTEX
  8
blank
 10
5.55763
 20
-6.22989
  0
VERTEX
  8
blank
 10
5.53889
 20
-6.22971
  0
VERTEX
  8
blank
 10
5.52015
 20
-6.23047
  0
VERTEX
  8
blank
 10
5.50145
 20
-6.23215
  0
VERTEX
  8
blank
 10
5.48284
 20
-6.23477
  0
VERTEX
  8
blank
 10
5.46435
 20
-6.23832
  0
VERTEX
  8
blank
 10
5.44601
 20
-6.2428
  0
VERTEX
  8
blank
 10
5.42787
 20
-6.24823
  0
VERTEX
  8
blank
 10
5.40996
 20
-6.25459
  0
VERTEX
  8
blank
 10
5.39232
 20
-6.26189
  0
VERTEX
  8
blank
 10
5.37499
 20
-6.27014
  0
VERTEX
  8
blank
 10
5.35801
 20
-6.27932
  0
VERTEX
  8
blank
 10
5.34141
 20
-6.28946
  0
VERTEX
  8
blank
 10
5.32523
 20
-6.30053
  0
VERTEX
  8
blank
 10
5.30951
 20
-6.31255
  0
VERTEX
  8
blank
 10
5.29429
 20
-6.32552
  0
VERTEX
  8
blank
 10
5.27961
 20
-6.33944
  0
VERTEX
  8
blank
 10
5.25012
 20
-6.36409
  0
VERTEX
  8
blank
 10
4.92816
 20
-6.61702
  0
VERTEX
  8
blank
 10
4.59714
 20
-6.85167
  0
VERTEX
  8
blank
 10
4.25775
 20
-7.06806
  0
VERTEX
  8
blank
 10
3.91066
 20
-7.26621
  0
VERTEX
  8
blank
 10
3.55656
 20
-7.44613
  0
VERTEX
  8
blank
 10
3.19612
 20
-7.60785
  0
VERTEX
  8
blank
 10
2.83004
 20
-7.75138
  0
VERTEX
  8
blank
 10
2.45898
 20
-7.87674
  0
VERTEX
  8
blank
 10
2.08364
 20
-7.98395
  0
VERTEX
  8
blank
 10
1.70469
 20
-8.07303
  0
VERTEX
  8
blank
 10
1.32281
 20
-8.14399
  0
VERTEX
  8
blank
 10
0.938695
 20
-8.19686
  0
VERTEX
  8
blank
 10
0.553013
 20
-8.23164
  0
VERTEX
  8
blank
 10
0.166449
 20
-8.24837
  0
VERTEX
  8
blank
 10
-0.220314
 20
-8.24706
  0
VERTEX
  8
blank
 10
-0.606596
 20
-8.22772
  0
VERTEX
  8
blank
 10
-0.991714
 20
-8.19038
  0
VERTEX
  8
blank
 10
-1.37499
 20
-8.13505
  0
VERTEX
  8
blank
 10
-1.75574
 20
-8.06175
  0
VERTEX
  8
blank
 10
-2.13328
 20
-7.9705
  0
VERTEX
  8
blank
 10
-2.50693
 20
-7.86131
  0
VERTEX
  8
blank
 10
-2.87602
 20
-7.73422
  0
VERTEX
  8
blank
 10
-3.23985
 20
-7.58922
  0
VERTEX
  8
blank
 10
-3.59775
 20
-7.42635
  0
VERTEX
  8
blank
 10
-3.94903
 20
-7.24562
  0
VERTEX
  8
blank
 10
-4.29303
 20
-7.04705
  0
VERTEX
  8
blank
 10
-4.62904
 20
-6.83065
  0
VERTEX
  8
blank
 10
-4.95639
 20
-6.59645
  0
VERTEX
  8
blank
 10
-5.27441
 20
-6.34446
  0
VERTEX
  8
blank
 10
-5.58241
 20
-6.0747
  0
VERTEX
  8
blank
 10
-5.88002
 20
-5.78751
  0
VERTEX
  8
blank
 10
-5.89414
 20
-5.77822
  0
VERTEX
  8
blank
 10
-5.90854
 20
-5.76964
  0
VERTEX
  8
blank
 10
-5.9232
 20
-5.76176
  0
VERTEX
  8
blank
 10
-5.93809
 20
-5.75459
  0
VERTEX
  8
blank
 10
-5.9532
 20
-5.74812
  0
VERTEX
  8
blank
 10
-5.96851
 20
-5.74235
  0
VERTEX
  8
blank
 10
-5.98398
 20
-5.73727
  0
VERTEX
  8
blank
 10
-5.99959
 20
-5.73289
  0
VERTEX
  8
blank
 10
-6.01533
 20
-5.72921
  0
VERTEX
  8
blank
 10
-6.03117
 20
-5.72621
  0
VERTEX
  8
blank
 10
-6.04708
 20
-5.72391
  0
VERTEX
  8
blank
 10
-6.06305
 20
-5.72229
  0
VERTEX
  8
blank
 10
-6.07905
 20
-5.72135
  0
VERTEX
  8
blank
 10
-6.09505
 20
-5.7211
  0
VERTEX
  8
blank
 10
-6.11104
 20
-5.72153
  0
VERTEX
  8
blank
 10
-6.12699
 20
-5.72264
  0
VERTEX
  8
blank
 10
-6.14288
 20
-5.72442
  0
VERTEX
  8
blank
 10
-6.15869
 20
-5.72688
  0
VERTEX
  8
blank
 10
-6.17439
 20
-5.73001
  0
VERTEX
  8
blank
 10
-6.18995
 20
-5.73381
  0
VERTEX
  8
blank
 10
-6.20537
 20
-5.73828
  0
VERTEX
  8
blank
 10
-6.22061
 20
-5.74342
  0
VERTEX
  8
blank
 10
-6.23564
 20
-5.74922
  0
VERTEX
  8
blank
 10
-6.25046
 20
-5.75568
  0
VERTEX
  8
blank
 10
-6.26503
 20
-5.7628
  0
VERTEX
  8
blank
 10
-6.27934
 20
-5.77058
  0
VERTEX
  8
blank
 10
-6.29335
 20
-5.77901
  0
VERTEX
  8
blank
 10
-6.30705
 20
-5.7881
  0
VERTEX
  8
blank
 10
-6.32041
 20
-5.79783
  0
VERTEX
  8
blank
 10
-6.33341
 20
-5.80822
  0
VERTEX
  8
blank
 10
-6.34603
 20
-5.81926
  0
VERTEX
  8
blank
 10
-6.35824
 20
-5.83094
  0
VERTEX
  8
blank
 10
-6.36933
 20
-5.84158
  0
VERTEX
  8
blank
 10
-6.38076
 20
-5.8517
  0
VERTEX
  8
blank
 10
-6.39253
 20
-5.86129
  0
VERTEX
  8
blank
 10
-6.4046
 20
-5.87035
  0
VERTEX
  8
blank
 10
-6.41697
 20
-5.87887
  0
VERTEX
  8
blank
 10
-6.42962
 20
-5.88686
  0
VERTEX
  8
blank
 10
-6.44253
 20
-5.8943
  0
VERTEX
  8
blank
 10
-6.45568
 20
-5.9012
  0
VERTEX
  8
blank
 10
-6.46906
 20
-5.90756
  0
VERTEX
  8
blank
 10
-6.48264
 20
-5.91337
  0
VERTEX
  8
blank
 10
-6.49642
 20
-5.91863
  0
VERTEX
  8
blank
 10
-6.51036
 20
-5.92334
  0
VERTEX
  8
blank
 10
-6.52446
 20
-5.92749
  0
VERTEX
  8
blank
 10
-6.5387
 20
-5.93108
  0
VERTEX
  8
blank
 10
-6.55306
 20
-5.93412
  0
VERTEX
  8
blank
 10
-6.56752
 20
-5.93659
  0
VERTEX
  8
blank
 10
-6.58207
 20
-5.93849
  0
VERTEX
  8
blank
 10
-6.59669
 20
-5.93982
  0
VERTEX
  8
blank
 10
-6.61135
 20
-5.94059
  0
VERTEX
  8
blank
 10
-6.62605
 20
-5.94077
  0
VERTEX
  8
blank
 10
-6.64077
 20
-5.94039
  0
VERTEX
  8
blank
 10
-6.65548
 20
-5.93942
  0
VERTEX
  8
blank
 10
-6.67017
 20
-5.93787
  0
VERTEX
  8
blank
 10
-6.68483
 20
-5.93574
  0
VERTEX
  8
blank
 10
-6.69943
 20
-5.93302
  0
VERTEX
  8
blank
 10
-6.71396
 20
-5.9297
  0
VERTEX
  8
blank
 10
-6.7284
 20
-5.9258
  0
VERTEX
  8
blank
 10
-6.74273
 20
-5.9213
  0
VERTEX
  8
blank
 10
-6.75694
 20
-5.91621
  0
VERTEX
  8
blank
 10
-6.77101
 20
-5.91051
  0
VERTEX
  8
blank
 10
-6.78492
 20
-5.90421
  0
VERTEX
  8
blank
 10
-6.79865
 20
-5.89731
  0
VERTEX
  8
blank
 10
-6.92988
 20
-5.74254
  0
VERTEX
  8
blank
 10
-7.05734
 20
-5.58516
  0
VERTEX
  8
blank
 10
-7.181
 20
-5.42525
  0
VERTEX
  8
blank
 10
-7.30086
 20
-5.26286
  0
VERTEX
  8
blank
 10
-7.41686
 20
-5.09808
  0
VERTEX
  8
blank
 10
-7.529
 20
-4.93097
  0
VERTEX
  8
blank
 10
-7.63724
 20
-4.76161
  0
VERTEX
  8
blank
 10
-7.74156
 20
-4.59006
  0
VERTEX
  8
blank
 10
-7.84192
 20
-4.41639
  0
VERTEX
  8
blank
 10
-7.93832
 20
-4.24067
  0
VERTEX
  8
blank
 10
-8.03071
 20
-4.06299
  0
VERTEX
  8
blank
 10
-8.11907
 20
-3.88339
  0
VERTEX
  8
blank
 10
-8.20338
 20
-3.70197
  0
VERTEX
  8
blank
 10
-8.28361
 20
-3.51878
  0
VERTEX
  8
blank
 10
-8.35973
 20
-3.33389
  0
VERTEX
  8
blank
 10
-8.43172
 20
-3.14739
  0
VERTEX
  8
blank
 10
-8.49955
 20
-2.95933
  0
VERTEX
  8
blank
 10
-8.56319
 20
-2.76979
  0
VERTEX
  8
blank
 10
-8.62262
 20
-2.57883
  0
VERTEX
  8
blank
 10
-8.67782
 20
-2.38654
  0
VERTEX
  8
blank
 10
-8.72875
 20
-2.19297
  0
VERTEX
  8
blank
 10
-8.77538
 20
-1.99821
  0
VERTEX
  8
blank
 10
-8.8177
 20
-1.80231
  0
VERTEX
  8
blank
 10
-8.85568
 20
-1.60535
  0
VERTEX
  8
blank
 10
-8.88929
 20
-1.40741
  0
VERTEX
  8
blank
 10
-8.9185
 20
-1.20854
  0
VERTEX
  8
blank
 10
-8.94329
 20
-1.00883
  0
VERTEX
  8
blank
 10
-8.96364
 20
-0.808338
  0
VERTEX
  8
blank
 10
-8.9795
 20
-0.607139
  0
VERTEX
  8
blank
 10
-8.99087
 20
-0.405303
  0
VERTEX
  8
blank
 10
-8.99771
 20
-0.202899
  0
VERTEX
  8
blank
 10
-8.99999
 20
3.70903e-007
  0
SEQEND
  0
POLYLINE
  8
blank
 66
1
  0
VERTEX
  8
blank
 10
9
 20
-0.0148348
  0
VERTEX
  8
blank
 10
8.99993
 20
0.251529
  0
VERTEX
  8
blank
 10
8.99882
 20
0.517876
  0
VERTEX
  8
blank
 10
8.99668
 20
0.784203
  0
VERTEX
  8
blank
 10
8.99351
 20
1.05051
  0
VERTEX
  8
blank
 10
8.9893
 20
1.31678
  0
VERTEX
  8
blank
 10
8.98405
 20
1.58303
  0
VERTEX
  8
blank
 10
8.97778
 20
1.84924
  0
VERTEX
  8
blank
 10
8.97046
 20
2.11542
  0
VERTEX
  8
blank
 10
8.96212
 20
2.38157
  0
VERTEX
  8
blank
 10
8.95274
 20
2.64766
  0
VERTEX
  8
blank
 10
8.94233
 20
2.91372
  0
VERTEX
  8
blank
 10
8.93088
 20
3.17973
  0
VERTEX
  8
blank
 10
8.9184
 20
3.44568
  0
VERTEX
  8
blank
 10
8.90489
 20
3.71159
  0
VERTEX
  8
blank
 10
8.89035
 20
3.97744
  0
VERTEX
  8
blank
 10
8.87477
 20
4.24322
  0
VERTEX
  8
blank
 10
8.85816
 20
4.50895
  0
VERTEX
  8
blank
 10
8.84052
 20
4.77461
  0
VERTEX
  8
blank
 10
8.82185
 20
5.0402
  0
VERTEX
  8
blank
 10
8.80214
 20
5.30572
  0
VERTEX
  8
blank
 10
8.78141
 20
5.57116
  0
VERTEX
  8
blank
 10
8.75964
 20
5.83653
  0
VERTEX
  8
blank
 10
8.73684
 20
6.10182
  0
VERTEX
  8
blank
 10
8.71301
 20
6.36702
  0
VERTEX
  8
blank
 10
8.68815
 20
6.63214
  0
VERTEX
  8
blank
 10
8.66226
 20
6.89717
  0
VERTEX
  8
blank
 10
8.63534
 20
7.1621
  0
VERTEX
  8
blank
 10
8.60739
 20
7.42694
  0
VERTEX
  8
blank
 10
8.601
 20
7.48528
  0
VERTEX
  8
blank
 10
9.37741
 20
7.48528
  0
VERTEX
  8
blank
 10
9.66812
 20
7.11094
  0
VERTEX
  8
blank
 10
10.0087
 20
6.62415
  0
VERTEX
  8
blank
 10
10.3225
 20
6.12472
  0
VERTEX
  8
blank
 10
10.6094
 20
5.61371
  0
VERTEX
  8
blank
 10
10.8694
 20
5.09214
  0
VERTEX
  8
blank
 10
11.1026
 20
4.56105
  0
VERTEX
  8
blank
 10
11.3089
 20
4.02147
  0
VERTEX
  8
blank
 10
11.4883
 20
3.47443
  0
VERTEX
  8
blank
 10
11.6408
 20
2.92098
  0
VERTEX
  8
blank
 10
11.7664
 20
2.36214
  0
VERTEX
  8
blank
 10
11.8651
 20
1.79896
  0
VERTEX
  8
blank
 10
11.9369
 20
1.23246
  0
VERTEX
  8
blank
 10
11.9817
 20
0.663678
  0
VERTEX
  8
blank
 10
11.9996
 20
0.0936539
  0
VERTEX
  8
blank
 10
11.9906
 20
-0.476581
  0
VERTEX
  8
blank
 10
11.9546
 20
-1.04599
  0
VERTEX
  8
blank
 10
11.8917
 20
-1.61354
  0
VERTEX
  8
blank
 10
11.8018
 20
-2.1782
  0
VERTEX
  8
blank
 10
11.6849
 20
-2.73893
  0
VERTEX
  8
blank
 10
11.5411
 20
-3.29469
  0
VERTEX
  8
blank
 10
11.3702
 20
-3.84446
  0
VERTEX
  8
blank
 10
11.1724
 20
-4.3872
  0
VERTEX
  8
blank
 10
10.9476
 20
-4.92186
  0
VERTEX
  8
blank
 10
10.6957
 20
-5.44743
  0
VERTEX
  8
blank
 10
10.4168
 20
-5.96286
  0
VERTEX
  8
blank
 10
10.1109
 20
-6.46712
  0
VERTEX
  8
blank
 10
9.77794
 20
-6.95917
  0
VERTEX
  8
blank
 10
9.41793
 20
-7.43798
  0
VERTEX
  8
blank
 10
9.03087
 20
-7.90252
  0
VERTEX
  8
blank
 10
8.61675
 20
-8.35174
  0
VERTEX
  8
blank
 10
8.18068
 20
-8.77969
  0
VERTEX
  8
blank
 10
7.72845
 20
-9.18107
  0
VERTEX
  8
blank
 10
7.26112
 20
-9.55585
  0
VERTEX
  8
blank
 10
6.7797
 20
-9.90401
  0
VERTEX
  8
blank
 10
6.28524
 20
-10.2255
  0
VERTEX
  8
blank
 10
5.77878
 20
-10.5204
  0
VERTEX
  8
blank
 10
5.26133
 20
-10.7885
  0
VERTEX
  8
blank
 10
4.73395
 20
-11.03
  0
VERTEX
  8
blank
 10
4.19765
 20
-11.2446
  0
VERTEX
  8
blank
 10
3.65349
 20
-11.4326
  0
VERTEX
  8
blank
 10
3.10249
 20
-11.5937
  0
VERTEX
  8
blank
 10
2.54568
 20
-11.728
  0
VERTEX
  8
blank
 10
1.98411
 20
-11.8355
  0
VERTEX
  8
blank
 10
1.4188
 20
-11.9161
  0
VERTEX
  8
blank
 10
0.850788
 20
-11.9699
  0
VERTEX
  8
blank
 10
0.281114
 20
-11.9967
  0
VERTEX
  8
blank
 10
-0.289192
 20
-11.9966
  0
VERTEX
  8
blank
 10
-0.859095
 20
-11.9695
  0
VERTEX
  8
blank
 10
-1.42756
 20
-11.9155
  0
VERTEX
  8
blank
 10
-1.99355
 20
-11.8344
  0
VERTEX
  8
blank
 10
-2.55604
 20
-11.7263
  0
VERTEX
  8
blank
 10
-3.11398
 20
-11.5912
  0
VERTEX
  8
blank
 10
-3.66635
 20
-11.4289
  0
VERTEX
  8
blank
 10
-4.21211
 20
-11.2396
  0
VERTEX
  8
blank
 10
-4.75023
 20
-11.0231
  0
VERTEX
  8
blank
 10
-5.27967
 20
-10.7795
  0
VERTEX
  8
blank
 10
-5.79939
 20
-10.5087
  0
VERTEX
  8
blank
 10
-6.30836
 20
-10.2107
  0
VERTEX
  8
blank
 10
-6.80556
 20
-9.88546
  0
VERTEX
  8
blank
 10
-7.28994
 20
-9.53299
  0
VERTEX
  8
blank
 10
-7.76046
 20
-9.15323
  0
VERTEX
  8
blank
 10
-8.2161
 20
-8.74618
  0
VERTEX
  8
blank
 10
-7.15946
 20
-7.68979
  0
VERTEX
  8
blank
 10
-7.68979
 20
-7.15946
  0
VERTEX
  8
blank
 10
-8.74617
 20
-8.21611
  0
VERTEX
  8
blank
 10
-9.14887
 20
-7.76558
  0
VERTEX
  8
blank
 10
-9.52491
 20
-7.3004
  0
VERTEX
  8
blank
 10
-9.8743
 20
-6.82159
  0
VERTEX
  8
blank
 10
-10.1971
 20
-6.33014
  0
VERTEX
  8
blank
 10
-10.4932
 20
-5.82706
  0
VERTEX
  8
blank
 10
-10.7627
 20
-5.31335
  0
VERTEX
  8
blank
 10
-11.0057
 20
-4.79002
  0
VERTEX
  8
blank
 10
-11.2221
 20
-4.25807
  0
VERTEX
  8
blank
 10
-11.4119
 20
-3.7185
  0
VERTEX
  8
blank
 10
-11.5752
 20
-3.17232
  0
VERTEX
  8
blank
 10
-11.712
 20
-2.62053
  0
VERTEX
  8
blank
 10
-11.8222
 20
-2.06414
  0
VERTEX
  8
blank
 10
-11.906
 20
-1.50414
  0
VERTEX
  8
blank
 10
-11.9633
 20
-0.941542
  0
VERTEX
  8
blank
 10
-11.9941
 20
-0.377352
  0
VERTEX
  8
blank
 10
-11.9985
 20
0.187429
  0
VERTEX
  8
blank
 10
-11.9765
 20
0.751797
  0
VERTEX
  8
blank
 10
-11.9281
 20
1.31475
  0
VERTEX
  8
blank
 10
-11.8532
 20
1.87528
  0
VERTEX
  8
blank
 10
-11.752
 20
2.43239
  0
VERTEX
  8
blank
 10
-11.6244
 20
2.98507
  0
VERTEX
  8
blank
 10
-11.4705
 20
3.53232
  0
VERTEX
  8
blank
 10
-11.2902
 20
4.07313
  0
VERTEX
  8
blank
 10
-11.0836
 20
4.60651
  0
VERTEX
  8
blank
 10
-10.8507
 20
5.13144
  0
VERTEX
  8
blank
 10
-10.5915
 20
5.64693
  0
VERTEX
  8
blank
 10
-10.3061
 20
6.15196
  0
VERTEX
  8
blank
 10
-9.99436
 20
6.64555
  0
VERTEX
  8
blank
 10
-9.65641
 20
7.12668
  0
VERTEX
  8
blank
 10
-9.37717
 20
7.48528
  0
VERTEX
  8
blank
 10
-8.601
 20
7.48528
  0
VERTEX
  8
blank
 10
-8.60739
 20
7.42694
  0
VERTEX
  8
blank
 10
-8.63534
 20
7.1621
  0
VERTEX
  8
blank
 10
-8.66226
 20
6.89717
  0
VERTEX
  8
blank
 10
-8.68815
 20
6.63214
  0
VERTEX
  8
blank
 10
-8.71301
 20
6.36702
  0
VERTEX
  8
blank
 10
-8.73684
 20
6.10182
  0
VERTEX
  8
blank
 10
-8.75964
 20
5.83653
  0
VERTEX
  8
blank
 10
-8.78141
 20
5.57116
  0
VERTEX
  8
blank
 10
-8.80214
 20
5.30572
  0
VERTEX
  8
blank
 10
-8.82185
 20
5.0402
  0
VERTEX
  8
blank
 10
-8.84052
 20
4.77461
  0
VERTEX
  8
blank
 10
-8.85816
 20
4.50895
  0
VERTEX
  8
blank
 10
-8.87477
 20
4.24322
  0
VERTEX
  8
blank
 10
-8.89035
 20
3.97744
  0
VERTEX
  8
blank
 10
-8.90489
 20
3.71159
  0
VERTEX
  8
blank
 10
-8.9184
 20
3.44568
  0
VERTEX
  8
blank
 10
-8.93088
 20
3.17973
  0
VERTEX
  8
blank
 10
-8.94233
 20
2.91372
  0
VERTEX
  8
blank
 10
-8.95274
 20
2.64766
  0
VERTEX
  8
blank
 10
-8.96212
 20
2.38157
  0
VERTEX
  8
blank
 10
-8.97046
 20
2.11542
  0
VERTEX
  8
blank
 10
-8.97778
 20
1.84924
  0
VERTEX
  8
blank
 10
-8.98405
 20
1.58303
  0
VERTEX
  8
blank
 10
-8.9893
 20
1.31678
  0
VERTEX
  8
blank
 10
-8.99351
 20
1.05051
  0
VERTEX
  8
blank
 10
-8.99668
 20
0.784203
  0
VERTEX
  8
blank
 10
-8.99882
 20
0.517876
  0
VERTEX
  8
blank
 10
-8.99993
 20
0.251529
  0
VERTEX
  8
blank
 10
-9
 20
-0.0148348
  0
SEQEND
  0
POINT
  8
blank
 10
-9.09405
 20
5.25045
  0
POINT
  8
blank
 10
-9.84405
 20
5.25045
  0
POINT
  8
blank
 10
9.84405
 20
5.25045
  0
POINT
  8
blank
 10
-9.09405
 20
5.25045
  0
POINT
  8
blank
 10
-9.09405
 20
5.25045
  0
POINT
  8
blank
 10
-9.09405
 20
5.25045
  0
CIRCLE
  8
blank
 10
-9.09405
 20
5.25045
 40
0.125
  0
CIRCLE
  8
blank
 10
-9.84405
 20
5.25045
 40
0.125
  0
CIRCLE
  8
blank
 10
9.84405
 20
5.25045
 40
0.125
  0
ENDSEC
  0
EOF
