  0
SECTION
2
HEADER
  9
$ACADVER
  1
AC1009
  9
$EXTMIN
 10
-36.000
20
-14.996
  9
$EXTMAX
 10
15.000
 20
12.000
  9
$LIMMIN
 10
-36.000
20
-14.996
  9
$LIMMAX
 10
15.000
 20
12.000
  9
$CLAYER
  8
0
  0
ENDSEC
  0
SECTION
  2
TABLES
  0
TABLE
  2
LAYER
 70
1
  0
LAYER
  2
0
 70
64
 62
1
  6
CONTINUOUS
  0
ENDTAB
  0
ENDSEC
  0
SECTION
  2
ENTITIES
  0
POINT
  8
0
 10
0
 20
0
  0
POINT
  8
0
 10
0
 20
0
  0
POLYLINE
  8
0
 66
1
  0
VERTEX
  8
0
 10
-10.2531
 20
-10.7834
  0
VERTEX
  8
0
 10
-9.10024
 20
-9.63058
  0
VERTEX
  8
0
 10
-9.63089
 20
-9.10057
  0
VERTEX
  8
0
 10
-10.7834
 20
-10.2531
  0
VERTEX
  8
0
 10
-10.7799
 20
-10.2498
  0
VERTEX
  8
0
 10
-11.2846
 20
-9.69191
  0
VERTEX
  8
0
 10
-11.756
 20
-9.11556
  0
VERTEX
  8
0
 10
-12.1942
 20
-8.52201
  0
VERTEX
  8
0
 10
-12.5991
 20
-7.9125
  0
VERTEX
  8
0
 10
-12.9709
 20
-7.2883
  0
VERTEX
  8
0
 10
-13.3094
 20
-6.65067
  0
VERTEX
  8
0
 10
-13.6149
 20
-6.00086
  0
VERTEX
  8
0
 10
-13.8871
 20
-5.34014
  0
VERTEX
  8
0
 10
-14.1263
 20
-4.66977
  0
VERTEX
  8
0
 10
-14.3323
 20
-3.991
  0
VERTEX
  8
0
 10
-14.5052
 20
-3.30509
  0
VERTEX
  8
0
 10
-14.645
 20
-2.6133
  0
VERTEX
  8
0
 10
-14.7518
 20
-1.9169
  0
VERTEX
  8
0
 10
-14.8255
 20
-1.21713
  0
VERTEX
  8
0
 10
-14.8662
 20
-0.515261
  0
VERTEX
  8
0
 10
-14.8738
 20
0.187451
  0
VERTEX
  8
0
 10
-14.8485
 20
0.889747
  0
VERTEX
  8
0
 10
-14.7901
 20
1.59037
  0
VERTEX
  8
0
 10
-14.6988
 20
2.28806
  0
VERTEX
  8
0
 10
-14.5745
 20
2.98155
  0
VERTEX
  8
0
 10
-14.4173
 20
3.66959
  0
VERTEX
  8
0
 10
-14.2271
 20
4.35093
  0
VERTEX
  8
0
 10
-14.0041
 20
5.02429
  0
VERTEX
  8
0
 10
-13.7481
 20
5.68842
  0
VERTEX
  8
0
 10
-13.4593
 20
6.34207
  0
VERTEX
  8
0
 10
-13.1376
 20
6.98397
  0
VERTEX
  8
0
 10
-12.7831
 20
7.61287
  0
VERTEX
  8
0
 10
-12.3957
 20
8.2275
  0
VERTEX
  8
0
 10
-11.9755
 20
8.82661
  0
VERTEX
  8
0
 10
-11.5225
 20
9.40894
  0
VERTEX
  8
0
 10
-11.0368
 20
9.97322
  0
VERTEX
  8
0
 10
-10.5182
 20
10.5182
  0
VERTEX
  8
0
 10
-10.6093
 20
10.1973
  0
VERTEX
  8
0
 10
-10.6975
 20
9.87578
  0
VERTEX
  8
0
 10
-10.7829
 20
9.55354
  0
VERTEX
  8
0
 10
-10.8653
 20
9.23063
  0
VERTEX
  8
0
 10
-10.945
 20
8.90709
  0
VERTEX
  8
0
 10
-11.0217
 20
8.58293
  0
VERTEX
  8
0
 10
-11.0956
 20
8.25817
  0
VERTEX
  8
0
 10
-11.1666
 20
7.93283
  0
VERTEX
  8
0
 10
-11.2347
 20
7.60692
  0
VERTEX
  8
0
 10
-11.2999
 20
7.28047
  0
VERTEX
  8
0
 10
-11.3622
 20
6.9535
  0
VERTEX
  8
0
 10
-11.4217
 20
6.62602
  0
VERTEX
  8
0
 10
-11.4783
 20
6.29805
  0
VERTEX
  8
0
 10
-11.5319
 20
5.96962
  0
VERTEX
  8
0
 10
-11.5827
 20
5.64074
  0
VERTEX
  8
0
 10
-11.6306
 20
5.31144
  0
VERTEX
  8
0
 10
-11.6755
 20
4.98172
  0
VERTEX
  8
0
 10
-11.7176
 20
4.65162
  0
VERTEX
  8
0
 10
-11.7568
 20
4.32114
  0
VERTEX
  8
0
 10
-11.793
 20
3.99032
  0
VERTEX
  8
0
 10
-11.8263
 20
3.65916
  0
VERTEX
  8
0
 10
-11.8568
 20
3.32769
  0
VERTEX
  8
0
 10
-11.8843
 20
2.99592
  0
VERTEX
  8
0
 10
-11.9088
 20
2.66388
  0
VERTEX
  8
0
 10
-11.9305
 20
2.33159
  0
VERTEX
  8
0
 10
-11.9492
 20
1.99906
  0
VERTEX
  8
0
 10
-11.965
 20
1.66631
  0
VERTEX
  8
0
 10
-11.9779
 20
1.33337
  0
VERTEX
  8
0
 10
-11.9878
 20
1.00025
  0
VERTEX
  8
0
 10
-11.9948
 20
0.666966
  0
VERTEX
  8
0
 10
-11.9989
 20
0.333545
  0
VERTEX
  8
0
 10
-12
 20
2.97477e-006
  0
VERTEX
  8
0
 10
-11.9969
 20
-0.272951
  0
VERTEX
  8
0
 10
-11.9876
 20
-0.545224
  0
VERTEX
  8
0
 10
-11.9722
 20
-0.816721
  0
VERTEX
  8
0
 10
-11.9507
 20
-1.08735
  0
VERTEX
  8
0
 10
-11.9231
 20
-1.357
  0
VERTEX
  8
0
 10
-11.8894
 20
-1.62559
  0
VERTEX
  8
0
 10
-11.8498
 20
-1.89302
  0
VERTEX
  8
0
 10
-11.8042
 20
-2.15919
  0
VERTEX
  8
0
 10
-11.7526
 20
-2.42401
  0
VERTEX
  8
0
 10
-11.6952
 20
-2.68738
  0
VERTEX
  8
0
 10
-11.632
 20
-2.9492
  0
VERTEX
  8
0
 10
-11.5629
 20
-3.20938
  0
VERTEX
  8
0
 10
-11.488
 20
-3.46782
  0
VERTEX
  8
0
 10
-11.4074
 20
-3.72442
  0
VERTEX
  8
0
 10
-11.3211
 20
-3.9791
  0
VERTEX
  8
0
 10
-11.2291
 20
-4.23174
  0
VERTEX
  8
0
 10
-11.1315
 20
-4.48226
  0
VERTEX
  8
0
 10
-11.0282
 20
-4.73056
  0
VERTEX
  8
0
 10
-10.9194
 20
-4.97655
  0
VERTEX
  8
0
 10
-10.8051
 20
-5.22012
  0
VERTEX
  8
0
 10
-10.6853
 20
-5.46119
  0
VERTEX
  8
0
 10
-10.56
 20
-5.69964
  0
VERTEX
  8
0
 10
-10.4294
 20
-5.9354
  0
VERTEX
  8
0
 10
-10.2933
 20
-6.16836
  0
VERTEX
  8
0
 10
-10.1519
 20
-6.39843
  0
VERTEX
  8
0
 10
-10.0052
 20
-6.6255
  0
VERTEX
  8
0
 10
-9.85317
 20
-6.84949
  0
VERTEX
  8
0
 10
-9.69595
 20
-7.0703
  0
VERTEX
  8
0
 10
-9.53352
 20
-7.28782
  0
VERTEX
  8
0
 10
-9.36592
 20
-7.50197
  0
VERTEX
  8
0
 10
-9.1932
 20
-7.71265
  0
VERTEX
  8
0
 10
-9.01539
 20
-7.91977
  0
VERTEX
  8
0
 10
-8.98332
 20
-7.95024
  0
VERTEX
  8
0
 10
-8.9692
 20
-7.96235
  0
VERTEX
  8
0
 10
-8.95464
 20
-7.97365
  0
VERTEX
  8
0
 10
-8.93969
 20
-7.98413
  0
VERTEX
  8
0
 10
-8.92437
 20
-7.99379
  0
VERTEX
  8
0
 10
-8.9087
 20
-8.00265
  0
VERTEX
  8
0
 10
-8.89273
 20
-8.01068
  0
VERTEX
  8
0
 10
-8.87647
 20
-8.01791
  0
VERTEX
  8
0
 10
-8.85997
 20
-8.02433
  0
VERTEX
  8
0
 10
-8.84325
 20
-8.02993
  0
VERTEX
  8
0
 10
-8.82633
 20
-8.03472
  0
VERTEX
  8
0
 10
-8.80926
 20
-8.03871
  0
VERTEX
  8
0
 10
-8.79205
 20
-8.04188
  0
VERTEX
  8
0
 10
-8.77475
 20
-8.04425
  0
VERTEX
  8
0
 10
-8.75738
 20
-8.04581
  0
VERTEX
  8
0
 10
-8.73997
 20
-8.04657
  0
VERTEX
  8
0
 10
-8.72255
 20
-8.04652
  0
VERTEX
  8
0
 10
-8.70515
 20
-8.04566
  0
VERTEX
  8
0
 10
-8.6878
 20
-8.044
  0
VERTEX
  8
0
 10
-8.67053
 20
-8.04154
  0
VERTEX
  8
0
 10
-8.65338
 20
-8.03828
  0
VERTEX
  8
0
 10
-8.63636
 20
-8.03421
  0
VERTEX
  8
0
 10
-8.61952
 20
-8.02934
  0
VERTEX
  8
0
 10
-8.60287
 20
-8.02368
  0
VERTEX
  8
0
 10
-8.58646
 20
-8.01721
  0
VERTEX
  8
0
 10
-8.57032
 20
-8.00995
  0
VERTEX
  8
0
 10
-8.55446
 20
-8.00189
  0
VERTEX
  8
0
 10
-8.53892
 20
-7.99303
  0
VERTEX
  8
0
 10
-8.52374
 20
-7.98337
  0
VERTEX
  8
0
 10
-8.50894
 20
-7.97292
  0
VERTEX
  8
0
 10
-8.49455
 20
-7.96168
  0
VERTEX
  8
0
 10
-8.48061
 20
-7.94964
  0
VERTEX
  8
0
 10
-8.46713
 20
-7.93681
  0
VERTEX
  8
0
 10
-8.3085
 20
-7.77818
  0
VERTEX
  8
0
 10
-8.29451
 20
-7.76488
  0
VERTEX
  8
0
 10
-8.28002
 20
-7.75243
  0
VERTEX
  8
0
 10
-8.26507
 20
-7.74085
  0
VERTEX
  8
0
 10
-8.24968
 20
-7.73013
  0
VERTEX
  8
0
 10
-8.23389
 20
-7.72026
  0
VERTEX
  8
0
 10
-8.21773
 20
-7.71125
  0
VERTEX
  8
0
 10
-8.20124
 20
-7.7031
  0
VERTEX
  8
0
 10
-8.18445
 20
-7.6958
  0
VERTEX
  8
0
 10
-8.1674
 20
-7.68937
  0
VERTEX
  8
0
 10
-8.15011
 20
-7.68379
  0
VERTEX
  8
0
 10
-8.13262
 20
-7.67907
  0
VERTEX
  8
0
 10
-8.11496
 20
-7.67521
  0
VERTEX
  8
0
 10
-8.09718
 20
-7.6722
  0
VERTEX
  8
0
 10
-8.07929
 20
-7.67006
  0
VERTEX
  8
0
 10
-8.06133
 20
-7.66877
  0
VERTEX
  8
0
 10
-8.04334
 20
-7.66834
  0
VERTEX
  8
0
 10
-8.02535
 20
-7.66877
  0
VERTEX
  8
0
 10
-8.0074
 20
-7.67006
  0
VERTEX
  8
0
 10
-7.98951
 20
-7.6722
  0
VERTEX
  8
0
 10
-7.97172
 20
-7.67521
  0
VERTEX
  8
0
 10
-7.95407
 20
-7.67907
  0
VERTEX
  8
0
 10
-7.93658
 20
-7.68379
  0
VERTEX
  8
0
 10
-7.91929
 20
-7.68936
  0
VERTEX
  8
0
 10
-7.90223
 20
-7.6958
  0
VERTEX
  8
0
 10
-7.88544
 20
-7.70309
  0
VERTEX
  8
0
 10
-7.86895
 20
-7.71124
  0
VERTEX
  8
0
 10
-7.8528
 20
-7.72025
  0
VERTEX
  8
0
 10
-7.83701
 20
-7.73012
  0
VERTEX
  8
0
 10
-7.82162
 20
-7.74084
  0
VERTEX
  8
0
 10
-7.80666
 20
-7.75243
  0
VERTEX
  8
0
 10
-7.79217
 20
-7.76487
  0
VERTEX
  8
0
 10
-7.77818
 20
-7.77817
  0
VERTEX
  8
0
 10
-7.38766
 20
-8.15026
  0
VERTEX
  8
0
 10
-6.98355
 20
-8.49967
  0
VERTEX
  8
0
 10
-6.56667
 20
-8.82637
  0
VERTEX
  8
0
 10
-6.1379
 20
-9.13033
  0
VERTEX
  8
0
 10
-5.69808
 20
-9.41152
  0
VERTEX
  8
0
 10
-5.24807
 20
-9.66991
  0
VERTEX
  8
0
 10
-4.78872
 20
-9.90548
  0
VERTEX
  8
0
 10
-4.32089
 20
-10.1182
  0
VERTEX
  8
0
 10
-3.84544
 20
-10.308
  0
VERTEX
  8
0
 10
-3.36321
 20
-10.4749
  0
VERTEX
  8
0
 10
-2.87506
 20
-10.6189
  0
VERTEX
  8
0
 10
-2.38185
 20
-10.7399
  0
VERTEX
  8
0
 10
-1.88443
 20
-10.8379
  0
VERTEX
  8
0
 10
-1.38366
 20
-10.9129
  0
VERTEX
  8
0
 10
-0.880393
 20
-10.9648
  0
VERTEX
  8
0
 10
-0.375478
 20
-10.9936
  0
VERTEX
  8
0
 10
0.130226
 20
-10.9993
  0
VERTEX
  8
0
 10
0.635865
 20
-10.9818
  0
VERTEX
  8
0
 10
1.14058
 20
-10.9412
  0
VERTEX
  8
0
 10
1.64353
 20
-10.8774
  0
VERTEX
  8
0
 10
2.14384
 20
-10.7903
  0
VERTEX
  8
0
 10
2.64068
 20
-10.68
  0
VERTEX
  8
0
 10
3.13317
 20
-10.5464
  0
VERTEX
  8
0
 10
3.62047
 20
-10.3894
  0
VERTEX
  8
0
 10
4.10172
 20
-10.2091
  0
VERTEX
  8
0
 10
4.57607
 20
-10.0054
  0
VERTEX
  8
0
 10
5.04266
 20
-9.77836
  0
VERTEX
  8
0
 10
5.50064
 20
-9.52783
  0
VERTEX
  8
0
 10
5.94916
 20
-9.25384
  0
VERTEX
  8
0
 10
6.38735
 20
-8.95634
  0
VERTEX
  8
0
 10
6.81436
 20
-8.63532
  0
VERTEX
  8
0
 10
7.22935
 20
-8.29075
  0
VERTEX
  8
0
 10
7.24335
 20
-8.27743
  0
VERTEX
  8
0
 10
7.25783
 20
-8.26495
  0
VERTEX
  8
0
 10
7.27279
 20
-8.25334
  0
VERTEX
  8
0
 10
7.28818
 20
-8.24259
  0
VERTEX
  8
0
 10
7.30397
 20
-8.23269
  0
VERTEX
  8
0
 10
7.32013
 20
-8.22365
  0
VERTEX
  8
0
 10
7.33663
 20
-8.21548
  0
VERTEX
  8
0
 10
7.35342
 20
-8.20816
  0
VERTEX
  8
0
 10
7.37049
 20
-8.2017
  0
VERTEX
  8
0
 10
7.38779
 20
-8.1961
  0
VERTEX
  8
0
 10
7.40529
 20
-8.19136
  0
VERTEX
  8
0
 10
7.42296
 20
-8.18748
  0
VERTEX
  8
0
 10
7.44076
 20
-8.18446
  0
VERTEX
  8
0
 10
7.45866
 20
-8.1823
  0
VERTEX
  8
0
 10
7.47663
 20
-8.181
  0
VERTEX
  8
0
 10
7.49463
 20
-8.18056
  0
VERTEX
  8
0
 10
7.51264
 20
-8.18097
  0
VERTEX
  8
0
 10
7.53061
 20
-8.18225
  0
VERTEX
  8
0
 10
7.54852
 20
-8.18439
  0
VERTEX
  8
0
 10
7.56632
 20
-8.18738
  0
VERTEX
  8
0
 10
7.58399
 20
-8.19124
  0
VERTEX
  8
0
 10
7.6015
 20
-8.19595
  0
VERTEX
  8
0
 10
7.61881
 20
-8.20153
  0
VERTEX
  8
0
 10
7.63588
 20
-8.20796
  0
VERTEX
  8
0
 10
7.65269
 20
-8.21526
  0
VERTEX
  8
0
 10
7.66919
 20
-8.22341
  0
VERTEX
  8
0
 10
7.68537
 20
-8.23242
  0
VERTEX
  8
0
 10
7.70117
 20
-8.2423
  0
VERTEX
  8
0
 10
7.71658
 20
-8.25303
  0
VERTEX
  8
0
 10
7.73155
 20
-8.26462
  0
VERTEX
  8
0
 10
7.74606
 20
-8.27708
  0
VERTEX
  8
0
 10
7.76006
 20
-8.29039
  0
VERTEX
  8
0
 10
9.10025
 20
-9.63058
  0
VERTEX
  8
0
 10
9.63058
 20
-9.10025
  0
VERTEX
  8
0
 10
8.99886
 20
-8.46853
  0
VERTEX
  8
0
 10
8.98556
 20
-8.45454
  0
VERTEX
  8
0
 10
8.97312
 20
-8.44005
  0
VERTEX
  8
0
 10
8.96153
 20
-8.42509
  0
VERTEX
  8
0
 10
8.95081
 20
-8.4097
  0
VERTEX
  8
0
 10
8.94094
 20
-8.39391
  0
VERTEX
  8
0
 10
8.93193
 20
-8.37776
  0
VERTEX
  8
0
 10
8.92378
 20
-8.36127
  0
VERTEX
  8
0
 10
8.91648
 20
-8.34448
  0
VERTEX
  8
0
 10
8.91005
 20
-8.32742
  0
VERTEX
  8
0
 10
8.90447
 20
-8.31013
  0
VERTEX
  8
0
 10
8.89975
 20
-8.29264
  0
VERTEX
  8
0
 10
8.89589
 20
-8.27499
  0
VERTEX
  8
0
 10
8.89289
 20
-8.2572
  0
VERTEX
  8
0
 10
8.89074
 20
-8.23931
  0
VERTEX
  8
0
 10
8.88945
 20
-8.22135
  0
VERTEX
  8
0
 10
8.88902
 20
-8.20336
  0
VERTEX
  8
0
 10
8.88945
 20
-8.18538
  0
VERTEX
  8
0
 10
8.89074
 20
-8.16742
  0
VERTEX
  8
0
 10
8.89289
 20
-8.14953
  0
VERTEX
  8
0
 10
8.89589
 20
-8.13174
  0
VERTEX
  8
0
 10
8.89975
 20
-8.11409
  0
VERTEX
  8
0
 10
8.90447
 20
-8.0966
  0
VERTEX
  8
0
 10
8.91005
 20
-8.07931
  0
VERTEX
  8
0
 10
8.91648
 20
-8.06225
  0
VERTEX
  8
0
 10
8.92378
 20
-8.04546
  0
VERTEX
  8
0
 10
8.93193
 20
-8.02897
  0
VERTEX
  8
0
 10
8.94094
 20
-8.01282
  0
VERTEX
  8
0
 10
8.95081
 20
-7.99703
  0
VERTEX
  8
0
 10
8.96153
 20
-7.98164
  0
VERTEX
  8
0
 10
8.97312
 20
-7.96668
  0
VERTEX
  8
0
 10
8.98556
 20
-7.95219
  0
VERTEX
  8
0
 10
8.99886
 20
-7.9382
  0
VERTEX
  8
0
 10
9.17779
 20
-7.731
  0
VERTEX
  8
0
 10
9.35142
 20
-7.52004
  0
VERTEX
  8
0
 10
9.51991
 20
-7.30559
  0
VERTEX
  8
0
 10
9.68321
 20
-7.08774
  0
VERTEX
  8
0
 10
9.84128
 20
-6.86657
  0
VERTEX
  8
0
 10
9.99409
 20
-6.6422
  0
VERTEX
  8
0
 10
10.1416
 20
-6.41472
  0
VERTEX
  8
0
 10
10.2838
 20
-6.18422
  0
VERTEX
  8
0
 10
10.4206
 20
-5.9508
  0
VERTEX
  8
0
 10
10.552
 20
-5.71456
  0
VERTEX
  8
0
 10
10.6779
 20
-5.4756
  0
VERTEX
  8
0
 10
10.7984
 20
-5.23401
  0
VERTEX
  8
0
 10
10.9133
 20
-4.98989
  0
VERTEX
  8
0
 10
11.0227
 20
-4.74334
  0
VERTEX
  8
0
 10
11.1265
 20
-4.49445
  0
VERTEX
  8
0
 10
11.2247
 20
-4.24332
  0
VERTEX
  8
0
 10
11.3172
 20
-3.99006
  0
VERTEX
  8
0
 10
11.404
 20
-3.73474
  0
VERTEX
  8
0
 10
11.4851
 20
-3.47748
  0
VERTEX
  8
0
 10
11.5604
 20
-3.21837
  0
VERTEX
  8
0
 10
11.6299
 20
-2.9575
  0
VERTEX
  8
0
 10
11.6935
 20
-2.69498
  0
VERTEX
  8
0
 10
11.7512
 20
-2.4309
  0
VERTEX
  8
0
 10
11.8031
 20
-2.16535
  0
VERTEX
  8
0
 10
11.8489
 20
-1.89844
  0
VERTEX
  8
0
 10
11.8888
 20
-1.63027
  0
VERTEX
  8
0
 10
11.9226
 20
-1.36092
  0
VERTEX
  8
0
 10
11.9504
 20
-1.09049
  0
VERTEX
  8
0
 10
11.972
 20
-0.819093
  0
VERTEX
  8
0
 10
11.9875
 20
-0.546812
  0
VERTEX
  8
0
 10
11.9969
 20
-0.273747
  0
VERTEX
  8
0
 10
12
 20
2.97477e-006
  0
VERTEX
  8
0
 10
11.9989
 20
0.333545
  0
VERTEX
  8
0
 10
11.9948
 20
0.666966
  0
VERTEX
  8
0
 10
11.9878
 20
1.00025
  0
VERTEX
  8
0
 10
11.9779
 20
1.33337
  0
VERTEX
  8
0
 10
11.965
 20
1.66631
  0
VERTEX
  8
0
 10
11.9492
 20
1.99906
  0
VERTEX
  8
0
 10
11.9305
 20
2.33159
  0
VERTEX
  8
0
 10
11.9088
 20
2.66388
  0
VERTEX
  8
0
 10
11.8843
 20
2.99592
  0
VERTEX
  8
0
 10
11.8568
 20
3.32769
  0
VERTEX
  8
0
 10
11.8263
 20
3.65916
  0
VERTEX
  8
0
 10
11.793
 20
3.99032
  0
VERTEX
  8
0
 10
11.7568
 20
4.32114
  0
VERTEX
  8
0
 10
11.7176
 20
4.65162
  0
VERTEX
  8
0
 10
11.6755
 20
4.98172
  0
VERTEX
  8
0
 10
11.6306
 20
5.31144
  0
VERTEX
  8
0
 10
11.5827
 20
5.64074
  0
VERTEX
  8
0
 10
11.5319
 20
5.96962
  0
VERTEX
  8
0
 10
11.4783
 20
6.29805
  0
VERTEX
  8
0
 10
11.4217
 20
6.62602
  0
VERTEX
  8
0
 10
11.3622
 20
6.9535
  0
VERTEX
  8
0
 10
11.2999
 20
7.28047
  0
VERTEX
  8
0
 10
11.2347
 20
7.60692
  0
VERTEX
  8
0
 10
11.1666
 20
7.93283
  0
VERTEX
  8
0
 10
11.0956
 20
8.25817
  0
VERTEX
  8
0
 10
11.0217
 20
8.58293
  0
VERTEX
  8
0
 10
10.945
 20
8.90709
  0
VERTEX
  8
0
 10
10.8653
 20
9.23063
  0
VERTEX
  8
0
 10
10.7829
 20
9.55354
  0
VERTEX
  8
0
 10
10.6975
 20
9.87578
  0
VERTEX
  8
0
 10
10.6093
 20
10.1973
  0
VERTEX
  8
0
 10
10.5182
 20
10.5182
  0
VERTEX
  8
0
 10
11.0413
 20
9.96825
  0
VERTEX
  8
0
 10
11.5309
 20
9.39872
  0
VERTEX
  8
0
 10
11.9872
 20
8.81092
  0
VERTEX
  8
0
 10
12.41
 20
8.20614
  0
VERTEX
  8
0
 10
12.7994
 20
7.58567
  0
VERTEX
  8
0
 10
13.1554
 20
6.95079
  0
VERTEX
  8
0
 10
13.4779
 20
6.3028
  0
VERTEX
  8
0
 10
13.767
 20
5.64299
  0
VERTEX
  8
0
 10
14.0227
 20
4.97265
  0
VERTEX
  8
0
 10
14.2448
 20
4.29307
  0
VERTEX
  8
0
 10
14.4336
 20
3.60553
  0
VERTEX
  8
0
 10
14.5888
 20
2.91133
  0
VERTEX
  8
0
 10
14.7105
 20
2.21176
  0
VERTEX
  8
0
 10
14.7987
 20
1.50811
  0
VERTEX
  8
0
 10
14.8535
 20
0.801671
  0
VERTEX
  8
0
 10
14.8747
 20
0.0937275
  0
VERTEX
  8
0
 10
14.8624
 20
-0.614427
  0
VERTEX
  8
0
 10
14.8166
 20
-1.3215
  0
VERTEX
  8
0
 10
14.7372
 20
-2.02621
  0
VERTEX
  8
0
 10
14.6243
 20
-2.72726
  0
VERTEX
  8
0
 10
14.4778
 20
-3.42336
  0
VERTEX
  8
0
 10
14.2978
 20
-4.11322
  0
VERTEX
  8
0
 10
14.0842
 20
-4.79555
  0
VERTEX
  8
0
 10
13.8371
 20
-5.46906
  0
VERTEX
  8
0
 10
13.5563
 20
-6.13246
  0
VERTEX
  8
0
 10
13.242
 20
-6.78446
  0
VERTEX
  8
0
 10
12.894
 20
-7.42377
  0
VERTEX
  8
0
 10
12.5124
 20
-8.0491
  0
VERTEX
  8
0
 10
12.0973
 20
-8.65916
  0
VERTEX
  8
0
 10
11.6485
 20
-9.25267
  0
VERTEX
  8
0
 10
11.166
 20
-9.82832
  0
VERTEX
  8
0
 10
10.6499
 20
-10.3848
  0
VERTEX
  8
0
 10
10.1066
 20
-10.9148
  0
VERTEX
  8
0
 10
9.54329
 20
-11.4116
  0
VERTEX
  8
0
 10
8.96129
 20
-11.8752
  0
VERTEX
  8
0
 10
8.36188
 20
-12.3056
  0
VERTEX
  8
0
 10
7.74637
 20
-12.7028
  0
VERTEX
  8
0
 10
7.11603
 20
-13.0668
  0
VERTEX
  8
0
 10
6.47216
 20
-13.3974
  0
VERTEX
  8
0
 10
5.81604
 20
-13.6948
  0
VERTEX
  8
0
 10
5.14897
 20
-13.9589
  0
VERTEX
  8
0
 10
4.47224
 20
-14.1896
  0
VERTEX
  8
0
 10
3.78714
 20
-14.387
  0
VERTEX
  8
0
 10
3.09495
 20
-14.5509
  0
VERTEX
  8
0
 10
2.39697
 20
-14.6815
  0
VERTEX
  8
0
 10
1.69449
 20
-14.7786
  0
VERTEX
  8
0
 10
0.988795
 20
-14.8422
  0
VERTEX
  8
0
 10
0.281175
 20
-14.8723
  0
VERTEX
  8
0
 10
-0.427079
 20
-14.869
  0
VERTEX
  8
0
 10
-1.13468
 20
-14.8321
  0
VERTEX
  8
0
 10
-1.84033
 20
-14.7616
  0
VERTEX
  8
0
 10
-2.54274
 20
-14.6575
  0
VERTEX
  8
0
 10
-3.24063
 20
-14.5198
  0
VERTEX
  8
0
 10
-3.93271
 20
-14.3485
  0
VERTEX
  8
0
 10
-4.61767
 20
-14.1435
  0
VERTEX
  8
0
 10
-5.29425
 20
-13.9049
  0
VERTEX
  8
0
 10
-5.96113
 20
-13.6325
  0
VERTEX
  8
0
 10
-6.61704
 20
-13.3264
  0
VERTEX
  8
0
 10
-7.26069
 20
-12.9865
  0
VERTEX
  8
0
 10
-7.89078
 20
-12.6129
  0
VERTEX
  8
0
 10
-8.50602
 20
-12.2054
  0
VERTEX
  8
0
 10
-9.10513
 20
-11.7641
  0
VERTEX
  8
0
 10
-9.68682
 20
-11.289
  0
VERTEX
  8
0
 10
-10.2498
 20
-10.78
  0
SEQEND
  0
POINT
  8
0
 10
13.5
 20
0
  0
POINT
  8
0
 10
-13.5
 20
1.65322e-015
  0
POINT
  8
0
 10
-2.47983e-015
 20
-13.5
  0
POINT
  8
0
 10
-11.6913
 20
6.75
  0
POINT
  8
0
 10
11.6913
 20
6.75
  0
POINT
  8
0
 10
-11.6913
 20
-6.75
  0
POINT
  8
0
 10
11.6913
 20
-6.75
  0
POINT
  8
0
 10
-6.75
 20
-11.6913
  0
POINT
  8
0
 10
6.75
 20
-11.6913
  0
POINT
  8
0
 10
10.5182
 20
-10.5182
  0
POINT
  8
0
 10
-10.5182
 20
-10.5182
  0
CIRCLE
  8
0
 10
-2.47983e-015
 20
-13.5
 40
0.25
  0
CIRCLE
  8
0
 10
-6.75
 20
-11.6913
 40
0.25
  0
CIRCLE
  8
0
 10
-11.6913
 20
-6.75
 40
0.25
  0
CIRCLE
  8
0
 10
-13.5
 20
1.55431e-015
 40
0.25
  0
CIRCLE
  8
0
 10
13.5
 20
0
 40
0.25
  0
CIRCLE
  8
0
 10
11.6913
 20
-6.75
 40
0.25
  0
CIRCLE
  8
0
 10
6.75
 20
-11.6913
 40
0.25
  0
POLYLINE
  8
0
 66
1
  0
VERTEX
  8
0
 10
-10.7919
 20
9.51821
  0
VERTEX
  8
0
 10
-11.4285
 20
9.51821
  0
SEQEND
  0
POLYLINE
  8
0
 66
1
  0
VERTEX
  8
0
 10
10.7919
 20
9.51821
  0
VERTEX
  8
0
 10
11.4285
 20
9.51821
  0
SEQEND
  0
CIRCLE
  8
0
 10
-11.6913
 20
6.75
 40
0.125
  0
CIRCLE
  8
0
 10
11.6913
 20
6.75
 40
0.125
  0
ENDSEC
  0
EOF
