  0
SECTION
2
HEADER
  9
$ACADVER
  1
AC1009
  9
$EXTMIN
 10
-13.250
20
-7.750
  9
$EXTMAX
 10
7.633 
 20
25.309
  9
$LIMMIN
 10
-13.250
20
-7.750
  9
$LIMMAX
 10
7.633 
 20
25.309
  9
$CLAYER
  8
short
  0
ENDSEC
  0
SECTION
  2
TABLES
  0
TABLE
  2
LAYER
 70
1
  0
LAYER
  2
short
 70
64
 62
1
  6
CONTINUOUS
  0
ENDTAB
  0
ENDSEC
  0
SECTION
  2
ENTITIES
  0
ARC
  8
short
 10
-5.55112e-017
 20
0
 40
7
 50
134.962
 51
313.185
  0
ARC
  8
short
 10
-5.55112e-017
 20
0
 40
7.00002
 50
316.787
 51
403.212
  0
POLYLINE
  8
short
 66
1
  0
VERTEX
  8
short
 10
5.10177
 20
4.79294
  0
VERTEX
  8
short
 10
4.79188
 20
4.48297
  0
VERTEX
  8
short
 10
4.48076
 20
4.7941
  0
VERTEX
  8
short
 10
4.16963
 20
4.48297
  0
VERTEX
  8
short
 10
4.48076
 20
4.17185
  0
VERTEX
  8
short
 10
4.16963
 20
3.86072
  0
VERTEX
  8
short
 10
3.8585
 20
4.17185
  0
VERTEX
  8
short
 10
3.55338
 20
3.86673
  0
SEQEND
  0
POLYLINE
  8
short
 66
1
  0
VERTEX
  8
short
 10
4.3982
 20
-4.08708
  0
VERTEX
  8
short
 10
4.08708
 20
-4.39821
  0
SEQEND
  0
POLYLINE
  8
short
 66
1
  0
VERTEX
  8
short
 10
4.3982
 20
-4.08708
  0
VERTEX
  8
short
 10
5.10174
 20
-4.79297
  0
SEQEND
  0
POLYLINE
  8
short
 66
1
  0
VERTEX
  8
short
 10
4.08708
 20
-4.39821
  0
VERTEX
  8
short
 10
4.79049
 20
-5.10404
  0
SEQEND
  0
POLYLINE
  8
short
 66
1
  0
VERTEX
  8
short
 10
-3.54821
 20
-3.85975
  0
VERTEX
  8
short
 10
-4.08708
 20
-4.39821
  0
VERTEX
  8
short
 10
-4.3982
 20
-4.08708
  0
VERTEX
  8
short
 10
-3.85955
 20
-3.54843
  0
SEQEND
  0
POLYLINE
  8
short
 66
1
  0
VERTEX
  8
short
 10
-3.85849
 20
3.54959
  0
VERTEX
  8
short
 10
-4.16962
 20
3.86072
  0
VERTEX
  8
short
 10
-3.85849
 20
4.17184
  0
VERTEX
  8
short
 10
-4.16962
 20
4.48297
  0
VERTEX
  8
short
 10
-4.48074
 20
4.17184
  0
VERTEX
  8
short
 10
-4.79187
 20
4.48297
  0
VERTEX
  8
short
 10
-4.48074
 20
4.7941
  0
VERTEX
  8
short
 10
-4.64184
 20
4.95519
  0
SEQEND
  0
CIRCLE
  8
short
 10
-6.24999
 20
0.00249504
 40
0.0625
  0
CIRCLE
  8
short
 10
-5.4139
 20
-3.12284
 40
0.0625
  0
CIRCLE
  8
short
 10
-3.12716
 20
-5.41141
 40
0.0625
  0
CIRCLE
  8
short
 10
-0.00249504
 20
-6.24999
 40
0.0625
  0
CIRCLE
  8
short
 10
3.12284
 20
-5.4139
 40
0.0625
  0
CIRCLE
  8
short
 10
5.41141
 20
-3.12716
 40
0.0625
  0
CIRCLE
  8
short
 10
6.24999
 20
-0.00249504
 40
0.0625
  0
CIRCLE
  8
short
 10
5.4139
 20
3.12284
 40
0.0625
  0
CIRCLE
  8
short
 10
-5.41141
 20
3.12716
 40
0.0625
  0
ARC
  8
short
 10
-0.00128067
 20
-2.85236
 40
2.77147
 50
227.517
 51
312.412
  0
ARC
  8
short
 10
0
 20
0
 40
5.24285
 50
137.388
 51
216.362
  0
ARC
  8
short
 10
0
 20
0
 40
5.24285
 50
227.408
 51
249.071
  0
ARC
  8
short
 10
0
 20
0
 40
5.24285
 50
290.878
 51
317.405
  0
ARC
  8
short
 10
0
 20
0
 40
5.24285
 50
323.638
 51
407.418
  0
ARC
  8
short
 10
0
 20
0
 40
3.125
 50
92.2906
 51
207.709
  0
ARC
  8
short
 10
0
 20
0
 40
3.125
 50
212.291
 51
327.709
  0
ARC
  8
short
 10
0
 20
0
 40
3.125
 50
332.291
 51
447.709
  0
CIRCLE
  8
short
 10
0
 20
0
 40
4.45
  0
POLYLINE
  8
short
 66
1
  0
VERTEX
  8
short
 10
-2.52384
 20
1.03063
  0
VERTEX
  8
short
 10
-1.28065
 20
-0.21278
  0
VERTEX
  8
short
 10
-1.28065
 20
-0.961479
  0
VERTEX
  8
short
 10
-0.880144
 20
-0.961479
  0
SEQEND
  0
ARC
  8
short
 10
-1.75999
 20
-0.949753
 40
0.879146
 50
236.959
 51
359.503
  0
ARC
  8
short
 10
-1.28065
 20
-0.21278
 40
1.75829
 50
134.993
 51
236.959
  0
POLYLINE
  8
short
 66
1
  0
VERTEX
  8
short
 10
2.10159
 20
2.1612
  0
VERTEX
  8
short
 10
0.858398
 20
0.91779
  0
VERTEX
  8
short
 10
0.858398
 20
0.169091
  0
VERTEX
  8
short
 10
0.457896
 20
0.169091
  0
SEQEND
  0
ARC
  8
short
 10
1.33774
 20
0.180817
 40
0.879146
 50
180.497
 51
303.041
  0
ARC
  8
short
 10
0.858398
 20
0.91779
 40
1.75829
 50
303.041
 51
405.007
  0
CIRCLE
  8
short
 10
4
 20
0
 40
0.0625
  0
CIRCLE
  8
short
 10
3.4641
 20
2
 40
0.0625
  0
CIRCLE
  8
short
 10
2
 20
3.4641
 40
0.0625
  0
CIRCLE
  8
short
 10
0
 20
4
 40
0.0625
  0
CIRCLE
  8
short
 10
-2
 20
3.4641
 40
0.0625
  0
CIRCLE
  8
short
 10
-3.4641
 20
2
 40
0.0625
  0
CIRCLE
  8
short
 10
-4
 20
0
 40
0.0625
  0
CIRCLE
  8
short
 10
-3.4641
 20
-2
 40
0.0625
  0
CIRCLE
  8
short
 10
-2
 20
-3.4641
 40
0.0625
  0
CIRCLE
  8
short
 10
0
 20
-4
 40
0.0625
  0
CIRCLE
  8
short
 10
2
 20
-3.4641
 40
0.0625
  0
CIRCLE
  8
short
 10
3.4641
 20
-2
 40
0.0625
  0
POLYLINE
  8
short
 66
1
  0
VERTEX
  8
short
 10
-3.85955
 20
-3.54843
  0
VERTEX
  8
short
 10
-3.85777
 20
-3.10842
  0
VERTEX
  8
short
 10
-4.22199
 20
-3.10842
  0
SEQEND
  0
POLYLINE
  8
short
 66
1
  0
VERTEX
  8
short
 10
3.85955
 20
-3.54843
  0
VERTEX
  8
short
 10
3.85777
 20
-3.10842
  0
VERTEX
  8
short
 10
4.22199
 20
-3.10842
  0
SEQEND
  0
ARC
  8
short
 10
-4.79252
 20
4.72432
 40
0.275692
 50
56.8694
 51
123.949
  0
POLYLINE
  8
short
 66
1
  0
VERTEX
  8
short
 10
-2.20707
 20
2.08356
  0
VERTEX
  8
short
 10
-0.5838
 20
-0.730658
  0
VERTEX
  8
short
 10
1.04581
 20
2.08359
  0
VERTEX
  8
short
 10
1.04882
 20
2.08879
  0
SEQEND
  0
POLYLINE
  8
short
 66
1
  0
VERTEX
  8
short
 10
-1.40453
 20
-2.50172
  0
VERTEX
  8
short
 10
0.21875
 20
0.3125
  0
VERTEX
  8
short
 10
1.84836
 20
-2.50175
  0
VERTEX
  8
short
 10
1.85137
 20
-2.50694
  0
SEQEND
  0
ARC
  8
short
 10
-0.5838
 20
4.75417
 40
3.125
 50
284.3
 51
301.239
  0
ARC
  8
short
 10
-1.2346
 20
1.69814
 40
0.125
 50
167.037
 51
348.919
  0
ARC
  8
short
 10
0.0665702
 20
1.69656
 40
0.125
 50
190.397
 51
373.619
  0
CIRCLE
  8
short
 10
-0.58645
 20
1.12917
 40
0.0625
  0
ARC
  8
short
 10
-0.5838
 20
4.75417
 40
3.125
 50
598.663
 51
615.686
  0
ARC
  8
short
 10
-0.5838
 20
4.75417
 40
3.125
 50
260.27
 51
279.717
  0
ARC
  8
short
 10
0.220548
 20
-5.1711
 40
3.125
 50
58.7605
 51
75.7002
  0
ARC
  8
short
 10
-0.430248
 20
-2.11507
 40
0.125
 50
371.081
 51
552.963
  0
ARC
  8
short
 10
0.870918
 20
-2.11348
 40
0.125
 50
346.381
 51
529.603
  0
CIRCLE
  8
short
 10
0.217897
 20
-1.5461
 40
0.0625
  0
ARC
  8
short
 10
0.220548
 20
-5.1711
 40
3.125
 50
104.314
 51
121.337
  0
ARC
  8
short
 10
0.220548
 20
-5.1711
 40
3.125
 50
80.2835
 51
99.7298
  0
ARC
  8
short
 10
1.91345e-016
 20
3.125
 40
0.125
 50
0
 51
180
  0
ARC
  8
short
 10
-2.70633
 20
-1.5625
 40
0.125
 50
120
 51
300
  0
ARC
  8
short
 10
2.70633
 20
-1.5625
 40
0.125
 50
240
 51
420
  0
CIRCLE
  8
short
 10
-5.55112e-017
 20
0
 40
0.015625
  0
POLYLINE
  8
short
 66
1
  0
VERTEX
  8
short
 10
-5.55112e-017
 20
0
  0
VERTEX
  8
short
 10
0
 20
0.203125
  0
SEQEND
  0
POLYLINE
  8
short
 66
1
  0
VERTEX
  8
short
 10
0
 20
0
  0
VERTEX
  8
short
 10
-0.125
 20
0
  0
SEQEND
  0
ENDSEC
  0
EOF
