  0
SECTION
  2
BLOCKS
  0
ENDSEC
  0
SECTION
  2
ENTITIES
  0
LINE
  8
0
 10
-11.7388
 20
0
 11
-11.7231
 21
-0.626343
  0
LINE
  8
0
 10
-11.7231
 20
-0.626343
 11
-11.6771
 21
-1.10178
  0
LINE
  8
0
 10
-11.6771
 20
-1.10178
 11
-11.6128
 21
-1.76751
  0
LINE
  8
0
 10
-11.6128
 20
-1.76751
 11
-11.597
 21
-1.87426
  0
LINE
  8
0
 10
-11.597
 20
-1.87426
 11
-11.4481
 21
-2.54767
  0
LINE
  8
0
 10
-11.4481
 20
-2.54767
 11
-11.3243
 21
-3.10792
  0
LINE
  8
0
 10
-11.3243
 20
-3.10792
 11
-11.2248
 21
-3.44328
  0
LINE
  8
0
 10
-11.2248
 20
-3.44328
 11
-11.0499
 21
-3.94051
  0
LINE
  8
0
 10
-11.0499
 20
-3.94051
 11
-10.9171
 21
-4.31792
  0
LINE
  8
0
 10
-10.9171
 20
-4.31792
 11
-10.6397
 21
-4.95972
  0
LINE
  8
0
 10
-10.6397
 20
-4.95972
 11
-10.4949
 21
-5.25337
  0
LINE
  8
0
 10
-10.4949
 20
-5.25337
 11
-10.3757
 21
-5.49506
  0
LINE
  8
0
 10
-10.3757
 20
-5.49506
 11
-9.91917
 21
-6.28082
  0
LINE
  8
0
 10
-9.91917
 20
-6.28082
 11
-9.8004
 21
-6.46334
  0
LINE
  8
0
 10
-9.8004
 20
-6.46334
 11
-9.69171
 21
-6.63037
  0
LINE
  8
0
 10
-9.69171
 20
-6.63037
 11
-9.39748
 21
-7.02322
  0
LINE
  8
0
 10
-9.39748
 20
-7.02322
 11
-9.11777
 21
-7.39668
  0
LINE
  8
0
 10
-9.11777
 20
-7.39668
 11
-8.85294
 21
-7.71523
  0
LINE
  8
0
 10
-8.85294
 20
-7.71523
 11
-8.53887
 21
-8.04774
  0
LINE
  8
0
 10
-8.53887
 20
-8.04774
 11
-8.28253
 21
-8.31912
  0
LINE
  8
0
 10
-8.28253
 20
-8.31912
 11
-7.84131
 21
-8.74137
  0
LINE
  8
0
 10
-7.84131
 20
-8.74137
 11
-7.44897
 21
-9.07399
  0
LINE
  8
0
 10
-7.44897
 20
-9.07399
 11
-7.11355
 21
-9.33088
  0
LINE
  8
0
 10
-7.11355
 20
-9.33088
 11
-6.64026
 21
-9.69335
  0
LINE
  8
0
 10
-6.64026
 20
-9.69335
 11
-6.63603
 21
-9.69626
  0
LINE
  8
0
 10
-6.63603
 20
-9.69626
 11
-6.62915
 21
-9.70098
  0
LINE
  8
0
 10
-6.62915
 20
-9.70098
 11
-5.85004
 21
-10.1773
  0
LINE
  8
0
 10
-5.85004
 20
-10.1773
 11
-5.59938
 21
-10.3138
  0
LINE
  8
0
 10
-5.59938
 20
-10.3138
 11
-5.10448
 21
-10.5831
  0
LINE
  8
0
 10
-5.10448
 20
-10.5831
 11
-5.10218
 21
-10.5842
  0
LINE
  8
0
 10
-5.10218
 20
-10.5842
 11
-5.09686
 21
-10.5868
  0
LINE
  8
0
 10
-5.09686
 20
-10.5868
 11
-4.38327
 21
-10.8905
  0
LINE
  8
0
 10
-4.38327
 20
-10.8905
 11
-4.02452
 21
-11.0226
  0
LINE
  8
0
 10
-4.02452
 20
-11.0226
 11
-3.69795
 21
-11.1429
  0
LINE
  8
0
 10
-3.69795
 20
-11.1429
 11
-3.52289
 21
-11.1973
  0
LINE
  8
0
 10
-3.52289
 20
-11.1973
 11
-3.04146
 21
-11.3471
  0
LINE
  8
0
 10
-3.04146
 20
-11.3471
 11
-3.00896
 21
-11.3554
  0
LINE
  8
0
 10
-3.00896
 20
-11.3554
 11
-2.86494
 21
-11.392
  0
LINE
  8
0
 10
-2.86494
 20
-11.392
 11
-2.40504
 21
-11.4956
  0
LINE
  8
0
 10
-2.40504
 20
-11.4956
 11
-1.93131
 21
-11.5786
  0
LINE
  8
0
 10
-1.93131
 20
-11.5786
 11
-1.78723
 21
-11.6039
  0
LINE
  8
0
 10
-1.78723
 20
-11.6039
 11
-1.38513
 21
-11.6542
  0
LINE
  8
0
 10
-1.38513
 20
-11.6542
 11
-1.18376
 21
-11.6794
  0
LINE
  8
0
 10
-1.18376
 20
-11.6794
 11
-0.830084
 21
-11.706
  0
LINE
  8
0
 10
-0.830084
 20
-11.706
 11
-0.589596
 21
-11.7241
  0
LINE
  8
0
 10
-0.589596
 20
-11.7241
 11
-0.329633
 21
-11.7306
  0
LINE
  8
0
 10
-0.329633
 20
-11.7306
 11
0
 21
-11.7388
  0
LINE
  8
0
 10
0
 20
-11.7388
 11
0.329633
 21
-11.7306
  0
LINE
  8
0
 10
0.329633
 20
-11.7306
 11
0.589596
 21
-11.7241
  0
LINE
  8
0
 10
0.589596
 20
-11.7241
 11
0.830084
 21
-11.706
  0
LINE
  8
0
 10
0.830084
 20
-11.706
 11
1.18376
 21
-11.6794
  0
LINE
  8
0
 10
1.18376
 20
-11.6794
 11
1.38513
 21
-11.6542
  0
LINE
  8
0
 10
1.38513
 20
-11.6542
 11
1.78723
 21
-11.6039
  0
LINE
  8
0
 10
1.78723
 20
-11.6039
 11
1.93131
 21
-11.5786
  0
LINE
  8
0
 10
1.93131
 20
-11.5786
 11
2.40504
 21
-11.4956
  0
LINE
  8
0
 10
2.40504
 20
-11.4956
 11
2.86494
 21
-11.392
  0
LINE
  8
0
 10
2.86494
 20
-11.392
 11
3.00896
 21
-11.3554
  0
LINE
  8
0
 10
3.00896
 20
-11.3554
 11
3.04146
 21
-11.3471
  0
LINE
  8
0
 10
3.04146
 20
-11.3471
 11
3.52289
 21
-11.1973
  0
LINE
  8
0
 10
3.52289
 20
-11.1973
 11
3.69795
 21
-11.1429
  0
LINE
  8
0
 10
3.69795
 20
-11.1429
 11
4.02452
 21
-11.0226
  0
LINE
  8
0
 10
4.02452
 20
-11.0226
 11
4.38327
 21
-10.8905
  0
LINE
  8
0
 10
4.38327
 20
-10.8905
 11
5.09686
 21
-10.5868
  0
LINE
  8
0
 10
5.09686
 20
-10.5868
 11
5.10218
 21
-10.5842
  0
LINE
  8
0
 10
5.10218
 20
-10.5842
 11
5.10448
 21
-10.5831
  0
LINE
  8
0
 10
5.10448
 20
-10.5831
 11
5.59938
 21
-10.3138
  0
LINE
  8
0
 10
5.59938
 20
-10.3138
 11
5.85004
 21
-10.1773
  0
LINE
  8
0
 10
5.85004
 20
-10.1773
 11
6.62915
 21
-9.70098
  0
LINE
  8
0
 10
6.62915
 20
-9.70098
 11
6.63603
 21
-9.69626
  0
LINE
  8
0
 10
6.63603
 20
-9.69626
 11
6.64026
 21
-9.69335
  0
LINE
  8
0
 10
6.64026
 20
-9.69335
 11
7.11355
 21
-9.33088
  0
LINE
  8
0
 10
7.11355
 20
-9.33088
 11
7.44897
 21
-9.07399
  0
LINE
  8
0
 10
7.44897
 20
-9.07399
 11
7.84131
 21
-8.74137
  0
LINE
  8
0
 10
7.84131
 20
-8.74137
 11
8.05671
 21
-8.53523
  0
LINE
  8
0
 10
8.05671
 20
-8.53523
 11
6.96558
 21
-7.43928
  0
LINE
  8
0
 10
6.96558
 20
-7.43928
 11
7.40858
 21
-6.99839
  0
LINE
  8
0
 10
7.40858
 20
-6.99839
 11
8.49721
 21
-8.09184
  0
LINE
  8
0
 10
8.49721
 20
-8.09184
 11
8.53887
 21
-8.04774
  0
LINE
  8
0
 10
8.53887
 20
-8.04774
 11
8.85294
 21
-7.71523
  0
LINE
  8
0
 10
8.85294
 20
-7.71523
 11
9.11777
 21
-7.39668
  0
LINE
  8
0
 10
9.11777
 20
-7.39668
 11
9.39748
 21
-7.02322
  0
LINE
  8
0
 10
9.39748
 20
-7.02322
 11
9.69171
 21
-6.63037
  0
LINE
  8
0
 10
9.69171
 20
-6.63037
 11
9.8004
 21
-6.46334
  0
LINE
  8
0
 10
9.8004
 20
-6.46334
 11
9.91917
 21
-6.28082
  0
LINE
  8
0
 10
9.91917
 20
-6.28082
 11
10.3757
 21
-5.49506
  0
LINE
  8
0
 10
10.3757
 20
-5.49506
 11
10.4949
 21
-5.25337
  0
LINE
  8
0
 10
10.4949
 20
-5.25337
 11
10.6397
 21
-4.95972
  0
LINE
  8
0
 10
10.6397
 20
-4.95972
 11
10.9171
 21
-4.31792
  0
LINE
  8
0
 10
10.9171
 20
-4.31792
 11
11.0499
 21
-3.94051
  0
LINE
  8
0
 10
11.0499
 20
-3.94051
 11
11.2248
 21
-3.44328
  0
LINE
  8
0
 10
11.2248
 20
-3.44328
 11
11.3243
 21
-3.10792
  0
LINE
  8
0
 10
11.3243
 20
-3.10792
 11
11.4481
 21
-2.54767
  0
LINE
  8
0
 10
11.4481
 20
-2.54767
 11
11.597
 21
-1.87426
  0
LINE
  8
0
 10
11.597
 20
-1.87426
 11
11.6128
 21
-1.76751
  0
LINE
  8
0
 10
11.6128
 20
-1.76751
 11
11.6771
 21
-1.10178
  0
LINE
  8
0
 10
11.6771
 20
-1.10178
 11
11.7231
 21
-0.626343
  0
LINE
  8
0
 10
11.7231
 20
-0.626343
 11
11.7388
 21
0
  0
LINE
  8
0
 10
11.7388
 20
0
 11
11.7231
 21
0.626342
  0
LINE
  8
0
 10
11.7231
 20
0.626342
 11
11.6771
 21
1.10178
  0
LINE
  8
0
 10
11.6771
 20
1.10178
 11
11.6128
 21
1.76751
  0
LINE
  8
0
 10
11.6128
 20
1.76751
 11
11.597
 21
1.87426
  0
LINE
  8
0
 10
11.597
 20
1.87426
 11
11.4481
 21
2.54767
  0
LINE
  8
0
 10
11.4481
 20
2.54767
 11
11.3243
 21
3.10791
  0
LINE
  8
0
 10
11.3243
 20
3.10791
 11
11.2248
 21
3.44328
  0
LINE
  8
0
 10
11.2248
 20
3.44328
 11
11.0499
 21
3.94051
  0
LINE
  8
0
 10
11.0499
 20
3.94051
 11
10.9171
 21
4.31792
  0
LINE
  8
0
 10
10.9171
 20
4.31792
 11
10.6397
 21
4.95972
  0
LINE
  8
0
 10
10.6397
 20
4.95972
 11
10.4949
 21
5.25337
  0
LINE
  8
0
 10
10.4949
 20
5.25337
 11
10.3757
 21
5.49505
  0
LINE
  8
0
 10
10.3757
 20
5.49505
 11
9.91917
 21
6.28082
  0
LINE
  8
0
 10
9.91917
 20
6.28082
 11
9.8004
 21
6.46333
  0
LINE
  8
0
 10
9.8004
 20
6.46333
 11
9.69171
 21
6.63037
  0
LINE
  8
0
 10
9.69171
 20
6.63037
 11
9.39748
 21
7.02322
  0
LINE
  8
0
 10
9.39748
 20
7.02322
 11
9.11777
 21
7.39668
  0
LINE
  8
0
 10
9.11777
 20
7.39668
 11
8.85294
 21
7.71523
  0
LINE
  8
0
 10
8.85294
 20
7.71523
 11
8.53887
 21
8.04774
  0
LINE
  8
0
 10
8.53887
 20
8.04774
 11
8.28253
 21
8.31912
  0
LINE
  8
0
 10
8.28253
 20
8.31912
 11
7.84131
 21
8.74137
  0
LINE
  8
0
 10
7.84131
 20
8.74137
 11
7.44897
 21
9.07399
  0
LINE
  8
0
 10
7.44897
 20
9.07399
 11
7.11355
 21
9.33088
  0
LINE
  8
0
 10
7.11355
 20
9.33088
 11
6.64026
 21
9.69335
  0
LINE
  8
0
 10
6.64026
 20
9.69335
 11
6.63603
 21
9.69626
  0
LINE
  8
0
 10
6.63603
 20
9.69626
 11
6.62915
 21
9.70098
  0
LINE
  8
0
 10
6.62915
 20
9.70098
 11
5.85004
 21
10.1773
  0
LINE
  8
0
 10
5.85004
 20
10.1773
 11
5.59938
 21
10.3138
  0
LINE
  8
0
 10
5.59938
 20
10.3138
 11
5.10448
 21
10.5831
  0
LINE
  8
0
 10
5.10448
 20
10.5831
 11
5.10218
 21
10.5842
  0
LINE
  8
0
 10
5.10218
 20
10.5842
 11
5.09686
 21
10.5868
  0
LINE
  8
0
 10
5.09686
 20
10.5868
 11
4.38327
 21
10.8905
  0
LINE
  8
0
 10
4.38327
 20
10.8905
 11
4.02452
 21
11.0226
  0
LINE
  8
0
 10
4.02452
 20
11.0226
 11
3.69794
 21
11.1429
  0
LINE
  8
0
 10
3.69794
 20
11.1429
 11
3.52289
 21
11.1973
  0
LINE
  8
0
 10
3.52289
 20
11.1973
 11
3.04146
 21
11.3471
  0
LINE
  8
0
 10
3.04146
 20
11.3471
 11
3.00896
 21
11.3554
  0
LINE
  8
0
 10
3.00896
 20
11.3554
 11
2.86494
 21
11.392
  0
LINE
  8
0
 10
2.86494
 20
11.392
 11
2.40504
 21
11.4956
  0
LINE
  8
0
 10
2.40504
 20
11.4956
 11
1.93131
 21
11.5786
  0
LINE
  8
0
 10
1.93131
 20
11.5786
 11
1.78723
 21
11.6039
  0
LINE
  8
0
 10
1.78723
 20
11.6039
 11
1.38513
 21
11.6542
  0
LINE
  8
0
 10
1.38513
 20
11.6542
 11
1.18376
 21
11.6794
  0
LINE
  8
0
 10
1.18376
 20
11.6794
 11
0.830084
 21
11.706
  0
LINE
  8
0
 10
0.830084
 20
11.706
 11
0.589596
 21
11.7241
  0
LINE
  8
0
 10
0.589596
 20
11.7241
 11
0.329633
 21
11.7306
  0
LINE
  8
0
 10
0.329633
 20
11.7306
 11
0
 21
11.7388
  0
LINE
  8
0
 10
0
 20
11.7388
 11
-0.329633
 21
11.7306
  0
LINE
  8
0
 10
-0.329633
 20
11.7306
 11
-0.589596
 21
11.7241
  0
LINE
  8
0
 10
-0.589596
 20
11.7241
 11
-0.830084
 21
11.706
  0
LINE
  8
0
 10
-0.830084
 20
11.706
 11
-1.18376
 21
11.6794
  0
LINE
  8
0
 10
-1.18376
 20
11.6794
 11
-1.38513
 21
11.6542
  0
LINE
  8
0
 10
-1.38513
 20
11.6542
 11
-1.78723
 21
11.6039
  0
LINE
  8
0
 10
-1.78723
 20
11.6039
 11
-1.93131
 21
11.5786
  0
LINE
  8
0
 10
-1.93131
 20
11.5786
 11
-2.40504
 21
11.4956
  0
LINE
  8
0
 10
-2.40504
 20
11.4956
 11
-2.86494
 21
11.392
  0
LINE
  8
0
 10
-2.86494
 20
11.392
 11
-3.00896
 21
11.3554
  0
LINE
  8
0
 10
-3.00896
 20
11.3554
 11
-3.04146
 21
11.3471
  0
LINE
  8
0
 10
-3.04146
 20
11.3471
 11
-3.52289
 21
11.1973
  0
LINE
  8
0
 10
-3.52289
 20
11.1973
 11
-3.69794
 21
11.1429
  0
LINE
  8
0
 10
-3.69794
 20
11.1429
 11
-4.02452
 21
11.0226
  0
LINE
  8
0
 10
-4.02452
 20
11.0226
 11
-4.38327
 21
10.8905
  0
LINE
  8
0
 10
-4.38327
 20
10.8905
 11
-5.09686
 21
10.5868
  0
LINE
  8
0
 10
-5.09686
 20
10.5868
 11
-5.10218
 21
10.5842
  0
LINE
  8
0
 10
-5.10218
 20
10.5842
 11
-5.10448
 21
10.5831
  0
LINE
  8
0
 10
-5.10448
 20
10.5831
 11
-5.59938
 21
10.3138
  0
LINE
  8
0
 10
-5.59938
 20
10.3138
 11
-5.85004
 21
10.1773
  0
LINE
  8
0
 10
-5.85004
 20
10.1773
 11
-6.62915
 21
9.70098
  0
LINE
  8
0
 10
-6.62915
 20
9.70098
 11
-6.63603
 21
9.69626
  0
LINE
  8
0
 10
-6.63603
 20
9.69626
 11
-6.64026
 21
9.69335
  0
LINE
  8
0
 10
-6.64026
 20
9.69335
 11
-7.11355
 21
9.33088
  0
LINE
  8
0
 10
-7.11355
 20
9.33088
 11
-7.44897
 21
9.07399
  0
LINE
  8
0
 10
-7.44897
 20
9.07399
 11
-7.84131
 21
8.74137
  0
LINE
  8
0
 10
-7.84131
 20
8.74137
 11
-8.05671
 21
8.53523
  0
LINE
  8
0
 10
-8.05671
 20
8.53523
 11
-6.96558
 21
7.43928
  0
LINE
  8
0
 10
-6.96558
 20
7.43928
 11
-7.40858
 21
6.99839
  0
LINE
  8
0
 10
-7.40858
 20
6.99839
 11
-8.49721
 21
8.09184
  0
LINE
  8
0
 10
-8.49721
 20
8.09184
 11
-8.53887
 21
8.04774
  0
LINE
  8
0
 10
-8.53887
 20
8.04774
 11
-8.85294
 21
7.71523
  0
LINE
  8
0
 10
-8.85294
 20
7.71523
 11
-9.11777
 21
7.39668
  0
LINE
  8
0
 10
-9.11777
 20
7.39668
 11
-9.39748
 21
7.02322
  0
LINE
  8
0
 10
-9.39748
 20
7.02322
 11
-9.69171
 21
6.63037
  0
LINE
  8
0
 10
-9.69171
 20
6.63037
 11
-9.8004
 21
6.46333
  0
LINE
  8
0
 10
-9.8004
 20
6.46333
 11
-9.91917
 21
6.28082
  0
LINE
  8
0
 10
-9.91917
 20
6.28082
 11
-10.3757
 21
5.49505
  0
LINE
  8
0
 10
-10.3757
 20
5.49505
 11
-10.4949
 21
5.25337
  0
LINE
  8
0
 10
-10.4949
 20
5.25337
 11
-10.6397
 21
4.95972
  0
LINE
  8
0
 10
-10.6397
 20
4.95972
 11
-10.9171
 21
4.31792
  0
LINE
  8
0
 10
-10.9171
 20
4.31792
 11
-11.0499
 21
3.94051
  0
LINE
  8
0
 10
-11.0499
 20
3.94051
 11
-11.2248
 21
3.44328
  0
LINE
  8
0
 10
-11.2248
 20
3.44328
 11
-11.3243
 21
3.10791
  0
LINE
  8
0
 10
-11.3243
 20
3.10791
 11
-11.4481
 21
2.54767
  0
LINE
  8
0
 10
-11.4481
 20
2.54767
 11
-11.597
 21
1.87426
  0
LINE
  8
0
 10
-11.597
 20
1.87426
 11
-11.6128
 21
1.76751
  0
LINE
  8
0
 10
-11.6128
 20
1.76751
 11
-11.6771
 21
1.10178
  0
LINE
  8
0
 10
-11.6771
 20
1.10178
 11
-11.7231
 21
0.626342
  0
LINE
  8
0
 10
-11.7231
 20
0.626342
 11
-11.7388
 21
0
  0
LINE
  8
0
 10
-7.40858
 20
-6.99839
 11
-7.38188
 21
-6.97157
  0
LINE
  8
0
 10
-7.38188
 20
-6.97157
 11
-7.35517
 21
-6.94474
  0
LINE
  8
0
 10
-7.35517
 20
-6.94474
 11
-7.30003
 21
-6.88936
  0
LINE
  8
0
 10
-7.30003
 20
-6.88936
 11
-7.13759
 21
-6.7262
  0
LINE
  8
0
 10
-7.13759
 20
-6.7262
 11
-5.15664
 21
-4.7365
  0
LINE
  8
0
 10
-5.15664
 20
-4.7365
 11
-5.17483
 21
-4.69249
  0
LINE
  8
0
 10
-5.17483
 20
-4.69249
 11
-5.32789
 21
-4.32219
  0
LINE
  8
0
 10
-5.32789
 20
-4.32219
 11
-5.4538
 21
-3.96003
  0
LINE
  8
0
 10
-5.4538
 20
-3.96003
 11
-5.59817
 21
-3.54477
  0
LINE
  8
0
 10
-5.59817
 20
-3.54477
 11
-5.69963
 21
-3.19173
  0
LINE
  8
0
 10
-5.69963
 20
-3.19173
 11
-5.83517
 21
-2.72008
  0
LINE
  8
0
 10
-5.83517
 20
-2.72008
 11
-5.95818
 21
-2.18781
  0
LINE
  8
0
 10
-5.95818
 20
-2.18781
 11
-6.0359
 21
-1.85155
  0
LINE
  8
0
 10
-6.0359
 20
-1.85155
 11
-6.09242
 21
-1.5336
  0
LINE
  8
0
 10
-6.09242
 20
-1.5336
 11
-6.19737
 21
-0.943266
  0
LINE
  8
0
 10
-6.19737
 20
-0.943266
 11
-6.23438
 21
-0.650538
  0
LINE
  8
0
 10
-6.23438
 20
-0.650538
 11
-6.31662
 21
0
  0
LINE
  8
0
 10
-6.31662
 20
0
 11
-6.37172
 21
0.722922
  0
LINE
  8
0
 10
-6.37172
 20
0.722922
 11
-6.39076
 21
0.972701
  0
LINE
  8
0
 10
-6.39076
 20
0.972701
 11
-6.41146
 21
1.7562
  0
LINE
  8
0
 10
-6.41146
 20
1.7562
 11
-6.41707
 21
1.96848
  0
LINE
  8
0
 10
-6.41707
 20
1.96848
 11
-6.41247
 21
2.16223
  0
LINE
  8
0
 10
-6.41247
 20
2.16223
 11
-6.39305
 21
2.98013
  0
LINE
  8
0
 10
-6.39305
 20
2.98013
 11
-6.32629
 21
3.8691
  0
LINE
  8
0
 10
-6.32629
 20
3.8691
 11
-6.31649
 21
3.9996
  0
LINE
  8
0
 10
-6.31649
 20
3.9996
 11
-6.19701
 21
4.92917
  0
LINE
  8
0
 10
-6.19701
 20
4.92917
 11
-6.1856
 21
5.01798
  0
LINE
  8
0
 10
-6.1856
 20
5.01798
 11
-6.17093
 21
5.09723
  0
LINE
  8
0
 10
-6.17093
 20
5.09723
 11
-5.99908
 21
6.02559
  0
LINE
  8
0
 10
-5.99908
 20
6.02559
 11
-5.75892
 21
7.00118
  0
LINE
  8
0
 10
-5.75892
 20
7.00118
 11
-5.75625
 21
7.012
  0
LINE
  8
0
 10
-5.75625
 20
7.012
 11
-5.75327
 21
7.02151
  0
LINE
  8
0
 10
-5.75327
 20
7.02151
 11
-5.66294
 21
7.30968
  0
LINE
  8
0
 10
-5.66294
 20
7.30968
 11
5.66294
 21
7.30968
  0
LINE
  8
0
 10
5.66294
 20
7.30968
 11
5.75327
 21
7.02151
  0
LINE
  8
0
 10
5.75327
 20
7.02151
 11
5.75625
 21
7.012
  0
LINE
  8
0
 10
5.75625
 20
7.012
 11
5.91166
 21
6.38071
  0
LINE
  8
0
 10
5.91166
 20
6.38071
 11
6.47441
 21
6.94594
  0
LINE
  8
0
 10
6.47441
 20
6.94594
 11
6.80334
 21
7.27632
  0
LINE
  8
0
 10
6.80334
 20
7.27632
 11
6.96484
 21
7.43854
  0
LINE
  8
0
 10
6.96484
 20
7.43854
 11
6.96558
 21
7.43928
  0
LINE
  8
0
 10
6.96558
 20
7.43928
 11
6.97743
 21
7.42749
  0
LINE
  8
0
 10
6.97743
 20
7.42749
 11
7.40858
 21
6.99839
  0
LINE
  8
0
 10
7.40858
 20
6.99839
 11
7.38188
 21
6.97157
  0
LINE
  8
0
 10
7.38188
 20
6.97157
 11
7.35517
 21
6.94474
  0
LINE
  8
0
 10
7.35517
 20
6.94474
 11
7.30003
 21
6.88936
  0
LINE
  8
0
 10
7.30003
 20
6.88936
 11
7.13759
 21
6.7262
  0
LINE
  8
0
 10
7.13759
 20
6.7262
 11
6.06822
 21
5.6521
  0
LINE
  8
0
 10
6.06822
 20
5.6521
 11
6.17093
 21
5.09723
  0
LINE
  8
0
 10
6.17093
 20
5.09723
 11
6.1856
 21
5.01798
  0
LINE
  8
0
 10
6.1856
 20
5.01798
 11
6.19701
 21
4.92917
  0
LINE
  8
0
 10
6.19701
 20
4.92917
 11
6.31649
 21
3.9996
  0
LINE
  8
0
 10
6.31649
 20
3.9996
 11
6.32629
 21
3.8691
  0
LINE
  8
0
 10
6.32629
 20
3.8691
 11
6.39305
 21
2.98013
  0
LINE
  8
0
 10
6.39305
 20
2.98013
 11
6.41247
 21
2.16223
  0
LINE
  8
0
 10
6.41247
 20
2.16223
 11
6.41707
 21
1.96848
  0
LINE
  8
0
 10
6.41707
 20
1.96848
 11
6.41146
 21
1.7562
  0
LINE
  8
0
 10
6.41146
 20
1.7562
 11
6.39076
 21
0.972701
  0
LINE
  8
0
 10
6.39076
 20
0.972701
 11
6.37172
 21
0.722922
  0
LINE
  8
0
 10
6.37172
 20
0.722922
 11
6.31662
 21
0
  0
LINE
  8
0
 10
6.31662
 20
0
 11
6.23438
 21
-0.650538
  0
LINE
  8
0
 10
6.23438
 20
-0.650538
 11
6.19737
 21
-0.943266
  0
LINE
  8
0
 10
6.19737
 20
-0.943266
 11
6.09242
 21
-1.5336
  0
LINE
  8
0
 10
6.09242
 20
-1.5336
 11
6.0359
 21
-1.85155
  0
LINE
  8
0
 10
6.0359
 20
-1.85155
 11
5.95818
 21
-2.18781
  0
LINE
  8
0
 10
5.95818
 20
-2.18781
 11
5.83517
 21
-2.72008
  0
LINE
  8
0
 10
5.83517
 20
-2.72008
 11
5.69963
 21
-3.19173
  0
LINE
  8
0
 10
5.69963
 20
-3.19173
 11
5.59817
 21
-3.54477
  0
LINE
  8
0
 10
5.59817
 20
-3.54477
 11
5.4538
 21
-3.96003
  0
LINE
  8
0
 10
5.4538
 20
-3.96003
 11
5.32789
 21
-4.32219
  0
LINE
  8
0
 10
5.32789
 20
-4.32219
 11
5.17483
 21
-4.69249
  0
LINE
  8
0
 10
5.17483
 20
-4.69249
 11
5.02727
 21
-5.04948
  0
LINE
  8
0
 10
5.02727
 20
-5.04948
 11
4.848
 21
-5.41818
  0
LINE
  8
0
 10
4.848
 20
-5.41818
 11
4.69916
 21
-5.7243
  0
LINE
  8
0
 10
4.69916
 20
-5.7243
 11
4.49405
 21
-6.085
  0
LINE
  8
0
 10
4.49405
 20
-6.085
 11
4.34635
 21
-6.34473
  0
LINE
  8
0
 10
4.34635
 20
-6.34473
 11
4.11624
 21
-6.69127
  0
LINE
  8
0
 10
4.11624
 20
-6.69127
 11
3.9715
 21
-6.90924
  0
LINE
  8
0
 10
3.9715
 20
-6.90924
 11
3.82625
 21
-7.09615
  0
LINE
  8
0
 10
3.82625
 20
-7.09615
 11
3.57721
 21
-7.41662
  0
LINE
  8
0
 10
3.57721
 20
-7.41662
 11
3.43672
 21
-7.57009
  0
LINE
  8
0
 10
3.43672
 20
-7.57009
 11
3.16593
 21
-7.86591
  0
LINE
  8
0
 10
3.16593
 20
-7.86591
 11
2.8703
 21
-8.13696
  0
LINE
  8
0
 10
2.8703
 20
-8.13696
 11
2.74003
 21
-8.25641
  0
LINE
  8
0
 10
2.74003
 20
-8.25641
 11
2.61027
 21
-8.35446
  0
LINE
  8
0
 10
2.61027
 20
-8.35446
 11
2.30179
 21
-8.58754
  0
LINE
  8
0
 10
2.30179
 20
-8.58754
 11
1.97383
 21
-8.78604
  0
LINE
  8
0
 10
1.97383
 20
-8.78604
 11
1.85341
 21
-8.85892
  0
LINE
  8
0
 10
1.85341
 20
-8.85892
 11
1.51345
 21
-9.01633
  0
LINE
  8
0
 10
1.51345
 20
-9.01633
 11
1.397
 21
-9.07026
  0
LINE
  8
0
 10
1.397
 20
-9.07026
 11
1.28096
 21
-9.10817
  0
LINE
  8
0
 10
1.28096
 20
-9.10817
 11
0.934624
 21
-9.22133
  0
LINE
  8
0
 10
0.934624
 20
-9.22133
 11
0.579841
 21
-9.29034
  0
LINE
  8
0
 10
0.579841
 20
-9.29034
 11
0.468296
 21
-9.31203
  0
LINE
  8
0
 10
0.468296
 20
-9.31203
 11
0.11085
 21
-9.33511
  0
LINE
  8
0
 10
0.11085
 20
-9.33511
 11
0
 21
-9.34227
  0
LINE
  8
0
 10
0
 20
-9.34227
 11
-0.11085
 21
-9.33511
  0
LINE
  8
0
 10
-0.11085
 20
-9.33511
 11
-0.468296
 21
-9.31203
  0
LINE
  8
0
 10
-0.468296
 20
-9.31203
 11
-0.579841
 21
-9.29034
  0
LINE
  8
0
 10
-0.579841
 20
-9.29034
 11
-0.934624
 21
-9.22133
  0
LINE
  8
0
 10
-0.934624
 20
-9.22133
 11
-1.28096
 21
-9.10817
  0
LINE
  8
0
 10
-1.28096
 20
-9.10817
 11
-1.397
 21
-9.07026
  0
LINE
  8
0
 10
-1.397
 20
-9.07026
 11
-1.51345
 21
-9.01633
  0
LINE
  8
0
 10
-1.51345
 20
-9.01633
 11
-1.85341
 21
-8.85892
  0
LINE
  8
0
 10
-1.85341
 20
-8.85892
 11
-1.97383
 21
-8.78604
  0
LINE
  8
0
 10
-1.97383
 20
-8.78604
 11
-2.30179
 21
-8.58754
  0
LINE
  8
0
 10
-2.30179
 20
-8.58754
 11
-2.61027
 21
-8.35446
  0
LINE
  8
0
 10
-2.61027
 20
-8.35446
 11
-2.74003
 21
-8.25641
  0
LINE
  8
0
 10
-2.74003
 20
-8.25641
 11
-3.03074
 21
-7.98986
  0
LINE
  8
0
 10
-3.03074
 20
-7.98986
 11
-3.16593
 21
-7.86591
  0
LINE
  8
0
 10
-3.16593
 20
-7.86591
 11
-3.43672
 21
-7.57009
  0
LINE
  8
0
 10
-3.43672
 20
-7.57009
 11
-3.57721
 21
-7.41662
  0
LINE
  8
0
 10
-3.57721
 20
-7.41662
 11
-3.82625
 21
-7.09615
  0
LINE
  8
0
 10
-3.82625
 20
-7.09615
 11
-3.9715
 21
-6.90924
  0
LINE
  8
0
 10
-3.9715
 20
-6.90924
 11
-4.11624
 21
-6.69127
  0
LINE
  8
0
 10
-4.11624
 20
-6.69127
 11
-4.34635
 21
-6.34473
  0
LINE
  8
0
 10
-4.34635
 20
-6.34473
 11
-4.49405
 21
-6.085
  0
LINE
  8
0
 10
-4.49405
 20
-6.085
 11
-4.69916
 21
-5.7243
  0
LINE
  8
0
 10
-4.69916
 20
-5.7243
 11
-4.87553
 21
-5.36156
  0
LINE
  8
0
 10
-4.87553
 20
-5.36156
 11
-4.88257
 21
-5.34707
  0
LINE
  8
0
 10
-4.88257
 20
-5.34707
 11
-6.47441
 21
-6.94594
  0
LINE
  8
0
 10
-6.47441
 20
-6.94594
 11
-6.80334
 21
-7.27632
  0
LINE
  8
0
 10
-6.80334
 20
-7.27632
 11
-6.96484
 21
-7.43854
  0
LINE
  8
0
 10
-6.96484
 20
-7.43854
 11
-6.96558
 21
-7.43928
  0
LINE
  8
0
 10
-6.96558
 20
-7.43928
 11
-6.97743
 21
-7.42749
  0
LINE
  8
0
 10
-6.97743
 20
-7.42749
 11
-7.40858
 21
-6.99839
  0
ENDSEC
  0
SECTION
  2
OBJECTS
  0
DICTIONARY
  0
ENDSEC
  0
EOF
