  0
SECTION
  2
BLOCKS
  0
ENDSEC
  0
SECTION
  2
ENTITIES
  0
LINE
  8
0
 10
-11.9886
 20
0
 11
-11.9725
 21
-0.639669
  0
LINE
  8
0
 10
-11.9725
 20
-0.639669
 11
-11.9256
 21
-1.12522
  0
LINE
  8
0
 10
-11.9256
 20
-1.12522
 11
-11.8598
 21
-1.80512
  0
LINE
  8
0
 10
-11.8598
 20
-1.80512
 11
-11.8504
 21
-1.86872
  0
LINE
  8
0
 10
-11.8504
 20
-1.86872
 11
-11.8437
 21
-1.91414
  0
LINE
  8
0
 10
-11.8437
 20
-1.91414
 11
-11.7792
 21
-2.20621
  0
LINE
  8
0
 10
-11.7792
 20
-2.20621
 11
-11.5652
 21
-3.17404
  0
LINE
  8
0
 10
-11.5652
 20
-3.17404
 11
-11.5212
 21
-3.3225
  0
LINE
  8
0
 10
-11.5212
 20
-3.3225
 11
-11.4636
 21
-3.51654
  0
LINE
  8
0
 10
-11.4636
 20
-3.51654
 11
-11.1494
 21
-4.40979
  0
LINE
  8
0
 10
-11.1494
 20
-4.40979
 11
-11.0209
 21
-4.70706
  0
LINE
  8
0
 10
-11.0209
 20
-4.70706
 11
-10.8661
 21
-5.06524
  0
LINE
  8
0
 10
-10.8661
 20
-5.06524
 11
-10.7182
 21
-5.36514
  0
LINE
  8
0
 10
-10.7182
 20
-5.36514
 11
-10.5964
 21
-5.61197
  0
LINE
  8
0
 10
-10.5964
 20
-5.61197
 11
-10.1302
 21
-6.41446
  0
LINE
  8
0
 10
-10.1302
 20
-6.41446
 11
-9.89791
 21
-6.77145
  0
LINE
  8
0
 10
-9.89791
 20
-6.77145
 11
-9.59742
 21
-7.17265
  0
LINE
  8
0
 10
-9.59742
 20
-7.17265
 11
-9.31177
 21
-7.55405
  0
LINE
  8
0
 10
-9.31177
 20
-7.55405
 11
-9.0413
 21
-7.87939
  0
LINE
  8
0
 10
-9.0413
 20
-7.87939
 11
-8.72055
 21
-8.21897
  0
LINE
  8
0
 10
-8.72055
 20
-8.21897
 11
-8.45875
 21
-8.49613
  0
LINE
  8
0
 10
-8.45875
 20
-8.49613
 11
-8.00815
 21
-8.92736
  0
LINE
  8
0
 10
-8.00815
 20
-8.92736
 11
-7.60746
 21
-9.26706
  0
LINE
  8
0
 10
-7.60746
 20
-9.26706
 11
-7.2649
 21
-9.52941
  0
LINE
  8
0
 10
-7.2649
 20
-9.52941
 11
-6.78154
 21
-9.8996
  0
LINE
  8
0
 10
-6.78154
 20
-9.8996
 11
-6.77019
 21
-9.90739
  0
LINE
  8
0
 10
-6.77019
 20
-9.90739
 11
-6.23965
 21
-10.2318
  0
LINE
  8
0
 10
-6.23965
 20
-10.2318
 11
-5.97451
 21
-10.3939
  0
LINE
  8
0
 10
-5.97451
 20
-10.3939
 11
-5.2194
 21
-10.8049
  0
LINE
  8
0
 10
-5.2194
 20
-10.8049
 11
-5.21309
 21
-10.8083
  0
LINE
  8
0
 10
-5.21309
 20
-10.8083
 11
-5.21074
 21
-10.8094
  0
LINE
  8
0
 10
-5.21074
 20
-10.8094
 11
-5.2053
 21
-10.812
  0
LINE
  8
0
 10
-5.2053
 20
-10.812
 11
-4.47653
 21
-11.1222
  0
LINE
  8
0
 10
-4.47653
 20
-11.1222
 11
-4.11015
 21
-11.2571
  0
LINE
  8
0
 10
-4.11015
 20
-11.2571
 11
-3.77662
 21
-11.3799
  0
LINE
  8
0
 10
-3.77662
 20
-11.3799
 11
-3.59784
 21
-11.4356
  0
LINE
  8
0
 10
-3.59784
 20
-11.4356
 11
-3.10617
 21
-11.5885
  0
LINE
  8
0
 10
-3.10617
 20
-11.5885
 11
-2.9259
 21
-11.6344
  0
LINE
  8
0
 10
-2.9259
 20
-11.6344
 11
-2.52628
 21
-11.7244
  0
LINE
  8
0
 10
-2.52628
 20
-11.7244
 11
-2.45621
 21
-11.7402
  0
LINE
  8
0
 10
-2.45621
 20
-11.7402
 11
-2.35973
 21
-11.7571
  0
LINE
  8
0
 10
-2.35973
 20
-11.7571
 11
-1.82525
 21
-11.8508
  0
LINE
  8
0
 10
-1.82525
 20
-11.8508
 11
-1.4146
 21
-11.9022
  0
LINE
  8
0
 10
-1.4146
 20
-11.9022
 11
-1.20895
 21
-11.9279
  0
LINE
  8
0
 10
-1.20895
 20
-11.9279
 11
-0.847745
 21
-11.9551
  0
LINE
  8
0
 10
-0.847745
 20
-11.9551
 11
-0.60214
 21
-11.9735
  0
LINE
  8
0
 10
-0.60214
 20
-11.9735
 11
-0.266168
 21
-11.9819
  0
LINE
  8
0
 10
-0.266168
 20
-11.9819
 11
0
 21
-11.9886
  0
LINE
  8
0
 10
0
 20
-11.9886
 11
0.266168
 21
-11.9819
  0
LINE
  8
0
 10
0.266168
 20
-11.9819
 11
0.60214
 21
-11.9735
  0
LINE
  8
0
 10
0.60214
 20
-11.9735
 11
0.847745
 21
-11.9551
  0
LINE
  8
0
 10
0.847745
 20
-11.9551
 11
1.20895
 21
-11.9279
  0
LINE
  8
0
 10
1.20895
 20
-11.9279
 11
1.4146
 21
-11.9022
  0
LINE
  8
0
 10
1.4146
 20
-11.9022
 11
1.82525
 21
-11.8508
  0
LINE
  8
0
 10
1.82525
 20
-11.8508
 11
2.35973
 21
-11.7571
  0
LINE
  8
0
 10
2.35973
 20
-11.7571
 11
2.45621
 21
-11.7402
  0
LINE
  8
0
 10
2.45621
 20
-11.7402
 11
2.52628
 21
-11.7244
  0
LINE
  8
0
 10
2.52628
 20
-11.7244
 11
2.9259
 21
-11.6344
  0
LINE
  8
0
 10
2.9259
 20
-11.6344
 11
3.10617
 21
-11.5885
  0
LINE
  8
0
 10
3.10617
 20
-11.5885
 11
3.59784
 21
-11.4356
  0
LINE
  8
0
 10
3.59784
 20
-11.4356
 11
3.77662
 21
-11.3799
  0
LINE
  8
0
 10
3.77662
 20
-11.3799
 11
4.11015
 21
-11.2571
  0
LINE
  8
0
 10
4.11015
 20
-11.2571
 11
4.47653
 21
-11.1222
  0
LINE
  8
0
 10
4.47653
 20
-11.1222
 11
5.2053
 21
-10.812
  0
LINE
  8
0
 10
5.2053
 20
-10.812
 11
5.21074
 21
-10.8094
  0
LINE
  8
0
 10
5.21074
 20
-10.8094
 11
5.21309
 21
-10.8083
  0
LINE
  8
0
 10
5.21309
 20
-10.8083
 11
5.2194
 21
-10.8049
  0
LINE
  8
0
 10
5.2194
 20
-10.8049
 11
5.97451
 21
-10.3939
  0
LINE
  8
0
 10
5.97451
 20
-10.3939
 11
6.23965
 21
-10.2318
  0
LINE
  8
0
 10
6.23965
 20
-10.2318
 11
6.77019
 21
-9.90739
  0
LINE
  8
0
 10
6.77019
 20
-9.90739
 11
6.78154
 21
-9.8996
  0
LINE
  8
0
 10
6.78154
 20
-9.8996
 11
7.2649
 21
-9.52941
  0
LINE
  8
0
 10
7.2649
 20
-9.52941
 11
7.60746
 21
-9.26706
  0
LINE
  8
0
 10
7.60746
 20
-9.26706
 11
8.00815
 21
-8.92736
  0
LINE
  8
0
 10
8.00815
 20
-8.92736
 11
8.23293
 21
-8.71224
  0
LINE
  8
0
 10
8.23293
 20
-8.71224
 11
6.92149
 21
-7.39499
  0
LINE
  8
0
 10
6.92149
 20
-7.39499
 11
7.36448
 21
-6.9541
  0
LINE
  8
0
 10
7.36448
 20
-6.9541
 11
8.67344
 21
-8.26884
  0
LINE
  8
0
 10
8.67344
 20
-8.26884
 11
8.72055
 21
-8.21897
  0
LINE
  8
0
 10
8.72055
 20
-8.21897
 11
9.0413
 21
-7.87939
  0
LINE
  8
0
 10
9.0413
 20
-7.87939
 11
9.31177
 21
-7.55405
  0
LINE
  8
0
 10
9.31177
 20
-7.55405
 11
9.59742
 21
-7.17265
  0
LINE
  8
0
 10
9.59742
 20
-7.17265
 11
9.89791
 21
-6.77145
  0
LINE
  8
0
 10
9.89791
 20
-6.77145
 11
10.1302
 21
-6.41446
  0
LINE
  8
0
 10
10.1302
 20
-6.41446
 11
10.5964
 21
-5.61197
  0
LINE
  8
0
 10
10.5964
 20
-5.61197
 11
10.7182
 21
-5.36514
  0
LINE
  8
0
 10
10.7182
 20
-5.36514
 11
10.8661
 21
-5.06524
  0
LINE
  8
0
 10
10.8661
 20
-5.06524
 11
11.0209
 21
-4.70706
  0
LINE
  8
0
 10
11.0209
 20
-4.70706
 11
11.1494
 21
-4.40979
  0
LINE
  8
0
 10
11.1494
 20
-4.40979
 11
11.4636
 21
-3.51654
  0
LINE
  8
0
 10
11.4636
 20
-3.51654
 11
11.5212
 21
-3.3225
  0
LINE
  8
0
 10
11.5212
 20
-3.3225
 11
11.5652
 21
-3.17404
  0
LINE
  8
0
 10
11.5652
 20
-3.17404
 11
11.7792
 21
-2.20621
  0
LINE
  8
0
 10
11.7792
 20
-2.20621
 11
11.8437
 21
-1.91414
  0
LINE
  8
0
 10
11.8437
 20
-1.91414
 11
11.8504
 21
-1.86872
  0
LINE
  8
0
 10
11.8504
 20
-1.86872
 11
11.8598
 21
-1.80512
  0
LINE
  8
0
 10
11.8598
 20
-1.80512
 11
11.9256
 21
-1.12522
  0
LINE
  8
0
 10
11.9256
 20
-1.12522
 11
11.9725
 21
-0.639669
  0
LINE
  8
0
 10
11.9725
 20
-0.639669
 11
11.9886
 21
0
  0
LINE
  8
0
 10
11.9886
 20
0
 11
11.9725
 21
0.639668
  0
LINE
  8
0
 10
11.9725
 20
0.639668
 11
11.9256
 21
1.12522
  0
LINE
  8
0
 10
11.9256
 20
1.12522
 11
11.8598
 21
1.80512
  0
LINE
  8
0
 10
11.8598
 20
1.80512
 11
11.8504
 21
1.86872
  0
LINE
  8
0
 10
11.8504
 20
1.86872
 11
11.8437
 21
1.91414
  0
LINE
  8
0
 10
11.8437
 20
1.91414
 11
11.7792
 21
2.20621
  0
LINE
  8
0
 10
11.7792
 20
2.20621
 11
11.5652
 21
3.17404
  0
LINE
  8
0
 10
11.5652
 20
3.17404
 11
11.5212
 21
3.3225
  0
LINE
  8
0
 10
11.5212
 20
3.3225
 11
11.4636
 21
3.51654
  0
LINE
  8
0
 10
11.4636
 20
3.51654
 11
11.1494
 21
4.40979
  0
LINE
  8
0
 10
11.1494
 20
4.40979
 11
11.0209
 21
4.70706
  0
LINE
  8
0
 10
11.0209
 20
4.70706
 11
10.8661
 21
5.06524
  0
LINE
  8
0
 10
10.8661
 20
5.06524
 11
10.7182
 21
5.36514
  0
LINE
  8
0
 10
10.7182
 20
5.36514
 11
10.5964
 21
5.61197
  0
LINE
  8
0
 10
10.5964
 20
5.61197
 11
10.1302
 21
6.41446
  0
LINE
  8
0
 10
10.1302
 20
6.41446
 11
9.89791
 21
6.77145
  0
LINE
  8
0
 10
9.89791
 20
6.77145
 11
9.59742
 21
7.17265
  0
LINE
  8
0
 10
9.59742
 20
7.17265
 11
9.31177
 21
7.55405
  0
LINE
  8
0
 10
9.31177
 20
7.55405
 11
9.0413
 21
7.87938
  0
LINE
  8
0
 10
9.0413
 20
7.87938
 11
8.72055
 21
8.21897
  0
LINE
  8
0
 10
8.72055
 20
8.21897
 11
8.45875
 21
8.49613
  0
LINE
  8
0
 10
8.45875
 20
8.49613
 11
8.00815
 21
8.92736
  0
LINE
  8
0
 10
8.00815
 20
8.92736
 11
7.60746
 21
9.26706
  0
LINE
  8
0
 10
7.60746
 20
9.26706
 11
7.2649
 21
9.52941
  0
LINE
  8
0
 10
7.2649
 20
9.52941
 11
6.78154
 21
9.8996
  0
LINE
  8
0
 10
6.78154
 20
9.8996
 11
6.77019
 21
9.90739
  0
LINE
  8
0
 10
6.77019
 20
9.90739
 11
6.23965
 21
10.2318
  0
LINE
  8
0
 10
6.23965
 20
10.2318
 11
5.97451
 21
10.3939
  0
LINE
  8
0
 10
5.97451
 20
10.3939
 11
5.2194
 21
10.8049
  0
LINE
  8
0
 10
5.2194
 20
10.8049
 11
5.21309
 21
10.8083
  0
LINE
  8
0
 10
5.21309
 20
10.8083
 11
5.21074
 21
10.8094
  0
LINE
  8
0
 10
5.21074
 20
10.8094
 11
5.2053
 21
10.812
  0
LINE
  8
0
 10
5.2053
 20
10.812
 11
4.47653
 21
11.1222
  0
LINE
  8
0
 10
4.47653
 20
11.1222
 11
4.11014
 21
11.2571
  0
LINE
  8
0
 10
4.11014
 20
11.2571
 11
3.77662
 21
11.3799
  0
LINE
  8
0
 10
3.77662
 20
11.3799
 11
3.59784
 21
11.4356
  0
LINE
  8
0
 10
3.59784
 20
11.4356
 11
3.10617
 21
11.5885
  0
LINE
  8
0
 10
3.10617
 20
11.5885
 11
2.9259
 21
11.6344
  0
LINE
  8
0
 10
2.9259
 20
11.6344
 11
2.52628
 21
11.7244
  0
LINE
  8
0
 10
2.52628
 20
11.7244
 11
2.45621
 21
11.7402
  0
LINE
  8
0
 10
2.45621
 20
11.7402
 11
2.35973
 21
11.7571
  0
LINE
  8
0
 10
2.35973
 20
11.7571
 11
1.82525
 21
11.8508
  0
LINE
  8
0
 10
1.82525
 20
11.8508
 11
1.4146
 21
11.9022
  0
LINE
  8
0
 10
1.4146
 20
11.9022
 11
1.20895
 21
11.9279
  0
LINE
  8
0
 10
1.20895
 20
11.9279
 11
0.847746
 21
11.9551
  0
LINE
  8
0
 10
0.847746
 20
11.9551
 11
0.60214
 21
11.9735
  0
LINE
  8
0
 10
0.60214
 20
11.9735
 11
0.266168
 21
11.9819
  0
LINE
  8
0
 10
0.266168
 20
11.9819
 11
0
 21
11.9886
  0
LINE
  8
0
 10
0
 20
11.9886
 11
-0.266168
 21
11.9819
  0
LINE
  8
0
 10
-0.266168
 20
11.9819
 11
-0.60214
 21
11.9735
  0
LINE
  8
0
 10
-0.60214
 20
11.9735
 11
-0.847746
 21
11.9551
  0
LINE
  8
0
 10
-0.847746
 20
11.9551
 11
-1.20895
 21
11.9279
  0
LINE
  8
0
 10
-1.20895
 20
11.9279
 11
-1.4146
 21
11.9022
  0
LINE
  8
0
 10
-1.4146
 20
11.9022
 11
-1.82525
 21
11.8508
  0
LINE
  8
0
 10
-1.82525
 20
11.8508
 11
-2.35973
 21
11.7571
  0
LINE
  8
0
 10
-2.35973
 20
11.7571
 11
-2.45621
 21
11.7402
  0
LINE
  8
0
 10
-2.45621
 20
11.7402
 11
-2.52628
 21
11.7244
  0
LINE
  8
0
 10
-2.52628
 20
11.7244
 11
-2.9259
 21
11.6344
  0
LINE
  8
0
 10
-2.9259
 20
11.6344
 11
-3.10617
 21
11.5885
  0
LINE
  8
0
 10
-3.10617
 20
11.5885
 11
-3.59784
 21
11.4356
  0
LINE
  8
0
 10
-3.59784
 20
11.4356
 11
-3.77662
 21
11.3799
  0
LINE
  8
0
 10
-3.77662
 20
11.3799
 11
-4.11014
 21
11.2571
  0
LINE
  8
0
 10
-4.11014
 20
11.2571
 11
-4.47653
 21
11.1222
  0
LINE
  8
0
 10
-4.47653
 20
11.1222
 11
-5.2053
 21
10.812
  0
LINE
  8
0
 10
-5.2053
 20
10.812
 11
-5.21074
 21
10.8094
  0
LINE
  8
0
 10
-5.21074
 20
10.8094
 11
-5.21309
 21
10.8083
  0
LINE
  8
0
 10
-5.21309
 20
10.8083
 11
-5.2194
 21
10.8049
  0
LINE
  8
0
 10
-5.2194
 20
10.8049
 11
-5.97451
 21
10.3939
  0
LINE
  8
0
 10
-5.97451
 20
10.3939
 11
-6.23965
 21
10.2318
  0
LINE
  8
0
 10
-6.23965
 20
10.2318
 11
-6.77019
 21
9.90739
  0
LINE
  8
0
 10
-6.77019
 20
9.90739
 11
-6.78154
 21
9.8996
  0
LINE
  8
0
 10
-6.78154
 20
9.8996
 11
-7.2649
 21
9.52941
  0
LINE
  8
0
 10
-7.2649
 20
9.52941
 11
-7.60746
 21
9.26706
  0
LINE
  8
0
 10
-7.60746
 20
9.26706
 11
-8.00815
 21
8.92736
  0
LINE
  8
0
 10
-8.00815
 20
8.92736
 11
-8.23293
 21
8.71224
  0
LINE
  8
0
 10
-8.23293
 20
8.71224
 11
-6.92149
 21
7.39499
  0
LINE
  8
0
 10
-6.92149
 20
7.39499
 11
-7.36448
 21
6.9541
  0
LINE
  8
0
 10
-7.36448
 20
6.9541
 11
-8.67344
 21
8.26884
  0
LINE
  8
0
 10
-8.67344
 20
8.26884
 11
-8.72055
 21
8.21897
  0
LINE
  8
0
 10
-8.72055
 20
8.21897
 11
-9.0413
 21
7.87938
  0
LINE
  8
0
 10
-9.0413
 20
7.87938
 11
-9.31177
 21
7.55405
  0
LINE
  8
0
 10
-9.31177
 20
7.55405
 11
-9.59742
 21
7.17265
  0
LINE
  8
0
 10
-9.59742
 20
7.17265
 11
-9.89791
 21
6.77145
  0
LINE
  8
0
 10
-9.89791
 20
6.77145
 11
-10.1302
 21
6.41446
  0
LINE
  8
0
 10
-10.1302
 20
6.41446
 11
-10.5964
 21
5.61197
  0
LINE
  8
0
 10
-10.5964
 20
5.61197
 11
-10.7182
 21
5.36514
  0
LINE
  8
0
 10
-10.7182
 20
5.36514
 11
-10.8661
 21
5.06524
  0
LINE
  8
0
 10
-10.8661
 20
5.06524
 11
-11.0209
 21
4.70706
  0
LINE
  8
0
 10
-11.0209
 20
4.70706
 11
-11.1494
 21
4.40979
  0
LINE
  8
0
 10
-11.1494
 20
4.40979
 11
-11.4636
 21
3.51654
  0
LINE
  8
0
 10
-11.4636
 20
3.51654
 11
-11.5212
 21
3.3225
  0
LINE
  8
0
 10
-11.5212
 20
3.3225
 11
-11.5652
 21
3.17404
  0
LINE
  8
0
 10
-11.5652
 20
3.17404
 11
-11.7792
 21
2.20621
  0
LINE
  8
0
 10
-11.7792
 20
2.20621
 11
-11.8437
 21
1.91414
  0
LINE
  8
0
 10
-11.8437
 20
1.91414
 11
-11.8504
 21
1.86872
  0
LINE
  8
0
 10
-11.8504
 20
1.86872
 11
-11.8598
 21
1.80512
  0
LINE
  8
0
 10
-11.8598
 20
1.80512
 11
-11.9256
 21
1.12522
  0
LINE
  8
0
 10
-11.9256
 20
1.12522
 11
-11.9725
 21
0.639668
  0
LINE
  8
0
 10
-11.9725
 20
0.639668
 11
-11.9886
 21
0
  0
LINE
  8
0
 10
-10.3125
 20
0
 11
-10.1829
 21
0.178323
  0
LINE
  8
0
 10
-10.1829
 20
0.178323
 11
-9.97331
 21
0.110209
  0
LINE
  8
0
 10
-9.97331
 20
0.110209
 11
-9.97331
 21
-0.110209
  0
LINE
  8
0
 10
-9.97331
 20
-0.110209
 11
-10.1829
 21
-0.178323
  0
LINE
  8
0
 10
-10.1829
 20
-0.178323
 11
-10.3125
 21
0
  0
LINE
  8
0
 10
-8.93089
 20
-5.15625
 11
-8.90785
 21
-4.93704
  0
LINE
  8
0
 10
-8.90785
 20
-4.93704
 11
-8.69224
 21
-4.89121
  0
LINE
  8
0
 10
-8.69224
 20
-4.89121
 11
-8.58203
 21
-5.0821
  0
LINE
  8
0
 10
-8.58203
 20
-5.0821
 11
-8.72952
 21
-5.2459
  0
LINE
  8
0
 10
-8.72952
 20
-5.2459
 11
-8.93089
 21
-5.15625
  0
LINE
  8
0
 10
-8.93089
 20
5.15625
 11
-8.72952
 21
5.2459
  0
LINE
  8
0
 10
-8.72952
 20
5.2459
 11
-8.58203
 21
5.0821
  0
LINE
  8
0
 10
-8.58203
 20
5.0821
 11
-8.69224
 21
4.89121
  0
LINE
  8
0
 10
-8.69224
 20
4.89121
 11
-8.90785
 21
4.93704
  0
LINE
  8
0
 10
-8.90785
 20
4.93704
 11
-8.93089
 21
5.15625
  0
LINE
  8
0
 10
-7.36449
 20
-6.9541
 11
-7.33795
 21
-6.92745
  0
LINE
  8
0
 10
-7.33795
 20
-6.92745
 11
-7.3114
 21
-6.90079
  0
LINE
  8
0
 10
-7.3114
 20
-6.90079
 11
-7.28475
 21
-6.87402
  0
LINE
  8
0
 10
-7.28475
 20
-6.87402
 11
-7.23072
 21
-6.81974
  0
LINE
  8
0
 10
-7.23072
 20
-6.81974
 11
-6.28101
 21
-5.86584
  0
LINE
  8
0
 10
-6.28101
 20
-5.86584
 11
-4.43157
 21
-4.00823
  0
LINE
  8
0
 10
-4.43157
 20
-4.00823
 11
-4.50484
 21
-3.77415
  0
LINE
  8
0
 10
-4.50484
 20
-3.77415
 11
-4.69846
 21
-2.97507
  0
LINE
  8
0
 10
-4.69846
 20
-2.97507
 11
-4.84539
 21
-2.14642
  0
LINE
  8
0
 10
-4.84539
 20
-2.14642
 11
-4.94415
 21
-1.29645
  0
LINE
  8
0
 10
-4.94415
 20
-1.29645
 11
-4.99378
 21
-0.433584
  0
LINE
  8
0
 10
-4.99378
 20
-0.433584
 11
-4.99378
 21
0.433584
  0
LINE
  8
0
 10
-4.99378
 20
0.433584
 11
-4.94415
 21
1.29645
  0
LINE
  8
0
 10
-4.94415
 20
1.29645
 11
-4.84539
 21
2.14642
  0
LINE
  8
0
 10
-4.84539
 20
2.14642
 11
-4.69846
 21
2.97507
  0
LINE
  8
0
 10
-4.69846
 20
2.97507
 11
-4.50484
 21
3.77415
  0
LINE
  8
0
 10
-4.50484
 20
3.77415
 11
-4.26645
 21
4.53571
  0
LINE
  8
0
 10
-4.26645
 20
4.53571
 11
-3.98566
 21
5.2522
  0
LINE
  8
0
 10
-3.98566
 20
5.2522
 11
-3.66526
 21
5.9165
  0
LINE
  8
0
 10
-3.66526
 20
5.9165
 11
-3.30843
 21
6.52199
  0
LINE
  8
0
 10
-3.30843
 20
6.52199
 11
-2.91872
 21
7.06266
  0
LINE
  8
0
 10
-2.91872
 20
7.06266
 11
-2.5
 21
7.53314
  0
LINE
  8
0
 10
-2.5
 20
7.53314
 11
-2.05643
 21
7.92875
  0
LINE
  8
0
 10
-2.05643
 20
7.92875
 11
-1.59243
 21
8.24556
  0
LINE
  8
0
 10
-1.59243
 20
8.24556
 11
-1.1126
 21
8.48043
  0
LINE
  8
0
 10
-1.1126
 20
8.48043
 11
-0.621718
 21
8.63101
  0
LINE
  8
0
 10
-0.621718
 20
8.63101
 11
-0.124653
 21
8.69582
  0
LINE
  8
0
 10
-0.124653
 20
8.69582
 11
0.37365
 21
8.6742
  0
LINE
  8
0
 10
0.37365
 20
8.6742
 11
0.86824
 21
8.56637
  0
LINE
  8
0
 10
0.86824
 20
8.56637
 11
1.3542
 21
8.37341
  0
LINE
  8
0
 10
1.3542
 20
8.37341
 11
1.8267
 21
8.09722
  0
LINE
  8
0
 10
1.8267
 20
8.09722
 11
2.28105
 21
7.74057
  0
LINE
  8
0
 10
2.28105
 20
7.74057
 11
2.71273
 21
7.30698
  0
LINE
  8
0
 10
2.71273
 20
7.30698
 11
3.11745
 21
6.80078
  0
LINE
  8
0
 10
3.11745
 20
6.80078
 11
3.49118
 21
6.22698
  0
LINE
  8
0
 10
3.49118
 20
6.22698
 11
3.83022
 21
5.5913
  0
LINE
  8
0
 10
3.83022
 20
5.5913
 11
4.13119
 21
4.90005
  0
LINE
  8
0
 10
4.13119
 20
4.90005
 11
4.21108
 21
4.67261
  0
LINE
  8
0
 10
4.21108
 20
4.67261
 11
5.44035
 21
5.90732
  0
LINE
  8
0
 10
5.44035
 20
5.90732
 11
6.12044
 21
6.59041
  0
LINE
  8
0
 10
6.12044
 20
6.59041
 11
6.59214
 21
7.06419
  0
LINE
  8
0
 10
6.59214
 20
7.06419
 11
6.86857
 21
7.34185
  0
LINE
  8
0
 10
6.86857
 20
7.34185
 11
6.92149
 21
7.39499
  0
LINE
  8
0
 10
6.92149
 20
7.39499
 11
6.93334
 21
7.38319
  0
LINE
  8
0
 10
6.93334
 20
7.38319
 11
7.36449
 21
6.9541
  0
LINE
  8
0
 10
7.36449
 20
6.9541
 11
7.33795
 21
6.92745
  0
LINE
  8
0
 10
7.33795
 20
6.92745
 11
7.3114
 21
6.90079
  0
LINE
  8
0
 10
7.3114
 20
6.90079
 11
7.28475
 21
6.87402
  0
LINE
  8
0
 10
7.28475
 20
6.87402
 11
7.23072
 21
6.81974
  0
LINE
  8
0
 10
7.23072
 20
6.81974
 11
6.28101
 21
5.86584
  0
LINE
  8
0
 10
6.28101
 20
5.86584
 11
4.43281
 21
4.00947
  0
LINE
  8
0
 10
4.43281
 20
4.00947
 11
4.60738
 21
3.37881
  0
LINE
  8
0
 10
4.60738
 20
3.37881
 11
4.77786
 21
2.56393
  0
LINE
  8
0
 10
4.77786
 20
2.56393
 11
4.90086
 21
1.72358
  0
LINE
  8
0
 10
4.90086
 20
1.72358
 11
4.97515
 21
0.866092
  0
LINE
  8
0
 10
4.97515
 20
0.866092
 11
5
 21
0
  0
LINE
  8
0
 10
5
 20
0
 11
4.97515
 21
-0.866092
  0
LINE
  8
0
 10
4.97515
 20
-0.866092
 11
4.90086
 21
-1.72358
  0
LINE
  8
0
 10
4.90086
 20
-1.72358
 11
4.77786
 21
-2.56393
  0
LINE
  8
0
 10
4.77786
 20
-2.56393
 11
4.60738
 21
-3.37881
  0
LINE
  8
0
 10
4.60738
 20
-3.37881
 11
4.39111
 21
-4.1601
  0
LINE
  8
0
 10
4.39111
 20
-4.1601
 11
4.13119
 21
-4.90005
  0
LINE
  8
0
 10
4.13119
 20
-4.90005
 11
3.83022
 21
-5.5913
  0
LINE
  8
0
 10
3.83022
 20
-5.5913
 11
3.49118
 21
-6.22698
  0
LINE
  8
0
 10
3.49118
 20
-6.22698
 11
3.11745
 21
-6.80078
  0
LINE
  8
0
 10
3.11745
 20
-6.80078
 11
2.71273
 21
-7.30698
  0
LINE
  8
0
 10
2.71273
 20
-7.30698
 11
2.28105
 21
-7.74057
  0
LINE
  8
0
 10
2.28105
 20
-7.74057
 11
1.8267
 21
-8.09722
  0
LINE
  8
0
 10
1.8267
 20
-8.09722
 11
1.3542
 21
-8.37341
  0
LINE
  8
0
 10
1.3542
 20
-8.37341
 11
0.86824
 21
-8.56637
  0
LINE
  8
0
 10
0.86824
 20
-8.56637
 11
0.37365
 21
-8.6742
  0
LINE
  8
0
 10
0.37365
 20
-8.6742
 11
-0.124653
 21
-8.69582
  0
LINE
  8
0
 10
-0.124653
 20
-8.69582
 11
-0.621718
 21
-8.63101
  0
LINE
  8
0
 10
-0.621718
 20
-8.63101
 11
-1.1126
 21
-8.48043
  0
LINE
  8
0
 10
-1.1126
 20
-8.48043
 11
-1.59243
 21
-8.24556
  0
LINE
  8
0
 10
-1.59243
 20
-8.24556
 11
-2.05643
 21
-7.92875
  0
LINE
  8
0
 10
-2.05643
 20
-7.92875
 11
-2.5
 21
-7.53314
  0
LINE
  8
0
 10
-2.5
 20
-7.53314
 11
-2.91872
 21
-7.06266
  0
LINE
  8
0
 10
-2.91872
 20
-7.06266
 11
-3.30843
 21
-6.52199
  0
LINE
  8
0
 10
-3.30843
 20
-6.52199
 11
-3.66526
 21
-5.9165
  0
LINE
  8
0
 10
-3.66526
 20
-5.9165
 11
-3.98566
 21
-5.2522
  0
LINE
  8
0
 10
-3.98566
 20
-5.2522
 11
-4.21232
 21
-4.67385
  0
LINE
  8
0
 10
-4.21232
 20
-4.67385
 11
-5.44035
 21
-5.90732
  0
LINE
  8
0
 10
-5.44035
 20
-5.90732
 11
-6.12044
 21
-6.59041
  0
LINE
  8
0
 10
-6.12044
 20
-6.59041
 11
-6.59214
 21
-7.06419
  0
LINE
  8
0
 10
-6.59214
 20
-7.06419
 11
-6.86857
 21
-7.34185
  0
LINE
  8
0
 10
-6.86857
 20
-7.34185
 11
-6.92149
 21
-7.39499
  0
LINE
  8
0
 10
-6.92149
 20
-7.39499
 11
-6.93334
 21
-7.38319
  0
LINE
  8
0
 10
-6.93334
 20
-7.38319
 11
-7.36449
 21
-6.9541
  0
LINE
  8
0
 10
-5.2459
 20
-8.72952
 11
-5.0821
 21
-8.58203
  0
LINE
  8
0
 10
-5.0821
 20
-8.58203
 11
-4.89121
 21
-8.69224
  0
LINE
  8
0
 10
-4.89121
 20
-8.69224
 11
-4.93704
 21
-8.90785
  0
LINE
  8
0
 10
-4.93704
 20
-8.90785
 11
-5.15625
 21
-8.93089
  0
LINE
  8
0
 10
-5.15625
 20
-8.93089
 11
-5.2459
 21
-8.72952
  0
LINE
  8
0
 10
-5.2459
 20
8.72952
 11
-5.15625
 21
8.93089
  0
LINE
  8
0
 10
-5.15625
 20
8.93089
 11
-4.93704
 21
8.90785
  0
LINE
  8
0
 10
-4.93704
 20
8.90785
 11
-4.89121
 21
8.69224
  0
LINE
  8
0
 10
-4.89121
 20
8.69224
 11
-5.0821
 21
8.58203
  0
LINE
  8
0
 10
-5.0821
 20
8.58203
 11
-5.2459
 21
8.72952
  0
LINE
  8
0
 10
-0.178323
 20
-10.1829
 11
-0.110209
 21
-9.97331
  0
LINE
  8
0
 10
-0.110209
 20
-9.97331
 11
0.110209
 21
-9.97331
  0
LINE
  8
0
 10
0.110209
 20
-9.97331
 11
0.178323
 21
-10.1829
  0
LINE
  8
0
 10
0.178323
 20
-10.1829
 11
0
 21
-10.3125
  0
LINE
  8
0
 10
0
 20
-10.3125
 11
-0.178323
 21
-10.1829
  0
LINE
  8
0
 10
-0.178323
 20
10.1829
 11
0
 21
10.3125
  0
LINE
  8
0
 10
0
 20
10.3125
 11
0.178323
 21
10.1829
  0
LINE
  8
0
 10
0.178323
 20
10.1829
 11
0.110209
 21
9.97331
  0
LINE
  8
0
 10
0.110209
 20
9.97331
 11
-0.110209
 21
9.97331
  0
LINE
  8
0
 10
-0.110209
 20
9.97331
 11
-0.178323
 21
10.1829
  0
LINE
  8
0
 10
4.89121
 20
-8.69224
 11
5.0821
 21
-8.58203
  0
LINE
  8
0
 10
5.0821
 20
-8.58203
 11
5.2459
 21
-8.72952
  0
LINE
  8
0
 10
5.2459
 20
-8.72952
 11
5.15625
 21
-8.93089
  0
LINE
  8
0
 10
5.15625
 20
-8.93089
 11
4.93704
 21
-8.90785
  0
LINE
  8
0
 10
4.93704
 20
-8.90785
 11
4.89121
 21
-8.69224
  0
LINE
  8
0
 10
4.89121
 20
8.69224
 11
4.93704
 21
8.90785
  0
LINE
  8
0
 10
4.93704
 20
8.90785
 11
5.15625
 21
8.93089
  0
LINE
  8
0
 10
5.15625
 20
8.93089
 11
5.2459
 21
8.72952
  0
LINE
  8
0
 10
5.2459
 20
8.72952
 11
5.0821
 21
8.58203
  0
LINE
  8
0
 10
5.0821
 20
8.58203
 11
4.89121
 21
8.69224
  0
LINE
  8
0
 10
8.58203
 20
-5.0821
 11
8.69224
 21
-4.89121
  0
LINE
  8
0
 10
8.69224
 20
-4.89121
 11
8.90785
 21
-4.93704
  0
LINE
  8
0
 10
8.90785
 20
-4.93704
 11
8.93089
 21
-5.15625
  0
LINE
  8
0
 10
8.93089
 20
-5.15625
 11
8.72952
 21
-5.2459
  0
LINE
  8
0
 10
8.72952
 20
-5.2459
 11
8.58203
 21
-5.0821
  0
LINE
  8
0
 10
8.58203
 20
5.0821
 11
8.72952
 21
5.2459
  0
LINE
  8
0
 10
8.72952
 20
5.2459
 11
8.93089
 21
5.15625
  0
LINE
  8
0
 10
8.93089
 20
5.15625
 11
8.90785
 21
4.93704
  0
LINE
  8
0
 10
8.90785
 20
4.93704
 11
8.69224
 21
4.89121
  0
LINE
  8
0
 10
8.69224
 20
4.89121
 11
8.58203
 21
5.0821
  0
LINE
  8
0
 10
9.97331
 20
-0.110209
 11
9.97331
 21
0.110209
  0
LINE
  8
0
 10
9.97331
 20
0.110209
 11
10.1829
 21
0.178323
  0
LINE
  8
0
 10
10.1829
 20
0.178323
 11
10.3125
 21
0
  0
LINE
  8
0
 10
10.3125
 20
0
 11
10.1829
 21
-0.178323
  0
LINE
  8
0
 10
10.1829
 20
-0.178323
 11
9.97331
 21
-0.110209
  0
ENDSEC
  0
SECTION
  2
OBJECTS
  0
DICTIONARY
  0
ENDSEC
  0
EOF
