  0
SECTION
  2
BLOCKS
  0
ENDSEC
  0
SECTION
  2
ENTITIES
  0
LINE
  8
0
 10
-11.9886
 20
0
 11
-11.9725
 21
-0.639669
  0
LINE
  8
0
 10
-11.9725
 20
-0.639669
 11
-11.9256
 21
-1.12522
  0
LINE
  8
0
 10
-11.9256
 20
-1.12522
 11
-11.8598
 21
-1.80512
  0
LINE
  8
0
 10
-11.8598
 20
-1.80512
 11
-11.8504
 21
-1.86872
  0
LINE
  8
0
 10
-11.8504
 20
-1.86872
 11
-11.8437
 21
-1.91414
  0
LINE
  8
0
 10
-11.8437
 20
-1.91414
 11
-11.7792
 21
-2.20621
  0
LINE
  8
0
 10
-11.7792
 20
-2.20621
 11
-11.5652
 21
-3.17404
  0
LINE
  8
0
 10
-11.5652
 20
-3.17404
 11
-11.5212
 21
-3.3225
  0
LINE
  8
0
 10
-11.5212
 20
-3.3225
 11
-11.4636
 21
-3.51654
  0
LINE
  8
0
 10
-11.4636
 20
-3.51654
 11
-11.1494
 21
-4.40979
  0
LINE
  8
0
 10
-11.1494
 20
-4.40979
 11
-11.0209
 21
-4.70706
  0
LINE
  8
0
 10
-11.0209
 20
-4.70706
 11
-10.8661
 21
-5.06524
  0
LINE
  8
0
 10
-10.8661
 20
-5.06524
 11
-10.7182
 21
-5.36514
  0
LINE
  8
0
 10
-10.7182
 20
-5.36514
 11
-10.5964
 21
-5.61197
  0
LINE
  8
0
 10
-10.5964
 20
-5.61197
 11
-10.1302
 21
-6.41446
  0
LINE
  8
0
 10
-10.1302
 20
-6.41446
 11
-9.89791
 21
-6.77145
  0
LINE
  8
0
 10
-9.89791
 20
-6.77145
 11
-9.59742
 21
-7.17265
  0
LINE
  8
0
 10
-9.59742
 20
-7.17265
 11
-9.31177
 21
-7.55405
  0
LINE
  8
0
 10
-9.31177
 20
-7.55405
 11
-9.0413
 21
-7.87939
  0
LINE
  8
0
 10
-9.0413
 20
-7.87939
 11
-8.72055
 21
-8.21897
  0
LINE
  8
0
 10
-8.72055
 20
-8.21897
 11
-8.45875
 21
-8.49613
  0
LINE
  8
0
 10
-8.45875
 20
-8.49613
 11
-8.00815
 21
-8.92736
  0
LINE
  8
0
 10
-8.00815
 20
-8.92736
 11
-7.60746
 21
-9.26706
  0
LINE
  8
0
 10
-7.60746
 20
-9.26706
 11
-7.2649
 21
-9.52941
  0
LINE
  8
0
 10
-7.2649
 20
-9.52941
 11
-6.78154
 21
-9.8996
  0
LINE
  8
0
 10
-6.78154
 20
-9.8996
 11
-6.77019
 21
-9.90739
  0
LINE
  8
0
 10
-6.77019
 20
-9.90739
 11
-6.23965
 21
-10.2318
  0
LINE
  8
0
 10
-6.23965
 20
-10.2318
 11
-5.97451
 21
-10.3939
  0
LINE
  8
0
 10
-5.97451
 20
-10.3939
 11
-5.2194
 21
-10.8049
  0
LINE
  8
0
 10
-5.2194
 20
-10.8049
 11
-5.21309
 21
-10.8083
  0
LINE
  8
0
 10
-5.21309
 20
-10.8083
 11
-5.21074
 21
-10.8094
  0
LINE
  8
0
 10
-5.21074
 20
-10.8094
 11
-5.2053
 21
-10.812
  0
LINE
  8
0
 10
-5.2053
 20
-10.812
 11
-4.47653
 21
-11.1222
  0
LINE
  8
0
 10
-4.47653
 20
-11.1222
 11
-4.11015
 21
-11.2571
  0
LINE
  8
0
 10
-4.11015
 20
-11.2571
 11
-3.77662
 21
-11.3799
  0
LINE
  8
0
 10
-3.77662
 20
-11.3799
 11
-3.59784
 21
-11.4356
  0
LINE
  8
0
 10
-3.59784
 20
-11.4356
 11
-3.10617
 21
-11.5885
  0
LINE
  8
0
 10
-3.10617
 20
-11.5885
 11
-2.9259
 21
-11.6344
  0
LINE
  8
0
 10
-2.9259
 20
-11.6344
 11
-2.52628
 21
-11.7244
  0
LINE
  8
0
 10
-2.52628
 20
-11.7244
 11
-2.45621
 21
-11.7402
  0
LINE
  8
0
 10
-2.45621
 20
-11.7402
 11
-2.35973
 21
-11.7571
  0
LINE
  8
0
 10
-2.35973
 20
-11.7571
 11
-1.82525
 21
-11.8508
  0
LINE
  8
0
 10
-1.82525
 20
-11.8508
 11
-1.4146
 21
-11.9022
  0
LINE
  8
0
 10
-1.4146
 20
-11.9022
 11
-1.20895
 21
-11.9279
  0
LINE
  8
0
 10
-1.20895
 20
-11.9279
 11
-0.847745
 21
-11.9551
  0
LINE
  8
0
 10
-0.847745
 20
-11.9551
 11
-0.60214
 21
-11.9735
  0
LINE
  8
0
 10
-0.60214
 20
-11.9735
 11
-0.266168
 21
-11.9819
  0
LINE
  8
0
 10
-0.266168
 20
-11.9819
 11
0
 21
-11.9886
  0
LINE
  8
0
 10
0
 20
-11.9886
 11
0.266168
 21
-11.9819
  0
LINE
  8
0
 10
0.266168
 20
-11.9819
 11
0.60214
 21
-11.9735
  0
LINE
  8
0
 10
0.60214
 20
-11.9735
 11
0.847745
 21
-11.9551
  0
LINE
  8
0
 10
0.847745
 20
-11.9551
 11
1.20895
 21
-11.9279
  0
LINE
  8
0
 10
1.20895
 20
-11.9279
 11
1.4146
 21
-11.9022
  0
LINE
  8
0
 10
1.4146
 20
-11.9022
 11
1.82525
 21
-11.8508
  0
LINE
  8
0
 10
1.82525
 20
-11.8508
 11
2.35973
 21
-11.7571
  0
LINE
  8
0
 10
2.35973
 20
-11.7571
 11
2.45621
 21
-11.7402
  0
LINE
  8
0
 10
2.45621
 20
-11.7402
 11
2.52628
 21
-11.7244
  0
LINE
  8
0
 10
2.52628
 20
-11.7244
 11
2.9259
 21
-11.6344
  0
LINE
  8
0
 10
2.9259
 20
-11.6344
 11
3.10617
 21
-11.5885
  0
LINE
  8
0
 10
3.10617
 20
-11.5885
 11
3.59784
 21
-11.4356
  0
LINE
  8
0
 10
3.59784
 20
-11.4356
 11
3.77662
 21
-11.3799
  0
LINE
  8
0
 10
3.77662
 20
-11.3799
 11
4.11015
 21
-11.2571
  0
LINE
  8
0
 10
4.11015
 20
-11.2571
 11
4.47653
 21
-11.1222
  0
LINE
  8
0
 10
4.47653
 20
-11.1222
 11
5.2053
 21
-10.812
  0
LINE
  8
0
 10
5.2053
 20
-10.812
 11
5.21074
 21
-10.8094
  0
LINE
  8
0
 10
5.21074
 20
-10.8094
 11
5.21309
 21
-10.8083
  0
LINE
  8
0
 10
5.21309
 20
-10.8083
 11
5.2194
 21
-10.8049
  0
LINE
  8
0
 10
5.2194
 20
-10.8049
 11
5.97451
 21
-10.3939
  0
LINE
  8
0
 10
5.97451
 20
-10.3939
 11
6.23965
 21
-10.2318
  0
LINE
  8
0
 10
6.23965
 20
-10.2318
 11
6.77019
 21
-9.90739
  0
LINE
  8
0
 10
6.77019
 20
-9.90739
 11
6.78154
 21
-9.8996
  0
LINE
  8
0
 10
6.78154
 20
-9.8996
 11
7.2649
 21
-9.52941
  0
LINE
  8
0
 10
7.2649
 20
-9.52941
 11
7.60746
 21
-9.26706
  0
LINE
  8
0
 10
7.60746
 20
-9.26706
 11
8.00815
 21
-8.92736
  0
LINE
  8
0
 10
8.00815
 20
-8.92736
 11
8.23293
 21
-8.71224
  0
LINE
  8
0
 10
8.23293
 20
-8.71224
 11
7.14195
 21
-7.61643
  0
LINE
  8
0
 10
7.14195
 20
-7.61643
 11
7.58495
 21
-7.17554
  0
LINE
  8
0
 10
7.58495
 20
-7.17554
 11
8.67344
 21
-8.26884
  0
LINE
  8
0
 10
8.67344
 20
-8.26884
 11
8.72055
 21
-8.21897
  0
LINE
  8
0
 10
8.72055
 20
-8.21897
 11
9.0413
 21
-7.87939
  0
LINE
  8
0
 10
9.0413
 20
-7.87939
 11
9.31177
 21
-7.55405
  0
LINE
  8
0
 10
9.31177
 20
-7.55405
 11
9.59742
 21
-7.17265
  0
LINE
  8
0
 10
9.59742
 20
-7.17265
 11
9.89791
 21
-6.77145
  0
LINE
  8
0
 10
9.89791
 20
-6.77145
 11
10.1302
 21
-6.41446
  0
LINE
  8
0
 10
10.1302
 20
-6.41446
 11
10.5964
 21
-5.61197
  0
LINE
  8
0
 10
10.5964
 20
-5.61197
 11
10.7182
 21
-5.36514
  0
LINE
  8
0
 10
10.7182
 20
-5.36514
 11
10.8661
 21
-5.06524
  0
LINE
  8
0
 10
10.8661
 20
-5.06524
 11
11.0209
 21
-4.70706
  0
LINE
  8
0
 10
11.0209
 20
-4.70706
 11
11.1494
 21
-4.40979
  0
LINE
  8
0
 10
11.1494
 20
-4.40979
 11
11.4636
 21
-3.51654
  0
LINE
  8
0
 10
11.4636
 20
-3.51654
 11
11.5212
 21
-3.3225
  0
LINE
  8
0
 10
11.5212
 20
-3.3225
 11
11.5652
 21
-3.17404
  0
LINE
  8
0
 10
11.5652
 20
-3.17404
 11
11.7792
 21
-2.20621
  0
LINE
  8
0
 10
11.7792
 20
-2.20621
 11
11.8437
 21
-1.91414
  0
LINE
  8
0
 10
11.8437
 20
-1.91414
 11
11.8504
 21
-1.86872
  0
LINE
  8
0
 10
11.8504
 20
-1.86872
 11
11.8598
 21
-1.80512
  0
LINE
  8
0
 10
11.8598
 20
-1.80512
 11
11.9256
 21
-1.12522
  0
LINE
  8
0
 10
11.9256
 20
-1.12522
 11
11.9725
 21
-0.639669
  0
LINE
  8
0
 10
11.9725
 20
-0.639669
 11
11.9886
 21
0
  0
LINE
  8
0
 10
11.9886
 20
0
 11
11.9725
 21
0.639668
  0
LINE
  8
0
 10
11.9725
 20
0.639668
 11
11.9256
 21
1.12522
  0
LINE
  8
0
 10
11.9256
 20
1.12522
 11
11.8598
 21
1.80512
  0
LINE
  8
0
 10
11.8598
 20
1.80512
 11
11.8504
 21
1.86872
  0
LINE
  8
0
 10
11.8504
 20
1.86872
 11
11.8437
 21
1.91414
  0
LINE
  8
0
 10
11.8437
 20
1.91414
 11
11.7792
 21
2.20621
  0
LINE
  8
0
 10
11.7792
 20
2.20621
 11
11.5652
 21
3.17404
  0
LINE
  8
0
 10
11.5652
 20
3.17404
 11
11.5212
 21
3.3225
  0
LINE
  8
0
 10
11.5212
 20
3.3225
 11
11.4636
 21
3.51654
  0
LINE
  8
0
 10
11.4636
 20
3.51654
 11
11.1494
 21
4.40979
  0
LINE
  8
0
 10
11.1494
 20
4.40979
 11
11.0209
 21
4.70706
  0
LINE
  8
0
 10
11.0209
 20
4.70706
 11
10.8661
 21
5.06524
  0
LINE
  8
0
 10
10.8661
 20
5.06524
 11
10.7182
 21
5.36514
  0
LINE
  8
0
 10
10.7182
 20
5.36514
 11
10.5964
 21
5.61197
  0
LINE
  8
0
 10
10.5964
 20
5.61197
 11
10.1302
 21
6.41446
  0
LINE
  8
0
 10
10.1302
 20
6.41446
 11
9.89791
 21
6.77145
  0
LINE
  8
0
 10
9.89791
 20
6.77145
 11
9.59742
 21
7.17265
  0
LINE
  8
0
 10
9.59742
 20
7.17265
 11
9.31177
 21
7.55405
  0
LINE
  8
0
 10
9.31177
 20
7.55405
 11
9.0413
 21
7.87938
  0
LINE
  8
0
 10
9.0413
 20
7.87938
 11
8.72055
 21
8.21897
  0
LINE
  8
0
 10
8.72055
 20
8.21897
 11
8.45875
 21
8.49613
  0
LINE
  8
0
 10
8.45875
 20
8.49613
 11
8.00815
 21
8.92736
  0
LINE
  8
0
 10
8.00815
 20
8.92736
 11
7.60746
 21
9.26706
  0
LINE
  8
0
 10
7.60746
 20
9.26706
 11
7.2649
 21
9.52941
  0
LINE
  8
0
 10
7.2649
 20
9.52941
 11
6.78154
 21
9.8996
  0
LINE
  8
0
 10
6.78154
 20
9.8996
 11
6.77019
 21
9.90739
  0
LINE
  8
0
 10
6.77019
 20
9.90739
 11
6.23965
 21
10.2318
  0
LINE
  8
0
 10
6.23965
 20
10.2318
 11
5.97451
 21
10.3939
  0
LINE
  8
0
 10
5.97451
 20
10.3939
 11
5.2194
 21
10.8049
  0
LINE
  8
0
 10
5.2194
 20
10.8049
 11
5.21309
 21
10.8083
  0
LINE
  8
0
 10
5.21309
 20
10.8083
 11
5.21074
 21
10.8094
  0
LINE
  8
0
 10
5.21074
 20
10.8094
 11
5.2053
 21
10.812
  0
LINE
  8
0
 10
5.2053
 20
10.812
 11
4.47653
 21
11.1222
  0
LINE
  8
0
 10
4.47653
 20
11.1222
 11
4.11014
 21
11.2571
  0
LINE
  8
0
 10
4.11014
 20
11.2571
 11
3.77662
 21
11.3799
  0
LINE
  8
0
 10
3.77662
 20
11.3799
 11
3.59784
 21
11.4356
  0
LINE
  8
0
 10
3.59784
 20
11.4356
 11
3.10617
 21
11.5885
  0
LINE
  8
0
 10
3.10617
 20
11.5885
 11
2.9259
 21
11.6344
  0
LINE
  8
0
 10
2.9259
 20
11.6344
 11
2.52628
 21
11.7244
  0
LINE
  8
0
 10
2.52628
 20
11.7244
 11
2.45621
 21
11.7402
  0
LINE
  8
0
 10
2.45621
 20
11.7402
 11
2.35973
 21
11.7571
  0
LINE
  8
0
 10
2.35973
 20
11.7571
 11
1.82525
 21
11.8508
  0
LINE
  8
0
 10
1.82525
 20
11.8508
 11
1.4146
 21
11.9022
  0
LINE
  8
0
 10
1.4146
 20
11.9022
 11
1.20895
 21
11.9279
  0
LINE
  8
0
 10
1.20895
 20
11.9279
 11
0.847746
 21
11.9551
  0
LINE
  8
0
 10
0.847746
 20
11.9551
 11
0.60214
 21
11.9735
  0
LINE
  8
0
 10
0.60214
 20
11.9735
 11
0.266168
 21
11.9819
  0
LINE
  8
0
 10
0.266168
 20
11.9819
 11
0
 21
11.9886
  0
LINE
  8
0
 10
0
 20
11.9886
 11
-0.266168
 21
11.9819
  0
LINE
  8
0
 10
-0.266168
 20
11.9819
 11
-0.60214
 21
11.9735
  0
LINE
  8
0
 10
-0.60214
 20
11.9735
 11
-0.847746
 21
11.9551
  0
LINE
  8
0
 10
-0.847746
 20
11.9551
 11
-1.20895
 21
11.9279
  0
LINE
  8
0
 10
-1.20895
 20
11.9279
 11
-1.4146
 21
11.9022
  0
LINE
  8
0
 10
-1.4146
 20
11.9022
 11
-1.82525
 21
11.8508
  0
LINE
  8
0
 10
-1.82525
 20
11.8508
 11
-2.35973
 21
11.7571
  0
LINE
  8
0
 10
-2.35973
 20
11.7571
 11
-2.45621
 21
11.7402
  0
LINE
  8
0
 10
-2.45621
 20
11.7402
 11
-2.52628
 21
11.7244
  0
LINE
  8
0
 10
-2.52628
 20
11.7244
 11
-2.9259
 21
11.6344
  0
LINE
  8
0
 10
-2.9259
 20
11.6344
 11
-3.10617
 21
11.5885
  0
LINE
  8
0
 10
-3.10617
 20
11.5885
 11
-3.59784
 21
11.4356
  0
LINE
  8
0
 10
-3.59784
 20
11.4356
 11
-3.77662
 21
11.3799
  0
LINE
  8
0
 10
-3.77662
 20
11.3799
 11
-4.11014
 21
11.2571
  0
LINE
  8
0
 10
-4.11014
 20
11.2571
 11
-4.47653
 21
11.1222
  0
LINE
  8
0
 10
-4.47653
 20
11.1222
 11
-5.2053
 21
10.812
  0
LINE
  8
0
 10
-5.2053
 20
10.812
 11
-5.21074
 21
10.8094
  0
LINE
  8
0
 10
-5.21074
 20
10.8094
 11
-5.21309
 21
10.8083
  0
LINE
  8
0
 10
-5.21309
 20
10.8083
 11
-5.2194
 21
10.8049
  0
LINE
  8
0
 10
-5.2194
 20
10.8049
 11
-5.97451
 21
10.3939
  0
LINE
  8
0
 10
-5.97451
 20
10.3939
 11
-6.23965
 21
10.2318
  0
LINE
  8
0
 10
-6.23965
 20
10.2318
 11
-6.77019
 21
9.90739
  0
LINE
  8
0
 10
-6.77019
 20
9.90739
 11
-6.78154
 21
9.8996
  0
LINE
  8
0
 10
-6.78154
 20
9.8996
 11
-7.2649
 21
9.52941
  0
LINE
  8
0
 10
-7.2649
 20
9.52941
 11
-7.60746
 21
9.26706
  0
LINE
  8
0
 10
-7.60746
 20
9.26706
 11
-8.00815
 21
8.92736
  0
LINE
  8
0
 10
-8.00815
 20
8.92736
 11
-8.23293
 21
8.71224
  0
LINE
  8
0
 10
-8.23293
 20
8.71224
 11
-7.14195
 21
7.61643
  0
LINE
  8
0
 10
-7.14195
 20
7.61643
 11
-7.58495
 21
7.17554
  0
LINE
  8
0
 10
-7.58495
 20
7.17554
 11
-8.67344
 21
8.26884
  0
LINE
  8
0
 10
-8.67344
 20
8.26884
 11
-8.72055
 21
8.21897
  0
LINE
  8
0
 10
-8.72055
 20
8.21897
 11
-9.0413
 21
7.87938
  0
LINE
  8
0
 10
-9.0413
 20
7.87938
 11
-9.31177
 21
7.55405
  0
LINE
  8
0
 10
-9.31177
 20
7.55405
 11
-9.59742
 21
7.17265
  0
LINE
  8
0
 10
-9.59742
 20
7.17265
 11
-9.89791
 21
6.77145
  0
LINE
  8
0
 10
-9.89791
 20
6.77145
 11
-10.1302
 21
6.41446
  0
LINE
  8
0
 10
-10.1302
 20
6.41446
 11
-10.5964
 21
5.61197
  0
LINE
  8
0
 10
-10.5964
 20
5.61197
 11
-10.7182
 21
5.36514
  0
LINE
  8
0
 10
-10.7182
 20
5.36514
 11
-10.8661
 21
5.06524
  0
LINE
  8
0
 10
-10.8661
 20
5.06524
 11
-11.0209
 21
4.70706
  0
LINE
  8
0
 10
-11.0209
 20
4.70706
 11
-11.1494
 21
4.40979
  0
LINE
  8
0
 10
-11.1494
 20
4.40979
 11
-11.4636
 21
3.51654
  0
LINE
  8
0
 10
-11.4636
 20
3.51654
 11
-11.5212
 21
3.3225
  0
LINE
  8
0
 10
-11.5212
 20
3.3225
 11
-11.5652
 21
3.17404
  0
LINE
  8
0
 10
-11.5652
 20
3.17404
 11
-11.7792
 21
2.20621
  0
LINE
  8
0
 10
-11.7792
 20
2.20621
 11
-11.8437
 21
1.91414
  0
LINE
  8
0
 10
-11.8437
 20
1.91414
 11
-11.8504
 21
1.86872
  0
LINE
  8
0
 10
-11.8504
 20
1.86872
 11
-11.8598
 21
1.80512
  0
LINE
  8
0
 10
-11.8598
 20
1.80512
 11
-11.9256
 21
1.12522
  0
LINE
  8
0
 10
-11.9256
 20
1.12522
 11
-11.9725
 21
0.639668
  0
LINE
  8
0
 10
-11.9725
 20
0.639668
 11
-11.9886
 21
0
  0
LINE
  8
0
 10
-10.3125
 20
0
 11
-10.1829
 21
0.178323
  0
LINE
  8
0
 10
-10.1829
 20
0.178323
 11
-9.97331
 21
0.110209
  0
LINE
  8
0
 10
-9.97331
 20
0.110209
 11
-9.97331
 21
-0.110209
  0
LINE
  8
0
 10
-9.97331
 20
-0.110209
 11
-10.1829
 21
-0.178323
  0
LINE
  8
0
 10
-10.1829
 20
-0.178323
 11
-10.3125
 21
0
  0
LINE
  8
0
 10
-8.93089
 20
-5.15625
 11
-8.90785
 21
-4.93704
  0
LINE
  8
0
 10
-8.90785
 20
-4.93704
 11
-8.69224
 21
-4.89121
  0
LINE
  8
0
 10
-8.69224
 20
-4.89121
 11
-8.58203
 21
-5.0821
  0
LINE
  8
0
 10
-8.58203
 20
-5.0821
 11
-8.72952
 21
-5.2459
  0
LINE
  8
0
 10
-8.72952
 20
-5.2459
 11
-8.93089
 21
-5.15625
  0
LINE
  8
0
 10
-8.93089
 20
5.15625
 11
-8.72952
 21
5.2459
  0
LINE
  8
0
 10
-8.72952
 20
5.2459
 11
-8.58203
 21
5.0821
  0
LINE
  8
0
 10
-8.58203
 20
5.0821
 11
-8.69224
 21
4.89121
  0
LINE
  8
0
 10
-8.69224
 20
4.89121
 11
-8.90785
 21
4.93704
  0
LINE
  8
0
 10
-8.90785
 20
4.93704
 11
-8.93089
 21
5.15625
  0
LINE
  8
0
 10
-8.24215
 20
0
 11
-8.23111
 21
0.439772
  0
LINE
  8
0
 10
-8.23111
 20
0.439772
 11
-8.19883
 21
0.773592
  0
LINE
  8
0
 10
-8.19883
 20
0.773592
 11
-8.15364
 21
1.24102
  0
LINE
  8
0
 10
-8.15364
 20
1.24102
 11
-8.14256
 21
1.31597
  0
LINE
  8
0
 10
-8.14256
 20
1.31597
 11
-8.03804
 21
1.78879
  0
LINE
  8
0
 10
-8.03804
 20
1.78879
 11
-7.95108
 21
2.18215
  0
LINE
  8
0
 10
-7.95108
 20
2.18215
 11
-7.88123
 21
2.41762
  0
LINE
  8
0
 10
-7.88123
 20
2.41762
 11
-7.75841
 21
2.76674
  0
LINE
  8
0
 10
-7.75841
 20
2.76674
 11
-7.66519
 21
3.03173
  0
LINE
  8
0
 10
-7.66519
 20
3.03173
 11
-7.47043
 21
3.48236
  0
LINE
  8
0
 10
-7.47043
 20
3.48236
 11
-7.36873
 21
3.68854
  0
LINE
  8
0
 10
-7.36873
 20
3.68854
 11
-7.28503
 21
3.85823
  0
LINE
  8
0
 10
-7.28503
 20
3.85823
 11
-6.96452
 21
4.40994
  0
LINE
  8
0
 10
-6.96452
 20
4.40994
 11
-6.80482
 21
4.65537
  0
LINE
  8
0
 10
-6.80482
 20
4.65537
 11
-6.59823
 21
4.9312
  0
LINE
  8
0
 10
-6.59823
 20
4.9312
 11
-6.40184
 21
5.19341
  0
LINE
  8
0
 10
-6.40184
 20
5.19341
 11
-6.31077
 21
5.30296
  0
LINE
  8
0
 10
-6.31077
 20
5.30296
 11
-6.2159
 21
5.41708
  0
LINE
  8
0
 10
-6.2159
 20
5.41708
 11
-5.81539
 21
5.84109
  0
LINE
  8
0
 10
-5.81539
 20
5.84109
 11
-5.5056
 21
6.13756
  0
LINE
  8
0
 10
-5.5056
 20
6.13756
 11
-5.23013
 21
6.3711
  0
LINE
  8
0
 10
-5.23013
 20
6.3711
 11
-4.67599
 21
6.7955
  0
LINE
  8
0
 10
-4.67599
 20
6.7955
 11
-4.66231
 21
6.80597
  0
LINE
  8
0
 10
-4.66231
 20
6.80597
 11
-4.65934
 21
6.80801
  0
LINE
  8
0
 10
-4.65934
 20
6.80801
 11
-4.65451
 21
6.81133
  0
LINE
  8
0
 10
-4.65451
 20
6.81133
 11
-4.28976
 21
7.03434
  0
LINE
  8
0
 10
-4.28976
 20
7.03434
 11
-4.10748
 21
7.14579
  0
LINE
  8
0
 10
-4.10748
 20
7.14579
 11
-3.58833
 21
7.42834
  0
LINE
  8
0
 10
-3.58833
 20
7.42834
 11
-3.584
 21
7.4307
  0
LINE
  8
0
 10
-3.584
 20
7.4307
 11
-3.57864
 21
7.43326
  0
LINE
  8
0
 10
-3.57864
 20
7.43326
 11
-3.2057
 21
7.59199
  0
LINE
  8
0
 10
-3.2057
 20
7.59199
 11
-3.07762
 21
7.64651
  0
LINE
  8
0
 10
-3.07762
 20
7.64651
 11
-2.82572
 21
7.73927
  0
LINE
  8
0
 10
-2.82572
 20
7.73927
 11
-2.59643
 21
7.82371
  0
LINE
  8
0
 10
-2.59643
 20
7.82371
 11
-2.47352
 21
7.86195
  0
LINE
  8
0
 10
-2.47352
 20
7.86195
 11
-2.13549
 21
7.96711
  0
LINE
  8
0
 10
-2.13549
 20
7.96711
 11
-2.11268
 21
7.97291
  0
LINE
  8
0
 10
-2.11268
 20
7.97291
 11
-2.01156
 21
7.99862
  0
LINE
  8
0
 10
-2.01156
 20
7.99862
 11
-1.68864
 21
8.07137
  0
LINE
  8
0
 10
-1.68864
 20
8.07137
 11
-1.35603
 21
8.12967
  0
LINE
  8
0
 10
-1.35603
 20
8.12967
 11
-1.25486
 21
8.1474
  0
LINE
  8
0
 10
-1.25486
 20
8.1474
 11
-0.972537
 21
8.18275
  0
LINE
  8
0
 10
-0.972537
 20
8.18275
 11
-0.831152
 21
8.20045
  0
LINE
  8
0
 10
-0.831152
 20
8.20045
 11
-0.665808
 21
8.21287
  0
LINE
  8
0
 10
-0.665808
 20
8.21287
 11
-0.413971
 21
8.23179
  0
LINE
  8
0
 10
-0.413971
 20
8.23179
 11
-0.182991
 21
8.23757
  0
LINE
  8
0
 10
-0.182991
 20
8.23757
 11
0
 21
8.24216
  0
LINE
  8
0
 10
0
 20
8.24216
 11
0.182991
 21
8.23757
  0
LINE
  8
0
 10
0.182991
 20
8.23757
 11
0.413971
 21
8.23179
  0
LINE
  8
0
 10
0.413971
 20
8.23179
 11
0.665808
 21
8.21287
  0
LINE
  8
0
 10
0.665808
 20
8.21287
 11
0.831152
 21
8.20045
  0
LINE
  8
0
 10
0.831152
 20
8.20045
 11
0.972537
 21
8.18275
  0
LINE
  8
0
 10
0.972537
 20
8.18275
 11
1.25486
 21
8.1474
  0
LINE
  8
0
 10
1.25486
 20
8.1474
 11
1.35603
 21
8.12967
  0
LINE
  8
0
 10
1.35603
 20
8.12967
 11
1.68864
 21
8.07137
  0
LINE
  8
0
 10
1.68864
 20
8.07137
 11
2.01156
 21
7.99862
  0
LINE
  8
0
 10
2.01156
 20
7.99862
 11
2.11268
 21
7.97291
  0
LINE
  8
0
 10
2.11268
 20
7.97291
 11
2.13549
 21
7.96711
  0
LINE
  8
0
 10
2.13549
 20
7.96711
 11
2.47352
 21
7.86195
  0
LINE
  8
0
 10
2.47352
 20
7.86195
 11
2.59643
 21
7.82371
  0
LINE
  8
0
 10
2.59643
 20
7.82371
 11
2.82572
 21
7.73927
  0
LINE
  8
0
 10
2.82572
 20
7.73927
 11
3.07762
 21
7.64651
  0
LINE
  8
0
 10
3.07762
 20
7.64651
 11
3.2057
 21
7.59199
  0
LINE
  8
0
 10
3.2057
 20
7.59199
 11
3.57864
 21
7.43326
  0
LINE
  8
0
 10
3.57864
 20
7.43326
 11
3.584
 21
7.4307
  0
LINE
  8
0
 10
3.584
 20
7.4307
 11
3.58833
 21
7.42834
  0
LINE
  8
0
 10
3.58833
 20
7.42834
 11
4.10748
 21
7.14579
  0
LINE
  8
0
 10
4.10748
 20
7.14579
 11
4.28976
 21
7.03434
  0
LINE
  8
0
 10
4.28976
 20
7.03434
 11
4.65451
 21
6.81133
  0
LINE
  8
0
 10
4.65451
 20
6.81133
 11
4.65934
 21
6.80801
  0
LINE
  8
0
 10
4.65934
 20
6.80801
 11
4.66231
 21
6.80597
  0
LINE
  8
0
 10
4.66231
 20
6.80597
 11
4.67599
 21
6.7955
  0
LINE
  8
0
 10
4.67599
 20
6.7955
 11
5.23013
 21
6.3711
  0
LINE
  8
0
 10
5.23013
 20
6.3711
 11
5.5056
 21
6.13756
  0
LINE
  8
0
 10
5.5056
 20
6.13756
 11
5.58957
 21
6.0572
  0
LINE
  8
0
 10
5.58957
 20
6.0572
 11
6.13688
 21
6.60692
  0
LINE
  8
0
 10
6.13688
 20
6.60692
 11
6.87502
 21
7.34833
  0
LINE
  8
0
 10
6.87502
 20
7.34833
 11
6.96866
 21
7.44237
  0
LINE
  8
0
 10
6.96866
 20
7.44237
 11
7.02795
 21
7.50192
  0
LINE
  8
0
 10
7.02795
 20
7.50192
 11
7.11468
 21
7.58904
  0
LINE
  8
0
 10
7.11468
 20
7.58904
 11
7.14195
 21
7.61643
  0
LINE
  8
0
 10
7.14195
 20
7.61643
 11
7.15378
 21
7.60465
  0
LINE
  8
0
 10
7.15378
 20
7.60465
 11
7.58495
 21
7.17554
  0
LINE
  8
0
 10
7.58495
 20
7.17554
 11
7.55759
 21
7.14806
  0
LINE
  8
0
 10
7.55759
 20
7.14806
 11
7.47507
 21
7.06518
  0
LINE
  8
0
 10
7.47507
 20
7.06518
 11
7.35988
 21
6.94948
  0
LINE
  8
0
 10
7.35988
 20
6.94948
 11
7.19535
 21
6.78422
  0
LINE
  8
0
 10
7.19535
 20
6.78422
 11
6.80884
 21
6.396
  0
LINE
  8
0
 10
6.80884
 20
6.396
 11
6.20741
 21
5.79191
  0
LINE
  8
0
 10
6.20741
 20
5.79191
 11
6.03008
 21
5.6138
  0
LINE
  8
0
 10
6.03008
 20
5.6138
 11
6.2159
 21
5.41708
  0
LINE
  8
0
 10
6.2159
 20
5.41708
 11
6.31077
 21
5.30296
  0
LINE
  8
0
 10
6.31077
 20
5.30296
 11
6.40184
 21
5.19341
  0
LINE
  8
0
 10
6.40184
 20
5.19341
 11
6.59823
 21
4.9312
  0
LINE
  8
0
 10
6.59823
 20
4.9312
 11
6.80482
 21
4.65537
  0
LINE
  8
0
 10
6.80482
 20
4.65537
 11
6.96452
 21
4.40994
  0
LINE
  8
0
 10
6.96452
 20
4.40994
 11
7.28503
 21
3.85823
  0
LINE
  8
0
 10
7.28503
 20
3.85823
 11
7.36873
 21
3.68854
  0
LINE
  8
0
 10
7.36873
 20
3.68854
 11
7.47043
 21
3.48236
  0
LINE
  8
0
 10
7.47043
 20
3.48236
 11
7.66519
 21
3.03173
  0
LINE
  8
0
 10
7.66519
 20
3.03173
 11
7.75841
 21
2.76674
  0
LINE
  8
0
 10
7.75841
 20
2.76674
 11
7.88123
 21
2.41762
  0
LINE
  8
0
 10
7.88123
 20
2.41762
 11
7.95108
 21
2.18215
  0
LINE
  8
0
 10
7.95108
 20
2.18215
 11
8.03804
 21
1.78879
  0
LINE
  8
0
 10
8.03804
 20
1.78879
 11
8.14256
 21
1.31597
  0
LINE
  8
0
 10
8.14256
 20
1.31597
 11
8.15364
 21
1.24102
  0
LINE
  8
0
 10
8.15364
 20
1.24102
 11
8.19883
 21
0.773592
  0
LINE
  8
0
 10
8.19883
 20
0.773592
 11
8.23111
 21
0.439772
  0
LINE
  8
0
 10
8.23111
 20
0.439772
 11
8.24215
 21
0
  0
LINE
  8
0
 10
8.24215
 20
0
 11
8.23111
 21
-0.439773
  0
LINE
  8
0
 10
8.23111
 20
-0.439773
 11
8.19883
 21
-0.773592
  0
LINE
  8
0
 10
8.19883
 20
-0.773592
 11
8.15364
 21
-1.24102
  0
LINE
  8
0
 10
8.15364
 20
-1.24102
 11
8.14256
 21
-1.31597
  0
LINE
  8
0
 10
8.14256
 20
-1.31597
 11
8.03804
 21
-1.78879
  0
LINE
  8
0
 10
8.03804
 20
-1.78879
 11
7.95108
 21
-2.18215
  0
LINE
  8
0
 10
7.95108
 20
-2.18215
 11
7.88123
 21
-2.41762
  0
LINE
  8
0
 10
7.88123
 20
-2.41762
 11
7.75841
 21
-2.76674
  0
LINE
  8
0
 10
7.75841
 20
-2.76674
 11
7.66519
 21
-3.03173
  0
LINE
  8
0
 10
7.66519
 20
-3.03173
 11
7.47043
 21
-3.48236
  0
LINE
  8
0
 10
7.47043
 20
-3.48236
 11
7.36873
 21
-3.68854
  0
LINE
  8
0
 10
7.36873
 20
-3.68854
 11
7.28503
 21
-3.85823
  0
LINE
  8
0
 10
7.28503
 20
-3.85823
 11
6.96452
 21
-4.40994
  0
LINE
  8
0
 10
6.96452
 20
-4.40994
 11
6.80482
 21
-4.65537
  0
LINE
  8
0
 10
6.80482
 20
-4.65537
 11
6.59823
 21
-4.9312
  0
LINE
  8
0
 10
6.59823
 20
-4.9312
 11
6.40184
 21
-5.19341
  0
LINE
  8
0
 10
6.40184
 20
-5.19341
 11
6.31077
 21
-5.30296
  0
LINE
  8
0
 10
6.31077
 20
-5.30296
 11
6.2159
 21
-5.41708
  0
LINE
  8
0
 10
6.2159
 20
-5.41708
 11
5.81539
 21
-5.84109
  0
LINE
  8
0
 10
5.81539
 20
-5.84109
 11
5.5056
 21
-6.13756
  0
LINE
  8
0
 10
5.5056
 20
-6.13756
 11
5.23013
 21
-6.3711
  0
LINE
  8
0
 10
5.23013
 20
-6.3711
 11
4.67599
 21
-6.7955
  0
LINE
  8
0
 10
4.67599
 20
-6.7955
 11
4.66231
 21
-6.80597
  0
LINE
  8
0
 10
4.66231
 20
-6.80597
 11
4.65934
 21
-6.80801
  0
LINE
  8
0
 10
4.65934
 20
-6.80801
 11
4.65451
 21
-6.81133
  0
LINE
  8
0
 10
4.65451
 20
-6.81133
 11
4.28976
 21
-7.03434
  0
LINE
  8
0
 10
4.28976
 20
-7.03434
 11
4.10748
 21
-7.14579
  0
LINE
  8
0
 10
4.10748
 20
-7.14579
 11
3.58834
 21
-7.42834
  0
LINE
  8
0
 10
3.58834
 20
-7.42834
 11
3.584
 21
-7.4307
  0
LINE
  8
0
 10
3.584
 20
-7.4307
 11
3.57864
 21
-7.43326
  0
LINE
  8
0
 10
3.57864
 20
-7.43326
 11
3.2057
 21
-7.59199
  0
LINE
  8
0
 10
3.2057
 20
-7.59199
 11
3.07762
 21
-7.64651
  0
LINE
  8
0
 10
3.07762
 20
-7.64651
 11
2.82573
 21
-7.73927
  0
LINE
  8
0
 10
2.82573
 20
-7.73927
 11
2.59643
 21
-7.82371
  0
LINE
  8
0
 10
2.59643
 20
-7.82371
 11
2.47352
 21
-7.86195
  0
LINE
  8
0
 10
2.47352
 20
-7.86195
 11
2.13549
 21
-7.96711
  0
LINE
  8
0
 10
2.13549
 20
-7.96711
 11
2.11268
 21
-7.97291
  0
LINE
  8
0
 10
2.11268
 20
-7.97291
 11
2.01155
 21
-7.99862
  0
LINE
  8
0
 10
2.01155
 20
-7.99862
 11
1.68864
 21
-8.07137
  0
LINE
  8
0
 10
1.68864
 20
-8.07137
 11
1.35603
 21
-8.12967
  0
LINE
  8
0
 10
1.35603
 20
-8.12967
 11
1.25486
 21
-8.1474
  0
LINE
  8
0
 10
1.25486
 20
-8.1474
 11
0.972537
 21
-8.18275
  0
LINE
  8
0
 10
0.972537
 20
-8.18275
 11
0.831152
 21
-8.20045
  0
LINE
  8
0
 10
0.831152
 20
-8.20045
 11
0.665808
 21
-8.21287
  0
LINE
  8
0
 10
0.665808
 20
-8.21287
 11
0.413971
 21
-8.23179
  0
LINE
  8
0
 10
0.413971
 20
-8.23179
 11
0.18299
 21
-8.23757
  0
LINE
  8
0
 10
0.18299
 20
-8.23757
 11
0
 21
-8.24216
  0
LINE
  8
0
 10
0
 20
-8.24216
 11
-0.18299
 21
-8.23757
  0
LINE
  8
0
 10
-0.18299
 20
-8.23757
 11
-0.413971
 21
-8.23179
  0
LINE
  8
0
 10
-0.413971
 20
-8.23179
 11
-0.665808
 21
-8.21287
  0
LINE
  8
0
 10
-0.665808
 20
-8.21287
 11
-0.831152
 21
-8.20045
  0
LINE
  8
0
 10
-0.831152
 20
-8.20045
 11
-0.972537
 21
-8.18275
  0
LINE
  8
0
 10
-0.972537
 20
-8.18275
 11
-1.25486
 21
-8.1474
  0
LINE
  8
0
 10
-1.25486
 20
-8.1474
 11
-1.35603
 21
-8.12967
  0
LINE
  8
0
 10
-1.35603
 20
-8.12967
 11
-1.68864
 21
-8.07137
  0
LINE
  8
0
 10
-1.68864
 20
-8.07137
 11
-2.01155
 21
-7.99862
  0
LINE
  8
0
 10
-2.01155
 20
-7.99862
 11
-2.11268
 21
-7.97291
  0
LINE
  8
0
 10
-2.11268
 20
-7.97291
 11
-2.13549
 21
-7.96711
  0
LINE
  8
0
 10
-2.13549
 20
-7.96711
 11
-2.47352
 21
-7.86195
  0
LINE
  8
0
 10
-2.47352
 20
-7.86195
 11
-2.59643
 21
-7.82371
  0
LINE
  8
0
 10
-2.59643
 20
-7.82371
 11
-2.82573
 21
-7.73927
  0
LINE
  8
0
 10
-2.82573
 20
-7.73927
 11
-3.07762
 21
-7.64651
  0
LINE
  8
0
 10
-3.07762
 20
-7.64651
 11
-3.2057
 21
-7.59199
  0
LINE
  8
0
 10
-3.2057
 20
-7.59199
 11
-3.57864
 21
-7.43326
  0
LINE
  8
0
 10
-3.57864
 20
-7.43326
 11
-3.584
 21
-7.4307
  0
LINE
  8
0
 10
-3.584
 20
-7.4307
 11
-3.58834
 21
-7.42834
  0
LINE
  8
0
 10
-3.58834
 20
-7.42834
 11
-4.10748
 21
-7.14579
  0
LINE
  8
0
 10
-4.10748
 20
-7.14579
 11
-4.28976
 21
-7.03434
  0
LINE
  8
0
 10
-4.28976
 20
-7.03434
 11
-4.65451
 21
-6.81133
  0
LINE
  8
0
 10
-4.65451
 20
-6.81133
 11
-4.65934
 21
-6.80801
  0
LINE
  8
0
 10
-4.65934
 20
-6.80801
 11
-4.66231
 21
-6.80597
  0
LINE
  8
0
 10
-4.66231
 20
-6.80597
 11
-4.67599
 21
-6.7955
  0
LINE
  8
0
 10
-4.67599
 20
-6.7955
 11
-5.23013
 21
-6.3711
  0
LINE
  8
0
 10
-5.23013
 20
-6.3711
 11
-5.5056
 21
-6.13756
  0
LINE
  8
0
 10
-5.5056
 20
-6.13756
 11
-5.58957
 21
-6.0572
  0
LINE
  8
0
 10
-5.58957
 20
-6.0572
 11
-6.13688
 21
-6.60693
  0
LINE
  8
0
 10
-6.13688
 20
-6.60693
 11
-6.87502
 21
-7.34833
  0
LINE
  8
0
 10
-6.87502
 20
-7.34833
 11
-6.96866
 21
-7.44237
  0
LINE
  8
0
 10
-6.96866
 20
-7.44237
 11
-7.02795
 21
-7.50192
  0
LINE
  8
0
 10
-7.02795
 20
-7.50192
 11
-7.11468
 21
-7.58904
  0
LINE
  8
0
 10
-7.11468
 20
-7.58904
 11
-7.14195
 21
-7.61643
  0
LINE
  8
0
 10
-7.14195
 20
-7.61643
 11
-7.15378
 21
-7.60465
  0
LINE
  8
0
 10
-7.15378
 20
-7.60465
 11
-7.58495
 21
-7.17554
  0
LINE
  8
0
 10
-7.58495
 20
-7.17554
 11
-7.55759
 21
-7.14806
  0
LINE
  8
0
 10
-7.55759
 20
-7.14806
 11
-7.47507
 21
-7.06518
  0
LINE
  8
0
 10
-7.47507
 20
-7.06518
 11
-7.35988
 21
-6.94948
  0
LINE
  8
0
 10
-7.35988
 20
-6.94948
 11
-7.19535
 21
-6.78422
  0
LINE
  8
0
 10
-7.19535
 20
-6.78422
 11
-6.80884
 21
-6.396
  0
LINE
  8
0
 10
-6.80884
 20
-6.396
 11
-6.20741
 21
-5.79191
  0
LINE
  8
0
 10
-6.20741
 20
-5.79191
 11
-6.03008
 21
-5.6138
  0
LINE
  8
0
 10
-6.03008
 20
-5.6138
 11
-6.2159
 21
-5.41708
  0
LINE
  8
0
 10
-6.2159
 20
-5.41708
 11
-6.31077
 21
-5.30296
  0
LINE
  8
0
 10
-6.31077
 20
-5.30296
 11
-6.40184
 21
-5.19341
  0
LINE
  8
0
 10
-6.40184
 20
-5.19341
 11
-6.59823
 21
-4.9312
  0
LINE
  8
0
 10
-6.59823
 20
-4.9312
 11
-6.80482
 21
-4.65537
  0
LINE
  8
0
 10
-6.80482
 20
-4.65537
 11
-6.96452
 21
-4.40994
  0
LINE
  8
0
 10
-6.96452
 20
-4.40994
 11
-7.28503
 21
-3.85823
  0
LINE
  8
0
 10
-7.28503
 20
-3.85823
 11
-7.36873
 21
-3.68854
  0
LINE
  8
0
 10
-7.36873
 20
-3.68854
 11
-7.47043
 21
-3.48236
  0
LINE
  8
0
 10
-7.47043
 20
-3.48236
 11
-7.66519
 21
-3.03173
  0
LINE
  8
0
 10
-7.66519
 20
-3.03173
 11
-7.75841
 21
-2.76674
  0
LINE
  8
0
 10
-7.75841
 20
-2.76674
 11
-7.88123
 21
-2.41762
  0
LINE
  8
0
 10
-7.88123
 20
-2.41762
 11
-7.95108
 21
-2.18215
  0
LINE
  8
0
 10
-7.95108
 20
-2.18215
 11
-8.03804
 21
-1.78879
  0
LINE
  8
0
 10
-8.03804
 20
-1.78879
 11
-8.14256
 21
-1.31597
  0
LINE
  8
0
 10
-8.14256
 20
-1.31597
 11
-8.15364
 21
-1.24102
  0
LINE
  8
0
 10
-8.15364
 20
-1.24102
 11
-8.19883
 21
-0.773592
  0
LINE
  8
0
 10
-8.19883
 20
-0.773592
 11
-8.23111
 21
-0.439773
  0
LINE
  8
0
 10
-8.23111
 20
-0.439773
 11
-8.24215
 21
0
  0
LINE
  8
0
 10
-5.2459
 20
-8.72952
 11
-5.0821
 21
-8.58203
  0
LINE
  8
0
 10
-5.0821
 20
-8.58203
 11
-4.89121
 21
-8.69224
  0
LINE
  8
0
 10
-4.89121
 20
-8.69224
 11
-4.93704
 21
-8.90785
  0
LINE
  8
0
 10
-4.93704
 20
-8.90785
 11
-5.15625
 21
-8.93089
  0
LINE
  8
0
 10
-5.15625
 20
-8.93089
 11
-5.2459
 21
-8.72952
  0
LINE
  8
0
 10
-5.2459
 20
8.72952
 11
-5.15625
 21
8.93089
  0
LINE
  8
0
 10
-5.15625
 20
8.93089
 11
-4.93704
 21
8.90785
  0
LINE
  8
0
 10
-4.93704
 20
8.90785
 11
-4.89121
 21
8.69224
  0
LINE
  8
0
 10
-4.89121
 20
8.69224
 11
-5.0821
 21
8.58203
  0
LINE
  8
0
 10
-5.0821
 20
8.58203
 11
-5.2459
 21
8.72952
  0
LINE
  8
0
 10
-0.178323
 20
-10.1829
 11
-0.110209
 21
-9.97331
  0
LINE
  8
0
 10
-0.110209
 20
-9.97331
 11
0.110209
 21
-9.97331
  0
LINE
  8
0
 10
0.110209
 20
-9.97331
 11
0.178323
 21
-10.1829
  0
LINE
  8
0
 10
0.178323
 20
-10.1829
 11
0
 21
-10.3125
  0
LINE
  8
0
 10
0
 20
-10.3125
 11
-0.178323
 21
-10.1829
  0
LINE
  8
0
 10
-0.178323
 20
10.1829
 11
0
 21
10.3125
  0
LINE
  8
0
 10
0
 20
10.3125
 11
0.178323
 21
10.1829
  0
LINE
  8
0
 10
0.178323
 20
10.1829
 11
0.110209
 21
9.97331
  0
LINE
  8
0
 10
0.110209
 20
9.97331
 11
-0.110209
 21
9.97331
  0
LINE
  8
0
 10
-0.110209
 20
9.97331
 11
-0.178323
 21
10.1829
  0
LINE
  8
0
 10
4.89121
 20
-8.69224
 11
5.0821
 21
-8.58203
  0
LINE
  8
0
 10
5.0821
 20
-8.58203
 11
5.2459
 21
-8.72952
  0
LINE
  8
0
 10
5.2459
 20
-8.72952
 11
5.15625
 21
-8.93089
  0
LINE
  8
0
 10
5.15625
 20
-8.93089
 11
4.93704
 21
-8.90785
  0
LINE
  8
0
 10
4.93704
 20
-8.90785
 11
4.89121
 21
-8.69224
  0
LINE
  8
0
 10
4.89121
 20
8.69224
 11
4.93704
 21
8.90785
  0
LINE
  8
0
 10
4.93704
 20
8.90785
 11
5.15625
 21
8.93089
  0
LINE
  8
0
 10
5.15625
 20
8.93089
 11
5.2459
 21
8.72952
  0
LINE
  8
0
 10
5.2459
 20
8.72952
 11
5.0821
 21
8.58203
  0
LINE
  8
0
 10
5.0821
 20
8.58203
 11
4.89121
 21
8.69224
  0
LINE
  8
0
 10
8.58203
 20
-5.0821
 11
8.69224
 21
-4.89121
  0
LINE
  8
0
 10
8.69224
 20
-4.89121
 11
8.90785
 21
-4.93704
  0
LINE
  8
0
 10
8.90785
 20
-4.93704
 11
8.93089
 21
-5.15625
  0
LINE
  8
0
 10
8.93089
 20
-5.15625
 11
8.72952
 21
-5.2459
  0
LINE
  8
0
 10
8.72952
 20
-5.2459
 11
8.58203
 21
-5.0821
  0
LINE
  8
0
 10
8.58203
 20
5.0821
 11
8.72952
 21
5.2459
  0
LINE
  8
0
 10
8.72952
 20
5.2459
 11
8.93089
 21
5.15625
  0
LINE
  8
0
 10
8.93089
 20
5.15625
 11
8.90785
 21
4.93704
  0
LINE
  8
0
 10
8.90785
 20
4.93704
 11
8.69224
 21
4.89121
  0
LINE
  8
0
 10
8.69224
 20
4.89121
 11
8.58203
 21
5.0821
  0
LINE
  8
0
 10
9.97331
 20
-0.110209
 11
9.97331
 21
0.110209
  0
LINE
  8
0
 10
9.97331
 20
0.110209
 11
10.1829
 21
0.178323
  0
LINE
  8
0
 10
10.1829
 20
0.178323
 11
10.3125
 21
0
  0
LINE
  8
0
 10
10.3125
 20
0
 11
10.1829
 21
-0.178323
  0
LINE
  8
0
 10
10.1829
 20
-0.178323
 11
9.97331
 21
-0.110209
  0
ENDSEC
  0
SECTION
  2
OBJECTS
  0
DICTIONARY
  0
ENDSEC
  0
EOF
